<?xml version="1.0" encoding="utf-8"?>
<!-- Generator: Adobe Illustrator 18.1.1, SVG Export Plug-In . SVG Version: 6.00 Build 0)  -->
<svg version="1.1" id="Layer_1" xmlns="http://www.w3.org/2000/svg" xmlns:xlink="http://www.w3.org/1999/xlink" x="0px" y="0px"
	 viewBox="0 0 130 130" enable-background="new 0 0 130 130" xml:space="preserve">
<rect x="139.4" y="142.4" fill="none" width="127.5" height="17.3"/>
<text transform="matrix(1 0 0 1 180.7208 150.3806)" fill="#787878" font-family="'ProximaNova-Black'" font-size="12">events</text>
<rect x="139.4" y="-15.7" fill="none" width="127.5" height="17.3"/>
<text transform="matrix(1 0 0 1 180.7208 -7.6747)" fill="#787878" font-family="'ProximaNova-Black'" font-size="12">events</text>
<rect x="361.5" y="207.3" fill="none" width="127.5" height="17.3"/>
<text transform="matrix(1 0 0 1 368.8093 215.2738)" fill="#787878" font-family="'ProximaNova-Black'" font-size="12">Event Categories</text>
<g>
	<path fill="#F4F4F4" d="M127,22.9h-24.4c2.1,2.8,3.4,6.3,3.4,10.1c0,9.2-7.4,16.6-16.5,16.6C80.4,49.6,73,42.1,73,33
		c0-3.8,1.3-7.3,3.4-10.1H54.1c2.1,2.8,3.4,6.3,3.4,10.1c0,9.2-7.4,16.6-16.5,16.6c-9.1,0-16.5-7.4-16.5-16.6
		c0-3.8,1.3-7.3,3.4-10.1H3c-1.1,0-2,0.9-2,2V127c0,1.1,0.9,2,2,2h124c1.1,0,2-0.9,2-2V24.9C129,23.8,128.1,22.9,127,22.9z"/>
	<path fill="#F04E3C" d="M129,53.2V24.9c0-1.1-0.9-2-2-2h-24.4c2.1,2.8,3.4,6.3,3.4,10.1c0,9.2-7.4,16.6-16.5,16.6
		C80.4,49.6,73,42.1,73,33c0-3.8,1.3-7.3,3.4-10.1H54.1c2.1,2.8,3.4,6.3,3.4,10.1c0,9.2-7.4,16.6-16.5,16.6
		c-9.1,0-16.5-7.4-16.5-16.6c0-3.8,1.3-7.3,3.4-10.1H3c-1.1,0-2,0.9-2,2v28.4H129z"/>
	<path fill="#E0E0E0" d="M53.2,32.5c0,6.8-5.5,12.3-12.2,12.3l0,0c-6.7,0-12.2-5.5-12.2-12.3V13.3C28.8,6.5,34.3,1,41,1l0,0
		c6.7,0,12.2,5.5,12.2,12.3V32.5z"/>
	<path fill="#E0E0E0" d="M101.7,32.5c0,6.8-5.5,12.3-12.2,12.3l0,0c-6.7,0-12.2-5.5-12.2-12.3V13.3C77.3,6.5,82.8,1,89.5,1l0,0
		c6.7,0,12.2,5.5,12.2,12.3V32.5z"/>
	<g>
		<g>
			<path fill="#CCCCCC" d="M44.2,90.8c0,3.3-2.6,6-5.9,6c-3.3,0-5.9-2.7-5.9-6c0-3.3,2.6-6,5.9-6C41.6,84.8,44.2,87.5,44.2,90.8z"/>
			<path fill="#CCCCCC" d="M81.8,90.8c0,3.3-2.6,6-5.9,6c-3.3,0-5.9-2.7-5.9-6c0-3.3,2.6-6,5.9-6C79.2,84.8,81.8,87.5,81.8,90.8z"/>
			<path fill="#CCCCCC" d="M100.6,90.8c0,3.3-2.6,6-5.9,6c-3.3,0-5.9-2.7-5.9-6c0-3.3,2.6-6,5.9-6C98,84.8,100.6,87.5,100.6,90.8z"
				/>
			<path fill="#CCCCCC" d="M63,90.8c0,3.3-2.6,6-5.9,6c-3.3,0-5.9-2.7-5.9-6c0-3.3,2.6-6,5.9-6C60.4,84.8,63,87.5,63,90.8z"/>
			<path fill="#CCCCCC" d="M25.4,90.8c0,3.3-2.6,6-5.9,6c-3.3,0-5.9-2.7-5.9-6c0-3.3,2.6-6,5.9-6C22.8,84.8,25.4,87.5,25.4,90.8z"/>
			<path fill="#CCCCCC" d="M119.4,90.8c0,3.3-2.6,6-5.9,6c-3.3,0-5.9-2.7-5.9-6c0-3.3,2.6-6,5.9-6C116.8,84.8,119.4,87.5,119.4,90.8
				z"/>
		</g>
		<g>
			<path fill="#CCCCCC" d="M44.2,109.1c0,3.3-2.6,6-5.9,6c-3.3,0-5.9-2.7-5.9-6c0-3.3,2.6-6,5.9-6C41.6,103.1,44.2,105.8,44.2,109.1
				z"/>
			<path fill="#CCCCCC" d="M81.8,109.1c0,3.3-2.6,6-5.9,6c-3.3,0-5.9-2.7-5.9-6c0-3.3,2.6-6,5.9-6C79.2,103.1,81.8,105.8,81.8,109.1
				z"/>
			<path fill="#CCCCCC" d="M100.6,109.1c0,3.3-2.6,6-5.9,6c-3.3,0-5.9-2.7-5.9-6c0-3.3,2.6-6,5.9-6
				C98,103.1,100.6,105.8,100.6,109.1z"/>
			<path fill="#CCCCCC" d="M63,109.1c0,3.3-2.6,6-5.9,6c-3.3,0-5.9-2.7-5.9-6c0-3.3,2.6-6,5.9-6C60.4,103.1,63,105.8,63,109.1z"/>
			<path fill="#CCCCCC" d="M25.4,109.1c0,3.3-2.6,6-5.9,6c-3.3,0-5.9-2.7-5.9-6c0-3.3,2.6-6,5.9-6C22.8,103.1,25.4,105.8,25.4,109.1
				z"/>
			<path fill="#CCCCCC" d="M119.4,109.1c0,3.3-2.6,6-5.9,6c-3.3,0-5.9-2.7-5.9-6c0-3.3,2.6-6,5.9-6
				C116.8,103.1,119.4,105.8,119.4,109.1z"/>
		</g>
		<circle fill="#18B898" cx="113.5" cy="72.5" r="10.5"/>
		<g>
			<path fill="#CCCCCC" d="M81.8,72.5c0,3.3-2.6,6-5.9,6c-3.3,0-5.9-2.7-5.9-6c0-3.3,2.6-6,5.9-6C79.2,66.6,81.8,69.2,81.8,72.5z"/>
			<path fill="#CCCCCC" d="M100.6,72.5c0,3.3-2.6,6-5.9,6c-3.3,0-5.9-2.7-5.9-6c0-3.3,2.6-6,5.9-6C98,66.6,100.6,69.2,100.6,72.5z"
				/>
			<path fill="#CCCCCC" d="M63,72.5c0,3.3-2.6,6-5.9,6c-3.3,0-5.9-2.7-5.9-6c0-3.3,2.6-6,5.9-6C60.4,66.6,63,69.2,63,72.5z"/>
			<path fill="#FFFFFF" d="M119.4,72.5c0,3.3-2.6,6-5.9,6c-3.3,0-5.9-2.7-5.9-6c0-3.3,2.6-6,5.9-6C116.8,66.6,119.4,69.2,119.4,72.5
				z"/>
		</g>
	</g>
</g>
<g>
	<g>
		<circle fill="#81C2C9" cx="203.4" cy="223.5" r="64"/>
		<path opacity="0.15" fill="#FFFFFF" d="M254.3,262.3c8.2-10.8,13.1-24.2,13.1-38.8c0-35.3-28.7-64-64-64
			c-14.4,0-27.6,4.7-38.3,12.7C194.7,202.4,224.5,232.4,254.3,262.3z"/>
		<path opacity="5.000000e-02" d="M151.1,186.6c-7.4,10.4-11.7,23.2-11.7,36.9c0,35.3,28.7,64,64,64c13.6,0,26.1-4.2,36.5-11.4
			C210.2,246.4,180.6,216.6,151.1,186.6z"/>
	</g>
	<g>
		<path fill="#F4F4F4" d="M254.4,199.3c0-0.9-0.7-1.6-1.6-1.6h-19.5c1.7,2.2,2.7,5,2.7,8c0,7.3-5.9,13.2-13.1,13.2
			c-7.3,0-13.1-5.9-13.1-13.2c0-3,1-5.8,2.7-8h-17.8c1.7,2.2,2.7,5,2.7,8c0,7.3-5.9,13.2-13.1,13.2c-7.3,0-13.1-5.9-13.1-13.2
			c0-3,1-5.8,2.7-8H154c-0.9,0-1.6,0.7-1.6,1.6v62.9c11.7,15.4,30.2,25.4,51,25.4c20.8,0,39.3-10,51-25.4V199.3z"/>
		<path fill="#F04E3C" d="M254.4,221.9v-22.6c0-0.9-0.7-1.6-1.6-1.6h-19.5c1.7,2.2,2.7,5,2.7,8c0,7.3-5.9,13.2-13.1,13.2
			c-7.3,0-13.1-5.9-13.1-13.2c0-3,1-5.8,2.7-8h-17.8c1.7,2.2,2.7,5,2.7,8c0,7.3-5.9,13.2-13.1,13.2c-7.3,0-13.1-5.9-13.1-13.2
			c0-3,1-5.8,2.7-8H154c-0.9,0-1.6,0.7-1.6,1.6v22.6H254.4z"/>
		<path fill="#E0E0E0" d="M194,205.3c0,5.4-4.4,9.8-9.7,9.8l0,0c-5.4,0-9.7-4.4-9.7-9.8V190c0-5.4,4.4-9.8,9.7-9.8l0,0
			c5.4,0,9.7,4.4,9.7,9.8V205.3z"/>
		<path fill="#E0E0E0" d="M232.6,205.3c0,5.4-4.4,9.8-9.7,9.8l0,0c-5.4,0-9.7-4.4-9.7-9.8V190c0-5.4,4.4-9.8,9.7-9.8l0,0
			c5.4,0,9.7,4.4,9.7,9.8V205.3z"/>
		<g>
			<g>
				<path fill="#CCCCCC" d="M186.8,251.8c0,2.6-2.1,4.7-4.7,4.7c-2.6,0-4.7-2.1-4.7-4.7c0-2.6,2.1-4.7,4.7-4.7
					C184.7,247,186.8,249.2,186.8,251.8z"/>
				<path fill="#CCCCCC" d="M216.8,251.8c0,2.6-2.1,4.7-4.7,4.7c-2.6,0-4.7-2.1-4.7-4.7c0-2.6,2.1-4.7,4.7-4.7
					C214.7,247,216.8,249.2,216.8,251.8z"/>
				<path fill="#CCCCCC" d="M231.8,251.8c0,2.6-2.1,4.7-4.7,4.7c-2.6,0-4.7-2.1-4.7-4.7c0-2.6,2.1-4.7,4.7-4.7
					C229.7,247,231.8,249.2,231.8,251.8z"/>
				<path fill="#CCCCCC" d="M201.8,251.8c0,2.6-2.1,4.7-4.7,4.7c-2.6,0-4.7-2.1-4.7-4.7c0-2.6,2.1-4.7,4.7-4.7
					C199.7,247,201.8,249.2,201.8,251.8z"/>
				<path fill="#CCCCCC" d="M171.8,251.8c0,2.6-2.1,4.7-4.7,4.7c-2.6,0-4.7-2.1-4.7-4.7c0-2.6,2.1-4.7,4.7-4.7
					C169.7,247,171.8,249.2,171.8,251.8z"/>
				<path fill="#CCCCCC" d="M246.8,251.8c0,2.6-2.1,4.7-4.7,4.7c-2.6,0-4.7-2.1-4.7-4.7c0-2.6,2.1-4.7,4.7-4.7
					C244.6,247,246.8,249.2,246.8,251.8z"/>
			</g>
			<g>
				<path fill="#CCCCCC" d="M186.8,266.4c0,2.6-2.1,4.7-4.7,4.7c-2.6,0-4.7-2.1-4.7-4.7c0-2.6,2.1-4.7,4.7-4.7
					C184.7,261.6,186.8,263.7,186.8,266.4z"/>
				<path fill="#CCCCCC" d="M216.8,266.4c0,2.6-2.1,4.7-4.7,4.7c-2.6,0-4.7-2.1-4.7-4.7c0-2.6,2.1-4.7,4.7-4.7
					C214.7,261.6,216.8,263.7,216.8,266.4z"/>
				<path fill="#CCCCCC" d="M231.8,266.4c0,2.6-2.1,4.7-4.7,4.7c-2.6,0-4.7-2.1-4.7-4.7c0-2.6,2.1-4.7,4.7-4.7
					C229.7,261.6,231.8,263.7,231.8,266.4z"/>
				<path fill="#CCCCCC" d="M201.8,266.4c0,2.6-2.1,4.7-4.7,4.7c-2.6,0-4.7-2.1-4.7-4.7c0-2.6,2.1-4.7,4.7-4.7
					C199.7,261.6,201.8,263.7,201.8,266.4z"/>
				<path fill="#CCCCCC" d="M171.8,266.4c0,2.6-2.1,4.7-4.7,4.7c-2.6,0-4.7-2.1-4.7-4.7c0-2.6,2.1-4.7,4.7-4.7
					C169.7,261.6,171.8,263.7,171.8,266.4z"/>
				<path fill="#CCCCCC" d="M246.8,266.4c0,2.6-2.1,4.7-4.7,4.7c-2.6,0-4.7-2.1-4.7-4.7c0-2.6,2.1-4.7,4.7-4.7
					C244.6,261.6,246.8,263.7,246.8,266.4z"/>
			</g>
			<circle fill="#18B898" cx="242" cy="237.2" r="8.4"/>
			<g>
				<path fill="#CCCCCC" d="M216.8,237.2c0,2.6-2.1,4.7-4.7,4.7c-2.6,0-4.7-2.1-4.7-4.7c0-2.6,2.1-4.7,4.7-4.7
					C214.7,232.5,216.8,234.6,216.8,237.2z"/>
				<path fill="#CCCCCC" d="M231.8,237.2c0,2.6-2.1,4.7-4.7,4.7c-2.6,0-4.7-2.1-4.7-4.7c0-2.6,2.1-4.7,4.7-4.7
					C229.7,232.5,231.8,234.6,231.8,237.2z"/>
				<path fill="#CCCCCC" d="M201.8,237.2c0,2.6-2.1,4.7-4.7,4.7c-2.6,0-4.7-2.1-4.7-4.7c0-2.6,2.1-4.7,4.7-4.7
					C199.7,232.5,201.8,234.6,201.8,237.2z"/>
				<path fill="#FFFFFF" d="M246.8,237.2c0,2.6-2.1,4.7-4.7,4.7c-2.6,0-4.7-2.1-4.7-4.7c0-2.6,2.1-4.7,4.7-4.7
					C244.6,232.5,246.8,234.6,246.8,237.2z"/>
			</g>
		</g>
	</g>
</g>
<polygon fill="#FFFFFF" points="118.7,118.2 96.6,118.2 100.3,102.9 122.4,102.9 "/>
</svg>
