<?xml version="1.0" encoding="utf-8"?>
<!-- Generator: Adobe Illustrator 18.1.1, SVG Export Plug-In . SVG Version: 6.00 Build 0)  -->
<svg version="1.1" id="Layer_1" xmlns="http://www.w3.org/2000/svg" xmlns:xlink="http://www.w3.org/1999/xlink" x="0px" y="0px"
	 viewBox="0 0 130 130" enable-background="new 0 0 130 130" xml:space="preserve">
<g>
	<g>
		<circle fill="#81C2C9" cx="65" cy="65" r="64"/>
		<path opacity="0.15" fill="#FFFFFF" d="M115.9,103.8C124.1,93,129,79.6,129,65c0-35.3-28.7-64-64-64C50.6,1,37.4,5.7,26.7,13.7
			C56.3,43.9,86.1,73.9,115.9,103.8z"/>
		<path opacity="5.000000e-02" d="M12.7,28.1C5.4,38.5,1,51.2,1,65c0,35.3,28.7,64,64,64c13.6,0,26.1-4.2,36.5-11.4
			C71.8,87.9,42.2,58.1,12.7,28.1z"/>
	</g>
	<g>
		<path fill="#F4F4F4" d="M116,40.7c0-0.9-0.7-1.6-1.6-1.6H94.9c1.7,2.2,2.7,5,2.7,8c0,7.3-5.9,13.2-13.1,13.2
			c-7.3,0-13.1-5.9-13.1-13.2c0-3,1-5.8,2.7-8H56.3c1.7,2.2,2.7,5,2.7,8c0,7.3-5.9,13.2-13.1,13.2c-7.3,0-13.1-5.9-13.1-13.2
			c0-3,1-5.8,2.7-8H15.6c-0.9,0-1.6,0.7-1.6,1.6v62.9C25.7,119,44.2,129,65,129c20.8,0,39.3-10,51-25.4V40.7z"/>
		<path fill="#F04E3C" d="M116,63.3V40.7c0-0.9-0.7-1.6-1.6-1.6H94.9c1.7,2.2,2.7,5,2.7,8c0,7.3-5.9,13.2-13.1,13.2
			c-7.3,0-13.1-5.9-13.1-13.2c0-3,1-5.8,2.7-8H56.3c1.7,2.2,2.7,5,2.7,8c0,7.3-5.9,13.2-13.1,13.2c-7.3,0-13.1-5.9-13.1-13.2
			c0-3,1-5.8,2.7-8H15.6c-0.9,0-1.6,0.7-1.6,1.6v22.6H116z"/>
		<path fill="#E0E0E0" d="M55.6,46.8c0,5.4-4.4,9.8-9.7,9.8l0,0c-5.4,0-9.7-4.4-9.7-9.8V31.5c0-5.4,4.4-9.8,9.7-9.8l0,0
			c5.4,0,9.7,4.4,9.7,9.8V46.8z"/>
		<path fill="#E0E0E0" d="M94.2,46.8c0,5.4-4.4,9.8-9.7,9.8l0,0c-5.4,0-9.7-4.4-9.7-9.8V31.5c0-5.4,4.4-9.8,9.7-9.8l0,0
			c5.4,0,9.7,4.4,9.7,9.8V46.8z"/>
		<g>
			<g>
				<path fill="#CCCCCC" d="M48.4,93.2c0,2.6-2.1,4.7-4.7,4.7c-2.6,0-4.7-2.1-4.7-4.7c0-2.6,2.1-4.7,4.7-4.7
					C46.3,88.5,48.4,90.6,48.4,93.2z"/>
				<path fill="#CCCCCC" d="M78.4,93.2c0,2.6-2.1,4.7-4.7,4.7c-2.6,0-4.7-2.1-4.7-4.7c0-2.6,2.1-4.7,4.7-4.7
					C76.3,88.5,78.4,90.6,78.4,93.2z"/>
				<path fill="#CCCCCC" d="M93.4,93.2c0,2.6-2.1,4.7-4.7,4.7c-2.6,0-4.7-2.1-4.7-4.7c0-2.6,2.1-4.7,4.7-4.7
					C91.3,88.5,93.4,90.6,93.4,93.2z"/>
				<path fill="#CCCCCC" d="M63.4,93.2c0,2.6-2.1,4.7-4.7,4.7c-2.6,0-4.7-2.1-4.7-4.7c0-2.6,2.1-4.7,4.7-4.7
					C61.3,88.5,63.4,90.6,63.4,93.2z"/>
				<path fill="#CCCCCC" d="M33.4,93.2c0,2.6-2.1,4.7-4.7,4.7c-2.6,0-4.7-2.1-4.7-4.7c0-2.6,2.1-4.7,4.7-4.7
					C31.3,88.5,33.4,90.6,33.4,93.2z"/>
				<path fill="#CCCCCC" d="M108.4,93.2c0,2.6-2.1,4.7-4.7,4.7c-2.6,0-4.7-2.1-4.7-4.7c0-2.6,2.1-4.7,4.7-4.7
					C106.3,88.5,108.4,90.6,108.4,93.2z"/>
			</g>
			<g>
				<path fill="#CCCCCC" d="M48.4,107.8c0,2.6-2.1,4.7-4.7,4.7c-2.6,0-4.7-2.1-4.7-4.7c0-2.6,2.1-4.7,4.7-4.7
					C46.3,103.1,48.4,105.2,48.4,107.8z"/>
				<path fill="#CCCCCC" d="M78.4,107.8c0,2.6-2.1,4.7-4.7,4.7c-2.6,0-4.7-2.1-4.7-4.7c0-2.6,2.1-4.7,4.7-4.7
					C76.3,103.1,78.4,105.2,78.4,107.8z"/>
				<path fill="#CCCCCC" d="M93.4,107.8c0,2.6-2.1,4.7-4.7,4.7c-2.6,0-4.7-2.1-4.7-4.7c0-2.6,2.1-4.7,4.7-4.7
					C91.3,103.1,93.4,105.2,93.4,107.8z"/>
				<path fill="#CCCCCC" d="M63.4,107.8c0,2.6-2.1,4.7-4.7,4.7c-2.6,0-4.7-2.1-4.7-4.7c0-2.6,2.1-4.7,4.7-4.7
					C61.3,103.1,63.4,105.2,63.4,107.8z"/>
				<path fill="#CCCCCC" d="M33.4,107.8c0,2.6-2.1,4.7-4.7,4.7c-2.6,0-4.7-2.1-4.7-4.7c0-2.6,2.1-4.7,4.7-4.7
					C31.3,103.1,33.4,105.2,33.4,107.8z"/>
				<path fill="#CCCCCC" d="M108.4,107.8c0,2.6-2.1,4.7-4.7,4.7c-2.6,0-4.7-2.1-4.7-4.7c0-2.6,2.1-4.7,4.7-4.7
					C106.3,103.1,108.4,105.2,108.4,107.8z"/>
			</g>
			<circle fill="#18B898" cx="103.7" cy="78.7" r="8.4"/>
			<g>
				<path fill="#CCCCCC" d="M78.4,78.7c0,2.6-2.1,4.7-4.7,4.7c-2.6,0-4.7-2.1-4.7-4.7c0-2.6,2.1-4.7,4.7-4.7
					C76.3,73.9,78.4,76.1,78.4,78.7z"/>
				<path fill="#CCCCCC" d="M93.4,78.7c0,2.6-2.1,4.7-4.7,4.7c-2.6,0-4.7-2.1-4.7-4.7c0-2.6,2.1-4.7,4.7-4.7
					C91.3,73.9,93.4,76.1,93.4,78.7z"/>
				<path fill="#CCCCCC" d="M63.4,78.7c0,2.6-2.1,4.7-4.7,4.7c-2.6,0-4.7-2.1-4.7-4.7c0-2.6,2.1-4.7,4.7-4.7
					C61.3,73.9,63.4,76.1,63.4,78.7z"/>
				<path fill="#FFFFFF" d="M108.4,78.7c0,2.6-2.1,4.7-4.7,4.7c-2.6,0-4.7-2.1-4.7-4.7c0-2.6,2.1-4.7,4.7-4.7
					C106.3,73.9,108.4,76.1,108.4,78.7z"/>
			</g>
		</g>
	</g>
</g>
<polygon fill="#FFFFFF" points="118.7,118.2 96.6,118.2 100.3,102.9 122.4,102.9 "/>
</svg>
