<?xml version="1.0" encoding="utf-8"?>
<!-- Generator: Adobe Illustrator 18.1.1, SVG Export Plug-In . SVG Version: 6.00 Build 0)  -->
<svg version="1.1" id="Layer_1" xmlns="http://www.w3.org/2000/svg" xmlns:xlink="http://www.w3.org/1999/xlink" x="0px" y="0px"
	 viewBox="0 0 130 130" enable-background="new 0 0 130 130" xml:space="preserve">
<g>
	<g>
		<g>
			<g>
				<circle fill="#86B940" cx="65" cy="65.1" r="64"/>
				<path fill="#9CCA41" d="M115.9,103.8c8.2-10.8,13.1-24.2,13.1-38.8c0-35.3-28.7-64-64-64c-14.4,0-27.6,4.7-38.3,12.7
					C56.3,44,86.1,73.9,115.9,103.8z"/>
				<path fill="#81AE41" d="M12.7,28.2C5.4,38.6,1,51.3,1,65.1c0,35.3,28.7,64,64,64c13.6,0,26.1-4.2,36.5-11.4
					C71.8,87.9,42.2,58.1,12.7,28.2z"/>
			</g>
		</g>
	</g>
	<g>
		<g>
			
				<rect x="50.6" y="59.2" transform="matrix(-1 -8.535909e-03 8.535909e-03 -1 112.8848 123.7808)" fill="#FFFFFF" width="12.2" height="4.8"/>
			
				<rect x="33.4" y="64.4" transform="matrix(-0.7501 -0.6613 0.6613 -0.7501 15.9854 147.057)" fill="#FFFFFF" width="4.8" height="12.2"/>
			
				<rect x="77.9" y="44.5" transform="matrix(-0.7849 -0.6196 0.6196 -0.7849 111.9189 140.0604)" fill="#FFFFFF" width="4.8" height="12.2"/>
			
				<rect x="93.4" y="44.1" transform="matrix(0.7479 -0.6638 0.6638 0.7479 -9.1433 76.2359)" fill="#FFFFFF" width="4.8" height="12.2"/>
		</g>
		<g>
			<path fill="#FFFFFF" d="M32.7,74c-1.8-1.6-4-2.4-6.3-2.4c-2.6,0-5.2,1.1-7.1,3.2c-3.5,3.9-3.1,9.9,0.8,13.4
				c1.8,1.6,4,2.4,6.3,2.4c2.6,0,5.2-1.1,7.1-3.2C37,83.4,36.7,77.4,32.7,74z M30.2,84.3c-0.9,1.1-2.3,1.7-3.7,1.7
				c-1.2,0-2.4-0.4-3.3-1.2c-1-0.9-1.6-2.1-1.7-3.4c-0.1-1.3,0.4-2.6,1.2-3.6c0.9-1.1,2.3-1.7,3.7-1.7c1.2,0,2.4,0.4,3.3,1.2
				c1,0.9,1.6,2.1,1.7,3.4C31.5,82.1,31,83.3,30.2,84.3z"/>
			<path fill="#FFFFFF" d="M112.2,54.4c-1.9-2.1-4.5-3.2-7.1-3.2c-2.2,0-4.5,0.8-6.3,2.4c-3.9,3.5-4.3,9.5-0.8,13.4
				c1.9,2.1,4.5,3.2,7.1,3.2c2.2,0,4.5-0.8,6.3-2.4C115.4,64.3,115.7,58.3,112.2,54.4z M108.4,64.4c-0.9,0.8-2.1,1.2-3.3,1.2
				c-1.4,0-2.8-0.6-3.7-1.7c-1.8-2-1.6-5.2,0.4-7c0.9-0.8,2.1-1.2,3.3-1.2c1.4,0,2.8,0.6,3.7,1.7C110.6,59.5,110.5,62.6,108.4,64.4z
				"/>
			<path fill="#FFFFFF" d="M93.6,33.7c-1.7-1.4-3.8-2-5.9-2c-2.8,0-5.6,1.2-7.4,3.6c-3.2,4.1-2.5,10.1,1.6,13.3c1.7,1.4,3.8,2,5.9,2
				c2.8,0,5.6-1.2,7.4-3.6C98.5,42.9,97.8,36.9,93.6,33.7z M91.6,44.2c-0.9,1.2-2.4,1.9-3.9,1.9c-1.1,0-2.2-0.4-3-1.1
				c-2.1-1.7-2.5-4.8-0.8-6.9c0.9-1.2,2.4-1.9,3.9-1.9c1.1,0,2.2,0.4,3,1.1C93,38.9,93.3,42,91.6,44.2z"/>
			<path fill="#FFFFFF" d="M70.9,52.3C70.8,52.3,70.8,52.3,70.9,52.3c-5.3,0-9.5,4.2-9.6,9.4c0,5.2,4.2,9.5,9.4,9.6c0,0,0.1,0,0.1,0
				c5.2,0,9.4-4.2,9.5-9.4C80.3,56.6,76.1,52.3,70.9,52.3z M70.8,66.7L70.8,66.7c-1.4,0-2.6-0.5-3.5-1.5c-0.9-0.9-1.4-2.2-1.4-3.5
				c0-2.7,2.2-4.9,4.9-4.9l0,0c2.7,0,4.9,2.3,4.9,5C75.7,64.5,73.5,66.7,70.8,66.7z"/>
			<path fill="#FFFFFF" d="M44.7,52.1C44.7,52.1,44.6,52.1,44.7,52.1c-5.3,0-9.5,4.2-9.6,9.4c0,5.2,4.2,9.5,9.4,9.6c0,0,0.1,0,0.1,0
				c5.2,0,9.4-4.2,9.5-9.4C54.1,56.4,49.9,52.1,44.7,52.1z M44.6,66.5L44.6,66.5c-1.4,0-2.6-0.5-3.5-1.5c-0.9-0.9-1.4-2.2-1.4-3.5
				c0-2.7,2.2-4.9,4.9-4.9l0,0c2.7,0,4.9,2.3,4.9,5C49.5,64.3,47.3,66.5,44.6,66.5z"/>
		</g>
	</g>
</g>
</svg>
