<?xml version="1.0" encoding="utf-8"?>
<!-- Generator: Adobe Illustrator 18.1.1, SVG Export Plug-In . SVG Version: 6.00 Build 0)  -->
<svg version="1.1" id="Layer_1" xmlns="http://www.w3.org/2000/svg" xmlns:xlink="http://www.w3.org/1999/xlink" x="0px" y="0px"
	 viewBox="0 0 130 130" enable-background="new 0 0 130 130" xml:space="preserve">
<g>
	<g>
		<g>
			<g>
				<path fill="#813090" d="M100.8,26.4c0,0,0.1-1-7.9-1s-7.9,1-7.9,1L71.7,95.1l21.2,14.6l21.2-14.6L100.8,26.4z"/>
			</g>
		</g>
		<g>
			<path fill="#F9CA62" d="M44.9,26.4c0,0,0-1-7.9-1s-7.9,1-7.9,1L15.9,95.1l21.2,14.6l21.2-14.6L44.9,26.4z"/>
		</g>
		<g>
			<polygon fill="#73B8BC" points="72.9,35.5 57.1,35.5 43.8,114.2 65,128.8 86.2,114.2 			"/>
			<path fill="#2E87A5" d="M74.2,43.7l-1.4-8.1c0,0-0.3-1-7.9-1s-7.9,1-7.9,1L52,66C59.4,58.5,66.8,51.1,74.2,43.7z"/>
			<path fill="#2E87A5" d="M83,95.2l-4.6-27.3c-10.7,10.7-21.4,21.5-32.2,32.2l-2.4,14.1l11.9,8.2L83,95.2z"/>
		</g>
	</g>
	<path fill="#F9CA62" d="M37.1,1.2c-8.5,0-15.8,4.9-15.8,4.9s0.2,12.7,5.2,18c0,0,2.9-0.9,10.6-0.9s9.7,0.9,9.7,0.9
		c5.4-5.4,6-18,6-18S45.7,1.2,37.1,1.2z"/>
	<path fill="#813090" d="M93,1.2c-8.5,0-15.8,4.9-15.8,4.9s0.2,12.7,5.2,18c0,0,2.9-0.9,10.6-0.9s9.7,0.9,9.7,0.9c5.4-5.4,6-18,6-18
		S101.5,1.2,93,1.2z"/>
	<path fill="#2E87A5" d="M65,10.8c-8.5,0-15.8,4.9-15.8,4.9s0.2,12.7,5.2,18c0,0,2.9-0.9,10.6-0.9s9.7,0.9,9.7,0.9
		c5.4-5.4,6-18,6-18S73.6,10.8,65,10.8z"/>
</g>
<g>
	<path opacity="0.2" fill="#FFFFFF" d="M112.5,86.9l-11.7-60.5c0,0,0.1-1-7.9-1s-7.9,1-7.9,1l-5.4,27.7L112.5,86.9z"/>
	<path opacity="0.2" fill="#FFFFFF" d="M75.3,49.6l-1-6l-1.4-8.1c0,0-0.3-1-7.9-1c-2,0-3.5,0.1-4.7,0.2L75.3,49.6z"/>
	<path opacity="5.000000e-02" d="M101.3,104C85.4,88.1,69.5,72.2,53.6,56.3l-1.3,7.9l-2.2-11.5L28.3,31L15.9,95.1l21.2,14.6l8.5-5.9
		l-1.8,10.3L65,128.8l21.2-14.6l-1.8-10.3l8.5,5.9L101.3,104z"/>
	<path opacity="0.2" fill="#FFFFFF" d="M48.2,22.5c0.5-0.8,1-1.6,1.4-2.4c0.2,1.4,0.4,3,0.8,4.7l8.3,8.3c1.6-0.1,3.7-0.3,6.4-0.3
		c7.7,0,9.7,0.9,9.7,0.9c3.2-3.2,4.7-8.8,5.4-13c0.6,1.3,1.3,2.4,2.2,3.4c0,0,2.9-0.9,10.6-0.9s9.7,0.9,9.7,0.9c5.4-5.4,6-18,6-18
		S101.5,1.2,93,1.2c-8.5,0-15.8,4.9-15.8,4.9s0.1,3.8,0.9,8.1c-2.8-1.5-7.7-3.4-13.1-3.4c-5.6,0-10.6,2.1-13.4,3.6
		c1.1-4.4,1.3-8.2,1.3-8.2s-7.1-4.9-15.7-4.9c-3.2,0-6.2,0.7-8.8,1.6L48.2,22.5z"/>
</g>
</svg>
