<?xml version="1.0" encoding="utf-8"?>
<!-- Generator: Adobe Illustrator 18.0.0, SVG Export Plug-In . SVG Version: 6.00 Build 0)  -->
<!DOCTYPE svg PUBLIC "-//W3C//DTD SVG 1.1//EN" "http://www.w3.org/Graphics/SVG/1.1/DTD/svg11.dtd">
<svg version="1.1" id="Layer_1" xmlns="http://www.w3.org/2000/svg" xmlns:xlink="http://www.w3.org/1999/xlink" x="0px" y="0px"
	 viewBox="0 0 300 300" enable-background="new 0 0 300 300" xml:space="preserve">
<g>
	<circle fill="#F9CA62" cx="150" cy="150.1" r="147.7"/>
	<path opacity="0.1" fill="#FFFFFF" enable-background="new    " d="M267.5,239.4c18.9-24.9,30.2-55.8,30.2-89.5
		C297.7,68.4,231.5,2.2,150,2.2c-33.2,0-63.7,10.8-88.4,29.3C129.9,101.4,198.5,170.4,267.5,239.4z"/>
	<path opacity="5.000000e-02" fill="#010101" enable-background="new    " d="M29.3,65c-17.1,24-27,53.5-27,85.2
		c0,81.5,66.2,147.7,147.7,147.7c31.4,0,60.2-9.7,84.2-26.3C165.7,202.7,97.4,134,29.3,65z"/>
</g>
<g>
	<g>
		<g>
			<path fill="#FFFFFF" d="M211.3,43.7c-18.2,0-48.3,72.2-141,72.2v66.4c90.9,0,122.6,72.9,141,72.9c24.6,0,44.5-47.4,44.5-105.8
				S235.8,43.7,211.3,43.7z"/>
			<g>
				<path opacity="5.000000e-02" enable-background="new    " d="M211.3,231.6c-18.2,0-49.9-72.9-141-72.9v24.8
					c90.9,0,122.6,72.9,141,72.9c24.6,0,44.5-47.4,44.5-105.8c0-4.1-0.2-8.4-0.3-12.4C252.8,190.7,234.1,231.6,211.3,231.6z"/>
			</g>
			<g>
				<g>
					<ellipse fill="#8DCBCE" cx="217.3" cy="154.5" rx="27.4" ry="89.7"/>
					<path fill="#73B8BC" d="M189.8,154.5c0,37.2,6.9,69.1,16.7,82.6c9.9-13.6,16.7-45.4,16.7-82.6s-6.9-69.1-16.7-82.6
						C196.8,85.6,189.8,117.5,189.8,154.5z"/>
				</g>
				<path fill="#E8E8E8" d="M190.7,132.2c-0.5,7.1-0.8,14.5-0.8,22.3c0,7.8,0.3,15.2,0.8,22.3c10.9-1,19.5-10.6,19.5-22.3
					C210.3,142.8,201.7,133.2,190.7,132.2z"/>
			</g>
		</g>
		<path fill="#18B898" d="M94.6,114.1c-25-0.8-50.4,4.3-50.4,35.2s25.5,35.9,50.4,35V114.1z"/>
		<path fill="#FFFFFF" d="M94.6,184.1L94.6,184.1c-7.4,0.3-15,0-21.8-1.3v13.9c0,3.5,1.5,6.4,3.5,6.4h21.6c2,0,3.5-2.8,3.5-6.4
			v-11.4C99.1,185,97,184.5,94.6,184.1z"/>
		<path fill="#18B898" d="M60.6,178.8l5,55.4c0,3.5,1.5,6.4,3.5,6.4h31.6c2,0,3.5-2.8,3.5-6.4l-14.9-49.9
			C78.8,184.3,68.5,183,60.6,178.8z"/>
		<path opacity="5.000000e-02" enable-background="new    " d="M91.7,195.7c3.3-0.2,6.4-0.3,9.8-0.7v-9.6c-2.1-0.5-4.5-0.8-6.8-1.2
			l0,0c-1.8,0-3.6,0.2-5.5,0.2l0,0c-1.2,0-2.5,0-3.6,0c-0.3,0-0.5,0-0.8,0c-1,0-1.8-0.2-2.8-0.2c-0.3,0-0.5,0-0.8,0
			c-1.2-0.2-2.1-0.2-3.3-0.3c-0.3,0-0.5,0-0.7-0.2c-0.8-0.2-1.7-0.2-2.6-0.3c-0.3,0-0.7-0.2-1-0.2c-4.6-0.8-9.1-2.1-12.9-4.1v12.7
			C70.8,193.5,81.1,195.9,91.7,195.7z"/>
	</g>
	<path opacity="0.3" fill="#FFFFFF" enable-background="new    " d="M251.3,195.4c2.8-13.9,4.5-29.4,4.5-45.9
		c0-58.3-20-105.8-44.5-105.8c-11.6,0-27.8,28.8-61.3,49.9C183.7,127.6,217.4,161.5,251.3,195.4z"/>
</g>
</svg>
