<?xml version="1.0" encoding="utf-8"?>
<!-- Generator: Adobe Illustrator 18.1.1, SVG Export Plug-In . SVG Version: 6.00 Build 0)  -->
<svg version="1.1" id="Layer_1" xmlns="http://www.w3.org/2000/svg" xmlns:xlink="http://www.w3.org/1999/xlink" x="0px" y="0px"
	 viewBox="0 0 130 130" enable-background="new 0 0 130 130" xml:space="preserve">
<g>
	<g>
		<g>
			<g>
				<g>
					<circle fill="#3B98BC" cx="65" cy="111.7" r="16.6"/>
				</g>
				<g>
					<circle fill="#EA6C32" cx="65" cy="16.9" r="16.6"/>
				</g>
			</g>
			<g>
				<g>
					<circle fill="#813090" cx="17.6" cy="64.3" r="16.6"/>
				</g>
				<g>
					<circle fill="#9CCB41" cx="112.4" cy="64.3" r="16.6"/>
				</g>
			</g>
			<g>
				<g>
					<circle fill="#262626" cx="31.5" cy="30.8" r="16.6"/>
				</g>
				<g>
					<circle fill="#18B898" cx="98.5" cy="97.8" r="16.6"/>
				</g>
			</g>
			<g>
				<g>
					<circle fill="#F04E3C" cx="98.5" cy="30.8" r="16.6"/>
				</g>
				<g>
					<circle fill="#8DCBCE" cx="31.5" cy="97.8" r="16.6"/>
				</g>
			</g>
		</g>
	</g>
	<g>
		<g opacity="5.000000e-02">
			<circle cx="65" cy="111.7" r="16.6"/>
		</g>
		<g opacity="0.2">
			<path fill="#FFFFFF" d="M68.1,33.2c7.7-1.5,13.5-8.2,13.5-16.3c0-9.2-7.4-16.6-16.6-16.6c-8.1,0-14.8,5.8-16.3,13.5L68.1,33.2z"
				/>
		</g>
	</g>
	<g>
		<g opacity="5.000000e-02">
			<circle cx="17.6" cy="64.3" r="16.6"/>
		</g>
		<g opacity="0.2">
			<path fill="#FFFFFF" d="M115.5,80.6c7.7-1.5,13.5-8.2,13.5-16.3c0-9.2-7.4-16.6-16.6-16.6c-8.1,0-14.8,5.8-16.3,13.5L115.5,80.6z
				"/>
		</g>
	</g>
	<g>
		<path d="M22.8,16.6c-1.1,0.7-2.1,1.5-3.1,2.4c-6.5,6.5-6.5,17,0,23.4c6.5,6.5,17,6.5,23.4,0c0.9-0.9,1.7-2,2.4-3.1L22.8,16.6z"/>
	</g>
	<g opacity="5.000000e-02">
		<path d="M89.9,83.7c-1.1,0.7-2.1,1.5-3.1,2.4c-6.5,6.5-6.5,17,0,23.4c6.5,6.5,17,6.5,23.4,0c0.9-0.9,1.7-2,2.4-3.1L89.9,83.7z"/>
	</g>
	<g>
		<g opacity="0.2">
			<circle fill="#FFFFFF" cx="98.5" cy="30.8" r="16.6"/>
		</g>
		<g opacity="5.000000e-02">
			<circle cx="31.5" cy="97.8" r="16.6"/>
		</g>
	</g>
</g>
</svg>
