<?xml version="1.0" encoding="utf-8"?>
<!-- Generator: Adobe Illustrator 18.1.1, SVG Export Plug-In . SVG Version: 6.00 Build 0)  -->
<svg version="1.1" id="Layer_1" xmlns="http://www.w3.org/2000/svg" xmlns:xlink="http://www.w3.org/1999/xlink" x="0px" y="0px"
	 viewBox="0 0 130 130" enable-background="new 0 0 130 130" xml:space="preserve">
<g>
	<g>
		<path fill="#333333" d="M97,93.9l12-23.5c7.4-14.4-0.5-31.3-17.6-37.5h0c-17-6.2-37,0.5-44.3,14.9L23.6,93.9H97z"/>
		<path fill="#333333" d="M129,113.4l-21.1,15.2c0,0-105.1-39.9-105.8-55.3c0-0.8,23.7-18.2,23.7-18.2C37.9,46.9,129,44.1,129,57.5
			S129,113.4,129,113.4z"/>
		<path fill="#020202" d="M106.7,129L4.4,125.7c-1.2,0-2.3-1-2.3-2.2L1,75.1c0-1.2,1-2.2,2.3-2.2h103.4c1.2,0,2.3,1,2.3,2.2v51.7
			C108.9,128,107.9,129,106.7,129z"/>
		<path fill="#333333" d="M101,124.5l-91.5-3.3c-1.2,0-2.3-1-2.3-2.2L6.7,98.5c0-1.2,1-2.2,2.3-2.2l92.1,2.2c1.2,0,2.3,1,2.3,2.2
			v21.6C103.3,123.5,102.2,124.5,101,124.5z"/>
		<ellipse fill="#C6C6C5" stroke="#F2F2F2" stroke-miterlimit="10" cx="93.8" cy="111.9" rx="4.5" ry="4.5"/>
		<ellipse fill="#020202" cx="55" cy="98.5" rx="4.5" ry="4.5"/>
		<g>
			<path fill="#020202" d="M24.6,70h-8.1c-0.5,0-0.9-0.4-0.9-0.9l0,0c0-0.5,0.4-0.9,0.9-0.9h8.1c0.5,0,0.9,0.4,0.9,0.9l0,0
				C25.5,69.6,25.1,70,24.6,70z"/>
			<path fill="#D1D2D1" d="M16.5,69h8.2c0-0.1,0-0.2,0-0.2c0-2.3-1.9-4.1-4.2-4.1s-4.2,1.8-4.2,4.1c0,0.1,0,0.2,0,0.2
				C16.4,69,16.5,69,16.5,69z"/>
			<ellipse opacity="0.4" fill="#FFFFFF" cx="22.2" cy="66.5" rx="0.9" ry="0.9"/>
		</g>
		<g>
			<path fill="#020202" d="M32.1,63.5H24c-0.5,0-0.9-0.4-0.9-0.9l0,0c0-0.5,0.4-0.9,0.9-0.9h8.1c0.5,0,0.9,0.4,0.9,0.9l0,0
				C33,63.1,32.6,63.5,32.1,63.5z"/>
			<path fill="#F04E3C" d="M24,62.5h8.2c0-0.1,0-0.2,0-0.2c0-2.3-1.9-4.1-4.2-4.1s-4.2,1.8-4.2,4.1c0,0.1,0,0.2,0,0.2
				C23.9,62.5,24,62.5,24,62.5z"/>
			<ellipse opacity="0.4" fill="#FFFFFF" cx="29.7" cy="60" rx="0.9" ry="0.9"/>
		</g>
	</g>
	<g>
		<g>
			<path opacity="0.5" fill="#FFFFFF" d="M98,65.2H37.7c-0.9,0-1.6-0.7-1.6-1.6v0c0-0.9,0.7-1.6,1.6-1.6H98c0.9,0,1.6,0.7,1.6,1.6v0
				C99.6,64.5,98.9,65.2,98,65.2z"/>
			<path fill="#D8D8D8" d="M101.1,1H53v17.8h62.3l0.6-5C116,6.7,110.5,1,101.1,1z"/>
			<path fill="#FFFFFF" d="M103.4,1.1C103.4,1,103.3,1,103.4,1.1C103.3,1,66,1,51.4,1C36.8,1,31.2,21.1,31.2,35.6
				c0,11,1.6,21.1,9.6,28.5h55.5c-8-7.4-11.8-17.4-11.8-28.5C84.5,21.5,89.7,2.2,103.4,1.1z"/>
		</g>
		<g>
			<g>
				<path fill="#D3D3D3" d="M81.7,10.7H48c-0.6,0-1-0.4-1-0.9C47,9.4,47.5,9,48,9h33.7c0.6,0,1,0.4,1,0.9
					C82.7,10.3,82.3,10.7,81.7,10.7z"/>
			</g>
			<g>
				<path fill="#D3D3D3" d="M77.3,18.5H43.7c-0.6,0-1-0.4-1-0.9s0.5-0.9,1-0.9h33.7c0.6,0,1,0.4,1,0.9S77.9,18.5,77.3,18.5z"/>
			</g>
			<g>
				<path fill="#D3D3D3" d="M74.1,26.4H40.4c-0.6,0-1-0.4-1-0.9c0-0.5,0.5-0.9,1-0.9h33.7c0.6,0,1,0.4,1,0.9
					C75.1,26,74.7,26.4,74.1,26.4z"/>
			</g>
			<g>
				<path fill="#D3D3D3" d="M71.9,34.2H38.3c-0.6,0-1-0.4-1-0.9c0-0.5,0.5-0.9,1-0.9h33.7c0.6,0,1,0.4,1,0.9
					C73,33.8,72.5,34.2,71.9,34.2z"/>
			</g>
			<g>
				<path fill="#D3D3D3" d="M73,42H39.3c-0.6,0-1-0.4-1-0.9c0-0.5,0.5-0.9,1-0.9H73c0.6,0,1,0.4,1,0.9C74,41.6,73.6,42,73,42z"/>
			</g>
			<g>
				<path fill="#D3D3D3" d="M75.2,49.8H41.5c-0.6,0-1-0.4-1-0.9c0-0.5,0.5-0.9,1-0.9h33.7c0.6,0,1,0.4,1,0.9
					C76.2,49.4,75.8,49.8,75.2,49.8z"/>
			</g>
			<g>
				<path fill="#D3D3D3" d="M80.6,57.6H46.9c-0.6,0-1-0.4-1-0.9c0-0.5,0.5-0.9,1-0.9h33.7c0.6,0,1,0.4,1,0.9
					C81.7,57.2,81.2,57.6,80.6,57.6z"/>
			</g>
		</g>
	</g>
	<circle fill="#F2F2F2" cx="95.8" cy="110.7" r="2"/>
</g>
</svg>
