<?xml version="1.0" encoding="utf-8"?>
<!-- Generator: Adobe Illustrator 18.1.1, SVG Export Plug-In . SVG Version: 6.00 Build 0)  -->
<svg version="1.1" id="Layer_1" xmlns="http://www.w3.org/2000/svg" xmlns:xlink="http://www.w3.org/1999/xlink" x="0px" y="0px"
	 viewBox="0 0 130 130" enable-background="new 0 0 130 130" xml:space="preserve">
<g>
	<g>
		<g>
			<g>
				<g>
					<g>
						<circle fill="#18B898" cx="65" cy="65" r="64"/>
						<path opacity="0.1" fill="#FFFFFF" d="M115.9,103.8C124.1,93,129,79.6,129,65c0-35.3-28.7-64-64-64C50.6,1,37.4,5.7,26.7,13.7
							C56.3,43.9,86.1,73.9,115.9,103.8z"/>
						<path opacity="5.000000e-02" d="M12.7,28.1C5.4,38.5,1,51.2,1,65c0,35.3,28.7,64,64,64c13.6,0,26.1-4.2,36.5-11.4
							C71.8,87.9,42.2,58.1,12.7,28.1z"/>
					</g>
				</g>
			</g>
		</g>
	</g>
	<g>
		<path fill="#FFD76D" d="M26.8,77.1H4.6c-1.1,0-2,0.9-2,2v0.2c3.6,15.9,13.2,29.5,26.2,38.5V79.1C28.8,78,27.9,77.1,26.8,77.1z"/>
		<path fill="#FCB316" d="M58.6,58.4H36.5c-1.1,0-2,0.9-2,2v60.9c7.9,4.3,16.7,6.9,26.2,7.6V60.4C60.6,59.3,59.7,58.4,58.6,58.4z"/>
		<path fill="#F17536" d="M90.5,39.7H68.3c-1.1,0-2,0.9-2,2V129c9.4-0.2,18.2-2.4,26.2-6.2V41.7C92.5,40.6,91.6,39.7,90.5,39.7z"/>
	</g>
	<g>
		<path fill="#FFFFFF" d="M70.8,36.5v-1.4l2.4-3.4c0,0,0.1-0.1,0.2-0.3c0.1-0.1,0.2-0.2,0.2-0.3c0,0,0.1-0.1,0.2-0.3
			c0.1-0.1,0.1-0.2,0.2-0.3c0-0.1,0.1-0.2,0.1-0.3c0.1-0.1,0.1-0.2,0.1-0.3s0-0.2,0.1-0.3s0-0.3,0-0.4c0-0.4-0.1-0.7-0.3-1
			c-0.2-0.3-0.4-0.4-0.8-0.4c-0.2,0-0.4,0-0.5,0.1c-0.1,0.1-0.2,0.2-0.3,0.4c-0.1,0.2-0.1,0.4-0.2,0.5s0,0.4,0,0.6v0.3h-1.4v-0.3
			c0-0.9,0.2-1.6,0.6-2.1c0.4-0.5,1-0.7,1.8-0.7c0.8,0,1.4,0.2,1.8,0.7s0.6,1.1,0.6,1.8c0,0.3,0,0.6-0.1,0.8
			c-0.1,0.3-0.1,0.5-0.2,0.7c-0.1,0.2-0.2,0.4-0.3,0.6c-0.1,0.2-0.2,0.4-0.4,0.6l-2.4,3.1h3.4v1.4H70.8z"/>
		<path fill="#FFFFFF" d="M78.6,36.6c-0.5,0-1-0.1-1.3-0.4c-0.4-0.2-0.6-0.6-0.8-1c-0.2-0.4-0.3-0.9-0.3-1.5v-4.1
			c0-0.9,0.2-1.6,0.6-2.1s1-0.8,1.8-0.8c0.8,0,1.4,0.3,1.8,0.8c0.4,0.5,0.6,1.2,0.6,2.1v4.1c0,0.9-0.2,1.6-0.6,2.1
			C80,36.3,79.4,36.6,78.6,36.6z M78.6,35.4c0.7,0,1-0.6,1-1.7v-4.1c0-0.2,0-0.4,0-0.5s0-0.3-0.1-0.5c0-0.2-0.1-0.3-0.2-0.4
			C79.3,28.1,79.2,28,79,28s-0.3-0.1-0.4-0.1s-0.3,0-0.4,0.1s-0.2,0.1-0.3,0.3c-0.1,0.1-0.1,0.2-0.2,0.4c0,0.2-0.1,0.3-0.1,0.5
			s0,0.3,0,0.5v4.1c0,0.2,0,0.4,0,0.6c0,0.2,0.1,0.4,0.2,0.5c0.1,0.2,0.2,0.3,0.3,0.4S78.4,35.4,78.6,35.4z"/>
		<path fill="#FFFFFF" d="M82.6,36.5v-7.6h-1v-1c0.7-0.2,1.1-0.6,1.4-1h1v9.6H82.6z"/>
		<path fill="#FFFFFF" d="M87.6,36.5V34h-2.8v-1.5l2.4-5.6H89v5.9H90V34H89v2.5H87.6z M86.2,32.7h1.4v-4.1L86.2,32.7z"/>
	</g>
	<path fill="#813090" d="M124.4,41.1c-0.3-0.7-0.6-1.4-0.9-2.1c0,0,0,0,0,0c-0.9-2-1.9-4-3-5.9c0,0,0-0.1-0.1-0.1
		c-1.5-2.6-3.1-5-4.9-7.3c0,0,0,0,0,0h-15.3c-1.1,0-2,0.9-2,2v92.1c11.4-6.9,20.4-17.3,25.7-29.6c0.2-0.4,0.3-0.8,0.5-1.2
		c0,0,0,0,0,0V41.1z"/>
	<g>
		<g>
			<path fill="#FFFFFF" d="M106.9,17.4c0.1-0.1,0.2-0.3,0.3-0.5c-0.4-0.3-0.7-0.6-1.1-0.9c0,0,0,0,0,0c0,0.1-0.1,0.2-0.1,0.3
				c-0.1,0.1-0.1,0.2-0.1,0.3c0,0.1-0.1,0.2-0.2,0.3c-0.1,0.1-0.1,0.2-0.2,0.3c0,0-0.1,0.1-0.2,0.3c-0.1,0.1-0.2,0.2-0.2,0.3
				l-2.4,3.4v1.4h4.8v-1.4h-3.4l2.4-3.1C106.7,17.8,106.8,17.6,106.9,17.4z"/>
			<path fill="#FFFFFF" d="M104.1,15.9v-0.3c0-0.2,0-0.4,0-0.6c0-0.2,0.1-0.3,0.1-0.5c-0.4-0.3-0.7-0.6-1.1-0.8
				c-0.3,0.5-0.5,1.1-0.5,1.9v0.3H104.1z"/>
		</g>
		<path fill="#FFFFFF" d="M112.2,21.8c-0.3-0.3-0.6-0.6-0.9-1c-0.2,0.4-0.4,0.6-0.8,0.6c-0.2,0-0.4,0-0.5-0.1s-0.2-0.2-0.3-0.4
			c-0.1-0.2-0.1-0.4-0.2-0.5c0-0.2,0-0.4,0-0.6V19c-0.5-0.4-0.9-0.9-1.4-1.3v2c0,0.6,0.1,1.1,0.3,1.5c0.2,0.4,0.4,0.8,0.8,1
			c0.4,0.2,0.8,0.4,1.3,0.4C111.2,22.6,111.8,22.3,112.2,21.8z"/>
	</g>
	<g>
		<path fill="#FFFFFF" d="M37,54.7v-1.4l2.4-3.4c0,0,0.1-0.1,0.2-0.3c0.1-0.1,0.2-0.2,0.2-0.3c0,0,0.1-0.1,0.2-0.3
			c0.1-0.1,0.1-0.2,0.2-0.3c0-0.1,0.1-0.2,0.1-0.3c0.1-0.1,0.1-0.2,0.1-0.3s0-0.2,0.1-0.3s0-0.3,0-0.4c0-0.4-0.1-0.7-0.3-1
			c-0.2-0.3-0.4-0.4-0.8-0.4c-0.2,0-0.4,0-0.5,0.1c-0.1,0.1-0.2,0.2-0.3,0.4c-0.1,0.2-0.1,0.4-0.2,0.5s0,0.4,0,0.6v0.3H37v-0.3
			c0-0.9,0.2-1.6,0.6-2.1c0.4-0.5,1-0.7,1.8-0.7c0.8,0,1.4,0.2,1.8,0.7s0.6,1.1,0.6,1.8c0,0.3,0,0.6-0.1,0.8
			c-0.1,0.3-0.1,0.5-0.2,0.7c-0.1,0.2-0.2,0.4-0.3,0.6c-0.1,0.2-0.2,0.4-0.4,0.6l-2.4,3.1h3.4v1.4H37z"/>
		<path fill="#FFFFFF" d="M44.7,54.8c-0.5,0-1-0.1-1.3-0.4c-0.4-0.2-0.6-0.6-0.8-1c-0.2-0.4-0.3-0.9-0.3-1.5v-4.1
			c0-0.9,0.2-1.6,0.6-2.1s1-0.8,1.8-0.8c0.8,0,1.4,0.3,1.8,0.8c0.4,0.5,0.6,1.2,0.6,2.1v4.1c0,0.9-0.2,1.6-0.6,2.1
			C46.1,54.5,45.5,54.8,44.7,54.8z M44.7,53.7c0.7,0,1-0.6,1-1.7v-4.1c0-0.2,0-0.4,0-0.5s0-0.3-0.1-0.5c0-0.2-0.1-0.3-0.2-0.4
			c-0.1-0.1-0.2-0.2-0.3-0.3s-0.3-0.1-0.4-0.1s-0.3,0-0.4,0.1S44,46.3,44,46.4c-0.1,0.1-0.1,0.2-0.2,0.4c0,0.2-0.1,0.3-0.1,0.5
			s0,0.3,0,0.5v4.1c0,0.2,0,0.4,0,0.6c0,0.2,0.1,0.4,0.2,0.5c0.1,0.2,0.2,0.3,0.3,0.4S44.5,53.7,44.7,53.7z"/>
		<path fill="#FFFFFF" d="M48.7,54.7v-7.6h-1v-1c0.7-0.2,1.1-0.6,1.4-1h1v9.6H48.7z"/>
		<path fill="#FFFFFF" d="M53.3,54.8c-0.8,0-1.4-0.2-1.8-0.7s-0.6-1.1-0.6-1.8v-0.3h1.4c0,0.2,0,0.4,0,0.6c0,0.2,0,0.3,0.1,0.5
			c0,0.2,0.1,0.3,0.2,0.4s0.2,0.2,0.3,0.2c0.1,0.1,0.3,0.1,0.5,0.1s0.3,0,0.5-0.1c0.1-0.1,0.2-0.1,0.3-0.2s0.1-0.2,0.2-0.4
			c0-0.2,0.1-0.3,0.1-0.5c0-0.2,0-0.3,0-0.6c0-0.6-0.1-1-0.3-1.3c-0.2-0.3-0.6-0.4-1.1-0.4v-1.4c0.5,0,0.9-0.1,1.1-0.3
			s0.3-0.6,0.3-1.1c0-0.5-0.1-0.8-0.2-1c-0.2-0.2-0.4-0.3-0.8-0.3c-0.2,0-0.3,0-0.5,0.1c-0.1,0.1-0.2,0.1-0.3,0.2s-0.1,0.2-0.2,0.4
			c0,0.2-0.1,0.3-0.1,0.5c0,0.2,0,0.3,0,0.6h-1.4v-0.3c0-0.8,0.2-1.4,0.6-1.8c0.4-0.4,1-0.7,1.8-0.7c0.8,0,1.4,0.2,1.8,0.7
			s0.6,1.1,0.6,1.8c0,0.5-0.1,1-0.4,1.3c-0.2,0.3-0.6,0.6-1,0.7c0.4,0.2,0.8,0.4,1,0.8c0.2,0.4,0.4,0.9,0.4,1.6
			c0,0.9-0.2,1.6-0.6,2.1C54.8,54.5,54.2,54.8,53.3,54.8z"/>
	</g>
	<g>
		<path fill="#FFFFFF" d="M5.6,72.7v-1.4L8,67.9c0,0,0.1-0.1,0.2-0.3c0.1-0.1,0.2-0.2,0.2-0.3c0,0,0.1-0.1,0.2-0.3
			c0.1-0.1,0.1-0.2,0.2-0.3c0-0.1,0.1-0.2,0.1-0.3c0.1-0.1,0.1-0.2,0.1-0.3S9,66,9,65.9s0-0.3,0-0.4c0-0.4-0.1-0.7-0.3-1
			c-0.2-0.3-0.4-0.4-0.8-0.4c-0.2,0-0.4,0-0.5,0.1c-0.1,0.1-0.2,0.2-0.3,0.4C7.1,64.9,7,65.1,7,65.2s0,0.4,0,0.6v0.3H5.6v-0.3
			c0-0.9,0.2-1.6,0.6-2.1C6.6,63.3,7.2,63,8,63c0.8,0,1.4,0.2,1.8,0.7s0.6,1.1,0.6,1.8c0,0.3,0,0.6-0.1,0.8
			c-0.1,0.3-0.1,0.5-0.2,0.7c-0.1,0.2-0.2,0.4-0.3,0.6c-0.1,0.2-0.2,0.4-0.4,0.6L7,71.4h3.4v1.4H5.6z"/>
		<path fill="#FFFFFF" d="M13.3,72.8c-0.5,0-1-0.1-1.3-0.4c-0.4-0.2-0.6-0.6-0.8-1c-0.2-0.4-0.3-0.9-0.3-1.5v-4.1
			c0-0.9,0.2-1.6,0.6-2.1s1-0.8,1.8-0.8c0.8,0,1.4,0.3,1.8,0.8c0.4,0.5,0.6,1.2,0.6,2.1V70c0,0.9-0.2,1.6-0.6,2.1
			C14.7,72.6,14.1,72.8,13.3,72.8z M13.3,71.7c0.7,0,1-0.6,1-1.7v-4.1c0-0.2,0-0.4,0-0.5s0-0.3-0.1-0.5c0-0.2-0.1-0.3-0.2-0.4
			c-0.1-0.1-0.2-0.2-0.3-0.3s-0.3-0.1-0.4-0.1s-0.3,0-0.4,0.1s-0.2,0.1-0.3,0.3c-0.1,0.1-0.1,0.2-0.2,0.4c0,0.2-0.1,0.3-0.1,0.5
			s0,0.3,0,0.5V70c0,0.2,0,0.4,0,0.6c0,0.2,0.1,0.4,0.2,0.5c0.1,0.2,0.2,0.3,0.3,0.4S13.1,71.7,13.3,71.7z"/>
		<path fill="#FFFFFF" d="M17.3,72.7v-7.6h-1v-1c0.7-0.2,1.1-0.6,1.4-1h1v9.6H17.3z"/>
		<path fill="#FFFFFF" d="M19.5,72.7v-1.4l2.4-3.4c0,0,0.1-0.1,0.2-0.3c0.1-0.1,0.2-0.2,0.2-0.3c0,0,0.1-0.1,0.2-0.3
			c0.1-0.1,0.1-0.2,0.2-0.3c0-0.1,0.1-0.2,0.1-0.3c0.1-0.1,0.1-0.2,0.1-0.3s0-0.2,0.1-0.3s0-0.3,0-0.4c0-0.4-0.1-0.7-0.3-1
			c-0.2-0.3-0.4-0.4-0.8-0.4c-0.2,0-0.4,0-0.5,0.1c-0.1,0.1-0.2,0.2-0.3,0.4c-0.1,0.2-0.1,0.4-0.2,0.5s0,0.4,0,0.6v0.3h-1.4v-0.3
			c0-0.9,0.2-1.6,0.6-2.1c0.4-0.5,1-0.7,1.8-0.7c0.8,0,1.4,0.2,1.8,0.7s0.6,1.1,0.6,1.8c0,0.3,0,0.6-0.1,0.8
			c-0.1,0.3-0.1,0.5-0.2,0.7c-0.1,0.2-0.2,0.4-0.3,0.6c-0.1,0.2-0.2,0.4-0.4,0.6l-2.4,3.1h3.4v1.4H19.5z"/>
	</g>
</g>
</svg>
