<?xml version="1.0" encoding="utf-8"?>
<!-- Generator: Adobe Illustrator 18.1.1, SVG Export Plug-In . SVG Version: 6.00 Build 0)  -->
<svg version="1.1" id="Layer_1" xmlns="http://www.w3.org/2000/svg" xmlns:xlink="http://www.w3.org/1999/xlink" x="0px" y="0px"
	 viewBox="0 0 130 130" enable-background="new 0 0 130 130" xml:space="preserve">
<g>
	<g>
		<g>
			<circle fill="#18B898" cx="65" cy="65" r="64"/>
			<path opacity="0.1" fill="#FFFFFF" d="M115.9,103.8C124.1,93,129,79.6,129,65c0-35.3-28.7-64-64-64C50.6,1,37.4,5.7,26.7,13.7
				C56.3,43.9,86.1,73.9,115.9,103.8z"/>
			<path opacity="5.000000e-02" d="M12.7,28.1C5.4,38.5,1,51.2,1,65c0,35.3,28.7,64,64,64c13.6,0,26.1-4.2,36.5-11.4
				C71.8,87.9,42.2,58.1,12.7,28.1z"/>
		</g>
	</g>
	<g>
		<g>
			<g>
				<path fill="#F9F5B3" d="M110.2,92.4c-1.2-1.7-4.4-6.2-11.3-6.2c-7,0-10.3,3.9-11.3,6.3c-1.4,2.2-3.8,8.5,0.9,10.5
					c4.1,1.8,16.8,1.9,21.7,0C114.5,101.2,111.4,94.1,110.2,92.4z"/>
				<path fill="#5D2D0F" d="M106.8,83.7c0-0.1,0-0.2,0-0.3c0.9,0.8,1.9,0.7,1.8,0.5c-1.7-1.5-0.3-2.9-0.3-5.7c0-1.4,0.1-2.6,0-3.8
					c0.1-1.7,0-3.1-0.6-4.1c-0.2-0.3-0.6-0.6-1.1-0.8c-2.1-2-9.2-3.5-9.3-0.7c0,0.6,0.1,1.1,0.5,1.7c-0.3-0.1-0.6-0.2-0.9-0.3
					c-0.8-0.9-2.2-1.2-3.7-0.7c-1.4,0-2.5,0.3-3,1c-0.5,0.7-0.6,1.6-0.7,2.7c-0.8,1.7-0.2,2.8-0.2,5.5c0,3.1,1,4.7-1.2,6.5
					c-0.3,0.2,2,0.2,3.1-1.5c0,0.2,0,0.3,0,0.5c0,2.9-5.6,3.9-5.6,3.9s10.9,5.5,10.4-6c-0.1-2.2,1.9-3.6,3.2-5.4
					c1.2,1.3,2.7,2.4,2.5,4.3c-1.1,11.8,9.2,7.4,9.2,7.4S106.7,86.6,106.8,83.7z"/>
				<path fill="#F9D8A5" d="M107.4,77.7c0-1.7-0.1-4.5-1-5.8c-1.4-2.1-3.9-3.5-7.3-3.5c-3.4,0-6.5,1-7.7,3.6
					c-0.7,1.5-0.3,4.2-0.3,5.8c0.1,4.5,1.8,5.9,3.9,7.9c0.1,0.1,0.1,0.1,0.2,0.2c-0.1,1.3-0.3,2.5-0.9,3.1c-1,1.2,0.9,6.6,4.8,6.6
					c4.6-0.1,5.7-5.6,4.8-6.6c-0.6-0.7-0.9-1.8-1.1-3.1C104.9,84.1,107.3,82.3,107.4,77.7z"/>
				<path fill="#5D2D0F" d="M109.3,74.8c0.7-0.1,1.4-0.3,2-0.5c-0.7-0.2-1.3-0.5-1.9-0.9c0-0.1,0-0.2,0-0.2c0-3,0.4-5.4-1.3-8.2
					c-1.1-1.8-6.8-3.5-8.9-2.4c-0.3-0.1-0.7-0.2-1.1-0.2c-1.9-0.2-3.6,0.4-4.9,1.4c-1.3,0-2.7,0.6-3.7,2c-2.2,3-1.1,4.5-1,7.9
					c0,3.1,1,4.7-1.2,6.5c-0.3,0.2,1.8,0.2,3-1.4c-0.2,1.8-0.7,2.9-2.4,4.2c-0.4,0.3,5.6,0.4,4.9-4.7c-0.4-3.1,1.2-5.7,2.8-7.7
					c2.8,1.8,6.3,3.5,9.8,4.1c1,1.4,1.7,2.7,1.7,3.6c-0.2,4.5,3.2,3.5,2.9,3.2C108.5,80.4,109,77.4,109.3,74.8z"/>
			</g>
			<g>
				<g>
					<g>
						<path fill="#B98E63" d="M52.2,90.2C51.5,88,41.3,87,40.7,85.5c-0.5-1.3-1.6-3.9-0.5-4.9c0,0,0,0,0,0c0.2-0.1,0.5-0.3,0.7-0.5
							c0,0,0.1,0,0.1-0.1h0c1.7-1.4,2.4-3.8,2.8-5.7c0.9-0.1,2.1-1.4,2.1-2.7c0-1.1-0.7-2.1-1.2-2.5c0.7-4,0.7-9.4-9.1-9.4
							c-9.2,0-9.7,5.1-9,9.4c-0.5,0.3-1.3,1.4-1.3,2.6c0,1.4,1.3,2.7,2.1,2.7c0.2,1.7,1,4.3,2.8,5.7h0c0.2,0.1,0.3,0.2,0.5,0.3
							c1.5,0.8,0.3,3.7-0.2,5.1C30,87,19.7,88,19,90.2c-1.1,3.4-2.7,11,0.3,12.7c3.5,2,29.1,2,32.6,0
							C54.9,101.1,53.2,93.5,52.2,90.2z"/>
					</g>
					<path fill="#5D2D0F" d="M37.3,61.7c4.5,0.3,5.7,4.1,5.7,4.1s0.9,3.2,0.7,5.5c0,0.2,0.7,0.2,0.8,0.1c0.8-3.9,1-6,0.1-8.3
						c0.5-2.9-0.2-4.8-2.1-4.6c-0.4-2-2.4-2.8-5.2-1.8c0.1-1.1-5.1-2.1-7.8,0.9c-4-0.8-2.8,6.1-2.8,6.1s-1.2,1.3,0.1,7.5
						c0,0,0.9,0.1,0.9-0.3c0.1-1.2-0.3-3.7-0.1-5.5c0.1-1.2,0.9-3.7,2.4-2.6C31.7,64.3,34.4,61.5,37.3,61.7z"/>
				</g>
				<path fill="#EAF5F4" d="M40.7,85.5c-0.1-0.3,0,4.7-5.1,4.7c-5,0-5-5-5.1-4.7C30,87,19.7,88,19,90.2c-1.1,3.4-2.7,11,0.3,12.7
					c3.5,2,29.1,2,32.6,0c3-1.7,1.3-9.3,0.3-12.7C51.5,88,41.3,87,40.7,85.5z"/>
			</g>
		</g>
		<g>
			<path fill="#EA6C32" d="M76.5,40.3c-1.2-1.7-4.4-6.3-11.4-6.3s-10.3,4-11.4,6.4c-1.4,2.2-3.8,8.5,0.9,10.6c4.1,1.8,16.9,2,21.8,0
				C80.9,49.1,77.7,42,76.5,40.3z"/>
			<path fill="#C9AD39" d="M72,33.2c0-2.9,1.6-6.5-0.2-9.2c-1.3-2-7.3-3.4-8.2-1.2c-2.1,0-4.8,1-5.6,2.3c-1.8,2.7-0.2,6.4-0.2,9.3
				c0,2.6-2,3.4-2,3.4s6.7-1,6.5-5.3c-0.1-2.1,1.9-3.4,3.2-5.2c1,1,1.9,1.9,1.9,3.4c-0.2,4.3,6.8,6.4,6.8,6.4S72,35.9,72,33.2z"/>
			<g>
				<g>
					<path fill="#E3C95A" d="M64.8,16.8c0.2,3.6-7.2,7.1-7.1,10.2c0.2,4.3-3.5,3.3-3.5,3.3s2.1-0.8,2-3.4c0-2.9-1.6-6.7,0.2-9.3
						C57.9,15.5,64.7,14,64.8,16.8z"/>
				</g>
				<g>
					<path fill="#E3C95A" d="M64.8,16.8c-0.2,3.6,7.2,7.1,7.1,10.2c-0.2,4.3,3.5,3.3,3.5,3.3s-2.1-0.9-2-3.5c0-2.9,1.6-6.5-0.2-9.2
						C71.7,15.5,65,14,64.8,16.8z"/>
				</g>
			</g>
			<path fill="#EFD3AC" d="M72.8,24.6c0-1.6-0.1-4.3-1-5.6c-1.3-2-3.8-3.4-7-3.4c-3.3,0-6.2,1-7.4,3.5c-0.7,1.5-0.3,4.1-0.3,5.6
				c0.1,4.4,1.8,5.7,3.8,7.6c0.1,0.1,0.1,0.1,0.2,0.2c-0.1,1.3-0.3,2.4-0.9,3c-1,1.1,0.8,6.4,4.6,6.3c4.4-0.1,5.5-5.4,4.7-6.3
				c-0.6-0.6-0.9-1.7-1.1-2.9C70.4,30.7,72.7,29,72.8,24.6z"/>
			<path fill="#E3C95A" d="M74.3,13.1c-2-2.7-11.1-4.9-13.5-2.3c-2.2,0.3-4.4,1.2-5.2,2.2c-2.3,2.8-2.5,4.1-2.4,7.4
				c0,2.9,3.2,6,5.1,7.7c0.3,0.3-5.1-6.9-0.6-7.4c3.9-0.5,6-1.7,7.1-3.5c2.9,0.4,6.2,0.4,7.5,3.5c1.7,4.2-0.8,8.2-0.5,7.9
				c1.9-1.7,5-5.3,5-8.2C76.8,17.2,76.5,16.1,74.3,13.1z"/>
		</g>
		<g>
			<g>
				<path fill="#FFFFFF" stroke="#FFFFFF" stroke-width="2" stroke-miterlimit="10" d="M65.4,67.5c-0.5,0-0.9-0.4-0.9-0.9v-8.7
					c0-0.5,0.4-0.9,0.9-0.9s0.9,0.4,0.9,0.9v8.7C66.3,67.1,65.9,67.5,65.4,67.5z"/>
			</g>
			<g>
				<g>
					<path fill="#FFFFFF" stroke="#FFFFFF" stroke-width="2" stroke-miterlimit="10" d="M79.9,78c-0.2,0-0.4-0.1-0.5-0.2L64.8,67.3
						c-0.4-0.3-0.5-0.8-0.2-1.3c0.3-0.4,0.9-0.5,1.3-0.2l14.5,10.5c0.4,0.3,0.5,0.8,0.2,1.3C80.5,77.8,80.2,78,79.9,78z"/>
				</g>
				<g>
					<path fill="#FFFFFF" stroke="#FFFFFF" stroke-width="2" stroke-miterlimit="10" d="M50.9,78c-0.3,0-0.6-0.1-0.7-0.4
						c-0.3-0.4-0.2-1,0.2-1.3l14.5-10.5c0.4-0.3,1-0.2,1.3,0.2c0.3,0.4,0.2,1-0.2,1.3L51.4,77.8C51.2,77.9,51.1,78,50.9,78z"/>
				</g>
			</g>
		</g>
	</g>
</g>
</svg>
