<?xml version="1.0" encoding="utf-8"?>
<!-- Generator: Adobe Illustrator 18.1.1, SVG Export Plug-In . SVG Version: 6.00 Build 0)  -->
<svg version="1.0" id="Layer_1" xmlns="http://www.w3.org/2000/svg" xmlns:xlink="http://www.w3.org/1999/xlink" x="0px" y="0px"
	 viewBox="0 0 130 130" enable-background="new 0 0 130 130" xml:space="preserve">
<g>
	<g>
		<g>
			<g>
				<g>
					<g>
						<circle fill="#EA6C32" cx="64.5" cy="65.1" r="64"/>
						<path opacity="0.1" fill="#FFFFFF" d="M115.4,103.9c8.2-10.8,13.1-24.2,13.1-38.8c0-35.3-28.7-64-64-64
							c-14.4,0-27.6,4.7-38.3,12.7C55.8,44,85.6,74,115.4,103.9z"/>
						<path opacity="5.000000e-02" fill="#020202" d="M12.3,28.2C4.9,38.7,0.5,51.4,0.5,65.1c0,35.3,28.7,64,64,64
							c13.6,0,26.1-4.2,36.5-11.4C71.3,88,41.7,58.2,12.3,28.2z"/>
					</g>
				</g>
			</g>
		</g>
	</g>
	<g>
		<rect x="22.2" y="39.1" fill="#FFFFFF" width="84.9" height="58.4"/>
		<path fill="#E5E5E5" d="M97.8,30.9H31.2c-7.5,0-13.5,6.1-13.5,13.5v43.3c0,7.4,6.1,13.5,13.5,13.5h66.6c7.4,0,13.5-6.1,13.5-13.5
			V44.4C111.3,36.9,105.3,30.9,97.8,30.9z M104.7,87.6c0,3.8-3.1,6.9-6.9,6.9H31.2c-3.8,0-6.9-3.1-6.9-6.9V45.1l40,21.9l40.4-21.9
			V87.6z"/>
	</g>
	<path opacity="0.5" fill="#FFFFFF" d="M108,96.5c2.1-2.4,3.3-5.4,3.3-8.8V44.4c0-7.4-6.1-13.5-13.5-13.5H42.2
		C64.1,52.7,86.1,74.5,108,96.5z"/>
	<path opacity="5.000000e-02" d="M20,36.9c-1.4,2.1-2.2,4.7-2.2,7.4v43.3c0,7.4,6.1,13.5,13.5,13.5h53.2C63,79.7,41.4,58.4,20,36.9z
		"/>
</g>
</svg>
