<?xml version="1.0" encoding="utf-8"?>
<!-- Generator: Adobe Illustrator 18.1.1, SVG Export Plug-In . SVG Version: 6.00 Build 0)  -->
<svg version="1.1" id="Layer_1" xmlns="http://www.w3.org/2000/svg" xmlns:xlink="http://www.w3.org/1999/xlink" x="0px" y="0px"
	 viewBox="0 0 130 130" enable-background="new 0 0 130 130" xml:space="preserve">
<g>
	<circle fill="#18B898" cx="65" cy="64" r="64"/>
	<path opacity="0.1" fill="#FFFFFF" d="M115.9,102.8C124.1,92,129,78.6,129,64c0-35.3-28.7-64-64-64C50.6,0,37.4,4.7,26.7,12.7
		C56.3,42.9,86.1,72.9,115.9,102.8z"/>
	<path opacity="5.000000e-02" fill="#010101" d="M12.7,27.1C5.4,37.5,1,50.2,1,64c0,35.3,28.7,64,64,64c13.6,0,26.1-4.2,36.5-11.4
		C71.8,86.9,42.2,57.1,12.7,27.1z"/>
</g>
<g>
	<g>
		<circle fill="#FFFFFF" cx="65.2" cy="78.6" r="22.1"/>
		<g>
			<path fill="#010101" d="M43.5,46.4c6.8-1.8,1.4-6,6.4-9.5c3.7-2.6,10.7-2.4,14.9-2.3c0,0,0,0,0,0c0,0,0,0,0,0
				c4.2,0,11.2-0.3,14.9,2.3c4.9,3.5-0.5,7.7,6.4,9.5c7.6,2,15.1,1.2,18.1-1.8c1.6-1.6,1.3-6.3,0.9-7.8c-0.8-3.3-3.3-7.7-9.8-9.9
				c-6.8-2.3-17.1-3.3-30.5-3.3c0,0,0,0,0,0s0,0,0,0c-13.5,0-23.7,1-30.6,3.3c-6.4,2.2-9,6.6-9.8,9.9c-0.4,1.4-0.7,6.2,0.9,7.8
				C28.4,47.7,35.9,48.4,43.5,46.4z"/>
			<g>
				<path fill="#3D3D3D" d="M84.9,40.7c-1.4-0.4-2.2-0.8-2.7-1.3c0.2,2.1-0.1,4.1,4,5.2c7.6,2,15.1,1.2,18.1-1.8
					c0.8-0.8,1.1-2.2,1.2-3.7C102.4,41.9,92.5,42.7,84.9,40.7z"/>
				<path fill="#3D3D3D" d="M44.8,40.7c-7.6,2-17.5,1.2-20.6-1.7c0.1,1.5,0.4,3,1.2,3.7c3,3,10.5,3.8,18.1,1.8c4.1-1.1,3.8-3,4-5.2
					C47,39.9,46.2,40.4,44.8,40.7z"/>
			</g>
			<g>
				<path fill="#010101" d="M64.9,62c-2.1,0-3.7,1.7-3.7,3.7c0,2.1,1.7,3.7,3.7,3.7c2.1,0,3.7-1.7,3.7-3.7
					C68.6,63.7,66.9,62,64.9,62z"/>
				<path fill="#010101" d="M64.9,86.3c-2.1,0-3.7,1.7-3.7,3.7c0,2,1.7,3.7,3.7,3.7c2.1,0,3.7-1.7,3.7-3.7
					C68.6,88,66.9,86.3,64.9,86.3z"/>
				<circle fill="#010101" cx="77" cy="77.9" r="3.7"/>
				<path fill="#010101" d="M56.4,77.9c0-2-1.7-3.7-3.7-3.7c-2.1,0-3.7,1.7-3.7,3.7c0,2.1,1.7,3.7,3.7,3.7
					C54.8,81.6,56.4,79.9,56.4,77.9z"/>
				<path fill="#010101" d="M76.1,71.9c1.5-1.5,1.5-3.8,0-5.3c-1.4-1.5-3.8-1.5-5.3,0c-1.5,1.5-1.5,3.8,0,5.3
					C72.3,73.4,74.6,73.4,76.1,71.9z"/>
				<path fill="#010101" d="M53.6,83.8c-1.5,1.5-1.5,3.8,0,5.3c1.4,1.5,3.8,1.5,5.3,0c1.5-1.4,1.4-3.8,0-5.3
					C57.4,82.4,55.1,82.4,53.6,83.8z"/>
				<path fill="#010101" d="M70.8,83.8c-1.5,1.5-1.5,3.8,0,5.3c1.5,1.5,3.8,1.5,5.3,0c1.5-1.4,1.5-3.8,0-5.3
					C74.6,82.4,72.3,82.4,70.8,83.8z"/>
				<path fill="#010101" d="M53.6,66.7c-1.5,1.5-1.5,3.8,0,5.3c1.4,1.5,3.8,1.4,5.3,0c1.4-1.5,1.5-3.8,0-5.3
					C57.4,65.2,55.1,65.2,53.6,66.7z"/>
			</g>
			<path fill="#282828" d="M77.7,47.2v-3.9c0-1.5-1.3-2.8-2.9-2.8H73c-1.6,0-2.9,1.2-2.9,2.8v2.5c-0.9-0.1-1.9-0.2-2.8-0.2
				c-0.8,0-1.6,0-2.4,0c-0.8,0-1.5,0-2.3,0c-1,0-1.9,0.1-2.9,0.2v-2.5c0-1.5-1.3-2.8-2.9-2.8H55c-1.6,0-2.9,1.2-2.9,2.8v4
				c-26.3,7.6-27.6,38.3-27.6,41.1c0,14.8,12.2,16.7,40.5,16.7c28.3,0,40.5-1.8,40.5-16.7C105.3,85.6,104.6,54.7,77.7,47.2z
				 M64.9,96.5c-11,0-19.9-8.3-19.9-18.6c0-10.3,8.9-18.6,19.9-18.6s19.9,8.3,19.9,18.6C84.8,88.1,75.9,96.5,64.9,96.5z"/>
			<path fill="#3D3D3D" d="M38.8,96.1c-2.6-7.7-4-16-3.1-24.2c0.8-7.3,2.9-14.2,6.8-20.4C25.3,62.7,24.4,86,24.4,88.4
				c0,9.9,5.5,14,17.6,15.7C40.8,101.5,39.7,98.8,38.8,96.1z"/>
			<path d="M90.9,96.1c2.6-7.7,4-16,3.1-24.2c-0.8-7.3-2.9-14.2-6.8-20.4c17.2,11.2,18.2,34.4,18.2,36.9c0,9.9-5.5,14-17.6,15.7
				C89,101.5,90,98.8,90.9,96.1z"/>
			<g>
				<path fill="#3A3A3A" d="M34.3,30.2c6.8-2.3,17.1-3.3,30.6-3.3c0,0,0,0,0,0c0,0,0,0,0,0c13.5,0,23.7,1,30.5,3.3
					c6.4,2.2,9,6.6,9.8,9.9c0.1,0.3,0.2,0.8,0.2,1.4c0.2-1.8,0-3.7-0.2-4.6c-0.8-3.3-3.3-7.7-9.8-9.9c-6.8-2.3-17.1-3.3-30.5-3.3
					c0,0,0,0,0,0c0,0,0,0,0,0c-13.5,0-23.7,1-30.6,3.3c-6.4,2.2-9,6.6-9.8,9.9c-0.2,0.8-0.4,2.8-0.2,4.6c0.1-0.6,0.1-1.1,0.2-1.4
					C25.3,36.8,27.8,32.4,34.3,30.2z"/>
			</g>
			<g>
				<path opacity="0.1" fill="#FFFFFF" d="M105.2,90.9c0.1-0.8,0.1-1.7,0.1-2.6c0-2.8-0.7-33.7-27.6-41.2v-3.9
					c0-1.5-1.3-2.8-2.9-2.8H73c-1.6,0-2.9,1.2-2.9,2.8v2.5c-0.9-0.1-1.9-0.2-2.8-0.2c-0.8,0-1.6,0-2.4,0c-0.8,0-1.5,0-2.3,0
					c-0.9,0-1.7,0.1-2.6,0.2L105.2,90.9z"/>
				<path fill="#282828" d="M59.7,45.4v-2.2c0-1.5-1.3-2.8-2.9-2.8H55c-0.1,0-0.1,0-0.2,0L59.7,45.4z"/>
				<path opacity="0.5" d="M77.9,91.9c-3.5,2.8-8,4.5-13,4.5c-11,0-19.9-8.3-19.9-18.6c0-5.1,2.2-9.7,5.8-13.1L39.6,53.7
					C25.2,65.4,24.4,86.1,24.4,88.4c0,14.8,12.2,16.7,40.5,16.7c10.4,0,18.6-0.3,24.8-1.3L77.9,91.9z"/>
				<path opacity="0.1" fill="#FFFFFF" d="M50.7,36.4c3.9-2.1,10.2-1.9,14.1-1.8h0.1c4.2,0,11.2-0.3,14.9,2.3
					c4.9,3.5-0.5,7.7,6.4,9.5c7.6,2,15.1,1.2,18.1-1.8c1.6-1.6,1.3-6.3,0.9-7.8c-0.8-3.3-3.3-7.7-9.8-9.9
					c-6.8-2.3-17.1-3.3-30.5-3.3h-0.1c-10.2,0-18.6,0.6-25,1.8L50.7,36.4z"/>
			</g>
		</g>
	</g>
</g>
</svg>
