<?xml version="1.0" encoding="utf-8"?>
<!-- Generator: Adobe Illustrator 18.1.1, SVG Export Plug-In . SVG Version: 6.00 Build 0)  -->
<svg version="1.1" id="Layer_1" xmlns="http://www.w3.org/2000/svg" xmlns:xlink="http://www.w3.org/1999/xlink" x="0px" y="0px"
	 viewBox="0 0 512 512" enable-background="new 0 0 512 512" xml:space="preserve">
<g id="Artboard">
</g>
<g id="browser">
	<path fill="#E6E7E8" d="M406.4,137.1H104.6c-5.5,0-10,4.5-10,10v216.6c0,5.5,4.5,10,10,10h301.8c5.5,0,10-4.5,10-10V147.1
		C416.5,141.6,412,137.1,406.4,137.1z M388.1,163.7H183.9c-5.5,0-10-3.8-10-8.5c0-4.7,4.5-8.5,10-8.5h204.2c5.5,0,10,3.8,10,8.5
		C398,159.9,393.6,163.7,388.1,163.7z"/>
	<path fill="#26A9E0" d="M406.6,137.1H104.7c-5.5,0-10,4.5-10,10v26.1h321.9v-26.1C416.6,141.6,412.1,137.1,406.6,137.1z
		 M388.1,163.7H183.9c-5.5,0-10-3.8-10-8.5c0-4.7,4.5-8.5,10-8.5h204.2c5.5,0,10,3.8,10,8.5C398,159.9,393.6,163.7,388.1,163.7z"/>
	<path fill="#E6CD3C" d="M113.5,155.2c0,3.5,2.8,6.3,6.3,6.3l0,0c3.5,0,6.3-2.8,6.3-6.3l0,0c0-3.5-2.8-6.3-6.3-6.3l0,0
		C116.3,148.9,113.5,151.7,113.5,155.2L113.5,155.2z"/>
	<path fill="#8BC53F" d="M129.5,155.2c0,3.5,2.8,6.3,6.3,6.3l0,0c3.5,0,6.3-2.8,6.3-6.3l0,0c0-3.5-2.8-6.3-6.3-6.3l0,0
		C132.4,148.9,129.5,151.7,129.5,155.2L129.5,155.2z"/>
	<path fill="#F05A28" d="M145.6,155.2c0,3.5,2.8,6.3,6.3,6.3l0,0c3.5,0,6.3-2.8,6.3-6.3l0,0c0-3.5-2.8-6.3-6.3-6.3l0,0
		C148.4,148.9,145.6,151.7,145.6,155.2L145.6,155.2z"/>
	<g>
		<rect x="135.4" y="208.9" fill="#D0D2D3" width="75.2" height="63.2"/>
		<rect x="231.7" y="271.1" fill="#D0D2D3" width="143.9" height="63.2"/>
		<rect x="231.7" y="208.9" fill="#6D6E70" width="143.9" height="11.5"/>
		<rect x="231.7" y="228.4" fill="#D0D2D3" width="143.8" height="3.6"/>
		<rect x="135.4" y="290.6" fill="#D0D2D3" width="75.4" height="3.6"/>
		<rect x="135.4" y="298.7" fill="#D0D2D3" width="75.4" height="3.6"/>
		<rect x="135.4" y="306.7" fill="#D0D2D3" width="75.4" height="3.6"/>
		<rect x="231.7" y="236.4" fill="#D0D2D3" width="143.8" height="3.6"/>
		<rect x="231.7" y="244.5" fill="#D0D2D3" width="143.8" height="3.6"/>
		<rect x="231.7" y="252.5" fill="#D0D2D3" width="143.8" height="3.6"/>
		<rect x="231.7" y="260.5" fill="#D0D2D3" width="143.8" height="3.6"/>
	</g>
</g>
</svg>
