<?xml version="1.0" encoding="utf-8"?>
<!-- Generator: Adobe Illustrator 18.1.1, SVG Export Plug-In . SVG Version: 6.00 Build 0)  -->
<svg version="1.1" id="Layer_1" xmlns="http://www.w3.org/2000/svg" xmlns:xlink="http://www.w3.org/1999/xlink" x="0px" y="0px"
	 viewBox="0 0 130 130" enable-background="new 0 0 130 130" xml:space="preserve">
<g>
	<g>
		<circle fill="#FFFFFF" cx="65.7" cy="86.7" r="34.8"/>
		<g>
			<path fill="#010101" d="M31.7,36c10.8-2.8,2.2-9.5,10-14.9c5.9-4.1,16.9-3.7,23.5-3.7c0,0,0,0,0.1,0c0,0,0,0,0.1,0
				c6.7,0,17.6-0.5,23.5,3.7c7.8,5.4-0.8,12.1,10,14.9c12,3.1,23.8,1.9,28.5-2.8c2.5-2.5,2-9.9,1.5-12.2
				c-1.3-5.1-5.3-12.1-15.4-15.6c-10.7-3.7-26.8-5.2-48.1-5.2c0,0,0,0-0.1,0s0,0-0.1,0C44,0.3,27.9,1.8,17.1,5.4
				C7,8.9,3,15.8,1.7,21c-0.6,2.3-1.1,9.7,1.4,12.2C7.9,37.9,19.6,39.1,31.7,36z"/>
			<g>
				<path fill="#3D3D3D" d="M96.8,27c-2.2-0.6-3.5-1.3-4.2-2.1c0.3,3.4-0.2,6.4,6.2,8.1c12,3.1,23.8,1.9,28.5-2.8
					c1.2-1.2,1.7-3.5,1.9-5.9C124.3,28.9,108.7,30.1,96.8,27z"/>
				<path fill="#3D3D3D" d="M33.7,27c-11.9,3.1-27.5,1.9-32.4-2.7C1.4,26.7,2,29,3.2,30.2c4.7,4.7,16.5,5.9,28.5,2.8
					c6.5-1.7,6-4.8,6.2-8.1C37.1,25.7,35.8,26.4,33.7,27z"/>
			</g>
			<g>
				<path fill="#010101" d="M65.2,60.5c-3.2,0-5.8,2.6-5.8,5.8c0,3.2,2.6,5.8,5.8,5.8c3.2,0,5.8-2.6,5.8-5.8
					C71.1,63.2,68.5,60.5,65.2,60.5z"/>
				<path fill="#010101" d="M65.2,98.8c-3.2,0-5.8,2.6-5.8,5.9c0,3.2,2.6,5.8,5.8,5.8c3.2,0,5.8-2.6,5.8-5.8
					C71.1,101.4,68.5,98.8,65.2,98.8z"/>
				<path fill="#010101" d="M78.5,85.5c0,3.2,2.6,5.8,5.8,5.8c3.2,0,5.9-2.6,5.9-5.8c0-3.2-2.6-5.8-5.9-5.8
					C81.1,79.7,78.5,82.3,78.5,85.5z"/>
				<path fill="#010101" d="M52,85.5c0-3.2-2.6-5.8-5.8-5.8c-3.2,0-5.9,2.6-5.9,5.8c0,3.2,2.6,5.8,5.9,5.8
					C49.4,91.3,52,88.7,52,85.5z"/>
				<path fill="#010101" d="M82.9,76.1c2.3-2.3,2.3-6,0-8.3c-2.3-2.3-6-2.3-8.3,0c-2.3,2.3-2.3,6,0,8.3
					C76.9,78.4,80.6,78.4,82.9,76.1z"/>
				<path fill="#010101" d="M47.6,94.9c-2.3,2.3-2.3,6,0,8.3c2.3,2.3,6,2.3,8.3,0c2.3-2.3,2.3-6,0-8.3
					C53.6,92.6,49.9,92.6,47.6,94.9z"/>
				<path fill="#010101" d="M74.6,94.9c-2.3,2.3-2.3,6,0,8.3c2.3,2.3,6,2.3,8.3,0c2.3-2.3,2.3-6,0-8.3
					C80.6,92.6,76.9,92.6,74.6,94.9z"/>
				<path fill="#010101" d="M47.6,67.8c-2.3,2.3-2.3,6,0,8.3c2.3,2.3,6,2.3,8.3,0c2.3-2.3,2.3-6,0-8.3
					C53.6,65.6,49.9,65.6,47.6,67.8z"/>
			</g>
			<path fill="#282828" d="M85.5,37.2V31c0-2.4-2.1-4.3-4.6-4.3h-2.8c-2.6,0-4.6,1.9-4.6,4.3V35c-1.5-0.1-2.9-0.3-4.5-0.3
				c-1.2-0.1-2.5-0.1-3.8-0.1c-1.2,0-2.4,0-3.6,0.1c-1.6,0.1-3.1,0.2-4.5,0.3V31c0-2.4-2.1-4.3-4.6-4.3h-2.8c-2.6,0-4.6,1.9-4.6,4.3
				v6.2C3.6,49.3,1.6,97.6,1.6,102c0,23.3,19.2,26.2,63.7,26.2c44.5,0,63.7-2.9,63.7-26.2C128.9,97.6,127.8,49.1,85.5,37.2z
				 M65.3,114.7C48,114.7,34,101.6,34,85.5c0-16.2,14-29.2,31.3-29.2s31.3,13.1,31.3,29.2C96.6,101.6,82.6,114.7,65.3,114.7z"/>
			<path fill="#3D3D3D" d="M24.3,114.1c-4.2-12.1-6.3-25.2-4.8-38c1.3-11.5,4.6-22.4,10.7-32.1C3.1,61.6,1.6,98.2,1.6,102
				c0,15.6,8.6,22.1,27.7,24.6C27.3,122.6,25.7,118.4,24.3,114.1z"/>
			<path d="M106.2,114.1c4.2-12.1,6.3-25.2,4.8-38c-1.3-11.5-4.6-22.4-10.7-32.1c27.1,17.6,28.6,54.2,28.6,58
				c0,15.6-8.6,22.1-27.7,24.6C103.2,122.6,104.8,118.4,106.2,114.1z"/>
			<g>
				<path fill="#3A3A3A" d="M17.1,10.4C27.9,6.8,44,5.3,65.2,5.2c0,0,0,0,0.1,0s0,0,0.1,0c21.2,0,37.3,1.5,48.1,5.2
					c10.1,3.5,14.1,10.4,15.4,15.6c0.1,0.5,0.2,1.3,0.3,2.2c0.3-2.8,0-5.9-0.3-7.2c-1.3-5.1-5.3-12.1-15.4-15.6
					c-10.7-3.7-26.8-5.2-48.1-5.2c0,0,0,0-0.1,0s0,0-0.1,0C44,0.3,27.9,1.8,17.1,5.4C7,8.9,3,15.8,1.7,21c-0.3,1.3-0.6,4.4-0.3,7.2
					c0.1-0.9,0.2-1.7,0.3-2.2C3,20.8,7,13.9,17.1,10.4z"/>
			</g>
		</g>
	</g>
	<g>
		<path opacity="0.1" fill="#FFFFFF" d="M127,112.8c0.1-0.3,0.3-0.7,0.4-1c0.1-0.2,0.1-0.3,0.2-0.5c0.2-0.5,0.3-0.9,0.4-1.4
			c0-0.1,0-0.2,0.1-0.2c0.1-0.4,0.2-0.9,0.3-1.4c0-0.2,0.1-0.3,0.1-0.5c0.1-0.5,0.2-1.1,0.2-1.7c0,0,0-0.1,0-0.1
			c0.1-0.6,0.1-1.1,0.1-1.7c0-0.2,0-0.3,0-0.5c0-0.6,0-1.2,0-1.9c0-4.4-1.1-53-43.4-64.8V31c0-2.4-2.1-4.3-4.6-4.3h-2.8
			c-2.6,0-4.6,1.9-4.6,4.3V35c-1.5-0.1-2.9-0.3-4.5-0.3c-1.2-0.1-2.5-0.1-3.8-0.1c-1.2,0-2.4,0-3.6,0.1c-1.6,0.1-3.1,0.2-4.5,0.3V31
			c0-2.4-2.1-4.3-4.6-4.3h-2.8c-2.4,0-4.4,1.8-4.6,4C72.4,58.1,99.7,85.4,127,112.8z"/>
		<path opacity="0.1" d="M30.1,44c-0.8,0.5-1.6,1.1-2.4,1.6c0,0,0,0-0.1,0C10.2,58.6,4.4,79.7,2.5,92.2c0,0,0,0,0,0
			c-0.3,1.7-0.4,3.2-0.6,4.5c0,0,0,0.1,0,0.1c0,0.4-0.1,0.8-0.1,1.2c0,0,0,0.1,0,0.1c-0.1,0.8-0.1,1.4-0.1,2c0,0,0,0,0,0.1
			c0,0.3,0,0.5,0,0.7c0,0,0,0.1,0,0.1c0,0.2,0,0.4,0,0.6c0,0,0,0,0,0.1c0,0.2,0,0.3,0,0.4c0,0.6,0,1.3,0,1.9c0,0.2,0,0.3,0,0.5
			c0,0.6,0.1,1.2,0.1,1.7c0,0,0,0.1,0,0.1c0.1,0.6,0.2,1.1,0.2,1.7c0,0.2,0.1,0.3,0.1,0.5c0.1,0.5,0.2,0.9,0.3,1.4
			c0,0.1,0,0.2,0.1,0.2c0.1,0.5,0.3,0.9,0.4,1.4c0.1,0.2,0.1,0.3,0.2,0.5c0.1,0.4,0.3,0.7,0.4,1.1c0.1,0.1,0.1,0.3,0.2,0.4
			c0.2,0.4,0.4,0.7,0.6,1.1c0.1,0.2,0.2,0.3,0.3,0.5c0.2,0.3,0.3,0.6,0.5,0.8c0.1,0.2,0.2,0.4,0.4,0.5c0.2,0.3,0.4,0.6,0.6,0.8
			c0.1,0.2,0.3,0.3,0.4,0.5c0.2,0.2,0.4,0.4,0.6,0.6c0.2,0.2,0.4,0.4,0.7,0.7c0.2,0.2,0.4,0.4,0.6,0.6c0.2,0.2,0.4,0.3,0.6,0.5
			c0.2,0.1,0.4,0.3,0.5,0.4c0.4,0.3,0.7,0.5,1.1,0.7c0.2,0.1,0.4,0.2,0.6,0.3c0.3,0.2,0.5,0.3,0.8,0.5c0.2,0.1,0.3,0.2,0.5,0.3
			c0.5,0.3,1.1,0.5,1.6,0.8c0.1,0.1,0.2,0.1,0.4,0.2c0.3,0.1,0.7,0.3,1,0.4c0.1,0.1,0.3,0.1,0.4,0.2c0.7,0.3,1.5,0.5,2.3,0.8
			c0,0,0,0,0,0c0.4,0.1,0.8,0.3,1.3,0.4c0.1,0,0.2,0.1,0.3,0.1c1.3,0.4,2.8,0.7,4.3,1c0.1,0,0.1,0,0.2,0c10,1.9,23.6,2.4,41,2.4
			c14.7,0,26.6-0.3,36-1.6l0,0c1.7-0.2,3.4-0.5,5-0.8c0.1,0,0.1,0,0.2,0c1.5-0.3,2.9-0.6,4.3-1c0,0,0.1,0,0.1,0
			C83.9,97.9,57,71,30.1,44z"/>
		<path opacity="0.1" fill="#FFFFFF" d="M38.7,24.4c0.5-1.1,1.4-2.2,2.9-3.3c5.9-4.1,16.9-3.7,23.5-3.7h0.1c6.7,0,17.6-0.5,23.5,3.7
			c7.8,5.4-0.8,12.1,10,14.9c12,3.1,23.8,1.9,28.5-2.8c1.1-1.1,1.6-3,1.8-5v0c0,0,0,0,0,0c0.1-1.4,0.1-2.9,0.1-4.1c0,0,0-0.1,0-0.1
			c0-0.3,0-0.5-0.1-0.8c0-0.1,0-0.1,0-0.2c0-0.2,0-0.4-0.1-0.6c0-0.1,0-0.1,0-0.2c0-0.2-0.1-0.4-0.1-0.5c0-0.1,0-0.1,0-0.2
			c0-0.2-0.1-0.4-0.1-0.5c-1.3-5.1-5.3-12.1-15.4-15.6c-7.4-2.5-17.5-4-30-4.7c-2.1-0.1-4.2-0.2-6.4-0.3c-1.3,0-2.7-0.1-4-0.1
			c-2.5,0-5-0.1-7.6-0.1h-0.1c-9.5,0-18,0.3-25.5,1c-1.6,0.1-3.2,0.3-4.8,0.5c-6,0.7-11.3,1.7-15.7,3C25.7,11.3,32.2,17.8,38.7,24.4
			z"/>
		<path opacity="0.1" d="M3.2,17c-0.7,1.4-1.2,2.7-1.5,4c0,0,0,0,0,0c0,0.1-0.1,0.3-0.1,0.5c0,0.1,0,0.1,0,0.2
			c0,0.2-0.1,0.3-0.1,0.5c0,0.1,0,0.2,0,0.2c0,0.2,0,0.4-0.1,0.6c0,0.1,0,0.1,0,0.2c0,0.2,0,0.5-0.1,0.7c0,0,0,0.1,0,0.1
			c-0.1,1.3-0.1,2.7,0.1,4.1c0,0,0,0,0,0c0,0,0,0,0,0c0.2,2,0.7,3.9,1.8,5c3.6,3.6,11.5,5.2,20.4,4.3C16.8,30.6,10,23.8,3.2,17z"/>
	</g>
</g>
</svg>
