<?xml version="1.0" encoding="utf-8"?>
<!-- Generator: Adobe Illustrator 18.1.1, SVG Export Plug-In . SVG Version: 6.00 Build 0)  -->
<svg version="1.0" id="Layer_1" xmlns="http://www.w3.org/2000/svg" xmlns:xlink="http://www.w3.org/1999/xlink" x="0px" y="0px"
	 viewBox="0 0 130 130" enable-background="new 0 0 130 130" xml:space="preserve">
<g>
	<rect x="7.1" y="44.6" fill="#FFFFFF" width="116" height="79.8"/>
	<path fill="#E5E5E5" d="M110.6,33.4H19.5C9.3,33.4,1,41.6,1,51.8V111c0,10.2,8.3,18.5,18.5,18.5h91.1c10.2,0,18.5-8.3,18.5-18.5
		V51.8C129,41.6,120.7,33.4,110.6,33.4z M119.9,111c0,5.2-4.2,9.4-9.4,9.4H19.5c-5.2,0-9.4-4.2-9.4-9.4V52.8l54.7,30l55.2-30V111z"
		/>
	<g>
		<path opacity="5.000000e-02" d="M7.1,47.5L7.1,47.5c-1.4-1.4-2.7-2.7-4.1-4.1c-1.3,2.5-2,5.4-2,8.4V111c0,10.2,8.3,18.5,18.5,18.5
			h70c-1.7-1.7-3.5-3.4-5.2-5.2C58.5,98.7,32.8,73.2,7.1,47.5z"/>
		<path opacity="0.5" fill="#FFFFFF" d="M110.6,33.4H21.2c10,10,20,20,30,29.9c5.8,5.8,11.6,11.6,17.5,17.4l0,0
			c13.3,13.2,26.7,26.5,40,39.7h0c1.3,1.3,2.7,2.6,4,3.9c0.1,0.1,0.1,0.1,0.2,0.2h0c1.3,1.3,2.6,2.6,3.9,3.9
			c2.4-0.9,4.5-2.2,6.4-3.9h0v0c3.6-3.4,5.9-8.1,5.9-13.5V51.8C129,41.6,120.7,33.4,110.6,33.4z"/>
	</g>
</g>
</svg>
