<?xml version="1.0" encoding="utf-8"?>
<!-- Generator: Adobe Illustrator 18.1.1, SVG Export Plug-In . SVG Version: 6.00 Build 0)  -->
<svg version="1.0" id="Layer_1" xmlns="http://www.w3.org/2000/svg" xmlns:xlink="http://www.w3.org/1999/xlink" x="0px" y="0px"
	 viewBox="0 0 130 130" enable-background="new 0 0 130 130" xml:space="preserve">
<g>
	<path fill="#B2B3B3" d="M99.2,97.5c0,3.6-4,23.5-16.5,23.5c-6.1,0-50.5-65.9-50.5-69.5c0-3.6,7.8,6,13.9,6S99.2,93.9,99.2,97.5z"/>
	<g>
		<path fill="#F9F9FA" d="M127.5,80.1c-4.2-9.9-97.1-52.4-120.6-52.4c-1.7,0-3,0.3-4,0.9c-2.3,1.4-3.3,4.2-2.7,8.3
			c2.5,18.4,29.7,73.4,43.3,77c0.4,0.1,0.8,0.1,1.2,0.1c2.1,0,12.2-4.6,17.9-6.8l0.8,1.2c2.7,3.7,12.2,15.9,21.5,15.9
			c0.7,0,1.5-0.1,2.1-0.2c9.8-2,13.3-19.1,14.5-29.1l0.4-3c24-6.5,24.8-8.1,25.4-9.3l0.6-1.3L127.5,80.1z M86,118.4
			c-0.3,0.1-0.7,0.1-1,0.1c-6.9,0-16.2-12.7-16.8-13.5l0,0c0,0-0.1-0.1-0.1-0.1l12.1-4.9c0,0,0,0,0,0l6.2-2.5l-53.8-43l63.1,39.9
			C95.8,94.3,93.1,117,86,118.4z"/>
	</g>
	<g>
		<g>
			<path fill="#F2F2F2" d="M2.9,28.6c-2.3,1.4-3.3,4.2-2.7,8.3c2.5,18.4,29.7,73.4,43.3,77c0.4,0.1,0.8,0.1,1.2,0.1
				c2.1,0,12.2-4.6,17.9-6.8l5.6-2.2c0,0-0.1-0.1-0.1-0.1l12.1-4.9c0,0,0,0,0,0l6.2-2.5l-53.8-43L2.9,28.6z"/>
		</g>
	</g>
	<g opacity="0.4">
		<path fill="#FFFFFF" d="M59.9,68L36.2,56.9c0,0,33.8,26.5,63,50.8c1.6-5,1.9-8.4,2.4-12.6l0.3-2.2L59.9,68z"/>
	</g>
</g>
</svg>
