<?xml version="1.0" encoding="utf-8"?>
<!-- Generator: Adobe Illustrator 18.1.1, SVG Export Plug-In . SVG Version: 6.00 Build 0)  -->
<svg version="1.0" id="Layer_1" xmlns="http://www.w3.org/2000/svg" xmlns:xlink="http://www.w3.org/1999/xlink" x="0px" y="0px"
	 viewBox="0 0 130 130" enable-background="new 0 0 130 130" xml:space="preserve">
<g>
	<g>
		<g>
			<circle fill="#18B898" cx="65" cy="65.4" r="64"/>
			<path opacity="0.1" fill="#FFFFFF" d="M115.9,104.2C124.1,93.4,129,80,129,65.4c0-35.3-28.7-64-64-64c-14.4,0-27.6,4.7-38.3,12.7
				C56.3,44.3,86.1,74.3,115.9,104.2z"/>
			<path opacity="5.000000e-02" fill="#010101" d="M12.7,28.5C5.4,38.9,1,51.7,1,65.4c0,35.3,28.7,64,64,64
				c13.6,0,26.1-4.2,36.5-11.4C71.8,88.3,42.2,58.5,12.7,28.5z"/>
		</g>
	</g>
	<g>
		<g>
			<polygon fill="#B0E2FA" points="90.1,33.2 39.9,33.2 12.5,59.8 65,110.6 117.5,59.8 			"/>
			<g>
				<polygon opacity="0.7" fill="#F0F9FE" points="90.1,33.2 39.9,33.2 12.5,59.8 117.5,59.8 				"/>
				<polygon opacity="0.5" fill="#FFFFFF" points="65.2,33.2 65.2,33.2 39.6,59.8 90.4,59.8 				"/>
				<polygon opacity="0.8" fill="#B0E2FA" points="12.5,59.8 65,110.6 117.5,59.8 				"/>
				<polygon opacity="0.5" fill="#F0F9FE" points="39.6,59.8 65.2,110.6 90.4,59.8 				"/>
				<polygon opacity="0.8" fill="#FFFFFF" points="39.9,33.2 65,59.8 90.4,33.2 				"/>
			</g>
		</g>
		<radialGradient id="SVGID_1_" cx="96.5264" cy="59.1006" r="12.8162" gradientUnits="userSpaceOnUse">
			<stop  offset="0" style="stop-color:#FFFFFF"/>
			<stop  offset="1" style="stop-color:#F0F1F1;stop-opacity:0"/>
		</radialGradient>
		<circle fill="url(#SVGID_1_)" cx="96.5" cy="59.1" r="12.8"/>
		<radialGradient id="SVGID_2_" cx="81.8262" cy="42.2844" r="9.3162" gradientUnits="userSpaceOnUse">
			<stop  offset="0" style="stop-color:#FFFFFF"/>
			<stop  offset="1" style="stop-color:#F0F1F1;stop-opacity:0"/>
		</radialGradient>
		<circle fill="url(#SVGID_2_)" cx="81.8" cy="42.3" r="9.3"/>
	</g>
</g>
</svg>
