<?xml version="1.0" encoding="utf-8"?>
<!-- Generator: Adobe Illustrator 18.1.1, SVG Export Plug-In . SVG Version: 6.00 Build 0)  -->
<svg version="1.1" id="Layer_1" xmlns="http://www.w3.org/2000/svg" xmlns:xlink="http://www.w3.org/1999/xlink" x="0px" y="0px"
	 viewBox="0 0 130 130" enable-background="new 0 0 130 130" xml:space="preserve">
<g>
	<g>
		<g>
			<g>
				<g>
					<g>
						<ellipse fill="#81C2C9" cx="65" cy="65.1" rx="64" ry="63.9"/>
						<path fill="#8DCBCE" d="M115.9,103.8C124.1,93,129,79.6,129,65.1c0-35.3-28.7-63.9-64-63.9c-14.4,0-27.6,4.7-38.3,12.7
							C56.3,44,86.1,73.9,115.9,103.8z"/>
						<path fill="#73B8BC" d="M12.7,28.2C5.4,38.6,1,51.3,1,65.1C1,100.4,29.7,129,65,129c13.6,0,26.1-4.2,36.5-11.4
							C71.8,87.9,42.2,58.1,12.7,28.2z"/>
					</g>
				</g>
			</g>
		</g>
	</g>
	<g>
		<path opacity="0.5" fill="#EAF5F4" d="M65,129c29,0,53.5-19.3,61.4-45.8c-3.6-7.4-11.1-12.4-19.8-12.4c-3,0-5.8,0.6-8.4,1.7
			c-3.6-8.7-12.2-14.7-22.2-14.7c-10,0-18.5,6.1-22.2,14.7c-2.6-1.1-5.4-1.7-8.4-1.7c-12.2,0-22,9.9-22,22c0,4.1,1.2,8,3.2,11.3
			c-2.2,2.2-3.9,4.8-5.1,7.6C32.7,122.4,48.1,129,65,129z"/>
		<path opacity="0.5" fill="#EAF5F4" d="M66.4,83.1c-2.8-0.7-5.6-0.8-8.3-0.5c-1.3-9-7.9-16.8-17.3-19.2c-9.4-2.4-18.9,1.2-24.4,8.5
			c-2.2-1.6-4.7-2.9-7.5-3.6c-2.6-0.7-5.3-0.8-7.8-0.5C2.5,101.8,30.6,129,65,129c4.3,0,8.6-0.4,12.7-1.3c-0.4-2.8-1.2-5.4-2.4-7.8
			c3.1-2.7,5.5-6.4,6.6-10.7C84.8,97.7,77.9,86,66.4,83.1z"/>
		<g>
			<g>
				<polygon fill="#C1C1C0" points="58,75.1 69.3,95 80.7,74.6 73.8,59.1 				"/>
				<polygon fill="#FFFFFF" points="39.7,56.7 20,45.2 40.2,33.7 55.5,40.7 				"/>
			</g>
			<g>
				<path fill="#F04E3C" d="M50.7,82.6c-0.7,4.5-2.4,9.1-5.7,12.4c-9.7,9.8-30.1,5.1-30.1,5.1S10.3,79.5,20,69.8
					c3.3-3.3,7.8-5,12.3-5.7L50.7,82.6z"/>
				<path fill="#F17536" d="M49.1,81c-0.6,3.8-2,7.6-4.7,10.3c-8.1,8.2-25,4.3-25,4.3s-3.9-17.1,4.2-25.3c2.7-2.7,6.5-4.1,10.2-4.7
					L49.1,81z"/>
				<path fill="#FCB316" d="M47.8,79.7c-0.5,3.2-1.6,6.3-3.9,8.6c-6.7,6.8-20.9,3.6-20.9,3.6s-3.2-14.2,3.5-21
					c2.3-2.3,5.4-3.4,8.5-4L47.8,79.7z"/>
			</g>
			<g>
				<polygon fill="#DEDDDD" points="33.5,63.3 37.4,58.4 56.3,77.4 51.4,81.4 				"/>
				<polygon fill="#FFFFFF" points="33.5,63.3 37.4,58.4 52.6,73.8 47.8,77.7 				"/>
			</g>
			<g>
				<path fill="#FFFFFF" d="M37.4,58.3c1.5-9.6,5.1-20.7,13-28.8c17.1-17.3,48.3-13.9,48.3-13.9S102,47,84.8,64.3
					c-8,8.1-19,11.6-28.5,13.2L37.4,58.3z"/>
				<path opacity="0.1" d="M45.3,36c-3.9,6.1-6.2,13.1-7.4,19.5l-1.6-0.9C37.5,48.4,45.3,36,45.3,36z"/>
				<path fill="#F04E3C" d="M68.8,18.8c14.9-4.8,29.8-3.2,29.8-3.2s1.6,15.1-3.1,30.1L68.8,18.8z"/>
				<path opacity="0.1" d="M98.7,15.6C100.9,15.7,98.7,15.6,98.7,15.6S102,47,84.8,64.3c-8,8.1-19,11.6-28.5,13.2l-3.7-3.7
					c9.5-1.5,20.5-5.1,28.5-13.2C94.9,46.8,99,24.3,98.7,15.6z"/>
			</g>
			<g>
				<g>
					<path fill="#1298BF" d="M69.9,52.8c-2.2,0-4.2-0.8-5.7-2.4c-3.2-3.2-3.2-8.4,0-11.6c1.5-1.5,3.6-2.4,5.7-2.4s4.2,0.8,5.7,2.4
						c3.2,3.2,3.2,8.4,0,11.6C74.1,52,72.1,52.8,69.9,52.8z"/>
					<path fill="#EAEAEA" d="M69.9,38.4c1.6,0,3.2,0.6,4.3,1.8c2.4,2.4,2.4,6.4,0,8.8c-1.2,1.2-2.7,1.8-4.3,1.8
						c-1.6,0-3.2-0.6-4.3-1.8c-2.4-2.4-2.4-6.4,0-8.8C66.8,39.1,68.3,38.4,69.9,38.4 M69.9,34.4c-2.6,0-5.2,1-7.1,3
						c-3.9,4-3.9,10.4,0,14.4c2,2,4.6,3,7.1,3c2.6,0,5.2-1,7.1-3c3.9-4,3.9-10.4,0-14.4C75.1,35.4,72.5,34.4,69.9,34.4L69.9,34.4z"
						/>
				</g>
				<path opacity="0.7" fill="#FFFFFF" d="M68.5,35.6c-1.3,1.3-1.3,3.3,0,4.6s3.3,1.3,4.6,0s1.3-3.3,0-4.6S69.7,34.3,68.5,35.6z"/>
			</g>
		</g>
	</g>
</g>
</svg>
