<?xml version="1.0" encoding="utf-8"?>
<!-- Generator: Adobe Illustrator 18.1.1, SVG Export Plug-In . SVG Version: 6.00 Build 0)  -->
<svg version="1.1" id="Layer_1" xmlns="http://www.w3.org/2000/svg" xmlns:xlink="http://www.w3.org/1999/xlink" x="0px" y="0px"
	 viewBox="0 0 130 130" enable-background="new 0 0 130 130" xml:space="preserve">
<g>
	<g>
		<g>
			<circle fill="#C1C1C0" cx="64" cy="65.5" r="61.3"/>
			<path fill="#E0E0E0" d="M64,1.4c-35.3,0-64,28.7-64,64s28.7,64,64,64c35.3,0,64-28.7,64-64S99.3,1.4,64,1.4z M64,105.7
				c-22.3,0-40.3-18.1-40.3-40.3c0-22.3,18.1-40.3,40.3-40.3s40.3,18.1,40.3,40.3C104.3,87.7,86.3,105.7,64,105.7z"/>
			<g>
				<g>
					<line fill="none" stroke="#FFFFFF" stroke-width="3" x1="99.7" y1="15.4" x2="92.1" y2="26.1"/>
				</g>
				<g>
					<line fill="none" stroke="#FFFFFF" stroke-width="3" x1="35.8" y1="105.5" x2="28.2" y2="116.2"/>
				</g>
			</g>
			<g>
				<g>
					<line fill="none" stroke="#FFFFFF" stroke-width="3" x1="100" y1="116" x2="92.3" y2="105.4"/>
				</g>
				<g>
					<line fill="none" stroke="#FFFFFF" stroke-width="3" x1="35.5" y1="26.3" x2="27.9" y2="15.6"/>
				</g>
			</g>
			<g>
				<g>
					<line fill="none" stroke="#FFFFFF" stroke-width="3" x1="5.2" y1="85.1" x2="17.7" y2="81"/>
				</g>
				<g>
					<line fill="none" stroke="#FFFFFF" stroke-width="3" x1="110.1" y1="50.6" x2="122.6" y2="46.5"/>
				</g>
			</g>
			<g>
				<g>
					<line fill="none" stroke="#FFFFFF" stroke-width="3" x1="5.1" y1="46.8" x2="17.6" y2="50.9"/>
				</g>
				<g>
					<line fill="none" stroke="#FFFFFF" stroke-width="3" x1="110.2" y1="80.8" x2="122.7" y2="84.8"/>
				</g>
			</g>
			<g>
				<g>
					<line fill="none" stroke="#FFFFFF" stroke-width="3" x1="63.9" y1="4" x2="63.9" y2="17.2"/>
				</g>
				<g>
					<line fill="none" stroke="#FFFFFF" stroke-width="3" x1="63.9" y1="114.5" x2="63.9" y2="127.6"/>
				</g>
			</g>
		</g>
		<g>
			<path fill="#CCCCCC" d="M64,85.8c-11.2,0-20.4-9.1-20.4-20.4C43.6,54.2,52.8,45,64,45c11.2,0,20.4,9.1,20.4,20.4
				C84.4,76.6,75.2,85.8,64,85.8z"/>
			<g>
				<path fill="#FFFFFF" d="M64,45.5c11,0,19.9,8.9,19.9,19.9c0,11-8.9,19.9-19.9,19.9c-11,0-19.9-8.9-19.9-19.9
					C44.1,54.4,53,45.5,64,45.5 M64,44.5c-11.5,0-20.9,9.3-20.9,20.9c0,11.5,9.3,20.9,20.9,20.9c11.5,0,20.9-9.3,20.9-20.9
					C84.9,53.9,75.5,44.5,64,44.5L64,44.5z"/>
			</g>
		</g>
		<g>
			<path fill="#DEDDDD" d="M64,85.3c-11,0-19.9-8.9-19.9-19.9c0-11,8.9-19.9,19.9-19.9c11,0,19.9,8.9,19.9,19.9
				C83.9,76.4,75,85.3,64,85.3z"/>
			<g>
				<path fill="#FFFFFF" d="M64,46.5c10.4,0,18.9,8.5,18.9,18.9c0,10.4-8.5,18.9-18.9,18.9c-10.4,0-18.9-8.5-18.9-18.9
					C45.1,55,53.6,46.5,64,46.5 M64,44.5c-11.5,0-20.9,9.3-20.9,20.9c0,11.5,9.3,20.9,20.9,20.9c11.5,0,20.9-9.3,20.9-20.9
					C84.9,53.9,75.5,44.5,64,44.5L64,44.5z"/>
			</g>
		</g>
	</g>
	<circle fill="#F04E3C" cx="64" cy="34.7" r="4.3"/>
</g>
</svg>
