<?xml version="1.0" encoding="utf-8"?>
<!-- Generator: Adobe Illustrator 18.1.1, SVG Export Plug-In . SVG Version: 6.00 Build 0)  -->
<svg version="1.0" id="Layer_1" xmlns="http://www.w3.org/2000/svg" xmlns:xlink="http://www.w3.org/1999/xlink" x="0px" y="0px"
	 viewBox="0 0 130 130" enable-background="new 0 0 130 130" xml:space="preserve">
<g>
	<g>
		<g>
			<g>
				<g>
					<g>
						<circle fill="#EA6C32" cx="65" cy="64.7" r="64"/>
						<path opacity="0.1" fill="#FFFFFF" d="M115.9,103.5c8.2-10.8,13.1-24.2,13.1-38.8c0-35.3-28.7-64-64-64
							c-14.4,0-27.6,4.7-38.3,12.7C56.3,43.6,86.1,73.6,115.9,103.5z"/>
						<path opacity="5.000000e-02" fill="#020202" d="M12.7,27.8C5.4,38.2,1,51,1,64.7c0,35.3,28.7,64,64,64
							c13.6,0,26.1-4.2,36.5-11.4C71.8,87.6,42.2,57.8,12.7,27.8z"/>
					</g>
				</g>
			</g>
		</g>
	</g>
	<g>
		<path fill="#EA6C32" d="M94.7,86.2c0,2.5-2.8,16.3-11.4,16.3c-4.2,0-35-45.6-35-48.1s5.4,4.2,9.6,4.2S94.7,83.7,94.7,86.2z"/>
		<path fill="#F9F9FA" d="M114.3,74.2C111.3,67.4,47,38,30.8,38c-1.2,0-2.1,0.2-2.8,0.6c-1.6,0.9-2.3,2.9-1.9,5.8
			c1.7,12.8,20.5,50.8,30,53.3c0.3,0.1,0.5,0.1,0.8,0.1c1.5,0,8.4-3.2,12.4-4.7l0.6,0.8c1.9,2.6,8.4,11,14.9,11c0.5,0,1,0,1.5-0.1
			c6.8-1.4,9.2-13.2,10-20.1l0.3-2.1c16.6-4.5,17.2-5.6,17.6-6.5l0.4-0.9L114.3,74.2z M85.6,100.8c-0.2,0-0.5,0.1-0.7,0.1
			c-4.8,0-11.2-8.8-11.6-9.3l0,0c0,0,0,0,0,0l8.4-3.4c0,0,0,0,0,0l4.3-1.8L48.7,56.5l43.7,27.6C92.4,84.1,90.5,99.8,85.6,100.8z"/>
		<g>
			<path fill="#F2F2F2" d="M28,38.6c-1.6,0.9-2.3,2.9-1.9,5.8c1.7,12.8,20.5,50.8,30,53.3c0.3,0.1,0.5,0.1,0.8,0.1
				c1.5,0,8.4-3.2,12.4-4.7l3.9-1.5c0,0,0,0,0,0l8.4-3.4c0,0,0,0,0,0l4.3-1.8L48.7,56.5L28,38.6z"/>
		</g>
		<g opacity="0.4">
			<path fill="#FFFFFF" d="M67.5,65.8l-16.4-7.7c0,0,23.4,18.3,43.6,35.1c1.1-3.5,1.3-5.8,1.7-8.7l0.2-1.5L67.5,65.8z"/>
		</g>
	</g>
</g>
</svg>
