<?xml version="1.0" encoding="utf-8"?>
<!-- Generator: Adobe Illustrator 18.1.1, SVG Export Plug-In . SVG Version: 6.00 Build 0)  -->
<svg version="1.1" id="Layer_1" xmlns="http://www.w3.org/2000/svg" xmlns:xlink="http://www.w3.org/1999/xlink" x="0px" y="0px"
	 viewBox="0 0 130 130" enable-background="new 0 0 130 130" xml:space="preserve">
<g>
	<g>
		<g>
			<g>
				<g>
					<g>
						<g>
							<ellipse fill="#83C2C9" cx="64.8" cy="65" rx="64" ry="63.9"/>
						</g>
					</g>
				</g>
			</g>
		</g>
	</g>
	<g>
		<g>
			<g>
				<g>
					<g>
						<g>
							<ellipse fill="#83C2C9" cx="64.8" cy="65" rx="64" ry="63.9"/>
						</g>
					</g>
				</g>
			</g>
		</g>
	</g>
	<g>
		<g>
			<g>
				<g>
					<g>
						<g>
							<ellipse fill="#83C2C9" cx="64.8" cy="65" rx="64" ry="63.9"/>
						</g>
					</g>
				</g>
			</g>
		</g>
	</g>
	<g>
		<g>
			<g>
				<g>
					<g>
						<g>
							<path fill="#83C2C9" d="M65.9,64.9h62.9C128.8,30,100.7,1.7,65.9,1.1c0,0.2,0,0.3,0,0.5V64.9z"/>
						</g>
					</g>
				</g>
			</g>
		</g>
	</g>
	<path fill="#FFD66D" d="M65.2,1.1c-0.1,0-0.2,0-0.3,0C31.7,1.1,4.5,26.2,1.2,58.4V65v6.6c3.3,32.2,30.6,57.3,63.7,57.3
		c35.3,0,64-28.6,64-63.9H65.2V1.1z"/>
	<g>
		<polygon fill="#FFFFFF" points="129.2,63.5 66.7,63.5 66.7,1 63.7,1 63.7,63.5 1.2,63.5 1.2,66.5 63.7,66.5 63.7,129 66.7,129 
			66.7,66.5 129.2,66.5 		"/>
	</g>
	<path opacity="0.1" fill="#FFFFFF" d="M115.7,103.7c8.2-10.7,13.1-24.2,13.1-38.7c0-35.3-28.7-63.9-64-63.9
		c-14.4,0-27.6,4.7-38.3,12.7C56.1,43.9,85.9,73.8,115.7,103.7z"/>
	<path opacity="0.2" fill="#EBB24A" d="M12.6,28.1C5.2,38.5,0.8,51.3,0.8,65c0,35.3,28.7,63.9,64,63.9c13.6,0,26.1-4.2,36.5-11.4
		C71.6,87.8,42,58.1,12.6,28.1z"/>
</g>
</svg>
