<?xml version="1.0" encoding="utf-8"?>
<!-- Generator: Adobe Illustrator 18.1.1, SVG Export Plug-In . SVG Version: 6.00 Build 0)  -->
<svg version="1.1" id="Layer_1" xmlns="http://www.w3.org/2000/svg" xmlns:xlink="http://www.w3.org/1999/xlink" x="0px" y="0px"
	 width="512px" height="512px" viewBox="0 0 512 512" enable-background="new 0 0 512 512" xml:space="preserve">
<g>
	<g>
		<g>
			<path fill="#E26DA9" d="M156.2,478.9c0,0-0.1,0-0.1-0.1C156.1,478.8,156.2,478.9,156.2,478.9z"/>
			<path fill="#E26DA9" d="M141.2,471.5c-0.2-0.1-0.4-0.2-0.6-0.3C140.9,471.3,141.1,471.4,141.2,471.5z"/>
			<path fill="#E26DA9" d="M105.3,448.1C105.3,448.1,105.3,448.1,105.3,448.1C105.3,448.1,105.3,448.1,105.3,448.1
				C105.3,448.1,105.3,448.1,105.3,448.1z"/>
			<path fill="#E26DA9" d="M162.6,481.6c-0.8-0.3-1.5-0.7-2.3-1C161,481,161.8,481.3,162.6,481.6z"/>
			<path fill="#E26DA9" d="M123.2,460.9c0,0-0.1,0-0.1-0.1C123.2,460.9,123.2,460.9,123.2,460.9z"/>
			<path fill="#E26DA9" d="M256,500.1L256,500.1c-2.4,0-4.8,0-7.3-0.1C251.2,500.1,253.6,500.1,256,500.1z"/>
			<path fill="#E26DA9" d="M233.8,499.1c-2.3-0.2-4.7-0.5-7-0.7C229.1,498.7,231.4,498.9,233.8,499.1z"/>
			<path fill="#E26DA9" d="M99.8,443.7c-0.1-0.1-0.2-0.2-0.3-0.2C99.6,443.5,99.7,443.6,99.8,443.7z"/>
			<path fill="#E26DA9" d="M247.7,500c-2.1-0.1-4.2-0.2-6.3-0.3C243.5,499.8,245.6,499.9,247.7,500z"/>
			<path fill="#E26DA9" d="M240.8,499.7c-2.2-0.1-4.4-0.3-6.7-0.5C236.3,499.4,238.5,499.5,240.8,499.7z"/>
			<path fill="#E26DA9" d="M205,494.8c-6.6-1.4-13.2-3.1-19.7-5.1C191.8,491.7,198.3,493.4,205,494.8z"/>
			<path fill="#E26DA9" d="M205.1,494.8c7.1,1.5,14.3,2.7,21.6,3.6c-3.9-0.5-7.7-1-11.6-1.7C211.8,496.2,208.4,495.5,205.1,494.8z"
				/>
			<path fill="#E26DA9" d="M89.4,434.4c-0.3-0.3-0.5-0.5-0.8-0.7C88.8,433.9,89.1,434.2,89.4,434.4z"/>
			<path fill="#1297BE" d="M256,256H11.9c0,37.9,8.6,73.8,24.1,105.8c6,12.5,13,24.3,21,35.5c2.3,3.2,4.6,6.3,7,9.4
				c6.1,7.7,12.6,15.1,19.6,22c0,0-0.1-0.1-0.1-0.1L256,256z"/>
			<path fill="#E26DA9" d="M164.7,482.5c6.6,2.7,13.3,5,20.1,7.1c-3.2-1-6.4-2-9.5-3.1C171.7,485.2,168.2,483.9,164.7,482.5z"/>
			<path fill="#E26DA9" d="M94.5,439.1c-0.2-0.2-0.4-0.3-0.5-0.5C94.1,438.8,94.3,438.9,94.5,439.1z"/>
			<path fill="#E26DA9" d="M226.8,498.4C226.8,498.4,226.8,498.4,226.8,498.4C226.8,498.4,226.8,498.4,226.8,498.4
				C226.7,498.4,226.8,498.4,226.8,498.4z"/>
			<path fill="#E26DA9" d="M205.1,494.8C205.1,494.8,205,494.8,205.1,494.8C205,494.8,205.1,494.8,205.1,494.8z"/>
			<path fill="#E26DA9" d="M141.2,471.5c4.9,2.6,9.8,5,14.8,7.3c-2-0.9-4-1.8-5.9-2.8C147.1,474.6,144.2,473.1,141.2,471.5z"/>
			<path fill="#EF4D3B" d="M256,256L256,256v244.1c9.8,0,19.5-0.6,29.2-1.7c3.9-0.5,7.8-1,11.6-1.7c13.5-2.3,26.9-5.7,39.9-10.3
				c33.6-11.7,65.1-31,91.9-57.8L256,256z"/>
			<path fill="#E26DA9" d="M99.5,443.4c-1.7-1.4-3.4-2.9-5-4.3C96.2,440.5,97.8,442,99.5,443.4z"/>
			<path fill="#E26DA9" d="M241.4,499.7c-0.2,0-0.4,0-0.7,0C241,499.7,241.2,499.7,241.4,499.7z"/>
			<path fill="#E26DA9" d="M248.7,500c-0.3,0-0.7,0-1,0C248.1,500,248.4,500,248.7,500z"/>
			<path fill="#E26DA9" d="M234.1,499.2c-0.1,0-0.2,0-0.3,0C233.9,499.1,234,499.2,234.1,499.2z"/>
			<path fill="#E26DA9" d="M94,438.6c-1.5-1.4-3.1-2.8-4.6-4.2C90.9,435.8,92.4,437.3,94,438.6z"/>
			<path fill="#E26DA9" d="M140.7,471.2c-6-3.2-11.8-6.6-17.5-10.3C128.9,464.6,134.8,468.1,140.7,471.2z"/>
			<path fill="#E26DA9" d="M88.6,433.7c-1.7-1.6-3.4-3.3-5.1-4.9C85.2,430.4,86.9,432.1,88.6,433.7z"/>
			<path fill="#E26DA9" d="M105.2,448.1c-1.8-1.4-3.6-2.9-5.4-4.4C101.6,445.2,103.4,446.6,105.2,448.1z"/>
			<path fill="#E26DA9" d="M105.3,448.1c5.8,4.6,11.7,8.8,17.8,12.8c-2.9-1.9-5.7-3.8-8.5-5.8C111.5,452.8,108.4,450.5,105.3,448.1z
				"/>
			<path fill="#E26DA9" d="M185.3,489.7c-0.2-0.1-0.4-0.1-0.5-0.2C184.9,489.6,185.1,489.7,185.3,489.7z"/>
			<path fill="#E26DA9" d="M164.7,482.5c-0.7-0.3-1.4-0.6-2.1-0.8C163.3,481.9,164,482.2,164.7,482.5z"/>
			<path fill="#E26DA9" d="M160.3,480.6c-1.4-0.6-2.7-1.2-4.1-1.8C157.6,479.5,158.9,480.1,160.3,480.6z"/>
			<path fill="#74B8BB" d="M83.4,428.6c0,0,0.1,0.1,0.1,0.1c1.7,1.7,3.4,3.3,5.1,4.9c0.3,0.3,0.5,0.5,0.8,0.7c1.5,1.4,3,2.8,4.6,4.2
				c0.2,0.2,0.3,0.3,0.5,0.5c1.7,1.5,3.3,2.9,5,4.3c0.1,0.1,0.2,0.2,0.3,0.2c1.8,1.5,3.6,3,5.4,4.4c0,0,0,0,0.1,0
				c3.1,2.4,6.2,4.7,9.4,7c2.8,2,5.6,3.9,8.5,5.8c0,0,0.1,0,0.1,0.1c5.7,3.7,11.5,7.1,17.5,10.3c0.2,0.1,0.4,0.2,0.6,0.3
				c2.9,1.6,5.9,3.1,8.9,4.5c2,0.9,3.9,1.9,5.9,2.8c0,0,0.1,0,0.1,0.1c1.3,0.6,2.7,1.2,4.1,1.8c0.8,0.3,1.5,0.7,2.3,1
				c0.7,0.3,1.4,0.6,2.1,0.8c3.5,1.4,7,2.8,10.6,4c3.2,1.1,6.3,2.1,9.5,3.1c0.2,0.1,0.4,0.1,0.5,0.2c6.5,2,13.1,3.6,19.7,5.1
				c0,0,0.1,0,0.1,0c3.3,0.7,6.7,1.3,10.1,1.9c3.8,0.6,7.7,1.2,11.6,1.7c0,0,0,0,0.1,0c2.3,0.3,4.7,0.5,7,0.7c0.1,0,0.2,0,0.3,0
				c2.2,0.2,4.4,0.4,6.7,0.5c0.2,0,0.4,0,0.7,0c2.1,0.1,4.2,0.2,6.3,0.3c0.3,0,0.7,0,1,0c2.4,0.1,4.8,0.1,7.3,0.1V256L83.4,428.6z"
				/>
		</g>
		<g>
			<path fill="#E26DA9" d="M343,27.8c0,0-0.1,0-0.1-0.1C342.9,27.8,343,27.8,343,27.8z"/>
			<path fill="#E26DA9" d="M327.3,22.4c-0.2-0.1-0.4-0.1-0.6-0.2C326.9,22.3,327.1,22.4,327.3,22.4z"/>
			<path fill="#E26DA9" d="M285.2,13.6C285.2,13.6,285.3,13.6,285.2,13.6C285.2,13.6,285.2,13.6,285.2,13.6
				C285.2,13.6,285.2,13.6,285.2,13.6z"/>
			<path fill="#E26DA9" d="M349.5,30.4c-0.8-0.3-1.5-0.6-2.3-0.9C347.9,29.8,348.7,30.1,349.5,30.4z"/>
			<path fill="#E26DA9" d="M307,17.2c0,0-0.1,0-0.1,0C306.9,17.2,307,17.2,307,17.2z"/>
			<path fill="#E26DA9" d="M428.6,83.4L428.6,83.4c-1.7-1.7-3.4-3.4-5.2-5.1C425.2,80,426.9,81.7,428.6,83.4z"/>
			<path fill="#E26DA9" d="M412.2,68.4c-1.8-1.5-3.6-3-5.5-4.4C408.6,65.4,410.4,66.9,412.2,68.4z"/>
			<path fill="#E26DA9" d="M278.3,12.9c-0.1,0-0.3,0-0.4,0C278,12.8,278.1,12.9,278.3,12.9z"/>
			<path fill="#E26DA9" d="M422.7,77.6c-1.5-1.4-3.1-2.8-4.6-4.2C419.6,74.8,421.1,76.2,422.7,77.6z"/>
			<path fill="#E26DA9" d="M417.5,72.9c-1.7-1.5-3.4-2.9-5.1-4.4C414.2,70,415.9,71.5,417.5,72.9z"/>
			<path fill="#E26DA9" d="M388.8,51.1c-5.7-3.7-11.5-7.1-17.5-10.3C377.2,43.9,383.1,47.4,388.8,51.1z"/>
			<path fill="#E26DA9" d="M388.9,51.1c6.1,4,12,8.2,17.8,12.8c-3.1-2.4-6.2-4.7-9.4-7C394.5,54.9,391.7,53,388.9,51.1z"/>
			<path fill="#E26DA9" d="M264.4,12c-0.4,0-0.7,0-1.1,0C263.6,12,264,12,264.4,12z"/>
			<path fill="#9BCA41" d="M256,256L83.4,83.4c26.8-26.8,58.3-46.1,91.9-57.8c13-4.6,26.4-8,39.9-10.3c3.9-0.7,7.7-1.2,11.6-1.7
				c9.8-1.2,19.6-1.8,29.4-1.7c-0.1,0-0.1,0-0.2,0L256,256z"/>
			<path fill="#E26DA9" d="M351.5,31.3c6.5,2.8,12.9,5.8,19.2,9.2c-2.9-1.6-5.9-3.1-8.9-4.5C358.5,34.3,355,32.8,351.5,31.3z"/>
			<path fill="#E26DA9" d="M271.3,12.3c-0.2,0-0.5,0-0.7-0.1C270.8,12.3,271,12.3,271.3,12.3z"/>
			<path fill="#E26DA9" d="M406.7,63.9C406.7,63.9,406.7,63.9,406.7,63.9C406.7,63.9,406.7,63.9,406.7,63.9
				C406.7,63.9,406.7,63.9,406.7,63.9z"/>
			<path fill="#E26DA9" d="M388.9,51.1C388.8,51.1,388.8,51.1,388.9,51.1C388.8,51.1,388.8,51.1,388.9,51.1z"/>
			<path fill="#E26DA9" d="M327.3,22.4c5.3,1.6,10.5,3.4,15.6,5.3c-2-0.8-4.1-1.5-6.1-2.2C333.6,24.4,330.4,23.4,327.3,22.4z"/>
			<path fill="#FBB216" d="M256,256L256,256L428.6,83.4c6.9,6.9,13.4,14.2,19.4,21.9c2.4,3.1,4.8,6.2,7,9.4c7.9,11.2,15,23,21,35.5
				c15.4,32,24.1,67.9,24.1,105.8L256,256z"/>
			<path fill="#E26DA9" d="M277.9,12.8c-2.2-0.2-4.4-0.4-6.6-0.5C273.5,12.5,275.7,12.6,277.9,12.8z"/>
			<path fill="#E26DA9" d="M418,73.4c-0.2-0.1-0.3-0.3-0.5-0.4C417.7,73.1,417.9,73.2,418,73.4z"/>
			<path fill="#E26DA9" d="M423.4,78.3c-0.3-0.2-0.5-0.5-0.8-0.7C422.9,77.8,423.2,78.1,423.4,78.3z"/>
			<path fill="#E26DA9" d="M412.5,68.6c-0.1-0.1-0.2-0.1-0.3-0.2C412.3,68.4,412.4,68.5,412.5,68.6z"/>
			<path fill="#E26DA9" d="M270.6,12.3c-2.1-0.1-4.1-0.2-6.2-0.3C266.4,12.1,268.5,12.2,270.6,12.3z"/>
			<path fill="#E26DA9" d="M326.7,22.3c-6.5-2-13-3.6-19.6-5C313.7,18.6,320.2,20.3,326.7,22.3z"/>
			<path fill="#E26DA9" d="M263.2,12c-2.4-0.1-4.7-0.1-7.1-0.1C258.5,11.9,260.9,11.9,263.2,12z"/>
			<path fill="#E26DA9" d="M285.2,13.6c-2.3-0.3-4.6-0.5-6.9-0.7C280.6,13.1,282.9,13.3,285.2,13.6z"/>
			<path fill="#E26DA9" d="M285.3,13.6c7.3,0.9,14.5,2.1,21.6,3.6c-3.3-0.7-6.7-1.3-10.1-1.9C293,14.6,289.1,14.1,285.3,13.6z"/>
			<path fill="#E26DA9" d="M371.3,40.7c-0.2-0.1-0.3-0.2-0.5-0.3C371,40.6,371.1,40.7,371.3,40.7z"/>
			<path fill="#E26DA9" d="M351.5,31.3c-0.7-0.3-1.4-0.6-2.1-0.9C350.2,30.7,350.8,31,351.5,31.3z"/>
			<path fill="#E26DA9" d="M347.2,29.5c-1.4-0.6-2.7-1.1-4.1-1.6C344.4,28.4,345.8,28.9,347.2,29.5z"/>
			<path fill="#FFD66D" d="M256,11.9c0.1,0,0.1,0,0.2,0c2.4,0,4.7,0,7.1,0.1c0.4,0,0.7,0,1.1,0c2.1,0.1,4.1,0.2,6.2,0.3
				c0.2,0,0.5,0,0.7,0.1c2.2,0.1,4.4,0.3,6.6,0.5c0.1,0,0.3,0,0.4,0c2.3,0.2,4.6,0.5,6.9,0.7c0,0,0,0,0.1,0c3.9,0.5,7.7,1,11.6,1.7
				c3.4,0.6,6.7,1.2,10.1,1.9c0,0,0.1,0,0.1,0c6.6,1.4,13.2,3.1,19.6,5c0.2,0.1,0.4,0.1,0.6,0.2c3.2,1,6.4,2,9.5,3.1
				c2.1,0.7,4.1,1.5,6.1,2.2c0,0,0.1,0,0.1,0.1c1.4,0.5,2.7,1.1,4.1,1.6c0.8,0.3,1.5,0.6,2.3,0.9c0.7,0.3,1.4,0.6,2.1,0.9
				c3.5,1.5,6.9,3,10.3,4.7c3,1.5,6,3,8.9,4.5c0.2,0.1,0.3,0.2,0.5,0.3c6,3.2,11.8,6.7,17.5,10.3c0,0,0.1,0,0.1,0
				c2.9,1.9,5.7,3.8,8.5,5.8c3.2,2.3,6.3,4.6,9.4,7c0,0,0,0,0,0c1.8,1.4,3.7,2.9,5.5,4.4c0.1,0.1,0.2,0.1,0.3,0.2
				c1.7,1.4,3.4,2.9,5.1,4.4c0.2,0.1,0.3,0.3,0.5,0.4c1.6,1.4,3.1,2.8,4.6,4.2c0.3,0.2,0.5,0.5,0.8,0.7c1.8,1.7,3.5,3.3,5.2,5.1
				L256,256V11.9z"/>
		</g>
		<g>
			<path fill="#60AA45" d="M83.4,83.4c-26.8,26.8-46.1,58.3-57.8,91.9c-4.6,13-8,26.4-10.3,39.9c-0.7,3.9-1.2,7.7-1.7,11.6
				c-1.2,9.7-1.7,19.5-1.7,29.2l244.1,0L83.4,83.4z"/>
		</g>
		<g>
			<path fill="#F07536" d="M428.6,428.6c26.8-26.8,46.1-58.3,57.8-91.9c4.6-13,8-26.4,10.3-39.9c0.7-3.9,1.2-7.7,1.7-11.6
				c1.2-9.7,1.7-19.5,1.7-29.2L256,256L428.6,428.6z"/>
		</g>
	</g>
	<circle opacity="0.15" fill="#FFFFFF" enable-background="new    " cx="256" cy="256" r="154"/>
	<circle opacity="0.15" fill="#FFFFFF" enable-background="new    " cx="256" cy="256" r="86.3"/>
</g>
</svg>
