<?xml version="1.0" encoding="utf-8"?>
<!-- Generator: Adobe Illustrator 18.1.1, SVG Export Plug-In . SVG Version: 6.00 Build 0)  -->
<svg version="1.1" id="Layer_1" xmlns="http://www.w3.org/2000/svg" xmlns:xlink="http://www.w3.org/1999/xlink" x="0px" y="0px"
	 width="512px" height="512px" viewBox="0 0 512 512" enable-background="new 0 0 512 512" xml:space="preserve">
<g>
	<g>
		<g>
			<g>
				<g>
					<g>
						<g>
							<circle fill="#F9CA61" cx="257" cy="258.1" r="244.1"/>
							<path fill="#FFD66D" d="M451.2,406c31.3-41,49.9-92.3,49.9-147.9C501.1,123.3,391.8,14,257,14c-54.8,0-105.4,18.1-146.2,48.6
								C223.8,177.6,337.4,291.9,451.2,406z"/>
							<path fill="#ECB24A" d="M57.6,117.3c-28.2,39.8-44.8,88.4-44.8,140.8C12.9,393,122.2,502.3,257,502.3
								c51.7,0,99.6-16.1,139.1-43.5C282.9,345.3,169.9,231.6,57.6,117.3z"/>
						</g>
					</g>
				</g>
			</g>
		</g>
	</g>
	<g>
		<path fill="#EF4D3B" d="M74,402.9l275.8,81c28.5-11.7,54.2-28.7,76.1-49.7l68.6-232.6c-3.2-13.7-7.6-26.9-13-39.6l-309.7-91
			L74,402.9z"/>
		<path fill="#FFFFFF" d="M74,402.9l275.8,81c28.5-11.7,54.2-28.7,76.1-49.7l5.7-19.2L99.2,317.4L74,402.9z"/>
		<path fill="#FFFFFF" d="M74,402.9L349.8,484c28.5-11.7,54.2-28.7,76.1-49.7l68.6-232.6c-3.2-13.7-7.6-26.9-13-39.6l-309.7-91
			L74,402.9z M467.6,188.7l-81.2,275.3L110.6,383l81.2-275.3L467.6,188.7z"/>
	</g>
	<g>
		<path fill="#8CCACD" d="M401.4,455l57.1-265.9l-338.8-72.5l-61,283.9c22.9,31.8,53.2,57.9,88.4,75.7L268,502
			C317.8,499.8,363.7,482.7,401.4,455z"/>
		<path fill="#FFFFFF" d="M58.7,400.5c22.9,31.8,53.2,57.9,88.4,75.7L268,502c49.8-2.2,95.7-19.3,133.4-47l3.2-14.9L65.8,367.6
			L58.7,400.5z"/>
		<g>
			<path fill="#FFFFFF" d="M340.8,487.5L86.9,433.2c17.7,17.2,38,31.7,60.2,43L268,502C293.5,500.9,318,495.9,340.8,487.5z"/>
			<path fill="#FFFFFF" d="M401.4,455l57.1-265.9l-338.8-72.5l-61,283.9c7.3,10.1,15.3,19.7,24,28.6l59.6-277.5l281.2,60.1
				l-56.8,264.6C378.9,470.1,390.5,463,401.4,455z"/>
		</g>
	</g>
	<g>
		<path fill="#FBB216" d="M33.8,356.9C71.7,442.5,157.4,502.3,257,502.3c45,0,87.1-12.2,123.2-33.4V195.8H33.8V356.9z"/>
		<path fill="#FFFFFF" d="M257,502.3c45,0,87.1-12.2,123.2-33.4v-16.3H109.3C150.3,483.7,201.5,502.3,257,502.3z"/>
		<path fill="#FFFFFF" d="M33.8,356.9c7.9,17.8,17.8,34.4,29.5,49.6V225.2h287.6v258.4c10.2-4.2,20-9.2,29.5-14.7V195.8H33.8V356.9z
			"/>
	</g>
	<g>
		<g>
			<path fill="#F8D6A4" d="M298.9,412.2c-1.6-4.1-1-11.8,1.2-13.5c4-3.2,7.6-4.2,8.6-15.8c0.1,0,0.3-0.1,0.4-0.1
				c2.7-1.1,5.7-6,4.8-9.8c-0.6-2.3-1.5-3.9-2.6-4.8c-0.1-0.3-0.3-0.5-0.6-0.6c-0.3,1.8-0.7,3.7-1.1,5.8c-0.1,0.3-2.2,0.4-2.2-0.3
				c0.5-6.7-2-15.9-2-15.9s-25.3-11.2-20.4-5.8c0.7,0.8-12,1.3-17.1-2.5c-4.3-3.2-6.4,4.2-6.8,7.5c-0.6,5,0.4,12.3,0.3,15.7
				c-0.1,1.3-2.6,1.1-2.6,1c-0.6-3-1-5.5-1.3-7.7c0,0.7,0,1.4,0,2.1c-0.3,0.1-0.5,0.3-0.6,0.6c-1.2,0.9-2.1,2.6-2.7,4.9
				c-1,3.8,2,8.7,4.8,9.8c0.2,0.1,0.3,0.1,0.5,0.2c1,11.6,4.6,12.6,8.6,15.8c2.2,1.7,2.7,9.4,1.2,13.5c-1.5,3.9-23.4,6.7-29.3,11.8
				c11.4,10.7,26.8,17.4,43.7,17.4c17.2,0,32.7-6.8,44.2-17.9C320.9,418.7,300.3,416,298.9,412.2z"/>
			<path fill="#5C2C0F" d="M310.7,352.5c1.3-10.3-6.4-21.6-6.4-21.6s0.5,2.7-3.2,4.4c-0.1-0.2-0.1-0.3-0.2-0.5
				c-7-11-30.9-9.2-30.9-9.2s4.7,1.6,1.8,9.8c-2.5,0.3-4.9,0.7-6.4,0.8c-8.8,0.7-9-4-9-4s-2.8,13,0.8,22.4v0
				c-0.5,3-0.7,8.5,1.3,18.5c0,0.1,2.5,0.3,2.6-1c0.2-3.4-0.8-10.7-0.3-15.7c0.4-3.4,2.5-10.7,6.8-7.5c5.1,3.7,17.8,3.2,17.1,2.5
				c-4.8-5.5,20.4,5.8,20.4,5.8s2.5,9.2,2,15.9c0,0.6,2.1,0.6,2.2,0.3C311.5,363.8,312.1,358,310.7,352.5z M310.3,351.1
				C310.3,351.1,310.3,351,310.3,351.1C310.3,351,310.3,351.1,310.3,351.1z M257.9,352.5C257.9,352.5,257.9,352.5,257.9,352.5
				C257.9,352.5,257.9,352.5,257.9,352.5z M257.9,352.6C257.9,352.6,257.9,352.7,257.9,352.6C257.9,352.7,257.9,352.6,257.9,352.6z
				 M257.8,352.9c0,0,0,0.1,0,0.1C257.8,352.9,257.8,352.9,257.8,352.9z M257.4,354.2c0,0.1,0,0.1,0,0.2
				C257.4,354.4,257.4,354.3,257.4,354.2z M257.7,353.1c0,0,0,0.1,0,0.1C257.7,353.2,257.7,353.2,257.7,353.1z M257.6,353.5
				c0,0,0,0.1,0,0.2C257.6,353.6,257.6,353.5,257.6,353.5z M257.5,353.8c0,0.1,0,0.1,0,0.2C257.5,353.9,257.5,353.9,257.5,353.8z
				 M258.4,351.6C258.4,351.6,258.4,351.6,258.4,351.6C258.4,351.6,258.4,351.6,258.4,351.6z M258.1,352.2
				C258.1,352.1,258.1,352.1,258.1,352.2C258.1,352.1,258.1,352.1,258.1,352.2z M258.1,352C258.2,352,258.2,352,258.1,352
				C258.2,352,258.2,352,258.1,352z M258.2,351.9C258.2,351.9,258.2,351.9,258.2,351.9C258.2,351.9,258.2,351.9,258.2,351.9z
				 M258.3,351.8C258.3,351.8,258.3,351.8,258.3,351.8C258.3,351.8,258.3,351.8,258.3,351.8z M258.3,351.7
				C258.3,351.7,258.3,351.7,258.3,351.7C258.3,351.7,258.3,351.7,258.3,351.7z M258.4,351.7C258.4,351.6,258.4,351.6,258.4,351.7
				C258.4,351.6,258.4,351.6,258.4,351.7z"/>
		</g>
		<path fill="#16416F" d="M333.1,452.4c2.2-8.4-0.9-22.3-3.2-29.5c-1.9-6-30.2-8.9-31.7-13.1c-0.3-0.7-0.3,13.2-14.4,13.2
			c-14,0-13.9-13.9-14.1-13.2c-1.6,4.2-30.1,7.1-32,13.1c-2.2,7.2-5.4,21.1-3.2,29.5H333.1z"/>
	</g>
	<g>
		<path fill="#518D40" d="M269.9,452.4c3.5-8.2-1.2-20.9-3.8-24.6c-3.5-4.9-12.6-18.1-32.7-18.1c-20.1,0-29.7,11.4-32.7,18.3
			c-3,4.9-6.5,16.5-2.2,24.4L269.9,452.4L269.9,452.4z"/>
		<g>
			<g>
				<path fill="#C7AC38" d="M236.8,382c0.7,10.5-12.1,14.6-11.7,23.5c0.6,12.4-18.6,15.3-18.6,15.3s6-2.2,5.9-9.8
					c-0.1-8.3-4.7-19.2,0.5-26.8C216.9,378,236.2,373.9,236.8,382z"/>
			</g>
			<g>
				<path fill="#C7AC38" d="M228.7,379c-0.7,10.5,11.3,12.5,10.9,21.4c-0.6,12.4,19.6,18.3,19.6,18.3s-6.2-3.5-6.1-11.1
					c0.1-8.3,4.7-18.8-0.5-26.5C248.5,375,229.2,370.8,228.7,379z"/>
			</g>
		</g>
		<g>
			<g>
				<path fill="#E2C859" d="M232.4,360.3c0.7,10.5-20.7,20.4-20.3,29.3c0.6,12.4-9.9,9.5-9.9,9.5s6-2.2,5.9-9.8
					c-0.1-8.3-4.7-19.2,0.5-26.8C212.6,356.3,231.9,352.2,232.4,360.3z"/>
			</g>
			<g>
				<path fill="#E2C859" d="M232.3,360.3c-0.7,10.5,20.7,20.4,20.3,29.3c-0.6,12.4,9.9,9.5,9.9,9.5s-6-2.6-5.9-10.2
					c0.1-8.3,4.7-18.8-0.5-26.5C252.1,356.3,232.8,352.2,232.3,360.3z"/>
			</g>
		</g>
		<g>
			<path fill="#EED1AA" d="M243.2,381.3l-10.8,0h0H219c0,0,6,26,0,32.8c-2.9,3.3,2.4,18.5,13.2,18.2c12.8-0.3,15.8-15.5,13.4-18.2
				C239.4,407,243.2,381.3,243.2,381.3z"/>
		</g>
		<path fill="#EED1AA" d="M255.2,382.6c-0.1,12.8-6.9,17.7-12.8,23c-3.4,3-5.8,6.2-10.1,6.2c-4.8,0-7.4-3.5-11.2-7
			c-5.8-5.4-10.5-9.3-10.9-21.9c-0.1-4.3-1.2-11.9,0.8-16.1c3.3-7.1,11.7-10,21.2-10c9.3,0,16.4,4,20.2,9.7
			C254.8,370.3,255.3,378,255.2,382.6z"/>
		<g>
			<g>
				<path fill="#E2C859" d="M234.9,347.6c0.7,11.7-3.4,21.5-23.2,23.8c-12.9,1.5,2.7,22.1,1.8,21.3c-5.5-5-14.7-13.7-14.8-22.2
					c-0.1-9.3,0.5-13,7-21.2C210.6,343.2,234.3,338.5,234.9,347.6z"/>
			</g>
			<g>
				<path fill="#E2C859" d="M218.8,347.7c0,22.3,27.9,6.6,34.7,23.8c4.8,12-2.3,23.7-1.4,22.9c5.5-5,14.3-15.3,14.4-23.8
					c0.1-9.3-0.6-12.6-7-21.2C252.7,340.4,218.8,333.3,218.8,347.7z"/>
			</g>
		</g>
	</g>
	<g>
		<g>
			<g>
				<g>
					<path d="M175,360.3c-0.6,11,24.9,22.8,24.5,32.1c-0.5,13,8.8,12.2,8,11.4c-4.8-4.4-0.9-8.4-0.8-16.4c0.1-8.7,1.1-15.5-3.8-23.6
						C199,357.4,175.5,351.8,175,360.3z"/>
				</g>
			</g>
			<g>
				<g>
					<path d="M175.5,369.8c-0.3,5.2-18.9,6.7-16.6,23.7c2,14.6-11.6,14.9-10.4,14c6.4-5,3.7-9.6,3.5-18.6
						c-0.1-9.9-2.8-12.2,3.5-20.7C162.9,358,176,360.2,175.5,369.8z"/>
				</g>
			</g>
		</g>
		<g>
			<g>
				<path fill="#802F8F" d="M216.1,452.4c3.4-8.2-1.2-20.8-3.8-24.5c-3.4-4.9-12.6-18-32.5-18s-29.5,11.4-32.5,18.2
					c-3,4.8-6.5,16.3-2.3,24.2L216.1,452.4L216.1,452.4z"/>
				<path d="M202.4,403.1c0.1-9,8.1-30.2,2.5-38.5c-3.5-5.1-18.7-3.1-25.6,2.2c-7.4-4.8-21.5-6.5-24.8-1.7c-5.6,8.3,2.8,30.2,3,39.2
					c0.1,8.2-15.9,11.4-15.9,11.4s31.2,15.9,29.8-17.3c-0.3-6.2,5.4-10.3,9.3-15.5c3.5,3.7,7.7,6.8,7.2,12.3
					c-3.2,34,26.4,21.4,26.4,21.4S202.3,411.4,202.4,403.1z"/>
				<g>
					<g>
						<g>
							<path fill="#F8D6A4" d="M191.7,384.4l-11.2,0h0h-13.8c0,0,6.2,26.9,0,34c-3,3.4,2.4,19.1,13.7,18.9
								c13.2-0.3,16.4-16.1,13.9-18.9C187.8,411,191.7,384.4,191.7,384.4z"/>
						</g>
						<g>
							<path fill="#F8D6A4" d="M180.1,437.3c-2.9,0-5.5-1-7.9-3c-2.5-2.1-4-4.8-4.9-6.6c-1.8-3.9-2.1-7.9-0.7-9.4
								c2.5-2.9,3.3-9.6,2.3-19.6c-0.8-7.5-2.3-14.3-2.3-14.3l0-0.1h13.9l11.3,0l0,0.1c0,0.1-1,6.7-1.2,14.2
								c-0.2,9.9,1,16.7,3.7,19.7c0.6,0.7,0.9,2.1,0.8,3.8c-0.1,1.9-0.6,4-1.5,5.9c-1.1,2.6-2.8,4.8-4.7,6.3c-2.4,1.9-5.3,2.9-8.5,3
								C180.3,437.3,180.2,437.3,180.1,437.3z M166.8,384.4c0.2,0.8,1.6,7.2,2.3,14.3c0.5,4.4,0.5,8.2,0.3,11.4
								c-0.3,3.9-1.2,6.7-2.6,8.3c-1.3,1.5-1,5.4,0.8,9.3c4,8.8,10.7,9.5,12.6,9.5c0.1,0,0.2,0,0.3,0c3.2-0.1,6-1.1,8.4-2.9
								c2-1.6,3.6-3.7,4.7-6.3c1.8-4.2,1.8-8.3,0.7-9.5c-1.9-2.1-4-7.2-3.7-19.8c0.2-7,1-13.4,1.2-14.2l-11.2,0L166.8,384.4
								L166.8,384.4z"/>
						</g>
					</g>
				</g>
			</g>
			<path fill="#F8D6A4" d="M204.2,385.8c-0.1,13.3-7.1,18.4-13.2,23.8c-3.5,3.1-6,6.4-10.5,6.4c-4.9,0-7.7-3.6-11.6-7.3
				c-6-5.6-10.9-9.6-11.3-22.7c-0.1-4.5-1.3-12.3,0.8-16.7c3.5-7.4,12.1-10.3,22-10.3c9.6,0,17,4.1,20.9,10.1
				C203.8,373,204.2,381,204.2,385.8z"/>
		</g>
		<path d="M209.7,377.5c2-0.3,3.9-0.8,5.8-1.5c-1.9-0.5-3.7-1.4-5.4-2.6c0-0.2,0-0.5,0-0.7c0.1-8.7,1.1-15.5-3.8-23.6
			c-3.2-5.3-19.6-10-25.7-6.8c-1-0.3-2-0.6-3.1-0.7c-5.4-0.6-10.2,1.2-14.2,4c-3.7,0-7.7,1.8-10.7,5.9c-6.2,8.5-3.1,13-2.9,22.9
			c0.1,9,2.9,13.6-3.5,18.6c-0.8,0.6,5.3,0.7,8.6-4c-0.5,5.2-2.1,8.5-7,12.2c-1.1,0.9,16,1.1,14-13.5c-1.2-9,3.5-16.5,8.2-22.3
			c7.9,5.1,18.2,10.1,28.1,11.8c2.9,4.2,4.9,7.8,4.8,10.5c-0.5,13,9.3,10.1,8.4,9.3C207.4,393.4,208.9,384.9,209.7,377.5z"/>
	</g>
	<g>
		<g>
			<path fill="#B88C63" d="M146.4,408.2c-1.4-3.8-4.6-11.3-1.4-14.2c0,0,0,0,0.1,0c0.7-0.4,1.4-0.8,2-1.3c0.1-0.1,0.2-0.1,0.3-0.2h0
				c4.9-4,7-10.9,8.1-16.3c2.5-0.3,6-4,6-7.8c0-3.2-1.9-6.2-3.3-7.2c2.1-11.5,2-27.2-26.3-27.2c-26.5,0-27.7,14.8-26,27
				c-1.4,0.7-3.7,4-3.7,7.5c0,3.9,3.7,7.7,6.2,7.8c0.7,4.8,2.8,12.3,8.1,16.3h-0.1c0.5,0.4,1,0.7,1.6,1c4.4,2.4,0.9,10.6-0.6,14.7
				c-1.6,4.3-31.1,7.3-33,13.5c-0.6,1.9-1.2,4.3-1.9,6.9c8.4,8.6,17.4,16.6,27,23.9h73.3c2.5-8.6-0.8-23.3-3.2-30.8
				C177.5,415.4,148,412.4,146.4,408.2z"/>
			<path fill="#5C2C0F" d="M136.8,339.8c13,0.9,16.3,12,16.3,12s2.5,9.3,2,16c0,0.6,2.1,0.6,2.2,0.3c2.4-11.3,2.9-17.4,0.3-23.9
				c1.3-8.3-0.6-13.7-6.1-13.2c-1.1-5.7-7-8-15-5.1c0.3-3.1-14.5-5.9-22.4,2.7c-11.4-2.4-8.1,17.6-8.1,17.6s-3.4,3.8,0.2,21.6
				c0,0.1,2.5,0.3,2.6-1c0.2-3.4-0.8-10.7-0.3-15.8c0.4-3.4,2.5-10.7,6.8-7.6C120.6,347.2,128.4,339.1,136.8,339.8z"/>
		</g>
		<path fill="#16416F" d="M146.4,408.2c-0.3-0.8,0,13.6-14.6,13.6c-14.4,0-14.3-14.4-14.6-13.6c-1.6,4.3-31.1,7.3-33,13.5
			c-0.6,1.9-1.2,4.3-1.9,6.9c8.4,8.6,17.4,16.6,27,23.9h73.3c2.5-8.6-0.8-23.3-3.2-30.8C177.5,415.4,148,412.4,146.4,408.2z"/>
	</g>
	<g>
		<path fill="none" d="M165.6,486.5c-0.1,0.5-0.1,1-0.2,1.5c0,0.5-0.1,0.9-0.1,1.4c0,0.7,0.1,1.3,0.3,1.7c0.2,0.4,0.4,0.7,0.8,0.7
			c0.2,0,0.4-0.1,0.6-0.2c0.2-0.1,0.5-0.2,0.7-0.4c0.3-0.2,0.5-0.3,0.8-0.6c0.3-0.2,0.5-0.4,0.8-0.6c0.4-0.3,0.8-0.8,1.2-1.2
			c-0.1-0.7-0.2-1.4-0.2-2.1c-1.5-0.5-2.9-1.1-4.3-1.7c0,0,0,0,0,0C165.8,485.5,165.7,486,165.6,486.5z"/>
		<path fill="none" d="M174.1,489.9c0.1,0.4,0.3,0.7,0.5,1c0.2,0.3,0.5,0.4,0.8,0.6c0.3,0.1,0.6,0.2,1,0.2c0.2,0,0.5-0.1,0.9-0.2
			c0.4-0.1,0.7-0.3,1.2-0.5c0.4-0.2,0.9-0.4,1.3-0.7c0.1-0.1,0.2-0.1,0.3-0.2c-2.1-0.7-4.1-1.4-6.1-2.1c0,0.1,0,0.3,0,0.4
			C173.9,489,174,489.5,174.1,489.9z"/>
		<path fill="none" d="M158.9,484.1c-0.1,0.4-0.1,0.7-0.2,1c-0.1,0.3-0.1,0.6-0.1,0.8c0,0.2-0.1,0.4-0.1,0.5h0.3
			c0.1-0.1,0.2-0.3,0.3-0.6c0.1-0.3,0.3-0.6,0.5-0.9c0.2-0.4,0.4-0.7,0.6-1.1c0.1-0.3,0.3-0.5,0.4-0.8c-0.5-0.2-1.1-0.4-1.6-0.7
			c0,0.2-0.1,0.5-0.1,0.8C159.1,483.4,159,483.7,158.9,484.1z"/>
		<path fill="#FFFFFF" d="M214.7,491.5c0.1,0.2,0.2,0.4,0.4,0.5c0.2,0.1,0.4,0.2,0.6,0.2c0.4,0,0.8-0.2,1.1-0.5
			c0.3-0.4,0.6-0.8,0.9-1.3c0.2-0.5,0.4-1,0.6-1.5c0.1-0.5,0.2-1,0.3-1.3l1-4.9c-0.5,0-0.9,0.1-1.3,0.3s-0.8,0.5-1.2,0.9
			c-0.4,0.4-0.7,0.8-1.1,1.3s-0.6,1-0.8,1.6c-0.2,0.5-0.4,1.1-0.5,1.7c-0.1,0.6-0.2,1.1-0.2,1.6c0,0.3,0,0.5,0.1,0.8
			C214.6,491.1,214.6,491.3,214.7,491.5z"/>
		<path fill="#FFFFFF" d="M196.6,493.8c-0.2-0.5-0.3-1-0.3-1.6c-0.2,0.1-0.3,0.3-0.5,0.5c-0.5,0.3-1,0.7-1.5,1
			c-0.2,0.1-0.5,0.3-0.8,0.4c1.4,0.4,2.7,0.7,4.1,1.1c0,0-0.1,0-0.1-0.1C197,494.8,196.8,494.3,196.6,493.8z"/>
		<path fill="#FFFFFF" d="M108.4,452.5c14.6,11.1,30.5,20.6,47.4,28.2c0.1-0.3,0.2-0.6,0.4-0.8c0.4-0.3,0.8-0.5,1.4-0.5
			s1,0.2,1.3,0.5s0.4,0.9,0.4,1.5c0,0.2,0,0.4-0.1,0.7c0,0,0,0.1,0,0.1c0.5,0.2,1.1,0.4,1.6,0.7c0.1-0.1,0.1-0.2,0.2-0.4
			c0.2-0.4,0.4-0.7,0.5-1c0.2-0.3,0.3-0.5,0.4-0.6c0.4-0.6,0.8-1,1.2-1.2c0.5-0.2,1-0.3,1.5-0.3c0.6,0,1,0.2,1.3,0.7
			c0.3,0.5,0.5,1.1,0.5,1.9c0,0.1,0,0.3-0.1,0.6c0,0.3-0.1,0.6-0.2,1c-0.1,0.4-0.2,0.8-0.3,1.3c1.4,0.6,2.9,1.1,4.3,1.7
			c-0.1-0.7-0.1-1.5-0.1-2.4c0-0.7,0-1.4,0.1-2.1c0.1-0.8,0.1-1.5,0.2-2.2c-0.3,0-0.6-0.1-0.8-0.1c-0.2,0-0.4-0.1-0.6-0.1
			c-0.2,0-0.5-0.1-0.8-0.1c-0.3,0-0.8-0.1-1.4-0.2c-0.3,0-0.5-0.1-0.6-0.2s-0.3-0.2-0.3-0.3s-0.1-0.3-0.1-0.4s0-0.3,0-0.4
			c0-0.2,0.1-0.4,0.3-0.5c0.2-0.1,0.5-0.2,0.8-0.3c0.3-0.1,0.7-0.1,1.1-0.1c0.4,0,0.8,0,1.2,0c0.4,0,0.7,0,1,0s0.5,0,0.6,0
			c0.3-1.5,0.7-3,1.1-4.4c0.5-1.4,1-2.7,1.6-3.7c0.6-1.1,1.2-2,1.9-2.6c0.7-0.7,1.4-1,2.1-1c0.5,0,0.9,0.1,1.3,0.4s0.7,0.6,1,1.1
			c0.3,0.4,0.5,1,0.6,1.6c0.2,0.6,0.2,1.2,0.2,1.9c0,0.5-0.1,1.1-0.2,1.7c-0.2,0.6-0.4,1.2-0.6,1.8c-0.3,0.6-0.6,1.3-0.9,1.9
			c-0.4,0.6-0.7,1.3-1.1,1.9c0.1,0,0.3,0,0.5,0c0.2,0,0.5,0,0.8,0c0.3,0,0.6,0,1,0c0.4,0,0.7,0,1,0c0.3,0,0.6,0,0.9,0
			c0.3,0,0.5,0,0.7,0c0.2,0,0.4,0.1,0.5,0.3c0.1,0.2,0.1,0.5,0.1,0.8c0,0.4-0.1,0.7-0.3,1c-0.2,0.2-0.5,0.4-0.7,0.4H176
			c-0.3,0.4-0.6,0.9-1,1.3s-0.6,0.8-0.9,1.2c0,0.7-0.1,1.4-0.1,2c0,0.3,0,0.6,0,0.9c0,0.3,0,0.6,0,0.9s0,0.6,0,0.9
			c0,0.1,0,0.3,0,0.4c2,0.7,4.1,1.4,6.1,2.1c0.3-0.2,0.7-0.4,1-0.7c0.4-0.3,0.9-0.6,1.3-1c0,0,0,0,0,0c0-0.6,0.1-1.3,0.2-2
			c0.1-0.7,0.3-1.4,0.6-2c0.3-0.7,0.6-1.3,0.9-1.9c0.4-0.6,0.8-1.1,1.3-1.6c0.5-0.5,1.1-0.8,1.7-1.1c0.6-0.3,1.3-0.4,2.1-0.4
			c0.6,0,1.2,0.1,1.7,0.3c0.5,0.2,1,0.5,1.4,0.8c0.4,0.4,0.7,0.8,0.9,1.3c0.2,0.5,0.3,1.1,0.3,1.7c0,0.7-0.2,1.4-0.5,2.1
			c-0.3,0.7-0.8,1.3-1.4,1.9c-0.6,0.6-1.3,1.2-2.1,1.6c-0.8,0.5-1.7,0.8-2.7,1.1c0.2,0.3,0.3,0.5,0.5,0.8c0.2,0.2,0.3,0.4,0.5,0.5
			c0.2,0.1,0.3,0.2,0.5,0.2c0.2,0,0.4,0.1,0.6,0.1c0.7,0,1.4-0.1,2.1-0.4s1.5-0.6,2.2-1s1.4-0.8,2-1.3c0.4-0.3,0.6-0.5,0.9-0.8
			c0-0.2,0-0.4,0-0.6c0-0.6-0.1-1.2-0.1-1.7s0-1-0.1-1.4c0-0.4,0-0.9,0-1.3c0-1.1,0.1-2,0.2-2.7c0.1-0.6,0.3-1,0.7-1l2-0.3
			c0.1,0,0.1,0,0.2,0c0.1,0,0.1,0,0.2,0c0.4,0,0.7,0.1,0.9,0.3c0.2,0.2,0.3,0.5,0.3,0.8l-0.7,10.5l0.2,0l4.4-10.4
			c0-0.2,0.1-0.3,0.2-0.4c0.1-0.1,0.3-0.3,0.4-0.4c0.2-0.1,0.4-0.2,0.6-0.3c0.2-0.1,0.4-0.1,0.7-0.1c0.6,0,1.2,0.1,1.6,0.4
			c0.4,0.3,0.6,0.6,0.6,1c0,0.3,0,0.6-0.1,0.9c-0.1,0.3-0.2,0.6-0.4,0.9c-0.2,0.3-0.3,0.7-0.5,1.1c-0.2,0.4-0.4,0.9-0.7,1.4
			c-0.1,0.2-0.1,0.4-0.2,0.6c-0.1,0.2-0.1,0.4-0.1,0.6c0,0.2-0.1,0.5-0.1,0.7c0,0.3,0,0.5,0.1,0.8c0.1,0.3,0.2,0.5,0.4,0.7
			c0.2,0.2,0.4,0.4,0.7,0.5c0.3,0.1,0.7,0.2,1.1,0.2c0.3,0,0.7-0.1,1.2-0.3c0.3-0.1,0.6-0.3,0.9-0.4c0-0.1,0-0.3,0.1-0.4
			c0.2-0.9,0.6-1.7,1-2.6c0.4-0.8,0.9-1.6,1.5-2.4c0.6-0.7,1.2-1.4,1.8-1.9c0.7-0.6,1.4-1,2.1-1.3c0.7-0.3,1.5-0.5,2.3-0.5
			c0.3,0,0.5,0,0.6,0.1c0.1,0.1,0.3,0.2,0.4,0.3c0.1,0.1,0.2,0.3,0.3,0.4c0.1,0.1,0.2,0.2,0.3,0.3c0.1,0.1,0.3,0.1,0.4,0.1
			c0.1,0,0.3,0,0.4,0c0.1,0,0.2,0,0.4,0c0.1,0,0.3,0,0.4,0c0.2,0,0.3,0,0.5,0.1c0.1,0,0.3,0.1,0.4,0.2c0.1,0.1,0.2,0.3,0.3,0.5
			c0.1,0.2,0.1,0.5,0.1,0.8c0,0.5-0.1,1.1-0.2,1.8c-0.1,0.6-0.2,1.3-0.4,2c-0.1,0.7-0.3,1.4-0.4,2c-0.1,0.7-0.2,1.3-0.2,1.9
			c0,0.5,0,0.9,0.1,1.2c0.1,0.3,0.3,0.4,0.6,0.4c0.2,0,0.5-0.1,0.7-0.2c0.3-0.1,0.5-0.3,0.8-0.5c0.3-0.2,0.5-0.4,0.8-0.6
			c0.3-0.2,0.5-0.5,0.7-0.7c0.5-0.6,1.1-1.3,1.7-2l0.8,3.7c-0.3,0.4-0.6,0.8-1,1.2c-0.4,0.5-0.9,0.9-1.4,1.4
			c-0.5,0.4-1.1,0.8-1.7,1.1c-0.6,0.3-1.2,0.4-1.8,0.4c-0.7,0-1.3-0.2-1.8-0.7c-0.5-0.5-0.9-1.2-1.3-2.1c-0.3,0.3-0.6,0.6-1,1
			c-0.4,0.3-0.8,0.6-1.3,0.9c-0.5,0.3-0.9,0.5-1.4,0.6s-1,0.2-1.5,0.2c-0.5,0-1.1-0.1-1.6-0.3c-0.5-0.2-1-0.5-1.3-0.9
			c-0.4-0.4-0.7-0.9-0.9-1.5c0-0.1,0-0.3-0.1-0.4c-0.2,0.1-0.3,0.2-0.5,0.2c-0.8,0.3-1.5,0.4-2.2,0.4c-0.6,0-1.1-0.1-1.6-0.3
			c-0.5-0.2-0.9-0.4-1.2-0.7c-0.3-0.3-0.6-0.7-0.8-1c-0.2-0.4-0.3-0.8-0.3-1.2c-0.3,0.7-0.7,1.3-1.1,2c-0.4,0.7-0.8,1.3-1.3,1.9
			c-0.4,0.6-0.9,1-1.3,1.4c-0.4,0.3-0.7,0.4-1,0.5c18.3,4.4,37.4,6.7,57,6.7c45,0,87.1-12.2,123.2-33.4v-16.3L108.4,452.5
			L108.4,452.5z M248.6,493.3c-0.1,0.2-0.1,0.5-0.2,0.7c-0.1,0.2-0.2,0.5-0.4,0.7c-0.2,0.2-0.4,0.4-0.7,0.5c-0.3,0.1-0.6,0.2-1,0.2
			c-0.3,0-0.6,0-1-0.1s-0.7-0.2-1-0.4c-0.3-0.2-0.7-0.3-1-0.5c-0.3-0.2-0.7-0.4-1-0.7c-0.6,0.5-1.3,0.9-2.1,1.2
			c-0.7,0.3-1.5,0.5-2.3,0.5c-0.6,0-1.1-0.1-1.6-0.3c-0.5-0.2-0.9-0.5-1.3-0.8c-0.4-0.3-0.7-0.7-0.9-1.2c-0.2-0.4-0.3-0.9-0.3-1.4
			c0-0.4,0.1-0.7,0.2-1.1c0.1-0.4,0.3-0.7,0.6-1c0.3-0.3,0.6-0.6,1-0.8c0.4-0.2,0.9-0.3,1.5-0.3c0.9,0,1.7,0.1,2.3,0.4
			c0.7,0.3,1.3,0.6,1.9,0.9c0.3-0.4,0.6-0.8,0.9-1.3c0.3-0.5,0.6-0.9,0.8-1.4c0.2-0.5,0.4-1,0.5-1.5s0.2-1,0.2-1.5
			c0-0.8-0.1-1.5-0.2-2c-0.2-0.5-0.4-0.9-0.6-1.2c-0.2-0.3-0.5-0.5-0.8-0.6c-0.3-0.1-0.6-0.2-0.9-0.2c-0.4,0-0.7,0.1-1,0.2
			c-0.3,0.1-0.6,0.3-0.9,0.5c-0.2,0.2-0.4,0.5-0.6,0.8c-0.1,0.3-0.2,0.6-0.2,1c0,0.2,0.2,0.4,0.5,0.6c0.3,0.2,0.8,0.4,1.5,0.6
			c0,0.1,0,0.1,0,0.2c0,0.1-0.1,0.3-0.4,0.4c-0.3,0.1-0.6,0.3-1,0.4c-0.4,0.1-0.8,0.2-1.3,0.3c-0.5,0.1-0.9,0.1-1.3,0.1
			c-0.1-0.1-0.2-0.1-0.3-0.1c-0.1,0-0.2,0-0.2,0c-0.5-0.4-0.8-0.8-1-1.2c-0.2-0.4-0.3-0.9-0.3-1.4c0-0.6,0.2-1.2,0.5-1.9
			c0.4-0.6,0.8-1.2,1.4-1.7c0.6-0.5,1.3-0.9,2.1-1.2c0.8-0.3,1.7-0.5,2.6-0.5c0.2,0,0.6,0,1,0.1c0.4,0,0.8,0.2,1.3,0.3
			c0.5,0.2,1,0.4,1.4,0.6s0.9,0.6,1.3,1.1c0.4,0.4,0.7,1,1,1.6c0.3,0.6,0.4,1.4,0.4,2.3c0,0.5-0.1,1.1-0.2,1.7
			c-0.2,0.7-0.4,1.4-0.7,2.1c-0.3,0.7-0.7,1.5-1.1,2.3c-0.4,0.8-1,1.5-1.5,2.2c0.4,0.2,0.8,0.3,1.2,0.5c0.4,0.1,0.9,0.2,1.3,0.2
			c0.1,0,0.3-0.1,0.4-0.3c0.2-0.2,0.3-0.4,0.4-0.6c0.1-0.2,0.3-0.4,0.4-0.6c0.1-0.2,0.2-0.3,0.3-0.3c0.2,0,0.3,0.1,0.4,0.2
			c0.1,0.1,0.1,0.3,0.1,0.6C248.8,491.9,248.7,492.5,248.6,493.3z M262.4,486.9c-0.2,0.9-0.4,1.7-0.7,2.5c-0.3,0.8-0.7,1.6-1.1,2.3
			c-0.5,0.7-1,1.4-1.5,1.9c-0.6,0.5-1.2,1-1.9,1.3c-0.7,0.3-1.4,0.5-2.2,0.5c-0.9,0-1.6-0.2-2.2-0.6c-0.6-0.4-1.2-0.9-1.6-1.5
			c-0.4-0.6-0.7-1.4-1-2.2c-0.2-0.8-0.3-1.7-0.3-2.6c0-0.8,0.1-1.6,0.2-2.5c0.2-0.8,0.4-1.7,0.7-2.5c0.3-0.8,0.6-1.5,1.1-2.2
			c0.4-0.7,0.9-1.3,1.5-1.8c0.6-0.5,1.2-0.9,1.9-1.2c0.7-0.3,1.4-0.5,2.2-0.5c0.9,0,1.7,0.2,2.4,0.5c0.7,0.3,1.2,0.8,1.7,1.4
			c0.4,0.6,0.8,1.3,1,2.1c0.2,0.8,0.3,1.6,0.3,2.5C262.7,485.2,262.6,486,262.4,486.9z M273,478.9c0,0.2-0.1,0.5-0.1,0.9
			c-0.1,0.8-0.2,1.5-0.3,2.2c-0.1,0.6-0.2,1.4-0.3,2.2c-0.1,0.8-0.3,1.6-0.4,2.5c-0.1,0.8-0.2,1.7-0.4,2.4c-0.1,0.8-0.2,1.5-0.3,2.1
			c0,0.1-0.1,0.3-0.1,0.6c-0.1,0.3-0.1,0.6-0.2,0.9c-0.1,0.3-0.2,0.6-0.3,1c-0.1,0.3-0.3,0.6-0.5,0.9c-0.2,0.3-0.4,0.5-0.6,0.7
			s-0.5,0.3-0.8,0.3c-0.4,0-0.7,0-1-0.1c-0.3,0-0.6-0.1-0.8-0.2c-0.2-0.1-0.4-0.2-0.6-0.4c-0.1-0.1-0.2-0.3-0.2-0.5
			c0-0.1,0-0.2,0-0.3c0-0.1,0.1-0.2,0.1-0.3c0.2-0.6,0.4-1.3,0.5-2c0.2-0.7,0.3-1.4,0.5-2.1c0.2-0.7,0.3-1.4,0.5-2.1
			c0.1-0.7,0.3-1.3,0.4-1.9c0.3-1.4,0.5-2.9,0.8-4.3c-0.2,0.2-0.3,0.4-0.5,0.5c-0.2,0.2-0.4,0.4-0.6,0.5c-0.2,0.1-0.4,0.3-0.5,0.4
			s-0.3,0.1-0.4,0.1c-1,0-1.8-0.1-2.4-0.3c-0.6-0.2-0.8-0.4-0.8-0.6c0-0.1,0.1-0.2,0.4-0.3c0.2-0.1,0.6-0.1,1.1-0.1
			c0.1,0,0.3-0.1,0.5-0.3c0.2-0.2,0.5-0.4,0.9-0.7c0.3-0.3,0.7-0.6,1.1-0.9c0.4-0.3,0.8-0.6,1.3-0.9c0.4-0.3,0.9-0.5,1.3-0.7
			c0.4-0.2,0.9-0.3,1.3-0.3c0.6,0,1,0,1.2,0.1c0.2,0.1,0.3,0.2,0.3,0.4C273.1,478.5,273.1,478.7,273,478.9z M287.6,492.3
			c-0.3,0.6-0.8,1.2-1.4,1.7c-0.6,0.5-1.3,0.9-2.1,1.2c-0.8,0.3-1.7,0.5-2.7,0.5c-1,0-1.9-0.1-2.7-0.3c-0.7-0.2-1.3-0.5-1.8-1
			c-0.5-0.4-0.8-0.9-1-1.5c-0.2-0.6-0.3-1.2-0.3-1.9c0-0.4,0.1-0.8,0.2-1.1c0.1-0.3,0.3-0.5,0.5-0.7c0.2-0.2,0.5-0.3,0.7-0.4
			s0.6-0.1,0.9-0.1c0.3,0,0.5,0,0.9,0.1c0.3,0.1,0.6,0.1,0.9,0.2c0.3,0.1,0.5,0.2,0.7,0.3c0.2,0.1,0.3,0.2,0.3,0.3
			c0,0.1-0.1,0.2-0.3,0.2c-0.2,0.1-0.4,0.1-0.6,0.2c-0.2,0.1-0.4,0.2-0.6,0.4c-0.2,0.1-0.3,0.4-0.3,0.6c0,0.4,0,0.7,0.1,1
			c0.1,0.3,0.2,0.5,0.3,0.6c0.1,0.2,0.3,0.3,0.5,0.4c0.2,0.1,0.4,0.1,0.6,0.1c0.4,0,0.7-0.1,1.1-0.2c0.4-0.2,0.7-0.4,1-0.6
			s0.6-0.6,0.8-1c0.2-0.4,0.3-0.8,0.3-1.2c0-0.5-0.1-1-0.2-1.4c-0.2-0.4-0.4-0.7-0.7-0.9c-0.3-0.2-0.7-0.4-1.2-0.5
			c-0.5-0.1-1-0.2-1.7-0.3c-0.3-0.1-0.6-0.1-0.8-0.1c-0.2,0-0.4-0.1-0.6-0.1c-0.1-0.1-0.3-0.2-0.4-0.3c-0.1-0.1-0.2-0.4-0.2-0.6
			c0-0.3-0.1-0.7-0.1-1.1c0-0.5,0-1,0-1.7c0-0.3,0-0.6-0.1-0.9c0-0.3,0-0.6,0-0.8c0-0.9,0.1-1.5,0.2-1.9c0.1-0.4,0.3-0.7,0.4-0.9
			s0.3-0.2,0.5-0.2h0.4c0.3,0,0.6,0,1,0.1c0.3,0.1,0.7,0.1,1,0.2c0.3,0.1,0.7,0.1,1,0.2c0.4,0.1,0.7,0.1,1.1,0.1c0.1,0,0.2,0,0.3,0
			c0.1,0,0.2,0,0.3,0c0.5-0.1,0.9-0.2,1.1-0.3c0.2-0.1,0.4-0.1,0.4-0.2c0.1-0.1,0.1-0.1,0.1-0.1c0,0,0.1,0,0.2,0
			c0.4,0,0.7,0.2,0.9,0.6c0.2,0.4,0.3,0.9,0.3,1.6v0.1c0,0.1,0,0.1-0.1,0.2s-0.2,0.2-0.3,0.4c-0.2,0.1-0.4,0.3-0.7,0.5
			c-0.3,0.2-0.7,0.3-1.1,0.5c-0.5,0.2-1,0.3-1.7,0.4c-0.5,0-0.9-0.1-1.2-0.2c-0.3-0.1-0.6-0.1-0.8-0.2c-0.2-0.1-0.4-0.1-0.6-0.1
			c-0.2,0-0.4-0.1-0.6-0.1c-0.1,0-0.1,0-0.2,0c-0.1,0-0.2,0-0.3,0c0,0.3,0.1,0.5,0.1,0.9c0,0.3,0.1,0.5,0.1,0.9c0,0.3,0.1,0.7,0.2,1
			c0.7-0.1,1.3-0.1,1.9-0.1c1.1,0,2,0.1,2.7,0.3s1.4,0.5,1.9,0.8c0.5,0.3,0.9,0.7,1.2,1.1c0.3,0.4,0.5,0.8,0.6,1.3
			c0.1,0.4,0.2,0.8,0.3,1.3c0,0.4,0,0.8,0,1.1C288.1,491.1,288,491.7,287.6,492.3z"/>
		<path fill="#FFFFFF" d="M189,486.5c0.4-0.3,0.7-0.7,1-1c0.3-0.4,0.4-0.7,0.4-1.1c0-0.5-0.1-0.9-0.3-1.2c-0.2-0.3-0.4-0.5-0.7-0.5
			c-0.5,0-0.9,0.1-1.2,0.3c-0.3,0.2-0.6,0.4-0.9,0.7c-0.2,0.3-0.4,0.6-0.6,1c-0.1,0.4-0.2,0.7-0.3,1.1c-0.1,0.4-0.1,0.7-0.1,1.1
			c0,0.3,0,0.6,0,0.9c0.4,0,0.8-0.1,1.3-0.3C188.2,487,188.6,486.8,189,486.5z"/>
		<path fill="#FFFFFF" d="M258.3,481.7c-0.1-0.3-0.3-0.5-0.4-0.7c-0.2-0.2-0.4-0.2-0.6-0.2c-0.3,0-0.6,0.1-0.9,0.4
			c-0.3,0.3-0.6,0.6-0.8,1.1s-0.5,1-0.7,1.5c-0.2,0.6-0.4,1.2-0.5,1.8c-0.1,0.6-0.2,1.2-0.3,1.8c-0.1,0.6-0.1,1.2-0.1,1.7
			c0,0.5,0,0.9,0.1,1.3c0.1,0.4,0.1,0.7,0.2,1c0.1,0.3,0.2,0.5,0.4,0.7c0.2,0.2,0.3,0.2,0.6,0.2c0.3,0,0.6-0.1,0.9-0.4
			c0.3-0.3,0.6-0.6,0.8-1.1c0.3-0.5,0.5-1,0.7-1.6c0.2-0.6,0.4-1.2,0.6-1.8c0.2-0.6,0.3-1.3,0.4-1.9c0.1-0.6,0.1-1.2,0.1-1.7
			c0-0.4,0-0.8-0.1-1.2C258.5,482.3,258.4,482,258.3,481.7z"/>
		<path fill="#FFFFFF" d="M175.1,477.5c0.3-0.6,0.7-1.2,1-1.8c0.4-0.7,0.7-1.3,1-1.9c0.3-0.6,0.5-1.2,0.7-1.8c0.2-0.6,0.3-1,0.3-1.4
			c0-0.1,0-0.3,0-0.4c0-0.2-0.1-0.3-0.1-0.4s-0.1-0.2-0.3-0.3c-0.1-0.1-0.3-0.1-0.5-0.1c-0.3,0-0.6,0.3-0.9,0.8
			c-0.3,0.5-0.6,1.2-0.9,2s-0.5,1.7-0.8,2.6c-0.2,1-0.5,1.9-0.7,2.8c0.2,0,0.3,0,0.5,0.1C174.8,477.5,175,477.5,175.1,477.5z"/>
		<path fill="#FFFFFF" d="M238.1,491c-0.5,0-0.9,0-1.1,0.1c-0.2,0.1-0.3,0.2-0.3,0.3c0,0.1,0,0.2,0.1,0.3c0.1,0.1,0.1,0.2,0.2,0.2
			c0.1,0.1,0.2,0.1,0.4,0.2c0.1,0,0.3,0.1,0.4,0.1c0.5,0,1-0.2,1.7-0.7c-0.3-0.2-0.5-0.3-0.8-0.4C238.5,491,238.2,491,238.1,491z"/>
		<path d="M154.1,491.9l0.1-2.6c0,0,0,0,0,0C154.2,490.3,154.1,491.2,154.1,491.9z"/>
		<path d="M198.9,495.6c0.1,0,0.1,0,0.2-0.1c-0.5-0.1-1.1-0.2-1.6-0.4C197.9,495.4,198.3,495.6,198.9,495.6z"/>
		<path d="M173.9,487.6c0-0.3,0-0.6,0-0.9s0-0.6,0-0.9s0-0.6,0-0.9c0-0.7,0.1-1.3,0.1-2c0.3-0.3,0.6-0.7,0.9-1.2s0.7-0.9,1-1.3h6.4
			c0.3,0,0.5-0.1,0.7-0.4c0.2-0.2,0.3-0.6,0.3-1c0-0.3-0.1-0.6-0.1-0.8c-0.1-0.2-0.3-0.3-0.5-0.3c-0.2,0-0.4,0-0.7,0
			c-0.3,0-0.6,0-0.9,0c-0.3,0-0.7,0-1,0c-0.4,0-0.7,0-1,0c-0.3,0-0.6,0-0.8,0c-0.2,0-0.4,0-0.5,0c0.4-0.6,0.8-1.3,1.1-1.9
			c0.4-0.6,0.7-1.3,0.9-1.9c0.3-0.6,0.5-1.2,0.6-1.8c0.2-0.6,0.2-1.2,0.2-1.7c0-0.6-0.1-1.3-0.2-1.9c-0.1-0.6-0.4-1.1-0.6-1.6
			c-0.3-0.4-0.6-0.8-1-1.1c-0.4-0.3-0.8-0.4-1.3-0.4c-0.7,0-1.5,0.3-2.1,1c-0.7,0.7-1.3,1.5-1.9,2.6c-0.6,1.1-1.1,2.3-1.6,3.7
			c-0.5,1.4-0.8,2.9-1.1,4.4c-0.1,0-0.3,0-0.6,0c-0.3,0-0.6,0-1,0c-0.4,0-0.8,0-1.2,0c-0.4,0-0.8,0-1.1,0.1
			c-0.3,0.1-0.6,0.1-0.8,0.3c-0.2,0.1-0.3,0.3-0.3,0.5c0,0.1,0,0.2,0,0.4s0.1,0.3,0.1,0.4s0.2,0.2,0.3,0.3s0.4,0.2,0.6,0.2
			c0.6,0.1,1.1,0.1,1.4,0.2c0.3,0,0.6,0.1,0.8,0.1c0.2,0,0.4,0.1,0.6,0.1c0.2,0,0.4,0.1,0.8,0.1c-0.1,0.7-0.2,1.5-0.2,2.2
			c-0.1,0.8-0.1,1.5-0.1,2.1c0,0.8,0,1.6,0.1,2.4c1.2,0.5,2.5,0.9,3.7,1.4C173.9,487.9,173.9,487.8,173.9,487.6z M174.8,474.6
			c0.2-1,0.5-1.8,0.8-2.6c0.3-0.8,0.6-1.4,0.9-2c0.3-0.5,0.6-0.8,0.9-0.8c0.2,0,0.4,0,0.5,0.1c0.1,0.1,0.2,0.2,0.3,0.3
			s0.1,0.3,0.1,0.4c0,0.1,0,0.3,0,0.4c0,0.4-0.1,0.8-0.3,1.4c-0.2,0.6-0.4,1.2-0.7,1.8c-0.3,0.6-0.6,1.3-1,1.9
			c-0.4,0.7-0.7,1.3-1,1.8c-0.2,0-0.4,0-0.5-0.1c-0.2,0-0.3,0-0.5-0.1C174.3,476.5,174.5,475.6,174.8,474.6z"/>
		<path d="M166.1,483.7c0.1-0.4,0.1-0.7,0.2-1c0.1-0.3,0.1-0.5,0.1-0.6c0-0.8-0.2-1.5-0.5-1.9c-0.3-0.5-0.8-0.7-1.3-0.7
			c-0.6,0-1.1,0.1-1.5,0.3c-0.5,0.2-0.9,0.6-1.2,1.2c-0.1,0.1-0.2,0.3-0.4,0.6c-0.2,0.3-0.3,0.6-0.5,1c-0.1,0.1-0.1,0.2-0.2,0.4
			c1.7,0.7,3.4,1.4,5.1,2.1C166,484.5,166.1,484.1,166.1,483.7z"/>
		<path d="M159.2,482.1c0-0.3,0.1-0.5,0.1-0.7c0-0.6-0.1-1.1-0.4-1.5c-0.2-0.4-0.7-0.5-1.3-0.5s-1.1,0.2-1.4,0.5
			c-0.2,0.2-0.3,0.5-0.4,0.8c1.1,0.5,2.3,1,3.4,1.5C159.2,482.2,159.2,482.1,159.2,482.1z"/>
		<path d="M201.5,493.6c0.4-0.6,0.9-1.2,1.3-1.9c0.4-0.7,0.8-1.4,1.1-2c0,0.4,0.1,0.8,0.3,1.2c0.2,0.4,0.4,0.7,0.8,1
			c0.3,0.3,0.7,0.6,1.2,0.7c0.5,0.2,1,0.3,1.6,0.3c0.7,0,1.5-0.1,2.2-0.4c0.2-0.1,0.3-0.2,0.5-0.2c0,0.1,0,0.3,0.1,0.4
			c0.2,0.6,0.5,1.1,0.9,1.5c0.4,0.4,0.8,0.7,1.3,0.9c0.5,0.2,1,0.3,1.6,0.3c0.5,0,1-0.1,1.5-0.2c0.5-0.2,1-0.4,1.4-0.6
			s0.9-0.6,1.3-0.9c0.4-0.3,0.7-0.6,1-1c0.4,0.9,0.8,1.6,1.3,2.1c0.5,0.5,1.1,0.7,1.8,0.7c0.6,0,1.2-0.1,1.8-0.4
			c0.6-0.3,1.2-0.7,1.7-1.1s1-0.9,1.4-1.4c0.4-0.5,0.8-0.9,1-1.2l-0.8-3.7c-0.6,0.8-1.1,1.4-1.7,2c-0.2,0.3-0.5,0.5-0.7,0.7
			c-0.3,0.2-0.5,0.5-0.8,0.6c-0.3,0.2-0.5,0.3-0.8,0.5c-0.3,0.1-0.5,0.2-0.7,0.2c-0.3,0-0.5-0.1-0.6-0.4c-0.1-0.3-0.1-0.7-0.1-1.2
			c0-0.6,0.1-1.3,0.2-1.9c0.1-0.7,0.2-1.4,0.4-2c0.1-0.7,0.3-1.3,0.4-2c0.1-0.6,0.2-1.2,0.2-1.8c0-0.3,0-0.6-0.1-0.8
			c-0.1-0.2-0.1-0.4-0.3-0.5c-0.1-0.1-0.2-0.2-0.4-0.2c-0.1,0-0.3-0.1-0.5-0.1c-0.1,0-0.2,0-0.4,0c-0.1,0-0.3,0-0.4,0
			c-0.1,0-0.3,0-0.4,0c-0.1,0-0.3-0.1-0.4-0.1c-0.1-0.1-0.2-0.1-0.3-0.3c-0.1-0.1-0.2-0.2-0.3-0.4c-0.1-0.1-0.2-0.2-0.4-0.3
			c-0.1-0.1-0.3-0.1-0.6-0.1c-0.8,0-1.5,0.2-2.3,0.5c-0.7,0.3-1.4,0.8-2.1,1.3c-0.7,0.6-1.3,1.2-1.8,1.9c-0.6,0.7-1,1.5-1.5,2.4
			c-0.4,0.8-0.7,1.7-1,2.6c0,0.1,0,0.3-0.1,0.4c-0.3,0.1-0.6,0.3-0.9,0.4c-0.4,0.2-0.8,0.3-1.2,0.3c-0.5,0-0.8-0.1-1.1-0.2
			c-0.3-0.1-0.5-0.3-0.7-0.5c-0.2-0.2-0.3-0.4-0.4-0.7c-0.1-0.3-0.1-0.5-0.1-0.8c0-0.3,0-0.5,0.1-0.7c0-0.2,0.1-0.5,0.1-0.6
			c0.1-0.2,0.1-0.4,0.2-0.6c0.2-0.5,0.5-1,0.7-1.4s0.4-0.8,0.5-1.1c0.1-0.3,0.3-0.6,0.4-0.9c0.1-0.3,0.1-0.6,0.1-0.9
			c0-0.4-0.2-0.7-0.6-1c-0.4-0.3-0.9-0.4-1.6-0.4c-0.2,0-0.5,0-0.7,0.1c-0.2,0.1-0.4,0.2-0.6,0.3c-0.2,0.1-0.3,0.2-0.4,0.4
			c-0.1,0.1-0.2,0.3-0.2,0.4l-4.4,10.4l-0.2,0l0.7-10.5c0-0.3-0.1-0.5-0.3-0.8c-0.2-0.2-0.5-0.3-0.9-0.3c-0.1,0-0.1,0-0.2,0
			c0,0-0.1,0-0.2,0l-2,0.3c-0.4,0.1-0.6,0.4-0.7,1c-0.1,0.6-0.2,1.5-0.2,2.7c0,0.4,0,0.9,0,1.3c0,0.4,0,0.9,0.1,1.4s0.1,1.1,0.1,1.7
			c0,0.2,0,0.4,0,0.6c-0.3,0.3-0.5,0.5-0.9,0.8c-0.6,0.5-1.3,0.9-2,1.3c-0.7,0.4-1.4,0.7-2.2,1c-0.7,0.3-1.4,0.4-2.1,0.4
			c-0.2,0-0.4,0-0.6-0.1c-0.2,0-0.4-0.1-0.5-0.2c-0.2-0.1-0.3-0.3-0.5-0.5c-0.2-0.2-0.3-0.5-0.5-0.8c1-0.3,1.9-0.6,2.7-1.1
			c0.8-0.5,1.5-1,2.1-1.6c0.6-0.6,1.1-1.3,1.4-1.9c0.3-0.7,0.5-1.4,0.5-2.1c0-0.6-0.1-1.2-0.3-1.7c-0.2-0.5-0.5-0.9-0.9-1.3
			c-0.4-0.4-0.9-0.6-1.4-0.8s-1.1-0.3-1.7-0.3c-0.8,0-1.5,0.1-2.1,0.4c-0.6,0.3-1.2,0.6-1.7,1.1s-0.9,1-1.3,1.6
			c-0.4,0.6-0.7,1.2-0.9,1.9c-0.2,0.7-0.4,1.3-0.6,2c-0.1,0.7-0.2,1.4-0.2,2c0,0,0,0,0,0c-0.4,0.3-0.8,0.7-1.3,1
			c-0.3,0.2-0.7,0.4-1,0.7c4.4,1.4,8.9,2.8,13.4,4c0.3-0.1,0.5-0.2,0.8-0.4c0.6-0.3,1.1-0.6,1.5-1c0.2-0.1,0.3-0.3,0.5-0.5
			c0.1,0.6,0.2,1.1,0.3,1.6c0.2,0.5,0.4,0.9,0.8,1.2c0,0,0.1,0,0.1,0.1c0.5,0.1,1.1,0.2,1.6,0.4c0.3-0.1,0.7-0.2,1-0.5
			C200.6,494.7,201,494.2,201.5,493.6z M214.6,488.4c0.1-0.6,0.3-1.1,0.5-1.7c0.2-0.5,0.5-1.1,0.8-1.6c0.3-0.5,0.7-0.9,1.1-1.3
			s0.8-0.7,1.2-0.9c0.4-0.2,0.9-0.3,1.3-0.3l-1,4.9c0,0.4-0.1,0.8-0.3,1.3c-0.1,0.5-0.3,1-0.6,1.5c-0.2,0.5-0.5,0.9-0.9,1.3
			c-0.3,0.4-0.7,0.5-1.1,0.5c-0.3,0-0.5-0.1-0.6-0.2s-0.3-0.3-0.4-0.5c-0.1-0.2-0.2-0.4-0.2-0.7c0-0.3-0.1-0.5-0.1-0.8
			C214.5,489.5,214.5,489,214.6,488.4z M186.4,486.7c0-0.3,0.1-0.7,0.1-1.1c0.1-0.4,0.2-0.7,0.3-1.1c0.1-0.4,0.3-0.7,0.6-1
			c0.2-0.3,0.5-0.5,0.9-0.7c0.3-0.2,0.7-0.3,1.2-0.3c0.3,0,0.5,0.2,0.7,0.5c0.2,0.3,0.3,0.7,0.3,1.2c0,0.4-0.1,0.7-0.4,1.1
			c-0.3,0.4-0.6,0.7-1,1c-0.4,0.3-0.8,0.6-1.3,0.8c-0.5,0.2-0.9,0.3-1.3,0.3C186.4,487.3,186.4,487,186.4,486.7z"/>
		<path d="M248.3,490.7c-0.1,0-0.1,0.1-0.3,0.3c-0.1,0.2-0.2,0.4-0.4,0.6c-0.1,0.2-0.3,0.4-0.4,0.6c-0.1,0.2-0.3,0.3-0.4,0.3
			c-0.5,0-0.9-0.1-1.3-0.2c-0.4-0.1-0.8-0.3-1.2-0.5c0.6-0.7,1.1-1.4,1.5-2.2c0.5-0.8,0.8-1.5,1.1-2.3c0.3-0.7,0.5-1.4,0.7-2.1
			c0.2-0.7,0.2-1.2,0.2-1.7c0-0.9-0.1-1.6-0.4-2.3s-0.6-1.2-1-1.6c-0.4-0.4-0.8-0.8-1.3-1.1s-1-0.5-1.4-0.6
			c-0.5-0.2-0.9-0.3-1.3-0.3c-0.4-0.1-0.7-0.1-1-0.1c-0.9,0-1.8,0.1-2.6,0.5c-0.8,0.3-1.5,0.7-2.1,1.2c-0.6,0.5-1.1,1-1.4,1.7
			c-0.4,0.6-0.5,1.2-0.5,1.9c0,0.5,0.1,0.9,0.3,1.4c0.2,0.4,0.6,0.8,1,1.2c0.1,0,0.1,0,0.2,0c0.1,0,0.2,0.1,0.3,0.1
			c0.4,0,0.8,0,1.3-0.1c0.5-0.1,0.9-0.2,1.3-0.3c0.4-0.1,0.7-0.3,1-0.4c0.3-0.2,0.4-0.3,0.4-0.4c0,0,0-0.1,0-0.2
			c-0.7-0.2-1.2-0.4-1.5-0.6c-0.3-0.2-0.5-0.4-0.5-0.6c0-0.4,0.1-0.7,0.2-1c0.1-0.3,0.3-0.6,0.6-0.8c0.3-0.2,0.5-0.4,0.9-0.5
			c0.3-0.1,0.7-0.2,1-0.2c0.3,0,0.6,0.1,0.9,0.2c0.3,0.1,0.6,0.3,0.8,0.6c0.3,0.3,0.5,0.7,0.6,1.2c0.2,0.5,0.2,1.2,0.2,2
			c0,0.5-0.1,1-0.2,1.5c-0.1,0.5-0.3,1-0.5,1.5c-0.2,0.5-0.5,1-0.8,1.4c-0.3,0.5-0.6,0.9-0.9,1.3c-0.6-0.4-1.2-0.7-1.9-0.9
			c-0.7-0.3-1.4-0.4-2.3-0.4c-0.6,0-1.1,0.1-1.5,0.3c-0.4,0.2-0.7,0.5-1,0.8c-0.3,0.3-0.5,0.7-0.6,1c-0.1,0.4-0.2,0.8-0.2,1.1
			c0,0.5,0.1,0.9,0.3,1.4c0.2,0.4,0.5,0.8,0.9,1.2c0.4,0.3,0.8,0.6,1.3,0.8c0.5,0.2,1,0.3,1.6,0.3c0.8-0.1,1.6-0.2,2.3-0.5
			c0.7-0.3,1.4-0.7,2.1-1.2c0.3,0.2,0.6,0.5,1,0.7c0.3,0.2,0.7,0.4,1,0.5c0.3,0.2,0.7,0.3,1,0.4c0.3,0.1,0.7,0.1,1,0.1
			c0.4,0,0.7-0.1,1-0.2c0.3-0.1,0.5-0.3,0.7-0.5c0.2-0.2,0.3-0.4,0.4-0.7c0.1-0.2,0.2-0.5,0.2-0.7c0.2-0.8,0.3-1.4,0.3-1.8
			c0-0.3,0-0.5-0.1-0.6C248.6,490.7,248.5,490.7,248.3,490.7z M237.8,492.2c-0.1,0-0.3,0-0.4-0.1c-0.1,0-0.3-0.1-0.4-0.2
			c-0.1-0.1-0.2-0.2-0.2-0.2c-0.1-0.1-0.1-0.2-0.1-0.3c0-0.1,0.1-0.2,0.3-0.3c0.2-0.1,0.6-0.1,1.1-0.1c0.2,0,0.4,0,0.6,0.1
			c0.2,0.1,0.5,0.2,0.8,0.4C238.8,492,238.2,492.2,237.8,492.2z"/>
		<path d="M261.4,479.7c-0.4-0.6-1-1.1-1.7-1.4c-0.7-0.4-1.5-0.5-2.4-0.5c-0.8,0-1.5,0.2-2.2,0.5c-0.7,0.3-1.3,0.7-1.9,1.2
			c-0.6,0.5-1,1.1-1.5,1.8c-0.4,0.7-0.8,1.5-1.1,2.2c-0.3,0.8-0.5,1.6-0.7,2.5c-0.1,0.9-0.2,1.7-0.2,2.5c0,0.9,0.1,1.8,0.3,2.6
			c0.2,0.8,0.5,1.6,1,2.2s1,1.1,1.6,1.5c0.6,0.4,1.4,0.6,2.2,0.6c0.8,0,1.5-0.2,2.2-0.5c0.7-0.3,1.3-0.7,1.9-1.3
			c0.6-0.5,1.1-1.2,1.5-1.9c0.5-0.7,0.8-1.5,1.1-2.3c0.3-0.8,0.5-1.7,0.7-2.5c0.2-0.9,0.2-1.7,0.2-2.5c0-0.9-0.1-1.7-0.3-2.5
			C262.2,481,261.8,480.3,261.4,479.7z M258.5,485.6c-0.1,0.6-0.2,1.2-0.4,1.9c-0.2,0.6-0.3,1.2-0.6,1.8c-0.2,0.6-0.5,1.1-0.7,1.6
			c-0.3,0.5-0.5,0.8-0.8,1.1c-0.3,0.3-0.6,0.4-0.9,0.4c-0.2,0-0.4-0.1-0.6-0.2c-0.2-0.2-0.3-0.4-0.4-0.7c-0.1-0.3-0.2-0.6-0.2-1
			c-0.1-0.4-0.1-0.8-0.1-1.3c0-0.5,0-1.1,0.1-1.7c0.1-0.6,0.2-1.2,0.3-1.8c0.1-0.6,0.3-1.2,0.5-1.8c0.2-0.6,0.4-1.1,0.7-1.5
			c0.3-0.4,0.5-0.8,0.8-1.1c0.3-0.3,0.6-0.4,0.9-0.4c0.2,0,0.5,0.1,0.6,0.2c0.2,0.2,0.3,0.4,0.4,0.7c0.1,0.3,0.2,0.6,0.2,1
			c0.1,0.4,0.1,0.8,0.1,1.2C258.7,484.4,258.6,485,258.5,485.6z"/>
		<path d="M271.6,477.8c-0.4,0-0.9,0.1-1.3,0.3c-0.4,0.2-0.9,0.4-1.3,0.7c-0.4,0.3-0.9,0.6-1.3,0.9c-0.4,0.3-0.8,0.6-1.1,0.9
			c-0.3,0.3-0.6,0.5-0.9,0.7c-0.2,0.2-0.4,0.3-0.5,0.3c-0.5,0-0.9,0-1.1,0.1c-0.2,0.1-0.4,0.2-0.4,0.3c0,0.2,0.3,0.4,0.8,0.6
			c0.6,0.2,1.4,0.3,2.4,0.3c0.1,0,0.2,0,0.4-0.1s0.3-0.2,0.5-0.4c0.2-0.1,0.4-0.3,0.6-0.5c0.2-0.2,0.4-0.4,0.5-0.5
			c-0.2,1.4-0.5,2.8-0.8,4.3c-0.1,0.6-0.3,1.3-0.4,1.9c-0.1,0.7-0.3,1.4-0.5,2.1c-0.2,0.7-0.3,1.4-0.5,2.1c-0.2,0.7-0.3,1.4-0.5,2
			c-0.1,0.1-0.1,0.2-0.1,0.3c0,0.1,0,0.2,0,0.3c0,0.2,0.1,0.4,0.2,0.5c0.1,0.1,0.3,0.3,0.6,0.4c0.2,0.1,0.5,0.2,0.8,0.2
			c0.3,0,0.7,0.1,1,0.1c0.3,0,0.6-0.1,0.8-0.3c0.2-0.2,0.4-0.4,0.6-0.7c0.2-0.3,0.3-0.6,0.5-0.9c0.1-0.3,0.2-0.6,0.3-1
			c0.1-0.3,0.2-0.6,0.2-0.9c0-0.3,0.1-0.5,0.1-0.6c0.1-0.6,0.2-1.3,0.3-2.1c0.1-0.8,0.2-1.6,0.4-2.4c0.1-0.8,0.2-1.7,0.4-2.5
			c0.1-0.8,0.2-1.5,0.3-2.2c0.1-0.6,0.2-1.4,0.3-2.2c0-0.3,0-0.6,0.1-0.9c0-0.2,0.1-0.5,0.1-0.6c0-0.2-0.1-0.3-0.3-0.4
			C272.6,477.8,272.2,477.8,271.6,477.8z"/>
		<path d="M287.8,488.1c-0.1-0.4-0.3-0.8-0.6-1.3c-0.3-0.4-0.7-0.8-1.2-1.1c-0.5-0.3-1.1-0.6-1.9-0.8s-1.7-0.3-2.7-0.3
			c-0.6,0-1.2,0-1.9,0.1c-0.1-0.4-0.1-0.7-0.2-1c0-0.3-0.1-0.6-0.1-0.9c0-0.3-0.1-0.6-0.1-0.9c0.1,0,0.2,0,0.3,0c0.1,0,0.1,0,0.2,0
			c0.2,0,0.4,0,0.6,0.1c0.2,0,0.4,0.1,0.6,0.1c0.2,0,0.5,0.1,0.8,0.2c0.3,0.1,0.7,0.1,1.2,0.2c0.7-0.1,1.3-0.3,1.7-0.4
			c0.5-0.2,0.8-0.3,1.1-0.5c0.3-0.2,0.5-0.3,0.7-0.5s0.3-0.3,0.3-0.4c0.1-0.1,0.1-0.2,0.1-0.2v-0.1c0-0.6-0.1-1.2-0.3-1.6
			c-0.2-0.4-0.5-0.6-0.9-0.6c-0.1,0-0.2,0-0.2,0c0,0-0.1,0.1-0.1,0.1c-0.1,0-0.2,0.1-0.4,0.2c-0.2,0.1-0.6,0.2-1.1,0.3
			c-0.1,0-0.2,0-0.3,0c-0.1,0-0.2,0-0.3,0c-0.4,0-0.7,0-1.1-0.1c-0.4-0.1-0.7-0.1-1-0.2c-0.3-0.1-0.7-0.1-1-0.2
			c-0.3-0.1-0.7-0.1-1-0.1h-0.4c-0.2,0-0.3,0.1-0.5,0.2c-0.2,0.2-0.3,0.5-0.4,0.9c-0.1,0.4-0.2,1.1-0.2,1.9c0,0.3,0,0.5,0,0.8
			c0,0.3,0,0.6,0.1,0.9c0,0.7,0,1.3,0,1.7c0,0.5,0.1,0.8,0.1,1.1c0,0.3,0.1,0.5,0.2,0.6c0.1,0.1,0.2,0.2,0.4,0.3
			c0.1,0.1,0.3,0.1,0.6,0.1c0.2,0,0.5,0.1,0.8,0.1c0.6,0.1,1.2,0.1,1.7,0.3c0.5,0.1,0.9,0.3,1.2,0.5s0.6,0.5,0.7,0.9
			c0.2,0.4,0.2,0.8,0.2,1.4c0,0.4-0.1,0.9-0.3,1.2c-0.2,0.4-0.4,0.7-0.8,1s-0.6,0.5-1,0.6c-0.4,0.2-0.8,0.2-1.1,0.2
			c-0.2,0-0.4,0-0.6-0.1c-0.2-0.1-0.3-0.2-0.5-0.4c-0.1-0.2-0.2-0.4-0.3-0.6c-0.1-0.3-0.1-0.6-0.1-1c0-0.3,0.1-0.5,0.3-0.6
			c0.2-0.1,0.4-0.3,0.6-0.4c0.2-0.1,0.4-0.2,0.6-0.2c0.2-0.1,0.3-0.1,0.3-0.2c0-0.1-0.1-0.2-0.3-0.3c-0.2-0.1-0.4-0.2-0.7-0.3
			c-0.3-0.1-0.6-0.2-0.9-0.2c-0.3-0.1-0.6-0.1-0.9-0.1c-0.3,0-0.6,0-0.9,0.1s-0.5,0.2-0.7,0.4s-0.4,0.4-0.5,0.7
			c-0.1,0.3-0.2,0.6-0.2,1.1c0,0.7,0.1,1.3,0.3,1.9c0.2,0.6,0.6,1.1,1,1.5c0.5,0.4,1.1,0.7,1.8,1c0.7,0.2,1.6,0.3,2.7,0.3
			c1,0,1.9-0.2,2.7-0.5s1.5-0.7,2.1-1.2c0.6-0.5,1.1-1.1,1.4-1.7c0.3-0.6,0.5-1.2,0.5-1.9c0-0.3,0-0.7,0-1.1
			C288,488.9,288,488.5,287.8,488.1z"/>
	</g>
</g>
</svg>
