<?xml version="1.0" encoding="utf-8"?>
<!-- Generator: Adobe Illustrator 18.1.1, SVG Export Plug-In . SVG Version: 6.00 Build 0)  -->
<svg version="1.1" id="Layer_1" xmlns="http://www.w3.org/2000/svg" xmlns:xlink="http://www.w3.org/1999/xlink" x="0px" y="0px"
	 viewBox="0 0 130 130" enable-background="new 0 0 130 130" xml:space="preserve">
<g>
	<path fill="#BA8C5E" d="M120.6,128H16.7c-2.6,0-4.6-2.1-4.6-4.6V30c0-2.6,2.1-4.6,4.6-4.6h107.6c2.6,0,4.6,2.1,4.6,4.6l-3.7,93.3
		C125.2,125.9,123.2,128,120.6,128z"/>
	<path fill="#8FAA3D" d="M23.3,50.9c3.1,13.9,8.9,23.2,9.3,23.6c0.1,0.1,0.1,0.1,0.2,0.1c0.1,0.1,0.3,0.1,0.4,0.1l40.7-2.8
		c0.4,0,0.9-0.4,1-0.9c0.2-0.5,0.1-1-0.3-1.2c-0.1-0.1-6.8-10.9-10.4-22.2c-3.6-11.3-1.7-25-1.7-25.1c0.1-0.6-0.2-1.1-0.7-1.2
		l-39.2-2.2c-0.3,0-0.6,0.1-0.8,0.3c-0.2,0.2-0.4,0.5-0.5,0.9C21.2,21,20.2,37.1,23.3,50.9z"/>
	<path fill="#94B83D" d="M42.6,39.1c3.1,13.9,8.9,23.2,9.3,23.6c0.1,0.1,0.1,0.1,0.2,0.1c0.1,0.1,0.3,0.1,0.4,0.1l40.7-2.8
		c0.4,0,0.9-0.4,1-0.9c0.2-0.5,0.1-1-0.3-1.2c-0.1-0.1-6.8-10.9-10.4-22.2c-3.6-11.3-1.7-25-1.7-25.1c0.1-0.6-0.2-1.1-0.7-1.2
		L42,7.2c-0.3,0-0.6,0.1-0.8,0.3c-0.2,0.2-0.4,0.5-0.5,0.9C40.6,9.1,39.5,25.2,42.6,39.1z"/>
	<path fill="#9AC13D" d="M56.4,30.4c-2.6,14-0.9,24.8-0.7,25.3c0,0.1,0.1,0.1,0.1,0.2c0.1,0.1,0.2,0.2,0.4,0.2l38.5,13.4
		c0.4,0.1,1,0,1.3-0.4c0.4-0.4,0.5-0.9,0.3-1.3c-0.1-0.1-2-12.7-0.8-24.5c1.1-11.8,8.2-23.6,8.3-23.7c0.4-0.5,0.3-1.1-0.1-1.3
		L68.3,0.9c-0.2-0.1-0.6-0.2-0.9,0c-0.3,0.1-0.6,0.3-0.8,0.6C66.3,2.1,59,16.5,56.4,30.4z"/>
	<path fill="#9CCB41" d="M78.5,30.4c-2.6,14-0.9,24.8-0.7,25.3c0,0.1,0.1,0.1,0.1,0.2c0.1,0.1,0.2,0.2,0.4,0.2l38.5,13.4
		c0.4,0.1,1,0,1.3-0.4c0.4-0.4,0.5-0.9,0.3-1.3c-0.1-0.1-2-12.7-0.8-24.5c1.1-11.8,8.2-23.6,8.3-23.7c0.4-0.5,0.3-1.1-0.1-1.3
		L90.4,0.9c-0.2-0.1-0.6-0.2-0.9,0c-0.3,0.1-0.6,0.3-0.8,0.6C88.4,2.1,81.1,16.5,78.5,30.4z"/>
	<path fill="#F9CA62" d="M115,34.9H42.1v-3.9c0-2.6-2.1-4.6-4.6-4.6H13.4c-2.6,0-4.6,2.1-4.6,4.6v3.9H5.6c-2.6,0-4.6,2.1-4.6,4.6
		l2.8,83.9c0,2.6,2.1,4.6,4.6,4.6h109.4c2.6,0,4.6-2.1,4.6-4.6l-2.8-83.9C119.7,36.9,117.6,34.9,115,34.9z"/>
</g>
<path opacity="0.15" fill="#FFFFFF" d="M119.2,128h1.4c2.6,0,4.6-2.1,4.6-4.6l3.7-93.3c0-2.6-2.1-4.6-4.6-4.6h-1.5
	c1.6-3.4,2.9-5.6,2.9-5.7c0.4-0.5,0.3-1.1-0.1-1.3L90.4,0.9c-0.2-0.1-0.6-0.2-0.9,0c-0.3,0.1-0.6,0.3-0.8,0.6
	c-0.2,0.3-1.7,3.3-3.6,7.8L68.3,0.9c-0.2-0.1-0.6-0.2-0.9,0c-0.3,0.1-0.6,0.3-0.8,0.6c-0.2,0.3-1.5,2.9-3.3,7L42,7.2
	c-0.3,0-0.6,0.1-0.8,0.3c-0.2,0.2-0.4,0.5-0.5,0.9c-0.1,0.4-0.4,5.2-0.2,11.7l-17.8-1c-0.3,0-0.6,0.1-0.8,0.3
	c-0.2,0.2-0.4,0.5-0.5,0.9c0,0.3-0.2,2.2-0.2,5.1h-4.4c-0.1,0-0.1,0-0.2,0C51,59.4,85.1,93.7,119.2,128z"/>
<path fill="#ECB34B" d="M1.1,38.3c-0.1,0.4-0.2,0.8-0.2,1.2l2.8,83.9c0,2.6,2.1,4.6,4.6,4.6H91C61.1,98,31.3,68,1.1,38.3z"/>
</svg>
