<?xml version="1.0" encoding="utf-8"?>
<!-- Generator: Adobe Illustrator 18.1.1, SVG Export Plug-In . SVG Version: 6.00 Build 0)  -->
<svg version="1.1" id="Layer_1" xmlns="http://www.w3.org/2000/svg" xmlns:xlink="http://www.w3.org/1999/xlink" x="0px" y="0px"
	 viewBox="0 0 130 130" enable-background="new 0 0 130 130" xml:space="preserve">
<g>
	<path fill="#F6E3B6" d="M127,113.7H3c-1.1,0-2-0.9-2-2V35.3c0-1.1,0.9-2,2-2h124c1.1,0,2,0.9,2,2v76.4
		C129,112.8,128.1,113.7,127,113.7z"/>
	<path fill="#FFEFC6" d="M93.6,113.7H127c1.1,0,2-0.9,2-2V35.3c0-1.1-0.9-2-2-2H13.3C39.9,60.3,66.7,87,93.6,113.7z"/>
	<path fill="#E9D19F" d="M1,49.3v62.4c0,1.1,0.9,2,2,2h62.2C43.7,92.3,22.3,70.9,1,49.3z"/>
	<path fill="#5C2E13" d="M1,103.7v24.2c0,0.6,0.5,1.1,1.1,1.1h125.9c0.6,0,1.1-0.5,1.1-1.1v-24.2H1z"/>
	<path fill="#5C2E13" d="M65,1C48.2,1,34.5,14.8,34.5,31.7v14.6c0,0.6,0.5,1.1,1.1,1.1h5.4c0.6,0,1.1-0.5,1.1-1.1V31.7
		C42,18.9,52.3,8.5,65,8.5s23,10.4,23,23.2v14.6c0,0.6,0.5,1.1,1.1,1.1h5.4c0.6,0,1.1-0.5,1.1-1.1V31.7C95.5,14.8,81.8,1,65,1z"/>
	<circle fill="#5C2E13" cx="38.1" cy="46.8" r="5.2"/>
	<circle fill="#5C2E13" cx="92.2" cy="46.8" r="5.2"/>
</g>
</svg>
