<?xml version="1.0" encoding="utf-8"?>
<!-- Generator: Adobe Illustrator 18.1.1, SVG Export Plug-In . SVG Version: 6.00 Build 0)  -->
<svg version="1.1" id="Layer_1" xmlns="http://www.w3.org/2000/svg" xmlns:xlink="http://www.w3.org/1999/xlink" x="0px" y="0px"
	 viewBox="0 0 130 130" enable-background="new 0 0 130 130" xml:space="preserve">
<g>
	<g>
		<g>
			<rect x="1" y="1.1" fill="#F04E3C" width="38.8" height="38.6"/>
			<rect x="1" y="45.7" fill="#73B8BC" width="38.8" height="38.6"/>
			<rect x="45.6" y="1.1" fill="#F9CA62" width="38.8" height="38.6"/>
			<rect x="45.6" y="45.7" fill="#813090" width="38.8" height="38.6"/>
			<rect x="90.3" y="45.7" fill="#18B898" width="38.8" height="38.6"/>
			<rect x="90.3" y="1.1" fill="#94B83D" width="38.8" height="38.6"/>
			<line fill="#518E40" x1="19" y1="85" x2="33.6" y2="85"/>
			<rect x="1" y="90.4" fill="#154270" width="38.8" height="38.6"/>
			<rect x="45.6" y="90.4" fill="#FCB316" width="38.8" height="38.6"/>
			<rect x="90.3" y="90.4" fill="#EA6C32" width="38.8" height="38.6"/>
			<line fill="#518E40" x1="21.3" y1="134" x2="35.6" y2="134"/>
		</g>
		<g>
			<polygon fill="#FFFFFF" points="32.7,17.5 23.9,17.5 21.2,9.2 18.4,17.6 9.6,17.6 16.8,22.7 14,31.2 21.2,26 28.3,31.2 
				25.6,22.7 			"/>
		</g>
		<g>
			<polygon fill="#FFFFFF" points="71.8,110.5 77.2,106.7 70,106.7 72,100.4 67.4,103.8 65.6,98.4 63.5,104.7 57.7,100.5 
				59.8,106.7 54,106.7 58.8,110.2 53.5,114.2 60.5,114.1 58.5,120.3 63.2,116.9 65.1,122.5 67.1,116.2 72.8,120.4 70.7,113.9 
				76.6,113.9 			"/>
		</g>
		<circle fill="#FFFFFF" cx="65.6" cy="21" r="9.4"/>
		<g>
			<path fill="#FFFFFF" d="M20.7,105.3c2.4,0,4.4,2,4.4,4.4s-2,4.4-4.4,4.4s-4.4-2-4.4-4.4S18.2,105.3,20.7,105.3 M20.7,100.3
				c-5.2,0-9.4,4.2-9.4,9.4s4.2,9.4,9.4,9.4c5.2,0,9.4-4.2,9.4-9.4S25.9,100.3,20.7,100.3L20.7,100.3z"/>
		</g>
		
			<rect x="103.2" y="13.7" transform="matrix(0.7071 0.7071 -0.7071 0.7071 46.6122 -71.7698)" fill="#FFFFFF" width="13.4" height="13.4"/>
		<g>
			<path fill="#FFFFFF" d="M73.6,58.1c1.5,1.5,2.3,6-0.7,9.6c-3.7,4.5-7.5,5.8-7.5,5.8s-4-1.5-7.5-6c-2.7-3.5-2.6-7.6-0.4-9.4
				c4.1-3.5,7.9,1.4,7.9,1.4S70,54.7,73.6,58.1z"/>
		</g>
		<rect x="11.4" y="55.9" fill="#FFFFFF" width="18.5" height="18.5"/>
		<polygon fill="#FFFFFF" points="119.2,73.3 109.6,57.2 99.9,73.3 		"/>
	</g>
</g>
<polygon fill="#FFFFFF" points="118.7,118.2 96.6,118.2 100.3,102.9 122.4,102.9 "/>
</svg>
