<?xml version="1.0" encoding="utf-8"?>
<!-- Generator: Adobe Illustrator 18.1.1, SVG Export Plug-In . SVG Version: 6.00 Build 0)  -->
<svg version="1.1" id="Layer_1" xmlns="http://www.w3.org/2000/svg" xmlns:xlink="http://www.w3.org/1999/xlink" x="0px" y="0px"
	 viewBox="0 0 130 130" enable-background="new 0 0 130 130" xml:space="preserve">
<g>
	<g>
		<g>
			<path fill="#813090" d="M126,112.8c-1.6-2.3-5.9-8.4-15.3-8.4c-9.4,0-13.9,5.3-15.3,8.6c-1.9,3-5.1,11.4,1.2,14.2
				c5.6,2.5,22.7,2.6,29.3,0C131.9,124.7,127.7,115.1,126,112.8z"/>
			<path fill="#010101" d="M121.4,101.1c0-0.1,0-0.2,0-0.4c1.2,1.1,2.6,0.9,2.4,0.7c-2.2-2.1-0.4-4-0.4-7.7c0-1.8,0.1-3.5,0-5.1
				c0.2-2.2,0-4.2-0.9-5.6c-0.3-0.5-0.8-0.8-1.5-1c-2.8-2.7-12.4-4.7-12.6-1c0,0.8,0.2,1.5,0.6,2.3c-0.4-0.2-0.8-0.3-1.2-0.5
				c-1.1-1.3-3-1.6-5-0.9c-1.8,0-3.4,0.4-4.1,1.4c-0.6,0.9-0.9,2.2-0.9,3.7c-1,2.4-0.3,3.8-0.2,7.4c0.1,4.2,1.4,6.4-1.7,8.7
				c-0.4,0.3,2.6,0.3,4.2-2.1c0,0.2,0,0.4,0,0.6c0.1,3.9-7.5,5.3-7.5,5.3s14.7,7.4,14-8.1c-0.1-2.9,2.5-4.8,4.4-7.3
				c1.7,1.8,3.6,3.2,3.4,5.8c-1.5,15.9,12.4,10,12.4,10S121.3,105,121.4,101.1z"/>
			<path fill="#F9D8A5" d="M122.3,93c0-2.2-0.2-6-1.4-7.8c-1.9-2.8-5.3-4.7-9.8-4.7c-4.6,0-8.7,1.4-10.3,4.8c-1,2.1-0.4,5.7-0.4,7.8
				c0.2,6.1,2.5,8,5.3,10.6c0.1,0.1,0.2,0.2,0.2,0.2c-0.1,1.8-0.5,3.4-1.3,4.3c-1.4,1.6,1.2,9,6.4,8.9c6.2-0.1,7.7-7.5,6.5-8.9
				c-0.8-0.9-1.3-2.4-1.5-4.1C119,101.6,122.2,99.2,122.3,93z"/>
			<path fill="#010101" d="M124.8,89.1c0.9-0.1,1.8-0.4,2.7-0.7c-0.9-0.2-1.8-0.7-2.6-1.2c0-0.1,0-0.2,0-0.3
				c0.1-4.1,0.5-7.3-1.8-11.1c-1.5-2.5-9.2-4.7-12.1-3.2c-0.5-0.2-0.9-0.3-1.4-0.3c-2.5-0.3-4.8,0.6-6.7,1.9c-1.7,0-3.6,0.8-5,2.8
				c-2.9,4-1.5,6.1-1.4,10.7c0.1,4.2,1.4,6.4-1.7,8.7c-0.4,0.3,2.5,0.3,4-1.9c-0.2,2.4-1,4-3.3,5.7c-0.5,0.4,7.5,0.5,6.6-6.3
				c-0.6-4.2,1.6-7.7,3.8-10.4c3.7,2.4,8.6,4.7,13.2,5.5c1.4,1.9,2.3,3.7,2.3,4.9c-0.2,6.1,4.4,4.7,4,4.4
				C123.8,96.6,124.5,92.6,124.8,89.1z"/>
		</g>
		<g>
			<g>
				<g>
					<path fill="#B98E63" d="M47.7,109.8c-0.9-2.9-14.8-4.3-15.5-6.3c-0.7-1.8-2.2-5.3-0.7-6.6c0,0,0,0,0,0c0.3-0.2,0.6-0.4,0.9-0.6
						c0,0,0.1-0.1,0.1-0.1h0c2.3-1.9,3.3-5.1,3.8-7.7c1.2-0.1,2.8-1.9,2.8-3.7c0-1.5-0.9-2.9-1.6-3.4c1-5.4,0.9-12.7-12.3-12.7
						c-12.5,0-13,6.9-12.2,12.6c-0.7,0.3-1.7,1.9-1.7,3.5c0,1.8,1.7,3.6,2.9,3.7c0.3,2.3,1.3,5.8,3.8,7.6h0c0.2,0.2,0.5,0.3,0.7,0.5
						c2.1,1.1,0.4,5-0.3,6.9c-0.8,2-14.6,3.4-15.5,6.3c-1.4,4.6-3.6,14.8,0.4,17.2c4.7,2.7,39.3,2.7,44,0
						C51.3,124.6,49.1,114.4,47.7,109.8z"/>
				</g>
				<path fill="#5D2D0F" d="M27.6,71.4c6.1,0.4,7.7,5.6,7.7,5.6s1.2,4.3,0.9,7.5c0,0.3,1,0.3,1,0.1c1.1-5.3,1.3-8.1,0.1-11.2
					c0.6-3.9-0.3-6.4-2.9-6.2c-0.5-2.7-3.3-3.7-7-2.4c0.2-1.4-6.8-2.8-10.5,1.3c-5.4-1.1-3.8,8.3-3.8,8.3s-1.6,1.8,0.1,10.1
					c0,0.1,1.2,0.1,1.2-0.5c0.1-1.6-0.4-5-0.1-7.4c0.2-1.6,1.2-5,3.2-3.5C20,74.9,23.7,71.1,27.6,71.4z"/>
			</g>
			<path fill="#154270" d="M32.2,103.5c-0.1-0.4,0,6.4-6.9,6.4c-6.8,0-6.7-6.7-6.9-6.4c-0.8,2-14.6,3.4-15.5,6.3
				c-1.4,4.6-3.6,14.8,0.4,17.2c4.7,2.7,39.3,2.7,44,0c4-2.3,1.8-12.6,0.4-17.2C46.8,106.9,32.9,105.5,32.2,103.5z"/>
		</g>
	</g>
	<g>
		<path fill="#518E40" d="M80.6,42.4c-1.6-2.3-5.9-8.5-15.4-8.5s-14,5.4-15.4,8.6C48,45.5,44.7,54,51,56.8c5.6,2.5,22.8,2.6,29.4,0
			C86.5,54.3,82.2,44.7,80.6,42.4z"/>
		<path fill="#C9AD39" d="M74.5,32.9c0.1-3.9,2.2-8.8-0.2-12.4c-1.8-2.7-9.8-4.5-11.1-1.7c-2.8,0-6.5,1.4-7.6,3.1
			c-2.4,3.6-0.3,8.7-0.2,12.6c0,3.6-2.8,4.6-2.8,4.6s9-1.4,8.8-7.2c-0.1-2.8,2.6-4.6,4.3-7.1c1.3,1.3,2.6,2.6,2.5,4.6
			c-0.3,5.8,9.2,8.6,9.2,8.6S74.4,36.4,74.5,32.9z"/>
		<g>
			<g>
				<path fill="#E3C95A" d="M64.8,10.8c0.3,4.9-9.8,9.6-9.6,13.7c0.3,5.8-4.7,4.4-4.7,4.4s2.8-1,2.8-4.6c-0.1-3.9-2.2-9,0.2-12.6
					C55.5,8.9,64.5,7,64.8,10.8z"/>
			</g>
			<g>
				<path fill="#E3C95A" d="M64.7,10.8c-0.3,4.9,9.8,9.6,9.6,13.7c-0.3,5.8,4.7,4.4,4.7,4.4s-2.8-1.2-2.8-4.8
					c0.1-3.9,2.2-8.8-0.2-12.4C74,8.9,64.9,7,64.7,10.8z"/>
			</g>
		</g>
		<path fill="#EFD3AC" d="M75.5,21.2c0-2.2-0.2-5.8-1.3-7.5c-1.8-2.7-5.1-4.6-9.5-4.6c-4.5,0-8.4,1.3-10,4.7c-0.9,2-0.4,5.5-0.4,7.5
			c0.2,5.9,2.4,7.7,5.1,10.2c0.1,0.1,0.2,0.2,0.2,0.2c-0.1,1.7-0.5,3.2-1.2,4.1c-1.4,1.5,1.1,8.7,6.2,8.5c6-0.1,7.4-7.3,6.3-8.5
			c-0.8-0.9-1.2-2.3-1.5-4C72.3,29.5,75.4,27.2,75.5,21.2z"/>
		<path fill="#E3C95A" d="M77.5,5.7C74.8,2,62.6-1,59.2,2.6c-2.9,0.5-6,1.6-7,3c-3.1,3.8-3.4,5.6-3.3,9.9c0,4,4.4,8,6.9,10.4
			c0.4,0.4-6.9-9.3-0.8-10c5.3-0.6,8.2-2.3,9.6-4.7c3.9,0.6,8.4,0.5,10.1,4.8c2.2,5.6-1.1,11.1-0.7,10.7c2.6-2.4,6.7-7.2,6.8-11.1
			C80.9,11.3,80.5,9.7,77.5,5.7z"/>
	</g>
	<g>
		
			<line fill="none" stroke="#231F20" stroke-width="2" stroke-linecap="round" stroke-linejoin="round" stroke-miterlimit="10" x1="65.4" y1="63" x2="65.4" y2="73.8"/>
		<g>
			
				<line fill="none" stroke="#231F20" stroke-width="2" stroke-linecap="round" stroke-linejoin="round" stroke-miterlimit="10" x1="65.4" y1="73.8" x2="83.6" y2="87"/>
			
				<line fill="none" stroke="#231F20" stroke-width="2" stroke-linecap="round" stroke-linejoin="round" stroke-miterlimit="10" x1="65.5" y1="73.8" x2="47.3" y2="87"/>
		</g>
	</g>
</g>
</svg>
