<?xml version="1.0" encoding="utf-8"?>
<!-- Generator: Adobe Illustrator 18.1.1, SVG Export Plug-In . SVG Version: 6.00 Build 0)  -->
<svg version="1.0" id="Layer_1" xmlns="http://www.w3.org/2000/svg" xmlns:xlink="http://www.w3.org/1999/xlink" x="0px" y="0px"
	 viewBox="0 0 130 130" enable-background="new 0 0 130 130" xml:space="preserve">
<g>
	<path fill="#B28052" d="M5.7,16.8h0.5C0.9,11.2,4.3,3.7,9.8,1.1H5.7c-2.8,0-5,2.2-5,5v5.8C0.7,14.6,3,16.8,5.7,16.8z"/>
	<g>
		<g>
			<g>
				<path fill="#EAF5F4" d="M14.3,7c3.5,30.6,25.2,61.4,51.4,61.4S113.6,37.6,117.2,7H14.3z"/>
				<path fill="#EAF5F4" d="M116.9,121c-4.2-29.9-25.5-59.4-51.2-59.4s-47,29.5-51.2,59.4H116.9z"/>
				<path fill="#F9CA62" d="M109.9,118.4C102.1,99.3,85.2,86,65.7,86c-19.5,0-36.4,13.2-44.2,32.3H109.9z"/>
				<path fill="#F9CA62" d="M35.2,49.4c7.1,10.4,18.2,17,30.5,17s23.4-6.7,30.5-17H35.2z"/>
			</g>
			<circle fill="#FFFFFF" cx="100.3" cy="17.5" r="10.4"/>
			<path fill="#FFFFFF" d="M87.2,70.4c-0.4,1.5-0.6,3.1-0.6,4.8c0,10.1,8.2,18.3,18.3,18.3c0.4,0,0.7,0,1.1,0
				C101.5,83.8,95,75.5,87.2,70.4z"/>
			<g>
				<path fill="#B28052" d="M123.7,16.8H5.7c-2.8,0-5-2.2-5-5V6.1c0-2.8,2.2-5,5-5h118c2.8,0,5,2.2,5,5v5.8
					C128.7,14.6,126.5,16.8,123.7,16.8z"/>
				<path fill="#B28052" d="M123.7,129H5.7c-2.8,0-5-2.2-5-5v-5.8c0-2.8,2.2-5,5-5h118c2.8,0,5,2.2,5,5v5.8
					C128.7,126.8,126.5,129,123.7,129z"/>
			</g>
		</g>
		<path opacity="0.3" fill="#FFFFFF" d="M20.7,3c20.6,20.3,41.2,40.8,61.7,61.2c15.8-8.2,28.2-27.1,33-47.4h8.3c2.8,0,5-2.2,5-5V6.1
			c0-2.8-2.3-5-5-5H18C19,1.5,19.8,2.1,20.7,3z"/>
		<path opacity="5.000000e-02" d="M20.9,31.3C27.4,46.4,38.1,59.2,50.8,65C34.2,72.7,21.1,92.2,16,113.3H5.7c-2.8,0-5,2.2-5,5v5.8
			c0,2.8,2.2,5,5,5h113.4C86.4,96.4,53.7,63.8,20.9,31.3z"/>
	</g>
</g>
</svg>
