<?xml version="1.0" encoding="iso-8859-1"?>
<!-- Generator: Adobe Illustrator 18.0.0, SVG Export Plug-In . SVG Version: 6.00 Build 0)  -->
<!DOCTYPE svg PUBLIC "-//W3C//DTD SVG 1.1//EN" "http://www.w3.org/Graphics/SVG/1.1/DTD/svg11.dtd">
<svg version="1.1" id="Layer_1" xmlns="http://www.w3.org/2000/svg" xmlns:xlink="http://www.w3.org/1999/xlink" x="0px" y="0px"
	 viewBox="0 0 103.328 128" style="enable-background:new 0 0 103.328 128;" xml:space="preserve">
<g>
	<g>
		<g>
			<path d="M65.091,13.428C65.091,6.024,59.068,0,51.664,0S38.237,6.024,38.237,13.428c0,5.471,3.29,10.184,7.995,12.275
				c-0.1-0.418-0.159-0.853-0.159-1.302c0-1.869,0.92-3.519,2.328-4.534c-2.348-1.195-3.963-3.629-3.963-6.439
				c0-3.985,3.242-7.227,7.227-7.227s7.227,3.242,7.227,7.227c0,2.81-1.615,5.244-3.963,6.439c1.408,1.015,2.328,2.665,2.328,4.534
				c0,0.449-0.059,0.883-0.159,1.302C61.801,23.612,65.091,18.898,65.091,13.428z"/>
		</g>
		<circle cx="51.664" cy="24.626" r="4.994"/>
		<g>
			<path style="fill:#FFFFFF;" d="M51.664,121.801c-25.069,0-45.464-20.395-45.464-45.464s20.395-45.464,45.464-45.464
				s45.464,20.395,45.464,45.464S76.733,121.801,51.664,121.801z"/>
			<path d="M51.664,37.071c21.651,0,39.265,17.614,39.265,39.265s-17.614,39.265-39.265,39.265
				c-21.651,0-39.265-17.614-39.265-39.265S30.013,37.071,51.664,37.071 M51.664,24.672C23.131,24.672,0,47.803,0,76.336
				C0,104.869,23.131,128,51.664,128c28.533,0,51.664-23.131,51.664-51.664C103.328,47.803,80.197,24.672,51.664,24.672
				L51.664,24.672z"/>
		</g>
		<path d="M71.3,56.7c0,0-23.147,6.905-27.757,11.515c-3.512,3.512-11.515,27.757-11.515,27.757s23.234-6.992,27.757-11.515
			C64.308,79.934,71.3,56.7,71.3,56.7z M48.376,79.624c-1.816-1.816-1.816-4.76,0-6.576c1.816-1.816,4.76-1.816,6.576,0
			c1.816,1.816,1.816,4.76,0,6.576C53.136,81.44,50.192,81.44,48.376,79.624z"/>
		<g style="opacity:0.05;">
			<path d="M65.091,13.428C65.091,6.024,59.068,0,51.664,0S38.237,6.024,38.237,13.428c0,5.471,3.29,10.184,7.995,12.275
				c-0.1-0.418-0.159-0.853-0.159-1.302c0-1.869,0.92-3.519,2.328-4.534c-2.348-1.195-3.963-3.629-3.963-6.439
				c0-3.985,3.242-7.227,7.227-7.227s7.227,3.242,7.227,7.227c0,2.81-1.615,5.244-3.963,6.439c1.408,1.015,2.328,2.665,2.328,4.534
				c0,0.449-0.059,0.883-0.159,1.302C61.801,23.612,65.091,18.898,65.091,13.428z"/>
		</g>
		<circle style="opacity:0.05;" cx="51.664" cy="24.626" r="4.994"/>
		<path style="fill:#DA2E27;" d="M71.3,56.7c0,0-23.147,6.905-27.757,11.515c-3.512,3.512-11.515,27.757-11.515,27.757
			s23.234-6.992,27.757-11.515C64.308,79.934,71.3,56.7,71.3,56.7z M48.376,79.624c-1.816-1.816-1.816-4.76,0-6.576
			c1.816-1.816,4.76-1.816,6.576,0c1.816,1.816,1.816,4.76,0,6.576C53.136,81.44,50.192,81.44,48.376,79.624z"/>
	</g>
	<path style="opacity:0.05;" d="M5.86,52.448C2.124,59.592,0,67.713,0,76.336C0,104.869,23.131,128,51.664,128
		c8.671,0,16.836-2.146,24.011-5.921C52.363,98.909,28.998,75.791,5.86,52.448z"/>
	<path style="opacity:0.2;fill:#FFFFFF;" d="M45.066,25.106c-8.579,1.094-16.496,4.297-23.227,9.063
		c23.879,24.107,48.006,47.967,72.07,71.889c5.926-8.408,9.418-18.654,9.418-29.722c0-26.296-19.651-47.988-45.066-51.23
		c4.071-2.309,6.83-6.673,6.83-11.678C65.091,6.024,59.068,0,51.664,0S38.237,6.024,38.237,13.428
		C38.237,18.433,40.995,22.797,45.066,25.106z M51.664,6.201c3.985,0,7.227,3.242,7.227,7.227c0,2.81-1.615,5.244-3.963,6.439
		c1.408,1.015,2.328,2.665,2.328,4.534c0,0.194-0.016,0.384-0.036,0.573c-0.192-0.02-0.384-0.039-0.576-0.058
		c0.006-0.097,0.015-0.192,0.015-0.29c0-2.758-2.236-4.994-4.994-4.994c-2.758,0-4.994,2.236-4.994,4.994
		c0,0.098,0.009,0.194,0.015,0.29c-0.192,0.018-0.384,0.037-0.576,0.058c-0.02-0.189-0.036-0.379-0.036-0.573
		c0-1.869,0.92-3.519,2.328-4.534c-2.348-1.195-3.963-3.629-3.963-6.439C44.437,9.443,47.679,6.201,51.664,6.201z"/>
</g>
</svg>
