<?xml version="1.0" encoding="iso-8859-1"?>
<!-- Generator: Adobe Illustrator 18.0.0, SVG Export Plug-In . SVG Version: 6.00 Build 0)  -->
<!DOCTYPE svg PUBLIC "-//W3C//DTD SVG 1.1//EN" "http://www.w3.org/Graphics/SVG/1.1/DTD/svg11.dtd">
<svg version="1.1" id="Layer_1" xmlns="http://www.w3.org/2000/svg" xmlns:xlink="http://www.w3.org/1999/xlink" x="0px" y="0px"
	 viewBox="0 0 128 93.987" style="enable-background:new 0 0 128 93.987;" xml:space="preserve">
<g>
	<g>
		<g>
			<g>
				<rect x="22.461" y="55.472" style="fill:#FFFFFF;" width="4.004" height="6.901"/>
			</g>
		</g>
		<g>
			<g>
				<g>
					<polygon style="fill:#FFFFFF;" points="67.373,47.909 60.627,47.909 62.435,0 65.565,0 					"/>
				</g>
			</g>
			<g>
				<g>
					<polygon style="fill:#FFFFFF;" points="125.998,53.488 64,62.373 2.002,53.488 2.002,51.534 64,57.457 125.998,51.534 					"/>
					<path style="fill:#FFFFFF;" d="M64,64.396l-0.284-0.042L0,55.224v-5.893l64,6.116l64-6.116v5.893L64,64.396z M45.545,57.705
						L64,60.35l18.455-2.645L64,59.469L45.545,57.705z"/>
				</g>
			</g>
			<g>
				<g>
					<polygon style="fill:#FFFFFF;" points="118.099,39.429 64,47.182 9.901,39.429 9.901,37.724 64,42.893 118.099,37.724 					"/>
					<path style="fill:#FFFFFF;" d="M64,47.856l-0.094-0.013L9.233,40.008V36.99l54.83,5.238l54.704-5.238v3.017L64,47.856z
						 M10.568,38.85L64,46.508l53.432-7.657v-0.392l-53.369,5.1l-53.495-5.1V38.85z"/>
				</g>
			</g>
			<g>
				<g>
					<ellipse style="fill:#FFFFFF;" cx="64" cy="61.846" rx="25.359" ry="32.141"/>
				</g>
			</g>
			<g>
				<g>
					<path style="fill:#74B8BB;" d="M80.889,47.314c0,3.722-7.562,1.615-16.889,1.615s-16.889,2.107-16.889-1.615
						c0-3.722,7.562-11.865,16.889-11.865S80.889,43.591,80.889,47.314z"/>
				</g>
			</g>
			<g>
				<g>
					<g>
						<g>
							<path style="fill:#74B8BB;" d="M24.497,77.331c-3.912,0-7.094-3.182-7.094-7.094s3.182-7.094,7.094-7.094
								s7.094,3.182,7.094,7.094S28.409,77.331,24.497,77.331z"/>
						</g>
					</g>
					<g>
						<g>
							<path style="fill:#FFFFFF;" d="M24.497,65.673c2.517,0,4.564,2.048,4.564,4.564c0,2.517-2.048,4.564-4.564,4.564
								s-4.564-2.048-4.564-4.564C19.932,67.72,21.98,65.673,24.497,65.673 M24.497,60.613c-5.315,0-9.624,4.309-9.624,9.624
								c0,5.315,4.309,9.624,9.624,9.624c5.315,0,9.624-4.309,9.624-9.624C34.121,64.922,29.812,60.613,24.497,60.613L24.497,60.613
								z"/>
						</g>
					</g>
				</g>
				<g>
					<g>
						<g>
							<path style="fill:#74B8BB;" d="M103.503,77.331c-3.912,0-7.094-3.182-7.094-7.094s3.182-7.094,7.094-7.094
								s7.094,3.182,7.094,7.094S107.415,77.331,103.503,77.331z"/>
						</g>
					</g>
					<g>
						<g>
							<path style="fill:#FFFFFF;" d="M103.503,65.673c2.517,0,4.564,2.048,4.564,4.564c0,2.517-2.048,4.564-4.564,4.564
								c-2.517,0-4.564-2.048-4.564-4.564C98.939,67.72,100.986,65.673,103.503,65.673 M103.503,60.613
								c-5.315,0-9.624,4.309-9.624,9.624c0,5.315,4.309,9.624,9.624,9.624c5.315,0,9.624-4.309,9.624-9.624
								C113.127,64.922,108.818,60.613,103.503,60.613L103.503,60.613z"/>
						</g>
					</g>
				</g>
			</g>
		</g>
		<g>
			<g>
				<rect x="101.468" y="54.906" style="fill:#FFFFFF;" width="4.004" height="6.901"/>
			</g>
		</g>
	</g>
	<path style="opacity:0.1;" d="M36.181,52.788L0,49.331v5.893l22.461,3.219v2.391c-4.337,0.935-7.588,4.788-7.588,9.404
		c0,5.315,4.309,9.624,9.624,9.624c5.315,0,9.624-4.309,9.624-9.624c0-4.64-3.285-8.512-7.655-9.421v-1.8l12.197,1.748
		c-0.009,0.36-0.022,0.719-0.022,1.082c0,17.751,11.354,32.141,25.359,32.141c3.745,0,7.296-1.037,10.496-2.884
		C61.724,78.331,48.953,65.56,36.181,52.788z"/>
	<path style="opacity:0.5;fill:#FFFFFF;" d="M88.404,53.115c-0.662-2.977-1.651-5.778-2.92-8.338l33.283-4.769V36.99l-35.866,3.434
		c-4.081-5.781-9.786-9.679-16.208-10.538L65.565,0h-3.129l-1.128,29.887c-2.7,0.361-5.261,1.287-7.641,2.637l35.254,35.254
		c0.283-1.923,0.438-3.904,0.438-5.932c0-0.363-0.012-0.721-0.022-1.081l12.13-1.738v1.807c-4.336,0.935-7.588,4.788-7.588,9.404
		c0,1.038,0.169,2.035,0.473,2.971l6.18,6.18c0.936,0.304,1.934,0.473,2.972,0.473c5.315,0,9.624-4.309,9.624-9.624
		c0-4.64-3.285-8.512-7.656-9.421v-2.364L128,55.224v-5.893L88.404,53.115z"/>
</g>
</svg>
