<svg id="Layer_1" data-name="Layer 1" xmlns="http://www.w3.org/2000/svg" xmlns:xlink="http://www.w3.org/1999/xlink" viewBox="0 0 100 80"><defs><style>.cls-1,.cls-2{fill:none;}.cls-2{clip-rule:evenodd;}.cls-3{clip-path:url(#clip-path);}.cls-4{clip-path:url(#clip-path-2);}.cls-5{fill:#6a6d75;}.cls-6{clip-path:url(#clip-path-3);}.cls-7{fill:#6a6e75;}</style><clipPath id="clip-path" transform="translate(-25 -35)"><circle class="cls-1" cx="47.5" cy="57.5" r="10.5"/></clipPath><clipPath id="clip-path-2" transform="translate(-25 -35)"><rect class="cls-1" x="-150" y="-759" width="1366" height="1152"/></clipPath><clipPath id="clip-path-3" transform="translate(-25 -35)"><polygon class="cls-2" points="37 92 54 75 63 83 90 56 112 78 112 102 37 102 37 92"/></clipPath></defs><title>Placeholder_Image</title><g class="cls-3"><g class="cls-4"><rect class="cls-5" x="7" y="7" width="31" height="31"/></g></g><g class="cls-6"><g class="cls-4"><rect class="cls-5" x="7" y="16" width="85" height="56"/></g></g><path class="cls-7" d="M119,41v68H31V41h88m0-6H31a6,6,0,0,0-6,6v68a6,6,0,0,0,6,6h88a6,6,0,0,0,6-6V41a6,6,0,0,0-6-6Z" transform="translate(-25 -35)"/></svg>