<?xml version="1.0" encoding="utf-8"?>
<!-- Generator: Adobe Illustrator 18.1.1, SVG Export Plug-In . SVG Version: 6.00 Build 0)  -->
<svg version="1.1" id="Layer_1" xmlns="http://www.w3.org/2000/svg" xmlns:xlink="http://www.w3.org/1999/xlink" x="0px" y="0px"
	 viewBox="0 0 130 130" enable-background="new 0 0 130 130" xml:space="preserve">
<g>
	<g>
		<g>
			<g>
				<g>
					<g>
						<g>
							<g>
								<g>
									<circle fill="#81C2C9" cx="64.9" cy="65" r="64"/>
									<path fill="#8DCBCE" d="M115.8,103.8C124,93,128.9,79.6,128.9,65c0-35.3-28.7-64-64-64C50.5,1,37.2,5.7,26.6,13.7
										C56.2,43.9,86,73.9,115.8,103.8z"/>
									<path fill="#73B8BC" d="M12.6,28.1C5.2,38.5,0.9,51.2,0.9,65c0,35.3,28.7,64,64,64c13.6,0,26.1-4.2,36.5-11.4
										C71.7,87.9,42.1,58.1,12.6,28.1z"/>
								</g>
							</g>
						</g>
					</g>
				</g>
			</g>
		</g>
	</g>
	<g>
		<path fill="#FFFFFF" d="M107.7,35H73.5c-0.6,0-1.1,0.5-1.1,1.1v2c0,0.6,0.5,1.1,1.1,1.1h34.3c0.6,0,1.1-0.5,1.1-1.1v-2
			C108.8,35.5,108.3,35,107.7,35z"/>
		<path fill="#FFFFFF" d="M107.7,48H73.5c-0.6,0-1.1,0.5-1.1,1.1v2c0,0.6,0.5,1.1,1.1,1.1h34.3c0.6,0,1.1-0.5,1.1-1.1v-2
			C108.8,48.5,108.3,48,107.7,48z"/>
		<path fill="#FFFFFF" d="M107.7,61H73.5c-0.6,0-1.1,0.5-1.1,1.1V64c0,0,0,0,0,0.1c0,0.3,0.1,0.6,0.3,0.8c0.2,0.2,0.5,0.3,0.8,0.3
			h34.3c0.6,0,1.1-0.5,1.1-1.1v-2C108.8,61.5,108.3,61,107.7,61z"/>
		<path fill="#FFFFFF" d="M107.7,74H73.5c-0.6,0-1.1,0.5-1.1,1.1v2c0,0.6,0.5,1.1,1.1,1.1h34.3c0.6,0,1.1-0.5,1.1-1.1v-2
			C108.8,74.5,108.3,74,107.7,74z"/>
		<path fill="#FFFFFF" d="M107.7,87H73.5c-0.6,0-1.1,0.5-1.1,1.1v2c0,0.6,0.5,1.1,1.1,1.1h34.3c0.6,0,1.1-0.5,1.1-1.1v-2
			C108.8,87.5,108.3,87,107.7,87z"/>
		<g>
			<path fill="#B28052" d="M25.4,47c-0.2,0.5-0.3,1-0.3,1.6c0,1.4,0.8,2.6,2,3.3c0,0.1,0,0.2,0,0.2c0,1.4-0.1,3.8,1.2,3.5
				c0.4,6.4,3.8,6.8,5.9,8.4c1.1,0.9-0.1,4.9-0.9,7c-0.6,1.6-7.8,2.7-12.3,4.5h39.5c-4.4-1.7-11.5-3-12.1-4.5
				c-0.8-2.1-0.5-6,0.6-6.9c2.1-1.7,3.9-2.1,4.4-8.6c0.8,0.2,1.1-0.9,1.2-2c0.9-0.7,1.5-1.8,1.5-3c0-0.5-0.1-0.9-0.2-1.3
				c1-0.5,1.7-1.8,1.7-3.4c0-1.3-0.5-2.4-1.2-3c0.3-0.6,0.5-1.4,0.5-2.2c0-1.7-0.8-3-1.9-3.5c-0.9-3.6-2.9-6.6-2.9-6.6
				s0.2,1.3-1.6,2.2c0-0.1-0.1-0.2-0.1-0.3c-1.3-2.1-3.8-3.2-6.3-3.9c-0.5-0.8-1.2-1.3-2-1.3c-0.6,0-1.1,0.3-1.5,0.7
				c-3.1-0.3-5.7-0.1-5.7-0.1s0.7,0.2,1.1,1.1c-0.4,0.4-0.7,1-0.9,1.6c-0.6-0.5-1.4-0.8-2.2-0.8c-1.7,0-3.1,1.3-3.6,3.1
				c-1.3-0.6-1.3-1.6-1.3-1.6s-0.3,1.6-0.5,3.8c-1.5,0.6-2.5,2-2.5,3.6c0,0.9,0.3,1.6,0.8,2.3c-0.9,0.7-1.4,1.8-1.4,3
				C24,45.2,24.6,46.3,25.4,47z"/>
			<path fill="#EACBAE" d="M48.6,71.6c-0.8-2.1-1.2-6.2-0.1-7.1c2.1-1.7,4.6-2.2,5.2-8.2c0.1,0,0.1,0,0.2-0.1c1.4-0.6,3-3.1,2.5-5.1
				c-0.3-1.2-0.8-2-1.4-2.5c-0.1-0.2-0.2-0.3-0.3-0.3c-0.2,0.9-0.4,1.9-0.6,3c0,0.2-1.2,0.2-1.1-0.1c0.3-3.5-1-8.3-1-8.3
				s-13.2-5.9-10.6-3c0.3,0.4-6.2,0.7-8.9-1.3c-2.3-1.6-3.3,2.2-3.5,3.9c-0.3,2.6,0.2,6.4,0.1,8.2c0,0.7-1.4,0.6-1.3,0.5
				c-0.3-1.5-0.5-2.9-0.7-4c0,0.4,0,0.7,0,1.1c-0.1,0-0.3,0.1-0.3,0.3c-0.6,0.5-1.1,1.3-1.4,2.5c-0.5,2,1.1,4.5,2.5,5.1
				c0.1,0,0.2,0.1,0.3,0.1c0.5,6.1,3.1,6.6,5.1,8.2c1.1,0.9,0.7,4.9-0.1,7.1c-0.8,2-12.2,3.5-15.3,6.1c5.9,5.6,13.9,9.1,22.7,9.1
				c8.9,0,17-3.6,23-9.3C60.1,75,49.4,73.6,48.6,71.6z"/>
			<g>
				<path fill="#EA6C32" d="M63.4,75.7c-1-3.2-14.3-4.7-15.1-6.9c-0.1-0.1-0.1-0.3-0.1-0.4c0,0,0,0.1-0.1,0.1c0,0.1,0,0.2,0,0.3
					c0,2.7-3.3,4.9-7.4,4.9c-3.9,0-7-2-7.3-4.5c-2,2-13.4,3.2-14.8,6.5C18,77.2,17.3,88.8,17.3,91c0,9.9,48.1,10.1,48.1,0
					C65.4,87.9,64,77.7,63.4,75.7z"/>
			</g>
		</g>
	</g>
</g>
</svg>
