<?xml version="1.0" encoding="utf-8"?>
<!-- Generator: Adobe Illustrator 18.1.1, SVG Export Plug-In . SVG Version: 6.00 Build 0)  -->
<svg version="1.1" id="Layer_1" xmlns="http://www.w3.org/2000/svg" xmlns:xlink="http://www.w3.org/1999/xlink" x="0px" y="0px"
	 viewBox="0 0 130 130" enable-background="new 0 0 130 130" xml:space="preserve">
<g>
	<g>
		<g>
			<g>
				<g>
					<g>
						<g>
							<g>
								<ellipse fill="#81C2C9" cx="65" cy="65" rx="64" ry="63.9"/>
							</g>
						</g>
					</g>
				</g>
			</g>
		</g>
		<g>
			<g>
				<g>
					<g>
						<g>
							<g>
								<ellipse fill="#81C2C9" cx="65" cy="65" rx="64" ry="63.9"/>
							</g>
						</g>
					</g>
				</g>
			</g>
		</g>
		<g>
			<g>
				<g>
					<g>
						<g>
							<g>
								<ellipse fill="#EA6C32" cx="65" cy="65" rx="64" ry="63.9"/>
							</g>
						</g>
					</g>
				</g>
			</g>
		</g>
		<path fill="#F17536" d="M115.9,103.7C124.1,93,129,79.6,129,65c0-35.3-28.7-63.9-64-63.9c-14.4,0-27.6,4.7-38.3,12.7
			C56.3,43.9,86.1,73.8,115.9,103.7z"/>
		<path fill="#E2612B" d="M12.7,28.1C5.4,38.5,1,51.3,1,65c0,35.3,28.7,63.9,64,63.9c13.6,0,26.1-4.2,36.5-11.4
			C71.8,87.8,42.2,58.1,12.7,28.1z"/>
	</g>
	<g>
		<g>
			<path fill="#FFFFFF" d="M113.5,38.9c0-1.1-0.9-2-2-2H21.9c-1.1,0-2,0.9-2,2v71.5c11.6,11.5,27.5,18.6,45.1,18.6
				c19.4,0,36.7-8.6,48.5-22.2V38.9z"/>
			<g>
				<g>
					<rect x="27" y="42.4" fill="#73B8BC" width="79.7" height="21.3"/>
				</g>
			</g>
			<g>
				<circle fill="#73B8BC" cx="35.1" cy="77.5" r="8.1"/>
				<circle fill="#73B8BC" cx="56.2" cy="77.5" r="8.1"/>
				<circle fill="#73B8BC" cx="77.4" cy="77.5" r="8.1"/>
				<circle fill="#73B8BC" cx="98.6" cy="77.5" r="8.1"/>
			</g>
			<g>
				<circle fill="#73B8BC" cx="35.1" cy="96.8" r="8.1"/>
				<circle fill="#73B8BC" cx="56.2" cy="96.8" r="8.1"/>
				<circle fill="#73B8BC" cx="77.4" cy="96.8" r="8.1"/>
				<circle fill="#73B8BC" cx="98.6" cy="96.8" r="8.1"/>
			</g>
			<g>
				<path fill="#73B8BC" d="M35.1,108.1c-4.5,0-8.1,3.6-8.1,8.1c0,0.1,0,0.2,0,0.3c3.6,2.7,7.6,5,11.8,6.9c2.6-1.3,4.4-4,4.4-7.2
					C43.1,111.7,39.5,108.1,35.1,108.1z"/>
				<circle fill="#73B8BC" cx="56.2" cy="116.2" r="8.1"/>
				<circle fill="#73B8BC" cx="77.4" cy="116.2" r="8.1"/>
				<path fill="#73B8BC" d="M98.6,108.1c-4.5,0-8.1,3.6-8.1,8.1c0,2.5,1.1,4.7,2.9,6.2c4.7-2.3,9-5.2,12.9-8.5
					C105.3,110.5,102.2,108.1,98.6,108.1z"/>
			</g>
		</g>
	</g>
	<g>
		<g>
			<path opacity="0.1" fill="#FFFFFF" d="M113.5,100.9v-62c0-1.1-0.9-2-2-2h-62L113.5,100.9z"/>
			<path opacity="5.000000e-02" d="M21.2,37c-0.8,0.3-1.4,1-1.4,1.9v71.5c11.6,11.5,27.5,18.6,45.1,18.6c13.6,0,26.3-4.3,36.7-11.6
				L21.2,37z"/>
			<g>
				<g>
					<polygon opacity="0.1" fill="#FFFFFF" points="76.3,63.7 106.7,63.7 106.7,42.4 55,42.4 					"/>
					<polygon opacity="5.000000e-02" points="27,42.7 27,63.7 48,63.7 					"/>
				</g>
			</g>
			<g>
				<circle opacity="5.000000e-02" cx="35.1" cy="77.5" r="8.1"/>
				<path opacity="5.000000e-02" d="M54,69.7c-3.4,1-5.8,4.1-5.8,7.8c0,4.5,3.6,8.1,8.1,8.1c3.7,0,6.8-2.5,7.8-5.8L54,69.7z"/>
				<path opacity="0.1" fill="#FFFFFF" d="M98.1,85.5c0.2,0,0.3,0,0.5,0c4.5,0,8.1-3.6,8.1-8.1s-3.6-8.1-8.1-8.1
					c-4.5,0-8.1,3.6-8.1,8.1c0,0.2,0,0.3,0,0.5L98.1,85.5z"/>
			</g>
			<g>
				<circle opacity="5.000000e-02" cx="35.1" cy="96.8" r="8.1"/>
				<circle opacity="5.000000e-02" cx="56.2" cy="96.8" r="8.1"/>
				<path opacity="5.000000e-02" d="M73.8,89.6c-2.7,1.3-4.5,4.1-4.5,7.2c0,4.5,3.6,8.1,8.1,8.1c3.2,0,5.9-1.8,7.2-4.5L73.8,89.6z"
					/>
				<path fill="#73B8BC" d="M105.8,93.3c-0.8-1.6-2.1-2.9-3.7-3.7L105.8,93.3z"/>
			</g>
			<g opacity="5.000000e-02">
				<path d="M35.1,108.1c-4.5,0-8.1,3.6-8.1,8.1c0,0.1,0,0.2,0,0.3c3.6,2.7,7.6,5,11.8,6.9c2.6-1.3,4.4-4,4.4-7.2
					C43.1,111.7,39.5,108.1,35.1,108.1z"/>
				<circle cx="56.2" cy="116.2" r="8.1"/>
				<circle cx="77.4" cy="116.2" r="8.1"/>
				<path d="M93.9,109.6c-2,1.5-3.4,3.9-3.4,6.6c0,2.5,1.1,4.7,2.9,6.2c2.9-1.4,5.7-3.1,8.3-4.9L93.9,109.6z"/>
			</g>
		</g>
	</g>
</g>
</svg>
