<?xml version="1.0" encoding="utf-8"?>
<!-- Generator: Adobe Illustrator 18.1.1, SVG Export Plug-In . SVG Version: 6.00 Build 0)  -->
<svg version="1.1" id="Layer_1" xmlns="http://www.w3.org/2000/svg" xmlns:xlink="http://www.w3.org/1999/xlink" x="0px" y="0px"
	 viewBox="0 0 130 130" enable-background="new 0 0 130 130" xml:space="preserve">
<g>
	<g>
		<g>
			<path fill="#F17536" d="M126,129.3H69.3c-1.6,0-3-1.3-3-3V69.6c0-1.7,1.4-3,3-3H126c1.7,0,3,1.3,3,3v56.7
				C129,127.9,127.7,129.3,126,129.3z"/>
			<line fill="none" stroke="#FFFFFF" stroke-width="5" stroke-miterlimit="10" x1="112.3" y1="97.7" x2="83.2" y2="97.7"/>
			<circle fill="#FFFFFF" cx="97.7" cy="89.9" r="3.4"/>
			<circle fill="#FFFFFF" cx="97.7" cy="105.2" r="3.4"/>
		</g>
		<g>
			<path fill="#FCB316" d="M60.7,129.3H4c-1.6,0-3-1.3-3-3V69.6c0-1.7,1.4-3,3-3h56.7c1.7,0,3,1.3,3,3v56.7
				C63.7,127.9,62.4,129.3,60.7,129.3z"/>
			<g>
				<line fill="none" stroke="#FFFFFF" stroke-width="5" stroke-miterlimit="10" x1="42.6" y1="87.7" x2="22.1" y2="108.2"/>
				<line fill="none" stroke="#FFFFFF" stroke-width="5" stroke-miterlimit="10" x1="42.6" y1="108.2" x2="22.1" y2="87.7"/>
			</g>
		</g>
		<g>
			<path fill="#60AB45" d="M60.7,63.4H4c-1.6,0-3-1.4-3-3V3.7c0-1.6,1.4-3,3-3h56.7c1.7,0,3,1.4,3,3v56.7
				C63.7,62.1,62.4,63.4,60.7,63.4z"/>
			<g>
				<line fill="none" stroke="#FFFFFF" stroke-width="5" stroke-miterlimit="10" x1="32.4" y1="17.5" x2="32.4" y2="46.6"/>
				<line fill="none" stroke="#FFFFFF" stroke-width="5" stroke-miterlimit="10" x1="46.9" y1="32.1" x2="17.8" y2="32.1"/>
			</g>
		</g>
		<g>
			<path fill="#9CCB41" d="M126,64H69.3c-1.6,0-3-1.4-3-3V4.3c0-1.7,1.4-3,3-3H126c1.7,0,3,1.4,3,3V61C129,62.7,127.7,64,126,64z"/>
			<line fill="none" stroke="#FFFFFF" stroke-width="5" stroke-miterlimit="10" x1="112.2" y1="32.1" x2="83.1" y2="32.1"/>
		</g>
	</g>
	<g>
		<g>
			<path opacity="0.1" fill="#FFFFFF" d="M129,114.1V69.6c0-1.6-1.3-3-3-3H81.2C97.2,82.4,113.1,98.3,129,114.1z"/>
			<path opacity="5.000000e-02" d="M66.3,79.9v46.4c0,1.7,1.3,3,3,3h46.6C99.4,112.8,82.8,96.3,66.3,79.9z"/>
		</g>
		<g>
			<path opacity="5.000000e-02" d="M52.9,66.6H4c-1.6,0-3,1.4-3,3v56.7c0,1.7,1.4,3,3,3h56.7c1.6,0,3-1.3,3-3V77.4
				C60.1,73.8,56.5,70.2,52.9,66.6z"/>
			<g>
				<line fill="none" stroke="#FFFFFF" stroke-width="5" stroke-miterlimit="10" x1="42.6" y1="87.7" x2="22.1" y2="108.2"/>
				<line fill="none" stroke="#FFFFFF" stroke-width="5" stroke-miterlimit="10" x1="42.6" y1="108.2" x2="22.1" y2="87.7"/>
			</g>
		</g>
		<g>
			<path opacity="0.1" fill="#FFFFFF" d="M63.7,49.1V3.7c0-1.6-1.4-3-3-3H15.4C31.5,16.9,47.6,33,63.7,49.1z"/>
			<path opacity="5.000000e-02" d="M1,14.6v45.9c0,1.6,1.4,3,3,3h45.8C33.5,47.2,17.2,30.9,1,14.6z"/>
		</g>
		<g>
			<path opacity="0.1" fill="#FFFFFF" d="M78.7,64H126c1.7,0,3-1.3,3-3V4.3c0-1.6-1.3-3-3-3H69.3c-1.7,0-3,1.4-3,3v47.4
				C70.4,55.8,74.6,59.9,78.7,64z"/>
			<line fill="none" stroke="#FFFFFF" stroke-width="5" stroke-miterlimit="10" x1="112.2" y1="32.1" x2="83.1" y2="32.1"/>
		</g>
	</g>
</g>
</svg>
