<?xml version="1.0" encoding="utf-8"?>
<!-- Generator: Adobe Illustrator 18.1.1, SVG Export Plug-In . SVG Version: 6.00 Build 0)  -->
<svg version="1.1" id="Layer_1" xmlns="http://www.w3.org/2000/svg" xmlns:xlink="http://www.w3.org/1999/xlink" x="0px" y="0px"
	 viewBox="0 0 130 130" enable-background="new 0 0 130 130" xml:space="preserve">
<g>
	<g>
		<path fill="#FFFFFF" d="M127,129H3c-1.1,0-2-0.9-2-2V3c0-1.1,0.9-2,2-2h124c1.1,0,2,0.9,2,2v124C129,128.1,128.1,129,127,129z"/>
		<g>
			<g>
				<rect x="10.7" y="8.6" fill="#73B8BC" width="109" height="29.1"/>
			</g>
		</g>
		<g>
			<g>
				<g>
					<rect x="10.7" y="45.3" fill="#C1C1C0" width="33.6" height="22.6"/>
				</g>
			</g>
			<g>
				<g>
					<rect x="48.4" y="45.3" fill="#C1C1C0" width="33.6" height="22.6"/>
				</g>
			</g>
			<g>
				<g>
					<rect x="86" y="45.3" fill="#C1C1C0" width="33.6" height="22.6"/>
				</g>
			</g>
		</g>
		<g>
			<g>
				<g>
					<rect x="10.7" y="71.9" fill="#C1C1C0" width="33.6" height="22.6"/>
				</g>
			</g>
			<g>
				<g>
					<rect x="48.4" y="71.9" fill="#C1C1C0" width="33.6" height="22.6"/>
				</g>
			</g>
			<g>
				<g>
					<rect x="86" y="71.9" fill="#C1C1C0" width="33.6" height="22.6"/>
				</g>
			</g>
		</g>
		<g>
			<g>
				<g>
					<rect x="10.7" y="98.4" fill="#C1C1C0" width="33.6" height="22.6"/>
				</g>
			</g>
			<g>
				<g>
					<rect x="48.4" y="98.4" fill="#C1C1C0" width="33.6" height="22.6"/>
				</g>
			</g>
			<g>
				<g>
					<rect x="86" y="98.4" fill="#C1C1C0" width="33.6" height="22.6"/>
				</g>
			</g>
		</g>
	</g>
	<path opacity="5.000000e-02" d="M1,18.4V127c0,1.1,0.9,2,2,2h108.6L1,18.4z"/>
	<path opacity="0.15" fill="#FFFFFF" d="M129,118.1V3c0-1.1-0.9-2-2-2H11.9C50.9,40,90,79.1,129,118.1z"/>
</g>
</svg>
