<?xml version="1.0" encoding="utf-8"?>
<!-- Generator: Adobe Illustrator 18.1.1, SVG Export Plug-In . SVG Version: 6.00 Build 0)  -->
<svg version="1.1" id="Layer_1" xmlns="http://www.w3.org/2000/svg" xmlns:xlink="http://www.w3.org/1999/xlink" x="0px" y="0px"
	 viewBox="0 0 130 130" enable-background="new 0 0 130 130" xml:space="preserve">
<g>
	<g>
		<circle fill="#86B940" cx="65" cy="65" r="64"/>
		<path fill="#9CCA41" d="M115.9,103.8C124.1,93,129,79.6,129,65c0-35.3-28.7-64-64-64C50.6,1,37.4,5.7,26.7,13.7
			C56.3,43.9,86.1,73.9,115.9,103.8z"/>
		<path fill="#81AE41" d="M12.7,28.1C5.4,38.5,1,51.2,1,65c0,35.3,28.7,64,64,64c13.6,0,26.1-4.2,36.5-11.4
			C71.8,87.9,42.2,58.1,12.7,28.1z"/>
	</g>
	<g>
		<g>
			<path fill="#FFEFC6" d="M93.6,97.6H36.4c-1.1,0-2-0.9-2-2V37.3c0-1.1,0.9-2,2-2h57.1c1.1,0,2,0.9,2,2v58.3
				C95.6,96.7,94.7,97.6,93.6,97.6z"/>
			<path fill="#5C2E13" d="M34.4,82.8v10v1.6v10c0,0.3,0.2,0.5,0.5,0.5h60.1c0.3,0,0.5-0.2,0.5-0.5v-10v-1.6v-10H34.4z"/>
		</g>
		<path fill="#5C2E13" d="M79.6,40.3L79.6,40.3v-5.7c0-8.1-6.5-14.7-14.6-14.7c-8,0-14.6,6.6-14.6,14.7v5.7v0.1
			c-0.8,0.6-1.3,1.5-1.3,2.5c0,1.7,1.4,3.1,3.1,3.1c1.7,0,3.1-1.4,3.1-3.1c0-1-0.5-1.9-1.2-2.5v-0.1v-5.7c0-6.1,4.9-11.1,11-11.1
			s11,5,11,11.1v5.7v0.1c-0.8,0.6-1.2,1.4-1.2,2.5c0,1.7,1.4,3.1,3.1,3.1c1.7,0,3.1-1.4,3.1-3.1C80.9,41.8,80.4,40.9,79.6,40.3z"/>
	</g>
	<path opacity="4.000000e-02" fill="#010101" d="M34.4,50.1v54.3c0,0.3,0.2,0.5,0.5,0.5h54.4C71,86.6,52.7,68.4,34.4,50.1z"/>
	<path opacity="0.2" fill="#FFFFFF" d="M95.6,82.9V37.3c0-1.1-0.9-2-2-2h-14v-0.8c0-8.1-6.5-14.7-14.6-14.7c-8,0-14.6,6.6-14.6,14.7
		v0.8H48C63.9,51.2,79.7,67,95.6,82.9z M54,34.6c0-6.1,4.9-11.1,11-11.1s11,5,11,11.1v0.8H54V34.6z"/>
</g>
</svg>
