<?xml version="1.0" encoding="utf-8"?>
<!-- Generator: Adobe Illustrator 18.1.1, SVG Export Plug-In . SVG Version: 6.00 Build 0)  -->
<svg version="1.1" id="Layer_1" xmlns="http://www.w3.org/2000/svg" xmlns:xlink="http://www.w3.org/1999/xlink" x="0px" y="0px"
	 viewBox="0 0 130 130" enable-background="new 0 0 130 130" xml:space="preserve">
<g>
	<g>
		<g>
			<g>
				<g>
					<g>
						<circle fill="#EA6C32" cx="65" cy="65" r="64"/>
						<path fill="#F17536" d="M115.9,103.8C124.1,93,129,79.6,129,65c0-35.3-28.7-64-64-64C50.6,1,37.4,5.7,26.7,13.7
							C56.3,43.9,86.1,73.9,115.9,103.8z"/>
						<path fill="#E2612B" d="M12.7,28.1C5.4,38.5,1,51.2,1,65c0,35.3,28.7,64,64,64c13.6,0,26.1-4.2,36.5-11.4
							C71.8,87.9,42.2,58.1,12.7,28.1z"/>
					</g>
				</g>
			</g>
		</g>
	</g>
	<g>
		<path fill="#154270" d="M117.6,101.4c-3.7-27-10.4-71.2-11.4-71.2c-16.6-1.3-39.1,67.1-39.1,84.2c0,7.2,0.4,11.7,0.9,14.5
			C88.6,128,106.6,117.3,117.6,101.4z"/>
		<path fill="#F7F7F7" d="M32,23.4c-0.7,0.1-2.2,3.9-3.2,8.5c-1.6,7.6-7.1,76.3-6.4,80.3c0,0,12.3,7.7,22.7,13.6
			c6.3,2,12.9,3.2,19.9,3.2c0,0,0.1,0,0.1,0l0.6-85.2C64,40.3,41.4,22.2,32,23.4z"/>
		<path fill="#EAEAEA" d="M106.8,94.9c-0.1-1-0.1-2-0.2-3c-0.2-3.6-0.5-7.5-0.8-11.5c0-0.6-0.1-1.1-0.1-1.7c-0.2-2.3-0.4-4.6-0.5-7
			c-0.1-1.2-0.2-2.3-0.3-3.5s-0.2-2.3-0.3-3.5c-0.3-4-0.7-7.9-1-11.6c-0.1-1-0.2-2.1-0.3-3.1c0-0.5-0.1-1-0.1-1.5
			c-0.1-1.5-0.3-2.9-0.4-4.2c-0.6-6.2-1.2-10.8-1.5-12.4c-0.1-0.3-0.1-0.6-0.2-0.9c-1-4.2-2.4-7.6-3-7.7c-3.8-0.5-9.8,2.2-15.7,5.8
			c-3.6,2.2-7.2,4.8-10.2,7.2c-4.1,3.3-7.2,6.2-7.8,7.5l0.6,85.2c0,0,0.1,0,0.1,0c1,0,2,0,3-0.1c0.3,0,0.7,0,1-0.1
			c0.6,0,1.3-0.1,1.9-0.1c0.4,0,0.8-0.1,1.3-0.1c0.5-0.1,1-0.1,1.5-0.2c0.5-0.1,1-0.1,1.4-0.2c0.3,0,0.5-0.1,0.8-0.1
			c1.3-0.2,2.5-0.5,3.7-0.8c0.2,0,0.3-0.1,0.5-0.1c0.7-0.2,1.4-0.3,2-0.5c0.2,0,0.3-0.1,0.5-0.1c0.7-0.2,1.4-0.4,2.1-0.6l0,0
			c0.4-0.2,0.9-0.5,1.3-0.8c0.2-0.1,0.3-0.2,0.5-0.3c0.4-0.3,0.9-0.5,1.3-0.8c0.1-0.1,0.3-0.2,0.4-0.3c0.4-0.2,0.8-0.5,1.2-0.7
			c0.1-0.1,0.2-0.1,0.4-0.2c0.4-0.2,0.8-0.5,1.3-0.7c0.2-0.1,0.3-0.2,0.5-0.3c0.4-0.3,0.9-0.5,1.3-0.8c0.2-0.1,0.3-0.2,0.5-0.3
			c0.4-0.2,0.8-0.5,1.1-0.7c0.2-0.1,0.3-0.2,0.4-0.3c0.3-0.2,0.7-0.4,1-0.6c0.2-0.1,0.3-0.2,0.5-0.3c0.4-0.2,0.8-0.5,1.2-0.7
			c0.2-0.1,0.3-0.2,0.5-0.3c0.4-0.2,0.8-0.5,1.1-0.7c0.1-0.1,0.2-0.1,0.3-0.2c0.3-0.2,0.6-0.4,0.9-0.5c0.1-0.1,0.3-0.2,0.4-0.2
			c0.4-0.2,0.7-0.4,1-0.6c0.1-0.1,0.2-0.1,0.3-0.2c0.3-0.2,0.7-0.4,1-0.6c0.1,0,0.1-0.1,0.2-0.1c0.3-0.2,0.5-0.3,0.7-0.5
			c0.1-0.1,0.2-0.1,0.3-0.2c0.2-0.2,0.5-0.3,0.7-0.4c0,0,0.1-0.1,0.1-0.1c0.2-0.2,0.5-0.3,0.7-0.4c0.1,0,0.1-0.1,0.2-0.1
			c0.6-0.4,1.1-0.7,1.3-0.8c0,0,0,0,0,0c0,0,0.1-0.1,0.1-0.1c0.1-0.7,0.1-3.3-0.1-7.2C107.3,102.3,107.1,98.8,106.8,94.9z"/>
		<path fill="#ECF2F7" d="M114.9,105c-2.7-23.1-8.3-63.5-10.3-74c-0.4-2.2-6.2-8.6-7-7.6c-0.4,0.5,8.8,87.9,9.9,88.7
			c0.1,0.1,0.2,0.2,0.3,0.3C110.5,110.1,112.8,107.6,114.9,105z"/>
		<path fill="#A9BEC4" d="M108.2,112.2c-0.1-0.1-0.3-0.1-0.4-0.1c-3.6-0.5-25.4,7.6-39.2,16.9C83.9,128,97.7,121.8,108.2,112.2z"/>
		<g>
			<g>
				<path fill="#F04E3C" d="M70,53.6c-0.4,0-0.8-0.2-1.1-0.6c-0.4-0.6-0.2-1.4,0.4-1.8l22.2-14.1c0.6-0.4,1.4-0.2,1.8,0.4
					c0.4,0.6,0.2,1.4-0.4,1.8L70.7,53.4C70.4,53.5,70.2,53.6,70,53.6z"/>
			</g>
			<g>
				<path fill="#D3D3D3" d="M70,68.1c-0.4,0-0.8-0.2-1.1-0.6c-0.4-0.6-0.2-1.4,0.4-1.8l22.2-14.1c0.6-0.4,1.4-0.2,1.8,0.4
					c0.4,0.6,0.2,1.4-0.4,1.8L70.7,67.9C70.4,68.1,70.2,68.1,70,68.1z"/>
			</g>
			<g>
				<path fill="#D3D3D3" d="M70,82.7c-0.4,0-0.8-0.2-1.1-0.6c-0.4-0.6-0.2-1.4,0.4-1.8l22.2-14.1c0.6-0.4,1.4-0.2,1.8,0.4
					c0.4,0.6,0.2,1.4-0.4,1.8L70.7,82.5C70.4,82.6,70.2,82.7,70,82.7z"/>
			</g>
			<g>
				<path fill="#D3D3D3" d="M70,98.3c-0.4,0-0.8-0.2-1.1-0.6c-0.4-0.6-0.2-1.4,0.4-1.8l24-15.1c0.6-0.4,1.4-0.2,1.8,0.4
					c0.4,0.6,0.2,1.4-0.4,1.8l-24,15.1C70.4,98.2,70.2,98.3,70,98.3z"/>
			</g>
			<g>
				<path fill="#D3D3D3" d="M70,114.9c-0.4,0-0.8-0.2-1.1-0.6c-0.4-0.6-0.2-1.4,0.4-1.8l27.2-17.2c0.6-0.4,1.4-0.2,1.8,0.4
					c0.4,0.6,0.2,1.4-0.4,1.8l-27.2,17.2C70.4,114.8,70.2,114.9,70,114.9z"/>
			</g>
		</g>
		<g>
			<path fill="#154270" d="M23.8,30.2c-0.9,0.1-7.7,44.2-11.4,71.2c11,15.9,29,26.5,49.5,27.5c0.5-2.8,0.9-7.3,0.9-14.5
				C62.8,97.3,40.3,28.9,23.8,30.2z"/>
			<path fill="#F7F7F7" d="M32,23.4c-0.7,0.1-2.2,3.9-3.2,8.5c-1.6,7.6-7.1,76.3-6.4,80.3c0,0,12.3,7.7,22.7,13.6
				c6.3,2,12.9,3.2,19.9,3.2c0,0,0.1,0,0.1,0l0.6-85.2C64,40.3,41.4,22.2,32,23.4z"/>
			<path fill="#ECF2F7" d="M25.3,31c-2,10.4-7.5,50.9-10.3,74c2.1,2.6,4.4,5.1,6.9,7.4c0.1-0.1,0.2-0.2,0.3-0.3
				c1.1-0.8,10.3-88.2,9.9-88.7C31.5,22.4,25.7,28.9,25.3,31z"/>
			<path fill="#A9BEC4" d="M61.3,128.9c-13.8-9.2-35.6-17.3-39.2-16.9c-0.1,0-0.2,0.1-0.4,0.1C32.3,121.8,46.1,128,61.3,128.9z"/>
		</g>
		<g>
			<g>
				<path fill="#484748" d="M60.7,53.6c0.4,0,0.8-0.2,1.1-0.6c0.4-0.6,0.2-1.4-0.4-1.8L39.2,37.2c-0.6-0.4-1.4-0.2-1.8,0.4
					c-0.4,0.6-0.2,1.4,0.4,1.8L60,53.4C60.2,53.5,60.5,53.6,60.7,53.6z"/>
			</g>
			<g>
				<path fill="#D3D3D3" d="M60.7,68.1c0.4,0,0.8-0.2,1.1-0.6c0.4-0.6,0.2-1.4-0.4-1.8L39.2,51.7c-0.6-0.4-1.4-0.2-1.8,0.4
					c-0.4,0.6-0.2,1.4,0.4,1.8L60,67.9C60.2,68.1,60.5,68.1,60.7,68.1z"/>
			</g>
			<g>
				<path fill="#D3D3D3" d="M60.7,82.7c0.4,0,0.8-0.2,1.1-0.6c0.4-0.6,0.2-1.4-0.4-1.8L39.2,66.2c-0.6-0.4-1.4-0.2-1.8,0.4
					c-0.4,0.6-0.2,1.4,0.4,1.8L60,82.5C60.2,82.6,60.5,82.7,60.7,82.7z"/>
			</g>
			<g>
				<path fill="#D3D3D3" d="M60.7,98.3c0.4,0,0.8-0.2,1.1-0.6c0.4-0.6,0.2-1.4-0.4-1.8l-24-15.1c-0.6-0.4-1.4-0.2-1.8,0.4
					c-0.4,0.6-0.2,1.4,0.4,1.8l24,15.1C60.2,98.2,60.5,98.3,60.7,98.3z"/>
			</g>
			<g>
				<path fill="#D3D3D3" d="M60.7,114.9c0.4,0,0.8-0.2,1.1-0.6c0.4-0.6,0.2-1.4-0.4-1.8L34.2,95.3c-0.6-0.4-1.4-0.2-1.8,0.4
					c-0.4,0.6-0.2,1.4,0.4,1.8L60,114.7C60.2,114.8,60.5,114.9,60.7,114.9z"/>
			</g>
		</g>
	</g>
	<path opacity="0.4" fill="#FFFFFF" d="M116.2,103.4c0.5-0.6,1-1.3,1.4-2c-3.7-27-10.4-71.2-11.4-71.2c-0.6,0-1.2,0-1.8,0.1
		c-1.2-2.5-5.8-7.7-6.7-6.9c-3.8-0.3-9.7,2.3-15.5,5.8c-3.6,2.2-7.2,4.8-10.2,7.2c-3.3,2.6-5.9,5-7.1,6.5
		c-3.5-4.3-18.4-16-28.2-18.9C63.2,50.5,89.7,76.9,116.2,103.4z"/>
	<path opacity="4.000000e-02" fill="#010101" d="M22.1,37.9c-2.5,13.8-6.9,43.4-9.7,63.5c0.8,1.2,1.7,2.4,2.7,3.5c0,0,0,0,0,0
		c0.6,0.7,1.2,1.4,1.7,2.1c0.1,0.1,0.1,0.2,0.2,0.2c0.7,0.8,1.4,1.6,2.2,2.3c0.1,0.1,0.2,0.2,0.2,0.2c0.8,0.8,1.5,1.5,2.4,2.3l0,0
		c0,0,0,0,0,0c0.1,0.1,0.1,0.1,0.2,0.2c0,0,0,0,0,0c0.8,0.7,1.6,1.4,2.4,2.1c0.1,0.1,0.3,0.2,0.4,0.4c0.8,0.6,1.6,1.2,2.4,1.8
		c0.1,0.1,0.2,0.2,0.4,0.3c0.9,0.7,1.9,1.3,2.8,1.9c0,0,0.1,0.1,0.1,0.1c0.9,0.6,1.8,1.1,2.7,1.6c0.2,0.1,0.5,0.3,0.7,0.4
		c0.8,0.4,1.6,0.9,2.4,1.3c0.2,0.1,0.4,0.2,0.6,0.3c1,0.5,2,0.9,3,1.4c0.2,0.1,0.4,0.2,0.6,0.3c0.8,0.3,1.6,0.7,2.5,1
		c0.3,0.1,0.7,0.2,1,0.4c0.8,0.3,1.6,0.5,2.4,0.8c0.3,0.1,0.6,0.2,0.9,0.3c0.8,0.2,1.5,0.4,2.3,0.6c0.1,0,0.2,0.1,0.3,0.1
		c0.2,0,0.3,0.1,0.5,0.1c0.3,0.1,0.6,0.1,1,0.2c0.4,0.1,0.8,0.2,1.2,0.3c0.4,0.1,0.7,0.1,1.1,0.2c0,0,0,0,0,0
		c0.3,0.1,0.6,0.1,0.8,0.2c0.3,0,0.5,0.1,0.8,0.1c0.3,0,0.6,0.1,0.9,0.1c0.5,0.1,1.1,0.1,1.6,0.2c0.2,0,0.3,0,0.5,0.1
		c0.2,0,0.3,0,0.5,0c0.7,0.1,1.5,0.1,2.2,0.2c0.1,0,0.2,0,0.3,0c0,0,0,0,0,0c0.1,0,0.3,0,0.4,0c0.1,0,0.1,0,0.2,0c0,0,0,0,0,0
		c1,0,2,0.1,3.1,0.1c0,0,0.1,0,0.1,0c1,0,1.9,0,2.9-0.1c0,0,0.1,0,0.1,0c0,0,0,0,0,0c0.1,0,0.1,0,0.2,0c0.1,0,0.3,0,0.4,0
		c0,0,0,0,0,0c0.1,0,0.2,0,0.3,0c0,0,0,0,0,0c0.6,0,1.3-0.1,1.9-0.1c0.1,0,0.2,0,0.3,0c0.2,0,0.3,0,0.5,0c0.2,0,0.3,0,0.5-0.1
		c0,0,0,0,0,0c0.5-0.1,1-0.1,1.5-0.2c0,0,0,0,0.1,0c0.3,0,0.6-0.1,0.9-0.1c0.2,0,0.3,0,0.5-0.1c0.1,0,0.2,0,0.3,0
		c0.3,0,0.6-0.1,0.9-0.2c0.5-0.1,1-0.2,1.5-0.3c0.1,0,0.2,0,0.3-0.1c0.2,0,0.4-0.1,0.6-0.1c0.3-0.1,0.7-0.1,1-0.2
		c0.2,0,0.4-0.1,0.6-0.1c0,0,0,0,0,0c0.1,0,0.1,0,0.2-0.1c0.8-0.2,1.5-0.4,2.3-0.6c0.3-0.1,0.6-0.2,0.9-0.3c0.8-0.2,1.6-0.5,2.4-0.8
		c0.3-0.1,0.7-0.2,1-0.4c0.8-0.3,1.7-0.6,2.5-1c0.2-0.1,0.4-0.2,0.6-0.2c1-0.4,2-0.9,3-1.4c0.2-0.1,0.4-0.2,0.6-0.3
		c0.8-0.4,1.6-0.8,2.4-1.3c0.2-0.1,0.5-0.3,0.7-0.4c0.9-0.5,1.8-1.1,2.7-1.6c0,0,0.1-0.1,0.1-0.1c0.8-0.5,1.5-1,2.2-1.5
		C75.1,91,48.5,64.5,22.1,37.9z"/>
</g>
</svg>
