<?xml version="1.0" encoding="utf-8"?>
<!-- Generator: Adobe Illustrator 18.1.1, SVG Export Plug-In . SVG Version: 6.00 Build 0)  -->
<svg version="1.1" id="Layer_1" xmlns="http://www.w3.org/2000/svg" xmlns:xlink="http://www.w3.org/1999/xlink" x="0px" y="0px"
	 viewBox="0 0 130 130" enable-background="new 0 0 130 130" xml:space="preserve">
<g>
	<g>
		<g>
			<circle fill="#DCDBDB" cx="65" cy="65" r="64"/>
			<path opacity="0.1" fill="#FFFFFF" d="M115.9,103.8C124.1,93,129,79.6,129,65c0-35.3-28.7-64-64-64C50.6,1,37.4,5.7,26.7,13.7
				C56.3,43.9,86.1,73.9,115.9,103.8z"/>
			<path opacity="3.000000e-02" fill="#010101" d="M12.7,28.1C5.4,38.5,1,51.2,1,65c0,35.3,28.7,64,64,64c13.6,0,26.1-4.2,36.5-11.4
				C71.8,87.9,42.2,58.1,12.7,28.1z"/>
		</g>
	</g>
	<g>
		<g>
			<g>
				<circle fill="#3B98BC" cx="65" cy="108.4" r="15.2"/>
			</g>
			<g>
				<circle fill="#EA6C32" cx="65" cy="21.6" r="15.2"/>
			</g>
		</g>
		<g>
			<g>
				<circle fill="#813090" cx="21.6" cy="65" r="15.2"/>
			</g>
			<g>
				<circle fill="#9CCB41" cx="108.4" cy="65" r="15.2"/>
			</g>
		</g>
		<g>
			<g>
				<circle fill="#010101" cx="34.3" cy="34.3" r="15.2"/>
			</g>
			<g>
				<circle fill="#18B898" cx="95.7" cy="95.7" r="15.2"/>
			</g>
		</g>
		<g>
			<g>
				<circle fill="#F04E3C" cx="95.7" cy="34.3" r="15.2"/>
			</g>
			<g>
				<circle fill="#8DCBCE" cx="34.3" cy="95.7" r="15.2"/>
			</g>
		</g>
	</g>
	<g>
		<path opacity="5.000000e-02" d="M65,92.2c-8.9,0-16.2,7.3-16.2,16.2c0,8.9,7.3,16.2,16.2,16.2c8.9,0,16.2-7.3,16.2-16.2
			C81.2,99.5,73.9,92.2,65,92.2z"/>
		<path opacity="0.2" fill="#FFFFFF" d="M65,37.8c8.9,0,16.2-7.3,16.2-16.2c0-8.9-7.3-16.2-16.2-16.2c-8.9,0-16.2,7.3-16.2,16.2
			C48.8,30.5,56.1,37.8,65,37.8z"/>
		<path opacity="5.000000e-02" d="M37.8,65c0-8.9-7.3-16.2-16.2-16.2c-8.9,0-16.2,7.3-16.2,16.2c0,8.9,7.3,16.2,16.2,16.2
			C30.5,81.2,37.8,73.9,37.8,65z"/>
		<path opacity="0.2" fill="#FFFFFF" d="M108.4,48.8c-8.9,0-16.2,7.3-16.2,16.2c0,8.9,7.3,16.2,16.2,16.2c8.9,0,16.2-7.3,16.2-16.2
			C124.6,56.1,117.3,48.8,108.4,48.8z"/>
		<path opacity="5.000000e-02" d="M18.1,34.2C18.1,34.2,18.1,34.3,18.1,34.2c0,4.4,1.7,8.5,4.7,11.5s7.1,4.7,11.4,4.7c0,0,0,0,0.1,0
			C29,45.1,23.5,39.6,18.1,34.2z"/>
		<path opacity="0.2" fill="#FFFFFF" d="M50.1,37.9c0.3-1.2,0.4-2.4,0.4-3.6c0-4.3-1.7-8.4-4.7-11.4c-3.1-3.1-7.1-4.7-11.4-4.7
			c-1.2,0-2.3,0.1-3.5,0.4C37.2,25,43.7,31.4,50.1,37.9z"/>
		<path opacity="0.2" fill="#FFFFFF" d="M111.5,99.2c0.3-1.1,0.4-2.3,0.4-3.5c0-4.3-1.7-8.4-4.7-11.4c-3.1-3.1-7.1-4.7-11.4-4.7
			c-1.2,0-2.4,0.1-3.6,0.4C98.6,86.3,105,92.8,111.5,99.2z"/>
		<path opacity="5.000000e-02" d="M79.5,95.7C79.5,95.7,79.5,95.7,79.5,95.7c0,4.4,1.7,8.4,4.7,11.5c3.1,3.1,7.1,4.7,11.4,4.7
			c0,0,0.1,0,0.1,0C90.4,106.5,84.9,101.1,79.5,95.7z"/>
		<path opacity="0.2" fill="#FFFFFF" d="M84.3,45.7c3.1,3.1,7.1,4.7,11.4,4.7c4.3,0,8.4-1.7,11.4-4.7s4.7-7.1,4.7-11.4
			s-1.7-8.4-4.7-11.4c-3.1-3.1-7.1-4.7-11.4-4.7c-4.3,0-8.4,1.7-11.4,4.7c-3.1,3.1-4.7,7.1-4.7,11.4S81.2,42.7,84.3,45.7z"/>
		<path opacity="5.000000e-02" d="M45.7,84.3c-3.1-3.1-7.1-4.7-11.4-4.7c-4.3,0-8.4,1.7-11.4,4.7c-3.1,3.1-4.7,7.1-4.7,11.4
			s1.7,8.4,4.7,11.4s7.1,4.7,11.4,4.7c4.3,0,8.4-1.7,11.4-4.7s4.7-7.1,4.7-11.4S48.8,87.3,45.7,84.3z"/>
	</g>
</g>
</svg>
