<?xml version="1.0" encoding="utf-8"?>
<!-- Generator: Adobe Illustrator 18.1.1, SVG Export Plug-In . SVG Version: 6.00 Build 0)  -->
<svg version="1.0" id="Layer_1" xmlns="http://www.w3.org/2000/svg" xmlns:xlink="http://www.w3.org/1999/xlink" x="0px" y="0px"
	 viewBox="0 0 130 130" enable-background="new 0 0 130 130" xml:space="preserve">
<g>
	<g>
		<g>
			<circle fill="#1E1E1E" cx="65" cy="65.5" r="64"/>
			<path opacity="0.1" fill="#FFFFFF" d="M115.9,104.3c8.2-10.8,13.1-24.2,13.1-38.8c0-35.3-28.7-64-64-64
				c-14.4,0-27.6,4.7-38.3,12.7C56.3,44.4,86.1,74.4,115.9,104.3z"/>
			<path opacity="5.000000e-02" fill="#010101" d="M12.7,28.6C5.4,39,1,51.8,1,65.5c0,35.3,28.7,64,64,64c13.6,0,26.1-4.2,36.5-11.4
				C71.8,88.4,42.2,58.6,12.7,28.6z"/>
		</g>
	</g>
	<g>
		<path fill="#FBAE23" d="M102,58.4H28c-2.9,0-5.3,1.9-5.3,4.3l5.3,42.9c0,2.3,2.4,4.3,5.3,4.3h62.5c2.9,0,5.3-1.9,5.3-4.3l6.1-42.9
			C107.2,60.3,104.9,58.4,102,58.4z M41,104.5L41,104.5c-2.1,0.3-4.1-0.9-4.5-2.6l-3.3-27.6c-0.3-1.7,1.1-3.3,3.3-3.6l0,0
			c2.1-0.3,4.1,0.9,4.5,2.6l3.3,27.6C44.6,102.6,43.2,104.3,41,104.5z M52.7,104.6L52.7,104.6c-2.1,0.1-4-1.3-4.1-3l-1.1-27.7
			c-0.1-1.7,1.6-3.2,3.7-3.3l0,0c2.1-0.1,4,1.3,4.1,3l1.1,27.7C56.5,103.1,54.8,104.6,52.7,104.6z M68.9,101.5
			c0,1.7-1.8,3.2-3.9,3.2h0c-2.1,0-3.9-1.4-3.9-3.2V73.7c0-1.7,1.8-3.2,3.9-3.2h0c2.1,0,3.9,1.4,3.9,3.2V101.5z M82.5,73.9
			l-1.1,27.7c-0.1,1.7-2,3.1-4.1,3h0c-2.1-0.1-3.8-1.6-3.7-3.3l1.1-27.7c0.1-1.7,2-3.1,4.1-3h0C81,70.7,82.7,72.2,82.5,73.9z
			 M96.7,74.3l-3.3,27.6c-0.3,1.7-2.3,2.9-4.5,2.6l0,0c-2.1-0.3-3.6-1.9-3.3-3.6L89,73.4c0.3-1.7,2.3-2.9,4.5-2.6l0,0
			C95.5,71,97,72.6,96.7,74.3z"/>
		<g>
			<path fill="#FFFFFF" d="M36.9,56.4L36.9,56.4c-0.8-0.8-0.8-2,0-2.8l26.7-36.1c0.8-0.8,2-0.8,2.8,0l0,0c0.8,0.8,0.8,2,0,2.8
				L39.7,56.4C39,57.2,37.7,57.2,36.9,56.4z"/>
			<path fill="#FFFFFF" d="M93.1,56.4L93.1,56.4c-0.8,0.8-2,0.8-2.8,0L63.6,20.3c-0.8-0.8-0.8-2,0-2.8l0,0c0.8-0.8,2-0.8,2.8,0
				l26.7,36.1C93.8,54.4,93.8,55.6,93.1,56.4z"/>
		</g>
		<path fill="#FEC76E" d="M110,53.5H93.5l0.2,0.2c0.8,0.8,0.8,2,0,2.7L93,57.1c-0.4,0.4-0.8,0.6-1.4,0.6c-0.5,0-1-0.2-1.4-0.6
			l-3.6-3.6H43.3l-3.6,3.6c-0.4,0.4-0.8,0.6-1.4,0.6c-0.5,0-1-0.2-1.4-0.6l-0.7-0.7c-0.4-0.4-0.6-0.8-0.6-1.4s0.2-1,0.6-1.4l0.2-0.2
			H20c-0.8,0-1.5,0.7-1.5,1.5v6.8c0,0.8,0.7,1.5,1.5,1.5H110c0.8,0,1.5-0.7,1.5-1.5V55C111.5,54.1,110.9,53.5,110,53.5z"/>
	</g>
</g>
</svg>
