<?xml version="1.0" encoding="utf-8"?>
<!-- Generator: Adobe Illustrator 18.1.1, SVG Export Plug-In . SVG Version: 6.00 Build 0)  -->
<svg version="1.1" id="Layer_1" xmlns="http://www.w3.org/2000/svg" xmlns:xlink="http://www.w3.org/1999/xlink" x="0px" y="0px"
	 viewBox="6.7 223.3 470.7 63.6" enable-background="new 6.7 223.3 470.7 63.6" xml:space="preserve">
<g id="Communities_Text">
	<path fill="#13B7B7" d="M216.4,274.9c0.8,1.5,1.2,2.9,1.5,4.3c-1.5,0.6-2.9,1.1-4.5,1.3c-1.5,0.2-3.2,0.4-4.9,0.4
		c-2.7,0-5.1-0.4-7.3-1.3s-4-2.1-5.5-3.8c-1.5-1.7-2.7-3.7-3.4-6c-0.8-2.4-1.2-5-1.2-8c0-3,0.4-5.7,1.2-8.1s1.9-4.5,3.4-6.2
		c1.5-1.7,3.3-3,5.5-3.9c2.1-0.9,4.6-1.4,7.2-1.4c2,0,3.7,0.1,5.1,0.4c1.4,0.3,2.7,0.6,3.8,1c0,0.8-0.2,1.5-0.4,2.2
		c-0.2,0.7-0.5,1.4-0.8,2.2c-0.5-0.2-1-0.3-1.5-0.5c-0.5-0.1-1-0.2-1.6-0.4c-0.6-0.1-1.2-0.2-1.9-0.2c-0.7,0-1.5-0.1-2.3-0.1
		c-3.8,0-6.7,1.3-8.8,3.8c-2.1,2.6-3.1,6.3-3.1,11.1c0,2.5,0.3,4.6,0.9,6.4c0.6,1.8,1.4,3.3,2.5,4.5s2.4,2.1,3.9,2.7
		c1.5,0.6,3.2,0.9,5.1,0.9c1.5,0,2.8-0.1,3.9-0.4C214.3,275.7,215.4,275.3,216.4,274.9z"/>
	<path fill="#13B7B7" d="M231.3,281c-2.1,0-3.9-0.4-5.5-1c-1.6-0.7-2.8-1.7-3.9-2.9c-1-1.2-1.8-2.7-2.3-4.4
		c-0.5-1.7-0.8-3.6-0.8-5.5s0.2-3.8,0.8-5.5c0.5-1.7,1.3-3.2,2.3-4.4c1-1.2,2.3-2.2,3.9-3c1.6-0.7,3.4-1.1,5.5-1.1
		c2.1,0,3.9,0.4,5.5,1.1s2.8,1.7,3.9,3c1,1.2,1.8,2.7,2.3,4.4c0.5,1.7,0.8,3.6,0.8,5.5s-0.2,3.8-0.8,5.5c-0.5,1.7-1.3,3.2-2.3,4.4
		c-1,1.2-2.3,2.2-3.9,2.9C235.2,280.6,233.4,281,231.3,281z M231.3,276.9c2.4,0,4.2-0.9,5.3-2.6c1.1-1.8,1.7-4.1,1.7-7.2
		s-0.6-5.5-1.7-7.2c-1.1-1.7-2.9-2.6-5.3-2.6c-2.4,0-4.2,0.9-5.3,2.6c-1.1,1.7-1.7,4.1-1.7,7.2s0.6,5.5,1.7,7.2
		C227.1,276,228.9,276.9,231.3,276.9z"/>
	<path fill="#13B7B7" d="M247.4,253.6c0.4,0,0.8-0.1,1.1-0.1c0.4,0,0.8,0,1.1,0s0.8,0,1.1,0c0.3,0,0.7,0.1,1,0.1
		c0.1,0.5,0.2,1.2,0.3,2c0.1,0.9,0.1,1.6,0.1,2.1c0.3-0.6,0.7-1.2,1.2-1.8c0.5-0.6,1-1.1,1.7-1.5c0.6-0.4,1.4-0.8,2.2-1.1
		c0.9-0.3,1.8-0.4,2.8-0.4c2.1,0,3.7,0.4,4.8,1.3c1.1,0.9,2,2,2.6,3.6c0.3-0.6,0.8-1.2,1.3-1.8c0.5-0.6,1-1.1,1.7-1.6
		c0.6-0.4,1.3-0.8,2.1-1.1c0.8-0.3,1.7-0.4,2.7-0.4c3.1,0,5.3,0.9,6.7,2.6c1.4,1.8,2.1,4.3,2.1,7.7v17c-0.4,0-0.8,0.1-1.3,0.1
		c-0.5,0-0.9,0-1.3,0c-0.4,0-0.8,0-1.3,0s-0.9-0.1-1.3-0.1v-15.5c0-2.4-0.4-4.2-1.1-5.4c-0.7-1.2-1.9-1.8-3.6-1.8
		c-1.8,0-3.2,0.7-4.3,1.9c-1.1,1.3-1.7,3.2-1.7,5.7v15.1c-0.4,0-0.8,0.1-1.3,0.1c-0.5,0-0.9,0-1.3,0c-0.4,0-0.8,0-1.3,0
		s-0.9-0.1-1.3-0.1v-15.9c0-2.3-0.3-4.1-1-5.2s-1.8-1.8-3.3-1.8c-0.9,0-1.7,0.2-2.5,0.6c-0.8,0.4-1.4,0.9-2,1.7
		c-0.6,0.8-1,1.7-1.4,2.9c-0.3,1.2-0.5,2.5-0.5,4v13.6c-0.4,0-0.8,0.1-1.3,0.1c-0.5,0-0.9,0-1.3,0c-0.4,0-0.8,0-1.3,0
		s-0.9-0.1-1.3-0.1L247.4,253.6L247.4,253.6z"/>
	<path fill="#13B7B7" d="M288.8,253.6c0.4,0,0.8-0.1,1.1-0.1c0.4,0,0.8,0,1.1,0c0.4,0,0.8,0,1.1,0c0.3,0,0.7,0.1,1,0.1
		c0.1,0.5,0.2,1.2,0.3,2c0.1,0.9,0.1,1.6,0.1,2.1c0.3-0.6,0.7-1.2,1.2-1.8c0.5-0.6,1-1.1,1.7-1.5c0.6-0.4,1.4-0.8,2.2-1.1
		c0.9-0.3,1.8-0.4,2.8-0.4c2.1,0,3.7,0.4,4.8,1.3c1.1,0.9,2,2,2.6,3.6c0.3-0.6,0.8-1.2,1.3-1.8c0.5-0.6,1-1.1,1.7-1.6
		c0.6-0.4,1.3-0.8,2.1-1.1c0.8-0.3,1.7-0.4,2.7-0.4c3.1,0,5.3,0.9,6.7,2.6c1.4,1.8,2.1,4.3,2.1,7.7v17c-0.4,0-0.8,0.1-1.3,0.1
		c-0.5,0-0.9,0-1.3,0c-0.4,0-0.8,0-1.3,0s-0.9-0.1-1.3-0.1v-15.5c0-2.4-0.4-4.2-1.1-5.4c-0.7-1.2-1.9-1.8-3.6-1.8
		c-1.8,0-3.2,0.7-4.3,1.9c-1.1,1.3-1.7,3.2-1.7,5.7v15.1c-0.4,0-0.8,0.1-1.3,0.1c-0.5,0-0.9,0-1.3,0c-0.4,0-0.8,0-1.3,0
		s-0.9-0.1-1.3-0.1v-15.9c0-2.3-0.3-4.1-1-5.2s-1.8-1.8-3.3-1.8c-0.9,0-1.7,0.2-2.5,0.6c-0.8,0.4-1.4,0.9-2,1.7
		c-0.6,0.8-1,1.7-1.4,2.9s-0.5,2.5-0.5,4v13.6c-0.4,0-0.8,0.1-1.3,0.1c-0.5,0-0.9,0-1.3,0c-0.4,0-0.8,0-1.3,0s-0.9-0.1-1.3-0.1
		L288.8,253.6L288.8,253.6z"/>
	<path fill="#13B7B7" d="M329.9,253.6c0.4,0,0.8-0.1,1.3-0.1c0.5,0,0.9,0,1.2,0c0.4,0,0.8,0,1.3,0c0.5,0,0.9,0.1,1.3,0.1v14.7
		c0,1.7,0.1,3,0.5,4.1c0.3,1.1,0.8,1.9,1.4,2.6c0.6,0.6,1.4,1,2.3,1.3c0.9,0.2,1.9,0.4,3.1,0.4c1.8,0,3.3-0.2,4.5-0.6v-22.5
		c0.4,0,0.8-0.1,1.3-0.1c0.5,0,0.9,0,1.3,0c0.4,0,0.8,0,1.3,0c0.5,0,0.9,0.1,1.3,0.1v25.9c-1.2,0.3-2.7,0.7-4.4,1
		c-1.7,0.3-3.4,0.5-5.2,0.5c-1.7,0-3.3-0.1-4.8-0.4c-1.5-0.3-2.8-0.9-4-1.8s-2-2.2-2.7-3.8c-0.7-1.6-1-3.8-1-6.5L329.9,253.6
		L329.9,253.6z"/>
	<path fill="#13B7B7" d="M357.1,253.6c0.4,0,0.8-0.1,1.1-0.1c0.4,0,0.8,0,1.1,0c0.4,0,0.8,0,1.1,0c0.3,0,0.7,0.1,1,0.1
		c0.1,0.5,0.2,1.2,0.3,2.1c0.1,0.9,0.1,1.6,0.1,2.2c0.3-0.6,0.8-1.2,1.3-1.8c0.5-0.6,1.1-1.1,1.9-1.6c0.7-0.5,1.5-0.9,2.4-1.1
		c0.9-0.3,1.9-0.4,3-0.4c3,0,5.3,0.9,6.8,2.6s2.2,4.4,2.2,7.8v16.9c-0.4,0-0.8,0.1-1.3,0.1c-0.5,0-0.9,0-1.3,0c-0.4,0-0.8,0-1.3,0
		s-0.9-0.1-1.3-0.1v-15.5c0-2.5-0.4-4.3-1.1-5.5c-0.8-1.1-2-1.8-3.7-1.8c-0.9,0-1.9,0.2-2.8,0.5c-0.9,0.3-1.6,0.9-2.3,1.6
		s-1.2,1.7-1.6,2.8c-0.4,1.2-0.6,2.6-0.6,4.2v13.5c-0.4,0-0.8,0.1-1.3,0.1c-0.5,0-0.9,0-1.3,0c-0.4,0-0.8,0-1.3,0
		c-0.5,0-0.9-0.1-1.3-0.1v-26.7H357.1z"/>
	<path fill="#13B7B7" d="M385.7,257.7h-3.4c0-0.3-0.1-0.6-0.1-0.9c0-0.4,0-0.7,0-1.1c0-0.3,0-0.7,0-1c0-0.4,0.1-0.7,0.1-0.9h8.5
		v26.7c-0.4,0-0.8,0.1-1.3,0.1c-0.5,0-0.9,0-1.3,0c-0.3,0-0.8,0-1.2,0c-0.5,0-0.9-0.1-1.3-0.1V257.7z M384.5,247.7
		c0-0.4-0.1-0.9-0.1-1.4c0-0.5,0-0.9,0-1.3c0-0.4,0-0.8,0-1.3c0-0.5,0-0.9,0.1-1.3c0.4,0,0.9-0.1,1.5-0.1c0.5,0,0.9,0,1.4,0
		c0.4,0,0.9,0,1.3,0c0.5,0,1,0.1,1.4,0.1c0,0.4,0.1,0.8,0.1,1.3c0,0.5,0,0.9,0,1.3c0,0.4,0,0.8,0,1.3c0,0.5,0,0.9-0.1,1.4
		c-0.4,0-0.9,0.1-1.4,0.1c-0.5,0-0.9,0-1.3,0c-0.4,0-0.9,0-1.4,0C385.5,247.9,384.9,247.8,384.5,247.7z"/>
	<path fill="#13B7B7" d="M397,257.7h-4.1l-0.2-0.7l9-10h0.4v6.6h6.7c0.1,0.6,0.2,1.2,0.2,2c0,0.4,0,0.8,0,1.1s-0.1,0.7-0.1,1h-6.8
		v12.2c0,1.5,0,2.6,0.2,3.5s0.3,1.5,0.6,2c0.3,0.5,0.7,0.8,1.2,0.9c0.5,0.1,1.1,0.2,1.9,0.2c0.6,0,1.1,0,1.7-0.1
		c0.5-0.1,1-0.2,1.4-0.3c0.2,0.7,0.4,1.4,0.4,2.1c0,0.7,0.1,1.4,0.1,1.9c-0.7,0.2-1.4,0.3-2.2,0.4c-0.8,0.1-1.6,0.1-2.5,0.1
		c-2.5,0-4.5-0.6-5.8-1.8c-1.4-1.2-2.1-3.2-2.1-6L397,257.7L397,257.7z"/>
	<path fill="#13B7B7" d="M413.2,257.7h-3.4c0-0.3-0.1-0.6-0.1-0.9c0-0.4,0-0.7,0-1.1c0-0.3,0-0.7,0-1c0-0.3,0.1-0.7,0.1-0.9h8.5
		v26.7c-0.4,0-0.8,0.1-1.3,0.1c-0.5,0-0.9,0-1.3,0c-0.3,0-0.8,0-1.2,0c-0.5,0-0.9-0.1-1.3-0.1V257.7z M412,247.7
		c0-0.4-0.1-0.9-0.1-1.4c0-0.5,0-0.9,0-1.3c0-0.4,0-0.8,0-1.3c0-0.5,0-0.9,0.1-1.3c0.4,0,0.9-0.1,1.5-0.1c0.5,0,0.9,0,1.4,0
		c0.4,0,0.9,0,1.3,0c0.5,0,1,0.1,1.4,0.1c0,0.4,0.1,0.8,0.1,1.3c0,0.5,0,0.9,0,1.3c0,0.4,0,0.8,0,1.3c0,0.5,0,0.9-0.1,1.4
		c-0.4,0-0.9,0.1-1.4,0.1c-0.5,0-0.9,0-1.3,0c-0.4,0-0.9,0-1.4,0C413,247.9,412.5,247.8,412,247.7z"/>
	<path fill="#13B7B7" d="M427.4,268.3c0,2.9,0.8,5,2.3,6.4c1.4,1.3,3.6,2,6.4,2c2.5,0,4.8-0.4,7-1.3c0.3,0.5,0.5,1.1,0.7,1.9
		c0.2,0.8,0.3,1.5,0.3,2.2c-1.1,0.5-2.4,0.9-3.8,1.1s-2.9,0.4-4.6,0.4c-2.4,0-4.5-0.3-6.3-1c-1.8-0.7-3.2-1.6-4.3-2.8
		c-1.1-1.2-1.9-2.7-2.5-4.4c-0.5-1.7-0.8-3.5-0.8-5.6c0-2,0.2-3.8,0.8-5.6c0.5-1.7,1.3-3.2,2.3-4.5c1-1.3,2.4-2.3,3.9-3
		c1.6-0.8,3.5-1.1,5.6-1.1c1.9,0,3.5,0.3,4.8,0.9c1.4,0.6,2.6,1.5,3.5,2.6c0.9,1.1,1.7,2.4,2.1,3.9c0.5,1.5,0.7,3.1,0.7,4.9
		c0,0.5,0,1,0,1.5c0,0.5,0,1-0.1,1.4L427.4,268.3L427.4,268.3z M440.6,264.4c0-0.9-0.1-1.9-0.4-2.8s-0.7-1.7-1.1-2.3
		c-0.5-0.7-1.1-1.2-1.9-1.6c-0.8-0.4-1.7-0.6-2.8-0.6c-2.1,0-3.8,0.7-4.9,1.9c-1.1,1.3-1.8,3.1-2,5.4
		C427.4,264.4,440.6,264.4,440.6,264.4z"/>
	<path fill="#13B7B7" d="M449,275.5c0.9,0.4,2,0.7,3.1,0.9c1.1,0.2,2.2,0.3,3.4,0.3c0.8,0,1.6-0.1,2.3-0.2c0.7-0.2,1.4-0.4,1.9-0.8
		c0.5-0.3,0.9-0.8,1.3-1.3c0.3-0.5,0.5-1,0.5-1.7c0-0.7-0.1-1.3-0.4-1.7s-0.6-0.9-1-1.1c-0.4-0.3-0.9-0.6-1.5-0.8
		c-0.6-0.2-1.2-0.4-1.9-0.7l-1.8-0.7c-2.2-0.9-3.8-1.8-4.8-2.8c-1-1-1.5-2.5-1.5-4.2c0-2.4,0.9-4.2,2.5-5.6c1.7-1.4,4.2-2.1,7.4-2.1
		c1.4,0,2.7,0.1,4,0.4c1.3,0.3,2.4,0.6,3.4,0.9c0,0.7-0.2,1.4-0.4,2.1c-0.2,0.7-0.4,1.3-0.7,1.9c-0.8-0.3-1.7-0.6-2.8-0.8
		c-1.1-0.2-2.2-0.4-3.4-0.4c-1.3,0-2.4,0.2-3.4,0.7s-1.5,1.2-1.5,2.4c0,0.6,0.1,1.1,0.4,1.5c0.2,0.4,0.6,0.8,1,1
		c0.4,0.3,0.9,0.5,1.4,0.8c0.5,0.2,1.1,0.4,1.8,0.6l2.3,0.8c0.9,0.3,1.6,0.6,2.4,1c0.8,0.4,1.4,0.9,1.9,1.4c0.5,0.6,0.9,1.3,1.3,2.1
		s0.5,1.8,0.5,2.9c0,1.3-0.2,2.5-0.8,3.5c-0.5,1-1.3,1.9-2.2,2.7s-2.1,1.3-3.5,1.8c-1.4,0.4-2.8,0.6-4.5,0.6c-1.7,0-3.1-0.1-4.4-0.3
		c-1.2-0.2-2.4-0.5-3.5-0.9c0-0.7,0.2-1.4,0.4-2.1C448.4,276.9,448.7,276.2,449,275.5z"/>
</g>
<g id="Fonteva_Logo_3_">
	<g>
		<polygon fill="#F7931E" points="148.1,282.9 128.8,249.2 145.8,265.4 184.5,219.3 		"/>
		<path fill="#F7931E" d="M145.3,248.1c3,0,5.5,2.5,5.5,5.5c0,3-2.5,5.5-5.5,5.5c-3,0-5.5-2.5-5.5-5.5
			C139.7,250.6,142.2,248.1,145.3,248.1z"/>
	</g>
	<g>
		<path fill="#444747" d="M16.7,240.8h20.8c0.1,0.4,0.2,0.8,0.2,1.2c0.1,0.4,0.1,0.8,0.1,1.2s0,0.8-0.1,1.3
			c-0.1,0.5-0.1,0.9-0.2,1.2H22.4v11.7H35c0.1,0.4,0.2,0.8,0.2,1.2c0.1,0.4,0.1,0.8,0.1,1.2s0,0.8-0.1,1.2c-0.1,0.4-0.1,0.8-0.2,1.2
			H22.4v18.2c-0.5,0.1-0.9,0.2-1.4,0.2c-0.5,0.1-1,0.1-1.5,0.1c-0.5,0-1,0-1.5-0.1c-0.5-0.1-1-0.1-1.3-0.2
			C16.7,280.4,16.7,240.8,16.7,240.8z"/>
		<path fill="#444747" d="M50.4,251.5c2.2,0,4.1,0.4,5.8,1.2c1.6,0.8,3.1,1.8,4.1,3.2c1.1,1.3,1.9,2.9,2.5,4.7s0.8,3.8,0.8,5.9
			s-0.3,4-0.8,5.9c-0.5,1.8-1.3,3.4-2.5,4.7c-1.1,1.3-2.5,2.4-4.1,3.1s-3.6,1.1-5.8,1.1v-4.3c2.5,0,4.4-0.9,5.6-2.8
			c1.2-1.8,1.8-4.4,1.8-7.7s-0.6-5.8-1.8-7.7c-1.2-1.8-3.1-2.7-5.6-2.8V251.5z M50.4,281.2c-2.2,0-4.1-0.4-5.8-1.1
			c-1.6-0.8-3-1.8-4.1-3.1c-1.1-1.3-1.9-2.9-2.5-4.7c-0.5-1.8-0.8-3.8-0.8-5.9c0-2.1,0.3-4,0.8-5.9c0.5-1.8,1.4-3.4,2.5-4.7
			c1.1-1.3,2.5-2.4,4.1-3.2c1.6-0.8,3.6-1.2,5.8-1.2h0.1v4.5h-0.1c-2.6,0-4.4,0.9-5.6,2.8c-1.2,1.8-1.8,4.4-1.8,7.7s0.6,5.8,1.8,7.7
			c1.2,1.8,3.1,2.8,5.6,2.8h0.1L50.4,281.2L50.4,281.2z"/>
		<path fill="#444747" d="M65.6,252.1c0.4-0.1,0.8-0.2,1.2-0.2c0.4-0.1,0.8-0.1,1.2-0.1s0.8,0,1.1,0.1c0.4,0.1,0.7,0.1,1.1,0.2
			c0.1,0.6,0.2,1.3,0.4,2.2c0.1,0.9,0.2,1.7,0.2,2.4c0.4-0.6,0.8-1.3,1.4-1.9c0.6-0.6,1.2-1.2,1.9-1.7c0.7-0.5,1.6-0.9,2.6-1.2
			c1-0.3,2-0.5,3.2-0.5c3.2,0,5.6,0.9,7.2,2.8c1.5,1.8,2.3,4.6,2.3,8.3v18c-0.4,0.1-0.9,0.2-1.4,0.2c-0.5,0.1-1,0.1-1.4,0.1
			s-0.9,0-1.4-0.1s-1-0.1-1.4-0.2V264c0-2.6-0.4-4.5-1.2-5.8c-0.8-1.2-2.1-1.8-3.9-1.8c-1,0-2,0.2-2.9,0.6c-0.9,0.4-1.7,0.9-2.5,1.7
			c-0.7,0.8-1.3,1.8-1.7,3s-0.6,2.7-0.6,4.4v14.4c-0.4,0.1-0.9,0.2-1.3,0.2c-0.5,0.1-1,0.1-1.4,0.1c-0.4,0-0.9,0-1.4-0.1
			c-0.5-0.1-1-0.1-1.4-0.2L65.6,252.1L65.6,252.1z"/>
		<path fill="#444747" d="M94.3,256.5H90l-0.2-0.8l9.5-10.6h0.5v7h7.2c0.2,0.6,0.2,1.3,0.2,2.1c0,0.4,0,0.8-0.1,1.2
			c-0.1,0.4-0.1,0.7-0.2,1.1h-7.2v12.9c0,1.5,0.1,2.8,0.2,3.7s0.4,1.6,0.7,2.1c0.3,0.5,0.7,0.8,1.3,1c0.5,0.2,1.2,0.3,2,0.3
			c0.6,0,1.2-0.1,1.8-0.2c0.6-0.1,1.1-0.2,1.5-0.3c0.3,0.7,0.4,1.5,0.5,2.2c0.1,0.8,0.1,1.4,0.1,2c-0.7,0.2-1.5,0.3-2.3,0.4
			c-0.8,0.1-1.7,0.2-2.6,0.2c-2.7,0-4.8-0.7-6.2-1.9c-1.5-1.3-2.2-3.4-2.2-6.4L94.3,256.5L94.3,256.5z"/>
		<path fill="#444747" d="M120.3,276.5c0.7,0.1,1.4,0.2,2.1,0.2c2.6,0,5.1-0.5,7.5-1.4c0.3,0.6,0.5,1.2,0.7,2
			c0.2,0.8,0.3,1.6,0.3,2.4c-1.2,0.5-2.6,0.9-4,1.2c-1.4,0.3-3.1,0.4-4.9,0.4c-0.6,0-1.2,0-1.8-0.1V276.5L120.3,276.5z M120.3,251.5
			c0.2,0,0.4,0,0.5,0c1.9,0,3.7,0.3,5.2,1c1.5,0.7,2.7,1.6,3.7,2.8s1.7,2.6,2.2,4.1c0.5,1.6,0.8,3.3,0.8,5.2c0,0.5,0,1.1-0.1,1.6
			c-0.1,0.6-0.1,1.1-0.1,1.5h-12.3v-4.1h7c0-1-0.2-2-0.4-3c-0.3-0.9-0.7-1.7-1.2-2.5c-0.5-0.7-1.2-1.3-2-1.7c-0.8-0.4-1.8-0.6-3-0.6
			c-0.1,0-0.3,0-0.4,0L120.3,251.5L120.3,251.5z M113.2,267.7c0.1,3.1,0.9,5.4,2.4,6.8c1.1,1.1,2.7,1.7,4.6,2v4.6
			c-1.8-0.2-3.4-0.5-4.9-1c-1.8-0.7-3.4-1.7-4.5-3c-1.2-1.3-2.1-2.9-2.6-4.6c-0.6-1.8-0.8-3.7-0.8-5.9c0-2.1,0.3-4.1,0.8-5.9
			c0.5-1.8,1.4-3.4,2.5-4.8c1.1-1.3,2.5-2.4,4.2-3.2c1.5-0.7,3.4-1.1,5.4-1.2v4.3c-2.1,0.1-3.7,0.8-4.8,2c-1.2,1.4-1.9,3.3-2.2,5.7
			h7v4.1L113.2,267.7L113.2,267.7z"/>
		<path fill="#444747" d="M174.9,267.2c-0.6-0.1-1.3-0.2-2.1-0.2c-0.9-0.1-1.6-0.1-2.1-0.1c-0.5,0-0.9,0-1.4,0.1v-4.3
			c0.3,0,0.6,0,0.8,0c1.2,0,2.1,0.1,2.9,0.1c0.8,0.1,1.4,0.1,1.9,0.2v-1.1c0-2.2-0.6-3.7-1.6-4.5c-1-0.7-2.3-1.1-4-1.2v-4.4l0.1-0.1
			c3.5,0.1,6.2,0.9,8.1,2.5c1.9,1.7,2.9,4.3,2.9,8v17.7c-1.3,0.3-2.9,0.6-4.7,0.9c-1.8,0.3-3.7,0.5-5.6,0.5c-0.2,0-0.5,0-0.7,0v-4.4
			c0.2,0,0.4,0,0.6,0c0.9,0,1.7-0.1,2.6-0.2c0.9-0.1,1.7-0.2,2.4-0.4L174.9,267.2L174.9,267.2z M169.2,266.9
			c-1.6,0.2-2.9,0.6-3.8,1.2c-1.2,0.9-1.8,2.1-1.8,3.9c0,1.1,0.2,2,0.6,2.6c0.4,0.6,0.9,1.1,1.5,1.4c0.6,0.3,1.3,0.5,2,0.6
			c0.5,0.1,1,0.1,1.5,0.1v4.4c-1.5-0.1-3-0.2-4.2-0.5c-1.4-0.3-2.7-0.9-3.7-1.6c-1-0.7-1.8-1.7-2.4-2.8c-0.6-1.1-0.8-2.5-0.8-4.1
			c0-1.6,0.3-3,1-4.2c0.7-1.2,1.5-2.2,2.6-3c1.1-0.8,2.4-1.4,3.8-1.8c1.2-0.3,2.4-0.5,3.7-0.6V266.9L169.2,266.9z M169.2,251.6v4.4
			c-0.3,0-0.6,0-0.8,0c-0.6,0-1.2,0-1.7,0.1L169.2,251.6z"/>
	</g>
</g>
</svg>
