<?xml version="1.0" encoding="utf-8"?>
<!-- Generator: Adobe Illustrator 18.1.1, SVG Export Plug-In . SVG Version: 6.00 Build 0)  -->
<svg version="1.1" id="Layer_1" xmlns="http://www.w3.org/2000/svg" xmlns:xlink="http://www.w3.org/1999/xlink" x="0px" y="0px"
	 viewBox="0 0 130 130" enable-background="new 0 0 130 130" xml:space="preserve">
<g>
	<g>
		<circle fill="#3E3E3E" cx="65" cy="65" r="64"/>
		<path fill="#525353" d="M115.9,103.8C124.1,93,129,79.6,129,65c0-35.3-28.7-64-64-64C50.6,1,37.4,5.8,26.7,13.8
			C56.3,43.9,86.1,73.9,115.9,103.8z"/>
		<path fill="#30302F" d="M12.7,28.1C5.4,38.6,1,51.3,1,65c0,35.3,28.7,64,64,64c13.6,0,26.1-4.2,36.5-11.4
			C71.8,87.9,42.2,58.1,12.7,28.1z"/>
	</g>
	<g>
		<g>
			<path fill="#9CCA41" d="M88.1,32.9c-5,0-9.1,4.1-9.1,9.1v85.5c6.5-1.4,12.6-3.9,18.1-7.1V42C97.1,37,93,32.9,88.1,32.9z"/>
			<ellipse fill="#FFFFFF" cx="88.1" cy="55.2" rx="6.7" ry="6.6"/>
		</g>
		<g>
			<path fill="#F15A2B" d="M64.9,32.9c-5,0-9.1,4.1-9.1,9.1v86.4c3,0.4,6,0.7,9.1,0.7c3.1,0,6.1-0.2,9-0.6V42
				C74,37,69.9,32.9,64.9,32.9z"/>
			<ellipse fill="#FFFFFF" cx="64.9" cy="72.3" rx="6.7" ry="6.6"/>
		</g>
		<g>
			<path fill="#74B9BB" d="M41.9,32.9c-5,0-9.1,4.1-9.1,9.1v78.4c5.6,3.2,11.7,5.7,18.1,7.1V42C51,37,46.9,32.9,41.9,32.9z"/>
			<path fill="#FFD66D" d="M120.2,97.4V41.8c0-5-4.1-9.1-9.1-9.1s-9.1,4.1-9.1,9.1v75.4C109.4,112,115.6,105.2,120.2,97.4z"/>
			<path fill="#81318F" d="M18.8,32.8c-5,0-9.1,4.1-9.1,9.1v55.5c4.6,7.8,10.8,14.6,18.1,19.8V41.8C27.9,36.8,23.8,32.8,18.8,32.8z"
				/>
			<ellipse fill="#FFFFFF" cx="41.9" cy="42.3" rx="6.7" ry="6.6"/>
			<ellipse fill="#FFFFFF" cx="18.8" cy="72.3" rx="6.7" ry="6.6"/>
			<ellipse fill="#FFFFFF" cx="111.1" cy="42.3" rx="6.7" ry="6.6"/>
		</g>
	</g>
</g>
</svg>
