<?xml version="1.0" encoding="utf-8"?>
<!-- Generator: Adobe Illustrator 18.1.1, SVG Export Plug-In . SVG Version: 6.00 Build 0)  -->
<svg version="1.1" id="Layer_1" xmlns="http://www.w3.org/2000/svg" xmlns:xlink="http://www.w3.org/1999/xlink" x="0px" y="0px"
	 viewBox="0 0 130 130" enable-background="new 0 0 130 130" xml:space="preserve">
<g>
	<g>
		<polygon fill="#DEDDDD" points="66.9,90.9 83.8,120.6 100.8,90.2 90.5,67.1 		"/>
		<polygon fill="#FFFFFF" points="39.6,63.4 10.2,46.3 40.3,29.2 63.2,39.6 		"/>
	</g>
	<g>
		<path fill="#F04E3C" d="M55.9,102c-1.1,6.8-3.5,13.5-8.4,18.5c-14.5,14.6-44.9,7.6-44.9,7.6s-6.9-30.6,7.6-45.2
			c4.9-4.9,11.6-7.4,18.3-8.5L55.9,102z"/>
		<path fill="#F17536" d="M53.6,99.7c-0.9,5.6-3,11.3-7,15.4c-12.1,12.2-37.4,6.4-37.4,6.4S3.5,96,15.6,83.8
			c4.1-4.1,9.6-6.2,15.2-7.1L53.6,99.7z"/>
		<path fill="#FCB316" d="M51.7,97.8c-0.8,4.7-2.5,9.4-5.8,12.8c-10,10.1-31.1,5.3-31.1,5.3S10,94.7,20,84.5c3.4-3.4,8-5.1,12.7-5.9
			L51.7,97.8z"/>
	</g>
	<g>
		<polygon fill="#DEDDDD" points="30.3,73.3 36.1,65.9 64.4,94.4 57.1,100.3 		"/>
		<polygon fill="#FFFFFF" points="30.3,73.3 36.1,65.9 58.9,88.9 51.6,94.8 		"/>
	</g>
	<g>
		<path fill="#FFFFFF" d="M36.1,65.9C38.4,51.6,43.6,35,55.6,23c25.6-25.8,72-20.8,72-20.8s4.9,46.8-20.6,72.6
			C95,86.8,78.5,92.1,64.4,94.4L36.1,65.9z"/>
		<path opacity="0.1" d="M47.9,32.6c-5.8,9.1-9.2,19.5-11.1,29.2l-2.4-1.4C36.3,51,47.9,32.6,47.9,32.6z"/>
		<path fill="#F04E3C" d="M83.1,6.9c22.2-7.1,44.5-4.7,44.5-4.7s2.4,22.5-4.7,44.9L83.1,6.9z"/>
		<path opacity="0.1" d="M127.6,2.2C130.8,2.3,127.6,2.2,127.6,2.2s4.9,46.8-20.6,72.6C95,86.8,78.5,92.1,64.4,94.4l-5.5-5.5
			c14.2-2.3,30.6-7.6,42.6-19.6C121.9,48.7,128,15.1,127.6,2.2z"/>
	</g>
	<g>
		<g>
			<path fill="#1298BF" d="M84.7,57.6c-3.2,0-6.2-1.3-8.5-3.6c-4.7-4.8-4.7-12.5,0-17.3c2.3-2.3,5.3-3.6,8.5-3.6
				c3.2,0,6.2,1.3,8.5,3.6c4.7,4.8,4.7,12.5,0,17.3C90.9,56.4,87.9,57.6,84.7,57.6z"/>
			<path fill="#EAEAEA" d="M84.7,36.2c2.4,0,4.7,0.9,6.4,2.7c3.6,3.6,3.6,9.4,0,13c-1.7,1.7-4,2.7-6.4,2.7S80,53.7,78.3,52
				c-3.6-3.6-3.6-9.4,0-13C80,37.2,82.3,36.2,84.7,36.2 M84.7,30.2c-3.9,0-7.7,1.5-10.7,4.4c-5.9,5.9-5.9,15.6,0,21.5
				c2.9,3,6.8,4.4,10.7,4.4c3.9,0,7.7-1.5,10.7-4.4c5.9-5.9,5.9-15.6,0-21.5C92.4,31.7,88.5,30.2,84.7,30.2L84.7,30.2z"/>
		</g>
		<path opacity="0.7" fill="#FFFFFF" d="M82.5,31.9c-1.9,1.9-1.9,5,0,6.9s4.9,1.9,6.8,0c1.9-1.9,1.9-5,0-6.9
			C87.4,30,84.4,30,82.5,31.9z"/>
	</g>
</g>
</svg>
