<?xml version="1.0" encoding="utf-8"?>
<!-- Generator: Adobe Illustrator 18.1.1, SVG Export Plug-In . SVG Version: 6.00 Build 0)  -->
<svg version="1.1" id="Layer_1" xmlns="http://www.w3.org/2000/svg" xmlns:xlink="http://www.w3.org/1999/xlink" x="0px" y="0px"
	 viewBox="0 0 130 130" enable-background="new 0 0 130 130" xml:space="preserve">
<g>
	<g>
		<g>
			<g>
				<g>
					<g>
						<circle fill="#EA6C32" cx="65" cy="65.1" r="64"/>
						<path fill="#F17536" d="M115.9,103.8c8.2-10.8,13.1-24.2,13.1-38.8c0-35.3-28.7-64-64-64c-14.4,0-27.6,4.7-38.3,12.7
							C56.3,43.9,86.1,73.9,115.9,103.8z"/>
						<path fill="#E2612B" d="M12.7,28.1C5.4,38.6,1,51.3,1,65.1c0,35.3,28.7,64,64,64c13.6,0,26.1-4.2,36.5-11.4
							C71.8,87.9,42.2,58.1,12.7,28.1z"/>
					</g>
				</g>
			</g>
		</g>
	</g>
	<g>
		<g>
			<g>
				<circle fill="#C1C1C0" cx="65" cy="65.2" r="46.3"/>
				<path fill="#E0E0E0" d="M65,16.7c-26.7,0-48.3,21.6-48.3,48.3s21.6,48.3,48.3,48.3c26.7,0,48.3-21.6,48.3-48.3
					S91.7,16.7,65,16.7z M65,95.5c-16.8,0-30.5-13.6-30.5-30.5c0-16.8,13.6-30.5,30.5-30.5s30.5,13.6,30.5,30.5
					C95.5,81.9,81.8,95.5,65,95.5z"/>
				<g>
					<g>
						<line fill="none" stroke="#FFFFFF" stroke-width="3" x1="91.9" y1="27.3" x2="86.2" y2="35.4"/>
					</g>
					<g>
						<line fill="none" stroke="#FFFFFF" stroke-width="3" x1="43.7" y1="95.4" x2="37.9" y2="103.5"/>
					</g>
				</g>
				<g>
					<g>
						<line fill="none" stroke="#FFFFFF" stroke-width="3" x1="92.2" y1="103.3" x2="86.4" y2="95.2"/>
					</g>
					<g>
						<line fill="none" stroke="#FFFFFF" stroke-width="3" x1="43.5" y1="35.5" x2="37.7" y2="27.5"/>
					</g>
				</g>
				<g>
					<g>
						<line fill="none" stroke="#FFFFFF" stroke-width="3" x1="20.6" y1="80" x2="30" y2="76.9"/>
					</g>
					<g>
						<line fill="none" stroke="#FFFFFF" stroke-width="3" x1="99.9" y1="53.9" x2="109.3" y2="50.8"/>
					</g>
				</g>
				<g>
					<g>
						<line fill="none" stroke="#FFFFFF" stroke-width="3" x1="20.5" y1="51" x2="30" y2="54.1"/>
					</g>
					<g>
						<line fill="none" stroke="#FFFFFF" stroke-width="3" x1="99.9" y1="76.7" x2="109.3" y2="79.7"/>
					</g>
				</g>
				<g>
					<g>
						<line fill="none" stroke="#FFFFFF" stroke-width="3" x1="64.9" y1="18.7" x2="64.9" y2="28.6"/>
					</g>
					<g>
						<line fill="none" stroke="#FFFFFF" stroke-width="3" x1="64.9" y1="102.1" x2="64.9" y2="112.1"/>
					</g>
				</g>
			</g>
			<g>
				<path fill="#CCCCCC" d="M65,80.3c-8.4,0-15.3-6.8-15.3-15.3S56.6,49.8,65,49.8c8.4,0,15.3,6.8,15.3,15.3S73.4,80.3,65,80.3z"/>
				<g>
					<path fill="#FFFFFF" d="M65,50.3c8.1,0,14.8,6.6,14.8,14.8c0,8.1-6.6,14.8-14.8,14.8c-8.1,0-14.8-6.6-14.8-14.8
						C50.2,56.9,56.9,50.3,65,50.3 M65,49.3c-8.7,0-15.8,7.1-15.8,15.8c0,8.7,7.1,15.8,15.8,15.8c8.7,0,15.8-7.1,15.8-15.8
						C80.8,56.4,73.7,49.3,65,49.3L65,49.3z"/>
				</g>
			</g>
			<g>
				<path fill="#DEDDDD" d="M65,79.8c-8.1,0-14.8-6.6-14.8-14.8S56.9,50.3,65,50.3c8.1,0,14.8,6.6,14.8,14.8S73.1,79.8,65,79.8z"/>
				<g>
					<path fill="#FFFFFF" d="M65,51.3c7.6,0,13.8,6.2,13.8,13.8c0,7.6-6.2,13.8-13.8,13.8c-7.6,0-13.8-6.2-13.8-13.8
						C51.2,57.5,57.4,51.3,65,51.3 M65,49.3c-8.7,0-15.8,7.1-15.8,15.8c0,8.7,7.1,15.8,15.8,15.8c8.7,0,15.8-7.1,15.8-15.8
						C80.8,56.4,73.7,49.3,65,49.3L65,49.3z"/>
				</g>
			</g>
		</g>
		<circle fill="#F04E3C" cx="65" cy="41.9" r="3.3"/>
	</g>
	<path opacity="5.000000e-02" d="M23.9,39.6c-4.6,7.4-7.2,16.1-7.2,25.5c0,26.7,21.6,48.3,48.3,48.3c9.3,0,18.1-2.7,25.5-7.2
		L23.9,39.6z"/>
	<path opacity="0.3" fill="#FFFFFF" d="M104.9,92.3c5.3-7.8,8.4-17.1,8.4-27.3c0-26.7-21.6-48.3-48.3-48.3
		c-10.1,0-19.5,3.1-27.3,8.4L104.9,92.3z"/>
</g>
</svg>
