<?xml version="1.0" encoding="utf-8"?>
<!-- Generator: Adobe Illustrator 18.1.1, SVG Export Plug-In . SVG Version: 6.00 Build 0)  -->
<svg version="1.1" id="Layer_1" xmlns="http://www.w3.org/2000/svg" xmlns:xlink="http://www.w3.org/1999/xlink" x="0px" y="0px"
	 viewBox="0 0 130 130" enable-background="new 0 0 130 130" xml:space="preserve">
<g>
	<g>
		<g>
			<g>
				<g>
					<circle fill="#EA6C31" cx="65" cy="65" r="64"/>
					<path fill="#F07537" d="M115.9,103.8C124.1,93,129,79.6,129,65c0-35.3-28.7-64-64-64C50.6,1,37.4,5.7,26.7,13.7
						C56.3,43.9,86.1,73.9,115.9,103.8z"/>
					<path fill="#E26129" d="M12.7,28.1C5.4,38.5,1,51.2,1,65c0,35.3,28.7,64,64,64c13.6,0,26.1-4.2,36.5-11.4
						C71.8,87.9,42.2,58.1,12.7,28.1z"/>
				</g>
			</g>
		</g>
	</g>
	<g>
		<path fill="#EAEAE8" d="M75.3,35.4v-9.7c-6.8-1.7-13.8-1.7-20.6,0l0,9.7c-1.6,0.5-3.2,1.2-4.7,2l-6.9-6.9
			c-2.9,1.8-5.7,3.9-8.2,6.4s-4.6,5.3-6.4,8.2l6.9,6.9c-0.8,1.5-1.4,3.1-2,4.7h-9.7c-1.7,6.8-1.7,13.8,0,20.6h9.7
			c0.5,1.6,1.2,3.2,2,4.7l-6.9,6.9c1.8,2.9,3.9,5.7,6.4,8.2s5.3,4.6,8.2,6.4l6.9-6.9c1.5,0.8,3.1,1.4,4.7,2v9.7
			c6.8,1.7,13.8,1.7,20.6,0l0-9.7c1.6-0.5,3.2-1.2,4.7-2l6.9,6.9c2.9-1.8,5.7-3.9,8.2-6.4c2.5-2.5,4.6-5.3,6.4-8.2L94.6,82
			c0.8-1.5,1.4-3.1,2-4.7h9.7c1.7-6.8,1.7-13.8,0-20.6h-9.7c-0.5-1.6-1.2-3.2-2-4.7l6.9-6.9c-1.8-2.9-3.9-5.7-6.4-8.2
			c-2.5-2.5-5.3-4.6-8.2-6.4L80,37.4C78.5,36.6,76.9,36,75.3,35.4z M75.8,77.8c-6,6-15.7,6-21.7,0c-6-6-6-15.7,0-21.7s15.7-6,21.7,0
			C81.8,62.1,81.8,71.9,75.8,77.8z"/>
		<path fill="#EAEAE8" d="M65.6,82.3c-4.1,0.2-8.3-1.3-11.4-4.5c-3.1-3.1-4.6-7.3-4.5-11.4L35.3,52.1c-0.8,1.5-1.4,3-1.9,4.6l-9.7,0
			c-1.7,6.8-1.7,13.8,0,20.6l9.7,0c0.5,1.6,1.2,3.2,2,4.7l-6.9,6.9c1.8,2.9,3.9,5.7,6.4,8.2c2.5,2.5,5.3,4.6,8.2,6.4l6.9-6.9
			c1.5,0.8,3.1,1.4,4.7,2v9.7c6.8,1.7,13.8,1.7,20.6,0v-9.7c1.6-0.5,3.1-1.1,4.6-1.9L65.6,82.3z"/>
		<path fill="#FFFFFF" d="M101.5,45.1c-1.8-2.9-3.9-5.7-6.4-8.2c-2.5-2.5-5.3-4.6-8.2-6.4L80,37.4c-1.5-0.8-3.1-1.4-4.7-2l0-9.7
			c-6.8-1.7-13.8-1.7-20.6,0l0,9.7c-1.6,0.5-3.2,1.2-4.7,1.9l14.3,14.3c4.1-0.2,8.3,1.3,11.5,4.5c3.2,3.2,4.6,7.4,4.5,11.5L94.6,82
			c0.8-1.5,1.4-3.1,1.9-4.7l9.7,0c1.7-6.8,1.7-13.8,0-20.6h-9.7c-0.5-1.6-1.2-3.2-2-4.7L101.5,45.1z"/>
	</g>
</g>
</svg>
