<?xml version="1.0" encoding="utf-8"?>
<!-- Generator: Adobe Illustrator 18.1.1, SVG Export Plug-In . SVG Version: 6.00 Build 0)  -->
<svg version="1.1" id="Layer_1" xmlns="http://www.w3.org/2000/svg" xmlns:xlink="http://www.w3.org/1999/xlink" x="0px" y="0px"
	 viewBox="0 0 130 130" enable-background="new 0 0 130 130" xml:space="preserve">
<g>
	<g>
		<g>
			<g>
				<g>
					<g>
						<circle fill="#F9CA62" cx="65" cy="65" r="64"/>
						<path fill="#FFD66D" d="M115.9,103.8C124.1,93,129,79.6,129,65c0-35.3-28.7-64-64-64C50.6,1,37.4,5.7,26.7,13.7
							C56.3,43.9,86.1,73.9,115.9,103.8z"/>
						<path fill="#EBB24A" d="M12.7,28.1C5.4,38.5,1,51.2,1,65c0,35.3,28.7,64,64,64c13.6,0,26.1-4.2,36.5-11.4
							C71.8,87.9,42.2,58.1,12.7,28.1z"/>
					</g>
				</g>
			</g>
		</g>
	</g>
	<g>
		<g>
			<path fill="#F07537" d="M47.2,65c0-6,2.9-11.2,7.4-14.5l-4.3-26.9c-17,6-29.2,22.3-29.2,41.4s12.2,35.3,29.2,41.4l4.3-26.9
				C50.2,76.2,47.2,70.9,47.2,65z"/>
			<path fill="#F07537" d="M108.9,65c0-19.1-12.2-35.3-29.2-41.4l-4.3,26.9c4.5,3.2,7.4,8.5,7.4,14.5c0,6-2.9,11.2-7.4,14.5
				l4.3,26.9C96.7,100.3,108.9,84,108.9,65z"/>
			<path fill="#E56328" d="M65,32.6c-17.9,0-32.4,14.5-32.4,32.4S47.1,97.4,65,97.4S97.4,82.9,97.4,65S82.9,32.6,65,32.6z M65,82.8
				c-9.8,0-17.8-8-17.8-17.8s8-17.8,17.8-17.8s17.8,8,17.8,17.8S74.9,82.8,65,82.8z"/>
			<g>
				<g>
					<path fill="#FFFFFF" d="M65,47.8c4.1,0,8,1.3,11.1,3.6l4.6-28.7C75.8,21,70.5,20,65,20c-5.5,0-10.8,1-15.7,2.7L54,51.4
						C57.1,49.1,60.9,47.8,65,47.8z"/>
					<path fill="#FFFFFF" d="M65,82.2c4.1,0,8-1.3,11.1-3.6l4.6,28.7C75.7,109,70.4,110,65,110c-5.5,0-10.8-1-15.7-2.7l4.6-28.7
						C57,80.9,60.8,82.2,65,82.2z"/>
				</g>
				<g>
					<path fill="#FFFFFF" d="M82.2,65c0,4.1-1.3,8-3.6,11.1l28.7,4.6C109,75.8,110,70.5,110,65c0-5.5-1-10.8-2.7-15.7L78.6,54
						C80.9,57.1,82.2,60.9,82.2,65z"/>
					<path fill="#FFFFFF" d="M47.8,65c0,4.1,1.3,8,3.6,11.1l-28.7,4.6C21,75.7,20,70.4,20,65c0-5.5,1-10.8,2.7-15.7l28.7,4.6
						C49.1,57,47.8,60.8,47.8,65z"/>
				</g>
			</g>
		</g>
		<path opacity="1.000000e-02" fill="#010101" d="M65,32.6c-17.9,0-32.4,14.5-32.4,32.4S47.1,97.4,65,97.4S97.4,82.9,97.4,65
			S82.9,32.6,65,32.6z M65,82.8c-9.8,0-17.8-8-17.8-17.8s8-17.8,17.8-17.8s17.8,8,17.8,17.8S74.9,82.8,65,82.8z"/>
	</g>
</g>
</svg>
