<?xml version="1.0" encoding="iso-8859-1"?>
<!-- Generator: Adobe Illustrator 18.0.0, SVG Export Plug-In . SVG Version: 6.00 Build 0)  -->
<!DOCTYPE svg PUBLIC "-//W3C//DTD SVG 1.1//EN" "http://www.w3.org/Graphics/SVG/1.1/DTD/svg11.dtd">
<svg version="1.1" id="Layer_1" xmlns="http://www.w3.org/2000/svg" xmlns:xlink="http://www.w3.org/1999/xlink" x="0px" y="0px"
	 viewBox="0 0 129.013 105.562" style="enable-background:new 0 0 129.013 105.562;" xml:space="preserve">
<g>
	<g>
		<g>
			<rect x="58.375" y="46.223" style="fill:#A0A09F;" width="40.253" height="39.311"/>
		</g>
		<g>
			<rect x="58.375" y="3.664" style="fill:#7A7B7B;" width="40.253" height="39.311"/>
		</g>
		<g>
			<rect x="100.657" y="57.078" style="fill:#7A7B7B;" width="26.811" height="26.183"/>
		</g>
		<g>
			<rect x="100.657" y="28.539" style="fill:#A0A09F;" width="26.811" height="26.183"/>
		</g>
		<g>
			<rect x="100.657" y="0" style="fill:#7A7B7B;" width="26.811" height="26.183"/>
		</g>
		<g>
			<rect x="28.825" y="83.261" width="99.175" height="10.471"/>
		</g>
		<g>
			<polygon style="fill:#DA2E27;" points="54.843,93.732 0,93.732 0,64.865 20.396,29.723 54.843,29.723 			"/>
		</g>
		<g>
			<polygon style="fill:#70BFCD;" points="47.89,62.172 47.89,36.296 22.549,36.296 9.816,62.148 9.816,62.172 			"/>
		</g>
		<g>
			<circle style="fill:#D5D5D5;" cx="115.007" cy="91.557" r="10.005"/>
			<path d="M115.007,105.562c-7.723,0-14.005-6.282-14.005-14.005s6.283-14.006,14.005-14.006s14.005,6.283,14.005,14.006
				S122.73,105.562,115.007,105.562z M115.007,85.551c-3.312,0-6.005,2.694-6.005,6.006s2.694,6.005,6.005,6.005
				s6.005-2.693,6.005-6.005S118.319,85.551,115.007,85.551z"/>
		</g>
		<g>
			<circle style="fill:#D5D5D5;" cx="21.989" cy="91.557" r="10.005"/>
			<path d="M21.989,105.562c-7.723,0-14.005-6.282-14.005-14.005s6.283-14.006,14.005-14.006s14.005,6.283,14.005,14.006
				S29.711,105.562,21.989,105.562z M21.989,85.551c-3.312,0-6.005,2.694-6.005,6.006s2.694,6.005,6.005,6.005
				s6.005-2.693,6.005-6.005S25.3,85.551,21.989,85.551z"/>
		</g>
	</g>
	<g>
		<rect x="58.375" y="3.664" style="opacity:0.2;fill:#FFFFFF;" width="40.253" height="39.311"/>
		<rect x="100.657" y="28.539" style="opacity:0.2;fill:#FFFFFF;" width="26.811" height="26.183"/>
		<rect x="100.657" style="opacity:0.2;fill:#FFFFFF;" width="26.811" height="26.183"/>
		<path style="opacity:0.2;fill:#FFFFFF;" d="M58.477,46.223C78.215,65.9,97.93,85.599,117.638,105.306
			c6.468-1.236,11.374-6.926,11.374-13.749c0-1.839-0.366-3.592-1.013-5.202v-3.094h-0.532V57.078h-26.811v26.184h-2.029V46.223
			H58.477z"/>
		<path style="opacity:0.05;" d="M58.375,74.364v8.898h-3.532V70.836C42.537,58.558,30.219,46.294,17.891,34.038L0,64.865v28.867
			h8.17c1.05,6.691,6.838,11.83,13.819,11.83s12.769-5.139,13.819-11.83h41.961C71.305,87.274,64.841,80.817,58.375,74.364z"/>
		<path style="opacity:0.2;fill:#FFFFFF;" d="M54.843,42.601V29.723H41.92C46.23,34.013,50.535,38.308,54.843,42.601z"/>
	</g>
</g>
</svg>
