<?xml version="1.0" encoding="iso-8859-1"?>
<!-- Generator: Adobe Illustrator 18.0.0, SVG Export Plug-In . SVG Version: 6.00 Build 0)  -->
<!DOCTYPE svg PUBLIC "-//W3C//DTD SVG 1.1//EN" "http://www.w3.org/Graphics/SVG/1.1/DTD/svg11.dtd">
<svg version="1.1" id="Layer_1" xmlns="http://www.w3.org/2000/svg" xmlns:xlink="http://www.w3.org/1999/xlink" x="0px" y="0px"
	 viewBox="0 0 128.829 127.879" style="enable-background:new 0 0 128.829 127.879;" xml:space="preserve">
<g>
	<g>
		<g>
			<g>
				<g>
					<g>
						<g>
							<g>
								<ellipse style="fill:#85B840;" cx="63.788" cy="63.939" rx="64" ry="63.939"/>
							</g>
						</g>
					</g>
				</g>
			</g>
			<g>
				<g>
					<g>
						<g>
							<rect x="20.21" y="65.526" style="fill:#FFFFFF;" width="4.201" height="7.24"/>
						</g>
					</g>
					<g>
						<g>
							<g>
								<polygon style="fill:#FFFFFF;" points="67.326,57.592 60.249,57.592 62.146,7.331 65.429,7.331 								"/>
							</g>
						</g>
						<g>
							<g>
								<polygon style="fill:#FFFFFF;" points="128.829,63.445 63.788,72.766 -1.254,63.445 -1.254,61.395 63.788,67.609 
									128.829,61.395 								"/>
								<path style="fill:#FFFFFF;" d="M0,58.952c-0.127,1.648-0.212,3.307-0.212,4.988c0,0.598,0.029,1.189,0.045,1.783
									l63.642,9.12l0.312,0.046l63.955-9.165c0.016-0.594,0.045-1.185,0.045-1.783c0-1.68-0.085-3.34-0.212-4.988l-63.788,6.095
									L0,58.952z M63.788,70.439l-20.295-2.908l20.295,1.939l20.295-1.939L63.788,70.439z"/>
							</g>
						</g>
						<g>
							<g>
								<polygon style="fill:#FFFFFF;" points="120.542,48.696 63.788,56.83 7.033,48.696 7.033,46.907 63.788,52.33 
									120.542,46.907 								"/>
								<path style="fill:#FFFFFF;" d="M63.788,57.536l-0.099-0.014L6.332,49.303v-3.165l57.522,5.495l57.389-5.495v3.165
									L63.788,57.536z M7.733,48.089l56.055,8.033l56.055-8.033v-0.412l-55.989,5.351L7.733,47.677V48.089z"/>
							</g>
						</g>
						<g>
							<g>
								<ellipse style="fill:#FFFFFF;" cx="63.788" cy="72.213" rx="26.604" ry="33.719"/>
							</g>
						</g>
						<g>
							<g>
								<path style="fill:#74B8BB;" d="M81.506,56.967c0,3.905-7.933,1.694-17.719,1.694s-17.719,2.211-17.719-1.694
									S54.002,44.52,63.788,44.52S81.506,53.062,81.506,56.967z"/>
							</g>
						</g>
						<g>
							<g>
								<g>
									<g>
										<path style="fill:#74B8BB;" d="M22.345,88.459c-4.104,0-7.443-3.339-7.443-7.443s3.339-7.443,7.443-7.443
											s7.443,3.339,7.443,7.443S26.449,88.459,22.345,88.459z"/>
									</g>
								</g>
								<g>
									<g>
										<path style="fill:#FFFFFF;" d="M22.345,76.228c2.64,0,4.788,2.148,4.788,4.788s-2.148,4.788-4.788,4.788
											s-4.788-2.148-4.788-4.788S19.705,76.228,22.345,76.228 M22.345,70.92c-5.576,0-10.096,4.52-10.096,10.096
											c0,5.576,4.52,10.096,10.096,10.096c5.576,0,10.096-4.52,10.096-10.096C32.442,75.44,27.921,70.92,22.345,70.92
											L22.345,70.92z"/>
									</g>
								</g>
							</g>
							<g>
								<g>
									<g>
										<path style="fill:#74B8BB;" d="M105.23,88.459c-4.104,0-7.443-3.339-7.443-7.443s3.339-7.443,7.443-7.443
											c4.104,0,7.443,3.339,7.443,7.443S109.334,88.459,105.23,88.459z"/>
									</g>
								</g>
								<g>
									<g>
										<path style="fill:#FFFFFF;" d="M105.23,76.228c2.64,0,4.788,2.148,4.788,4.788s-2.148,4.788-4.788,4.788
											s-4.788-2.148-4.788-4.788S102.589,76.228,105.23,76.228 M105.23,70.92c-5.576,0-10.096,4.52-10.096,10.096
											c0,5.576,4.52,10.096,10.096,10.096c5.576,0,10.096-4.52,10.096-10.096C115.326,75.44,110.806,70.92,105.23,70.92
											L105.23,70.92z"/>
									</g>
								</g>
							</g>
						</g>
					</g>
					<g>
						<g>
							<rect x="103.094" y="64.932" style="fill:#FFFFFF;" width="4.201" height="7.24"/>
						</g>
					</g>
				</g>
			</g>
		</g>
		<path style="opacity:0.2;fill:#FFFFFF;" d="M115.205,102.666c8.204-10.749,13.084-24.166,13.084-38.726
			c0-35.313-28.654-63.939-64-63.939c-14.372,0-27.638,4.734-38.32,12.725C55.578,42.839,85.356,72.788,115.205,102.666z"/>
		<path style="opacity:0.05;" d="M12.026,27.056C4.643,37.48,0.289,50.198,0.289,63.939c0,35.313,28.654,63.939,64,63.939
			c13.552,0,26.112-4.22,36.459-11.4C71.071,86.773,41.466,56.997,12.026,27.056z"/>
	</g>
</g>
</svg>
