<?xml version="1.0" encoding="utf-8"?>
<!-- Generator: Adobe Illustrator 18.1.1, SVG Export Plug-In . SVG Version: 6.00 Build 0)  -->
<svg version="1.0" id="Layer_1" xmlns="http://www.w3.org/2000/svg" xmlns:xlink="http://www.w3.org/1999/xlink" x="0px" y="0px"
	 viewBox="0 0 130 130" enable-background="new 0 0 130 130" xml:space="preserve">
<g>
	<g>
		<path fill="#FFFFFF" d="M118.5,75.8c0.6-3.2,0.9-6.4,0.9-9.8c0-31.7-26.5-57.3-59.2-57.3S1,34.3,1,66s26.5,57.3,59.2,57.3
			c17.3,0,32.9-7.2,43.8-18.7c8.2,3.9,18.4,6.4,22.7,2.1C133.1,100.5,124.8,82.4,118.5,75.8z"/>
		<g>
			<circle fill="#18B898" cx="25.7" cy="65.9" r="12.9"/>
			<circle fill="#18B898" cx="58.5" cy="65.9" r="12.9"/>
			<circle fill="#18B898" cx="91.3" cy="65.9" r="12.9"/>
		</g>
	</g>
	<path opacity="5.000000e-02" fill="#020202" d="M9,37.1C4,45.6,1.2,55.5,1.2,66c0,31.7,25.7,57.3,57.3,57.3
		c10.5,0,20.2-2.8,28.7-7.7C61.1,89.5,35,63.4,9,37.1z"/>
</g>
</svg>
