<?xml version="1.0" encoding="utf-8"?>
<!-- Generator: Adobe Illustrator 18.0.0, SVG Export Plug-In . SVG Version: 6.00 Build 0)  -->
<!DOCTYPE svg PUBLIC "-//W3C//DTD SVG 1.1//EN" "http://www.w3.org/Graphics/SVG/1.1/DTD/svg11.dtd">
<svg version="1.1" id="Layer_1" xmlns="http://www.w3.org/2000/svg" xmlns:xlink="http://www.w3.org/1999/xlink" x="0px" y="0px"
	 viewBox="0 0 1002 138.1" enable-background="new 0 0 1002 138.1" xml:space="preserve">
<g id="Communities_Text">
	<path fill="#13B7B7" d="M407.7,112.9c1.6,3.1,2.6,6.2,3.1,9.1c-3.1,1.3-6.2,2.3-9.4,2.8s-6.7,0.9-10.4,0.9
		c-5.7,0-10.8-0.9-15.4-2.8c-4.6-1.9-8.4-4.5-11.6-8s-5.6-7.7-7.2-12.7c-1.7-5-2.5-10.6-2.5-16.8c0-6.3,0.8-12,2.5-17.1
		c1.7-5.1,4.1-9.4,7.2-13c3.1-3.6,7-6.3,11.5-8.3c4.5-1.9,9.6-2.9,15.2-2.9c4.2,0,7.8,0.3,10.7,0.9c3,0.6,5.7,1.3,8,2.1
		c-0.1,1.7-0.5,3.2-0.9,4.7c-0.5,1.4-1,2.9-1.7,4.6c-1.1-0.4-2.2-0.7-3.2-1c-1-0.3-2.1-0.5-3.3-0.8c-1.2-0.2-2.5-0.4-3.9-0.5
		c-1.4-0.1-3.1-0.2-4.9-0.2c-8,0-14.2,2.7-18.6,8.1c-4.4,5.4-6.6,13.2-6.6,23.4c0,5.2,0.6,9.7,1.9,13.5c1.2,3.8,3,6.9,5.3,9.4
		c2.3,2.5,5,4.4,8.2,5.6s6.7,1.9,10.7,1.9c3.1,0,5.8-0.3,8.3-0.8C403.2,114.6,405.5,113.8,407.7,112.9z"/>
	<path fill="#13B7B7" d="M439,125.7c-4.4,0-8.2-0.8-11.5-2.2c-3.3-1.5-6-3.6-8.2-6.2c-2.2-2.6-3.8-5.7-4.9-9.3
		c-1.1-3.6-1.6-7.5-1.6-11.6s0.5-8,1.6-11.6c1.1-3.6,2.7-6.7,4.9-9.3s4.9-4.7,8.2-6.3c3.3-1.5,7.1-2.3,11.5-2.3
		c4.4,0,8.2,0.8,11.5,2.3c3.3,1.5,6,3.6,8.2,6.3c2.2,2.6,3.8,5.7,4.9,9.3c1.1,3.6,1.6,7.5,1.6,11.6s-0.5,8-1.6,11.6
		c-1.1,3.6-2.7,6.7-4.9,9.3c-2.2,2.6-4.9,4.7-8.2,6.2C447.2,125,443.4,125.7,439,125.7z M439,117.1c5.1,0,8.8-1.8,11.2-5.5
		c2.4-3.7,3.6-8.7,3.6-15.2c0-6.5-1.2-11.6-3.6-15.2c-2.4-3.6-6.1-5.4-11.2-5.4c-5,0-8.8,1.8-11.1,5.4c-2.4,3.6-3.6,8.7-3.6,15.2
		c0,6.5,1.2,11.6,3.6,15.2C430.2,115.2,434,117.1,439,117.1z"/>
	<path fill="#13B7B7" d="M473,68.1c0.8-0.1,1.6-0.3,2.4-0.3c0.8-0.1,1.6-0.1,2.4-0.1c0.8,0,1.6,0,2.3,0.1c0.7,0.1,1.4,0.2,2.2,0.3
		c0.2,1.1,0.4,2.5,0.7,4.3c0.2,1.8,0.3,3.3,0.3,4.5c0.7-1.3,1.5-2.6,2.5-3.8c1-1.2,2.2-2.3,3.5-3.2c1.3-0.9,2.9-1.7,4.7-2.3
		c1.8-0.6,3.7-0.9,5.8-0.9c4.4,0,7.8,0.9,10.1,2.7c2.4,1.8,4.2,4.3,5.4,7.5c0.7-1.2,1.6-2.5,2.7-3.7c1.1-1.2,2.2-2.3,3.6-3.3
		c1.3-0.9,2.8-1.7,4.5-2.3c1.7-0.6,3.6-0.9,5.7-0.9c6.5,0,11.2,1.8,14.2,5.5c3,3.7,4.4,9.1,4.4,16.2v35.9c-0.8,0.1-1.7,0.3-2.7,0.3
		c-1,0.1-1.9,0.1-2.7,0.1c-0.8,0-1.7,0-2.7-0.1c-1-0.1-1.9-0.2-2.7-0.3V91.7c0-5-0.8-8.8-2.3-11.4c-1.5-2.5-4.1-3.8-7.6-3.8
		c-3.7,0-6.7,1.4-9,4.1c-2.3,2.7-3.5,6.7-3.5,12v31.8c-0.8,0.1-1.7,0.3-2.7,0.3c-1,0.1-1.9,0.1-2.7,0.1c-0.8,0-1.7,0-2.7-0.1
		c-1-0.1-1.9-0.2-2.7-0.3V90.9c0-4.9-0.7-8.6-2.2-11c-1.5-2.4-3.8-3.7-7-3.7c-1.8,0-3.5,0.4-5.2,1.2c-1.6,0.8-3,2-4.2,3.6
		c-1.2,1.6-2.2,3.6-2.9,6.1c-0.7,2.5-1,5.3-1,8.5v28.7c-0.8,0.1-1.7,0.3-2.7,0.3c-1,0.1-1.9,0.1-2.7,0.1c-0.8,0-1.7,0-2.7-0.1
		c-1-0.1-1.9-0.2-2.7-0.3V68.1z"/>
	<path fill="#13B7B7" d="M560.2,68.1c0.8-0.1,1.6-0.3,2.4-0.3c0.8-0.1,1.6-0.1,2.4-0.1c0.8,0,1.6,0,2.3,0.1c0.7,0.1,1.4,0.2,2.2,0.3
		c0.2,1.1,0.4,2.5,0.7,4.3c0.2,1.8,0.3,3.3,0.3,4.5c0.7-1.3,1.5-2.6,2.5-3.8c1-1.2,2.2-2.3,3.5-3.2c1.3-0.9,2.9-1.7,4.7-2.3
		c1.8-0.6,3.7-0.9,5.8-0.9c4.4,0,7.8,0.9,10.1,2.7c2.4,1.8,4.2,4.3,5.4,7.5c0.7-1.2,1.6-2.5,2.7-3.7c1.1-1.2,2.2-2.3,3.6-3.3
		c1.3-0.9,2.8-1.7,4.5-2.3c1.7-0.6,3.6-0.9,5.7-0.9c6.5,0,11.2,1.8,14.2,5.5c3,3.7,4.4,9.1,4.4,16.2v35.9c-0.8,0.1-1.7,0.3-2.7,0.3
		c-1,0.1-1.9,0.1-2.7,0.1c-0.8,0-1.7,0-2.7-0.1c-1-0.1-1.9-0.2-2.7-0.3V91.7c0-5-0.8-8.8-2.3-11.4c-1.5-2.5-4.1-3.8-7.6-3.8
		c-3.7,0-6.7,1.4-9,4.1c-2.3,2.7-3.5,6.7-3.5,12v31.8c-0.8,0.1-1.7,0.3-2.7,0.3c-1,0.1-1.9,0.1-2.7,0.1c-0.8,0-1.7,0-2.7-0.1
		c-1-0.1-1.9-0.2-2.7-0.3V90.9c0-4.9-0.7-8.6-2.2-11c-1.5-2.4-3.8-3.7-7-3.7c-1.8,0-3.5,0.4-5.2,1.2c-1.6,0.8-3,2-4.2,3.6
		c-1.2,1.6-2.2,3.6-2.9,6.1c-0.7,2.5-1,5.3-1,8.5v28.7c-0.8,0.1-1.7,0.3-2.7,0.3c-1,0.1-1.9,0.1-2.7,0.1c-0.8,0-1.7,0-2.7-0.1
		s-1.9-0.2-2.7-0.3V68.1z"/>
	<path fill="#13B7B7" d="M646.7,68.1c0.8-0.1,1.7-0.3,2.7-0.3c1-0.1,1.9-0.1,2.6-0.1c0.8,0,1.7,0,2.7,0.1c1,0.1,1.9,0.2,2.7,0.3V99
		c0,3.5,0.3,6.4,1,8.7c0.7,2.3,1.6,4.1,3,5.4c1.3,1.3,2.9,2.2,4.8,2.7c1.9,0.5,4.1,0.8,6.6,0.8c3.7,0,6.9-0.4,9.5-1.2V68.1
		c0.8-0.1,1.7-0.3,2.7-0.3c1-0.1,1.9-0.1,2.7-0.1c0.8,0,1.7,0,2.7,0.1c1,0.1,1.9,0.2,2.7,0.3v54.5c-2.6,0.7-5.6,1.4-9.2,2.1
		c-3.5,0.7-7.2,1-11,1c-3.6,0-7-0.3-10.1-0.9c-3.2-0.6-6-1.9-8.4-3.8c-2.4-1.9-4.3-4.6-5.7-8c-1.4-3.4-2.1-8-2.1-13.6V68.1z"/>
	<path fill="#13B7B7" d="M703.9,68.1c0.8-0.1,1.6-0.3,2.4-0.3c0.8-0.1,1.6-0.1,2.4-0.1c0.8,0,1.6,0,2.3,0.1c0.7,0.1,1.4,0.2,2.2,0.3
		c0.2,1.1,0.4,2.6,0.7,4.4c0.2,1.9,0.3,3.4,0.3,4.7c0.7-1.2,1.7-2.5,2.8-3.7c1.1-1.2,2.4-2.4,3.9-3.3c1.5-1,3.1-1.8,5-2.4
		c1.9-0.6,4-0.9,6.3-0.9c6.4,0,11.2,1.8,14.3,5.5s4.6,9.2,4.6,16.4v35.6c-0.8,0.1-1.7,0.3-2.7,0.3c-1,0.1-1.9,0.1-2.7,0.1
		c-0.8,0-1.7,0-2.7-0.1c-1-0.1-1.9-0.2-2.7-0.3V91.7c0-5.2-0.8-9-2.4-11.5c-1.6-2.4-4.2-3.7-7.7-3.7c-2,0-4,0.4-5.8,1.1
		c-1.8,0.7-3.4,1.9-4.8,3.4c-1.4,1.5-2.5,3.5-3.3,6s-1.3,5.4-1.3,8.8v28.5c-0.8,0.1-1.7,0.3-2.7,0.3c-1,0.1-1.9,0.1-2.7,0.1
		c-0.8,0-1.7,0-2.7-0.1s-1.9-0.2-2.7-0.3V68.1z"/>
	<path fill="#13B7B7" d="M764.1,76.7H757c-0.1-0.6-0.3-1.3-0.3-2c-0.1-0.8-0.1-1.5-0.1-2.3c0-0.7,0-1.5,0.1-2.2
		c0.1-0.8,0.2-1.4,0.3-2h17.8v56.3c-0.8,0.1-1.7,0.3-2.7,0.3c-1,0.1-1.9,0.1-2.7,0.1c-0.7,0-1.6,0-2.6-0.1s-1.9-0.2-2.7-0.3V76.7z
		 M761.7,55.7c-0.1-0.9-0.2-1.8-0.3-2.9c0-1-0.1-1.9-0.1-2.7c0-0.8,0-1.7,0.1-2.7c0-1,0.1-1.9,0.3-2.7c0.9-0.1,2-0.3,3.1-0.3
		c1.1-0.1,2-0.1,2.9-0.1c0.8,0,1.8,0,2.8,0.1c1.1,0.1,2.1,0.2,3,0.3c0.1,0.8,0.2,1.7,0.3,2.7c0,1,0.1,1.9,0.1,2.7
		c0,0.8,0,1.7-0.1,2.7c0,1-0.1,2-0.3,2.9c-0.9,0.1-1.8,0.3-2.9,0.3c-1.1,0.1-2,0.1-2.8,0.1c-0.9,0-1.9,0-3-0.1
		C763.7,56,762.6,55.9,761.7,55.7z"/>
	<path fill="#13B7B7" d="M788,76.8h-8.6l-0.4-1.5l18.9-21.1h0.9v13.9H813c0.3,1.2,0.4,2.6,0.4,4.2c0,0.8,0,1.6-0.1,2.3
		c-0.1,0.7-0.2,1.5-0.3,2.2h-14.3v25.7c0,3.1,0.1,5.5,0.4,7.3c0.3,1.8,0.7,3.2,1.3,4.2c0.6,1,1.5,1.6,2.5,2c1.1,0.3,2.4,0.5,4,0.5
		c1.2,0,2.4-0.1,3.5-0.3c1.1-0.2,2.1-0.4,3-0.6c0.5,1.5,0.8,3,0.9,4.5c0.1,1.5,0.2,2.9,0.2,4.1c-1.5,0.4-3,0.6-4.6,0.8
		c-1.6,0.2-3.3,0.3-5.2,0.3c-5.3,0-9.4-1.3-12.3-3.8c-3-2.6-4.4-6.8-4.4-12.7V76.8z"/>
	<path fill="#13B7B7" d="M822,76.7h-7.1c-0.1-0.6-0.3-1.3-0.3-2c-0.1-0.8-0.1-1.5-0.1-2.3c0-0.7,0-1.5,0.1-2.2s0.2-1.4,0.3-2h17.8
		v56.3c-0.8,0.1-1.7,0.3-2.7,0.3c-1,0.1-1.9,0.1-2.7,0.1c-0.7,0-1.6,0-2.6-0.1s-1.9-0.2-2.7-0.3V76.7z M819.6,55.7
		c-0.1-0.9-0.2-1.8-0.3-2.9c0-1-0.1-1.9-0.1-2.7c0-0.8,0-1.7,0.1-2.7c0-1,0.1-1.9,0.3-2.7c0.9-0.1,2-0.3,3.1-0.3
		c1.1-0.1,2-0.1,2.9-0.1c0.8,0,1.8,0,2.8,0.1c1.1,0.1,2.1,0.2,3,0.3c0.1,0.8,0.2,1.7,0.3,2.7c0,1,0.1,1.9,0.1,2.7
		c0,0.8,0,1.7-0.1,2.7c0,1-0.1,2-0.3,2.9c-0.9,0.1-1.8,0.3-2.9,0.3c-1.1,0.1-2,0.1-2.8,0.1c-0.9,0-1.9,0-3-0.1
		C821.6,56,820.6,55.9,819.6,55.7z"/>
	<path fill="#13B7B7" d="M852,99c0.1,6.1,1.7,10.6,4.8,13.5c3,2.8,7.5,4.3,13.4,4.3c5.2,0,10.1-0.9,14.8-2.7c0.6,1.1,1.1,2.4,1.4,4
		c0.4,1.6,0.6,3.1,0.7,4.7c-2.4,1-5.1,1.8-8,2.3c-2.9,0.5-6.1,0.8-9.6,0.8c-5.1,0-9.5-0.7-13.2-2.1c-3.7-1.4-6.7-3.4-9.1-6
		c-2.4-2.6-4.1-5.7-5.2-9.2c-1.1-3.5-1.6-7.4-1.6-11.7c0-4.2,0.5-8.1,1.6-11.7c1.1-3.6,2.7-6.8,4.9-9.4c2.2-2.7,5-4.8,8.3-6.4
		c3.3-1.6,7.3-2.4,11.8-2.4c3.9,0,7.3,0.7,10.2,2c2.9,1.3,5.4,3.1,7.3,5.4s3.5,5,4.5,8.2c1,3.2,1.5,6.6,1.5,10.4c0,1,0,2.1-0.1,3.2
		c-0.1,1.1-0.1,2.1-0.2,2.9H852z M879.8,90.8c0-2-0.3-4-0.8-5.9c-0.5-1.9-1.4-3.5-2.4-4.9c-1.1-1.4-2.4-2.5-4.1-3.3
		c-1.6-0.8-3.6-1.3-5.9-1.3c-4.5,0-7.9,1.4-10.3,4.1c-2.4,2.7-3.8,6.5-4.3,11.3H879.8z"/>
	<path fill="#13B7B7" d="M897.4,114.2c2,0.8,4.2,1.4,6.5,1.9c2.4,0.5,4.7,0.7,7.1,0.7c1.7,0,3.3-0.2,4.8-0.5c1.5-0.4,2.9-0.9,4-1.6
		c1.1-0.7,2-1.6,2.7-2.7c0.7-1.1,1-2.2,1-3.6c0-1.5-0.3-2.7-0.8-3.6c-0.5-0.9-1.3-1.8-2.2-2.4c-0.9-0.7-2-1.2-3.2-1.7
		c-1.2-0.5-2.5-0.9-3.9-1.4l-3.8-1.4c-4.7-1.8-8.1-3.7-10.2-5.9c-2.1-2.2-3.2-5.2-3.2-8.9c0-5,1.8-8.9,5.3-11.8
		c3.5-2.9,8.8-4.4,15.6-4.4c2.9,0,5.6,0.3,8.4,0.8c2.7,0.6,5.1,1.2,7.2,1.9c-0.1,1.5-0.4,2.9-0.8,4.4c-0.4,1.5-0.9,2.8-1.5,4.1
		c-1.6-0.6-3.5-1.2-5.8-1.7s-4.6-0.8-7.2-0.8c-2.7,0-5.1,0.5-7.2,1.4c-2.1,0.9-3.1,2.6-3.1,5c0,1.2,0.3,2.3,0.8,3.2
		c0.5,0.9,1.2,1.6,2.1,2.2c0.9,0.6,1.9,1.1,3,1.6c1.1,0.4,2.4,0.9,3.7,1.3l4.8,1.6c1.8,0.6,3.4,1.3,5,2.1c1.6,0.8,2.9,1.8,4.1,3
		c1.1,1.2,2,2.7,2.7,4.4c0.7,1.7,1,3.8,1,6.2c0,2.7-0.5,5.2-1.6,7.4c-1.1,2.2-2.7,4.1-4.7,5.7c-2,1.6-4.4,2.8-7.3,3.7
		c-2.9,0.9-6,1.3-9.4,1.3c-3.5,0-6.6-0.2-9.2-0.7c-2.6-0.5-5.1-1.1-7.3-1.9c0.1-1.5,0.5-2.9,0.9-4.4
		C896.3,117.1,896.8,115.7,897.4,114.2z"/>
</g>
<g id="Fonteva_Logo_3_">
	<g>
		<polygon fill-rule="evenodd" clip-rule="evenodd" fill="#F7931E" points="270.2,129.5 232.4,63.5 265.8,95.3 341.5,5 		"/>
		<path fill-rule="evenodd" clip-rule="evenodd" fill="#F7931E" d="M264.7,61.5c5.9,0,10.7,4.8,10.7,10.7c0,5.9-4.8,10.7-10.7,10.7
			c-5.9,0-10.7-4.8-10.7-10.7C253.9,66.3,258.7,61.5,264.7,61.5z"/>
	</g>
	<g>
		<path fill="#444747" d="M13.2,47.1h40.7c0.1,0.7,0.3,1.5,0.3,2.3c0.1,0.8,0.1,1.6,0.1,2.4c0,0.8,0,1.6-0.1,2.5
			c-0.1,0.9-0.2,1.7-0.3,2.4H24.3v22.8H49c0.1,0.8,0.3,1.6,0.3,2.4c0.1,0.8,0.1,1.6,0.1,2.4c0,0.8,0,1.6-0.1,2.4
			c-0.1,0.8-0.2,1.6-0.3,2.4H24.3v35.6c-0.9,0.1-1.7,0.3-2.7,0.3c-0.9,0.1-1.9,0.1-2.9,0.1c-0.9,0-1.9,0-2.9-0.1
			c-1-0.1-1.9-0.2-2.6-0.3V47.1z"/>
		<path fill="#444747" d="M79.1,68.1c4.3,0,8.1,0.8,11.3,2.3c3.2,1.5,6,3.6,8.1,6.2c2.2,2.6,3.8,5.7,4.8,9.2c1,3.5,1.6,7.4,1.6,11.5
			c0,4.1-0.5,7.9-1.6,11.5c-1,3.5-2.6,6.6-4.8,9.2c-2.2,2.6-4.9,4.6-8.1,6.1c-3.2,1.5-7,2.2-11.3,2.2v-8.5c4.9,0,8.6-1.8,11-5.4
			c2.4-3.6,3.6-8.6,3.6-15c0-6.4-1.2-11.4-3.6-15c-2.4-3.6-6-5.3-11-5.4V68.1z M79.1,126.1c-4.3,0-8.1-0.7-11.4-2.2
			c-3.2-1.5-5.9-3.5-8.1-6.1c-2.2-2.6-3.8-5.7-4.8-9.2c-1-3.5-1.6-7.4-1.6-11.5c0-4.1,0.5-7.9,1.6-11.5c1-3.5,2.7-6.6,4.8-9.2
			c2.2-2.6,4.9-4.6,8.1-6.2c3.2-1.5,7-2.3,11.4-2.3h0.1v8.8h-0.1c-5,0-8.6,1.8-11,5.4c-2.3,3.6-3.5,8.6-3.5,15
			c0,6.4,1.2,11.4,3.5,15c2.3,3.6,6,5.4,11,5.4h0.1L79.1,126.1L79.1,126.1z"/>
		<path fill="#444747" d="M108.9,69.3c0.8-0.1,1.6-0.3,2.3-0.3c0.8-0.1,1.5-0.1,2.3-0.1c0.8,0,1.5,0,2.2,0.1
			c0.7,0.1,1.4,0.2,2.2,0.3c0.2,1.1,0.4,2.5,0.7,4.4c0.2,1.8,0.3,3.4,0.3,4.6c0.7-1.2,1.6-2.5,2.8-3.7c1.1-1.2,2.4-2.3,3.8-3.3
			c1.4-1,3.1-1.8,5-2.4c1.9-0.6,3.9-0.9,6.2-0.9c6.3,0,11,1.8,14.1,5.5c3,3.6,4.5,9,4.5,16.2v35.2c-0.8,0.1-1.7,0.3-2.7,0.3
			c-1,0.1-1.9,0.1-2.7,0.1c-0.8,0-1.7,0-2.7-0.1c-1-0.1-1.9-0.2-2.7-0.3V92.6c0-5.1-0.8-8.9-2.4-11.3c-1.6-2.4-4.1-3.6-7.6-3.6
			c-2,0-3.9,0.4-5.7,1.1c-1.8,0.7-3.4,1.8-4.8,3.4c-1.4,1.5-2.5,3.5-3.3,5.9c-0.8,2.4-1.2,5.3-1.2,8.7v28.1
			c-0.8,0.1-1.7,0.3-2.6,0.3c-1,0.1-1.9,0.1-2.7,0.1c-0.8,0-1.7,0-2.7-0.1c-1-0.1-1.9-0.2-2.7-0.3V69.3z"/>
		<path fill="#444747" d="M165,77.9h-8.4l-0.4-1.5l18.6-20.8h0.9v13.7h14.1c0.3,1.2,0.4,2.6,0.4,4.1c0,0.8,0,1.5-0.1,2.3
			c-0.1,0.7-0.2,1.4-0.3,2.2h-14.1v25.3c0,3,0.1,5.4,0.4,7.2c0.3,1.8,0.7,3.2,1.3,4.2c0.6,1,1.4,1.6,2.5,1.9c1,0.3,2.4,0.5,3.9,0.5
			c1.2,0,2.4-0.1,3.5-0.3c1.1-0.2,2.1-0.4,2.9-0.6c0.5,1.4,0.8,2.9,0.9,4.4c0.1,1.5,0.2,2.8,0.2,4c-1.4,0.4-3,0.6-4.5,0.8
			c-1.6,0.2-3.3,0.3-5.1,0.3c-5.2,0-9.3-1.3-12.2-3.8c-2.9-2.5-4.4-6.7-4.4-12.6V77.9z"/>
		<path fill="#444747" d="M215.8,117c1.3,0.2,2.7,0.3,4.2,0.3c5.1,0,10-0.9,14.6-2.7c0.6,1.1,1,2.4,1.4,3.9c0.4,1.5,0.6,3.1,0.6,4.6
			c-2.4,1-5,1.8-7.8,2.3c-2.8,0.5-6,0.8-9.5,0.8c-1.2,0-2.4,0-3.5-0.1V117L215.8,117z M215.8,68.1c0.3,0,0.7,0,1,0
			c3.8,0,7.2,0.6,10.1,1.9c2.9,1.3,5.3,3.1,7.2,5.4c1.9,2.3,3.4,5,4.4,8.1c1,3.1,1.5,6.5,1.5,10.2c0,1,0,2.1-0.1,3.2
			c-0.1,1.1-0.1,2.1-0.2,2.9h-24v-8h13.7c0-2-0.3-3.9-0.8-5.8c-0.5-1.8-1.3-3.4-2.4-4.8c-1-1.4-2.4-2.5-4-3.3
			c-1.6-0.8-3.6-1.2-5.8-1.2c-0.2,0-0.5,0-0.7,0V68.1z M202,99.7c0.1,6.1,1.7,10.5,4.7,13.3c2.2,2.1,5.3,3.4,9.1,3.9v9
			c-3.6-0.3-6.7-0.9-9.5-2c-3.6-1.4-6.6-3.4-8.9-5.9c-2.3-2.6-4.1-5.6-5.1-9.1c-1.1-3.5-1.6-7.3-1.6-11.5c0-4.1,0.5-8,1.6-11.5
			c1-3.6,2.7-6.7,4.8-9.3c2.2-2.6,4.9-4.7,8.2-6.3c3-1.4,6.6-2.2,10.6-2.3v8.5c-4.1,0.1-7.2,1.5-9.4,4c-2.3,2.7-3.8,6.4-4.3,11.1
			h13.7v8H202z"/>
		<path fill-rule="evenodd" clip-rule="evenodd" fill="#444747" d="M322.7,98.8c-1.1-0.1-2.5-0.3-4.1-0.4c-1.7-0.1-3.1-0.2-4.2-0.2
			c-0.9,0-1.8,0-2.7,0.1v-8.4c0.5,0,1.1,0,1.6,0c2.3,0,4.2,0.1,5.7,0.2c1.5,0.1,2.7,0.2,3.7,0.4v-2.1c0-4.3-1.1-7.2-3.2-8.9
			c-1.9-1.4-4.5-2.2-7.8-2.4v-8.7l0.1-0.2c6.9,0.1,12.2,1.7,15.8,4.9c3.7,3.3,5.6,8.5,5.6,15.7v34.7c-2.5,0.6-5.6,1.2-9.2,1.8
			c-3.6,0.6-7.3,0.9-11,0.9c-0.4,0-0.9,0-1.3,0v-8.7c0.4,0,0.8,0,1.2,0c1.7,0,3.4-0.1,5.1-0.3c1.8-0.2,3.3-0.4,4.7-0.8V98.8z
			 M311.6,98.2c-3.2,0.3-5.7,1.1-7.5,2.4c-2.3,1.7-3.5,4.2-3.5,7.6c0,2.2,0.4,3.9,1.2,5.1c0.8,1.2,1.8,2.2,3,2.8
			c1.2,0.6,2.5,1,3.9,1.2c1,0.1,2,0.2,2.9,0.2v8.7c-3-0.1-5.8-0.4-8.3-1c-2.8-0.6-5.3-1.7-7.2-3.1c-2-1.4-3.5-3.3-4.6-5.5
			c-1.1-2.2-1.6-4.9-1.6-8.1c0-3.1,0.6-5.8,1.9-8.2c1.3-2.3,3-4.3,5.1-5.8c2.2-1.5,4.6-2.7,7.5-3.5c2.3-0.6,4.7-1,7.2-1.1V98.2
			L311.6,98.2z M311.6,68.3V77c-0.5,0-1.1,0-1.6,0c-1.2,0-2.3,0-3.4,0.1L311.6,68.3z"/>
	</g>
</g>
</svg>
