<?xml version="1.0" encoding="utf-8"?>
<!-- Generator: Adobe Illustrator 19.1.0, SVG Export Plug-In . SVG Version: 6.00 Build 0)  -->
<svg version="1.1" id="Layer_1" xmlns="http://www.w3.org/2000/svg" xmlns:xlink="http://www.w3.org/1999/xlink" x="0px" y="0px"
	 viewBox="0 0 128 128" style="enable-background:new 0 0 128 128;" xml:space="preserve">
<style type="text/css">
	.st0{fill:#1297BE;}
	.st1{fill:#EF4D3B;}
	.st2{fill:#74B8BB;}
	.st3{fill:#9BCA41;}
	.st4{fill:#FBB216;}
	.st5{fill:#FFD66D;}
	.st6{fill:#60AA45;}
	.st7{fill:#F07536;}
</style>
<g>
	<path class="st0" d="M45.9,63.9H0c0,17.8,7.3,33.9,19,45.5l32.2-32.5C47.9,73.6,45.9,69,45.9,63.9z"/>
	<path class="st1" d="M64,82.3v45.7c17.5,0,33.4-7.1,45-18.5L76.8,76.9C73.5,80.2,69,82.3,64,82.3z"/>
	<path class="st2" d="M51.2,76.9L19,109.5c11.6,11.4,27.5,18.5,45,18.5V82.3C59,82.3,54.5,80.2,51.2,76.9z"/>
	<path class="st3" d="M64,45.6l0-45.7C46.5-0.1,30.6,7,19,18.4L51.2,51C54.5,47.7,59,45.6,64,45.6z"/>
	<path class="st4" d="M82.1,63.9H128c0-17.8-7.3-33.9-19-45.5L76.8,51C80.1,54.3,82.1,58.9,82.1,63.9z"/>
	<path class="st5" d="M64-0.1l0,45.7c5,0,9.5,2.1,12.8,5.4L109,18.4C97.4,7,81.5-0.1,64-0.1C64-0.1,64-0.1,64-0.1z"/>
	<path class="st6" d="M51.2,51L19,18.4C7.3,30,0,46.1,0,63.9h45.9C45.9,58.9,47.9,54.3,51.2,51z"/>
	<path class="st7" d="M76.8,76.9l32.2,32.5c11.7-11.6,19-27.7,19-45.5H82.1C82.1,69,80.1,73.6,76.8,76.9z"/>
</g>
</svg>
