<?xml version="1.0" encoding="utf-8"?>
<!-- Generator: Adobe Illustrator 18.1.1, SVG Export Plug-In . SVG Version: 6.00 Build 0)  -->
<svg version="1.1" id="Layer_1" xmlns="http://www.w3.org/2000/svg" xmlns:xlink="http://www.w3.org/1999/xlink" x="0px" y="0px"
	 viewBox="0 0 512 512" enable-background="new 0 0 512 512" xml:space="preserve">
<g id="picture">
	<polygon fill="#E6CD3C" points="407.7,168.6 260.5,108 262.8,102.4 409.9,163 	"/>
	<polygon fill="#E6CD3C" points="102.9,168.6 100.7,163 247.8,102.4 250.1,108 	"/>
	<g>
		<path fill="#45BFEB" d="M450.7,410.8c0,5.5-4.5,10-10,10H71.3c-5.5,0-10-4.5-10-10V165.1c0-5.5,4.5-10,10-10h369.5
			c5.5,0,10,4.5,10,10V410.8z"/>
		<path fill="#E6E7E8" d="M426.8,179.1v217.7H85.2V179.1H426.8 M440.7,155.1H71.3c-5.5,0-10,4.5-10,10v245.6c0,5.5,4.5,10,10,10
			h369.5c5.5,0,10-4.5,10-10V165.1C450.7,159.6,446.3,155.1,440.7,155.1L440.7,155.1z"/>
	</g>
	<path fill="#8A5D3B" d="M271.6,106.9c0,8.6-7,15.7-15.7,15.7c-8.6,0-15.6-7-15.6-15.7s7-15.7,15.6-15.7
		C264.6,91.2,271.6,98.2,271.6,106.9z"/>
	<g>
		<defs>
			<rect id="SVGID_1_" x="85.2" y="178.4" width="341.5" height="219"/>
		</defs>
		<clipPath id="SVGID_2_">
			<use xlink:href="#SVGID_1_"  overflow="visible"/>
		</clipPath>
		<polygon clip-path="url(#SVGID_2_)" fill="#E6E7E8" points="359.5,253.7 342.2,218.4 321.6,243 298.3,262.3 249,285 239.7,298.9 
			209.7,308.3 187.1,314.3 185.6,314.4 163.8,323.6 136.1,328.5 173.8,345.5 279,359.5 334.9,356.2 372.8,301.6 		"/>
		<polygon clip-path="url(#SVGID_2_)" fill="#D0D2D3" points="430.1,296.9 374.2,262.3 349.5,231.7 342.2,218.4 359.5,270.3 
			348.9,286.3 321.6,312.3 313.6,335.6 314.2,349.5 431.4,338.9 		"/>
		<path clip-path="url(#SVGID_2_)" fill="#009345" d="M306.9,346.2c0,0-115.2-28.6-167.1-7.3c-51.9,21.3,64.6,36.6,64.6,36.6
			S306.3,355.5,306.9,346.2z"/>
		<path clip-path="url(#SVGID_2_)" fill="#37B34A" d="M230.4,364.2c0,0,127.1-49.9,205.7-26c78.6,24,12,84.5-127.8,76.6
			C168.5,406.8,230.4,364.2,230.4,364.2z"/>
		<path clip-path="url(#SVGID_2_)" fill="#8BC53F" d="M80.6,314.9c0,0,127.2,23.3,213.7,80.6c86.6,57.2-220.4,4-220.4,4L80.6,314.9z
			"/>
		<path clip-path="url(#SVGID_2_)" fill="#F9EC31" d="M54.6,202.1c0,28.9,23.4,52.3,52.3,52.3s52.3-23.4,52.3-52.3
			c0-28.9-23.4-52.3-52.3-52.3S54.6,173.2,54.6,202.1z"/>
	</g>
</g>
</svg>
