<?xml version="1.0" encoding="utf-8"?>
<!-- Generator: Adobe Illustrator 18.1.1, SVG Export Plug-In . SVG Version: 6.00 Build 0)  -->
<svg version="1.1" id="Layer_1" xmlns="http://www.w3.org/2000/svg" xmlns:xlink="http://www.w3.org/1999/xlink" x="0px" y="0px"
	 viewBox="-200 202 110 110" enable-background="new -200 202 110 110" xml:space="preserve">
<g id="Multicolor">
	<g>
		<ellipse fill="#17B198" cx="-144.5" cy="245" rx="19.7" ry="20"/>
		<ellipse fill="#059BBF" cx="-157.3" cy="269" rx="19.7" ry="20"/>
		<ellipse fill="#DF2C2C" cx="-132.7" cy="269" rx="19.7" ry="20"/>
		<path fill="#6FDAF1" d="M-145,253.4c-3.2,2.6-5.5,6.1-6.7,10.2c-5.8-2.3-10.3-7.4-11.9-13.6c2-0.7,4.1-1,6.3-1
			C-152.6,249-148.4,250.6-145,253.4z"/>
		<path fill="#FFFFFF" d="M-138.2,264c-2,0.7-4.1,1-6.3,1c-2.5,0-4.9-0.5-7.2-1.4c1.1-4.1,3.5-7.7,6.7-10.2
			C-141.7,256-139.3,259.7-138.2,264z"/>
		<path fill="#F37A10" d="M-137.6,269c0,6.3-2.9,12-7.4,15.6c-4.5-3.6-7.4-9.3-7.4-15.6c0-1.9,0.2-3.7,0.7-5.4
			c2.2,0.9,4.6,1.4,7.2,1.4c2.2,0,4.3-0.4,6.3-1C-137.8,265.6-137.6,267.3-137.6,269z"/>
		<path fill="#FBE158" d="M-125.5,250.4c-1.8,6.4-6.5,11.5-12.7,13.6c-1.1-4.2-3.5-7.9-6.8-10.6c3.4-2.8,7.6-4.4,12.3-4.4
			C-130.2,249-127.8,249.5-125.5,250.4z"/>
	</g>
</g>
</svg>
