<?xml version="1.0" encoding="utf-8"?>
<!-- Generator: Adobe Illustrator 18.1.1, SVG Export Plug-In . SVG Version: 6.00 Build 0)  -->
<svg version="1.1" id="Layer_1" xmlns="http://www.w3.org/2000/svg" xmlns:xlink="http://www.w3.org/1999/xlink" x="0px" y="0px"
	 width="512px" height="512px" viewBox="0 0 512 512" enable-background="new 0 0 512 512" xml:space="preserve">
<g>
	<g>
		<g>
			<g>
				<g>
					<g>
						<ellipse fill="#81C2C9" cx="256" cy="258.5" rx="244.1" ry="243.9"/>
						<path fill="#8CCACD" d="M450.2,406.2c31.3-41,49.9-92.2,49.9-147.7c0-134.7-109.3-243.9-244.1-243.9
							c-54.8,0-105.4,18.1-146.2,48.5C222.8,178,336.4,292.2,450.2,406.2z"/>
						<path fill="#74B8BB" d="M56.6,117.8C28.5,157.5,11.9,206,11.9,258.5c0,134.7,109.3,243.9,244.1,243.9
							c51.7,0,99.6-16.1,139.1-43.5C281.9,345.6,168.9,232,56.6,117.8z"/>
					</g>
				</g>
			</g>
		</g>
	</g>
	<g>
		<g>
			<path fill="#E2E2E1" d="M446.7,157.6c0-4.2-3.4-7.6-7.6-7.6H72.9c-4.2,0-7.6,3.4-7.6,7.6v253c44.7,55.9,113.5,91.7,190.7,91.7
				s146-35.8,190.7-91.7L446.7,157.6L446.7,157.6z"/>
			<path fill="#E2E2E1" d="M446.7,172.9H65.3v237.8c44.7,55.9,113.5,91.7,190.7,91.7s146-35.8,190.7-91.7V172.9z"/>
			<path fill="#FFFFFF" d="M446.7,172.9H67.9c0.8,0.7,1.7,1.4,2.5,2.3c99.7,99.7,199.4,199.5,298.9,299.4
				c30.1-15.8,56.4-37.6,77.5-63.9L446.7,172.9L446.7,172.9z"/>
			<g>
				<circle fill="#EF4D3B" cx="77.3" cy="162.2" r="4.3"/>
			</g>
			<g>
				<circle fill="#ECB24A" cx="88.7" cy="162.2" r="4.3"/>
			</g>
			<g>
				<circle fill="#518D40" cx="100.2" cy="162.2" r="4.3"/>
			</g>
			<path fill="#FFFFFF" d="M84.3,431.9c44.1,43.6,104.7,70.5,171.7,70.5c66.2,0,126.3-26.4,170.2-69.2v-192H84.3V431.9z"/>
			<path fill="#FFFFFF" d="M430.1,241.2H88.2v194.3c43.8,41.4,102.8,66.9,167.8,66.9c68.2,0,129.8-27.9,174.1-72.9V241.2z"/>
			<g id="D81gVc.tif_3_">
			</g>
			<g>
				<rect x="84.3" y="218" fill="#1998B5" width="341.9" height="11.7"/>
			</g>
			<path fill="#E2E2E1" d="M157.9,481.8c30,13.2,63.2,20.6,98.1,20.6c66.2,0,126.3-26.4,170.2-69.2V229.7H157.9V481.8z"/>
			<rect x="165.5" y="237.4" fill="#FFFFFF" width="252.8" height="102.9"/>
			<path fill="#FFFFFF" d="M165.5,485c1.2,0.5,2.5,1,3.8,1.5h173.5c28-10.6,53.6-26.3,75.5-45.9V348H165.5V485z"/>
			<path fill="#EFEFEF" d="M171.1,487.1c26.4,9.8,55,15.3,84.9,15.3c29.9,0,58.5-5.4,85-15.3H171.1z"/>
			<path fill="#FFFFFF" d="M84.3,431.9c21.1,20.8,46,37.8,73.5,49.9V229.7H84.3V431.9z"/>
			<g>
				<rect x="165.5" y="248.5" fill="#1998B5" width="44.4" height="11.7"/>
			</g>
			<g>
				<g>
					<rect x="199.8" y="271.4" fill="#EFEFEF" width="56.7" height="11.7"/>
				</g>
				<g>
					<rect x="199.8" y="290.5" fill="#EFEFEF" width="56.7" height="11.7"/>
				</g>
				<g>
					<rect x="199.8" y="309.6" fill="#EFEFEF" width="56.7" height="11.7"/>
				</g>
				<g>
					<rect x="268" y="271.4" fill="#EFEFEF" width="56.7" height="11.7"/>
				</g>
				<g>
					<rect x="268" y="290.5" fill="#EFEFEF" width="56.7" height="11.7"/>
				</g>
				<g>
					<rect x="268" y="309.6" fill="#EFEFEF" width="56.7" height="11.7"/>
				</g>
				<g>
					<rect x="336.7" y="271.4" fill="#EFEFEF" width="56.7" height="11.7"/>
				</g>
				<g>
					<rect x="336.7" y="290.5" fill="#EFEFEF" width="56.7" height="11.7"/>
				</g>
				<g>
					<rect x="336.7" y="309.6" fill="#EFEFEF" width="56.7" height="11.7"/>
				</g>
			</g>
			<g>
				<g>
					<rect x="199.8" y="382" fill="#EFEFEF" width="56.7" height="11.7"/>
				</g>
				<g>
					<rect x="199.8" y="401.1" fill="#EFEFEF" width="56.7" height="11.7"/>
				</g>
				<g>
					<rect x="268" y="382" fill="#EFEFEF" width="56.7" height="11.7"/>
				</g>
				<g>
					<rect x="268" y="401.1" fill="#EFEFEF" width="56.7" height="11.7"/>
				</g>
				<g>
					<rect x="336.7" y="382" fill="#EFEFEF" width="56.7" height="11.7"/>
				</g>
				<g>
					<rect x="336.7" y="401.1" fill="#EFEFEF" width="56.7" height="11.7"/>
				</g>
			</g>
			<g>
				<g>
					<rect x="199.8" y="420.2" fill="#EFEFEF" width="56.7" height="11.7"/>
				</g>
				<g>
					<rect x="199.8" y="439.3" fill="#EFEFEF" width="56.7" height="11.7"/>
				</g>
				<g>
					<rect x="268" y="420.2" fill="#EFEFEF" width="56.7" height="11.7"/>
				</g>
				<g>
					<rect x="268" y="439.3" fill="#EFEFEF" width="56.7" height="11.7"/>
				</g>
				<g>
					<rect x="336.7" y="420.2" fill="#EFEFEF" width="56.7" height="11.7"/>
				</g>
				<g>
					<rect x="336.7" y="439.3" fill="#EFEFEF" width="56.7" height="11.7"/>
				</g>
				<g>
					<rect x="199.8" y="458.3" fill="#EFEFEF" width="56.7" height="11.7"/>
				</g>
				<g>
					<rect x="268" y="458.3" fill="#EFEFEF" width="56.7" height="11.7"/>
				</g>
				<path fill="#EFEFEF" d="M336.7,470h40.7c5.5-3.1,10.8-6.4,16-10v-1.7h-56.7V470z"/>
			</g>
			<g>
				<rect x="165.5" y="359.1" fill="#1998B5" width="44.4" height="11.7"/>
			</g>
			<g>
				<g>
					<rect x="93" y="244.2" fill="#ECB24A" width="54.1" height="5.8"/>
				</g>
				<g>
					<rect x="93" y="261.7" fill="#E0E0E0" width="54.1" height="5.8"/>
				</g>
				<g>
					<rect x="93" y="279.3" fill="#E0E0E0" width="54.1" height="5.8"/>
				</g>
				<g>
					<rect x="93" y="296.8" fill="#E0E0E0" width="54.1" height="5.8"/>
				</g>
				<g>
					<rect x="93" y="314.3" fill="#E0E0E0" width="54.1" height="5.8"/>
				</g>
				<g>
					<rect x="93" y="331.8" fill="#E0E0E0" width="54.1" height="5.8"/>
				</g>
			</g>
		</g>
	</g>
</g>
</svg>
