<?xml version="1.0" encoding="utf-8"?>
<!-- Generator: Adobe Illustrator 18.1.1, SVG Export Plug-In . SVG Version: 6.00 Build 0)  -->
<svg version="1.0" id="Layer_1" xmlns="http://www.w3.org/2000/svg" xmlns:xlink="http://www.w3.org/1999/xlink" x="0px" y="0px"
	 viewBox="0 0 130 130" enable-background="new 0 0 130 130" xml:space="preserve">
<g>
	<g>
		<g>
			<g>
				<g>
					<g>
						<path fill="#18B898" d="M116.9,101.3c7.1-10.3,11.3-22.8,11.3-36.3c0-35.3-28.7-64-64-64c-35.3,0-64,28.7-64,64
							c0,13.5,4.2,26,11.3,36.3H116.9z"/>
						<path opacity="0.15" fill="#FFFFFF" d="M115.2,103.7c8.2-10.8,13.1-24.2,13.1-38.8c0-35.3-28.7-64-64-64
							C49.9,1,36.6,5.7,25.9,13.7C55.5,43.8,85.3,73.8,115.2,103.7z"/>
						<path opacity="5.000000e-02" d="M82.5,99.3C58.9,75.6,35.4,51.9,12,28.1C4.6,38.5,0.3,51.2,0.3,65c0,12.6,3.7,24.4,10,34.3
							H82.5z"/>
					</g>
				</g>
			</g>
		</g>
	</g>
	<g>
		<path fill="#EAF5F4" d="M123.5,89.2c-1.1-3.9-3.1-7.5-5.8-10.5c2.6-3.9,4.2-8.5,4.2-13.6c0-13.3-10.8-24.1-24.1-24.1
			c-3.3,0-6.4,0.7-9.2,1.8c-4-9.5-13.3-16.1-24.2-16.1c-10.9,0-20.3,6.6-24.2,16.1C37.3,41.7,34.2,41,31,41
			C17.7,41,6.9,51.8,6.9,65.1c0,4.5,1.3,8.8,3.5,12.4c-2.7,2.7-4.8,6-6.2,9.6c5.9,15.9,17.8,28.8,33,35.9c0,0,0.1,0,0.1,0
			c0,0,0.1,0.1,0.1,0.1c8.2,3.8,17.2,5.9,26.8,5.9c8.7,0,17-1.8,24.6-4.9c0.3-0.4,0.6-0.7,0.8-1.1c0.3,0.1,0.7,0.2,1,0.3
			C105.6,116.5,117.3,104.3,123.5,89.2z"/>
		<path fill="#FFFFFF" d="M64.3,129c23.6,0,44.3-12.8,55.4-31.9c-3.6-7.2-7.8-14.9-9-16.3c2.3-3.3,3.6-7.3,3.6-11.7
			c0-11.4-9.3-20.7-20.7-20.7c-2.8,0-5.5,0.6-7.9,1.6c-3.4-8.1-11.5-13.8-20.8-13.8c-9.4,0-17.4,5.7-20.8,13.8
			c-2.4-1-5.1-1.6-7.9-1.6c-11.4,0-20.7,9.3-20.7,20.7c0,3.9,1.1,7.5,3,10.6c-1.3,1.4-5.9,9.6-9.7,16.9C19.7,116,40.5,129,64.3,129z
			"/>
		<path fill="#FFD76D" d="M63,62.3c-5,0-25,20.7-29,26.7c-0.3,0.4-0.3,0.9-0.1,1.3c0.2,0.4,0.7,0.7,1.1,0.7h19.5l0,37.3
			c3.1,0.5,6.4,0.7,9.7,0.7c2.8,0,5.5-0.2,8.2-0.5l0-37.5L92,91c0.5,0,0.9-0.3,1.1-0.7c0.2-0.4,0.2-1-0.2-1.3
			C88.5,83.3,68,62.3,63,62.3z"/>
	</g>
	<path opacity="3.000000e-02" d="M25.3,41.7C14.7,44.3,6.9,53.8,6.9,65.1c0,4.5,1.3,8.8,3.5,12.4c-2.7,2.7-4.8,6-6.2,9.6
		c3.4,9.2,8.9,17.4,15.8,24.1c0.2,0.2,0.5,0.4,0.7,0.6c0.5,0.4,1,0.9,1.5,1.3c0.5,0.4,1,0.9,1.5,1.3c0.2,0.2,0.4,0.3,0.6,0.5
		c11,8.8,24.9,14.1,40.1,14.1c13.7,0,26.3-4.3,36.7-11.6C75.8,92.1,50.6,66.9,25.3,41.7z"/>
	<path opacity="0.5" fill="#FFFFFF" d="M115.4,103.5c1.5-2,3-4.2,4.3-6.4c0,0,0-0.1-0.1-0.1c1.5-2.5,2.8-5.1,3.9-7.9
		c-1.1-3.9-3.1-7.5-5.8-10.5c2.6-3.9,4.2-8.5,4.2-13.6c0-13.3-10.8-24.1-24.1-24.1c-3.3,0-6.4,0.7-9.2,1.8
		c-4-9.5-13.3-16.1-24.2-16.1c-7.1,0-13.6,2.9-18.3,7.5C69.3,57.3,92.4,80.4,115.4,103.5z"/>
</g>
</svg>
