<?xml version="1.0" encoding="utf-8"?>
<!-- Generator: Adobe Illustrator 18.0.0, SVG Export Plug-In . SVG Version: 6.00 Build 0)  -->
<!DOCTYPE svg PUBLIC "-//W3C//DTD SVG 1.1//EN" "http://www.w3.org/Graphics/SVG/1.1/DTD/svg11.dtd">
<svg version="1.1" id="Layer_1" xmlns="http://www.w3.org/2000/svg" xmlns:xlink="http://www.w3.org/1999/xlink" x="0px" y="0px"
	 viewBox="0 0 130 130" enable-background="new 0 0 130 130" xml:space="preserve">
<g>
	<g>
		<g>
			<g>
				<g>
					<g>
						<g>
							<circle fill="#F9CA62" cx="65" cy="65" r="64"/>
							<path fill="#FFD76D" d="M115.9,103.8C124.1,93,129,79.6,129,65c0-35.3-28.7-64-64-64C50.6,1,37.4,5.7,26.7,13.7
								C56.3,43.9,86.1,73.9,115.9,103.8z"/>
							<path fill="#ECB34B" d="M12.7,28.1C5.4,38.5,1,51.2,1,65c0,35.3,28.7,64,64,64c13.6,0,26.1-4.2,36.5-11.4
								C71.8,87.9,42.2,58.1,12.7,28.1z"/>
						</g>
					</g>
				</g>
			</g>
		</g>
	</g>
	<g>
		<path fill="#F04E3C" d="M23.8,95.6L89,113.7c6.7-2.6,12.8-6.4,18-11.1l16.2-52c-0.8-3.1-1.8-6-3.1-8.8L46.9,21.5L23.8,95.6z"/>
		<path fill="#FFFFFF" d="M17,103l72.3,21.2c7.5-3.1,14.2-7.5,20-13l1.5-5L23.6,80.5L17,103z"/>
		<path fill="#FFFFFF" d="M17,103l72.3,21.2c7.5-3.1,14.2-7.5,20-13l18-61c-0.8-3.6-2-7.1-3.4-10.4L42.7,16L17,103z M120.2,46.8
			L98.9,119L26.6,97.7l21.3-72.2L120.2,46.8z"/>
	</g>
	<g>
		<path fill="#8DCBCE" d="M99.5,110.1L113,48.4L32.9,31.6L18.5,97.4c5.4,7.4,12.6,13.4,20.9,17.5l28.6,6
			C79.7,120.5,90.6,116.5,99.5,110.1z"/>
		<path fill="#FFFFFF" d="M13,102.3c6,8.3,13.9,15.2,23.2,19.8l31.7,6.8c13.1-0.6,25.1-5.1,35-12.3l0.8-3.9l-88.8-19L13,102.3z"/>
		<g>
			<path fill="#FFFFFF" d="M87,125.1l-66.6-14.2c4.6,4.5,10,8.3,15.8,11.3l31.7,6.8C74.6,128.6,81,127.3,87,125.1z"/>
			<path fill="#FFFFFF" d="M102.8,116.6l15-69.7L29,27.9l-16,74.4c1.9,2.7,4,5.2,6.3,7.5L34.9,37l73.7,15.8l-14.9,69.4
				C96.9,120.6,100,118.7,102.8,116.6z"/>
		</g>
	</g>
	<g>
		<path fill="#FCB316" d="M6.5,90.9C16.4,113.3,38.9,129,65,129c11.8,0,22.8-3.2,32.3-8.8V48.7H6.5V90.9z"/>
		<path fill="#FFFFFF" d="M65,129c11.8,0,22.8-3.2,32.3-8.8V116h-71C37,124.1,50.4,129,65,129z"/>
		<path fill="#FFFFFF" d="M6.5,90.9c2.1,4.7,4.7,9,7.7,13V56.4h75.4v67.7c2.7-1.1,5.2-2.4,7.7-3.9V48.7H6.5V90.9z"/>
	</g>
	<g>
		<g>
			<path fill="#F9D8A5" d="M76,105.4c-0.4-1.1-0.3-3.1,0.3-3.5c1-0.8,2-1.1,2.3-4.1c0,0,0.1,0,0.1,0c0.7-0.3,1.5-1.6,1.2-2.6
				c-0.2-0.6-0.4-1-0.7-1.3c0-0.1-0.1-0.1-0.2-0.2c-0.1,0.5-0.2,1-0.3,1.5c0,0.1-0.6,0.1-0.6-0.1c0.1-1.8-0.5-4.2-0.5-4.2
				S71,88,72.3,89.5c0.2,0.2-3.1,0.3-4.5-0.6c-1.1-0.8-1.7,1.1-1.8,2c-0.1,1.3,0.1,3.2,0.1,4.1c0,0.3-0.7,0.3-0.7,0.3
				c-0.2-0.8-0.3-1.4-0.3-2c0,0.2,0,0.4,0,0.5c-0.1,0-0.1,0.1-0.2,0.1c-0.3,0.2-0.6,0.7-0.7,1.3c-0.3,1,0.5,2.3,1.2,2.6
				c0,0,0.1,0,0.1,0c0.3,3,1.2,3.3,2.3,4.1c0.6,0.5,0.7,2.5,0.3,3.5c-0.4,1-6.1,1.8-7.7,3.1c3,2.8,7,4.6,11.4,4.6
				c4.5,0,8.6-1.8,11.6-4.7C81.7,107.1,76.3,106.4,76,105.4z"/>
			<path fill="#5D2D0F" d="M79.1,89.7c0.4-2.7-1.7-5.7-1.7-5.7s0.1,0.7-0.8,1.1c0,0,0-0.1-0.1-0.1c-1.8-2.9-8.1-2.4-8.1-2.4
				s1.2,0.4,0.5,2.6c-0.7,0.1-1.3,0.2-1.7,0.2c-2.3,0.2-2.3-1-2.3-1s-0.7,3.4,0.2,5.9l0,0c-0.1,0.8-0.2,2.2,0.3,4.8
				c0,0,0.7,0.1,0.7-0.3c0-0.9-0.2-2.8-0.1-4.1c0.1-0.9,0.6-2.8,1.8-2c1.3,1,4.7,0.8,4.5,0.6C71,88,77.7,91,77.7,91s0.6,2.4,0.5,4.2
				c0,0.2,0.6,0.2,0.6,0.1C79.3,92.7,79.4,91.2,79.1,89.7z M79,89.4C79,89.4,79,89.4,79,89.4C79,89.4,79,89.4,79,89.4z M65.2,89.7
				L65.2,89.7L65.2,89.7z M65.2,89.8C65.2,89.8,65.2,89.8,65.2,89.8C65.2,89.8,65.2,89.8,65.2,89.8z M65.2,89.8
				C65.2,89.8,65.2,89.9,65.2,89.8C65.2,89.9,65.2,89.8,65.2,89.8z M65.1,90.2C65.1,90.2,65.1,90.2,65.1,90.2
				C65.1,90.2,65.1,90.2,65.1,90.2z M65.2,89.9C65.2,89.9,65.2,89.9,65.2,89.9C65.2,89.9,65.2,89.9,65.2,89.9z M65.2,90
				C65.1,90,65.1,90,65.2,90C65.1,90,65.1,90,65.2,90z M65.1,90.1C65.1,90.1,65.1,90.1,65.1,90.1C65.1,90.1,65.1,90.1,65.1,90.1z
				 M65.4,89.5C65.4,89.5,65.4,89.5,65.4,89.5C65.4,89.5,65.4,89.5,65.4,89.5z M65.3,89.6C65.3,89.6,65.3,89.6,65.3,89.6
				C65.3,89.6,65.3,89.6,65.3,89.6z M65.3,89.6C65.3,89.6,65.3,89.6,65.3,89.6C65.3,89.6,65.3,89.6,65.3,89.6z M65.3,89.6
				C65.3,89.6,65.3,89.6,65.3,89.6C65.3,89.6,65.3,89.6,65.3,89.6z M65.3,89.6C65.3,89.5,65.3,89.5,65.3,89.6
				C65.3,89.5,65.3,89.5,65.3,89.6z M65.3,89.5C65.3,89.5,65.3,89.5,65.3,89.5C65.3,89.5,65.3,89.5,65.3,89.5z M65.4,89.5
				C65.4,89.5,65.4,89.5,65.4,89.5C65.4,89.5,65.4,89.5,65.4,89.5z"/>
		</g>
		<path fill="#154270" d="M85,115.9c0.6-2.2-0.2-5.9-0.8-7.7c-0.5-1.6-7.9-2.3-8.3-3.4c-0.1-0.2-0.1,3.5-3.8,3.5
			c-3.7,0-3.6-3.7-3.7-3.5c-0.4,1.1-7.9,1.9-8.4,3.4c-0.6,1.9-1.4,5.5-0.8,7.7H85z"/>
	</g>
	<g>
		<path fill="#518E40" d="M68.4,115.9c0.9-2.2-0.3-5.5-1-6.5c-0.9-1.3-3.3-4.7-8.6-4.7c-5.3,0-7.8,3-8.6,4.8
			c-0.8,1.3-1.7,4.3-0.6,6.4H68.4z"/>
		<g>
			<g>
				<path fill="#C9AD39" d="M59.7,97.5c0.2,2.7-3.2,3.8-3.1,6.2c0.1,3.3-4.9,4-4.9,4s1.6-0.6,1.5-2.6c0-2.2-1.2-5,0.1-7
					C54.5,96.4,59.6,95.3,59.7,97.5z"/>
			</g>
			<g>
				<path fill="#C9AD39" d="M57.6,96.7c-0.2,2.7,3,3.3,2.9,5.6c-0.1,3.3,5.1,4.8,5.1,4.8s-1.6-0.9-1.6-2.9c0-2.2,1.2-4.9-0.1-6.9
					C62.8,95.6,57.7,94.5,57.6,96.7z"/>
			</g>
		</g>
		<g>
			<g>
				<path fill="#E3C95A" d="M58.6,91.8c0.2,2.7-5.4,5.4-5.3,7.7c0.1,3.3-2.6,2.5-2.6,2.5s1.6-0.6,1.5-2.6c0-2.2-1.2-5,0.1-7
					C53.4,90.7,58.4,89.7,58.6,91.8z"/>
			</g>
			<g>
				<path fill="#E3C95A" d="M58.5,91.8c-0.2,2.7,5.4,5.4,5.3,7.7c-0.1,3.3,2.6,2.5,2.6,2.5s-1.6-0.7-1.5-2.7c0-2.2,1.2-4.9-0.1-6.9
					C63.7,90.7,58.7,89.7,58.5,91.8z"/>
			</g>
		</g>
		<g>
			<path fill="#EFD3AC" d="M61.4,97.3l-2.8,0h0H55c0,0,1.6,6.8,0,8.6c-0.8,0.9,0.6,4.8,3.5,4.8c3.3-0.1,4.1-4.1,3.5-4.8
				C60.4,104,61.4,97.3,61.4,97.3z"/>
		</g>
		<path fill="#EFD3AC" d="M64.5,97.6c0,3.4-1.8,4.6-3.3,6c-0.9,0.8-1.5,1.6-2.7,1.6c-1.2,0-1.9-0.9-2.9-1.8
			c-1.5-1.4-2.7-2.4-2.8-5.7c0-1.1-0.3-3.1,0.2-4.2c0.9-1.9,3.1-2.6,5.6-2.6c2.4,0,4.3,1,5.3,2.6C64.4,94.4,64.5,96.4,64.5,97.6z"/>
		<g>
			<g>
				<path fill="#E3C95A" d="M59.2,88.5c0.2,3.1-0.9,5.6-6.1,6.2c-3.4,0.4,0.7,5.8,0.5,5.6c-1.4-1.3-3.8-3.6-3.9-5.8
					c0-2.4,0.1-3.4,1.8-5.6C52.8,87.3,59.1,86.1,59.2,88.5z"/>
			</g>
			<g>
				<path fill="#E3C95A" d="M55,88.5c0,5.8,7.3,1.7,9.1,6.2c1.2,3.1-0.6,6.2-0.4,6c1.4-1.3,3.8-4,3.8-6.2c0-2.4-0.2-3.3-1.8-5.6
					C63.9,86.6,55,84.7,55,88.5z"/>
			</g>
		</g>
	</g>
	<g>
		<g>
			<g>
				<g>
					<path fill="#010101" d="M43.5,91.8c-0.2,2.9,6.5,6,6.4,8.4c-0.1,3.4,2.3,3.2,2.1,3c-1.3-1.2-0.2-2.2-0.2-4.3
						c0-2.3,0.3-4.1-1-6.2C49.8,91,43.6,89.5,43.5,91.8z"/>
				</g>
			</g>
			<g>
				<g>
					<path fill="#010101" d="M43.6,94.3c-0.1,1.4-4.9,1.8-4.4,6.2c0.5,3.8-3,3.9-2.7,3.7c1.7-1.3,1-2.5,0.9-4.9
						c0-2.6-0.7-3.2,0.9-5.4C40.3,91.2,43.8,91.7,43.6,94.3z"/>
				</g>
			</g>
		</g>
		<g>
			<g>
				<path fill="#813090" d="M54.3,115.9c0.9-2.1-0.3-5.4-1-6.4c-0.9-1.3-3.3-4.7-8.5-4.7s-7.7,3-8.5,4.8c-0.8,1.3-1.7,4.3-0.6,6.3
					H54.3z"/>
				<path fill="#010101" d="M50.7,103c0-2.4,2.1-7.9,0.7-10.1c-0.9-1.3-4.9-0.8-6.7,0.6c-2-1.3-5.6-1.7-6.5-0.4
					c-1.5,2.2,0.7,7.9,0.8,10.3c0,2.2-4.2,3-4.2,3s8.2,4.2,7.8-4.5c-0.1-1.6,1.4-2.7,2.4-4.1c0.9,1,2,1.8,1.9,3.2
					c-0.9,8.9,6.9,5.6,6.9,5.6S50.7,105.2,50.7,103z"/>
				<g>
					<g>
						<g>
							<path fill="#F9D8A5" d="M47.9,98.1l-2.9,0h0h-3.6c0,0,1.6,7.1,0,8.9c-0.8,0.9,0.6,5,3.6,5c3.5-0.1,4.3-4.2,3.6-5
								C46.9,105.1,47.9,98.1,47.9,98.1z"/>
						</g>
						<g>
							<path fill="#F9D8A5" d="M44.9,112c-0.7,0-1.4-0.3-2.1-0.8c-0.7-0.6-1.1-1.2-1.3-1.7c-0.5-1-0.5-2.1-0.2-2.5
								c0.7-0.8,0.9-2.5,0.6-5.1c-0.2-2-0.6-3.7-0.6-3.8l0,0h3.6l3,0l0,0c0,0-0.3,1.8-0.3,3.7c-0.1,2.6,0.3,4.4,1,5.2
								c0.2,0.2,0.2,0.5,0.2,1c0,0.5-0.2,1-0.4,1.5c-0.3,0.7-0.7,1.2-1.2,1.7C46.5,111.7,45.8,111.9,44.9,112
								C44.9,112,44.9,112,44.9,112z M41.4,98.1c0,0.2,0.4,1.9,0.6,3.7c0.1,1.2,0.1,2.2,0.1,3c-0.1,1-0.3,1.8-0.7,2.2
								c-0.3,0.4-0.3,1.4,0.2,2.4c1,2.3,2.8,2.5,3.3,2.5c0,0,0,0,0.1,0c0.8,0,1.6-0.3,2.2-0.8c0.5-0.4,0.9-1,1.2-1.6
								c0.5-1.1,0.5-2.2,0.2-2.5c-0.5-0.5-1.1-1.9-1-5.2c0-1.8,0.3-3.5,0.3-3.7l-2.9,0H41.4z"/>
						</g>
					</g>
				</g>
			</g>
			<path fill="#F9D8A5" d="M51.2,98.5c0,3.5-1.9,4.8-3.5,6.3c-0.9,0.8-1.6,1.7-2.8,1.7c-1.3,0-2-0.9-3-1.9c-1.6-1.5-2.8-2.5-2.9-5.9
				c0-1.2-0.3-3.2,0.2-4.4c0.9-1.9,3.2-2.7,5.8-2.7c2.5,0,4.4,1.1,5.5,2.6C51.1,95.1,51.2,97.2,51.2,98.5z"/>
		</g>
		<path fill="#010101" d="M52.6,96.3c0.5-0.1,1-0.2,1.5-0.4c-0.5-0.1-1-0.4-1.4-0.7c0-0.1,0-0.1,0-0.2c0-2.3,0.3-4.1-1-6.2
			c-0.8-1.4-5.1-2.6-6.7-1.8c-0.3-0.1-0.5-0.1-0.8-0.2c-1.4-0.1-2.7,0.3-3.7,1c-1,0-2,0.5-2.8,1.5c-1.6,2.2-0.8,3.4-0.8,6
			c0,2.4,0.8,3.6-0.9,4.9c-0.2,0.2,1.4,0.2,2.2-1c-0.1,1.4-0.6,2.2-1.8,3.2c-0.3,0.2,4.2,0.3,3.7-3.5c-0.3-2.4,0.9-4.3,2.1-5.8
			c2.1,1.3,4.8,2.6,7.4,3.1c0.8,1.1,1.3,2.1,1.3,2.8c-0.1,3.4,2.4,2.6,2.2,2.4C52,100.5,52.4,98.2,52.6,96.3z"/>
	</g>
	<g>
		<g>
			<path fill="#B98E63" d="M36,104.3c-0.4-1-1.2-3-0.4-3.7c0,0,0,0,0,0c0.2-0.1,0.4-0.2,0.5-0.3c0,0,0,0,0.1,0h0
				c1.3-1,1.8-2.9,2.1-4.3c0.6-0.1,1.6-1,1.6-2c0-0.8-0.5-1.6-0.9-1.9c0.5-3,0.5-7.1-6.9-7.1c-6.9,0-7.3,3.9-6.8,7.1
				c-0.4,0.2-1,1-1,2c0,1,1,2,1.6,2c0.2,1.3,0.7,3.2,2.1,4.3h0c0.1,0.1,0.3,0.2,0.4,0.3c1.2,0.6,0.2,2.8-0.2,3.8
				c-0.4,1.1-8.1,1.9-8.7,3.5c-0.2,0.5-0.3,1.1-0.5,1.8c2.2,2.3,4.6,4.3,7.1,6.3h19.2c0.6-2.3-0.2-6.1-0.8-8.1
				C44.2,106.2,36.4,105.5,36,104.3z"/>
			<path fill="#5D2D0F" d="M33.5,86.4c3.4,0.2,4.3,3.1,4.3,3.1s0.6,2.4,0.5,4.2c0,0.2,0.6,0.2,0.6,0.1c0.6-3,0.7-4.6,0.1-6.3
				c0.3-2.2-0.2-3.6-1.6-3.5c-0.3-1.5-1.8-2.1-3.9-1.3c0.1-0.8-3.8-1.6-5.9,0.7c-3-0.6-2.1,4.6-2.1,4.6s-0.9,1,0.1,5.7
				c0,0,0.7,0.1,0.7-0.3c0-0.9-0.2-2.8-0.1-4.1c0.1-0.9,0.6-2.8,1.8-2C29.2,88.4,31.3,86.2,33.5,86.4z"/>
		</g>
		<path fill="#154270" d="M36,104.3c-0.1-0.2,0,3.6-3.8,3.6c-3.8,0-3.8-3.8-3.8-3.6c-0.4,1.1-8.1,1.9-8.7,3.5
			c-0.2,0.5-0.3,1.1-0.5,1.8c2.2,2.3,4.6,4.3,7.1,6.3h19.2c0.6-2.3-0.2-6.1-0.8-8.1C44.2,106.2,36.4,105.5,36,104.3z"/>
	</g>
	<g>
		<path fill="none" d="M41,124.9c0,0.1,0,0.3-0.1,0.4c0,0.1,0,0.2,0,0.4c0,0.2,0,0.3,0.1,0.4c0,0.1,0.1,0.2,0.2,0.2c0,0,0.1,0,0.2,0
			c0.1,0,0.1-0.1,0.2-0.1c0.1,0,0.1-0.1,0.2-0.1c0.1-0.1,0.1-0.1,0.2-0.2c0.1-0.1,0.2-0.2,0.3-0.3c0-0.2,0-0.4-0.1-0.5
			c-0.4-0.1-0.8-0.3-1.1-0.4l0,0C41.1,124.6,41.1,124.7,41,124.9z"/>
		<path fill="none" d="M43.3,125.8c0,0.1,0.1,0.2,0.1,0.3c0.1,0.1,0.1,0.1,0.2,0.1c0.1,0,0.2,0,0.3,0c0.1,0,0.1,0,0.2,0
			c0.1,0,0.2-0.1,0.3-0.1c0.1-0.1,0.2-0.1,0.3-0.2c0,0,0.1,0,0.1-0.1c-0.5-0.2-1.1-0.4-1.6-0.6c0,0,0,0.1,0,0.1
			C43.2,125.5,43.2,125.7,43.3,125.8z"/>
		<path fill="none" d="M39.3,124.2c0,0.1,0,0.2,0,0.3c0,0.1,0,0.1,0,0.2c0,0.1,0,0.1,0,0.1h0.1c0,0,0-0.1,0.1-0.2
			c0-0.1,0.1-0.2,0.1-0.2c0-0.1,0.1-0.2,0.2-0.3c0-0.1,0.1-0.1,0.1-0.2c-0.1-0.1-0.3-0.1-0.4-0.2c0,0.1,0,0.1,0,0.2
			C39.3,124,39.3,124.1,39.3,124.2z"/>
		<path fill="#FFFFFF" d="M53.9,126.2c0,0.1,0.1,0.1,0.1,0.1c0,0,0.1,0.1,0.2,0.1c0.1,0,0.2,0,0.3-0.1c0.1-0.1,0.2-0.2,0.2-0.3
			c0.1-0.1,0.1-0.3,0.2-0.4c0-0.1,0.1-0.3,0.1-0.3l0.3-1.3c-0.1,0-0.2,0-0.4,0.1c-0.1,0.1-0.2,0.1-0.3,0.2c-0.1,0.1-0.2,0.2-0.3,0.3
			c-0.1,0.1-0.2,0.3-0.2,0.4c-0.1,0.1-0.1,0.3-0.1,0.4c0,0.1-0.1,0.3-0.1,0.4c0,0.1,0,0.1,0,0.2C53.9,126.1,53.9,126.1,53.9,126.2z"
			/>
		<path fill="#FFFFFF" d="M49.2,126.8c0-0.1-0.1-0.3-0.1-0.4c0,0-0.1,0.1-0.1,0.1c-0.1,0.1-0.3,0.2-0.4,0.3c-0.1,0-0.1,0.1-0.2,0.1
			c0.4,0.1,0.7,0.2,1.1,0.3c0,0,0,0,0,0C49.3,127,49.2,126.9,49.2,126.8z"/>
		<path fill="#FFFFFF" d="M26.1,116c3.8,2.9,8,5.4,12.4,7.4c0-0.1,0.1-0.2,0.1-0.2c0.1-0.1,0.2-0.1,0.4-0.1c0.2,0,0.3,0,0.3,0.1
			c0.1,0.1,0.1,0.2,0.1,0.4c0,0,0,0.1,0,0.2c0,0,0,0,0,0c0.1,0.1,0.3,0.1,0.4,0.2c0,0,0-0.1,0-0.1c0-0.1,0.1-0.2,0.1-0.3
			c0-0.1,0.1-0.1,0.1-0.2c0.1-0.2,0.2-0.3,0.3-0.3c0.1-0.1,0.3-0.1,0.4-0.1c0.1,0,0.3,0.1,0.3,0.2c0.1,0.1,0.1,0.3,0.1,0.5
			c0,0,0,0.1,0,0.2c0,0.1,0,0.2-0.1,0.3c0,0.1,0,0.2-0.1,0.3c0.4,0.2,0.8,0.3,1.1,0.4c0-0.2,0-0.4,0-0.6c0-0.2,0-0.4,0-0.6
			c0-0.2,0-0.4,0.1-0.6c-0.1,0-0.2,0-0.2,0c0,0-0.1,0-0.2,0c-0.1,0-0.1,0-0.2,0c-0.1,0-0.2,0-0.4,0c-0.1,0-0.1,0-0.2-0.1
			s-0.1-0.1-0.1-0.1s0-0.1,0-0.1s0-0.1,0-0.1c0-0.1,0-0.1,0.1-0.1c0.1,0,0.1-0.1,0.2-0.1c0.1,0,0.2,0,0.3,0c0.1,0,0.2,0,0.3,0
			c0.1,0,0.2,0,0.3,0c0.1,0,0.1,0,0.2,0c0.1-0.4,0.2-0.8,0.3-1.1c0.1-0.4,0.3-0.7,0.4-1c0.2-0.3,0.3-0.5,0.5-0.7
			c0.2-0.2,0.4-0.3,0.6-0.3c0.1,0,0.2,0,0.3,0.1c0.1,0.1,0.2,0.2,0.3,0.3c0.1,0.1,0.1,0.3,0.2,0.4c0,0.2,0.1,0.3,0.1,0.5
			c0,0.1,0,0.3-0.1,0.5c0,0.2-0.1,0.3-0.2,0.5c-0.1,0.2-0.2,0.3-0.2,0.5c-0.1,0.2-0.2,0.3-0.3,0.5c0,0,0.1,0,0.1,0
			c0.1,0,0.1,0,0.2,0c0.1,0,0.2,0,0.3,0c0.1,0,0.2,0,0.3,0c0.1,0,0.2,0,0.2,0c0.1,0,0.1,0,0.2,0c0.1,0,0.1,0,0.1,0.1
			c0,0.1,0,0.1,0,0.2c0,0.1,0,0.2-0.1,0.2c-0.1,0.1-0.1,0.1-0.2,0.1h-1.7c-0.1,0.1-0.2,0.2-0.3,0.3c-0.1,0.1-0.2,0.2-0.2,0.3
			c0,0.2,0,0.4,0,0.5c0,0.1,0,0.2,0,0.2c0,0.1,0,0.2,0,0.2s0,0.2,0,0.2c0,0,0,0.1,0,0.1c0.5,0.2,1.1,0.4,1.6,0.6
			c0.1-0.1,0.2-0.1,0.3-0.2c0.1-0.1,0.2-0.2,0.3-0.3c0,0,0,0,0,0c0-0.2,0-0.3,0-0.5s0.1-0.4,0.1-0.5c0.1-0.2,0.1-0.3,0.2-0.5
			c0.1-0.2,0.2-0.3,0.3-0.4c0.1-0.1,0.3-0.2,0.4-0.3c0.2-0.1,0.3-0.1,0.5-0.1c0.2,0,0.3,0,0.5,0.1c0.1,0.1,0.3,0.1,0.4,0.2
			c0.1,0.1,0.2,0.2,0.2,0.3c0.1,0.1,0.1,0.3,0.1,0.4c0,0.2,0,0.4-0.1,0.5c-0.1,0.2-0.2,0.4-0.4,0.5c-0.2,0.2-0.3,0.3-0.6,0.4
			c-0.2,0.1-0.5,0.2-0.7,0.3c0,0.1,0.1,0.1,0.1,0.2c0,0.1,0.1,0.1,0.1,0.1c0,0,0.1,0,0.1,0.1c0,0,0.1,0,0.2,0c0.2,0,0.4,0,0.6-0.1
			c0.2-0.1,0.4-0.2,0.6-0.3s0.4-0.2,0.5-0.3c0.1-0.1,0.2-0.1,0.2-0.2c0,0,0-0.1,0-0.2c0-0.2,0-0.3,0-0.4c0-0.1,0-0.3,0-0.4
			c0-0.1,0-0.2,0-0.3c0-0.3,0-0.5,0-0.7c0-0.2,0.1-0.3,0.2-0.3l0.5-0.1c0,0,0,0,0,0c0,0,0,0,0,0c0.1,0,0.2,0,0.2,0.1
			c0.1,0.1,0.1,0.1,0.1,0.2l-0.2,2.8l0.1,0l1.2-2.7c0,0,0-0.1,0.1-0.1c0,0,0.1-0.1,0.1-0.1c0,0,0.1-0.1,0.2-0.1c0.1,0,0.1,0,0.2,0
			c0.2,0,0.3,0,0.4,0.1c0.1,0.1,0.2,0.2,0.2,0.3c0,0.1,0,0.2,0,0.2c0,0.1-0.1,0.2-0.1,0.2c0,0.1-0.1,0.2-0.1,0.3s-0.1,0.2-0.2,0.4
			c0,0.1,0,0.1-0.1,0.2c0,0,0,0.1,0,0.2c0,0.1,0,0.1,0,0.2c0,0.1,0,0.1,0,0.2c0,0.1,0,0.1,0.1,0.2s0.1,0.1,0.2,0.1
			c0.1,0,0.2,0,0.3,0c0.1,0,0.2,0,0.3-0.1c0.1,0,0.2-0.1,0.2-0.1c0,0,0-0.1,0-0.1c0.1-0.2,0.1-0.5,0.3-0.7c0.1-0.2,0.2-0.4,0.4-0.6
			c0.1-0.2,0.3-0.4,0.5-0.5c0.2-0.1,0.4-0.3,0.6-0.3c0.2-0.1,0.4-0.1,0.6-0.1c0.1,0,0.1,0,0.2,0c0,0,0.1,0.1,0.1,0.1
			c0,0,0,0.1,0.1,0.1c0,0,0.1,0.1,0.1,0.1c0,0,0.1,0,0.1,0c0,0,0.1,0,0.1,0c0,0,0.1,0,0.1,0c0,0,0.1,0,0.1,0c0,0,0.1,0,0.1,0
			c0,0,0.1,0,0.1,0.1c0,0,0.1,0.1,0.1,0.1c0,0.1,0,0.1,0,0.2c0,0.1,0,0.3,0,0.5c0,0.2-0.1,0.3-0.1,0.5c0,0.2-0.1,0.4-0.1,0.5
			c0,0.2,0,0.3,0,0.5c0,0.1,0,0.2,0,0.3c0,0.1,0.1,0.1,0.2,0.1c0.1,0,0.1,0,0.2,0c0.1,0,0.1-0.1,0.2-0.1c0.1,0,0.1-0.1,0.2-0.2
			c0.1-0.1,0.1-0.1,0.2-0.2c0.1-0.2,0.3-0.3,0.4-0.5l0.2,1c-0.1,0.1-0.2,0.2-0.3,0.3c-0.1,0.1-0.2,0.2-0.4,0.4
			c-0.1,0.1-0.3,0.2-0.5,0.3c-0.2,0.1-0.3,0.1-0.5,0.1c-0.2,0-0.4-0.1-0.5-0.2s-0.2-0.3-0.3-0.5c-0.1,0.1-0.2,0.2-0.3,0.2
			c-0.1,0.1-0.2,0.2-0.3,0.2s-0.2,0.1-0.4,0.2c-0.1,0-0.3,0.1-0.4,0.1c-0.1,0-0.3,0-0.4-0.1c-0.1-0.1-0.3-0.1-0.4-0.2
			c-0.1-0.1-0.2-0.2-0.2-0.4c0,0,0-0.1,0-0.1c0,0-0.1,0-0.1,0.1c-0.2,0.1-0.4,0.1-0.6,0.1c-0.2,0-0.3,0-0.4-0.1
			c-0.1,0-0.2-0.1-0.3-0.2c-0.1-0.1-0.2-0.2-0.2-0.3c0-0.1-0.1-0.2-0.1-0.3c-0.1,0.2-0.2,0.4-0.3,0.5c-0.1,0.2-0.2,0.3-0.3,0.5
			c-0.1,0.1-0.2,0.3-0.3,0.4c-0.1,0.1-0.2,0.1-0.3,0.1c4.8,1.1,9.8,1.8,14.9,1.8c11.8,0,22.8-3.2,32.3-8.8V116H26.1z M62.8,126.6
			c0,0.1,0,0.1-0.1,0.2c0,0.1-0.1,0.1-0.1,0.2c0,0.1-0.1,0.1-0.2,0.1c-0.1,0-0.2,0.1-0.3,0.1c-0.1,0-0.2,0-0.3,0
			c-0.1,0-0.2-0.1-0.3-0.1c-0.1,0-0.2-0.1-0.3-0.1c-0.1-0.1-0.2-0.1-0.3-0.2c-0.2,0.1-0.3,0.2-0.5,0.3c-0.2,0.1-0.4,0.1-0.6,0.1
			c-0.2,0-0.3,0-0.4-0.1c-0.1-0.1-0.2-0.1-0.3-0.2c-0.1-0.1-0.2-0.2-0.2-0.3c-0.1-0.1-0.1-0.2-0.1-0.4c0-0.1,0-0.2,0-0.3
			c0-0.1,0.1-0.2,0.2-0.3c0.1-0.1,0.2-0.2,0.3-0.2c0.1-0.1,0.2-0.1,0.4-0.1c0.2,0,0.4,0,0.6,0.1c0.2,0.1,0.3,0.1,0.5,0.2
			c0.1-0.1,0.2-0.2,0.2-0.3c0.1-0.1,0.1-0.2,0.2-0.4c0.1-0.1,0.1-0.3,0.1-0.4c0-0.1,0.1-0.3,0.1-0.4c0-0.2,0-0.4-0.1-0.5
			c0-0.1-0.1-0.2-0.2-0.3c-0.1-0.1-0.1-0.1-0.2-0.2c-0.1,0-0.2,0-0.2,0c-0.1,0-0.2,0-0.3,0c-0.1,0-0.2,0.1-0.2,0.1
			c-0.1,0.1-0.1,0.1-0.2,0.2c0,0.1-0.1,0.2-0.1,0.3c0,0.1,0,0.1,0.1,0.2c0.1,0.1,0.2,0.1,0.4,0.2c0,0,0,0,0,0c0,0,0,0.1-0.1,0.1
			c-0.1,0-0.2,0.1-0.3,0.1c-0.1,0-0.2,0.1-0.3,0.1c-0.1,0-0.2,0-0.3,0c0,0,0,0-0.1,0c0,0,0,0-0.1,0c-0.1-0.1-0.2-0.2-0.3-0.3
			c-0.1-0.1-0.1-0.2-0.1-0.4c0-0.2,0-0.3,0.1-0.5c0.1-0.2,0.2-0.3,0.4-0.4c0.2-0.1,0.3-0.2,0.6-0.3c0.2-0.1,0.4-0.1,0.7-0.1
			c0.1,0,0.1,0,0.3,0c0.1,0,0.2,0,0.3,0.1c0.1,0,0.2,0.1,0.4,0.2c0.1,0.1,0.2,0.2,0.3,0.3c0.1,0.1,0.2,0.3,0.3,0.4
			c0.1,0.2,0.1,0.4,0.1,0.6c0,0.1,0,0.3-0.1,0.5c0,0.2-0.1,0.4-0.2,0.6c-0.1,0.2-0.2,0.4-0.3,0.6c-0.1,0.2-0.3,0.4-0.4,0.6
			c0.1,0,0.2,0.1,0.3,0.1c0.1,0,0.2,0,0.4,0c0,0,0.1,0,0.1-0.1c0,0,0.1-0.1,0.1-0.2c0-0.1,0.1-0.1,0.1-0.2c0,0,0.1-0.1,0.1-0.1
			c0,0,0.1,0,0.1,0c0,0,0,0.1,0,0.2C62.9,126.3,62.8,126.4,62.8,126.6z M66.4,125c0,0.2-0.1,0.4-0.2,0.7c-0.1,0.2-0.2,0.4-0.3,0.6
			c-0.1,0.2-0.3,0.4-0.4,0.5c-0.2,0.1-0.3,0.3-0.5,0.3c-0.2,0.1-0.4,0.1-0.6,0.1c-0.2,0-0.4,0-0.6-0.1c-0.2-0.1-0.3-0.2-0.4-0.4
			c-0.1-0.2-0.2-0.4-0.2-0.6c-0.1-0.2-0.1-0.4-0.1-0.7c0-0.2,0-0.4,0.1-0.7c0-0.2,0.1-0.4,0.2-0.6c0.1-0.2,0.2-0.4,0.3-0.6
			c0.1-0.2,0.2-0.3,0.4-0.5c0.1-0.1,0.3-0.2,0.5-0.3c0.2-0.1,0.4-0.1,0.6-0.1c0.2,0,0.5,0,0.6,0.1c0.2,0.1,0.3,0.2,0.4,0.4
			c0.1,0.2,0.2,0.3,0.3,0.5c0.1,0.2,0.1,0.4,0.1,0.7C66.5,124.5,66.5,124.7,66.4,125z M69.2,122.9c0,0.1,0,0.1,0,0.2
			c0,0.2-0.1,0.4-0.1,0.6c0,0.2-0.1,0.4-0.1,0.6c0,0.2-0.1,0.4-0.1,0.7s-0.1,0.4-0.1,0.6c0,0.2-0.1,0.4-0.1,0.5c0,0,0,0.1,0,0.2
			c0,0.1,0,0.1-0.1,0.2c0,0.1-0.1,0.2-0.1,0.3c0,0.1-0.1,0.2-0.1,0.2c0,0.1-0.1,0.1-0.2,0.2s-0.1,0.1-0.2,0.1c-0.1,0-0.2,0-0.3,0
			c-0.1,0-0.2,0-0.2-0.1c-0.1,0-0.1-0.1-0.1-0.1c0,0-0.1-0.1-0.1-0.1c0,0,0,0,0-0.1c0,0,0-0.1,0-0.1c0-0.2,0.1-0.3,0.1-0.5
			c0-0.2,0.1-0.4,0.1-0.5c0-0.2,0.1-0.4,0.1-0.5c0-0.2,0.1-0.3,0.1-0.5c0.1-0.4,0.1-0.7,0.2-1.1c0,0-0.1,0.1-0.1,0.1
			c-0.1,0-0.1,0.1-0.1,0.1c0,0-0.1,0.1-0.1,0.1c0,0-0.1,0-0.1,0c-0.3,0-0.5,0-0.6-0.1c-0.1,0-0.2-0.1-0.2-0.1c0,0,0-0.1,0.1-0.1
			c0.1,0,0.2,0,0.3,0c0,0,0.1,0,0.1-0.1c0.1,0,0.1-0.1,0.2-0.2c0.1-0.1,0.2-0.2,0.3-0.2c0.1-0.1,0.2-0.2,0.3-0.2
			c0.1-0.1,0.2-0.1,0.3-0.2c0.1,0,0.2-0.1,0.3-0.1c0.2,0,0.3,0,0.3,0c0.1,0,0.1,0.1,0.1,0.1C69.2,122.8,69.2,122.8,69.2,122.9z
			 M73,126.4c-0.1,0.2-0.2,0.3-0.4,0.4s-0.3,0.2-0.6,0.3c-0.2,0.1-0.5,0.1-0.7,0.1c-0.3,0-0.5,0-0.7-0.1c-0.2-0.1-0.4-0.1-0.5-0.2
			c-0.1-0.1-0.2-0.2-0.3-0.4c-0.1-0.1-0.1-0.3-0.1-0.5c0-0.1,0-0.2,0.1-0.3c0-0.1,0.1-0.1,0.1-0.2c0.1,0,0.1-0.1,0.2-0.1
			c0.1,0,0.1,0,0.2,0c0.1,0,0.1,0,0.2,0c0.1,0,0.2,0,0.2,0.1c0.1,0,0.1,0.1,0.2,0.1c0,0,0.1,0.1,0.1,0.1c0,0,0,0-0.1,0.1
			c0,0-0.1,0-0.2,0.1c-0.1,0-0.1,0.1-0.2,0.1c0,0-0.1,0.1-0.1,0.2c0,0.1,0,0.2,0,0.3c0,0.1,0,0.1,0.1,0.2c0,0,0.1,0.1,0.1,0.1
			c0,0,0.1,0,0.2,0c0.1,0,0.2,0,0.3-0.1c0.1,0,0.2-0.1,0.3-0.2s0.1-0.2,0.2-0.3c0.1-0.1,0.1-0.2,0.1-0.3c0-0.1,0-0.3-0.1-0.4
			c0-0.1-0.1-0.2-0.2-0.2c-0.1-0.1-0.2-0.1-0.3-0.1c-0.1,0-0.3-0.1-0.4-0.1c-0.1,0-0.2,0-0.2,0c-0.1,0-0.1,0-0.1,0
			c0,0-0.1,0-0.1-0.1c0,0,0-0.1-0.1-0.2c0-0.1,0-0.2,0-0.3c0-0.1,0-0.3,0-0.4c0-0.1,0-0.2,0-0.2c0-0.1,0-0.1,0-0.2
			c0-0.2,0-0.4,0-0.5c0-0.1,0.1-0.2,0.1-0.2c0,0,0.1-0.1,0.1-0.1h0.1c0.1,0,0.2,0,0.3,0c0.1,0,0.2,0,0.3,0.1c0.1,0,0.2,0,0.3,0.1
			c0.1,0,0.2,0,0.3,0c0,0,0.1,0,0.1,0c0,0,0.1,0,0.1,0c0.1,0,0.2-0.1,0.3-0.1c0.1,0,0.1,0,0.1,0c0,0,0,0,0,0c0,0,0,0,0.1,0
			c0.1,0,0.2,0.1,0.2,0.2c0,0.1,0.1,0.2,0.1,0.4v0c0,0,0,0,0,0.1c0,0,0,0.1-0.1,0.1c0,0-0.1,0.1-0.2,0.1c-0.1,0-0.2,0.1-0.3,0.1
			c-0.1,0-0.3,0.1-0.5,0.1c-0.1,0-0.2,0-0.3,0c-0.1,0-0.2,0-0.2,0c-0.1,0-0.1,0-0.2,0s-0.1,0-0.1,0c0,0,0,0-0.1,0c0,0,0,0-0.1,0
			c0,0.1,0,0.1,0,0.2c0,0.1,0,0.1,0,0.2c0,0.1,0,0.2,0.1,0.3c0.2,0,0.3,0,0.5,0c0.3,0,0.5,0,0.7,0.1s0.4,0.1,0.5,0.2
			c0.1,0.1,0.2,0.2,0.3,0.3c0.1,0.1,0.1,0.2,0.2,0.3c0,0.1,0.1,0.2,0.1,0.3c0,0.1,0,0.2,0,0.3C73.2,126.1,73.1,126.2,73,126.4z"/>
		<path fill="#FFFFFF" d="M47.2,124.9c0.1-0.1,0.2-0.2,0.3-0.3c0.1-0.1,0.1-0.2,0.1-0.3c0-0.1,0-0.2-0.1-0.3c0-0.1-0.1-0.1-0.2-0.1
			c-0.1,0-0.2,0-0.3,0.1c-0.1,0-0.2,0.1-0.2,0.2c-0.1,0.1-0.1,0.2-0.1,0.3c0,0.1-0.1,0.2-0.1,0.3s0,0.2,0,0.3c0,0.1,0,0.2,0,0.2
			c0.1,0,0.2,0,0.3-0.1C47,125,47.1,124.9,47.2,124.9z"/>
		<path fill="#FFFFFF" d="M65.3,123.6c0-0.1-0.1-0.1-0.1-0.2c0,0-0.1-0.1-0.2-0.1c-0.1,0-0.2,0-0.2,0.1c-0.1,0.1-0.1,0.2-0.2,0.3
			c-0.1,0.1-0.1,0.3-0.2,0.4c-0.1,0.2-0.1,0.3-0.1,0.5c0,0.2-0.1,0.3-0.1,0.5c0,0.2,0,0.3,0,0.4c0,0.1,0,0.2,0,0.3
			c0,0.1,0,0.2,0.1,0.3c0,0.1,0.1,0.1,0.1,0.2c0,0,0.1,0.1,0.1,0.1c0.1,0,0.2,0,0.2-0.1c0.1-0.1,0.1-0.2,0.2-0.3
			c0.1-0.1,0.1-0.3,0.2-0.4c0.1-0.2,0.1-0.3,0.1-0.5c0-0.2,0.1-0.3,0.1-0.5c0-0.2,0-0.3,0-0.4c0-0.1,0-0.2,0-0.3
			C65.4,123.8,65.4,123.7,65.3,123.6z"/>
		<path fill="#FFFFFF" d="M43.5,122.5c0.1-0.1,0.2-0.3,0.3-0.5c0.1-0.2,0.2-0.3,0.3-0.5c0.1-0.2,0.1-0.3,0.2-0.5
			c0-0.1,0.1-0.3,0.1-0.4c0,0,0-0.1,0-0.1c0,0,0-0.1,0-0.1s0-0.1-0.1-0.1c0,0-0.1,0-0.1,0c-0.1,0-0.2,0.1-0.2,0.2
			c-0.1,0.1-0.2,0.3-0.2,0.5c-0.1,0.2-0.1,0.4-0.2,0.7c-0.1,0.3-0.1,0.5-0.2,0.7c0,0,0.1,0,0.1,0C43.4,122.5,43.5,122.5,43.5,122.5z
			"/>
		<path fill="#FFFFFF" d="M60,126c-0.1,0-0.2,0-0.3,0c-0.1,0-0.1,0.1-0.1,0.1c0,0,0,0.1,0,0.1c0,0,0,0,0.1,0.1c0,0,0.1,0,0.1,0
			c0,0,0.1,0,0.1,0c0.1,0,0.3-0.1,0.4-0.2c-0.1,0-0.1-0.1-0.2-0.1C60.1,126,60.1,126,60,126z"/>
		<path d="M38,126.3l0-0.7c0,0,0,0,0,0C38,125.9,38,126.1,38,126.3z"/>
		<path d="M49.8,127.2C49.8,127.2,49.8,127.2,49.8,127.2c-0.1,0-0.2-0.1-0.4-0.1C49.5,127.2,49.6,127.2,49.8,127.2z"/>
		<path d="M43.2,125.2c0-0.1,0-0.1,0-0.2s0-0.2,0-0.2c0-0.1,0-0.2,0-0.2c0-0.2,0-0.4,0-0.5c0.1-0.1,0.2-0.2,0.2-0.3
			c0.1-0.1,0.2-0.2,0.3-0.3h1.7c0.1,0,0.1,0,0.2-0.1c0.1-0.1,0.1-0.1,0.1-0.2c0-0.1,0-0.2,0-0.2c0-0.1-0.1-0.1-0.1-0.1
			c0,0-0.1,0-0.2,0c-0.1,0-0.2,0-0.2,0c-0.1,0-0.2,0-0.3,0c-0.1,0-0.2,0-0.3,0c-0.1,0-0.2,0-0.2,0c-0.1,0-0.1,0-0.1,0
			c0.1-0.2,0.2-0.3,0.3-0.5c0.1-0.2,0.2-0.3,0.2-0.5c0.1-0.2,0.1-0.3,0.2-0.5c0-0.2,0.1-0.3,0.1-0.5c0-0.2,0-0.3-0.1-0.5
			c0-0.2-0.1-0.3-0.2-0.4c-0.1-0.1-0.2-0.2-0.3-0.3c-0.1-0.1-0.2-0.1-0.3-0.1c-0.2,0-0.4,0.1-0.6,0.3c-0.2,0.2-0.3,0.4-0.5,0.7
			c-0.2,0.3-0.3,0.6-0.4,1c-0.1,0.4-0.2,0.7-0.3,1.1c0,0-0.1,0-0.2,0c-0.1,0-0.2,0-0.3,0c-0.1,0-0.2,0-0.3,0c-0.1,0-0.2,0-0.3,0
			c-0.1,0-0.2,0-0.2,0.1c-0.1,0-0.1,0.1-0.1,0.1c0,0,0,0.1,0,0.1s0,0.1,0,0.1s0,0.1,0.1,0.1s0.1,0,0.2,0.1c0.2,0,0.3,0,0.4,0
			c0.1,0,0.2,0,0.2,0c0.1,0,0.1,0,0.2,0c0,0,0.1,0,0.2,0c0,0.2,0,0.4-0.1,0.6c0,0.2,0,0.4,0,0.6c0,0.2,0,0.4,0,0.6
			c0.3,0.1,0.6,0.2,1,0.4C43.2,125.2,43.2,125.2,43.2,125.2z M43.4,121.8c0.1-0.3,0.1-0.5,0.2-0.7c0.1-0.2,0.1-0.4,0.2-0.5
			c0.1-0.1,0.2-0.2,0.2-0.2c0.1,0,0.1,0,0.1,0c0,0,0.1,0.1,0.1,0.1s0,0.1,0,0.1c0,0,0,0.1,0,0.1c0,0.1,0,0.2-0.1,0.4
			c0,0.1-0.1,0.3-0.2,0.5c-0.1,0.2-0.2,0.3-0.3,0.5c-0.1,0.2-0.2,0.3-0.3,0.5c0,0-0.1,0-0.1,0c0,0-0.1,0-0.1,0
			C43.3,122.2,43.4,122,43.4,121.8z"/>
		<path d="M41.2,124.1c0-0.1,0-0.2,0.1-0.3c0-0.1,0-0.1,0-0.2c0-0.2,0-0.4-0.1-0.5c-0.1-0.1-0.2-0.2-0.3-0.2c-0.1,0-0.3,0-0.4,0.1
			c-0.1,0.1-0.2,0.2-0.3,0.3c0,0-0.1,0.1-0.1,0.2c0,0.1-0.1,0.2-0.1,0.3c0,0,0,0.1,0,0.1c0.4,0.2,0.9,0.4,1.3,0.6
			C41.1,124.3,41.2,124.2,41.2,124.1z"/>
		<path d="M39.4,123.7c0-0.1,0-0.1,0-0.2c0-0.2,0-0.3-0.1-0.4c-0.1-0.1-0.2-0.1-0.3-0.1c-0.2,0-0.3,0-0.4,0.1
			c-0.1,0.1-0.1,0.1-0.1,0.2C38.8,123.5,39.1,123.6,39.4,123.7C39.4,123.7,39.4,123.7,39.4,123.7z"/>
		<path d="M50.4,126.7c0.1-0.1,0.2-0.3,0.3-0.5c0.1-0.2,0.2-0.4,0.3-0.5c0,0.1,0,0.2,0.1,0.3c0,0.1,0.1,0.2,0.2,0.3
			c0.1,0.1,0.2,0.1,0.3,0.2c0.1,0,0.3,0.1,0.4,0.1c0.2,0,0.4,0,0.6-0.1c0,0,0.1,0,0.1-0.1c0,0,0,0.1,0,0.1c0.1,0.2,0.1,0.3,0.2,0.4
			c0.1,0.1,0.2,0.2,0.4,0.2c0.1,0.1,0.3,0.1,0.4,0.1c0.1,0,0.3,0,0.4-0.1c0.1,0,0.3-0.1,0.4-0.2s0.2-0.1,0.3-0.2
			c0.1-0.1,0.2-0.2,0.3-0.2c0.1,0.2,0.2,0.4,0.3,0.5s0.3,0.2,0.5,0.2c0.2,0,0.3,0,0.5-0.1c0.2-0.1,0.3-0.2,0.5-0.3
			c0.1-0.1,0.3-0.2,0.4-0.4c0.1-0.1,0.2-0.2,0.3-0.3l-0.2-1c-0.1,0.2-0.3,0.4-0.4,0.5c-0.1,0.1-0.1,0.1-0.2,0.2
			c-0.1,0.1-0.1,0.1-0.2,0.2c-0.1,0-0.1,0.1-0.2,0.1c-0.1,0-0.1,0-0.2,0c-0.1,0-0.1,0-0.2-0.1c0-0.1,0-0.2,0-0.3c0-0.2,0-0.3,0-0.5
			c0-0.2,0.1-0.4,0.1-0.5c0-0.2,0.1-0.4,0.1-0.5c0-0.2,0-0.3,0-0.5c0-0.1,0-0.2,0-0.2c0-0.1,0-0.1-0.1-0.1c0,0-0.1,0-0.1-0.1
			c0,0-0.1,0-0.1,0c0,0-0.1,0-0.1,0c0,0-0.1,0-0.1,0c0,0-0.1,0-0.1,0c0,0-0.1,0-0.1,0c0,0-0.1,0-0.1-0.1c0,0,0-0.1-0.1-0.1
			c0,0-0.1-0.1-0.1-0.1c0,0-0.1,0-0.2,0c-0.2,0-0.4,0-0.6,0.1c-0.2,0.1-0.4,0.2-0.6,0.3c-0.2,0.1-0.3,0.3-0.5,0.5
			c-0.1,0.2-0.3,0.4-0.4,0.6c-0.1,0.2-0.2,0.4-0.3,0.7c0,0,0,0.1,0,0.1c-0.1,0-0.2,0.1-0.2,0.1c-0.1,0-0.2,0.1-0.3,0.1
			c-0.1,0-0.2,0-0.3,0c-0.1,0-0.1-0.1-0.2-0.1s-0.1-0.1-0.1-0.2c0-0.1,0-0.1,0-0.2c0-0.1,0-0.1,0-0.2c0-0.1,0-0.1,0-0.2
			c0-0.1,0-0.1,0.1-0.2c0.1-0.1,0.1-0.3,0.2-0.4s0.1-0.2,0.1-0.3c0-0.1,0.1-0.2,0.1-0.2c0-0.1,0-0.1,0-0.2c0-0.1-0.1-0.2-0.2-0.3
			c-0.1-0.1-0.2-0.1-0.4-0.1c-0.1,0-0.1,0-0.2,0c-0.1,0-0.1,0-0.2,0.1c0,0-0.1,0.1-0.1,0.1c0,0,0,0.1-0.1,0.1l-1.2,2.7l-0.1,0
			l0.2-2.8c0-0.1,0-0.1-0.1-0.2c-0.1-0.1-0.1-0.1-0.2-0.1c0,0,0,0,0,0c0,0,0,0,0,0l-0.5,0.1c-0.1,0-0.2,0.1-0.2,0.3
			c0,0.2,0,0.4,0,0.7c0,0.1,0,0.2,0,0.3c0,0.1,0,0.2,0,0.4c0,0.1,0,0.3,0,0.4c0,0,0,0.1,0,0.2c-0.1,0.1-0.1,0.1-0.2,0.2
			c-0.2,0.1-0.3,0.2-0.5,0.3s-0.4,0.2-0.6,0.3c-0.2,0.1-0.4,0.1-0.6,0.1c-0.1,0-0.1,0-0.2,0c0,0-0.1,0-0.1-0.1c0,0-0.1-0.1-0.1-0.1
			c0-0.1-0.1-0.1-0.1-0.2c0.3-0.1,0.5-0.2,0.7-0.3c0.2-0.1,0.4-0.3,0.6-0.4c0.2-0.2,0.3-0.3,0.4-0.5c0.1-0.2,0.1-0.4,0.1-0.5
			c0-0.2,0-0.3-0.1-0.4c-0.1-0.1-0.1-0.2-0.2-0.3c-0.1-0.1-0.2-0.2-0.4-0.2c-0.1-0.1-0.3-0.1-0.5-0.1c-0.2,0-0.4,0-0.5,0.1
			c-0.2,0.1-0.3,0.2-0.4,0.3c-0.1,0.1-0.2,0.3-0.3,0.4c-0.1,0.2-0.2,0.3-0.2,0.5c-0.1,0.2-0.1,0.4-0.1,0.5s0,0.4,0,0.5c0,0,0,0,0,0
			c-0.1,0.1-0.2,0.2-0.3,0.3c-0.1,0.1-0.2,0.1-0.3,0.2c1.2,0.4,2.3,0.7,3.5,1c0.1,0,0.1-0.1,0.2-0.1c0.1-0.1,0.3-0.2,0.4-0.3
			c0,0,0.1-0.1,0.1-0.1c0,0.1,0,0.3,0.1,0.4c0,0.1,0.1,0.2,0.2,0.3c0,0,0,0,0,0c0.1,0,0.3,0.1,0.4,0.1c0.1,0,0.2-0.1,0.3-0.1
			C50.2,127,50.3,126.9,50.4,126.7z M53.9,125.4c0-0.1,0.1-0.3,0.1-0.4c0.1-0.1,0.1-0.3,0.2-0.4c0.1-0.1,0.2-0.2,0.3-0.3
			c0.1-0.1,0.2-0.2,0.3-0.2c0.1-0.1,0.2-0.1,0.4-0.1l-0.3,1.3c0,0.1,0,0.2-0.1,0.3c0,0.1-0.1,0.3-0.2,0.4c-0.1,0.1-0.1,0.2-0.2,0.3
			c-0.1,0.1-0.2,0.1-0.3,0.1c-0.1,0-0.1,0-0.2-0.1c0,0-0.1-0.1-0.1-0.1c0-0.1,0-0.1-0.1-0.2c0-0.1,0-0.1,0-0.2
			C53.8,125.7,53.9,125.5,53.9,125.4z M46.5,124.9c0-0.1,0-0.2,0-0.3s0-0.2,0.1-0.3c0-0.1,0.1-0.2,0.1-0.3c0.1-0.1,0.1-0.1,0.2-0.2
			c0.1,0,0.2-0.1,0.3-0.1c0.1,0,0.1,0,0.2,0.1c0,0.1,0.1,0.2,0.1,0.3c0,0.1,0,0.2-0.1,0.3c-0.1,0.1-0.2,0.2-0.3,0.3
			c-0.1,0.1-0.2,0.2-0.3,0.2c-0.1,0.1-0.2,0.1-0.3,0.1C46.5,125.1,46.5,125,46.5,124.9z"/>
		<path d="M62.7,126C62.7,126,62.7,126,62.7,126c-0.1,0.1-0.1,0.2-0.2,0.2c0,0.1-0.1,0.1-0.1,0.2c0,0-0.1,0.1-0.1,0.1
			c-0.1,0-0.2,0-0.4,0c-0.1,0-0.2-0.1-0.3-0.1c0.1-0.2,0.3-0.4,0.4-0.6c0.1-0.2,0.2-0.4,0.3-0.6c0.1-0.2,0.1-0.4,0.2-0.6
			c0-0.2,0.1-0.3,0.1-0.5c0-0.2,0-0.4-0.1-0.6c-0.1-0.2-0.2-0.3-0.3-0.4c-0.1-0.1-0.2-0.2-0.3-0.3c-0.1-0.1-0.3-0.1-0.4-0.2
			c-0.1,0-0.2-0.1-0.3-0.1c-0.1,0-0.2,0-0.3,0c-0.2,0-0.5,0-0.7,0.1c-0.2,0.1-0.4,0.2-0.6,0.3c-0.2,0.1-0.3,0.3-0.4,0.4
			c-0.1,0.2-0.1,0.3-0.1,0.5c0,0.1,0,0.2,0.1,0.4c0.1,0.1,0.1,0.2,0.3,0.3c0,0,0,0,0.1,0c0,0,0,0,0.1,0c0.1,0,0.2,0,0.3,0
			c0.1,0,0.2,0,0.3-0.1c0.1,0,0.2-0.1,0.3-0.1c0.1,0,0.1-0.1,0.1-0.1c0,0,0,0,0,0c-0.2-0.1-0.3-0.1-0.4-0.2
			c-0.1-0.1-0.1-0.1-0.1-0.2c0-0.1,0-0.2,0.1-0.3c0-0.1,0.1-0.1,0.2-0.2c0.1-0.1,0.1-0.1,0.2-0.1c0.1,0,0.2,0,0.3,0
			c0.1,0,0.2,0,0.2,0c0.1,0,0.2,0.1,0.2,0.2c0.1,0.1,0.1,0.2,0.2,0.3c0,0.1,0.1,0.3,0.1,0.5c0,0.1,0,0.3-0.1,0.4
			c0,0.1-0.1,0.3-0.1,0.4c-0.1,0.1-0.1,0.3-0.2,0.4c-0.1,0.1-0.2,0.2-0.2,0.3c-0.1-0.1-0.3-0.2-0.5-0.2c-0.2-0.1-0.4-0.1-0.6-0.1
			c-0.2,0-0.3,0-0.4,0.1c-0.1,0.1-0.2,0.1-0.3,0.2c-0.1,0.1-0.1,0.2-0.2,0.3c0,0.1,0,0.2,0,0.3c0,0.1,0,0.2,0.1,0.4
			c0.1,0.1,0.1,0.2,0.2,0.3c0.1,0.1,0.2,0.2,0.3,0.2c0.1,0.1,0.3,0.1,0.4,0.1c0.2,0,0.4-0.1,0.6-0.1c0.2-0.1,0.4-0.2,0.5-0.3
			c0.1,0.1,0.2,0.1,0.3,0.2c0.1,0.1,0.2,0.1,0.3,0.1c0.1,0,0.2,0.1,0.3,0.1c0.1,0,0.2,0,0.3,0c0.1,0,0.2,0,0.3-0.1
			c0.1,0,0.1-0.1,0.2-0.1c0-0.1,0.1-0.1,0.1-0.2c0-0.1,0-0.1,0.1-0.2c0-0.2,0.1-0.4,0.1-0.5C62.9,126.1,62.8,126,62.7,126
			C62.8,126,62.8,126,62.7,126z M60,126.4c0,0-0.1,0-0.1,0c0,0-0.1,0-0.1,0c0,0,0,0-0.1-0.1c0,0,0,0,0-0.1c0,0,0-0.1,0.1-0.1
			c0.1,0,0.1,0,0.3,0c0,0,0.1,0,0.2,0c0.1,0,0.1,0.1,0.2,0.1C60.2,126.3,60.1,126.4,60,126.4z"/>
		<path d="M66.2,123.1c-0.1-0.2-0.3-0.3-0.4-0.4c-0.2-0.1-0.4-0.1-0.6-0.1c-0.2,0-0.4,0-0.6,0.1c-0.2,0.1-0.3,0.2-0.5,0.3
			c-0.1,0.1-0.3,0.3-0.4,0.5c-0.1,0.2-0.2,0.4-0.3,0.6c-0.1,0.2-0.1,0.4-0.2,0.6c0,0.2-0.1,0.4-0.1,0.7c0,0.2,0,0.5,0.1,0.7
			c0.1,0.2,0.1,0.4,0.2,0.6c0.1,0.2,0.3,0.3,0.4,0.4c0.2,0.1,0.4,0.1,0.6,0.1c0.2,0,0.4,0,0.6-0.1c0.2-0.1,0.3-0.2,0.5-0.3
			c0.2-0.1,0.3-0.3,0.4-0.5c0.1-0.2,0.2-0.4,0.3-0.6c0.1-0.2,0.1-0.4,0.2-0.7c0-0.2,0.1-0.4,0.1-0.7c0-0.2,0-0.5-0.1-0.7
			C66.3,123.4,66.3,123.2,66.2,123.1z M65.4,124.6c0,0.2-0.1,0.3-0.1,0.5c0,0.2-0.1,0.3-0.1,0.5c-0.1,0.2-0.1,0.3-0.2,0.4
			c-0.1,0.1-0.1,0.2-0.2,0.3c-0.1,0.1-0.2,0.1-0.2,0.1c-0.1,0-0.1,0-0.1-0.1c0,0-0.1-0.1-0.1-0.2c0-0.1,0-0.2-0.1-0.3
			c0-0.1,0-0.2,0-0.3c0-0.1,0-0.3,0-0.4c0-0.2,0-0.3,0.1-0.5c0-0.2,0.1-0.3,0.1-0.5c0.1-0.2,0.1-0.3,0.2-0.4
			c0.1-0.1,0.1-0.2,0.2-0.3c0.1-0.1,0.2-0.1,0.2-0.1c0.1,0,0.1,0,0.2,0.1c0,0,0.1,0.1,0.1,0.2c0,0.1,0.1,0.2,0.1,0.3
			c0,0.1,0,0.2,0,0.3C65.4,124.3,65.4,124.5,65.4,124.6z"/>
		<path d="M68.8,122.6c-0.1,0-0.2,0-0.3,0.1c-0.1,0-0.2,0.1-0.3,0.2c-0.1,0.1-0.2,0.2-0.3,0.2c-0.1,0.1-0.2,0.2-0.3,0.2
			c-0.1,0.1-0.2,0.1-0.2,0.2c-0.1,0-0.1,0.1-0.1,0.1c-0.1,0-0.2,0-0.3,0c-0.1,0-0.1,0-0.1,0.1c0,0,0.1,0.1,0.2,0.1
			c0.1,0,0.4,0.1,0.6,0.1c0,0,0.1,0,0.1,0c0,0,0.1-0.1,0.1-0.1c0,0,0.1-0.1,0.1-0.1c0.1,0,0.1-0.1,0.1-0.1c-0.1,0.4-0.1,0.7-0.2,1.1
			c0,0.2-0.1,0.3-0.1,0.5c0,0.2-0.1,0.4-0.1,0.5c0,0.2-0.1,0.4-0.1,0.5c0,0.2-0.1,0.4-0.1,0.5c0,0,0,0.1,0,0.1c0,0,0,0,0,0.1
			c0,0.1,0,0.1,0.1,0.1c0,0,0.1,0.1,0.1,0.1c0.1,0,0.1,0,0.2,0.1c0.1,0,0.2,0,0.3,0c0.1,0,0.1,0,0.2-0.1s0.1-0.1,0.2-0.2
			c0-0.1,0.1-0.1,0.1-0.2c0-0.1,0.1-0.2,0.1-0.3c0-0.1,0-0.2,0.1-0.2c0-0.1,0-0.1,0-0.2c0-0.2,0-0.3,0.1-0.5c0-0.2,0.1-0.4,0.1-0.6
			s0.1-0.4,0.1-0.7c0-0.2,0.1-0.4,0.1-0.6c0-0.2,0.1-0.4,0.1-0.6c0-0.1,0-0.2,0-0.2c0-0.1,0-0.1,0-0.2c0,0,0-0.1-0.1-0.1
			C69.1,122.6,69,122.6,68.8,122.6z"/>
		<path d="M73.1,125.3c0-0.1-0.1-0.2-0.2-0.3c-0.1-0.1-0.2-0.2-0.3-0.3c-0.1-0.1-0.3-0.1-0.5-0.2s-0.4-0.1-0.7-0.1
			c-0.2,0-0.3,0-0.5,0c0-0.1,0-0.2-0.1-0.3c0-0.1,0-0.2,0-0.2c0-0.1,0-0.2,0-0.2c0,0,0,0,0.1,0c0,0,0,0,0.1,0c0.1,0,0.1,0,0.1,0
			s0.1,0,0.2,0c0.1,0,0.1,0,0.2,0c0.1,0,0.2,0,0.3,0c0.2,0,0.3-0.1,0.5-0.1c0.1,0,0.2-0.1,0.3-0.1c0.1,0,0.1-0.1,0.2-0.1
			c0,0,0.1-0.1,0.1-0.1c0,0,0,0,0-0.1v0c0-0.2,0-0.3-0.1-0.4c0-0.1-0.1-0.2-0.2-0.2c0,0-0.1,0-0.1,0c0,0,0,0,0,0c0,0-0.1,0-0.1,0
			c-0.1,0-0.1,0-0.3,0.1c0,0-0.1,0-0.1,0c0,0-0.1,0-0.1,0c-0.1,0-0.2,0-0.3,0c-0.1,0-0.2,0-0.3-0.1c-0.1,0-0.2,0-0.3-0.1
			c-0.1,0-0.2,0-0.3,0h-0.1c0,0-0.1,0-0.1,0.1c0,0-0.1,0.1-0.1,0.2c0,0.1,0,0.3,0,0.5c0,0.1,0,0.1,0,0.2c0,0.1,0,0.2,0,0.2
			c0,0.2,0,0.3,0,0.4c0,0.1,0,0.2,0,0.3c0,0.1,0,0.1,0.1,0.2c0,0,0.1,0.1,0.1,0.1c0,0,0.1,0,0.1,0c0.1,0,0.1,0,0.2,0
			c0.2,0,0.3,0,0.4,0.1c0.1,0,0.2,0.1,0.3,0.1c0.1,0.1,0.1,0.1,0.2,0.2c0,0.1,0.1,0.2,0.1,0.4c0,0.1,0,0.2-0.1,0.3
			c-0.1,0.1-0.1,0.2-0.2,0.3s-0.2,0.1-0.3,0.2c-0.1,0-0.2,0.1-0.3,0.1c-0.1,0-0.1,0-0.2,0c0,0-0.1-0.1-0.1-0.1c0,0-0.1-0.1-0.1-0.2
			c0-0.1,0-0.2,0-0.3c0-0.1,0-0.1,0.1-0.2c0,0,0.1-0.1,0.2-0.1c0.1,0,0.1,0,0.2-0.1c0,0,0.1,0,0.1-0.1c0,0,0-0.1-0.1-0.1
			c0,0-0.1-0.1-0.2-0.1c-0.1,0-0.2,0-0.2-0.1c-0.1,0-0.2,0-0.2,0c-0.1,0-0.2,0-0.2,0c-0.1,0-0.1,0.1-0.2,0.1c-0.1,0-0.1,0.1-0.1,0.2
			c0,0.1-0.1,0.2-0.1,0.3c0,0.2,0,0.3,0.1,0.5c0.1,0.1,0.1,0.3,0.3,0.4c0.1,0.1,0.3,0.2,0.5,0.2c0.2,0.1,0.4,0.1,0.7,0.1
			c0.3,0,0.5,0,0.7-0.1c0.2-0.1,0.4-0.2,0.6-0.3s0.3-0.3,0.4-0.4c0.1-0.2,0.1-0.3,0.1-0.5c0-0.1,0-0.2,0-0.3
			C73.1,125.5,73.1,125.4,73.1,125.3z"/>
	</g>
</g>
</svg>
