<?xml version="1.0" encoding="utf-8"?>
<!-- Generator: Adobe Illustrator 18.1.1, SVG Export Plug-In . SVG Version: 6.00 Build 0)  -->
<svg version="1.0" id="Layer_1" xmlns="http://www.w3.org/2000/svg" xmlns:xlink="http://www.w3.org/1999/xlink" x="0px" y="0px"
	 viewBox="0 0 130 130" enable-background="new 0 0 130 130" xml:space="preserve">
<g>
	<g>
		<path fill="#C0E5E8" d="M121.8,58.8c2.8-4,4.4-8.9,4.4-14.2c0-13.9-11.3-25.2-25.2-25.2c-3.4,0-6.7,0.7-9.6,1.9
			c-4.2-9.9-14-16.9-25.4-16.9c-11.4,0-21.2,7-25.4,16.9c-3-1.2-6.2-1.9-9.6-1.9C17,19.3,5.7,30.6,5.7,44.6c0,4.8,1.3,9.2,3.6,13
			C4.2,62.7,1,69.8,1,77.7c0,15.8,12.8,28.7,28.7,28.7c2.7,0,5.4-0.4,7.9-1.1c6.1,8.6,16.1,14.2,27.4,14.2
			c11.3,0,21.3-5.6,27.4-14.2c2.5,0.7,5.2,1.1,7.9,1.1c15.8,0,28.7-12.8,28.7-28.7C129,70.4,126.3,63.8,121.8,58.8z"/>
		<path fill="#EDF4F4" d="M115.3,67.5c2.4-3.6,3.9-7.9,3.9-12.6c0-12.3-10-22.3-22.3-22.3c-3,0-5.9,0.6-8.5,1.7
			C84.6,25.5,76,19.3,65.8,19.3c-10.1,0-18.8,6.2-22.5,14.9c-2.6-1.1-5.5-1.7-8.5-1.7c-12.3,0-22.3,10-22.3,22.3
			c0,4.2,1.2,8.1,3.2,11.5C11.2,71,8.4,77.3,8.4,84.2c0,14,11.4,25.4,25.4,25.4c2.4,0,4.8-0.4,7-1c5.4,7.6,14.2,12.6,24.3,12.6
			c10,0,18.9-5,24.3-12.6c2.2,0.6,4.6,1,7,1c14,0,25.4-11.4,25.4-25.4C121.6,77.8,119.2,71.9,115.3,67.5z"/>
		<path fill="#FFD76D" d="M64.5,59.8c-5.2,0-26.3,21.7-30.4,28c-0.3,0.4-0.3,0.9-0.1,1.4c0.2,0.4,0.7,0.7,1.2,0.7h20.5l0,37.1
			c0,0.1,0,0.2,0,0.4c2.9,1,6.1,1.5,9.3,1.5c3.3,0,6.4-0.5,9.3-1.5c0-0.1,0-0.2,0-0.4l0-37.1l20.5,0c0.5,0,1-0.3,1.2-0.8
			c0.2-0.5,0.2-1-0.2-1.4C91.2,81.9,69.7,59.8,64.5,59.8z"/>
	</g>
	<path opacity="0.4" fill="#FFFFFF" d="M114.3,102.7c8.8-4.9,14.7-14.3,14.7-25c0-7.3-2.7-13.9-7.2-18.9c2.8-4,4.4-8.9,4.4-14.2
		c0-13.9-11.3-25.2-25.2-25.2c-3.4,0-6.7,0.7-9.6,1.9c-4.2-9.9-14-16.9-25.4-16.9c-11.4,0-21.2,7-25.4,16.9c-3-1.2-6.2-1.9-9.6-1.9
		c0,0,0,0,0,0C58.7,47.1,86.5,74.9,114.3,102.7z"/>
	<path opacity="3.000000e-02" d="M11.6,28.3c-3.7,4.4-5.9,10.1-5.9,16.2c0,4.8,1.3,9.2,3.6,13C4.2,62.7,1,69.8,1,77.7
		C1,89.1,7.7,99,17.4,103.6c4.4,3.7,10.1,6,16.4,6c2.3,0,4.5-0.3,6.6-0.9c0.6,0.6,1.2,1.3,1.9,1.9c3.5,4.2,8.1,7.4,13.4,9.1l0,7.3
		c0,0.1,0,0.2,0,0.4c2.9,1,6.1,1.5,9.3,1.5c3.3,0,6.4-0.5,9.3-1.5c0-0.1,0-0.2,0-0.4l0-7.3c5.3-1.8,9.9-5,13.4-9.1
		c0.6-0.6,1.3-1.2,1.9-1.9c1,0.3,1.9,0.5,2.9,0.6L11.6,28.3z"/>
</g>
</svg>
