<?xml version="1.0" encoding="utf-8"?>
<!-- Generator: Adobe Illustrator 18.1.1, SVG Export Plug-In . SVG Version: 6.00 Build 0)  -->
<svg version="1.1" id="Layer_1" xmlns="http://www.w3.org/2000/svg" xmlns:xlink="http://www.w3.org/1999/xlink" x="0px" y="0px"
	 width="512px" height="512px" viewBox="0 0 512 512" enable-background="new 0 0 512 512" xml:space="preserve">
<g>
	<g>
		<g>
			<g>
				<g>
					<ellipse fill="#81C2C9" cx="256.6" cy="255.2" rx="244.1" ry="243.9"/>
					<path fill="#8CCACD" d="M450.8,402.9c31.3-41,49.9-92.2,49.9-147.7c0-134.7-109.3-243.9-244.1-243.9
						c-54.8,0-105.4,18.1-146.2,48.5C223.3,174.7,336.9,289,450.8,402.9z"/>
					<path fill="#74B8BB" d="M57.2,114.5C29,154.3,12.4,202.8,12.4,255.2c0,134.7,109.3,243.9,244.1,243.9
						c51.7,0,99.6-16.1,139.1-43.5C282.4,342.3,169.5,228.7,57.2,114.5z"/>
				</g>
			</g>
		</g>
	</g>
	<g>
		<path fill="#81C2C9" d="M370.1,346.3c1.1,0.3,2.3,0.7,3.4,1c-1.6-1.3-3.1-2.7-4.5-4.2C369.3,344.3,369.7,345.3,370.1,346.3z"/>
		<path fill="#81C2C9" d="M413.8,276.8c-0.1-0.4-0.1-0.7-0.2-1c0,0,0,0,0,0C413.7,276.1,413.7,276.4,413.8,276.8z"/>
		<path fill="#F8D6A4" d="M500.2,245.4c-9.5-4.1-44.5-18.9-36.5-9.9c1.3,1.4-22.8,2.4-32.6-4.7c-8.2-6-12.2,7.9-12.9,14.3
			c-1.1,9.6,0.8,23.5,0.5,29.9c-0.1,2.4-4.9,2.1-4.9,1.8c-0.1-0.3-0.1-0.7-0.2-1c-1.6,4.1-3.8,8.3-6.4,12.3c1.8,3.3,4.4,6,6.9,7
			c0.3,0.1,0.6,0.2,0.9,0.3c1.9,22.1,8.7,23.9,16.3,30c3.5,2.8,4.8,13.7,3.3,21.8c0.1-0.1,0.2-0.3,0.3-0.4
			c0.5-1.4,0.3,25.1,26.9,25.1c3.9,0,7.2-0.6,10-1.6c18.2-34.2,28.6-73.1,28.6-114.5C500.4,252.2,500.3,248.8,500.2,245.4z"/>
		<path fill="#5C2C0F" d="M494.6,204.3c-0.1-0.2-0.2-0.4-0.3-0.6c-13.3-21-58.6-17.5-58.6-17.5s9,3.1,3.4,18.7
			c-4.8,0.6-9.4,1.4-12.1,1.6c-16.7,1.4-17-7.5-17-7.5s-3.3,15.6-1.3,31.1c6.9,11.1,7.8,18.6,7.6,33.6c0,3.9-1,8-2.6,12.1
			c0.1,0.4,0.1,0.7,0.2,1c-0.1,0.2,4.8,0.6,4.9-1.8c0.3-6.4-1.6-20.3-0.5-29.9c0.7-6.4,4.7-20.3,12.9-14.3
			c9.8,7.1,33.8,6.1,32.6,4.7c-7.9-9,27,5.8,36.5,9.9c-0.6-13.9-2.3-27.6-5.2-40.8c-0.1,0-0.2,0.1-0.3,0.2
			C494.7,204.6,494.6,204.5,494.6,204.3z"/>
		<path fill="#16416F" d="M434.9,346.7c-0.1,0.1-0.2,0.3-0.3,0.4c-2.7,4.4-20.7,8-36.5,12.5c1.7,1.4,2.9,2.1,2.9,2.1
			s-1.4-0.4-3.8-1.3c9,7.4,14.6,15.4,17.9,20c3.3,4.7,8.2,27.5,9.8,51.5c18.7-17.9,34.6-38.7,46.9-61.7c-2.9,1-6.1,1.6-10,1.6
			C435.2,371.8,435.5,345.3,434.9,346.7z"/>
		<path fill="#518D40" d="M300.4,358.2c0.6,0.3,1.1,0.6,1.5,0.8c0.6-0.9,1.2-1.9,1.7-3C302.4,356.7,301.4,357.4,300.4,358.2z"/>
		<path fill="#518D40" d="M397.3,360.4c-5.4-2-15.7-6.3-23.9-13.1c-1.1-0.4-2.2-0.7-3.4-1c0.9,2.3,2.1,4.4,3.5,5.9
			c4.9,5.5-1.3,36.7-27.3,37.2c-18.5,0.4-29-21.2-28.5-32.2c-10.9,6.7-24.1,8.7-24.1,8.7s4-1.5,7.4-5.8c-1.2,0.4-2.9,1-5,1.6
			c-3.6,3.2-6.6,6.6-8.9,9.9c5.3,5.7,9,11,11.5,14.5c7.4,10.6,21.9,86.6,1.4,109.4c48.1-8.7,91.2-31.4,125.1-63.7
			c-1.6-24.1-6.5-46.8-9.8-51.5C412,375.8,406.3,367.8,397.3,360.4z"/>
		<path fill="#C7AC38" d="M324.5,334.4c-0.3-0.3-0.7-0.7-1-1c-7.9-7.5-14.9-13.5-18.8-24.5c-0.5,3.4-1.5,6-2.8,7.9
			c1,10,3.5,20.3,3.7,29.2c0.1,4.1-0.7,7.4-1.9,10c-0.5,1.1-1.1,2.1-1.7,3c0.6,0.3,1,0.5,1,0.5s-0.7,0.3-1.9,0.7
			c-3.4,4.3-7.4,5.8-7.4,5.8s13.3-2,24.1-8.7c0.1-2.2,0.6-4,1.5-5.1C322.5,348.5,324,342,324.5,334.4z"/>
		<path fill="#C7AC38" d="M388.7,339c0.1-6.7,1.6-14.1,2.7-21.5c-1.4-1.7-2.5-3.8-3.1-6.7c0,0,0,0,0,0
			c-5.1,10.7-13.4,17.3-21.1,24.1c0.4,3,1,5.7,1.7,8.3c1.4,1.5,2.9,2.9,4.5,4.2c8.2,6.7,18.5,11.1,23.9,13.1
			c2.3,0.9,3.8,1.3,3.8,1.3s-1.2-0.7-2.9-2.1C394.5,356.4,388.6,349.7,388.7,339z"/>
		<path fill="#EED1AA" d="M367.3,334.9c7.7-6.8,16-13.4,21.1-24.1c-0.5,0.5-1.1,1-1.6,1.5c-1.4,1.3,6.3-11.7,6.3-28.6
			c0-0.6,0-1.2-0.1-1.9c-0.2-5.2-1.1-10.8-3.3-16.4c-7.4-18.7-27-18.4-43.7-20.8c-6.4,10.4-19,17.9-41.8,20.6
			c-1.3,0.1-2.4,0.4-3.4,0.8c-0.6,7.9,0.4,16.8,0.6,22.8c0.1,4.2,0.5,7.9,1.1,11.3c3.2,5.5,5.8,9.2,5.3,8.7c-1.3-1.2-2.8-2.6-4.3-4
			c0.4,1.5,0.8,2.8,1.3,4.2c3.9,11,10.9,17,18.8,24.5c0.4,0.3,0.7,0.7,1,1c-0.5,7.6-2,14.2-5.3,17.9c-1,1.1-1.5,2.9-1.5,5.1
			c-0.5,11,10,32.6,28.5,32.2c26.1-0.6,32.3-31.7,27.3-37.2c-1.4-1.6-2.5-3.6-3.5-5.9c-0.4-1-0.8-2-1.1-3.2
			C368.2,340.6,367.7,337.8,367.3,334.9z"/>
		<path fill="#E2C859" d="M293.1,254.9c0,0.5,0,1.1,0,1.6c4,2.8,8.3,5,12.9,6.1c-4.3,1.8-8.9,3-13.7,3.7c-0.8,8-2,16.6-2.2,24.4
			c2,2.5,4.2,4.9,6.3,7.1c0.1,1.3,0.2,2.6,0.2,3.8c0.1,3.8-0.7,7-1.8,9.6c0.4,0.5,0.8,1,1.3,1.4c0.5,0.5-0.8,1.4-3,1.8
			c-3.5,5.4-8.5,7.3-8.5,7.3s11.4,3.2,17.1-5c1.3-1.9,2.4-4.5,2.8-7.9c-0.5-1.3-0.9-2.7-1.3-4.2c1.5,1.4,3,2.8,4.3,4
			c0.6,0.5-2.1-3.2-5.3-8.7c-0.6-3.4-1-7.1-1.1-11.3c-0.2-6-1.2-15-0.6-22.8c1-0.3,2.1-0.6,3.4-0.8c22.9-2.7,35.4-10.2,41.8-20.6
			c16.7,2.5,36.3,2.2,43.7,20.8c2.2,5.6,3.1,11.1,3.3,16.4c0,0.6,0,1.3,0.1,1.9c0,16.9-7.6,29.8-6.3,28.6c0.5-0.5,1-1,1.6-1.5
			c0,0,0,0,0,0c0.6,2.9,1.8,5.1,3.1,6.7c5.9,7.2,16.6,4.3,16.6,4.3s-11.2-5-11.9-19.1c3.9-4.4,7.8-9.3,11.1-14.6
			c2.6-4,4.8-8.2,6.4-12.3c0,0,0,0,0,0c1.6-4.1,2.6-8.2,2.6-12.1c0.2-15-0.7-22.5-7.6-33.6c-1.8-2.9-4-6.1-6.7-9.7
			c-12-16-64.9-28.9-79.4-13.4c-12.5,1.9-25.4,7-30.3,12.8C294.2,230.9,293.2,242,293.1,254.9z"/>
		<path fill="#802F8F" d="M191.8,355.5c0.7,0.5,1.3,1.1,1.9,1.7c0.8-2.2,1.5-4.6,2-7.5C194.5,351.9,193.2,353.8,191.8,355.5z"/>
		<path fill="#802F8F" d="M298.5,386.2c-2.5-3.5-6.2-8.8-11.5-14.5c-2.1-2.3-4.5-4.7-7.2-7c-9.3,0.6-19.7-0.9-27.6-7.8
			c1.1,2.5,2.3,4.7,3.8,6.3c1.4,1.6,2.1,4.9,1.9,9.1c-0.2,4.4-1.5,9.4-3.5,14c-2.7,6.1-6.6,11.3-11.3,15.1
			c-5.7,4.5-12.5,6.9-20.2,7.1c-0.2,0-0.4,0-0.6,0c-6.4,0-12.3-2.2-17.7-6.4c1.2,10.5,1.5,21,0,29.8c1.3,21.7,1.5,44.3-0.1,62.2
			c16.7,3.6,34.1,5.6,51.9,5.6c14.9,0,29.4-1.4,43.6-4C320.3,472.8,305.9,396.9,298.5,386.2z"/>
		<path d="M148.1,236.8c0.6,6.3,1.7,13.3,1.8,22c0.3,21.4,6.9,32.3-8.4,44.2c-1.4,1.1,6.8,1.4,14.2-3.6c0.3,4.1,0.7,7.7,1,11.1
			c-2.6,4.2-6.2,8-11.5,12.1c-1.1,0.8,4.6,1.4,11.6-0.4c-0.8,5.6-3.3,10.5-9.8,15.5c-1.9,1.5,13.3,1.5,21-10.6
			c0.1,1.1,0.2,2.2,0.2,3.1c0.1,5.3-2.7,9.7-6.8,13.4c9.6,2.6,18.6,5.5,25,8.7c2,1,3.8,2.1,5.2,3.2c1.4-1.7,2.7-3.6,3.8-5.8
			c0.4-2.5,0.7-5.2,0.9-8.1c-0.4-0.3-0.7-0.7-1.1-1c-9.2-8.7-17.3-15.8-22.1-28.1c4.1-5,6.5-12,5.2-22.1c-2.9-21.4,8.2-39.2,19.4-53
			c18.8,12.2,43.2,24,66.8,28.1c6.9,9.9,11.7,18.6,11.4,25c-0.2,5.1,0.3,9.2,1.2,12.4c-4.8,19.3-17.4,29.1-28.9,39.3
			c0.8,5.9,2.1,10.9,3.8,14.7c7.9,6.9,18.2,8.4,27.6,7.8c6.2-0.4,12-1.7,16.2-2.9c2.1-0.6,3.8-1.2,5-1.6c1.2-0.4,1.9-0.7,1.9-0.7
			s-0.4-0.2-1-0.5c-0.4-0.2-0.9-0.4-1.5-0.8c-6.9-3.6-25.5-15-25.3-31c0-0.6,0.1-1.2,0.1-1.8c5.9,5.7,13.2,4.6,12,3.5
			c-6.1-5.6-6.3-11-5.1-17.6c3.7,3.4,8.2,3.7,11.2,3.2c2.2-0.4,3.5-1.3,3-1.8c-0.5-0.4-0.9-0.9-1.3-1.4c-3.9-4.8-4.9-12.2-4.8-20.6
			c0.2-7.8,1.4-16.4,2.2-24.4c4.7-0.7,9.3-1.9,13.7-3.7c-4.6-1.2-8.9-3.3-12.9-6.1c0-0.5,0-1.1,0-1.6c0.2-12.9,1.1-24-0.9-35.2
			c-1.3-6.8-3.6-13.6-8-20.8c-7.6-12.5-46.5-23.8-60.9-16.2c-2.3-0.8-4.8-1.3-7.3-1.6c-12.7-1.3-24.3,2.9-33.7,9.4
			c-8.7,0-18.2,4.2-25.4,14c-4.2,5.7-6.5,10.6-7.8,15.3c0.9,2.5,1.5,5.2,1.5,8C150.6,230.9,149.6,234,148.1,236.8z"/>
		<path fill="#F8D6A4" d="M277.3,303c-0.9-3.2-1.4-7.3-1.2-12.4c0.3-6.3-4.5-15.1-11.4-25c-23.6-4.1-48-15.9-66.8-28.1
			c-11.1,13.8-22.2,31.5-19.4,53c1.3,10-1.1,17.1-5.2,22.1c4.8,12.3,12.9,19.4,22.1,28.1c0.4,0.3,0.7,0.7,1.1,1
			c-0.2,3-0.5,5.7-0.9,8.1c-0.5,2.8-1.2,5.3-2,7.5c0.9,1,1.6,2,1.9,3.1c3.2,10.3,7.1,26.1,9,41.8c5.4,4.2,11.3,6.4,17.7,6.4
			c0.2,0,0.4,0,0.6,0c7.7-0.2,14.5-2.6,20.2-7.1c4.7-3.7,8.6-8.9,11.3-15.1c2-4.6,3.2-9.5,3.5-14c0.2-4.2-0.4-7.5-1.9-9.1
			c-1.4-1.6-2.7-3.7-3.8-6.3c-1.7-3.9-2.9-8.8-3.8-14.7C259.9,332,272.5,322.2,277.3,303z"/>
		<g>
			<path fill="#B88C63" d="M39,287.7h-0.2c1.2,0.9,2.5,1.8,3.9,2.5c10.9,5.9,2.2,26.4-1.6,36.5c0.7-1.6,0.5,33.9,36.3,33.9
				c36.1,0,35.6-35.5,36.3-33.9c-3.6-9.5-11.4-28-3.4-35.2c0.1,0,0.1,0,0.1-0.1c1.8-1,3.4-2.1,4.9-3.3c0.2-0.1,0.5-0.3,0.7-0.4h-0.1
				c12.1-9.9,17.5-27.1,20-40.6c4.1-0.4,9.3-4.8,12.3-10.4c1.5-2.8,2.5-5.9,2.5-9c0-2.8-0.6-5.5-1.5-8c-1.3-3.7-3.4-6.8-5.3-8.8
				c-0.8,4.8-1.8,10-3.1,15.8c-0.2,0.8-5.6,0.9-5.5-0.7c1.2-16.7-4.9-39.7-4.9-39.7s-8.3-27.4-40.6-29.7
				c-20.7-1.5-40.3,18.5-53.1,9.2c-2.6-1.9-4.8-2.2-6.7-1.6c-4.3,10.5-7.8,21.4-10.6,32.7c0.2,10.2,1.3,21,1.1,26.9
				c-0.2,3.1-6.5,2.7-6.4,2.4c0,0,0,0,0,0c-0.7,6-1.3,12-1.5,18.1c2.2,1.7,4.5,2.7,6.4,2.8C20.5,259.2,25.8,277.7,39,287.7z"/>
		</g>
		<path fill="#5C2C0F" d="M20.4,223.9c0.3-5.9-0.9-16.7-1.1-26.9c-2.4,9.6-4.1,19.3-5.3,29.3c0,0,0,0,0,0
			C13.9,226.6,20.2,227,20.4,223.9z"/>
		<path fill="#5C2C0F" d="M36.7,165.9c12.8,9.3,32.4-10.7,53.1-9.2c32.3,2.4,40.6,29.7,40.6,29.7s6.1,23.1,4.9,39.7
			c-0.1,1.6,5.3,1.5,5.5,0.7c1.2-5.8,2.3-11,3.1-15.8c3.1-18.5,2.7-30.7-2.3-43.5c3.3-20.7-1.5-34-15.2-32.7
			c-2.8-14.2-17.3-19.8-37.2-12.7c0.6-5.1-16-10-32.9-6.1c-10.5,15-19.3,31.2-26.3,48.3C31.9,163.7,34.1,164.1,36.7,165.9z"/>
		<path fill="#16416F" d="M208.4,431.8c-1.8-31.6-9.6-61.2-12.8-71.5c-0.3-1.1-1-2.1-1.9-3.1c-0.5-0.6-1.2-1.1-1.9-1.7
			c-1.4-1.1-3.2-2.2-5.2-3.2c-6.4-3.2-15.5-6.1-25-8.7c-21.5-6-45.7-10.9-47.9-16.9c0,0,0,0,0,0c-0.7-1.6-0.2,33.9-36.3,33.9
			c-35.7,0-35.5-35.5-36.3-33.9c0,0,0,0,0,0c-1.1,2.9-7.2,5.5-15.7,8.1c27.4,79.9,95.2,141,179.1,159.2
			C206.1,476.1,209.6,453.5,208.4,431.8z"/>
	</g>
</g>
</svg>
