<?xml version="1.0" encoding="utf-8"?>
<!-- Generator: Adobe Illustrator 18.1.1, SVG Export Plug-In . SVG Version: 6.00 Build 0)  -->
<svg version="1.1" id="Layer_1" xmlns="http://www.w3.org/2000/svg" xmlns:xlink="http://www.w3.org/1999/xlink" x="0px" y="0px"
	 viewBox="0 0 130 130" enable-background="new 0 0 130 130" xml:space="preserve">
<g>
	<path fill="#D6D5D5" d="M80.5,17.5l0-14.6c-10.2-2.5-20.8-2.5-31,0l0,14.6c-2.4,0.8-4.8,1.8-7.1,2.9L32,10.1
		c-4.4,2.6-8.5,5.8-12.3,9.6s-7,7.9-9.6,12.3l10.3,10.3c-1.2,2.3-2.2,4.7-2.9,7.1H2.9c-2.5,10.2-2.5,20.8,0,31h14.6
		c0.8,2.4,1.8,4.8,2.9,7.1L10.1,98c2.6,4.4,5.8,8.5,9.6,12.3c3.8,3.8,7.9,7,12.3,9.6l10.3-10.3c2.3,1.2,4.7,2.2,7.1,2.9l0,14.6
		c10.2,2.5,20.8,2.5,31,0v-14.6c2.4-0.8,4.8-1.8,7.1-2.9L98,119.9c4.4-2.6,8.5-5.8,12.3-9.6c3.8-3.8,7-7.9,9.6-12.3l-10.3-10.3
		c1.2-2.3,2.2-4.7,2.9-7.1h14.6c2.5-10.2,2.5-20.8,0-31l-14.6,0c-0.8-2.4-1.8-4.8-2.9-7.1L119.9,32c-2.6-4.4-5.8-8.5-9.6-12.3
		c-3.8-3.8-7.9-7-12.3-9.6L87.6,20.5C85.3,19.3,82.9,18.3,80.5,17.5z M81.3,81.3c-9,9-23.6,9-32.6,0c-9-9-9-23.6,0-32.6
		s23.6-9,32.6,0C90.3,57.7,90.3,72.3,81.3,81.3z"/>
	<path fill="#C8C8C8" d="M65.9,88c-6.2,0.2-12.4-2-17.2-6.7s-6.9-11-6.7-17.2L20.4,42.6c-1.1,2.3-2.1,4.6-2.9,6.9l-14.6,0
		c-2.5,10.2-2.5,20.8,0,31l14.6,0c0.8,2.4,1.8,4.8,2.9,7.1L10.1,98c2.6,4.4,5.8,8.5,9.6,12.3s7.9,7,12.3,9.6l10.3-10.3
		c2.3,1.2,4.7,2.2,7.1,2.9v14.6c10.2,2.5,20.8,2.5,31,0v-14.6c2.4-0.8,4.7-1.7,6.9-2.9L65.9,88z"/>
	<path fill="#EAEAE8" d="M119.9,32c-2.6-4.4-5.8-8.5-9.6-12.3c-3.8-3.8-7.9-7-12.3-9.6L87.6,20.5c-2.3-1.2-4.7-2.2-7.1-2.9l0-14.6
		c-10.2-2.5-20.8-2.5-31,0l0,14.6c-2.4,0.8-4.7,1.7-7,2.9L64,42c6.2-0.3,12.5,2,17.3,6.7c4.8,4.8,7,11.1,6.7,17.3l21.5,21.5
		c1.2-2.3,2.1-4.6,2.9-7l14.6,0c2.5-10.2,2.5-20.8,0-31h-14.6c-0.8-2.4-1.8-4.8-2.9-7.1L119.9,32z"/>
</g>
</svg>
