<?xml version="1.0" encoding="utf-8"?>
<!-- Generator: Adobe Illustrator 18.1.1, SVG Export Plug-In . SVG Version: 6.00 Build 0)  -->
<svg version="1.1" id="Layer_1" xmlns="http://www.w3.org/2000/svg" xmlns:xlink="http://www.w3.org/1999/xlink" x="0px" y="0px"
	 viewBox="0 0 130 130" enable-background="new 0 0 130 130" xml:space="preserve">
<g>
	<g>
		<path fill="#F07537" d="M39.7,64.9c0-8.5,4.2-16,10.5-20.6L44.2,6.1C20,14.7,2.6,37.8,2.6,64.9s17.3,50.2,41.5,58.8l6.1-38.3
			C43.9,80.9,39.7,73.4,39.7,64.9z"/>
		<path fill="#F07537" d="M127.5,64.9c0-27.1-17.3-50.2-41.5-58.8l-6.1,38.3c6.4,4.6,10.5,12.1,10.5,20.6s-4.2,16-10.5,20.6
			l6.1,38.3C110.1,115.2,127.5,92.1,127.5,64.9z"/>
		<path fill="#E56328" d="M65.1,18.9C39.6,18.9,19,39.5,19,64.9S39.6,111,65.1,111s46.1-20.6,46.1-46.1S90.5,18.9,65.1,18.9z
			 M65.1,90.3c-14,0-25.3-11.3-25.3-25.3s11.3-25.3,25.3-25.3s25.3,11.3,25.3,25.3S79.1,90.3,65.1,90.3z"/>
		<g>
			<g>
				<path fill="#FFFFFF" d="M65.1,40.5c5.9,0,11.3,1.9,15.8,5.1l6.5-40.8C80.4,2.4,72.9,1,65.1,1c-7.8,0-15.3,1.4-22.3,3.8l6.5,40.8
					C53.7,42.4,59.2,40.5,65.1,40.5z"/>
				<path fill="#FFFFFF" d="M64.9,89.5c5.9,0,11.3-1.9,15.8-5.1l6.5,40.8c-7,2.5-14.5,3.8-22.3,3.8c-7.8,0-15.3-1.4-22.3-3.8
					l6.5-40.8C53.6,87.6,59.1,89.5,64.9,89.5z"/>
			</g>
			<g>
				<path fill="#FFFFFF" d="M89.5,65.1c0,5.9-1.9,11.3-5.1,15.8l40.8,6.5c2.5-7,3.8-14.5,3.8-22.3c0-7.8-1.4-15.3-3.8-22.3
					l-40.8,6.5C87.6,53.7,89.5,59.2,89.5,65.1z"/>
				<path fill="#FFFFFF" d="M40.5,64.9c0,5.9,1.9,11.3,5.1,15.8L4.8,87.2C2.4,80.2,1,72.8,1,64.9c0-7.8,1.4-15.3,3.8-22.3l40.8,6.5
					C42.4,53.6,40.5,59.1,40.5,64.9z"/>
			</g>
		</g>
	</g>
	<path opacity="1.000000e-02" fill="#010101" d="M65.1,18.9C39.6,18.9,19,39.5,19,64.9S39.6,111,65.1,111s46.1-20.6,46.1-46.1
		S90.5,18.9,65.1,18.9z M65.1,90.3c-14,0-25.3-11.3-25.3-25.3s11.3-25.3,25.3-25.3s25.3,11.3,25.3,25.3S79.1,90.3,65.1,90.3z"/>
</g>
</svg>
