<?xml version="1.0" encoding="utf-8"?>
<!-- Generator: Adobe Illustrator 18.1.1, SVG Export Plug-In . SVG Version: 6.00 Build 0)  -->
<svg version="1.1" id="Layer_1" xmlns="http://www.w3.org/2000/svg" xmlns:xlink="http://www.w3.org/1999/xlink" x="0px" y="0px"
	 width="512px" height="512px" viewBox="0 0 512 512" enable-background="new 0 0 512 512" xml:space="preserve">
<g>
	<g>
		<g>
			<g>
				<g>
					<g>
						<g>
							<g>
								<circle fill="#F9CA61" cx="256.1" cy="256.1" r="244.1"/>
								<path fill="#FFD66D" d="M450.4,404c31.3-41,49.9-92.3,49.9-147.9C500.3,121.3,391,12,256.1,12C201.3,12,150.7,30.1,110,60.6
									C222.9,175.6,336.5,289.9,450.4,404z"/>
								<path fill="#ECB24A" d="M56.8,115.3C28.6,155.1,12,203.7,12,256.1C12,391,121.3,500.3,256.1,500.3
									c51.7,0,99.6-16.1,139.1-43.5C282,343.3,169.1,229.6,56.8,115.3z"/>
							</g>
						</g>
					</g>
				</g>
			</g>
		</g>
	</g>
	<g>
		<path fill="#B98B5E" d="M448.6,182c0-6.3-5.1-11.4-11.4-11.4H75.2c-6.3,0-11.4,5.1-11.4,11.4v224.4c44.7,57.2,114.2,94,192.4,94
			s147.7-36.8,192.4-94V182z"/>
		<g>
			<path fill="#FFFFFF" d="M100,443.8c42.3,35.3,96.7,56.5,156.1,56.5s113.8-21.2,156.1-56.5V193.9H100V443.8z"/>
			<g>
				<rect x="100" y="193.9" fill="#EF4D3B" width="312.3" height="43.1"/>
				<g>
					<rect x="149.8" y="267.3" fill="#DDDDDC" width="62" height="17.5"/>
					<rect x="149.8" y="301.4" fill="#DDDDDC" width="62" height="17.5"/>
					<rect x="224.3" y="267.3" fill="#DDDDDC" width="62" height="17.5"/>
					<rect x="224.3" y="301.4" fill="#DDDDDC" width="62" height="17.5"/>
					<rect x="299.4" y="267.3" fill="#DDDDDC" width="62" height="17.5"/>
					<rect x="299.4" y="301.4" fill="#DDDDDC" width="62" height="17.5"/>
				</g>
				<g>
					<path fill="#FFFFFF" d="M151.5,214.9c0,0.2,0,0.4,0,0.6c0,0.2,0,0.4,0,0.6s0,0.3,0,0.5c0,0.1,0,0.3,0.1,0.4
						c0.1,0.1,0.1,0.2,0.2,0.2c0.1,0.1,0.2,0.1,0.4,0.1c0.1,0,0.2,0,0.3-0.1c0.1-0.1,0.2-0.2,0.4-0.4c0.1-0.2,0.3-0.4,0.4-0.6
						c0.2-0.2,0.4-0.5,0.6-0.8c-0.2-0.5-0.5-1.1-0.7-1.8s-0.4-1.3-0.7-2.1c0,0,0-0.1,0-0.1c0-0.1,0.1-0.3,0.2-0.4
						c0.1-0.1,0.3-0.3,0.4-0.4c0.2-0.1,0.4-0.2,0.6-0.3c0.2-0.1,0.4-0.1,0.6-0.1c0.2,0,0.3,0,0.4,0.1c0.1,0.1,0.2,0.1,0.2,0.2
						c0.1,0.2,0.2,0.5,0.4,0.9s0.4,0.9,0.6,1.5c0.4-0.4,0.8-0.8,1.3-1.2s1-0.8,1.5-1.2c0.2-0.1,0.4-0.2,0.5-0.3
						c0.2-0.1,0.3-0.1,0.5-0.1c0.2,0,0.3,0,0.5,0.1c0.1,0.1,0.2,0.2,0.3,0.3c0.1,0.1,0.2,0.3,0.2,0.4c0,0.2,0.1,0.3,0.1,0.5
						c0,0.2-0.1,0.5-0.1,0.7s-0.2,0.4-0.5,0.5c-0.6,0.4-1.1,0.8-1.7,1.2c-0.5,0.5-1,0.9-1.5,1.4c0.2,0.3,0.3,0.6,0.5,0.9
						c0.2,0.3,0.3,0.5,0.5,0.8c0.2,0.2,0.3,0.4,0.5,0.5c0.1,0.1,0.3,0.2,0.4,0.2c0.2,0,0.4,0,0.6-0.1c0.2-0.1,0.5-0.2,0.8-0.3
						c0.3-0.1,0.5-0.3,0.8-0.5s0.5-0.4,0.8-0.6c0.3-0.2,0.5-0.4,0.7-0.6c0.2-0.2,0.4-0.4,0.5-0.5c0,0.2,0,0.5,0,0.7
						c0,0.2,0,0.4,0,0.6c0,0.2,0,0.4,0,0.6c0,0.2,0,0.4,0,0.7c-0.2,0.2-0.6,0.5-1,0.8c-0.4,0.3-0.8,0.6-1.3,0.9
						c-0.5,0.3-1,0.5-1.5,0.7c-0.5,0.2-1.1,0.3-1.6,0.3c-0.3,0-0.7-0.2-1.2-0.6c-0.5-0.4-1-1.1-1.5-2c-0.3,0.4-0.6,0.7-0.9,1
						c-0.3,0.3-0.6,0.6-0.8,0.8s-0.5,0.4-0.7,0.6s-0.4,0.2-0.6,0.2c-0.4,0-0.7-0.1-0.9-0.3s-0.4-0.4-0.6-0.7c-0.1-0.3-0.3-0.6-0.3-1
						c-0.1-0.4-0.1-0.7-0.1-1L151.5,214.9z"/>
					<path fill="#FFFFFF" d="M163.1,214.9c0,0.2,0,0.4,0,0.6c0,0.2,0,0.4,0,0.6s0,0.3,0,0.5c0,0.1,0,0.3,0.1,0.4
						c0.1,0.1,0.1,0.2,0.2,0.2c0.1,0.1,0.2,0.1,0.4,0.1c0.1,0,0.2,0,0.3-0.1c0.1-0.1,0.2-0.2,0.4-0.4c0.1-0.2,0.3-0.4,0.4-0.6
						c0.2-0.2,0.4-0.5,0.6-0.8c-0.2-0.5-0.5-1.1-0.7-1.8s-0.4-1.3-0.7-2.1c0,0,0-0.1,0-0.1c0-0.1,0.1-0.3,0.2-0.4
						c0.1-0.1,0.3-0.3,0.4-0.4c0.2-0.1,0.4-0.2,0.6-0.3c0.2-0.1,0.4-0.1,0.6-0.1c0.2,0,0.3,0,0.4,0.1c0.1,0.1,0.2,0.1,0.2,0.2
						c0.1,0.2,0.2,0.5,0.4,0.9s0.4,0.9,0.6,1.5c0.4-0.4,0.8-0.8,1.3-1.2s1-0.8,1.5-1.2c0.2-0.1,0.4-0.2,0.5-0.3
						c0.2-0.1,0.3-0.1,0.5-0.1c0.2,0,0.3,0,0.5,0.1c0.1,0.1,0.2,0.2,0.3,0.3c0.1,0.1,0.2,0.3,0.2,0.4c0,0.2,0.1,0.3,0.1,0.5
						c0,0.2-0.1,0.5-0.1,0.7s-0.2,0.4-0.5,0.5c-0.6,0.4-1.1,0.8-1.7,1.2c-0.5,0.5-1,0.9-1.5,1.4c0.2,0.3,0.3,0.6,0.5,0.9
						c0.2,0.3,0.3,0.5,0.5,0.8c0.2,0.2,0.3,0.4,0.5,0.5c0.1,0.1,0.3,0.2,0.4,0.2c0.2,0,0.4,0,0.6-0.1c0.2-0.1,0.5-0.2,0.8-0.3
						c0.3-0.1,0.5-0.3,0.8-0.5c0.3-0.2,0.5-0.4,0.8-0.6c0.3-0.2,0.5-0.4,0.7-0.6c0.2-0.2,0.4-0.4,0.5-0.5c0,0.2,0,0.5,0,0.7
						c0,0.2,0,0.4,0,0.6c0,0.2,0,0.4,0,0.6c0,0.2,0,0.4,0,0.7c-0.2,0.2-0.6,0.5-1,0.8c-0.4,0.3-0.8,0.6-1.3,0.9
						c-0.5,0.3-1,0.5-1.5,0.7c-0.5,0.2-1.1,0.3-1.6,0.3c-0.3,0-0.7-0.2-1.2-0.6c-0.5-0.4-1-1.1-1.5-2c-0.3,0.4-0.6,0.7-0.9,1
						c-0.3,0.3-0.6,0.6-0.8,0.8c-0.3,0.2-0.5,0.4-0.7,0.6s-0.4,0.2-0.6,0.2c-0.4,0-0.7-0.1-0.9-0.3s-0.4-0.4-0.6-0.7
						c-0.1-0.3-0.3-0.6-0.3-1c-0.1-0.4-0.1-0.7-0.1-1L163.1,214.9z"/>
					<path fill="#FFFFFF" d="M174.6,214.9c0,0.2,0,0.4,0,0.6c0,0.2,0,0.4,0,0.6s0,0.3,0,0.5c0,0.1,0,0.3,0.1,0.4
						c0.1,0.1,0.1,0.2,0.2,0.2c0.1,0.1,0.2,0.1,0.4,0.1c0.1,0,0.2,0,0.3-0.1c0.1-0.1,0.2-0.2,0.4-0.4c0.1-0.2,0.3-0.4,0.4-0.6
						c0.2-0.2,0.4-0.5,0.6-0.8c-0.2-0.5-0.5-1.1-0.7-1.8s-0.4-1.3-0.7-2.1c0,0,0-0.1,0-0.1c0-0.1,0.1-0.3,0.2-0.4
						c0.1-0.1,0.3-0.3,0.4-0.4c0.2-0.1,0.4-0.2,0.6-0.3c0.2-0.1,0.4-0.1,0.6-0.1c0.2,0,0.3,0,0.4,0.1c0.1,0.1,0.2,0.1,0.2,0.2
						c0.1,0.2,0.2,0.5,0.4,0.9s0.4,0.9,0.6,1.5c0.4-0.4,0.8-0.8,1.3-1.2c0.5-0.4,1-0.8,1.5-1.2c0.2-0.1,0.4-0.2,0.5-0.3
						c0.2-0.1,0.3-0.1,0.5-0.1c0.2,0,0.3,0,0.5,0.1c0.1,0.1,0.2,0.2,0.3,0.3c0.1,0.1,0.2,0.3,0.2,0.4c0,0.2,0.1,0.3,0.1,0.5
						c0,0.2-0.1,0.5-0.1,0.7s-0.2,0.4-0.5,0.5c-0.6,0.4-1.1,0.8-1.7,1.2c-0.5,0.5-1,0.9-1.5,1.4c0.2,0.3,0.3,0.6,0.5,0.9
						c0.2,0.3,0.3,0.5,0.5,0.8c0.2,0.2,0.3,0.4,0.5,0.5c0.1,0.1,0.3,0.2,0.4,0.2c0.2,0,0.4,0,0.6-0.1c0.2-0.1,0.5-0.2,0.8-0.3
						c0.3-0.1,0.5-0.3,0.8-0.5s0.5-0.4,0.8-0.6c0.3-0.2,0.5-0.4,0.7-0.6c0.2-0.2,0.4-0.4,0.5-0.5c0,0.2,0,0.5,0,0.7
						c0,0.2,0,0.4,0,0.6c0,0.2,0,0.4,0,0.6c0,0.2,0,0.4,0,0.7c-0.2,0.2-0.6,0.5-1,0.8c-0.4,0.3-0.8,0.6-1.3,0.9
						c-0.5,0.3-1,0.5-1.5,0.7c-0.5,0.2-1.1,0.3-1.6,0.3c-0.3,0-0.7-0.2-1.2-0.6c-0.5-0.4-1-1.1-1.5-2c-0.3,0.4-0.6,0.7-0.9,1
						c-0.3,0.3-0.6,0.6-0.8,0.8c-0.3,0.2-0.5,0.4-0.7,0.6s-0.4,0.2-0.6,0.2c-0.4,0-0.7-0.1-0.9-0.3s-0.4-0.4-0.6-0.7
						c-0.1-0.3-0.3-0.6-0.3-1c-0.1-0.4-0.1-0.7-0.1-1L174.6,214.9z"/>
					<path fill="#FFFFFF" d="M186.2,214.9c0,0.2,0,0.4,0,0.6c0,0.2,0,0.4,0,0.6s0,0.3,0,0.5c0,0.1,0,0.3,0.1,0.4
						c0.1,0.1,0.1,0.2,0.2,0.2c0.1,0.1,0.2,0.1,0.4,0.1c0.1,0,0.2,0,0.3-0.1c0.1-0.1,0.2-0.2,0.4-0.4c0.1-0.2,0.3-0.4,0.4-0.6
						c0.2-0.2,0.4-0.5,0.6-0.8c-0.2-0.5-0.5-1.1-0.7-1.8s-0.4-1.3-0.7-2.1c0,0,0-0.1,0-0.1c0-0.1,0.1-0.3,0.2-0.4
						c0.1-0.1,0.3-0.3,0.4-0.4c0.2-0.1,0.4-0.2,0.6-0.3c0.2-0.1,0.4-0.1,0.6-0.1c0.2,0,0.3,0,0.4,0.1c0.1,0.1,0.2,0.1,0.2,0.2
						c0.1,0.2,0.2,0.5,0.4,0.9s0.4,0.9,0.6,1.5c0.4-0.4,0.8-0.8,1.3-1.2s1-0.8,1.5-1.2c0.2-0.1,0.4-0.2,0.5-0.3
						c0.2-0.1,0.3-0.1,0.5-0.1c0.2,0,0.3,0,0.5,0.1c0.1,0.1,0.2,0.2,0.3,0.3c0.1,0.1,0.2,0.3,0.2,0.4c0,0.2,0.1,0.3,0.1,0.5
						c0,0.2-0.1,0.5-0.1,0.7s-0.2,0.4-0.5,0.5c-0.6,0.4-1.1,0.8-1.7,1.2c-0.5,0.5-1,0.9-1.5,1.4c0.2,0.3,0.3,0.6,0.5,0.9
						c0.2,0.3,0.3,0.5,0.5,0.8c0.2,0.2,0.3,0.4,0.5,0.5c0.1,0.1,0.3,0.2,0.4,0.2c0.2,0,0.4,0,0.6-0.1c0.2-0.1,0.5-0.2,0.8-0.3
						c0.3-0.1,0.5-0.3,0.8-0.5s0.5-0.4,0.8-0.6c0.3-0.2,0.5-0.4,0.7-0.6c0.2-0.2,0.4-0.4,0.5-0.5c0,0.2,0,0.5,0,0.7
						c0,0.2,0,0.4,0,0.6c0,0.2,0,0.4,0,0.6c0,0.2,0,0.4,0,0.7c-0.2,0.2-0.6,0.5-1,0.8c-0.4,0.3-0.8,0.6-1.3,0.9
						c-0.5,0.3-1,0.5-1.5,0.7c-0.5,0.2-1.1,0.3-1.6,0.3c-0.3,0-0.7-0.2-1.2-0.6c-0.5-0.4-1-1.1-1.5-2c-0.3,0.4-0.6,0.7-0.9,1
						c-0.3,0.3-0.6,0.6-0.8,0.8c-0.3,0.2-0.5,0.4-0.7,0.6c-0.2,0.1-0.4,0.2-0.6,0.2c-0.4,0-0.7-0.1-0.9-0.3s-0.4-0.4-0.6-0.7
						c-0.1-0.3-0.3-0.6-0.3-1c-0.1-0.4-0.1-0.7-0.1-1L186.2,214.9z"/>
					<path fill="#FFFFFF" d="M197.8,214.9c0,0.2,0,0.4,0,0.6c0,0.2,0,0.4,0,0.6s0,0.3,0,0.5c0,0.1,0,0.3,0.1,0.4
						c0.1,0.1,0.1,0.2,0.2,0.2c0.1,0.1,0.2,0.1,0.4,0.1c0.1,0,0.2,0,0.3-0.1c0.1-0.1,0.2-0.2,0.4-0.4c0.1-0.2,0.3-0.4,0.4-0.6
						c0.2-0.2,0.4-0.5,0.6-0.8c-0.2-0.5-0.5-1.1-0.7-1.8s-0.4-1.3-0.7-2.1c0,0,0-0.1,0-0.1c0-0.1,0.1-0.3,0.2-0.4
						c0.1-0.1,0.3-0.3,0.4-0.4c0.2-0.1,0.4-0.2,0.6-0.3c0.2-0.1,0.4-0.1,0.6-0.1c0.2,0,0.3,0,0.4,0.1c0.1,0.1,0.2,0.1,0.2,0.2
						c0.1,0.2,0.2,0.5,0.4,0.9s0.4,0.9,0.6,1.5c0.4-0.4,0.8-0.8,1.3-1.2s1-0.8,1.5-1.2c0.2-0.1,0.4-0.2,0.5-0.3
						c0.2-0.1,0.3-0.1,0.5-0.1c0.2,0,0.3,0,0.5,0.1c0.1,0.1,0.2,0.2,0.3,0.3c0.1,0.1,0.2,0.3,0.2,0.4c0,0.2,0.1,0.3,0.1,0.5
						c0,0.2-0.1,0.5-0.1,0.7s-0.2,0.4-0.5,0.5c-0.6,0.4-1.1,0.8-1.7,1.2c-0.5,0.5-1,0.9-1.5,1.4c0.2,0.3,0.3,0.6,0.5,0.9
						c0.2,0.3,0.3,0.5,0.5,0.8c0.2,0.2,0.3,0.4,0.5,0.5c0.1,0.1,0.3,0.2,0.4,0.2c0.2,0,0.4,0,0.6-0.1c0.2-0.1,0.5-0.2,0.8-0.3
						c0.3-0.1,0.5-0.3,0.8-0.5s0.5-0.4,0.8-0.6c0.3-0.2,0.5-0.4,0.7-0.6c0.2-0.2,0.4-0.4,0.5-0.5c0,0.2,0,0.5,0,0.7
						c0,0.2,0,0.4,0,0.6c0,0.2,0,0.4,0,0.6c0,0.2,0,0.4,0,0.7c-0.2,0.2-0.6,0.5-1,0.8c-0.4,0.3-0.8,0.6-1.3,0.9
						c-0.5,0.3-1,0.5-1.5,0.7c-0.5,0.2-1.1,0.3-1.6,0.3c-0.3,0-0.7-0.2-1.2-0.6c-0.5-0.4-1-1.1-1.5-2c-0.3,0.4-0.6,0.7-0.9,1
						c-0.3,0.3-0.6,0.6-0.8,0.8c-0.3,0.2-0.5,0.4-0.7,0.6s-0.4,0.2-0.6,0.2c-0.4,0-0.7-0.1-0.9-0.3s-0.4-0.4-0.6-0.7
						c-0.1-0.3-0.3-0.6-0.3-1c-0.1-0.4-0.1-0.7-0.1-1L197.8,214.9z"/>
					<path fill="#FFFFFF" d="M209.4,214.9c0,0.2,0,0.4,0,0.6c0,0.2,0,0.4,0,0.6s0,0.3,0,0.5c0,0.1,0,0.3,0.1,0.4
						c0.1,0.1,0.1,0.2,0.2,0.2c0.1,0.1,0.2,0.1,0.4,0.1c0.1,0,0.2,0,0.3-0.1c0.1-0.1,0.2-0.2,0.4-0.4c0.1-0.2,0.3-0.4,0.4-0.6
						c0.2-0.2,0.4-0.5,0.6-0.8c-0.2-0.5-0.5-1.1-0.7-1.8s-0.4-1.3-0.7-2.1c0,0,0-0.1,0-0.1c0-0.1,0.1-0.3,0.2-0.4
						c0.1-0.1,0.3-0.3,0.4-0.4c0.2-0.1,0.4-0.2,0.6-0.3c0.2-0.1,0.4-0.1,0.6-0.1c0.2,0,0.3,0,0.4,0.1c0.1,0.1,0.2,0.1,0.2,0.2
						c0.1,0.2,0.2,0.5,0.4,0.9s0.4,0.9,0.6,1.5c0.4-0.4,0.8-0.8,1.3-1.2s1-0.8,1.5-1.2c0.2-0.1,0.4-0.2,0.5-0.3
						c0.2-0.1,0.3-0.1,0.5-0.1c0.2,0,0.3,0,0.5,0.1c0.1,0.1,0.2,0.2,0.3,0.3c0.1,0.1,0.2,0.3,0.2,0.4c0,0.2,0.1,0.3,0.1,0.5
						c0,0.2-0.1,0.5-0.1,0.7s-0.2,0.4-0.5,0.5c-0.6,0.4-1.1,0.8-1.7,1.2c-0.5,0.5-1,0.9-1.5,1.4c0.2,0.3,0.3,0.6,0.5,0.9
						c0.2,0.3,0.3,0.5,0.5,0.8c0.2,0.2,0.3,0.4,0.5,0.5c0.1,0.1,0.3,0.2,0.4,0.2c0.2,0,0.4,0,0.6-0.1c0.2-0.1,0.5-0.2,0.8-0.3
						c0.3-0.1,0.5-0.3,0.8-0.5c0.3-0.2,0.5-0.4,0.8-0.6c0.3-0.2,0.5-0.4,0.7-0.6c0.2-0.2,0.4-0.4,0.5-0.5c0,0.2,0,0.5,0,0.7
						c0,0.2,0,0.4,0,0.6c0,0.2,0,0.4,0,0.6c0,0.2,0,0.4,0,0.7c-0.2,0.2-0.6,0.5-1,0.8c-0.4,0.3-0.8,0.6-1.3,0.9
						c-0.5,0.3-1,0.5-1.5,0.7c-0.5,0.2-1.1,0.3-1.6,0.3c-0.3,0-0.7-0.2-1.2-0.6c-0.5-0.4-1-1.1-1.5-2c-0.3,0.4-0.6,0.7-0.9,1
						c-0.3,0.3-0.6,0.6-0.8,0.8c-0.3,0.2-0.5,0.4-0.7,0.6s-0.4,0.2-0.6,0.2c-0.4,0-0.7-0.1-0.9-0.3s-0.4-0.4-0.6-0.7
						c-0.1-0.3-0.3-0.6-0.3-1c-0.1-0.4-0.1-0.7-0.1-1L209.4,214.9z"/>
				</g>
			</g>
			<g>
				<rect x="100" y="340.7" fill="#8CCACD" width="312.3" height="43.1"/>
				<g>
					<rect x="149.8" y="414.1" fill="#DDDDDC" width="62" height="17.5"/>
					<rect x="149.8" y="448.2" fill="#DDDDDC" width="62" height="17.5"/>
					<rect x="224.3" y="414.1" fill="#DDDDDC" width="62" height="17.5"/>
					<rect x="224.3" y="448.2" fill="#DDDDDC" width="62" height="17.5"/>
					<rect x="299.4" y="414.1" fill="#DDDDDC" width="62" height="17.5"/>
					<rect x="299.4" y="448.2" fill="#DDDDDC" width="62" height="17.5"/>
				</g>
				<g>
					<path fill="#FFFFFF" d="M151.5,361.7c0,0.2,0,0.4,0,0.6s0,0.4,0,0.6s0,0.3,0,0.5c0,0.1,0,0.3,0.1,0.4c0.1,0.1,0.1,0.2,0.2,0.2
						c0.1,0.1,0.2,0.1,0.4,0.1c0.1,0,0.2,0,0.3-0.1c0.1-0.1,0.2-0.2,0.4-0.4c0.1-0.2,0.3-0.4,0.4-0.6s0.4-0.5,0.6-0.8
						c-0.2-0.5-0.5-1.1-0.7-1.8c-0.2-0.6-0.4-1.3-0.7-2.1c0,0,0-0.1,0-0.1c0-0.1,0.1-0.3,0.2-0.4c0.1-0.1,0.3-0.3,0.4-0.4
						c0.2-0.1,0.4-0.2,0.6-0.3c0.2-0.1,0.4-0.1,0.6-0.1c0.2,0,0.3,0,0.4,0.1c0.1,0,0.2,0.1,0.2,0.2c0.1,0.2,0.2,0.5,0.4,0.9
						s0.4,0.9,0.6,1.5c0.4-0.4,0.8-0.8,1.3-1.2s1-0.8,1.5-1.2c0.2-0.1,0.4-0.2,0.5-0.3c0.2-0.1,0.3-0.1,0.5-0.1c0.2,0,0.3,0,0.5,0.1
						c0.1,0.1,0.2,0.2,0.3,0.3c0.1,0.1,0.2,0.3,0.2,0.4c0,0.2,0.1,0.3,0.1,0.5c0,0.2-0.1,0.5-0.1,0.7s-0.2,0.4-0.5,0.5
						c-0.6,0.4-1.1,0.8-1.7,1.2c-0.5,0.5-1,0.9-1.5,1.4c0.2,0.3,0.3,0.6,0.5,0.9c0.2,0.3,0.3,0.5,0.5,0.8c0.2,0.2,0.3,0.4,0.5,0.5
						c0.1,0.1,0.3,0.2,0.4,0.2c0.2,0,0.4,0,0.6-0.1c0.2-0.1,0.5-0.2,0.8-0.3c0.3-0.1,0.5-0.3,0.8-0.5s0.5-0.4,0.8-0.6
						c0.3-0.2,0.5-0.4,0.7-0.6c0.2-0.2,0.4-0.4,0.5-0.5c0,0.2,0,0.5,0,0.7c0,0.2,0,0.4,0,0.6c0,0.2,0,0.4,0,0.6c0,0.2,0,0.4,0,0.7
						c-0.2,0.2-0.6,0.5-1,0.8c-0.4,0.3-0.8,0.6-1.3,0.9c-0.5,0.3-1,0.5-1.5,0.7c-0.5,0.2-1.1,0.3-1.6,0.3c-0.3,0-0.7-0.2-1.2-0.6
						c-0.5-0.4-1-1.1-1.5-2c-0.3,0.4-0.6,0.7-0.9,1s-0.6,0.6-0.8,0.8c-0.3,0.2-0.5,0.4-0.7,0.6c-0.2,0.1-0.4,0.2-0.6,0.2
						c-0.4,0-0.7-0.1-0.9-0.3s-0.4-0.4-0.6-0.7c-0.1-0.3-0.3-0.6-0.3-1c-0.1-0.4-0.1-0.7-0.1-1L151.5,361.7z"/>
					<path fill="#FFFFFF" d="M163.1,361.7c0,0.2,0,0.4,0,0.6c0,0.2,0,0.4,0,0.6s0,0.3,0,0.5c0,0.1,0,0.3,0.1,0.4
						c0.1,0.1,0.1,0.2,0.2,0.2c0.1,0.1,0.2,0.1,0.4,0.1c0.1,0,0.2,0,0.3-0.1c0.1-0.1,0.2-0.2,0.4-0.4c0.1-0.2,0.3-0.4,0.4-0.6
						c0.2-0.2,0.4-0.5,0.6-0.8c-0.2-0.5-0.5-1.1-0.7-1.8c-0.2-0.6-0.4-1.3-0.7-2.1c0,0,0-0.1,0-0.1c0-0.1,0.1-0.3,0.2-0.4
						c0.1-0.1,0.3-0.3,0.4-0.4c0.2-0.1,0.4-0.2,0.6-0.3c0.2-0.1,0.4-0.1,0.6-0.1c0.2,0,0.3,0,0.4,0.1c0.1,0,0.2,0.1,0.2,0.2
						c0.1,0.2,0.2,0.5,0.4,0.9s0.4,0.9,0.6,1.5c0.4-0.4,0.8-0.8,1.3-1.2s1-0.8,1.5-1.2c0.2-0.1,0.4-0.2,0.5-0.3
						c0.2-0.1,0.3-0.1,0.5-0.1c0.2,0,0.3,0,0.5,0.1c0.1,0.1,0.2,0.2,0.3,0.3c0.1,0.1,0.2,0.3,0.2,0.4c0,0.2,0.1,0.3,0.1,0.5
						c0,0.2-0.1,0.5-0.1,0.7s-0.2,0.4-0.5,0.5c-0.6,0.4-1.1,0.8-1.7,1.2c-0.5,0.5-1,0.9-1.5,1.4c0.2,0.3,0.3,0.6,0.5,0.9
						c0.2,0.3,0.3,0.5,0.5,0.8c0.2,0.2,0.3,0.4,0.5,0.5c0.1,0.1,0.3,0.2,0.4,0.2c0.2,0,0.4,0,0.6-0.1c0.2-0.1,0.5-0.2,0.8-0.3
						c0.3-0.1,0.5-0.3,0.8-0.5s0.5-0.4,0.8-0.6c0.3-0.2,0.5-0.4,0.7-0.6c0.2-0.2,0.4-0.4,0.5-0.5c0,0.2,0,0.5,0,0.7
						c0,0.2,0,0.4,0,0.6c0,0.2,0,0.4,0,0.6c0,0.2,0,0.4,0,0.7c-0.2,0.2-0.6,0.5-1,0.8c-0.4,0.3-0.8,0.6-1.3,0.9
						c-0.5,0.3-1,0.5-1.5,0.7s-1.1,0.3-1.6,0.3c-0.3,0-0.7-0.2-1.2-0.6c-0.5-0.4-1-1.1-1.5-2c-0.3,0.4-0.6,0.7-0.9,1
						s-0.6,0.6-0.8,0.8c-0.3,0.2-0.5,0.4-0.7,0.6c-0.2,0.1-0.4,0.2-0.6,0.2c-0.4,0-0.7-0.1-0.9-0.3s-0.4-0.4-0.6-0.7
						c-0.1-0.3-0.3-0.6-0.3-1c-0.1-0.4-0.1-0.7-0.1-1L163.1,361.7z"/>
					<path fill="#FFFFFF" d="M174.6,361.7c0,0.2,0,0.4,0,0.6c0,0.2,0,0.4,0,0.6s0,0.3,0,0.5c0,0.1,0,0.3,0.1,0.4
						c0.1,0.1,0.1,0.2,0.2,0.2c0.1,0.1,0.2,0.1,0.4,0.1c0.1,0,0.2,0,0.3-0.1c0.1-0.1,0.2-0.2,0.4-0.4c0.1-0.2,0.3-0.4,0.4-0.6
						s0.4-0.5,0.6-0.8c-0.2-0.5-0.5-1.1-0.7-1.8c-0.2-0.6-0.4-1.3-0.7-2.1c0,0,0-0.1,0-0.1c0-0.1,0.1-0.3,0.2-0.4
						c0.1-0.1,0.3-0.3,0.4-0.4c0.2-0.1,0.4-0.2,0.6-0.3c0.2-0.1,0.4-0.1,0.6-0.1c0.2,0,0.3,0,0.4,0.1c0.1,0,0.2,0.1,0.2,0.2
						c0.1,0.2,0.2,0.5,0.4,0.9s0.4,0.9,0.6,1.5c0.4-0.4,0.8-0.8,1.3-1.2c0.5-0.4,1-0.8,1.5-1.2c0.2-0.1,0.4-0.2,0.5-0.3
						c0.2-0.1,0.3-0.1,0.5-0.1c0.2,0,0.3,0,0.5,0.1c0.1,0.1,0.2,0.2,0.3,0.3c0.1,0.1,0.2,0.3,0.2,0.4c0,0.2,0.1,0.3,0.1,0.5
						c0,0.2-0.1,0.5-0.1,0.7s-0.2,0.4-0.5,0.5c-0.6,0.4-1.1,0.8-1.7,1.2c-0.5,0.5-1,0.9-1.5,1.4c0.2,0.3,0.3,0.6,0.5,0.9
						c0.2,0.3,0.3,0.5,0.5,0.8c0.2,0.2,0.3,0.4,0.5,0.5c0.1,0.1,0.3,0.2,0.4,0.2c0.2,0,0.4,0,0.6-0.1c0.2-0.1,0.5-0.2,0.8-0.3
						c0.3-0.1,0.5-0.3,0.8-0.5s0.5-0.4,0.8-0.6c0.3-0.2,0.5-0.4,0.7-0.6c0.2-0.2,0.4-0.4,0.5-0.5c0,0.2,0,0.5,0,0.7
						c0,0.2,0,0.4,0,0.6c0,0.2,0,0.4,0,0.6c0,0.2,0,0.4,0,0.7c-0.2,0.2-0.6,0.5-1,0.8c-0.4,0.3-0.8,0.6-1.3,0.9
						c-0.5,0.3-1,0.5-1.5,0.7s-1.1,0.3-1.6,0.3c-0.3,0-0.7-0.2-1.2-0.6c-0.5-0.4-1-1.1-1.5-2c-0.3,0.4-0.6,0.7-0.9,1
						s-0.6,0.6-0.8,0.8c-0.3,0.2-0.5,0.4-0.7,0.6c-0.2,0.1-0.4,0.2-0.6,0.2c-0.4,0-0.7-0.1-0.9-0.3s-0.4-0.4-0.6-0.7
						c-0.1-0.3-0.3-0.6-0.3-1c-0.1-0.4-0.1-0.7-0.1-1L174.6,361.7z"/>
					<path fill="#FFFFFF" d="M186.2,361.7c0,0.2,0,0.4,0,0.6s0,0.4,0,0.6s0,0.3,0,0.5c0,0.1,0,0.3,0.1,0.4c0.1,0.1,0.1,0.2,0.2,0.2
						c0.1,0.1,0.2,0.1,0.4,0.1c0.1,0,0.2,0,0.3-0.1c0.1-0.1,0.2-0.2,0.4-0.4c0.1-0.2,0.3-0.4,0.4-0.6s0.4-0.5,0.6-0.8
						c-0.2-0.5-0.5-1.1-0.7-1.8c-0.2-0.6-0.4-1.3-0.7-2.1c0,0,0-0.1,0-0.1c0-0.1,0.1-0.3,0.2-0.4c0.1-0.1,0.3-0.3,0.4-0.4
						c0.2-0.1,0.4-0.2,0.6-0.3c0.2-0.1,0.4-0.1,0.6-0.1c0.2,0,0.3,0,0.4,0.1c0.1,0,0.2,0.1,0.2,0.2c0.1,0.2,0.2,0.5,0.4,0.9
						s0.4,0.9,0.6,1.5c0.4-0.4,0.8-0.8,1.3-1.2s1-0.8,1.5-1.2c0.2-0.1,0.4-0.2,0.5-0.3c0.2-0.1,0.3-0.1,0.5-0.1c0.2,0,0.3,0,0.5,0.1
						c0.1,0.1,0.2,0.2,0.3,0.3c0.1,0.1,0.2,0.3,0.2,0.4c0,0.2,0.1,0.3,0.1,0.5c0,0.2-0.1,0.5-0.1,0.7s-0.2,0.4-0.5,0.5
						c-0.6,0.4-1.1,0.8-1.7,1.2c-0.5,0.5-1,0.9-1.5,1.4c0.2,0.3,0.3,0.6,0.5,0.9c0.2,0.3,0.3,0.5,0.5,0.8c0.2,0.2,0.3,0.4,0.5,0.5
						c0.1,0.1,0.3,0.2,0.4,0.2c0.2,0,0.4,0,0.6-0.1c0.2-0.1,0.5-0.2,0.8-0.3c0.3-0.1,0.5-0.3,0.8-0.5s0.5-0.4,0.8-0.6
						c0.3-0.2,0.5-0.4,0.7-0.6c0.2-0.2,0.4-0.4,0.5-0.5c0,0.2,0,0.5,0,0.7c0,0.2,0,0.4,0,0.6c0,0.2,0,0.4,0,0.6c0,0.2,0,0.4,0,0.7
						c-0.2,0.2-0.6,0.5-1,0.8c-0.4,0.3-0.8,0.6-1.3,0.9c-0.5,0.3-1,0.5-1.5,0.7s-1.1,0.3-1.6,0.3c-0.3,0-0.7-0.2-1.2-0.6
						c-0.5-0.4-1-1.1-1.5-2c-0.3,0.4-0.6,0.7-0.9,1s-0.6,0.6-0.8,0.8c-0.3,0.2-0.5,0.4-0.7,0.6c-0.2,0.1-0.4,0.2-0.6,0.2
						c-0.4,0-0.7-0.1-0.9-0.3s-0.4-0.4-0.6-0.7c-0.1-0.3-0.3-0.6-0.3-1c-0.1-0.4-0.1-0.7-0.1-1L186.2,361.7z"/>
					<path fill="#FFFFFF" d="M197.8,361.7c0,0.2,0,0.4,0,0.6s0,0.4,0,0.6s0,0.3,0,0.5c0,0.1,0,0.3,0.1,0.4c0.1,0.1,0.1,0.2,0.2,0.2
						c0.1,0.1,0.2,0.1,0.4,0.1c0.1,0,0.2,0,0.3-0.1c0.1-0.1,0.2-0.2,0.4-0.4c0.1-0.2,0.3-0.4,0.4-0.6c0.2-0.2,0.4-0.5,0.6-0.8
						c-0.2-0.5-0.5-1.1-0.7-1.8c-0.2-0.6-0.4-1.3-0.7-2.1c0,0,0-0.1,0-0.1c0-0.1,0.1-0.3,0.2-0.4c0.1-0.1,0.3-0.3,0.4-0.4
						c0.2-0.1,0.4-0.2,0.6-0.3c0.2-0.1,0.4-0.1,0.6-0.1c0.2,0,0.3,0,0.4,0.1c0.1,0,0.2,0.1,0.2,0.2c0.1,0.2,0.2,0.5,0.4,0.9
						s0.4,0.9,0.6,1.5c0.4-0.4,0.8-0.8,1.3-1.2s1-0.8,1.5-1.2c0.2-0.1,0.4-0.2,0.5-0.3c0.2-0.1,0.3-0.1,0.5-0.1c0.2,0,0.3,0,0.5,0.1
						c0.1,0.1,0.2,0.2,0.3,0.3c0.1,0.1,0.2,0.3,0.2,0.4c0,0.2,0.1,0.3,0.1,0.5c0,0.2-0.1,0.5-0.1,0.7s-0.2,0.4-0.5,0.5
						c-0.6,0.4-1.1,0.8-1.7,1.2c-0.5,0.5-1,0.9-1.5,1.4c0.2,0.3,0.3,0.6,0.5,0.9c0.2,0.3,0.3,0.5,0.5,0.8c0.2,0.2,0.3,0.4,0.5,0.5
						c0.1,0.1,0.3,0.2,0.4,0.2c0.2,0,0.4,0,0.6-0.1c0.2-0.1,0.5-0.2,0.8-0.3c0.3-0.1,0.5-0.3,0.8-0.5s0.5-0.4,0.8-0.6
						c0.3-0.2,0.5-0.4,0.7-0.6c0.2-0.2,0.4-0.4,0.5-0.5c0,0.2,0,0.5,0,0.7c0,0.2,0,0.4,0,0.6c0,0.2,0,0.4,0,0.6c0,0.2,0,0.4,0,0.7
						c-0.2,0.2-0.6,0.5-1,0.8c-0.4,0.3-0.8,0.6-1.3,0.9c-0.5,0.3-1,0.5-1.5,0.7c-0.5,0.2-1.1,0.3-1.6,0.3c-0.3,0-0.7-0.2-1.2-0.6
						c-0.5-0.4-1-1.1-1.5-2c-0.3,0.4-0.6,0.7-0.9,1s-0.6,0.6-0.8,0.8c-0.3,0.2-0.5,0.4-0.7,0.6c-0.2,0.1-0.4,0.2-0.6,0.2
						c-0.4,0-0.7-0.1-0.9-0.3s-0.4-0.4-0.6-0.7c-0.1-0.3-0.3-0.6-0.3-1c-0.1-0.4-0.1-0.7-0.1-1L197.8,361.7z"/>
					<path fill="#FFFFFF" d="M209.4,361.7c0,0.2,0,0.4,0,0.6c0,0.2,0,0.4,0,0.6s0,0.3,0,0.5c0,0.1,0,0.3,0.1,0.4
						c0.1,0.1,0.1,0.2,0.2,0.2c0.1,0.1,0.2,0.1,0.4,0.1c0.1,0,0.2,0,0.3-0.1c0.1-0.1,0.2-0.2,0.4-0.4c0.1-0.2,0.3-0.4,0.4-0.6
						c0.2-0.2,0.4-0.5,0.6-0.8c-0.2-0.5-0.5-1.1-0.7-1.8c-0.2-0.6-0.4-1.3-0.7-2.1c0,0,0-0.1,0-0.1c0-0.1,0.1-0.3,0.2-0.4
						c0.1-0.1,0.3-0.3,0.4-0.4c0.2-0.1,0.4-0.2,0.6-0.3c0.2-0.1,0.4-0.1,0.6-0.1c0.2,0,0.3,0,0.4,0.1c0.1,0,0.2,0.1,0.2,0.2
						c0.1,0.2,0.2,0.5,0.4,0.9s0.4,0.9,0.6,1.5c0.4-0.4,0.8-0.8,1.3-1.2s1-0.8,1.5-1.2c0.2-0.1,0.4-0.2,0.5-0.3
						c0.2-0.1,0.3-0.1,0.5-0.1c0.2,0,0.3,0,0.5,0.1c0.1,0.1,0.2,0.2,0.3,0.3c0.1,0.1,0.2,0.3,0.2,0.4c0,0.2,0.1,0.3,0.1,0.5
						c0,0.2-0.1,0.5-0.1,0.7s-0.2,0.4-0.5,0.5c-0.6,0.4-1.1,0.8-1.7,1.2c-0.5,0.5-1,0.9-1.5,1.4c0.2,0.3,0.3,0.6,0.5,0.9
						c0.2,0.3,0.3,0.5,0.5,0.8c0.2,0.2,0.3,0.4,0.5,0.5c0.1,0.1,0.3,0.2,0.4,0.2c0.2,0,0.4,0,0.6-0.1c0.2-0.1,0.5-0.2,0.8-0.3
						c0.3-0.1,0.5-0.3,0.8-0.5s0.5-0.4,0.8-0.6c0.3-0.2,0.5-0.4,0.7-0.6c0.2-0.2,0.4-0.4,0.5-0.5c0,0.2,0,0.5,0,0.7
						c0,0.2,0,0.4,0,0.6c0,0.2,0,0.4,0,0.6c0,0.2,0,0.4,0,0.7c-0.2,0.2-0.6,0.5-1,0.8c-0.4,0.3-0.8,0.6-1.3,0.9
						c-0.5,0.3-1,0.5-1.5,0.7s-1.1,0.3-1.6,0.3c-0.3,0-0.7-0.2-1.2-0.6c-0.5-0.4-1-1.1-1.5-2c-0.3,0.4-0.6,0.7-0.9,1
						s-0.6,0.6-0.8,0.8c-0.3,0.2-0.5,0.4-0.7,0.6c-0.2,0.1-0.4,0.2-0.6,0.2c-0.4,0-0.7-0.1-0.9-0.3s-0.4-0.4-0.6-0.7
						c-0.1-0.3-0.3-0.6-0.3-1c-0.1-0.4-0.1-0.7-0.1-1L209.4,361.7z"/>
				</g>
			</g>
		</g>
		<g>
			<path fill="#EEEEEE" d="M256.1,130.7c-17.7,0-32,14.3-32,31.9s14.3,31.9,32,31.9c17.7,0,32-14.3,32-31.9S273.8,130.7,256.1,130.7
				z M256.1,178.5c-8.8,0-16-7.1-16-15.9s7.2-15.9,16-15.9c8.8,0,16,7.1,16,15.9C272.1,171.3,265,178.5,256.1,178.5z"/>
			<path fill="#EEEEEE" d="M325.1,155.3h-54.7c1.1,2.2,1.7,4.6,1.7,7.2c0,8.8-7.2,15.9-16,15.9c-8.8,0-16-7.1-16-15.9
				c0-2.6,0.6-5,1.7-7.2h-54.7c-4.2,0-7.7,3.5-7.7,7.7v34.1c0,4.2,3.5,7.7,7.7,7.7h138c4.2,0,7.7-3.5,7.7-7.7V163
				C332.8,158.8,329.4,155.3,325.1,155.3z"/>
		</g>
	</g>
</g>
</svg>
