<?xml version="1.0" encoding="utf-8"?>
<!-- Generator: Adobe Illustrator 18.1.1, SVG Export Plug-In . SVG Version: 6.00 Build 0)  -->
<svg version="1.1" id="Layer_1" xmlns="http://www.w3.org/2000/svg" xmlns:xlink="http://www.w3.org/1999/xlink" x="0px" y="0px"
	 viewBox="0 0 130 130" enable-background="new 0 0 130 130" xml:space="preserve">
<g>
	<path fill="#F1592A" d="M12.9,50.7h-10c-1.1,0-2-0.9-2-2V22.5c0-1.1,0.9-2,2-2h10c1.1,0,2,0.9,2,2v26.3
		C14.9,49.8,14,50.7,12.9,50.7z"/>
	<path fill="#2A8BA8" d="M30,50.7H20c-1.1,0-2-0.9-2-2V12.5c0-1.1,0.9-2,2-2h10c1.1,0,2,0.9,2,2v36.2C32,49.8,31.1,50.7,30,50.7z"/>
	<path fill="#86B940" d="M47,50.7H37c-1.1,0-2-0.9-2-2V2.5c0-1.1,0.9-2,2-2h10c1.1,0,2,0.9,2,2v46.2C49,49.8,48.1,50.7,47,50.7z"/>
	<path fill="#EFEFEF" d="M58.8,46.8v-7c0-1.1,0.9-2,2-2h65.2c1.1,0,2,0.9,2,2l0,7c0,1.1-0.9,2-2,2H60.8
		C59.7,48.8,58.8,47.9,58.8,46.8z"/>
	<path fill="#EFEFEF" d="M58.8,28.2v-7c0-1.1,0.9-2,2-2h65.2c1.1,0,2,0.9,2,2l0,7c0,1.1-0.9,2-2,2H60.8
		C59.7,30.2,58.8,29.3,58.8,28.2z"/>
	<path fill="#EFEFEF" d="M58.8,9.5v-7c0-1.1,0.9-2,2-2h65.2c1.1,0,2,0.9,2,2l0,7c0,1.1-0.9,2-2,2H60.8C59.7,11.5,58.8,10.6,58.8,9.5
		z"/>
	<path fill="#EFEFEF" d="M58.8,127.5v-7c0-1.1,0.9-2,2-2h65.2c1.1,0,2,0.9,2,2l0,7c0,1.1-0.9,2-2,2H60.8
		C59.7,129.5,58.8,128.6,58.8,127.5z"/>
	<path fill="#EFEFEF" d="M58.8,108.8v-7c0-1.1,0.9-2,2-2h65.2c1.1,0,2,0.9,2,2l0,7c0,1.1-0.9,2-2,2H60.8
		C59.7,110.8,58.8,109.9,58.8,108.8z"/>
	<path fill="#EFEFEF" d="M58.8,90.2v-7c0-1.1,0.9-2,2-2h65.2c1.1,0,2,0.9,2,2l0,7c0,1.1-0.9,2-2,2H60.8
		C59.7,92.2,58.8,91.3,58.8,90.2z"/>
	<path fill="#E2E2E2" d="M0.9,66.5L0.9,66.5c0-1.1,0.9-2,2-2h124.2c1.1,0,2,0.9,2,2h0c0,1.1-0.9,2-2,2H2.9
		C1.8,68.5,0.9,67.6,0.9,66.5z"/>
	<g>
		<g>
			<path fill="#E36DAA" d="M15.8,127.1C15.8,127.1,15.8,127.1,15.8,127.1C15.8,127.1,15.8,127.1,15.8,127.1z"/>
			<path fill="#E36DAA" d="M14.4,126.4C14.4,126.3,14.3,126.3,14.4,126.4C14.3,126.3,14.4,126.3,14.4,126.4z"/>
			<polygon fill="#E36DAA" points="10.9,124.1 10.9,124.1 10.9,124.1 			"/>
			<path fill="#E36DAA" d="M16.4,127.3c-0.1,0-0.1-0.1-0.2-0.1C16.3,127.3,16.4,127.3,16.4,127.3z"/>
			<path fill="#E36DAA" d="M12.6,125.3C12.6,125.3,12.6,125.3,12.6,125.3C12.6,125.3,12.6,125.3,12.6,125.3z"/>
			<path fill="#E36DAA" d="M25.6,129.1L25.6,129.1c-0.2,0-0.5,0-0.7,0C25.1,129.1,25.3,129.1,25.6,129.1z"/>
			<path fill="#E36DAA" d="M23.4,129c-0.2,0-0.5,0-0.7-0.1C22.9,129,23.2,129,23.4,129z"/>
			<path fill="#E36DAA" d="M10.3,123.6C10.3,123.6,10.3,123.6,10.3,123.6C10.3,123.6,10.3,123.6,10.3,123.6z"/>
			<path fill="#E36DAA" d="M24.7,129.1c-0.2,0-0.4,0-0.6,0C24.3,129.1,24.5,129.1,24.7,129.1z"/>
			<path fill="#E36DAA" d="M24.1,129.1c-0.2,0-0.4,0-0.6,0C23.6,129.1,23.9,129.1,24.1,129.1z"/>
			<path fill="#E36DAA" d="M20.6,128.6c-0.6-0.1-1.3-0.3-1.9-0.5C19.3,128.3,19.9,128.5,20.6,128.6z"/>
			<path fill="#E36DAA" d="M20.6,128.6c0.7,0.1,1.4,0.3,2.1,0.3c-0.4,0-0.8-0.1-1.1-0.2C21.2,128.8,20.9,128.7,20.6,128.6z"/>
			<path fill="#E36DAA" d="M9.3,122.7C9.3,122.7,9.3,122.7,9.3,122.7C9.3,122.7,9.3,122.7,9.3,122.7z"/>
			<path fill="#1298BF" d="M25.6,105.3H1.8c0,3.7,0.8,7.2,2.3,10.3c0.6,1.2,1.3,2.4,2,3.5c0.2,0.3,0.4,0.6,0.7,0.9
				c0.6,0.8,1.2,1.5,1.9,2.1c0,0,0,0,0,0L25.6,105.3z"/>
			<path fill="#E36DAA" d="M16.7,127.4c0.6,0.3,1.3,0.5,2,0.7c-0.3-0.1-0.6-0.2-0.9-0.3C17.3,127.7,17,127.6,16.7,127.4z"/>
			<path fill="#E36DAA" d="M9.8,123.2C9.8,123.2,9.8,123.2,9.8,123.2C9.8,123.2,9.8,123.2,9.8,123.2z"/>
			<polygon fill="#E36DAA" points="22.7,129 22.7,129 22.7,129 			"/>
			<path fill="#E36DAA" d="M20.6,128.6C20.6,128.6,20.6,128.6,20.6,128.6C20.6,128.6,20.6,128.6,20.6,128.6z"/>
			<path fill="#E36DAA" d="M14.4,126.4c0.5,0.3,1,0.5,1.4,0.7c-0.2-0.1-0.4-0.2-0.6-0.3C14.9,126.7,14.7,126.5,14.4,126.4z"/>
			<path fill="#F04E3C" d="M25.6,105.3L25.6,105.3v23.8c1,0,1.9-0.1,2.8-0.2c0.4,0,0.8-0.1,1.1-0.2c1.3-0.2,2.6-0.6,3.9-1
				c3.3-1.1,6.3-3,9-5.6L25.6,105.3z"/>
			<path fill="#E36DAA" d="M10.3,123.6c-0.2-0.1-0.3-0.3-0.5-0.4C10,123.3,10.1,123.5,10.3,123.6z"/>
			<path fill="#E36DAA" d="M24.1,129.1C24.1,129.1,24.1,129.1,24.1,129.1C24.1,129.1,24.1,129.1,24.1,129.1z"/>
			<path fill="#E36DAA" d="M24.8,129.1c0,0-0.1,0-0.1,0C24.8,129.1,24.8,129.1,24.8,129.1z"/>
			<path fill="#E36DAA" d="M23.4,129C23.4,129,23.4,129,23.4,129C23.4,129,23.4,129,23.4,129z"/>
			<path fill="#E36DAA" d="M9.8,123.1c-0.2-0.1-0.3-0.3-0.4-0.4C9.5,122.9,9.6,123,9.8,123.1z"/>
			<path fill="#E36DAA" d="M14.3,126.3c-0.6-0.3-1.1-0.6-1.7-1C13.2,125.7,13.7,126,14.3,126.3z"/>
			<path fill="#E36DAA" d="M9.2,122.7c-0.2-0.2-0.3-0.3-0.5-0.5C8.9,122.3,9.1,122.5,9.2,122.7z"/>
			<path fill="#E36DAA" d="M10.9,124.1c-0.2-0.1-0.4-0.3-0.5-0.4C10.5,123.8,10.7,123.9,10.9,124.1z"/>
			<path fill="#E36DAA" d="M10.9,124.1c0.6,0.4,1.1,0.9,1.7,1.2c-0.3-0.2-0.6-0.4-0.8-0.6C11.5,124.5,11.2,124.3,10.9,124.1z"/>
			<path fill="#E36DAA" d="M18.7,128.1C18.6,128.1,18.6,128.1,18.7,128.1C18.6,128.1,18.6,128.1,18.7,128.1z"/>
			<path fill="#E36DAA" d="M16.7,127.4c-0.1,0-0.1-0.1-0.2-0.1C16.5,127.4,16.6,127.4,16.7,127.4z"/>
			<path fill="#E36DAA" d="M16.2,127.2c-0.1-0.1-0.3-0.1-0.4-0.2C16,127.1,16.1,127.2,16.2,127.2z"/>
			<path fill="#73B8BC" d="M8.7,122.2C8.7,122.2,8.7,122.2,8.7,122.2c0.2,0.2,0.3,0.3,0.5,0.5c0,0,0.1,0,0.1,0.1
				c0.1,0.1,0.3,0.3,0.4,0.4c0,0,0,0,0.1,0c0.2,0.1,0.3,0.3,0.5,0.4c0,0,0,0,0,0c0.2,0.1,0.4,0.3,0.5,0.4c0,0,0,0,0,0
				c0.3,0.2,0.6,0.5,0.9,0.7c0.3,0.2,0.5,0.4,0.8,0.6c0,0,0,0,0,0c0.6,0.4,1.1,0.7,1.7,1c0,0,0,0,0.1,0c0.3,0.2,0.6,0.3,0.9,0.4
				c0.2,0.1,0.4,0.2,0.6,0.3c0,0,0,0,0,0c0.1,0.1,0.3,0.1,0.4,0.2c0.1,0,0.1,0.1,0.2,0.1c0.1,0,0.1,0.1,0.2,0.1
				c0.3,0.1,0.7,0.3,1,0.4c0.3,0.1,0.6,0.2,0.9,0.3c0,0,0,0,0.1,0c0.6,0.2,1.3,0.4,1.9,0.5c0,0,0,0,0,0c0.3,0.1,0.7,0.1,1,0.2
				c0.4,0.1,0.8,0.1,1.1,0.2c0,0,0,0,0,0c0.2,0,0.5,0.1,0.7,0.1c0,0,0,0,0,0c0.2,0,0.4,0,0.6,0c0,0,0,0,0.1,0c0.2,0,0.4,0,0.6,0
				c0,0,0.1,0,0.1,0c0.2,0,0.5,0,0.7,0v-23.8L8.7,122.2z"/>
		</g>
		<g>
			<path fill="#E36DAA" d="M34,83.1C34,83.1,34,83.1,34,83.1C34,83.1,34,83.1,34,83.1z"/>
			<path fill="#E36DAA" d="M32.5,82.6C32.5,82.6,32.5,82.6,32.5,82.6C32.5,82.6,32.5,82.6,32.5,82.6z"/>
			<polygon fill="#E36DAA" points="28.4,81.7 28.4,81.7 28.4,81.7 			"/>
			<path fill="#E36DAA" d="M34.7,83.4c-0.1,0-0.1-0.1-0.2-0.1C34.5,83.3,34.6,83.3,34.7,83.4z"/>
			<path fill="#E36DAA" d="M30.5,82.1C30.5,82.1,30.5,82.1,30.5,82.1C30.5,82.1,30.5,82.1,30.5,82.1z"/>
			<path fill="#E36DAA" d="M42.4,88.5L42.4,88.5c-0.2-0.2-0.3-0.3-0.5-0.5C42,88.2,42.2,88.4,42.4,88.5z"/>
			<path fill="#E36DAA" d="M40.8,87.1c-0.2-0.1-0.4-0.3-0.5-0.4C40.4,86.8,40.6,86.9,40.8,87.1z"/>
			<path fill="#E36DAA" d="M27.7,81.7C27.7,81.7,27.7,81.7,27.7,81.7C27.7,81.7,27.7,81.7,27.7,81.7z"/>
			<path fill="#E36DAA" d="M41.8,88c-0.1-0.1-0.3-0.3-0.5-0.4C41.5,87.7,41.6,87.8,41.8,88z"/>
			<path fill="#E36DAA" d="M41.3,87.5c-0.2-0.1-0.3-0.3-0.5-0.4C41,87.2,41.1,87.4,41.3,87.5z"/>
			<path fill="#E36DAA" d="M38.5,85.4c-0.6-0.4-1.1-0.7-1.7-1C37.4,84.7,37.9,85,38.5,85.4z"/>
			<path fill="#E36DAA" d="M38.5,85.4c0.6,0.4,1.2,0.8,1.7,1.2c-0.3-0.2-0.6-0.5-0.9-0.7C39.1,85.8,38.8,85.6,38.5,85.4z"/>
			<path fill="#E36DAA" d="M26.4,81.6c0,0-0.1,0-0.1,0C26.3,81.6,26.3,81.6,26.4,81.6z"/>
			<path fill="#9CCB41" d="M25.6,105.3L8.7,88.5c2.6-2.6,5.7-4.5,9-5.6c1.3-0.4,2.6-0.8,3.9-1c0.4-0.1,0.8-0.1,1.1-0.2
				c1-0.1,1.9-0.2,2.9-0.2c0,0,0,0,0,0L25.6,105.3z"/>
			<path fill="#E36DAA" d="M34.9,83.4c0.6,0.3,1.3,0.6,1.9,0.9c-0.3-0.2-0.6-0.3-0.9-0.4C35.5,83.7,35.2,83.6,34.9,83.4z"/>
			<path fill="#E36DAA" d="M27,81.6C27,81.6,27,81.6,27,81.6C27,81.6,27,81.6,27,81.6z"/>
			<polygon fill="#E36DAA" points="40.2,86.6 40.2,86.6 40.2,86.6 			"/>
			<path fill="#E36DAA" d="M38.5,85.4C38.5,85.4,38.5,85.4,38.5,85.4C38.5,85.4,38.5,85.4,38.5,85.4z"/>
			<path fill="#E36DAA" d="M32.5,82.6c0.5,0.2,1,0.3,1.5,0.5c-0.2-0.1-0.4-0.1-0.6-0.2C33.1,82.8,32.8,82.7,32.5,82.6z"/>
			<path fill="#FCB316" d="M25.6,105.3L25.6,105.3l16.8-16.8c0.7,0.7,1.3,1.4,1.9,2.1c0.2,0.3,0.5,0.6,0.7,0.9
				c0.8,1.1,1.5,2.2,2,3.5c1.5,3.1,2.3,6.6,2.3,10.3L25.6,105.3z"/>
			<path fill="#E36DAA" d="M27.7,81.6c-0.2,0-0.4,0-0.6,0C27.3,81.6,27.5,81.6,27.7,81.6z"/>
			<path fill="#E36DAA" d="M41.3,87.5C41.3,87.5,41.3,87.5,41.3,87.5C41.3,87.5,41.3,87.5,41.3,87.5z"/>
			<path fill="#E36DAA" d="M41.9,88C41.8,88,41.8,88,41.9,88C41.8,88,41.8,88,41.9,88z"/>
			<path fill="#E36DAA" d="M40.8,87.1C40.8,87.1,40.8,87.1,40.8,87.1C40.8,87.1,40.8,87.1,40.8,87.1z"/>
			<path fill="#E36DAA" d="M27,81.6c-0.2,0-0.4,0-0.6,0C26.6,81.6,26.8,81.6,27,81.6z"/>
			<path fill="#E36DAA" d="M32.4,82.6c-0.6-0.2-1.3-0.4-1.9-0.5C31.2,82.2,31.8,82.4,32.4,82.6z"/>
			<path fill="#E36DAA" d="M26.3,81.6c-0.2,0-0.5,0-0.7,0C25.8,81.6,26,81.6,26.3,81.6z"/>
			<path fill="#E36DAA" d="M28.4,81.7c-0.2,0-0.5-0.1-0.7-0.1C27.9,81.7,28.2,81.7,28.4,81.7z"/>
			<path fill="#E36DAA" d="M28.4,81.7c0.7,0.1,1.4,0.2,2.1,0.3c-0.3-0.1-0.7-0.1-1-0.2C29.2,81.8,28.8,81.8,28.4,81.7z"/>
			<path fill="#E36DAA" d="M36.8,84.4C36.8,84.4,36.8,84.4,36.8,84.4C36.8,84.4,36.8,84.4,36.8,84.4z"/>
			<path fill="#E36DAA" d="M34.9,83.4c-0.1,0-0.1-0.1-0.2-0.1C34.7,83.4,34.8,83.4,34.9,83.4z"/>
			<path fill="#E36DAA" d="M34.4,83.3c-0.1-0.1-0.3-0.1-0.4-0.2C34.2,83.2,34.3,83.2,34.4,83.3z"/>
			<path fill="#FFD76D" d="M25.6,81.6C25.6,81.6,25.6,81.6,25.6,81.6c0.2,0,0.5,0,0.7,0c0,0,0.1,0,0.1,0c0.2,0,0.4,0,0.6,0
				c0,0,0,0,0.1,0c0.2,0,0.4,0,0.6,0c0,0,0,0,0,0c0.2,0,0.5,0,0.7,0.1c0,0,0,0,0,0c0.4,0,0.8,0.1,1.1,0.2c0.3,0.1,0.7,0.1,1,0.2
				c0,0,0,0,0,0c0.6,0.1,1.3,0.3,1.9,0.5c0,0,0,0,0.1,0c0.3,0.1,0.6,0.2,0.9,0.3c0.2,0.1,0.4,0.1,0.6,0.2c0,0,0,0,0,0
				c0.1,0.1,0.3,0.1,0.4,0.2c0.1,0,0.1,0.1,0.2,0.1c0.1,0,0.1,0.1,0.2,0.1c0.3,0.1,0.7,0.3,1,0.5c0.3,0.1,0.6,0.3,0.9,0.4
				c0,0,0,0,0,0c0.6,0.3,1.2,0.6,1.7,1c0,0,0,0,0,0c0.3,0.2,0.6,0.4,0.8,0.6c0.3,0.2,0.6,0.4,0.9,0.7c0,0,0,0,0,0
				c0.2,0.1,0.4,0.3,0.5,0.4c0,0,0,0,0,0c0.2,0.1,0.3,0.3,0.5,0.4c0,0,0,0,0,0c0.2,0.1,0.3,0.3,0.5,0.4c0,0,0.1,0,0.1,0.1
				c0.2,0.2,0.3,0.3,0.5,0.5l-16.8,16.8L25.6,81.6z"/>
		</g>
		<g>
			<path fill="#60AB45" d="M8.7,88.5c-2.6,2.6-4.5,5.7-5.6,9c-0.4,1.3-0.8,2.6-1,3.9c-0.1,0.4-0.1,0.8-0.2,1.1
				c-0.1,0.9-0.2,1.9-0.2,2.8l23.8,0L8.7,88.5z"/>
		</g>
		<g>
			<path fill="#F17536" d="M42.4,122.2c2.6-2.6,4.5-5.7,5.6-9c0.4-1.3,0.8-2.6,1-3.9c0.1-0.4,0.1-0.8,0.2-1.1
				c0.1-0.9,0.2-1.9,0.2-2.8l-23.8,0L42.4,122.2z"/>
		</g>
	</g>
</g>
</svg>
