<?xml version="1.0" encoding="utf-8"?>
<!-- Generator: Adobe Illustrator 18.1.1, SVG Export Plug-In . SVG Version: 6.00 Build 0)  -->
<svg version="1.0" id="Layer_1" xmlns="http://www.w3.org/2000/svg" xmlns:xlink="http://www.w3.org/1999/xlink" x="0px" y="0px"
	 viewBox="0 0 130 130" enable-background="new 0 0 130 130" xml:space="preserve">
<g>
	<g>
		<path fill="#EA6C32" d="M14.3,50.1c-1.2-0.1-2.4,0.4-3.4,1.2c-0.9,0.8-1.4,2-1.4,3.3v27c0,2.3,1.7,4.2,4,4.5
			c17.2,1.9,30.3,16.5,30.5,33.8c0,2.5,2,4.4,4.5,4.4h26.9c1.2,0,2.3-0.5,3.2-1.3c0.8-0.8,1.3-2,1.3-3.2
			C79.6,83.1,50.8,52.4,14.3,50.1z"/>
		<path fill="#EA6C32" d="M14.1,1c-1.2,0-2.4,0.4-3.3,1.3c-0.9,0.8-1.4,2-1.4,3.2v26.9c0,2.4,1.9,4.4,4.3,4.5
			c44.2,2.2,79,38.6,79.2,82.9c0,2.5,2,4.5,4.5,4.5h26.9c1.2,0,2.3-0.5,3.2-1.3c0.8-0.8,1.3-2,1.3-3.2C128.6,55.6,78.2,3.4,14.1,1z"
			/>
		<ellipse fill="#EA6C32" cx="14.3" cy="115.4" rx="13.6" ry="13.6"/>
	</g>
	<g>
		<path opacity="5.000000e-02" d="M16.1,50.2c-0.6-0.1-1.3-0.1-1.9-0.2c-1.2-0.1-2.4,0.4-3.4,1.2c-0.9,0.8-1.4,2-1.4,3.3v27
			c0,2.3,1.7,4.2,4,4.5c17.2,1.9,30.3,16.5,30.5,33.8c0,2.5,2,4.4,4.5,4.4h26.9c1.2,0,2.3-0.5,3.2-1.3c0.8-0.8,1.3-2,1.3-3.2
			c0-2.1-0.1-4.1-0.3-6.1C58.4,92.5,37.3,71.4,16.1,50.2z"/>
		<path opacity="0.1" fill="#FFFFFF" d="M128.5,111.9C124.5,52.6,77.5,5.3,17.9,1.2L128.5,111.9z"/>
		<ellipse opacity="5.000000e-02" cx="14.3" cy="115.4" rx="13.6" ry="13.6"/>
	</g>
</g>
</svg>
