<?xml version="1.0" encoding="utf-8"?>
<!-- Generator: Adobe Illustrator 18.1.1, SVG Export Plug-In . SVG Version: 6.00 Build 0)  -->
<svg version="1.0" id="Layer_1" xmlns="http://www.w3.org/2000/svg" xmlns:xlink="http://www.w3.org/1999/xlink" x="0px" y="0px"
	 viewBox="0 0 130 130" enable-background="new 0 0 130 130" xml:space="preserve">
<g>
	<g>
		<g>
			<g>
				<g>
					<g>
						<circle fill="#EA6C32" cx="65" cy="65" r="64"/>
						<path opacity="0.1" fill="#FFFFFF" d="M115.9,103.8C124.1,93,129,79.6,129,65c0-35.3-28.7-64-64-64C50.6,1,37.4,5.7,26.7,13.7
							C56.3,43.9,86.1,73.9,115.9,103.8z"/>
						<path opacity="5.000000e-02" fill="#020202" d="M12.7,28.1C5.4,38.5,1,51.2,1,65c0,35.3,28.7,64,64,64
							c13.6,0,26.1-4.2,36.5-11.4C71.8,87.9,42.2,58.1,12.7,28.1z"/>
					</g>
				</g>
			</g>
		</g>
	</g>
	<g>
		<path fill="#F2F2F2" d="M40.9,55.7c-0.7,0-1.4,0.2-1.9,0.7c-0.5,0.5-0.8,1.1-0.8,1.8v15.1c0,1.3,1,2.3,2.2,2.5
			c9.6,1.1,16.9,9.2,17,18.9c0,1.4,1.1,2.5,2.5,2.5h15c0.7,0,1.3-0.3,1.8-0.7s0.7-1.1,0.7-1.8C77.3,74.1,61.3,57,40.9,55.7z"/>
		<path fill="#F2F2F2" d="M40.8,28.3c-0.7,0-1.3,0.2-1.8,0.7c-0.5,0.5-0.8,1.1-0.8,1.8v15c0,1.3,1,2.4,2.4,2.5
			c24.7,1.2,44.1,21.5,44.2,46.3c0,1.4,1.1,2.5,2.5,2.5h15c0.7,0,1.3-0.3,1.8-0.7c0.5-0.5,0.7-1.1,0.7-1.8
			C104.7,58.7,76.6,29.6,40.8,28.3z"/>
		<circle fill="#F2F2F2" cx="40.9" cy="92.1" r="7.6"/>
	</g>
	<g>
		<path opacity="5.000000e-02" d="M41.9,55.8c-0.4,0-0.7-0.1-1.1-0.1c-0.7,0-1.4,0.2-1.9,0.7c-0.5,0.5-0.8,1.1-0.8,1.8v15.1
			c0,1.3,1,2.3,2.2,2.5c9.6,1.1,16.9,9.2,17,18.9c0,1.4,1.1,2.5,2.5,2.5h15c0.7,0,1.3-0.3,1.8-0.7s0.7-1.1,0.7-1.8
			c0-1.2-0.1-2.3-0.2-3.4C65.5,79.3,53.7,67.6,41.9,55.8z"/>
		<path fill="#FFFFFF" d="M104.6,90.2c-2.2-33.1-28.4-59.5-61.7-61.7L104.6,90.2z"/>
		<circle opacity="5.000000e-02" cx="40.9" cy="92.1" r="7.6"/>
	</g>
</g>
</svg>
