<?xml version="1.0" encoding="utf-8"?>
<!-- Generator: Adobe Illustrator 18.1.1, SVG Export Plug-In . SVG Version: 6.00 Build 0)  -->
<svg version="1.1" id="Layer_1" xmlns="http://www.w3.org/2000/svg" xmlns:xlink="http://www.w3.org/1999/xlink" x="0px" y="0px"
	 viewBox="0 0 130 130" enable-background="new 0 0 130 130" xml:space="preserve">
<g>
	<g>
		<g>
			<circle fill="#3E3E3E" cx="64" cy="65.2" r="64"/>
			<path fill="#525353" d="M114.9,103.9c8.2-10.8,13.1-24.2,13.1-38.8c0-35.3-28.7-64-64-64c-14.4,0-27.6,4.7-38.3,12.7
				C55.3,44.1,85.1,74,114.9,103.9z"/>
			<path fill="#30302F" d="M11.7,28.3C4.4,38.7,0,51.4,0,65.2c0,35.3,28.7,64,64,64c13.6,0,26.1-4.2,36.5-11.4
				C70.8,88,41.2,58.2,11.7,28.3z"/>
		</g>
	</g>
	<g>
		<g>
			<g>
				<g>
					<path fill="#74B9BB" d="M40.8,96.9h-0.3c-2.1,0-3.8-1.7-3.8-3.8V37.2c0-2.1,1.7-3.8,3.8-3.8h0.3c2.1,0,3.8,1.7,3.8,3.8v55.9
						C44.6,95.2,42.9,96.9,40.8,96.9z"/>
				</g>
			</g>
			<g>
				<g>
					<path fill="#FFFFFF" d="M40.6,48c1.8,0,3.3,1.5,3.3,3.3c0,1.8-1.5,3.3-3.3,3.3s-3.3-1.5-3.3-3.3C37.3,49.5,38.7,48,40.6,48
						 M40.6,43c-4.6,0-8.3,3.7-8.3,8.3s3.7,8.3,8.3,8.3s8.3-3.7,8.3-8.3S45.2,43,40.6,43L40.6,43z"/>
				</g>
			</g>
		</g>
		<g>
			<g>
				<g>
					<path fill="#9CCA41" d="M87.6,96.9h-0.3c-2.1,0-3.8-1.7-3.8-3.8V37.2c0-2.1,1.7-3.8,3.8-3.8h0.3c2.1,0,3.8,1.7,3.8,3.8v55.9
						C91.4,95.2,89.7,96.9,87.6,96.9z"/>
				</g>
			</g>
			<g>
				<g>
					<path fill="#FFFFFF" d="M87.4,57.7c1.8,0,3.3,1.5,3.3,3.3c0,1.8-1.5,3.3-3.3,3.3s-3.3-1.5-3.3-3.3
						C84.1,59.2,85.6,57.7,87.4,57.7 M87.4,52.7c-4.6,0-8.3,3.7-8.3,8.3s3.7,8.3,8.3,8.3s8.3-3.7,8.3-8.3S92,52.7,87.4,52.7
						L87.4,52.7z"/>
				</g>
			</g>
		</g>
		<g>
			<g>
				<g>
					<path fill="#F15A2B" d="M64.2,96.9h-0.3c-2.1,0-3.8-1.7-3.8-3.8V37.2c0-2.1,1.7-3.8,3.8-3.8h0.3c2.1,0,3.8,1.7,3.8,3.8v55.9
						C68,95.2,66.3,96.9,64.2,96.9z"/>
				</g>
			</g>
			<g>
				<g>
					<path fill="#FFFFFF" d="M64,74.3c1.8,0,3.3,1.5,3.3,3.3c0,1.8-1.5,3.3-3.3,3.3c-1.8,0-3.3-1.5-3.3-3.3
						C60.7,75.8,62.2,74.3,64,74.3 M64,69.3c-4.6,0-8.3,3.7-8.3,8.3s3.7,8.3,8.3,8.3s8.3-3.7,8.3-8.3S68.6,69.3,64,69.3L64,69.3z"/>
				</g>
			</g>
		</g>
	</g>
</g>
</svg>
