<?xml version="1.0" encoding="utf-8"?>
<!-- Generator: Adobe Illustrator 18.0.0, SVG Export Plug-In . SVG Version: 6.00 Build 0)  -->
<!DOCTYPE svg PUBLIC "-//W3C//DTD SVG 1.1//EN" "http://www.w3.org/Graphics/SVG/1.1/DTD/svg11.dtd">
<svg version="1.1" id="Layer_1" xmlns="http://www.w3.org/2000/svg" xmlns:xlink="http://www.w3.org/1999/xlink" x="0px" y="0px"
	 viewBox="0 0 300 300" enable-background="new 0 0 300 300" xml:space="preserve">
<g>
	<g>
		<path opacity="5.000000e-02" enable-background="new    " d="M297.7,297.7c0-78,0-244.6,0-244.6c0-2.5-1.8-4.6-3.9-4.6H66.5
			c62.5,72.5,124.8,167.8,187.2,249.2H297.7z"/>
		<path fill="#F4F4F4" d="M294,297.7V52.2c0-2.5-2.1-4.6-4.6-4.6H48.5c-2.5,0-4.6,2.1-4.6,4.6v245.5H294z"/>
		<path fill="#DEDDDD" d="M294,63.2V52.4c0-2.3-1.8-3.9-3.9-3.9H47.8c-2.1,0-3.9,1.8-3.9,3.9v10.8C43.8,63.2,294,63.2,294,63.2z"/>
		<ellipse fill="#F04E3C" cx="51.7" cy="56.5" rx="2.8" ry="3"/>
		<ellipse fill="#ECB34B" cx="59.3" cy="56.5" rx="2.8" ry="3"/>
		<ellipse fill="#518E40" cx="66.7" cy="56.5" rx="2.8" ry="3"/>
		<g>
			<polygon fill="#FFFFFF" points="62.1,119.8 62.1,121.6 62.1,123.7 97.6,123.7 97.6,121.6 97.6,119.8 			"/>
			<polygon fill="#ECB34B" points="62.1,111.7 62.1,113.5 62.1,115.6 97.6,115.6 97.6,113.5 97.6,111.7 			"/>
			<polygon fill="#FFFFFF" points="62.1,129.5 62.1,131.3 97.6,131.3 97.6,129.5 97.6,127.4 62.1,127.4 			"/>
			<polygon fill="#FFFFFF" points="62.1,137.1 62.1,139.2 97.6,139.2 97.6,137.1 97.6,135 62.1,135 			"/>
			<polygon fill="#FFFFFF" points="62.1,144.7 62.1,146.8 97.6,146.8 97.6,144.7 97.6,142.8 62.1,142.8 			"/>
			<polygon fill="#FFFFFF" points="62.1,152.5 62.1,154.4 97.6,154.4 97.6,152.5 97.6,150.5 62.1,150.5 			"/>
		</g>
		<path opacity="0.4" fill="#FFFFFF" enable-background="new    " d="M294,284.5V52.4c0-2.3-1.8-3.9-3.9-3.9H62.8
			C140.1,126.9,217.2,205.6,294,284.5z"/>
		<g>
			<rect x="56.3" y="102" fill="#1999B6" width="224.3" height="7.8"/>
			<rect x="104.5" y="109.8" fill="#E2E2E2" width="176.1" height="187.8"/>
			<rect x="109.6" y="116.1" fill="#FFFFFF" width="165.7" height="181.6"/>
			<rect x="56.3" y="110.8" opacity="0.2" fill="#6C6D6D" enable-background="new    " width="48.2" height="186.9"/>
			<rect x="109.6" y="122.5" fill="#1999B6" width="29.1" height="7.8"/>
			<g>
				<rect x="132" y="143.1" fill="#EFEFEF" width="37.2" height="7.8"/>
				<rect x="132" y="158.5" fill="#EFEFEF" width="37.2" height="7.8"/>
				<rect x="176.8" y="143.1" fill="#EFEFEF" width="37.2" height="7.8"/>
				<rect x="176.8" y="158.5" fill="#EFEFEF" width="37.2" height="7.8"/>
				<rect x="221.8" y="143.1" fill="#EFEFEF" width="37.2" height="7.8"/>
				<rect x="221.8" y="158.5" fill="#EFEFEF" width="37.2" height="7.8"/>
			</g>
			<g>
				<rect x="132" y="203.8" fill="#EFEFEF" width="37.2" height="7.8"/>
				<rect x="132" y="219" fill="#EFEFEF" width="37.2" height="7.8"/>
				<rect x="176.8" y="203.8" fill="#EFEFEF" width="37.2" height="7.8"/>
				<rect x="176.8" y="219" fill="#EFEFEF" width="37.2" height="7.8"/>
				<rect x="221.8" y="203.8" fill="#EFEFEF" width="37.2" height="7.8"/>
				<rect x="221.8" y="219" fill="#EFEFEF" width="37.2" height="7.8"/>
			</g>
			<rect x="109.6" y="185.8" fill="#1999B6" width="29.1" height="7.8"/>
			<g>
				<rect x="132" y="267.7" fill="#EFEFEF" width="37.2" height="7.8"/>
				<rect x="132" y="283.2" fill="#EFEFEF" width="37.2" height="7.8"/>
				<rect x="176.8" y="267.7" fill="#EFEFEF" width="37.2" height="7.8"/>
				<rect x="176.8" y="283.2" fill="#EFEFEF" width="37.2" height="7.8"/>
				<rect x="221.8" y="267.7" fill="#EFEFEF" width="37.2" height="7.8"/>
				<rect x="221.8" y="283.2" fill="#EFEFEF" width="37.2" height="7.8"/>
			</g>
			<rect x="109.6" y="249.7" fill="#1999B6" width="29.1" height="7.8"/>
		</g>
		<path opacity="2.000000e-02" enable-background="new    " d="M214.6,297.7c-56.8-58.2-113.8-116.3-170.8-174.2v174.2H214.6z"/>
	</g>
	<g>
		<path opacity="5.000000e-02" enable-background="new    " d="M276.9,297.7c0-60.5,0-267.7,0-267.7c0-2.5-1.8-4.6-3.9-4.6H45.7
			c68.5,79.4,136.8,186.2,204.9,272.3H276.9z"/>
		<path fill="#F4F4F4" d="M273.2,297.7V29.1c0-2.5-2.1-4.6-4.6-4.6H27.7c-2.5,0-4.6,2.1-4.6,4.6v268.6H273.2z"/>
		<path fill="#DEDDDD" d="M273.2,40.2V29.3c0-2.3-1.8-3.9-3.9-3.9H27c-2.1,0-3.9,1.8-3.9,3.9v10.8H273.2z"/>
		<ellipse fill="#F04E3C" cx="30.9" cy="33.5" rx="2.8" ry="3"/>
		<ellipse fill="#ECB34B" cx="38.5" cy="33.5" rx="2.8" ry="3"/>
		<ellipse fill="#518E40" cx="45.9" cy="33.5" rx="2.8" ry="3"/>
		<g>
			<polygon fill="#FFFFFF" points="41.3,96.7 41.3,98.5 41.3,100.6 76.8,100.6 76.8,98.5 76.8,96.7 			"/>
			<polygon fill="#ECB34B" points="41.3,88.6 41.3,90.5 41.3,92.5 76.8,92.5 76.8,90.5 76.8,88.6 			"/>
			<polygon fill="#FFFFFF" points="41.3,106.4 41.3,108.2 76.8,108.2 76.8,106.4 76.8,104.3 41.3,104.3 			"/>
			<polygon fill="#FFFFFF" points="41.3,114 41.3,116.1 76.8,116.1 76.8,114 76.8,111.9 41.3,111.9 			"/>
			<polygon fill="#FFFFFF" points="41.3,121.6 41.3,123.7 76.8,123.7 76.8,121.6 76.8,119.8 41.3,119.8 			"/>
			<polygon fill="#FFFFFF" points="41.3,129.5 41.3,131.3 76.8,131.3 76.8,129.5 76.8,127.4 41.3,127.4 			"/>
		</g>
		<path opacity="0.4" fill="#FFFFFF" enable-background="new    " d="M273.2,261.5V29.3c0-2.3-1.8-3.9-3.9-3.9H42
			C119.3,103.8,196.4,182.5,273.2,261.5z"/>
		<g>
			<rect x="35.5" y="78.9" fill="#1999B6" width="224.3" height="7.8"/>
			<rect x="83.8" y="86.8" fill="#E2E2E2" width="176.1" height="202.4"/>
			<rect x="88.8" y="93" fill="#FFFFFF" width="165.7" height="189.2"/>
			<rect x="35.5" y="87.7" opacity="0.2" fill="#6C6D6D" enable-background="new    " width="48.2" height="201.7"/>
			<rect x="88.8" y="99.5" fill="#1999B6" width="29.1" height="7.8"/>
			<g>
				<rect x="111.2" y="120" fill="#EFEFEF" width="37.2" height="7.8"/>
				<rect x="111.2" y="135.5" fill="#EFEFEF" width="37.2" height="7.8"/>
				<rect x="156" y="120" fill="#EFEFEF" width="37.2" height="7.8"/>
				<rect x="156" y="135.5" fill="#EFEFEF" width="37.2" height="7.8"/>
				<rect x="201" y="120" fill="#EFEFEF" width="37.2" height="7.8"/>
				<rect x="201" y="135.5" fill="#EFEFEF" width="37.2" height="7.8"/>
			</g>
			<g>
				<rect x="111.2" y="180.7" fill="#EFEFEF" width="37.2" height="7.8"/>
				<rect x="111.2" y="195.9" fill="#EFEFEF" width="37.2" height="7.8"/>
				<rect x="156" y="180.7" fill="#EFEFEF" width="37.2" height="7.8"/>
				<rect x="156" y="195.9" fill="#EFEFEF" width="37.2" height="7.8"/>
				<rect x="201" y="180.7" fill="#EFEFEF" width="37.2" height="7.8"/>
				<rect x="201" y="195.9" fill="#EFEFEF" width="37.2" height="7.8"/>
			</g>
			<rect x="88.8" y="162.7" fill="#1999B6" width="29.1" height="7.8"/>
			<g>
				<rect x="111.2" y="244.6" fill="#EFEFEF" width="37.2" height="7.8"/>
				<rect x="111.2" y="260.1" fill="#EFEFEF" width="37.2" height="7.8"/>
				<rect x="156" y="244.6" fill="#EFEFEF" width="37.2" height="7.8"/>
				<rect x="156" y="260.1" fill="#EFEFEF" width="37.2" height="7.8"/>
				<rect x="201" y="244.6" fill="#EFEFEF" width="37.2" height="7.8"/>
				<rect x="201" y="260.1" fill="#EFEFEF" width="37.2" height="7.8"/>
			</g>
			<rect x="88.8" y="226.6" fill="#1999B6" width="29.1" height="7.8"/>
		</g>
		<path opacity="2.000000e-02" enable-background="new    " d="M216.2,297.7c-64.2-66-128.5-131.8-193.2-197.3v197.3H216.2z"/>
	</g>
	<g>
		<path opacity="5.000000e-02" enable-background="new    " d="M256.2,291.7c0-7.2,0-283.8,0-283.8c0-2.5-1.8-4.6-3.9-4.6H24.9
			c74.1,85.8,147.9,204,221.8,292.8C246.7,296.1,256.2,298.8,256.2,291.7z"/>
		<path fill="#F4F4F4" d="M247.8,297.7H6.9c-2.5,0-4.6-2.1-4.6-4.6V6.9c0-2.5,2.1-4.6,4.6-4.6h240.9c2.5,0,4.6,2.1,4.6,4.6v286.2
			C252.5,295.6,250.4,297.7,247.8,297.7z"/>
		<path fill="#DEDDDD" d="M252.5,18V6.9c0-2.3-1.8-3.9-3.9-3.9H6.2C4.2,3,2.3,4.8,2.3,6.9v10.8h250.2V18z"/>
		<ellipse fill="#F04E3C" cx="10.2" cy="11.3" rx="2.8" ry="3"/>
		<ellipse fill="#ECB34B" cx="17.8" cy="11.3" rx="2.8" ry="3"/>
		<ellipse fill="#518E40" cx="25.2" cy="11.3" rx="2.8" ry="3"/>
		<g>
			<g>
				<rect x="15.7" y="65.8" fill="#1999B6" width="224.3" height="7.8"/>
				<rect x="15.7" y="73.6" fill="#E2E2E2" width="224.3" height="202.4"/>
				<rect x="21.5" y="79.8" fill="#FFFFFF" width="42.5" height="189.9"/>
				<g>
					<rect x="69" y="79.8" fill="#FFFFFF" width="165.7" height="189.9"/>
					<rect x="69" y="86.3" fill="#1999B6" width="29.1" height="7.8"/>
					<g>
						<rect x="91.4" y="104.5" fill="#EFEFEF" width="37.2" height="7.8"/>
						<rect x="91.4" y="120" fill="#EFEFEF" width="37.2" height="7.8"/>
						<rect x="136.2" y="104.5" fill="#EFEFEF" width="37.2" height="7.8"/>
						<rect x="136.2" y="120" fill="#EFEFEF" width="37.2" height="7.8"/>
						<rect x="181.2" y="104.5" fill="#EFEFEF" width="37.2" height="7.8"/>
						<rect x="181.2" y="120" fill="#EFEFEF" width="37.2" height="7.8"/>
					</g>
				</g>
				<g>
					<rect x="69" y="215.3" fill="#1999B6" width="29.1" height="7.8"/>
					<g>
						<rect x="91.4" y="233.5" fill="#EFEFEF" width="37.2" height="7.8"/>
						<rect x="91.4" y="249" fill="#EFEFEF" width="37.2" height="7.8"/>
						<rect x="136.2" y="233.5" fill="#EFEFEF" width="37.2" height="7.8"/>
						<rect x="136.2" y="249" fill="#EFEFEF" width="37.2" height="7.8"/>
						<rect x="181.2" y="233.5" fill="#EFEFEF" width="37.2" height="7.8"/>
						<rect x="181.2" y="249" fill="#EFEFEF" width="37.2" height="7.8"/>
					</g>
				</g>
				<g>
					<rect x="69" y="150.9" fill="#1999B6" width="29.1" height="7.8"/>
					<g>
						<rect x="91.4" y="169.2" fill="#EFEFEF" width="37.2" height="7.8"/>
						<rect x="91.4" y="184.4" fill="#EFEFEF" width="37.2" height="7.8"/>
						<rect x="136.2" y="169.2" fill="#EFEFEF" width="37.2" height="7.8"/>
						<rect x="136.2" y="184.4" fill="#EFEFEF" width="37.2" height="7.8"/>
						<rect x="181.2" y="169.2" fill="#EFEFEF" width="37.2" height="7.8"/>
						<rect x="181.2" y="184.4" fill="#EFEFEF" width="37.2" height="7.8"/>
					</g>
				</g>
			</g>
			<g>
				<polygon fill="#EFEFEF" points="28.4,99.5 28.4,103.6 28.4,107.8 56.8,107.8 56.8,103.6 56.8,99.5 				"/>
				<polygon fill="#ECB34B" points="28.4,87 28.4,91.2 28.4,95.3 56.8,95.3 56.8,91.2 56.8,87 				"/>
				<polygon fill="#EFEFEF" points="28.4,116.1 28.4,120 56.8,120 56.8,116.1 56.8,111.9 28.4,111.9 				"/>
				<polygon fill="#EFEFEF" points="28.4,128.3 28.4,132.5 56.8,132.5 56.8,128.3 56.8,124.2 28.4,124.2 				"/>
				<polygon fill="#EFEFEF" points="28.4,140.8 28.4,144.9 56.8,144.9 56.8,140.8 56.8,136.6 28.4,136.6 				"/>
				<polygon fill="#EFEFEF" points="28.4,153.2 28.4,157.4 56.8,157.4 56.8,153.2 56.8,149.1 28.4,149.1 				"/>
			</g>
		</g>
		<g>
			<path opacity="0.4" fill="#FFFFFF" enable-background="new    " d="M252.5,239.3V7.2c0-2.3-1.8-3.9-3.9-3.9H21.2
				C98.5,81.7,175.6,160.4,252.5,239.3z"/>
			<path opacity="2.000000e-02" enable-background="new    " d="M2.3,78.2v215.5c0,2.3,1.8,3.9,3.9,3.9h210.9
				C145.6,224.3,74.1,151.2,2.3,78.2z"/>
		</g>
	</g>
</g>
<rect x="14.7" y="38.3" fill="#8CCACD" width="82.9" height="8"/>
<g>
	<g>
		<polygon fill="#DEDCDC" points="24.7,44.3 26.1,46.7 27.4,44.2 26.6,42.3 		"/>
		<polygon fill="#FFFFFF" points="22.5,42 20.1,40.7 22.5,39.3 24.4,40.1 		"/>
	</g>
	<g>
		<path fill="#EF4F3D" d="M23.8,45.2c-0.1,0.5-0.3,1.1-0.7,1.5c-1.2,1.2-3.6,0.6-3.6,0.6s-0.6-2.5,0.6-3.7c0.4-0.4,0.9-0.6,1.5-0.7
			L23.8,45.2z"/>
		<path fill="#F07537" d="M23.6,45c-0.1,0.5-0.2,0.9-0.6,1.2c-1,1-3,0.5-3,0.5s-0.5-2.1,0.5-3c0.3-0.3,0.8-0.5,1.2-0.6L23.6,45z"/>
		<path fill="#FAB217" d="M23.5,44.8c-0.1,0.4-0.2,0.8-0.5,1c-0.8,0.8-2.5,0.4-2.5,0.4s-0.4-1.7,0.4-2.5c0.3-0.3,0.6-0.4,1-0.5
			L23.5,44.8z"/>
	</g>
	<g>
		<polygon fill="#DEDCDC" points="21.7,42.8 22.2,42.2 24.5,44.5 23.9,45 		"/>
		<polygon fill="#FFFFFF" points="21.7,42.8 22.2,42.2 24,44.1 23.5,44.6 		"/>
	</g>
	<g>
		<path fill="#FFFFFF" d="M22.2,42.2c0.2-1.2,0.6-2.5,1.6-3.5c2.1-2.1,5.8-1.7,5.8-1.7s0.4,3.8-1.7,5.9c-1,1-2.3,1.4-3.4,1.6
			L22.2,42.2z"/>
		<path opacity="0.1" enable-background="new    " d="M23.2,39.6c-0.5,0.7-0.7,1.6-0.9,2.4l-0.2-0.1C22.2,41,23.2,39.6,23.2,39.6z"
			/>
		<path fill="#EF4F3D" d="M26,37.5c1.8-0.6,3.6-0.4,3.6-0.4s0.2,1.8-0.4,3.6L26,37.5z"/>
		<path opacity="0.1" enable-background="new    " d="M29.6,37.1C29.8,37.1,29.6,37.1,29.6,37.1s0.4,3.8-1.7,5.9
			c-1,1-2.3,1.4-3.4,1.6L24,44.1c1.1-0.2,2.5-0.6,3.4-1.6C29.1,40.9,29.6,38.1,29.6,37.1z"/>
	</g>
	<g>
		<g>
			<path fill="#1097BE" d="M26.1,41.6c-0.3,0-0.5-0.1-0.7-0.3c-0.4-0.4-0.4-1,0-1.4c0.2-0.2,0.4-0.3,0.7-0.3c0.3,0,0.5,0.1,0.7,0.3
				c0.4,0.4,0.4,1,0,1.4C26.6,41.5,26.4,41.6,26.1,41.6z"/>
			<path fill="#E9E9E9" d="M26.1,39.8c0.2,0,0.4,0.1,0.5,0.2c0.3,0.3,0.3,0.8,0,1c-0.1,0.1-0.3,0.2-0.5,0.2s-0.4-0.1-0.5-0.2
				c-0.3-0.3-0.3-0.8,0-1C25.7,39.9,25.9,39.8,26.1,39.8 M26.1,39.4c-0.3,0-0.6,0.1-0.9,0.4c-0.5,0.5-0.5,1.3,0,1.7
				c0.2,0.2,0.5,0.4,0.9,0.4c0.3,0,0.6-0.1,0.9-0.4c0.5-0.5,0.5-1.3,0-1.7C26.7,39.5,26.4,39.4,26.1,39.4L26.1,39.4z"/>
		</g>
		<path opacity="0.7" fill="#FFFFFF" enable-background="new    " d="M25.9,39.5c-0.2,0.2-0.2,0.4,0,0.6c0.2,0.2,0.4,0.2,0.5,0
			s0.2-0.4,0-0.6S26.1,39.3,25.9,39.5z"/>
	</g>
</g>
<line fill="none" stroke="#FFFFFF" stroke-width="1.9181" stroke-miterlimit="10" x1="38.6" y1="42.2" x2="92.1" y2="42.2"/>
</svg>
