<?xml version="1.0" encoding="utf-8"?>
<!-- Generator: Adobe Illustrator 18.0.0, SVG Export Plug-In . SVG Version: 6.00 Build 0)  -->
<!DOCTYPE svg PUBLIC "-//W3C//DTD SVG 1.1//EN" "http://www.w3.org/Graphics/SVG/1.1/DTD/svg11.dtd">
<svg version="1.1" id="Layer_1" xmlns="http://www.w3.org/2000/svg" xmlns:xlink="http://www.w3.org/1999/xlink" x="0px" y="0px"
	 viewBox="0 0 130 130" enable-background="new 0 0 130 130" xml:space="preserve">
<g>
	<g>
		<g>
			<g>
				<g>
					<g>
						<ellipse fill="#81C2C9" cx="65" cy="64.9" rx="64" ry="63.9"/>
						<path fill="#8DCBCE" d="M115.9,103.7c8.2-10.7,13.1-24.2,13.1-38.7C129,29.6,100.3,1,65,1C50.6,1,37.4,5.7,26.7,13.7
							C56.3,43.8,86.1,73.8,115.9,103.7z"/>
						<path fill="#73B8BC" d="M12.7,28.1C5.4,38.5,1,51.2,1,64.9c0,35.3,28.7,63.9,64,63.9c13.6,0,26.1-4.2,36.5-11.4
							C71.8,87.8,42.2,58,12.7,28.1z"/>
					</g>
				</g>
			</g>
		</g>
	</g>
	<g>
		<g>
			<path fill="#E2E2E2" d="M115,38.5c0-1.1-0.9-2-2-2H17c-1.1,0-2,0.9-2,2v66.3c11.7,14.7,29.8,24,50,24s38.3-9.4,50-24V38.5z"/>
			<path fill="#E2E2E2" d="M115,42.5H15v62.3c11.7,14.7,29.8,24,50,24s38.3-9.4,50-24V42.5z"/>
			<path fill="#FFFFFF" d="M115,42.5H15.7c0.2,0.2,0.4,0.4,0.7,0.6c26.1,26.1,52.3,52.3,78.3,78.5c7.9-4.1,14.8-9.9,20.3-16.7V42.5z
				"/>
			<g>
				<circle fill="#F04E3C" cx="18.1" cy="39.7" r="1.1"/>
			</g>
			<g>
				<circle fill="#ECB34B" cx="21.1" cy="39.7" r="1.1"/>
			</g>
			<g>
				<circle fill="#518E40" cx="24.1" cy="39.7" r="1.1"/>
			</g>
			<path fill="#FFFFFF" d="M20,110.4c11.6,11.4,27.5,18.5,45,18.5c17.4,0,33.1-6.9,44.6-18.1V60.4H20V110.4z"/>
			<path fill="#FFFFFF" d="M110.6,60.4H21v50.9c11.5,10.9,27,17.5,44,17.5c17.9,0,34-7.3,45.6-19.1V60.4z"/>
			<g>
				<rect x="20" y="54.3" fill="#1999B6" width="89.6" height="3.1"/>
			</g>
			<path fill="#E2E2E2" d="M39.3,123.5c7.9,3.5,16.6,5.4,25.7,5.4c17.4,0,33.1-6.9,44.6-18.1V57.4H39.3V123.5z"/>
			<rect x="41.3" y="59.4" fill="#FFFFFF" width="66.3" height="27"/>
			<path fill="#FFFFFF" d="M41.3,124.3c0.3,0.1,0.7,0.3,1,0.4h45.5c7.3-2.8,14-6.9,19.8-12V88.4H41.3V124.3z"/>
			<path fill="#EFEFEF" d="M42.7,124.9c6.9,2.6,14.4,4,22.3,4c7.8,0,15.3-1.4,22.3-4H42.7z"/>
			<path fill="#FFFFFF" d="M20,110.4c5.5,5.5,12.1,9.9,19.3,13.1V57.4H20V110.4z"/>
			<g>
				<rect x="41.3" y="62.3" fill="#1999B6" width="11.6" height="3.1"/>
			</g>
			<g>
				<g>
					<rect x="50.3" y="68.3" fill="#EFEFEF" width="14.9" height="3.1"/>
				</g>
				<g>
					<rect x="50.3" y="73.3" fill="#EFEFEF" width="14.9" height="3.1"/>
				</g>
				<g>
					<rect x="50.3" y="78.3" fill="#EFEFEF" width="14.9" height="3.1"/>
				</g>
				<g>
					<rect x="68.2" y="68.3" fill="#EFEFEF" width="14.9" height="3.1"/>
				</g>
				<g>
					<rect x="68.2" y="73.3" fill="#EFEFEF" width="14.9" height="3.1"/>
				</g>
				<g>
					<rect x="68.2" y="78.3" fill="#EFEFEF" width="14.9" height="3.1"/>
				</g>
				<g>
					<rect x="86.2" y="68.3" fill="#EFEFEF" width="14.9" height="3.1"/>
				</g>
				<g>
					<rect x="86.2" y="73.3" fill="#EFEFEF" width="14.9" height="3.1"/>
				</g>
				<g>
					<rect x="86.2" y="78.3" fill="#EFEFEF" width="14.9" height="3.1"/>
				</g>
			</g>
			<g>
				<g>
					<rect x="50.3" y="97.3" fill="#EFEFEF" width="14.9" height="3.1"/>
				</g>
				<g>
					<rect x="50.3" y="102.3" fill="#EFEFEF" width="14.9" height="3.1"/>
				</g>
				<g>
					<rect x="68.2" y="97.3" fill="#EFEFEF" width="14.9" height="3.1"/>
				</g>
				<g>
					<rect x="68.2" y="102.3" fill="#EFEFEF" width="14.9" height="3.1"/>
				</g>
				<g>
					<rect x="86.2" y="97.3" fill="#EFEFEF" width="14.9" height="3.1"/>
				</g>
				<g>
					<rect x="86.2" y="102.3" fill="#EFEFEF" width="14.9" height="3.1"/>
				</g>
			</g>
			<g>
				<g>
					<rect x="50.3" y="107.3" fill="#EFEFEF" width="14.9" height="3.1"/>
				</g>
				<g>
					<rect x="50.3" y="112.3" fill="#EFEFEF" width="14.9" height="3.1"/>
				</g>
				<g>
					<rect x="68.2" y="107.3" fill="#EFEFEF" width="14.9" height="3.1"/>
				</g>
				<g>
					<rect x="68.2" y="112.3" fill="#EFEFEF" width="14.9" height="3.1"/>
				</g>
				<g>
					<rect x="86.2" y="107.3" fill="#EFEFEF" width="14.9" height="3.1"/>
				</g>
				<g>
					<rect x="86.2" y="112.3" fill="#EFEFEF" width="14.9" height="3.1"/>
				</g>
				<g>
					<rect x="50.3" y="117.3" fill="#EFEFEF" width="14.9" height="3.1"/>
				</g>
				<g>
					<rect x="68.2" y="117.3" fill="#EFEFEF" width="14.9" height="3.1"/>
				</g>
				<path fill="#EFEFEF" d="M86.2,120.4h10.7c1.4-0.8,2.8-1.7,4.2-2.6v-0.5H86.2V120.4z"/>
			</g>
			<g>
				<rect x="41.3" y="91.3" fill="#1999B6" width="11.6" height="3.1"/>
			</g>
			<g>
				<g>
					<rect x="22.3" y="61.2" fill="#ECB34B" width="14.2" height="1.5"/>
				</g>
				<g>
					<rect x="22.3" y="65.8" fill="#E0E0E0" width="14.2" height="1.5"/>
				</g>
				<g>
					<rect x="22.3" y="70.4" fill="#E0E0E0" width="14.2" height="1.5"/>
				</g>
				<g>
					<rect x="22.3" y="75" fill="#E0E0E0" width="14.2" height="1.5"/>
				</g>
				<g>
					<rect x="22.3" y="79.6" fill="#E0E0E0" width="14.2" height="1.5"/>
				</g>
				<g>
					<rect x="22.3" y="84.2" fill="#E0E0E0" width="14.2" height="1.5"/>
				</g>
			</g>
		</g>
	</g>
</g>
<rect x="20" y="47.1" fill="#8DCBCE" width="32.4" height="3.1"/>
<g>
	<g>
		<polygon fill="#DFDDDD" points="23.9,49.5 24.5,50.4 25,49.5 24.7,48.7 		"/>
		<polygon fill="#FFFFFF" points="23.1,48.6 22.1,48.1 23.1,47.5 23.8,47.9 		"/>
	</g>
	<g>
		<path fill="#F0503D" d="M23.6,49.8c0,0.2-0.1,0.4-0.3,0.6c-0.5,0.5-1.4,0.2-1.4,0.2s-0.2-1,0.2-1.4c0.2-0.2,0.4-0.2,0.6-0.3
			L23.6,49.8z"/>
		<path fill="#F17637" d="M23.5,49.8c0,0.2-0.1,0.4-0.2,0.5c-0.4,0.4-1.2,0.2-1.2,0.2s-0.2-0.8,0.2-1.2c0.1-0.1,0.3-0.2,0.5-0.2
			L23.5,49.8z"/>
		<path fill="#FBB317" d="M23.4,49.7c0,0.1-0.1,0.3-0.2,0.4c-0.3,0.3-1,0.2-1,0.2s-0.2-0.7,0.2-1c0.1-0.1,0.3-0.2,0.4-0.2L23.4,49.7
			z"/>
	</g>
	<g>
		<polygon fill="#DFDDDD" points="22.8,48.9 22.9,48.7 23.8,49.6 23.6,49.8 		"/>
		<polygon fill="#FFFFFF" points="22.8,48.9 22.9,48.7 23.7,49.4 23.4,49.6 		"/>
	</g>
	<g>
		<path fill="#FFFFFF" d="M22.9,48.7c0.1-0.5,0.2-1,0.6-1.4c0.8-0.8,2.3-0.7,2.3-0.7s0.2,1.5-0.7,2.3c-0.4,0.4-0.9,0.5-1.3,0.6
			L22.9,48.7z"/>
		<path opacity="0.1" fill="#010101" enable-background="new    " d="M23.3,47.6c-0.2,0.3-0.3,0.6-0.4,0.9l-0.1,0
			C23,48.2,23.3,47.6,23.3,47.6z"/>
		<path fill="#F0503D" d="M24.4,46.8c0.7-0.2,1.4-0.1,1.4-0.1s0.1,0.7-0.1,1.4L24.4,46.8z"/>
		<path opacity="0.1" fill="#010101" enable-background="new    " d="M25.8,46.7C25.9,46.7,25.8,46.7,25.8,46.7s0.2,1.5-0.7,2.3
			c-0.4,0.4-0.9,0.5-1.3,0.6l-0.2-0.2c0.4-0.1,1-0.2,1.3-0.6C25.7,48.2,25.9,47.1,25.8,46.7z"/>
	</g>
	<g>
		<g>
			<path fill="#1499BF" d="M24.5,48.4c-0.1,0-0.2,0-0.3-0.1c-0.1-0.2-0.1-0.4,0-0.5c0.1-0.1,0.2-0.1,0.3-0.1s0.2,0,0.3,0.1
				c0.1,0.2,0.1,0.4,0,0.5C24.7,48.4,24.6,48.4,24.5,48.4z"/>
			<path fill="#EAEAEA" d="M24.5,47.8c0.1,0,0.1,0,0.2,0.1c0.1,0.1,0.1,0.3,0,0.4c-0.1,0.1-0.1,0.1-0.2,0.1s-0.1,0-0.2-0.1
				c-0.1-0.1-0.1-0.3,0-0.4C24.3,47.8,24.4,47.8,24.5,47.8 M24.5,47.6c-0.1,0-0.2,0-0.3,0.1c-0.2,0.2-0.2,0.5,0,0.7
				c0.1,0.1,0.2,0.1,0.3,0.1c0.1,0,0.2,0,0.3-0.1c0.2-0.2,0.2-0.5,0-0.7C24.7,47.6,24.6,47.6,24.5,47.6L24.5,47.6z"/>
		</g>
		<path opacity="0.7" fill="#FFFFFF" enable-background="new    " d="M24.4,47.6c-0.1,0.1-0.1,0.2,0,0.2c0.1,0.1,0.2,0.1,0.2,0
			c0.1-0.1,0.1-0.2,0-0.2C24.6,47.6,24.5,47.6,24.4,47.6z"/>
	</g>
</g>
<line fill="none" stroke="#FFFFFF" stroke-width="0.75" stroke-miterlimit="10" x1="29.4" y1="48.7" x2="50.3" y2="48.7"/>
</svg>
