<?xml version="1.0" encoding="utf-8"?>
<!-- Generator: Adobe Illustrator 18.1.1, SVG Export Plug-In . SVG Version: 6.00 Build 0)  -->
<svg version="1.0" id="Layer_1" xmlns="http://www.w3.org/2000/svg" xmlns:xlink="http://www.w3.org/1999/xlink" x="0px" y="0px"
	 viewBox="0 0 130 130" enable-background="new 0 0 130 130" xml:space="preserve">
<g>
	<g>
		<g>
			<circle fill="#18B898" cx="64.8" cy="65.2" r="64"/>
			<path opacity="0.1" fill="#FFFFFF" d="M115.7,103.9c8.2-10.8,13.1-24.2,13.1-38.8c0-35.3-28.7-64-64-64
				c-14.4,0-27.6,4.7-38.3,12.7C56.1,44.1,85.8,74,115.7,103.9z"/>
			<path opacity="5.000000e-02" fill="#010101" d="M12.5,28.3C5.1,38.7,0.8,51.4,0.8,65.2c0,35.3,28.7,64,64,64
				c13.6,0,26.1-4.2,36.5-11.4C71.5,88,41.9,58.2,12.5,28.3z"/>
		</g>
	</g>
	<g>
		<path fill="#FFFFFF" d="M99.5,72.5c0.4-2.1,0.6-4.2,0.6-6.3c0-20.6-17.2-37.2-38.4-37.2S23.2,45.6,23.2,66.2s17.2,37.2,38.4,37.2
			c11.3,0,21.4-4.7,28.4-12.2c5.3,2.5,11.9,4.1,14.8,1.4C109,88.6,103.6,76.9,99.5,72.5z"/>
		<g>
			<circle fill="#18B898" cx="39.2" cy="66.1" r="8.4"/>
			<circle fill="#18B898" cx="60.6" cy="66.1" r="8.4"/>
			<circle fill="#18B898" cx="81.9" cy="66.1" r="8.4"/>
		</g>
	</g>
	<g>
		<path opacity="0.1" fill="#FFFFFF" d="M105,92.4c3.8-4.2-1.5-15.6-5.5-19.9c0.4-2.1,0.6-4.2,0.6-6.3c0-20.6-17.2-37.2-38.4-37.2
			c-5.9,0-11.5,1.3-16.5,3.6L105,92.4z"/>
		<path opacity="5.000000e-02" d="M29.7,45.4c-4.1,5.9-6.5,13.1-6.5,20.8c0,20.6,17.2,37.2,38.4,37.2c7.5,0,14.5-2.1,20.4-5.7
			L29.7,45.4z"/>
		<g>
			<path fill="#18B898" d="M42.8,58.5c-1.1-0.5-2.3-0.8-3.5-0.8c-4.6,0-8.4,3.8-8.4,8.4c0,4.6,3.8,8.4,8.4,8.4
				c4.6,0,8.4-3.8,8.4-8.4c0-1.3-0.3-2.5-0.8-3.5L42.8,58.5z"/>
			<path fill="#18B898" d="M52.4,68.1c0.7,3,3.1,5.4,6.1,6.1L52.4,68.1z"/>
			<path fill="#18B898" d="M86,73.4c2.5-1.4,4.3-4.2,4.3-7.3c0-4.6-3.8-8.4-8.4-8.4c-3.1,0-5.9,1.7-7.3,4.3L86,73.4z"/>
		</g>
	</g>
</g>
</svg>
