<?xml version="1.0" encoding="utf-8"?>
<!-- Generator: Adobe Illustrator 18.0.0, SVG Export Plug-In . SVG Version: 6.00 Build 0)  -->
<!DOCTYPE svg PUBLIC "-//W3C//DTD SVG 1.1//EN" "http://www.w3.org/Graphics/SVG/1.1/DTD/svg11.dtd">
<svg version="1.1" id="Layer_1" xmlns="http://www.w3.org/2000/svg" xmlns:xlink="http://www.w3.org/1999/xlink" x="0px" y="0px"
	 viewBox="0 0 130 130" enable-background="new 0 0 130 130" xml:space="preserve">
<g>
	<g>
		<polygon fill="#F04E3C" points="98,116.6 16.4,92.6 41.4,7.8 123.1,31.7 		"/>
		<polygon fill="#FFFFFF" points="102.4,117.8 11.9,91.3 18.8,68 109.2,94.6 		"/>
		<path fill="#FFFFFF" d="M44,10.9L119,33l-22.1,74.9L21.9,85.8L44,10.9 M38.6,1L11.9,91.3l90.4,26.6L129,27.6L38.6,1L38.6,1z"/>
	</g>
	<g>
		<polygon fill="#8DCBCE" points="92.8,124.2 8.6,106.2 27.7,17.3 111.9,35.3 		"/>
		<polygon fill="#FFFFFF" points="96.8,125.1 4.6,105.4 9.7,81.6 101.9,101.4 		"/>
		<path fill="#FFFFFF" d="M30.5,22.9L107,39.2l-16.4,76.4L14.1,99.2L30.5,22.9 M24.4,13.4l-19.8,92l92.2,19.7l19.8-92L24.4,13.4
			L24.4,13.4z"/>
	</g>
	<g>
		<rect x="4.6" y="38.2" fill="#FCB316" width="87.4" height="90.8"/>
		<rect x="1" y="104.8" fill="#FFFFFF" width="94.3" height="24.2"/>
		<path fill="#FFFFFF" d="M87.3,42.9V121H9V42.9H87.3 M95.3,34.9H1V129h94.3V34.9L95.3,34.9z"/>
	</g>
	<g>
		<path d="M26.2,119.7c0,0,0-0.1,0-0.3c0-0.2,0-0.4,0-0.7s0-0.6,0.1-1c0-0.4,0.1-0.8,0.1-1.2c0.1-0.4,0.1-0.8,0.2-1.3
			c0.1-0.4,0.2-0.8,0.3-1.3c0.1-0.4,0.2-0.8,0.4-1.2s0.3-0.7,0.5-0.9c0.2-0.3,0.4-0.5,0.6-0.6c0.2-0.2,0.5-0.2,0.7-0.2
			c0.1,0,0.2,0,0.3,0.1c0.1,0,0.2,0.1,0.3,0.2c0.1,0.1,0.2,0.2,0.2,0.3c0.1,0.1,0.1,0.3,0.1,0.5c0,0.2,0,0.4-0.1,0.6
			c-0.1,0.2-0.1,0.5-0.2,0.7c-0.1,0.3-0.2,0.5-0.4,0.8c-0.1,0.3-0.3,0.6-0.5,0.8c-0.2,0.3-0.3,0.6-0.5,0.8c-0.2,0.3-0.4,0.5-0.6,0.8
			l0,0.1c0.1,0,0.1,0,0.1-0.1c0,0,0.1,0,0.1,0c0,0,0.1,0,0.1,0c0,0,0,0,0.1,0c0,0,0,0,0.1,0c0,0,0,0,0.1,0c0.3,0,0.6,0,0.8-0.1
			c0.2-0.1,0.4-0.2,0.6-0.2c0.2-0.1,0.3-0.2,0.5-0.3l-0.1,1.1c-0.2,0.1-0.4,0.2-0.6,0.3c-0.2,0.1-0.4,0.1-0.6,0.1
			c-0.2,0-0.4,0.1-0.6,0.1c0.1,0.2,0.2,0.4,0.3,0.6c0.1,0.2,0.1,0.4,0.2,0.6c0.1,0.2,0.1,0.5,0.1,0.7c0,0,0,0.1,0,0.2
			c0,0.1,0,0.2,0,0.3c0,0.1,0,0.3-0.1,0.4c0,0.2-0.1,0.3-0.1,0.5c-0.1,0.2-0.1,0.3-0.2,0.5c-0.1,0.1-0.2,0.3-0.3,0.4
			c-0.1,0.1-0.2,0.2-0.3,0.3c-0.1,0.1-0.3,0.1-0.4,0.1c-0.2,0-0.3,0-0.4-0.1c-0.1-0.1-0.2-0.2-0.3-0.3c-0.1-0.1-0.2-0.3-0.2-0.4
			c-0.1-0.2-0.1-0.4-0.1-0.5c0-0.2-0.1-0.4-0.1-0.6C26.2,120.1,26.2,119.9,26.2,119.7z M27.4,117.5c0,0,0,0,0,0.1c0,0.1,0,0.2,0,0.3
			c0,0.1,0,0.2,0,0.4c0,0.1,0,0.3,0,0.4c0,0.1,0,0.2,0,0.4c0,0.1,0,0.2,0,0.3c0,0.4,0,0.8,0,1.1c0,0.3,0,0.5,0.1,0.6
			c0,0.1,0.1,0.2,0.1,0.3c0,0,0.1,0.1,0.1,0.1c0.1,0,0.2,0,0.2-0.1c0.1-0.1,0.1-0.2,0.1-0.4c0-0.1,0.1-0.3,0.1-0.5
			c0-0.2,0-0.3,0-0.5c0-0.1,0-0.2,0-0.4c0-0.2,0-0.3-0.1-0.5c0-0.2-0.1-0.3-0.1-0.5c0-0.2-0.1-0.3-0.1-0.4c0-0.1-0.1-0.2-0.1-0.3
			C27.5,117.6,27.5,117.5,27.4,117.5z M28.5,112.6c-0.2,0.4-0.3,0.8-0.4,1.1c-0.1,0.3-0.2,0.6-0.2,0.9c-0.1,0.3-0.1,0.5-0.1,0.7
			c0,0.2,0,0.4-0.1,0.5c0.2-0.3,0.4-0.7,0.6-1c0.2-0.3,0.4-0.6,0.5-0.9c0.2-0.3,0.3-0.5,0.4-0.8c0.1-0.2,0.1-0.4,0.1-0.5
			c0-0.2,0-0.3-0.1-0.4c0-0.1-0.1-0.1-0.2-0.1c-0.1,0-0.2,0-0.3,0.1C28.7,112.3,28.6,112.4,28.5,112.6z"/>
		<path d="M32.6,116.1c0.1,0.2,0.2,0.4,0.2,0.6c0,0.2,0.1,0.4,0.1,0.6c0,0.2,0,0.4-0.1,0.5c0,0.2-0.1,0.4-0.2,0.5
			c-0.1,0.2-0.2,0.3-0.3,0.5c-0.1,0.1-0.2,0.3-0.4,0.4c-0.1,0.1-0.3,0.2-0.5,0.3c-0.2,0.1-0.3,0.1-0.5,0.1c-0.3,0-0.5-0.1-0.7-0.2
			c-0.2-0.1-0.3-0.3-0.5-0.5c-0.1-0.2-0.2-0.4-0.3-0.6c-0.1-0.2-0.1-0.5-0.1-0.7c0-0.3,0-0.6,0.1-0.9c0.1-0.3,0.2-0.5,0.4-0.8
			c0.2-0.2,0.4-0.4,0.7-0.5c0.3-0.1,0.6-0.2,0.9-0.2c0.3,0,0.6,0,0.8,0.1c0.3,0.1,0.5,0.2,0.7,0.4c0.2,0.1,0.4,0.3,0.6,0.5
			c0.2,0.2,0.4,0.4,0.5,0.6l-0.1,0.6c-0.1-0.1-0.2-0.2-0.3-0.4s-0.3-0.3-0.4-0.4c-0.2-0.1-0.3-0.2-0.5-0.3
			C32.8,116.3,32.7,116.2,32.6,116.1L32.6,116.1z M31.2,118.7c0.1,0,0.2-0.1,0.3-0.2c0.1-0.1,0.2-0.2,0.3-0.4
			c0.1-0.2,0.1-0.3,0.2-0.5c0-0.2,0.1-0.4,0.1-0.6c0-0.1,0-0.3,0-0.4c0-0.1-0.1-0.2-0.1-0.3c0-0.1-0.1-0.2-0.2-0.2
			c-0.1-0.1-0.1-0.1-0.2-0.1c-0.1,0-0.2,0.1-0.4,0.2c-0.1,0.1-0.2,0.2-0.3,0.4s-0.2,0.3-0.2,0.5c0,0.2-0.1,0.4-0.1,0.6
			c0,0.1,0,0.2,0,0.4c0,0.1,0.1,0.2,0.1,0.3c0.1,0.1,0.1,0.1,0.2,0.2C31,118.6,31.1,118.7,31.2,118.7z"/>
		<path d="M33.8,118.6c0-0.2,0-0.4,0-0.7c0-0.3,0.1-0.5,0.1-0.8c0-0.3,0.1-0.5,0.1-0.8c0-0.3,0.1-0.5,0.1-0.6c0-0.1,0.1-0.3,0.2-0.3
			c0.1-0.1,0.2-0.1,0.4-0.1s0.3,0,0.3,0.1c0.1,0.1,0.1,0.2,0.1,0.4c0,0,0,0.1,0,0.2c0,0.1,0,0.2,0,0.3c0,0.1,0,0.2,0,0.3
			c0,0.1,0,0.2,0,0.3c0,0.1,0,0.2,0,0.2c0,0.1,0,0.1,0,0.1h0.1c0,0,0-0.1,0.1-0.2c0-0.1,0.1-0.2,0.1-0.3c0.1-0.1,0.1-0.2,0.2-0.3
			c0.1-0.1,0.1-0.2,0.2-0.3c0.1-0.1,0.1-0.2,0.1-0.3c0-0.1,0.1-0.1,0.1-0.2c0.1-0.2,0.2-0.3,0.3-0.3c0.1-0.1,0.3-0.1,0.4-0.1
			c0.2,0,0.3,0.1,0.4,0.2c0.1,0.1,0.1,0.3,0.1,0.5c0,0,0,0.1,0,0.2c0,0.1,0,0.2-0.1,0.3s0,0.2-0.1,0.4c0,0.1,0,0.3-0.1,0.4
			c0,0.1,0,0.3-0.1,0.4c0,0.1,0,0.3,0,0.4c0,0.2,0,0.3,0.1,0.5c0,0.1,0.1,0.2,0.2,0.2c0,0,0.1,0,0.2,0c0.1,0,0.1-0.1,0.2-0.1
			c0.1,0,0.1-0.1,0.2-0.2c0.1-0.1,0.1-0.1,0.2-0.2c0.2-0.1,0.3-0.3,0.5-0.5l0.1,1l-0.2,0.2c-0.1,0.1-0.3,0.2-0.4,0.3
			c-0.1,0.1-0.3,0.2-0.4,0.3s-0.3,0.1-0.4,0.2c-0.2,0-0.3,0.1-0.5,0.1s-0.3-0.1-0.4-0.4c-0.1-0.2-0.2-0.6-0.2-1.1c0-0.2,0-0.4,0-0.6
			c0-0.2,0.1-0.4,0.1-0.7H36l-1.2,2.4c-0.1,0.1-0.1,0.2-0.2,0.3c-0.1,0-0.2,0.1-0.3,0.1c-0.1,0-0.2,0-0.3-0.1
			c-0.1-0.1-0.1-0.1-0.2-0.2c0-0.1-0.1-0.2-0.1-0.3C33.8,118.8,33.8,118.7,33.8,118.6z"/>
		<path d="M41.7,118.5c-0.3,0.2-0.5,0.3-0.8,0.4c-0.2,0.1-0.4,0.2-0.6,0.3c-0.2,0.1-0.3,0.1-0.5,0.2c-0.1,0-0.3,0.1-0.4,0.1
			c-0.2,0-0.4-0.1-0.6-0.2c-0.2-0.1-0.3-0.3-0.4-0.6c-0.1-0.3-0.2-0.6-0.3-0.9c-0.1-0.4-0.1-0.8-0.1-1.3c0-0.2,0-0.4,0-0.6
			c0-0.2,0-0.4,0.1-0.6c-0.1,0-0.2,0-0.2,0c0,0-0.1,0-0.2,0c-0.1,0-0.1,0-0.2,0c-0.1,0-0.2,0-0.4,0c-0.1,0-0.1,0-0.2-0.1
			c0,0-0.1-0.1-0.1-0.1c0,0,0-0.1,0-0.1c0,0,0-0.1,0-0.1c0-0.1,0-0.1,0.1-0.1c0.1,0,0.1-0.1,0.2-0.1c0.1,0,0.2,0,0.3,0
			c0.1,0,0.2,0,0.3,0c0.1,0,0.2,0,0.3,0c0.1,0,0.1,0,0.2,0c0.1-0.4,0.2-0.8,0.3-1.2c0.1-0.4,0.3-0.7,0.4-1c0.2-0.3,0.3-0.5,0.5-0.7
			c0.2-0.2,0.4-0.3,0.6-0.3c0.1,0,0.2,0,0.4,0.1c0.1,0.1,0.2,0.2,0.3,0.3c0.1,0.1,0.1,0.3,0.2,0.4c0,0.2,0.1,0.3,0.1,0.5
			c0,0.1,0,0.3-0.1,0.5s-0.1,0.3-0.2,0.5c-0.1,0.2-0.2,0.3-0.3,0.5c-0.1,0.2-0.2,0.3-0.3,0.5c0,0,0.1,0,0.1,0c0.1,0,0.1,0,0.2,0
			c0.1,0,0.2,0,0.3,0c0.1,0,0.2,0,0.3,0c0.1,0,0.2,0,0.3,0c0.1,0,0.1,0,0.2,0c0.1,0,0.1,0,0.1,0.1c0,0.1,0,0.1,0,0.2
			c0,0.1,0,0.2-0.1,0.3c-0.1,0.1-0.1,0.1-0.2,0.1h-1.7c-0.1,0.1-0.2,0.2-0.3,0.4c-0.1,0.1-0.2,0.2-0.2,0.3c0,0.2,0,0.4,0,0.6
			c0,0.1,0,0.2,0,0.2c0,0.1,0,0.2,0,0.2s0,0.2,0,0.2c0,0.1,0,0.1,0,0.2c0,0.2,0,0.3,0,0.4c0,0.1,0.1,0.2,0.1,0.3
			c0.1,0.1,0.1,0.1,0.2,0.2c0.1,0,0.2,0,0.3,0c0.1,0,0.1,0,0.2,0c0.1,0,0.2-0.1,0.3-0.1c0.1-0.1,0.2-0.1,0.4-0.2
			c0.1-0.1,0.2-0.2,0.4-0.2c0.1-0.1,0.2-0.2,0.4-0.3c0.1-0.1,0.2-0.2,0.3-0.3V118.5z M40.3,112.8c0,0,0-0.1,0-0.1c0,0,0-0.1,0-0.1
			c0,0,0-0.1-0.1-0.1c0,0-0.1,0-0.1,0c-0.1,0-0.2,0.1-0.2,0.2c-0.1,0.1-0.2,0.3-0.2,0.5c-0.1,0.2-0.1,0.5-0.2,0.7
			c-0.1,0.3-0.1,0.5-0.2,0.8c0,0,0.1,0,0.1,0c0,0,0.1,0,0.1,0c0.1-0.2,0.2-0.3,0.3-0.5c0.1-0.2,0.2-0.4,0.3-0.5
			c0.1-0.2,0.1-0.3,0.2-0.5C40.3,113,40.3,112.9,40.3,112.8z"/>
		<path d="M43.1,119.5c-0.3,0-0.5-0.1-0.7-0.2c-0.2-0.1-0.4-0.2-0.5-0.4c-0.1-0.2-0.2-0.4-0.3-0.6c-0.1-0.2-0.1-0.5-0.1-0.7
			c0-0.2,0-0.3,0-0.5c0-0.2,0.1-0.4,0.2-0.6c0.1-0.2,0.2-0.4,0.3-0.5c0.1-0.2,0.2-0.3,0.4-0.4c0.1-0.1,0.3-0.2,0.5-0.3
			c0.2-0.1,0.4-0.1,0.6-0.1c0.2,0,0.3,0,0.5,0.1s0.3,0.1,0.4,0.2c0.1,0.1,0.2,0.2,0.3,0.4c0.1,0.1,0.1,0.3,0.1,0.5
			c0,0.2,0,0.4-0.1,0.6c-0.1,0.2-0.2,0.4-0.4,0.5c-0.2,0.2-0.4,0.3-0.6,0.4c-0.2,0.1-0.5,0.2-0.7,0.3c0,0.1,0.1,0.1,0.1,0.2
			c0,0.1,0.1,0.1,0.1,0.1c0,0,0.1,0.1,0.1,0.1c0.1,0,0.1,0,0.2,0c0.2,0,0.4,0,0.6-0.1c0.2-0.1,0.4-0.2,0.6-0.3
			c0.2-0.1,0.4-0.2,0.5-0.4c0.2-0.1,0.3-0.3,0.4-0.4l0.6,0.6c-0.3,0.3-0.5,0.5-0.8,0.7c-0.1,0.1-0.3,0.2-0.4,0.3
			c-0.2,0.1-0.3,0.2-0.5,0.2c-0.2,0.1-0.3,0.1-0.5,0.2C43.5,119.5,43.3,119.5,43.1,119.5z M42.5,117.4c0.1,0,0.2,0,0.4-0.1
			c0.1-0.1,0.2-0.1,0.4-0.2c0.1-0.1,0.2-0.2,0.3-0.3c0.1-0.1,0.1-0.2,0.1-0.3c0-0.1,0-0.2-0.1-0.3c0-0.1-0.1-0.1-0.2-0.1
			c-0.1,0-0.2,0-0.3,0.1c-0.1,0-0.2,0.1-0.2,0.2c-0.1,0.1-0.1,0.2-0.1,0.3c0,0.1-0.1,0.2-0.1,0.3c0,0.1,0,0.2,0,0.3
			C42.5,117.3,42.5,117.3,42.5,117.4z"/>
		<path d="M45.2,118.1c0-0.2,0-0.4,0-0.6c0-0.2,0-0.3,0-0.5c0-0.1,0-0.3,0-0.4c0-0.1,0-0.2,0-0.4c0-0.3,0-0.6,0-0.7
			c0-0.2,0.1-0.3,0.2-0.3l0.5-0.1c0,0,0,0,0,0c0,0,0,0,0,0c0.1,0,0.2,0,0.2,0.1c0.1,0.1,0.1,0.1,0.1,0.2l-0.2,2.9l0.1,0l1.2-2.8
			c0,0,0-0.1,0.1-0.1c0,0,0.1-0.1,0.1-0.1c0,0,0.1-0.1,0.2-0.1c0.1,0,0.1,0,0.2,0c0.2,0,0.3,0,0.4,0.1c0.1,0.1,0.2,0.2,0.2,0.3
			c0,0.1,0,0.2,0,0.2c0,0.1-0.1,0.2-0.1,0.2c0,0.1-0.1,0.2-0.1,0.3c-0.1,0.1-0.1,0.2-0.2,0.4c0,0.1,0,0.1-0.1,0.2c0,0.1,0,0.1,0,0.2
			c0,0.1,0,0.1,0,0.2c0,0.1,0,0.1,0,0.2c0,0.1,0,0.1,0.1,0.2s0.1,0.1,0.2,0.1c0.1,0,0.2,0,0.3,0c0.1,0,0.2,0,0.3-0.1
			c0.1,0,0.2-0.1,0.3-0.2c0.1-0.1,0.3-0.1,0.4-0.2v1.1c-0.2,0.1-0.4,0.2-0.6,0.3c-0.2,0.1-0.4,0.1-0.6,0.1c-0.2,0-0.3,0-0.4-0.1
			c-0.1,0-0.2-0.1-0.3-0.2c-0.1-0.1-0.2-0.2-0.2-0.3c0-0.1-0.1-0.2-0.1-0.3c-0.1,0.2-0.2,0.4-0.3,0.6c-0.1,0.2-0.2,0.4-0.3,0.5
			c-0.1,0.2-0.2,0.3-0.4,0.4c-0.1,0.1-0.2,0.1-0.3,0.1c-0.2,0-0.3,0-0.4-0.1c-0.1-0.1-0.2-0.2-0.2-0.3c0-0.1-0.1-0.3-0.1-0.4
			c0-0.2,0-0.3,0-0.5L45.2,118.1z"/>
		<path d="M54,118.4c-0.1,0.1-0.2,0.2-0.3,0.3c-0.1,0.1-0.2,0.3-0.4,0.4s-0.3,0.2-0.5,0.3s-0.3,0.1-0.5,0.1c-0.2,0-0.4-0.1-0.5-0.2
			c-0.1-0.1-0.2-0.3-0.3-0.6c-0.1,0.1-0.2,0.2-0.3,0.3c-0.1,0.1-0.2,0.2-0.3,0.2c-0.1,0.1-0.3,0.1-0.4,0.2c-0.1,0-0.3,0.1-0.4,0.1
			c-0.1,0-0.3,0-0.4-0.1c-0.1-0.1-0.3-0.1-0.4-0.3c-0.1-0.1-0.2-0.2-0.3-0.4c-0.1-0.2-0.1-0.3-0.1-0.5c0-0.2,0-0.5,0.1-0.7
			c0.1-0.2,0.2-0.5,0.3-0.7c0.1-0.2,0.2-0.4,0.4-0.6c0.2-0.2,0.3-0.4,0.5-0.5c0.2-0.2,0.4-0.3,0.6-0.4c0.2-0.1,0.4-0.1,0.6-0.1
			c0.1,0,0.1,0,0.2,0s0.1,0.1,0.1,0.1c0,0,0.1,0.1,0.1,0.1c0,0,0.1,0.1,0.1,0.1c0,0,0.1,0,0.1,0c0,0,0.1,0,0.1,0c0,0,0.1,0,0.1,0
			c0,0,0.1,0,0.1,0c0,0,0.1,0,0.1,0c0,0,0.1,0,0.1,0.1c0,0,0.1,0.1,0.1,0.1c0,0.1,0,0.1,0,0.2c0,0.1,0,0.3,0,0.5
			c0,0.2-0.1,0.4-0.1,0.5c0,0.2-0.1,0.4-0.1,0.6c0,0.2,0,0.4,0,0.5c0,0.1,0,0.3,0,0.3c0,0.1,0.1,0.1,0.2,0.1c0.1,0,0.1,0,0.2,0
			c0.1,0,0.1-0.1,0.2-0.1c0.1-0.1,0.1-0.1,0.2-0.2c0.1-0.1,0.1-0.1,0.2-0.2c0.1-0.2,0.3-0.3,0.4-0.6L54,118.4z M50.2,118.1
			c0,0.1,0,0.1,0,0.2c0,0.1,0,0.1,0.1,0.2s0.1,0.1,0.1,0.1c0,0,0.1,0.1,0.2,0.1c0.1,0,0.2,0,0.3-0.1c0.1-0.1,0.2-0.2,0.2-0.3
			c0.1-0.1,0.1-0.3,0.2-0.4c0-0.1,0.1-0.3,0.1-0.4l0.3-1.3c-0.1,0-0.2,0-0.4,0.1c-0.1,0.1-0.2,0.1-0.3,0.3c-0.1,0.1-0.2,0.2-0.3,0.4
			c-0.1,0.1-0.2,0.3-0.2,0.4c-0.1,0.1-0.1,0.3-0.1,0.5C50.2,117.8,50.2,117.9,50.2,118.1z"/>
		<path d="M58.8,119.5c-0.1,0-0.2,0-0.3,0c-0.1,0-0.2-0.1-0.3-0.1c-0.1,0-0.2-0.1-0.3-0.1c-0.1-0.1-0.2-0.1-0.3-0.2
			c-0.2,0.1-0.4,0.2-0.6,0.3c-0.2,0.1-0.4,0.1-0.6,0.1c-0.2,0-0.3,0-0.4-0.1c-0.1-0.1-0.3-0.1-0.4-0.2c-0.1-0.1-0.2-0.2-0.2-0.3
			c-0.1-0.1-0.1-0.2-0.1-0.4c0-0.1,0-0.2,0-0.3c0-0.1,0.1-0.2,0.2-0.3c0.1-0.1,0.2-0.2,0.3-0.2c0.1-0.1,0.2-0.1,0.4-0.1
			c0.2,0,0.5,0,0.6,0.1c0.2,0.1,0.4,0.2,0.5,0.2c0.1-0.1,0.2-0.2,0.3-0.4c0.1-0.1,0.2-0.3,0.2-0.4c0.1-0.1,0.1-0.3,0.1-0.4
			c0-0.1,0.1-0.3,0.1-0.4c0-0.2,0-0.4-0.1-0.5c0-0.1-0.1-0.3-0.2-0.3c-0.1-0.1-0.1-0.1-0.2-0.2c-0.1,0-0.2,0-0.2,0
			c-0.1,0-0.2,0-0.3,0c-0.1,0-0.2,0.1-0.2,0.1c-0.1,0.1-0.1,0.1-0.2,0.2c0,0.1-0.1,0.2-0.1,0.3c0,0.1,0,0.1,0.1,0.2
			c0.1,0.1,0.2,0.1,0.4,0.2c0,0,0,0,0,0c0,0,0,0.1-0.1,0.1c-0.1,0-0.2,0.1-0.3,0.1c-0.1,0-0.2,0.1-0.3,0.1c-0.1,0-0.2,0-0.3,0
			c0,0,0,0-0.1,0c0,0,0,0-0.1,0c-0.1-0.1-0.2-0.2-0.3-0.3c-0.1-0.1-0.1-0.2-0.1-0.4c0-0.2,0-0.3,0.1-0.5c0.1-0.2,0.2-0.3,0.4-0.5
			c0.2-0.1,0.4-0.2,0.6-0.3c0.2-0.1,0.5-0.1,0.7-0.1c0.1,0,0.2,0,0.3,0c0.1,0,0.2,0,0.4,0.1c0.1,0,0.3,0.1,0.4,0.2
			c0.1,0.1,0.3,0.2,0.4,0.3c0.1,0.1,0.2,0.3,0.3,0.4c0.1,0.2,0.1,0.4,0.1,0.6c0,0.1,0,0.3-0.1,0.5c0,0.2-0.1,0.4-0.2,0.6
			c-0.1,0.2-0.2,0.4-0.3,0.6c-0.1,0.2-0.3,0.4-0.4,0.6c0.1,0.1,0.2,0.1,0.3,0.1c0.1,0,0.2,0,0.4,0c0,0,0.1,0,0.1-0.1
			c0,0,0.1-0.1,0.1-0.2c0-0.1,0.1-0.1,0.1-0.2c0,0,0.1-0.1,0.1-0.1c0,0,0.1,0,0.1,0.1c0,0,0,0.1,0,0.2c0,0.1,0,0.3-0.1,0.5
			c0,0.1,0,0.1-0.1,0.2c0,0.1-0.1,0.1-0.1,0.2s-0.1,0.1-0.2,0.1C59,119.5,58.9,119.5,58.8,119.5z M56.5,118.7c0.1,0,0.3-0.1,0.5-0.2
			c-0.1,0-0.1-0.1-0.2-0.1c-0.1,0-0.1,0-0.2,0c-0.1,0-0.2,0-0.3,0c-0.1,0-0.1,0.1-0.1,0.1c0,0,0,0.1,0,0.1c0,0,0,0,0.1,0.1
			c0,0,0.1,0,0.1,0C56.4,118.7,56.5,118.7,56.5,118.7z"/>
		<path d="M61.2,119.5c-0.2,0-0.4-0.1-0.6-0.2c-0.2-0.1-0.3-0.2-0.4-0.4c-0.1-0.2-0.2-0.4-0.3-0.6c-0.1-0.2-0.1-0.5-0.1-0.7
			c0-0.2,0-0.4,0.1-0.7c0-0.2,0.1-0.5,0.2-0.7c0.1-0.2,0.2-0.4,0.3-0.6c0.1-0.2,0.3-0.4,0.4-0.5c0.2-0.1,0.3-0.3,0.5-0.3
			c0.2-0.1,0.4-0.1,0.6-0.1c0.3,0,0.5,0,0.7,0.1c0.2,0.1,0.3,0.2,0.5,0.4c0.1,0.2,0.2,0.4,0.3,0.6c0.1,0.2,0.1,0.4,0.1,0.7
			c0,0.2,0,0.5-0.1,0.7c0,0.2-0.1,0.5-0.2,0.7c-0.1,0.2-0.2,0.4-0.3,0.6c-0.1,0.2-0.3,0.4-0.4,0.5c-0.2,0.1-0.3,0.3-0.5,0.4
			C61.6,119.5,61.4,119.5,61.2,119.5z M61.2,118.7c0.1,0,0.2,0,0.2-0.1c0.1-0.1,0.2-0.2,0.2-0.3c0.1-0.1,0.1-0.3,0.2-0.4
			c0.1-0.2,0.1-0.3,0.2-0.5s0.1-0.3,0.1-0.5c0-0.2,0-0.3,0-0.5c0-0.1,0-0.2,0-0.3c0-0.1,0-0.2-0.1-0.3c0-0.1-0.1-0.1-0.1-0.2
			c0,0-0.1-0.1-0.2-0.1c-0.1,0-0.2,0-0.3,0.1c-0.1,0.1-0.2,0.2-0.2,0.3c-0.1,0.1-0.1,0.3-0.2,0.4c-0.1,0.2-0.1,0.3-0.1,0.5
			c0,0.2-0.1,0.3-0.1,0.5c0,0.2,0,0.3,0,0.5c0,0.1,0,0.2,0,0.4c0,0.1,0,0.2,0.1,0.3c0,0.1,0.1,0.1,0.1,0.2
			C61.1,118.7,61.2,118.7,61.2,118.7z"/>
		<path d="M65,115.7c0,0-0.1,0.1-0.1,0.1c-0.1,0.1-0.1,0.1-0.2,0.1c-0.1,0-0.1,0.1-0.1,0.1c0,0-0.1,0-0.1,0c-0.3,0-0.5,0-0.7-0.1
			c-0.2,0-0.2-0.1-0.2-0.2c0,0,0-0.1,0.1-0.1c0.1,0,0.2,0,0.3,0c0,0,0.1,0,0.1-0.1c0.1-0.1,0.1-0.1,0.2-0.2c0.1-0.1,0.2-0.2,0.3-0.2
			c0.1-0.1,0.2-0.2,0.3-0.2c0.1-0.1,0.2-0.1,0.4-0.2c0.1,0,0.2-0.1,0.4-0.1c0.2,0,0.3,0,0.3,0c0.1,0,0.1,0.1,0.1,0.1
			c0,0,0,0.1,0,0.2c0,0.1,0,0.1,0,0.2c0,0.2-0.1,0.4-0.1,0.6c0,0.2-0.1,0.4-0.1,0.6c0,0.2-0.1,0.4-0.1,0.7c0,0.2-0.1,0.5-0.1,0.7
			c0,0.2-0.1,0.4-0.1,0.6c0,0,0,0.1,0,0.2c0,0.1,0,0.2-0.1,0.2c0,0.1-0.1,0.2-0.1,0.3c0,0.1-0.1,0.2-0.1,0.2c0,0.1-0.1,0.1-0.2,0.2
			c-0.1,0-0.1,0.1-0.2,0.1c-0.1,0-0.2,0-0.3,0c-0.1,0-0.2,0-0.2-0.1c-0.1,0-0.1-0.1-0.1-0.1c0,0-0.1-0.1-0.1-0.1c0,0,0,0,0-0.1
			c0,0,0-0.1,0-0.1c0-0.2,0.1-0.4,0.1-0.5c0-0.2,0.1-0.4,0.1-0.6c0-0.2,0.1-0.4,0.1-0.6c0-0.2,0.1-0.4,0.1-0.5
			C64.8,116.5,64.9,116.1,65,115.7z"/>
		<path d="M68.7,116c-0.1,0-0.2,0-0.3,0c-0.1,0-0.2,0-0.2,0c-0.1,0-0.1,0-0.2,0c0,0-0.1,0-0.2,0c0,0,0,0-0.1,0c0,0,0,0-0.1,0
			c0,0.1,0,0.1,0,0.2c0,0.1,0,0.1,0,0.2c0,0.1,0,0.2,0.1,0.3c0.2,0,0.4,0,0.5,0c0.3,0,0.5,0,0.7,0.1c0.2,0.1,0.4,0.1,0.5,0.2
			c0.1,0.1,0.2,0.2,0.3,0.3c0.1,0.1,0.1,0.2,0.2,0.3c0,0.1,0.1,0.2,0.1,0.3c0,0.1,0,0.2,0,0.3c0,0.2,0,0.3-0.1,0.5
			c-0.1,0.2-0.2,0.3-0.4,0.5c-0.2,0.1-0.4,0.2-0.6,0.3s-0.5,0.1-0.7,0.1c-0.3,0-0.5,0-0.7-0.1c-0.2-0.1-0.4-0.1-0.5-0.3
			c-0.1-0.1-0.2-0.2-0.3-0.4c-0.1-0.2-0.1-0.3-0.1-0.5c0-0.1,0-0.2,0.1-0.3c0-0.1,0.1-0.1,0.1-0.2c0.1,0,0.1-0.1,0.2-0.1
			c0.1,0,0.2,0,0.2,0c0.1,0,0.1,0,0.2,0c0.1,0,0.2,0,0.2,0.1c0.1,0,0.1,0.1,0.2,0.1c0.1,0,0.1,0.1,0.1,0.1c0,0,0,0-0.1,0.1
			c-0.1,0-0.1,0-0.2,0.1c-0.1,0-0.1,0.1-0.2,0.1c-0.1,0-0.1,0.1-0.1,0.2c0,0.1,0,0.2,0,0.3c0,0.1,0.1,0.1,0.1,0.2
			c0,0,0.1,0.1,0.1,0.1c0.1,0,0.1,0,0.2,0c0.1,0,0.2,0,0.3-0.1c0.1,0,0.2-0.1,0.3-0.2c0.1-0.1,0.2-0.2,0.2-0.3
			c0.1-0.1,0.1-0.2,0.1-0.3c0-0.1,0-0.3-0.1-0.4c0-0.1-0.1-0.2-0.2-0.2c-0.1-0.1-0.2-0.1-0.3-0.1c-0.1,0-0.3-0.1-0.5-0.1
			c-0.1,0-0.2,0-0.2,0c-0.1,0-0.1,0-0.2,0c0,0-0.1,0-0.1-0.1c0,0,0-0.1-0.1-0.2c0-0.1,0-0.2,0-0.3c0-0.1,0-0.3,0-0.5
			c0-0.1,0-0.2,0-0.3c0-0.1,0-0.2,0-0.2c0-0.2,0-0.4,0-0.5c0-0.1,0.1-0.2,0.1-0.2c0,0,0.1-0.1,0.1-0.1h0.1c0.1,0,0.2,0,0.3,0
			c0.1,0,0.2,0,0.3,0.1c0.1,0,0.2,0,0.3,0.1c0.1,0,0.2,0,0.3,0c0,0,0.1,0,0.1,0c0,0,0.1,0,0.1,0c0.1,0,0.2-0.1,0.3-0.1
			c0.1,0,0.1,0,0.1-0.1c0,0,0,0,0,0c0,0,0,0,0.1,0c0.1,0,0.2,0.1,0.2,0.2c0,0.1,0.1,0.2,0.1,0.4v0c0,0,0,0,0,0.1c0,0,0,0.1-0.1,0.1
			c0,0-0.1,0.1-0.2,0.1c-0.1,0-0.2,0.1-0.3,0.1C69.1,115.9,68.9,116,68.7,116z"/>
	</g>
	<g>
		<g>
			<path fill="#F9D8A5" d="M73.1,93.8c-0.4-1.1-0.3-3.2,0.3-3.7c1.1-0.9,2.1-1.1,2.3-4.3c0,0,0.1,0,0.1,0c0.7-0.3,1.6-1.6,1.3-2.7
				c-0.2-0.6-0.4-1.1-0.7-1.3c0-0.1-0.1-0.1-0.2-0.2c-0.1,0.5-0.2,1-0.3,1.6c0,0.1-0.6,0.1-0.6-0.1c0.1-1.8-0.5-4.3-0.5-4.3
				s-6.9-3.1-5.6-1.6c0.2,0.2-3.3,0.3-4.7-0.7c-1.2-0.9-1.8,1.1-1.8,2c-0.2,1.4,0.1,3.4,0.1,4.3c0,0.3-0.7,0.3-0.7,0.3
				c-0.2-0.8-0.3-1.5-0.3-2.1c0,0.2,0,0.4,0,0.6c-0.1,0-0.1,0.1-0.2,0.2c-0.3,0.2-0.6,0.7-0.7,1.3c-0.3,1,0.6,2.4,1.3,2.7
				c0,0,0.1,0,0.1,0c0.3,3.2,1.2,3.4,2.3,4.3c0.6,0.5,0.7,2.6,0.3,3.7c-0.4,1.1-6.4,1.8-8,3.2c3.1,2.9,7.3,4.7,11.9,4.7
				c4.7,0,8.9-1.9,12-4.9C79.1,95.6,73.5,94.8,73.1,93.8z"/>
			<path fill="#5D2D0F" d="M76.3,77.5c0.4-2.8-1.7-5.9-1.7-5.9s0.1,0.7-0.9,1.2c0,0,0-0.1-0.1-0.1c-1.9-3-8.4-2.5-8.4-2.5
				s1.3,0.4,0.5,2.7c-0.7,0.1-1.3,0.2-1.7,0.2c-2.4,0.2-2.4-1.1-2.4-1.1s-0.8,3.5,0.2,6.1l0,0c-0.1,0.8-0.2,2.3,0.4,5
				c0,0,0.7,0.1,0.7-0.3c0-0.9-0.2-2.9-0.1-4.3c0.1-0.9,0.7-2.9,1.8-2c1.4,1,4.8,0.9,4.7,0.7c-1.3-1.5,5.6,1.6,5.6,1.6
				s0.7,2.5,0.5,4.3c0,0.2,0.6,0.2,0.6,0.1C76.6,80.6,76.7,79,76.3,77.5z M76.2,77.2C76.2,77.2,76.2,77.1,76.2,77.2
				C76.2,77.1,76.2,77.2,76.2,77.2z M62,77.5L62,77.5L62,77.5z M62,77.6C62,77.6,62,77.6,62,77.6C62,77.6,62,77.6,62,77.6z
				 M61.9,77.6C61.9,77.7,61.9,77.7,61.9,77.6C61.9,77.7,61.9,77.7,61.9,77.6z M61.8,78C61.8,78,61.8,78.1,61.8,78
				C61.8,78.1,61.8,78,61.8,78z M61.9,77.7C61.9,77.7,61.9,77.7,61.9,77.7C61.9,77.7,61.9,77.7,61.9,77.7z M61.9,77.8
				C61.9,77.8,61.9,77.8,61.9,77.8C61.9,77.8,61.9,77.8,61.9,77.8z M61.9,77.9C61.9,77.9,61.9,77.9,61.9,77.9
				C61.9,77.9,61.9,77.9,61.9,77.9z M62.1,77.3C62.1,77.3,62.1,77.3,62.1,77.3C62.1,77.3,62.1,77.3,62.1,77.3z M62,77.5
				C62,77.4,62,77.4,62,77.5C62,77.4,62,77.4,62,77.5z M62,77.4C62.1,77.4,62.1,77.4,62,77.4C62.1,77.4,62.1,77.4,62,77.4z
				 M62.1,77.4C62.1,77.4,62.1,77.4,62.1,77.4C62.1,77.4,62.1,77.4,62.1,77.4z M62.1,77.3C62.1,77.3,62.1,77.3,62.1,77.3
				C62.1,77.3,62.1,77.3,62.1,77.3z M62.1,77.3C62.1,77.3,62.1,77.3,62.1,77.3C62.1,77.3,62.1,77.3,62.1,77.3z M62.1,77.3
				C62.1,77.3,62.1,77.3,62.1,77.3C62.1,77.3,62.1,77.3,62.1,77.3z"/>
		</g>
		<path fill="#154270" d="M82.5,104.7c0.6-2.3-0.3-6.1-0.9-8c-0.5-1.6-8.2-2.4-8.6-3.6c-0.1-0.2-0.1,3.6-3.9,3.6
			c-3.8,0-3.8-3.8-3.8-3.6c-0.4,1.1-8.2,1.9-8.7,3.6c-0.6,1.9-1.5,5.7-0.9,8H82.5z"/>
	</g>
	<g>
		<path fill="#518E40" d="M65.2,104.7c0.9-2.2-0.3-5.7-1-6.7c-0.9-1.3-3.4-4.9-8.9-4.9c-5.5,0-8.1,3.1-8.9,5
			c-0.8,1.3-1.8,4.5-0.6,6.6H65.2z"/>
		<g>
			<g>
				<path fill="#C9AD39" d="M56.2,85.6c0.2,2.9-3.3,4-3.2,6.4c0.2,3.4-5.1,4.2-5.1,4.2s1.6-0.6,1.6-2.7c0-2.3-1.3-5.2,0.1-7.3
					C50.8,84.5,56.1,83.4,56.2,85.6z"/>
			</g>
			<g>
				<path fill="#C9AD39" d="M54,84.7c-0.2,2.9,3.1,3.4,3,5.8c-0.2,3.4,5.3,5,5.3,5s-1.7-1-1.6-3c0-2.3,1.3-5.1-0.1-7.2
					C59.4,83.7,54.2,82.5,54,84.7z"/>
			</g>
		</g>
		<g>
			<g>
				<path fill="#E3C95A" d="M55.1,79.7c0.2,2.9-5.6,5.6-5.5,8c0.2,3.4-2.7,2.6-2.7,2.6s1.6-0.6,1.6-2.7c0-2.3-1.3-5.2,0.1-7.3
					C49.7,78.6,54.9,77.5,55.1,79.7z"/>
			</g>
			<g>
				<path fill="#E3C95A" d="M55,79.7c-0.2,2.9,5.6,5.6,5.5,8c-0.2,3.4,2.7,2.6,2.7,2.6s-1.6-0.7-1.6-2.8c0-2.3,1.3-5.1-0.1-7.2
					C60.4,78.6,55.1,77.5,55,79.7z"/>
			</g>
		</g>
		<g>
			<path fill="#EFD3AC" d="M58,85.4l-2.9,0h0h-3.6c0,0,1.6,7.1,0,8.9c-0.8,0.9,0.6,5,3.6,5c3.5-0.1,4.3-4.2,3.6-5
				C56.9,92.4,58,85.4,58,85.4z"/>
		</g>
		<path fill="#EFD3AC" d="M61.3,85.7c0,3.5-1.9,4.8-3.5,6.3c-0.9,0.8-1.6,1.7-2.8,1.7c-1.3,0-2-0.9-3-1.9c-1.6-1.5-2.8-2.5-3-5.9
			c0-1.2-0.3-3.2,0.2-4.4c0.9-1.9,3.2-2.7,5.8-2.7c2.5,0,4.5,1.1,5.5,2.7C61.1,82.4,61.3,84.5,61.3,85.7z"/>
		<g>
			<g>
				<path fill="#E3C95A" d="M55.7,76.2c0.2,3.2-0.9,5.8-6.3,6.5c-3.5,0.4,0.7,6,0.5,5.8c-1.5-1.4-4-3.7-4-6c0-2.5,0.1-3.5,1.9-5.8
					C49.1,75,55.6,73.7,55.7,76.2z"/>
			</g>
			<g>
				<path fill="#E3C95A" d="M51.3,76.2c0,6.1,7.6,1.8,9.4,6.5c1.3,3.3-0.6,6.5-0.4,6.2c1.5-1.4,3.9-4.2,3.9-6.5
					c0-2.5-0.2-3.4-1.9-5.8C60.6,74.3,51.3,72.3,51.3,76.2z"/>
			</g>
		</g>
	</g>
	<g>
		<g>
			<g>
				<g>
					<path fill="#010101" d="M39.4,79.7c-0.2,3,6.8,6.2,6.7,8.7c-0.1,3.5,2.4,3.3,2.2,3.1C47,90.3,48,89.2,48,87
						c0-2.4,0.3-4.2-1-6.4C46,78.9,39.6,77.3,39.4,79.7z"/>
				</g>
			</g>
			<g>
				<g>
					<path fill="#010101" d="M39.6,82.3c-0.1,1.4-5.1,1.8-4.5,6.5c0.5,4-3.1,4.1-2.8,3.8c1.7-1.4,1-2.6,1-5.1c0-2.7-0.8-3.3,0.9-5.6
						C36.1,79.1,39.7,79.6,39.6,82.3z"/>
				</g>
			</g>
		</g>
		<g>
			<g>
				<path fill="#813090" d="M50.6,104.7c0.9-2.2-0.3-5.6-1-6.7c-0.9-1.3-3.4-4.9-8.9-4.9s-8,3.1-8.9,5c-0.8,1.3-1.8,4.4-0.6,6.6
					H50.6z"/>
				<path fill="#010101" d="M46.9,91.3c0-2.5,2.2-8.2,0.7-10.5c-0.9-1.4-5.1-0.8-7,0.6c-2-1.3-5.9-1.8-6.8-0.5
					c-1.5,2.3,0.8,8.2,0.8,10.7c0,2.2-4.3,3.1-4.3,3.1s8.5,4.3,8.1-4.7c-0.1-1.7,1.5-2.8,2.5-4.2c1,1,2.1,1.9,2,3.4
					C42,98.4,50.1,95,50.1,95S46.8,93.6,46.9,91.3z"/>
				<g>
					<g>
						<g>
							<path fill="#F9D8A5" d="M44,86.2l-3.1,0h0h-3.7c0,0,1.7,7.3,0,9.2c-0.8,0.9,0.7,5.2,3.7,5.1c3.6-0.1,4.5-4.4,3.8-5.1
								C42.9,93.5,44,86.2,44,86.2z"/>
						</g>
						<g>
							<path fill="#F9D8A5" d="M40.8,100.6c-0.8,0-1.5-0.3-2.1-0.8c-0.7-0.6-1.1-1.3-1.3-1.8c-0.5-1.1-0.6-2.1-0.2-2.6
								c0.7-0.8,0.9-2.6,0.6-5.3c-0.2-2-0.6-3.9-0.6-3.9l0,0h3.8l3.1,0l0,0c0,0-0.3,1.8-0.3,3.9c-0.1,2.7,0.3,4.5,1,5.3
								c0.2,0.2,0.2,0.6,0.2,1c0,0.5-0.2,1.1-0.4,1.6c-0.3,0.7-0.8,1.3-1.3,1.7C42.6,100.3,41.8,100.6,40.8,100.6
								C40.9,100.6,40.9,100.6,40.8,100.6z M37.2,86.2c0.1,0.2,0.4,2,0.6,3.9c0.1,1.2,0.1,2.2,0.1,3.1c-0.1,1.1-0.3,1.8-0.7,2.3
								c-0.4,0.4-0.3,1.5,0.2,2.5c1.1,2.4,2.9,2.6,3.4,2.6c0,0,0,0,0.1,0c0.9,0,1.6-0.3,2.3-0.8c0.5-0.4,1-1,1.3-1.7
								c0.5-1.1,0.5-2.3,0.2-2.6c-0.5-0.6-1.1-2-1-5.4c0-1.9,0.3-3.6,0.3-3.9l-3,0H37.2z"/>
						</g>
					</g>
				</g>
			</g>
			<path fill="#F9D8A5" d="M47.4,86.6c0,3.6-1.9,5-3.6,6.5c-1,0.9-1.6,1.7-2.9,1.7c-1.3,0-2.1-1-3.2-2c-1.6-1.5-3-2.6-3.1-6.2
				c0-1.2-0.3-3.4,0.2-4.5c0.9-2,3.3-2.8,6-2.8c2.6,0,4.6,1.1,5.7,2.7C47.3,83.1,47.4,85.3,47.4,86.6z"/>
		</g>
		<path fill="#010101" d="M48.9,84.3c0.5-0.1,1.1-0.2,1.6-0.4c-0.5-0.1-1-0.4-1.5-0.7c0-0.1,0-0.1,0-0.2c0-2.4,0.3-4.2-1-6.4
			c-0.9-1.4-5.3-2.7-7-1.9c-0.3-0.1-0.5-0.2-0.8-0.2c-1.5-0.2-2.8,0.3-3.9,1.1c-1,0-2.1,0.5-2.9,1.6c-1.7,2.3-0.8,3.5-0.8,6.2
			c0,2.5,0.8,3.7-1,5.1c-0.2,0.2,1.4,0.2,2.3-1.1c-0.1,1.4-0.6,2.3-1.9,3.3c-0.3,0.2,4.4,0.3,3.8-3.7c-0.3-2.5,0.9-4.5,2.2-6.1
			c2.2,1.4,5,2.7,7.7,3.2c0.8,1.1,1.3,2.1,1.3,2.9c-0.1,3.5,2.5,2.7,2.3,2.5C48.2,88.7,48.7,86.4,48.9,84.3z"/>
	</g>
	<g>
		<g>
			<path fill="#B98E63" d="M41.5,104.7c0.7-2.3-0.2-6.3-0.9-8.4c-0.5-1.7-8.5-2.5-9-3.7c-0.4-1-1.2-3.1-0.4-3.9c0,0,0,0,0,0
				c0.2-0.1,0.4-0.2,0.5-0.4c0,0,0.1,0,0.1,0h0c1.3-1.1,1.9-3,2.2-4.4c0.7-0.1,1.6-1.1,1.6-2.1c0-0.9-0.5-1.7-0.9-2
				c0.6-3.1,0.5-7.4-7.1-7.4c-7.2,0-7.5,4-7.1,7.3c-0.4,0.2-1,1.1-1,2c0,1.1,1,2.1,1.7,2.1c0.2,1.3,0.8,3.3,2.2,4.4h0
				c0.1,0.1,0.3,0.2,0.4,0.3c1.2,0.6,0.2,2.9-0.2,4c-0.4,1.2-8.5,2-9,3.7c-0.6,2-1.5,6-0.9,8.4H41.5z"/>
			<path fill="#5D2D0F" d="M29,74.1c3.5,0.3,4.4,3.3,4.4,3.3s0.7,2.5,0.5,4.3c0,0.2,0.6,0.2,0.6,0.1c0.7-3.1,0.8-4.7,0.1-6.5
				c0.4-2.3-0.2-3.7-1.7-3.6c-0.3-1.6-1.9-2.2-4.1-1.4c0.1-0.8-4-1.6-6.1,0.7c-3.1-0.7-2.2,4.8-2.2,4.8s-0.9,1,0.1,5.9
				c0,0,0.7,0.1,0.7-0.3c0-0.9-0.2-2.9-0.1-4.3c0.1-0.9,0.7-2.9,1.9-2.1C24.6,76.1,26.8,73.9,29,74.1z"/>
		</g>
		<path fill="#154270" d="M41.5,104.7c0.7-2.3-0.2-6.3-0.9-8.4c-0.5-1.7-8.5-2.5-9-3.7c-0.1-0.2,0,3.7-4,3.7c-3.9,0-3.9-3.9-4-3.7
			c-0.4,1.2-8.5,2-9,3.7c-0.6,2-1.5,6-0.9,8.4H41.5z"/>
	</g>
</g>
</svg>
