<?xml version="1.0" encoding="utf-8"?>
<!-- Generator: Adobe Illustrator 18.1.1, SVG Export Plug-In . SVG Version: 6.00 Build 0)  -->
<svg version="1.1" id="Layer_1" xmlns="http://www.w3.org/2000/svg" xmlns:xlink="http://www.w3.org/1999/xlink" x="0px" y="0px"
	 viewBox="0 0 130 130" enable-background="new 0 0 130 130" xml:space="preserve">
<g>
	<g>
		<path fill="#1298BF" d="M47,65H1h0c0,9.9,2.3,19.4,6.3,27.7c1.6,3.3,3.4,6.4,5.5,9.3c0.6,0.8,1.2,1.7,1.8,2.5
			c1.6,2,3.3,3.9,5.1,5.7l32.5-32.5C49,74.5,47,70,47,65z"/>
		<path fill="#F04E3C" d="M77.7,77.7C74.5,81,70,83,65,83v46c2.6,0,5.1-0.2,7.7-0.5c1-0.1,2-0.3,3-0.4c3.5-0.6,7-1.5,10.5-2.7
			c8.8-3.1,17.1-8.1,24.1-15.2v0l0,0L77.7,77.7z"/>
		<path fill="#73B8BC" d="M52.3,77.7l-32.5,32.5l0,0c0,0,0,0,0,0c0.4,0.4,0.9,0.9,1.3,1.3c0.1,0.1,0.1,0.1,0.2,0.2
			c0.4,0.4,0.8,0.7,1.2,1.1c0,0,0.1,0.1,0.1,0.1c0.4,0.4,0.9,0.8,1.3,1.1c0,0,0.1,0,0.1,0.1c0.5,0.4,0.9,0.8,1.4,1.2c0,0,0,0,0,0
			c0.8,0.6,1.6,1.2,2.4,1.8c0,0,0,0,0.1,0.1c0.7,0.5,1.5,1,2.2,1.5c0,0,0,0,0,0c1.5,1,3,1.9,4.6,2.7c0,0,0.1,0.1,0.1,0.1
			c0.7,0.4,1.4,0.7,2.1,1.1c0.1,0,0.1,0.1,0.2,0.1c0.5,0.2,1,0.5,1.6,0.7c0,0,0,0,0,0c0.4,0.2,0.7,0.3,1.1,0.5
			c0.2,0.1,0.4,0.2,0.6,0.3c0.2,0.1,0.4,0.1,0.6,0.2c0.9,0.4,1.8,0.7,2.8,1c0.8,0.3,1.7,0.6,2.5,0.8c0,0,0.1,0,0.1,0
			c1.7,0.5,3.4,1,5.2,1.3c0,0,0,0,0,0c0.9,0.2,1.8,0.4,2.6,0.5c0,0,0.1,0,0.1,0c1,0.2,2,0.3,3,0.4c0,0,0,0,0,0
			c0.6,0.1,1.2,0.1,1.8,0.2c0,0,0.1,0,0.1,0c0.6,0.1,1.2,0.1,1.7,0.1c0.1,0,0.1,0,0.2,0c0.5,0,1.1,0.1,1.6,0.1c0.1,0,0.2,0,0.3,0
			c0.6,0,1.3,0,1.9,0V83C60,83,55.5,81,52.3,77.7z"/>
		<path fill="#9CCB41" d="M65,47l0-46c-2.6,0-5.1,0.2-7.7,0.5c-1,0.1-2,0.3-3,0.4c-3.5,0.6-7,1.5-10.5,2.7
			C35,7.7,26.8,12.7,19.7,19.7l32.5,32.5C55.5,49,60,47,65,47z"/>
		<path fill="#FCB316" d="M83,65h46c0-9.9-2.3-19.4-6.3-27.7c-1.6-3.3-3.4-6.4-5.5-9.3c-0.6-0.8-1.2-1.7-1.8-2.5
			c-1.6-2-3.3-3.9-5.1-5.7L77.7,52.3C81,55.5,83,60,83,65z"/>
		<path fill="#FFD76D" d="M65,47c5,0,9.5,2,12.7,5.3l32.5-32.5c-0.4-0.4-0.9-0.9-1.4-1.3c-0.1-0.1-0.1-0.1-0.2-0.2
			c-0.4-0.4-0.8-0.7-1.2-1.1c0,0-0.1-0.1-0.1-0.1c-0.4-0.4-0.9-0.8-1.3-1.1c0,0,0,0-0.1-0.1c-0.5-0.4-0.9-0.8-1.4-1.2c0,0,0,0,0,0
			c-0.8-0.6-1.6-1.2-2.4-1.8c0,0,0,0-0.1,0c-0.7-0.5-1.5-1-2.2-1.5c0,0,0,0,0,0c-1.5-1-3-1.9-4.6-2.7c0,0-0.1,0-0.1-0.1
			c-0.8-0.4-1.6-0.8-2.3-1.2c0,0-0.1,0-0.1-0.1c-0.8-0.4-1.7-0.8-2.6-1.2c-0.2-0.1-0.4-0.2-0.5-0.2c-0.2-0.1-0.4-0.2-0.6-0.2
			c-0.4-0.1-0.7-0.3-1.1-0.4c0,0,0,0,0,0c-0.5-0.2-1.1-0.4-1.6-0.6c-0.1,0-0.1,0-0.2-0.1c-0.8-0.3-1.5-0.5-2.3-0.7
			c-0.1,0-0.1,0-0.2,0c-1.7-0.5-3.4-1-5.1-1.3c0,0,0,0,0,0c-0.9-0.2-1.8-0.4-2.6-0.5c0,0-0.1,0-0.1,0c-1-0.2-2-0.3-3-0.4
			c0,0,0,0,0,0c-0.6-0.1-1.2-0.1-1.8-0.2c0,0-0.1,0-0.1,0c-0.6-0.1-1.2-0.1-1.7-0.1c-0.1,0-0.1,0-0.2,0c-0.5,0-1.1-0.1-1.6-0.1
			c-0.1,0-0.2,0-0.3,0c-0.6,0-1.2,0-1.9,0c0,0,0,0,0,0v0L65,47L65,47z"/>
		<path fill="#60AB45" d="M47,65c0-5,2-9.5,5.3-12.7L19.7,19.7c-7,7-12.1,15.3-15.2,24.1c-1.2,3.4-2.1,6.9-2.7,10.5
			c-0.2,1-0.3,2-0.4,3C1.2,59.9,1,62.4,1,65H47L47,65z"/>
		<path fill="#F17536" d="M77.7,77.7l32.5,32.5l0,0c7-7,12.1-15.3,15.2-24.1c1.2-3.4,2.1-6.9,2.7-10.5c0.2-1,0.3-2,0.4-3
			c0.3-2.5,0.5-5.1,0.5-7.7H83C83,70,81,74.5,77.7,77.7z"/>
	</g>
</g>
</svg>
