<?xml version="1.0" encoding="utf-8"?>
<!-- Generator: Adobe Illustrator 18.1.1, SVG Export Plug-In . SVG Version: 6.00 Build 0)  -->
<svg version="1.1" id="Layer_1" xmlns="http://www.w3.org/2000/svg" xmlns:xlink="http://www.w3.org/1999/xlink" x="0px" y="0px"
	 viewBox="0 0 130 130" enable-background="new 0 0 130 130" xml:space="preserve">
<g>
	<g>
		<g>
			<path fill="#E36DAA" d="M38.8,123.4C38.8,123.4,38.8,123.4,38.8,123.4C38.8,123.4,38.8,123.4,38.8,123.4z"/>
			<path fill="#E36DAA" d="M34.9,121.5c0,0-0.1-0.1-0.1-0.1C34.8,121.5,34.9,121.5,34.9,121.5z"/>
			<polygon fill="#E36DAA" points="25.5,115.3 25.5,115.4 25.5,115.3 			"/>
			<path fill="#E36DAA" d="M40.5,124.1c-0.2-0.1-0.4-0.2-0.6-0.3C40.1,124,40.3,124.1,40.5,124.1z"/>
			<path fill="#E36DAA" d="M30.2,118.7C30.2,118.7,30.2,118.7,30.2,118.7C30.2,118.7,30.2,118.7,30.2,118.7z"/>
			<path fill="#E36DAA" d="M65,129L65,129c-0.6,0-1.3,0-1.9,0C63.7,129,64.4,129,65,129z"/>
			<path fill="#E36DAA" d="M59.2,128.7c-0.6-0.1-1.2-0.1-1.8-0.2C58,128.6,58.6,128.7,59.2,128.7z"/>
			<path fill="#E36DAA" d="M24.1,114.2C24,114.2,24,114.2,24.1,114.2C24,114.2,24,114.2,24.1,114.2z"/>
			<path fill="#E36DAA" d="M62.8,129c-0.5,0-1.1,0-1.6-0.1C61.7,128.9,62.3,128.9,62.8,129z"/>
			<path fill="#E36DAA" d="M61,128.9c-0.6,0-1.2-0.1-1.7-0.1C59.8,128.8,60.4,128.8,61,128.9z"/>
			<path fill="#E36DAA" d="M51.6,127.6c-1.7-0.4-3.5-0.8-5.2-1.3C48.2,126.8,49.9,127.2,51.6,127.6z"/>
			<path fill="#E36DAA" d="M51.7,127.6c1.9,0.4,3.8,0.7,5.7,0.9c-1-0.1-2-0.3-3-0.4C53.4,128,52.5,127.8,51.7,127.6z"/>
			<path fill="#E36DAA" d="M21.3,111.8c-0.1-0.1-0.1-0.1-0.2-0.2C21.2,111.6,21.3,111.7,21.3,111.8z"/>
			<path fill="#1298BF" d="M65,65H1c0,9.9,2.3,19.4,6.3,27.7c1.6,3.3,3.4,6.4,5.5,9.3c0.6,0.8,1.2,1.7,1.8,2.5c1.6,2,3.3,4,5.1,5.8
				c0,0,0,0,0,0L65,65z"/>
			<path fill="#E36DAA" d="M41.1,124.4c1.7,0.7,3.5,1.3,5.3,1.9c-0.8-0.3-1.7-0.5-2.5-0.8C42.9,125.1,42,124.7,41.1,124.4z"/>
			<path fill="#E36DAA" d="M22.7,113c0,0-0.1-0.1-0.1-0.1C22.6,112.9,22.6,113,22.7,113z"/>
			<path fill="#E36DAA" d="M57.3,128.5C57.3,128.5,57.3,128.5,57.3,128.5C57.3,128.5,57.3,128.5,57.3,128.5
				C57.3,128.5,57.3,128.5,57.3,128.5z"/>
			<path fill="#E36DAA" d="M51.7,127.6C51.6,127.6,51.6,127.6,51.7,127.6C51.6,127.6,51.6,127.6,51.7,127.6z"/>
			<path fill="#E36DAA" d="M34.9,121.5c1.3,0.7,2.6,1.3,3.9,1.9c-0.5-0.2-1-0.5-1.6-0.7C36.5,122.3,35.7,121.9,34.9,121.5z"/>
			<path fill="#F04E3C" d="M65,65L65,65v64c2.6,0,5.1-0.2,7.7-0.5c1-0.1,2-0.3,3-0.4c3.5-0.6,7-1.5,10.5-2.7
				c8.8-3.1,17.1-8.1,24.1-15.2L65,65z"/>
			<path fill="#E36DAA" d="M24,114.1c-0.4-0.4-0.9-0.8-1.3-1.1C23.1,113.4,23.5,113.8,24,114.1z"/>
			<path fill="#E36DAA" d="M61.2,128.9c-0.1,0-0.1,0-0.2,0C61.1,128.9,61.1,128.9,61.2,128.9z"/>
			<path fill="#E36DAA" d="M63.1,129c-0.1,0-0.2,0-0.3,0C62.9,129,63,129,63.1,129z"/>
			<path fill="#E36DAA" d="M59.3,128.7C59.2,128.7,59.2,128.7,59.3,128.7C59.2,128.7,59.2,128.7,59.3,128.7z"/>
			<path fill="#E36DAA" d="M22.5,112.9c-0.4-0.4-0.8-0.7-1.2-1.1C21.7,112.1,22.1,112.5,22.5,112.9z"/>
			<path fill="#E36DAA" d="M34.8,121.4c-1.6-0.8-3.1-1.7-4.6-2.7C31.7,119.7,33.2,120.6,34.8,121.4z"/>
			<path fill="#E36DAA" d="M21.1,111.6c-0.4-0.4-0.9-0.9-1.3-1.3C20.2,110.7,20.7,111.2,21.1,111.6z"/>
			<path fill="#E36DAA" d="M25.5,115.3c-0.5-0.4-1-0.8-1.4-1.2C24.5,114.6,25,115,25.5,115.3z"/>
			<path fill="#E36DAA" d="M25.5,115.4c1.5,1.2,3.1,2.3,4.7,3.3c-0.8-0.5-1.5-1-2.2-1.5C27.1,116.6,26.3,116,25.5,115.4z"/>
			<path fill="#E36DAA" d="M46.5,126.3c0,0-0.1,0-0.1,0C46.4,126.2,46.4,126.3,46.5,126.3z"/>
			<path fill="#E36DAA" d="M41.1,124.4c-0.2-0.1-0.4-0.1-0.6-0.2C40.7,124.2,40.9,124.3,41.1,124.4z"/>
			<path fill="#E36DAA" d="M39.9,123.9c-0.4-0.2-0.7-0.3-1.1-0.5C39.2,123.6,39.6,123.7,39.9,123.9z"/>
			<path fill="#73B8BC" d="M19.7,110.3C19.8,110.3,19.8,110.3,19.7,110.3c0.5,0.5,0.9,0.9,1.4,1.3c0.1,0.1,0.1,0.1,0.2,0.2
				c0.4,0.4,0.8,0.7,1.2,1.1c0,0,0.1,0.1,0.1,0.1c0.4,0.4,0.9,0.8,1.3,1.1c0,0,0.1,0,0.1,0.1c0.5,0.4,0.9,0.8,1.4,1.2c0,0,0,0,0,0
				c0.8,0.6,1.6,1.2,2.5,1.8c0.7,0.5,1.5,1,2.2,1.5c0,0,0,0,0,0c1.5,1,3,1.9,4.6,2.7c0,0,0.1,0.1,0.1,0.1c0.8,0.4,1.5,0.8,2.3,1.2
				c0.5,0.2,1,0.5,1.6,0.7c0,0,0,0,0,0c0.4,0.2,0.7,0.3,1.1,0.5c0.2,0.1,0.4,0.2,0.6,0.3c0.2,0.1,0.4,0.1,0.6,0.2
				c0.9,0.4,1.8,0.7,2.8,1c0.8,0.3,1.7,0.6,2.5,0.8c0,0,0.1,0,0.1,0c1.7,0.5,3.4,1,5.2,1.3c0,0,0,0,0,0c0.9,0.2,1.8,0.4,2.6,0.5
				c1,0.2,2,0.3,3,0.4c0,0,0,0,0,0c0.6,0.1,1.2,0.1,1.8,0.2c0,0,0.1,0,0.1,0c0.6,0.1,1.2,0.1,1.7,0.1c0.1,0,0.1,0,0.2,0
				c0.5,0,1.1,0.1,1.6,0.1c0.1,0,0.2,0,0.3,0c0.6,0,1.3,0,1.9,0V65L19.7,110.3z"/>
		</g>
		<g>
			<path fill="#E36DAA" d="M87.8,5.2C87.8,5.2,87.8,5.2,87.8,5.2C87.8,5.2,87.8,5.2,87.8,5.2z"/>
			<path fill="#E36DAA" d="M83.7,3.8c-0.1,0-0.1,0-0.2,0C83.6,3.7,83.6,3.8,83.7,3.8z"/>
			<path fill="#E36DAA" d="M72.7,1.5C72.7,1.5,72.7,1.5,72.7,1.5C72.7,1.5,72.7,1.5,72.7,1.5C72.7,1.5,72.7,1.5,72.7,1.5z"/>
			<path fill="#E36DAA" d="M89.5,5.9c-0.2-0.1-0.4-0.2-0.6-0.2C89.1,5.7,89.3,5.8,89.5,5.9z"/>
			<path fill="#E36DAA" d="M78.4,2.4C78.4,2.4,78.4,2.4,78.4,2.4C78.4,2.4,78.4,2.4,78.4,2.4z"/>
			<path fill="#E36DAA" d="M110.3,19.7L110.3,19.7c-0.4-0.4-0.9-0.9-1.4-1.3C109.4,18.9,109.8,19.3,110.3,19.7z"/>
			<path fill="#E36DAA" d="M105.9,15.8c-0.5-0.4-0.9-0.8-1.4-1.2C105,15,105.5,15.4,105.9,15.8z"/>
			<path fill="#E36DAA" d="M70.8,1.3C70.8,1.3,70.8,1.3,70.8,1.3C70.8,1.3,70.8,1.3,70.8,1.3z"/>
			<path fill="#E36DAA" d="M108.7,18.2c-0.4-0.4-0.8-0.7-1.2-1.1C107.9,17.5,108.3,17.9,108.7,18.2z"/>
			<path fill="#E36DAA" d="M107.3,17c-0.4-0.4-0.9-0.8-1.3-1.1C106.5,16.2,106.9,16.6,107.3,17z"/>
			<path fill="#E36DAA" d="M99.8,11.3c-1.5-1-3-1.9-4.6-2.7C96.8,9.4,98.3,10.3,99.8,11.3z"/>
			<path fill="#E36DAA" d="M99.8,11.3c1.6,1,3.2,2.2,4.7,3.3c-0.8-0.6-1.6-1.2-2.5-1.8C101.3,12.3,100.6,11.8,99.8,11.3z"/>
			<path fill="#E36DAA" d="M67.2,1c-0.1,0-0.2,0-0.3,0C67,1,67.1,1,67.2,1z"/>
			<path fill="#9CCB41" d="M65,65L19.7,19.7c7-7,15.3-12.1,24.1-15.2c3.4-1.2,6.9-2.1,10.5-2.7c1-0.2,2-0.3,3-0.4
				C59.9,1.2,62.5,1,65,1c0,0,0,0,0,0L65,65z"/>
			<path fill="#E36DAA" d="M90,6.1c1.7,0.7,3.4,1.5,5,2.4c-0.8-0.4-1.6-0.8-2.3-1.2C91.9,6.9,91,6.5,90,6.1z"/>
			<path fill="#E36DAA" d="M69,1.1c-0.1,0-0.1,0-0.2,0C68.9,1.1,68.9,1.1,69,1.1z"/>
			<polygon fill="#E36DAA" points="104.5,14.7 104.5,14.7 104.5,14.6 			"/>
			<path fill="#E36DAA" d="M99.8,11.3C99.8,11.3,99.8,11.3,99.8,11.3C99.8,11.3,99.8,11.3,99.8,11.3z"/>
			<path fill="#E36DAA" d="M83.7,3.8c1.4,0.4,2.8,0.9,4.1,1.4c-0.5-0.2-1.1-0.4-1.6-0.6C85.3,4.3,84.5,4,83.7,3.8z"/>
			<path fill="#FCB316" d="M65,65L65,65l45.3-45.3c1.8,1.8,3.5,3.7,5.1,5.7c0.6,0.8,1.2,1.6,1.8,2.5c2.1,2.9,3.9,6,5.5,9.3
				c4,8.4,6.3,17.8,6.3,27.7L65,65z"/>
			<path fill="#E36DAA" d="M70.7,1.3c-0.6-0.1-1.2-0.1-1.7-0.1C69.6,1.2,70.2,1.2,70.7,1.3z"/>
			<path fill="#E36DAA" d="M107.5,17.1c0,0-0.1-0.1-0.1-0.1C107.4,17.1,107.4,17.1,107.5,17.1z"/>
			<path fill="#E36DAA" d="M108.9,18.4c-0.1-0.1-0.1-0.1-0.2-0.2C108.8,18.3,108.8,18.4,108.9,18.4z"/>
			<path fill="#E36DAA" d="M106,15.9C106,15.9,106,15.8,106,15.9C106,15.8,106,15.9,106,15.9z"/>
			<path fill="#E36DAA" d="M68.8,1.1c-0.5,0-1.1-0.1-1.6-0.1C67.7,1.1,68.3,1.1,68.8,1.1z"/>
			<path fill="#E36DAA" d="M83.5,3.7c-1.7-0.5-3.4-1-5.1-1.3C80.1,2.8,81.8,3.2,83.5,3.7z"/>
			<path fill="#E36DAA" d="M66.9,1c-0.6,0-1.2,0-1.9,0C65.7,1,66.3,1,66.9,1z"/>
			<path fill="#E36DAA" d="M72.7,1.5c-0.6-0.1-1.2-0.1-1.8-0.2C71.4,1.3,72.1,1.4,72.7,1.5z"/>
			<path fill="#E36DAA" d="M72.7,1.5c1.9,0.2,3.8,0.5,5.7,0.9c-0.9-0.2-1.8-0.4-2.6-0.5C74.7,1.7,73.7,1.6,72.7,1.5z"/>
			<path fill="#E36DAA" d="M95.2,8.6c0,0-0.1,0-0.1-0.1C95.1,8.5,95.2,8.5,95.2,8.6z"/>
			<path fill="#E36DAA" d="M90,6.1c-0.2-0.1-0.4-0.2-0.5-0.2C89.7,5.9,89.9,6,90,6.1z"/>
			<path fill="#E36DAA" d="M88.9,5.6c-0.4-0.1-0.7-0.3-1.1-0.4C88.2,5.3,88.5,5.5,88.9,5.6z"/>
			<path fill="#FFD76D" d="M65,1C65,1,65,1,65,1c0.7,0,1.3,0,1.9,0c0.1,0,0.2,0,0.3,0c0.5,0,1.1,0,1.6,0.1c0.1,0,0.1,0,0.2,0
				c0.6,0,1.2,0.1,1.7,0.1c0,0,0.1,0,0.1,0c0.6,0.1,1.2,0.1,1.8,0.2c0,0,0,0,0,0c1,0.1,2,0.3,3,0.4c0.9,0.1,1.8,0.3,2.6,0.5
				c0,0,0,0,0,0c1.7,0.4,3.4,0.8,5.1,1.3c0.1,0,0.1,0,0.2,0c0.8,0.3,1.7,0.5,2.5,0.8c0.5,0.2,1.1,0.4,1.6,0.6c0,0,0,0,0,0
				c0.4,0.1,0.7,0.3,1.1,0.4c0.2,0.1,0.4,0.2,0.6,0.2C89.7,5.9,89.9,6,90,6.1c0.9,0.4,1.8,0.8,2.7,1.2c0.8,0.4,1.6,0.8,2.3,1.2
				c0,0,0.1,0,0.1,0.1c1.6,0.8,3.1,1.7,4.6,2.7c0,0,0,0,0,0c0.8,0.5,1.5,1,2.2,1.5c0.8,0.6,1.7,1.2,2.5,1.8c0,0,0,0,0,0
				c0.5,0.4,1,0.8,1.4,1.2c0,0,0,0,0.1,0.1c0.4,0.4,0.9,0.8,1.3,1.1c0,0,0.1,0.1,0.1,0.1c0.4,0.4,0.8,0.7,1.2,1.1
				c0.1,0.1,0.1,0.1,0.2,0.2c0.5,0.4,0.9,0.9,1.4,1.3L65,65L65,1z"/>
		</g>
		<g>
			<path fill="#60AB45" d="M19.7,19.7c-7,7-12.1,15.3-15.2,24.1c-1.2,3.4-2.1,6.9-2.7,10.5c-0.2,1-0.3,2-0.4,3C1.2,59.9,1,62.4,1,65
				l64,0L19.7,19.7z"/>
		</g>
		<g>
			<path fill="#F17536" d="M110.3,110.3c7-7,12.1-15.3,15.2-24.1c1.2-3.4,2.1-6.9,2.7-10.5c0.2-1,0.3-2,0.4-3
				c0.3-2.5,0.5-5.1,0.5-7.7l-64,0L110.3,110.3z"/>
		</g>
	</g>
	<circle opacity="0.15" fill="#FFFFFF" cx="65" cy="65" r="40.4"/>
	<circle opacity="0.15" fill="#FFFFFF" cx="65" cy="65" r="22.6"/>
</g>
</svg>
