<?xml version="1.0" encoding="utf-8"?>
<!-- Generator: Adobe Illustrator 18.1.1, SVG Export Plug-In . SVG Version: 6.00 Build 0)  -->
<svg version="1.1" id="Layer_1" xmlns="http://www.w3.org/2000/svg" xmlns:xlink="http://www.w3.org/1999/xlink" x="0px" y="0px"
	 viewBox="0 0 130 130" enable-background="new 0 0 130 130" xml:space="preserve">
<g>
	<g>
		<path fill="#FFFFFF" d="M127,129H3c-1.1,0-2-0.9-2-2V3c0-1.1,0.9-2,2-2h124c1.1,0,2,0.9,2,2v124C129,128.1,128.1,129,127,129z"/>
		<g>
			<g>
				<rect x="10.7" y="8.6" fill="#73B8BC" width="109" height="29.1"/>
			</g>
		</g>
		<g>
			<circle fill="#73B8BC" cx="21.8" cy="56.5" r="11"/>
			<circle fill="#73B8BC" cx="50.7" cy="56.5" r="11"/>
			<circle fill="#73B8BC" cx="79.7" cy="56.5" r="11"/>
			<circle fill="#73B8BC" cx="108.6" cy="56.5" r="11"/>
		</g>
		<g>
			<circle fill="#73B8BC" cx="21.8" cy="83" r="11"/>
			<circle fill="#73B8BC" cx="50.7" cy="83" r="11"/>
			<circle fill="#73B8BC" cx="79.7" cy="83" r="11"/>
			<circle fill="#73B8BC" cx="108.6" cy="83" r="11"/>
		</g>
		<g>
			<circle fill="#73B8BC" cx="21.8" cy="109.4" r="11"/>
			<circle fill="#73B8BC" cx="50.7" cy="109.4" r="11"/>
			<circle fill="#73B8BC" cx="79.7" cy="109.4" r="11"/>
			<circle fill="#73B8BC" cx="108.6" cy="109.4" r="11"/>
		</g>
	</g>
	<g>
		<path opacity="0.1" fill="#FFFFFF" d="M44.7,25.2c28.1,28.1,56.2,56.2,84.3,84.2V3c0-1.1-0.9-2-2-2H20.5
			C28.5,9.1,36.6,17.1,44.7,25.2z"/>
		<path opacity="5.000000e-02" d="M1,9.8V127c0,1.1,0.9,2,2,2h117.3C80.5,89.3,40.8,49.5,1,9.8z"/>
		<g>
			<g>
				<path opacity="0.1" fill="#FFFFFF" d="M44.7,25.2c4.2,4.2,8.4,8.4,12.6,12.5h62.5V8.6H28.1C33.6,14.1,39.1,19.6,44.7,25.2z"/>
				<path opacity="5.000000e-02" d="M10.7,19.5v18.2h18.2C22.9,31.6,16.8,25.6,10.7,19.5z"/>
			</g>
		</g>
		<g>
			<circle opacity="5.000000e-02" cx="21.8" cy="56.5" r="11"/>
			<path opacity="5.000000e-02" d="M41.6,50.3c-1.2,1.8-1.9,3.9-1.9,6.2c0,6.1,4.9,11,11,11c2.3,0,4.4-0.7,6.2-1.9
				C51.8,60.6,46.7,55.5,41.6,50.3z"/>
			<path opacity="0.1" fill="#FFFFFF" d="M85.5,65.9c3.2-1.9,5.3-5.4,5.3-9.4c0-6.1-4.9-11-11-11c-4,0-7.5,2.1-9.4,5.3
				C75.3,55.8,80.4,60.9,85.5,65.9z"/>
			<circle opacity="0.1" fill="#FFFFFF" cx="108.6" cy="56.5" r="11"/>
		</g>
		<g>
			<circle opacity="5.000000e-02" cx="21.8" cy="83" r="11"/>
			<circle opacity="5.000000e-02" cx="50.7" cy="83" r="11"/>
			<path opacity="5.000000e-02" d="M69.6,78.4c-0.6,1.4-1,2.9-1,4.6c0,6.1,4.9,11,11,11c1.6,0,3.2-0.4,4.6-1
				C79.4,88.1,74.5,83.3,69.6,78.4z"/>
			<path opacity="0.1" fill="#FFFFFF" d="M112.8,93.2c4.1-1.6,6.9-5.6,6.9-10.2c0-6.1-4.9-11-11-11c-4.6,0-8.6,2.9-10.2,6.9
				C103.2,83.6,108,88.4,112.8,93.2z"/>
		</g>
		<g opacity="5.000000e-02">
			<circle cx="21.8" cy="109.4" r="11"/>
			<circle cx="50.7" cy="109.4" r="11"/>
			<circle cx="79.7" cy="109.4" r="11"/>
			<path d="M98,106.7c-0.2,0.9-0.4,1.8-0.4,2.8c0,6.1,4.9,11,11,11c1,0,1.9-0.1,2.8-0.4C106.9,115.6,102.4,111.1,98,106.7z"/>
		</g>
	</g>
</g>
</svg>
