<?xml version="1.0" encoding="utf-8"?>
<!-- Generator: Adobe Illustrator 18.1.1, SVG Export Plug-In . SVG Version: 6.00 Build 0)  -->
<svg version="1.1" id="Layer_1" xmlns="http://www.w3.org/2000/svg" xmlns:xlink="http://www.w3.org/1999/xlink" x="0px" y="0px"
	 viewBox="0 0 130 130" enable-background="new 0 0 130 130" xml:space="preserve">
<g>
	<g>
		<path fill="#75472D" d="M30.9,38.2h7.9v-1C38.8,22.8,50.5,11,65,11c14.5,0,26.2,11.8,26.2,26.2v1h10v-1C101.2,17.3,84.9,1,65,1h0
			C45.1,1,28.8,17.3,28.8,37.2v1.2C29.4,38.3,30.1,38.2,30.9,38.2z"/>
		<path fill="#B28052" d="M127,129H3c-1.1,0-2-0.9-2-2V39.9c0-1.1,0.9-2,2-2h124c1.1,0,2,0.9,2,2V127C129,128.1,128.1,129,127,129z"
			/>
		<path fill="#FFFFFF" d="M68.7,85.6h-7.4c-3.5,0-6.3-2.8-6.3-6.3v0c0-3.5,2.8-6.3,6.3-6.3h7.4c3.5,0,6.3,2.8,6.3,6.3v0
			C75,82.7,72.2,85.6,68.7,85.6z"/>
		<path fill="#A87348" d="M127,37.9H3c-1.1,0-2,0.9-2,2v21.6c8.8,11.1,22.4,18.3,37.6,18.3h52.7c15.2,0,28.8-7.2,37.6-18.3V39.9
			C129,38.8,128.1,37.9,127,37.9z"/>
	</g>
	<path opacity="0.1" fill="#FFFFFF" d="M40.2,28.6C43.8,18.4,53.6,11,65,11c14.5,0,26.2,11.8,26.2,26.2v0.7H49.6
		c26.5,26.5,53,53.1,79.4,79.7V39.9c0-0.3-0.1-0.5-0.2-0.8c-0.1-0.1-0.1-0.2-0.2-0.3c-0.1-0.2-0.3-0.4-0.5-0.5
		c-0.3-0.2-0.7-0.3-1.1-0.3h-25.8v-0.7C101.2,17.3,84.9,1,65,1h0C50.9,1,38.6,9.2,32.6,21C35.2,23.5,37.7,26.1,40.2,28.6z"/>
	<path opacity="5.000000e-02" d="M21.3,37.9H3c-0.3,0-0.5,0.1-0.8,0.2c-0.1,0.1-0.2,0.1-0.3,0.2c-0.2,0.1-0.4,0.3-0.5,0.5
		c-0.1,0.1-0.1,0.2-0.2,0.3C1.1,39.4,1,39.7,1,39.9V127c0,1.1,0.9,2,2,2h109.1C81.9,98.6,51.6,68.3,21.3,37.9z"/>
</g>
</svg>
