<?xml version="1.0" encoding="utf-8"?>
<!-- Generator: Adobe Illustrator 18.1.1, SVG Export Plug-In . SVG Version: 6.00 Build 0)  -->
<svg version="1.1" id="Layer_1" xmlns="http://www.w3.org/2000/svg" xmlns:xlink="http://www.w3.org/1999/xlink" x="0px" y="0px"
	 viewBox="0 0 130 130" enable-background="new 0 0 130 130" xml:space="preserve">
<g>
	<g>
		<g>
			<g>
				<g>
					<g>
						<g>
							<g>
								<g>
									<g>
										<ellipse fill="#F9CA62" cx="66.7" cy="65" rx="64" ry="63.9"/>
									</g>
								</g>
							</g>
						</g>
					</g>
				</g>
				<g>
					<g>
						<g>
							<g>
								<g>
									<g>
										<ellipse fill="#F9CA62" cx="66.7" cy="65" rx="64" ry="63.9"/>
									</g>
								</g>
							</g>
						</g>
					</g>
				</g>
				<path fill="#FFD76D" d="M117.6,103.7c8.2-10.7,13.1-24.2,13.1-38.7c0-35.3-28.7-63.9-64-63.9C52.3,1.1,39,5.8,28.3,13.8
					C58,43.9,87.7,73.8,117.6,103.7z"/>
				<path fill="#ECB34B" d="M14.4,28.1C7,38.5,2.7,51.3,2.7,65c0,35.3,28.7,63.9,64,63.9c13.6,0,26.1-4.2,36.5-11.4
					C73.5,87.8,43.8,58.1,14.4,28.1z"/>
			</g>
		</g>
	</g>
	<g>
		<path fill="#B28052" d="M118.6,53.2c0-1.1-0.9-2-2-2h-100c-1.1,0-2,0.9-2,2v49.5c11.6,15.9,30.5,26.3,51.7,26.3
			c21.6,0,40.7-10.7,52.2-27V53.2z"/>
		<path fill="#75472D" d="M45.4,51.2v-0.6c0-11.8,9.6-21.3,21.3-21.3c11.8,0,21.3,9.6,21.3,21.3v0.6h8.1v-0.6
			c0-16.2-13.2-29.4-29.4-29.4h0c-16.2,0-29.4,13.2-29.4,29.4v0.6H45.4z"/>
		<path fill="#FFFFFF" d="M70.4,89.8h-7.5c-2.4,0-4.4-2-4.4-4.4v-1.5c0-2.4,2-4.4,4.4-4.4h7.5c2.4,0,4.4,2,4.4,4.4v1.5
			C74.8,87.9,72.8,89.8,70.4,89.8z"/>
		<path fill="#A87348" d="M117,51.2H16.3c-0.9,0-1.6,0.7-1.6,1.6v17.6c7.2,9.1,18.2,14.9,30.6,14.9h42.8c12.4,0,23.4-5.8,30.6-14.9
			V52.8C118.6,51.9,117.9,51.2,117,51.2z"/>
	</g>
	<g>
		<path opacity="0.1" fill="#FFFFFF" d="M117.6,103.4c0.4-0.5,0.7-1,1.1-1.5V53.2c0-1.1-0.9-2-2-2H65.4
			C82.8,68.6,100.2,86,117.6,103.4z"/>
		<path opacity="5.000000e-02" fill="#050606" d="M37.3,51.2H16.7c-1.1,0-2,0.9-2,2v49.5c11.6,15.9,30.5,26.3,51.7,26.3
			c13.7,0,26.4-4.3,36.8-11.6C81.2,95.3,59.2,73.3,37.3,51.2z"/>
		<path opacity="0.1" fill="#FFFFFF" d="M50.8,36.4c3.9-4.4,9.6-7.1,15.9-7.1c11.8,0,21.3,9.6,21.3,21.3v0.6h8.1v-0.6
			c0-16.2-13.2-29.4-29.4-29.4h0c-8.5,0-16.2,3.7-21.6,9.5C47,32.6,48.9,34.5,50.8,36.4z"/>
		<path opacity="0.1" fill="#FFFFFF" d="M98.1,83.9c8.2-2.2,15.4-7,20.5-13.6V52.8c0-0.9-0.7-1.6-1.6-1.6H65.4
			C76.3,62.1,87.2,73,98.1,83.9z"/>
		<path opacity="5.000000e-02" fill="#050606" d="M37.3,51.2H16.3c-0.9,0-1.6,0.7-1.6,1.6v17.6c7.2,9.1,18.2,14.9,30.6,14.9h25.9
			C59.9,73.9,48.6,62.5,37.3,51.2z"/>
	</g>
</g>
</svg>
