<?xml version="1.0" encoding="utf-8"?>
<!-- Generator: Adobe Illustrator 18.0.0, SVG Export Plug-In . SVG Version: 6.00 Build 0)  -->
<!DOCTYPE svg PUBLIC "-//W3C//DTD SVG 1.1//EN" "http://www.w3.org/Graphics/SVG/1.1/DTD/svg11.dtd">
<svg version="1.1" id="Layer_1" xmlns="http://www.w3.org/2000/svg" xmlns:xlink="http://www.w3.org/1999/xlink" x="0px" y="0px"
	 viewBox="0 0 300 300" enable-background="new 0 0 300 300" xml:space="preserve">
<g>
	<g>
		<g>
			<path fill="#FFFFFF" d="M235.6,1.4c-25.4,0-67.4,100.8-196.8,100.8V195c126.9,0,171.2,101.8,196.8,101.8
				c34.4,0,62.1-66.2,62.1-147.7S269.8,1.4,235.6,1.4z"/>
			<g>
				<path opacity="5.000000e-02" enable-background="new    " d="M235.6,263.8c-25.4,0-69.7-101.8-196.8-101.8v34.6
					c126.9,0,171.2,101.8,196.8,101.8c34.4,0,62.1-66.2,62.1-147.7c0-5.8-0.2-11.8-0.5-17.3C293.5,206.8,267.5,263.8,235.6,263.8z"
					/>
			</g>
			<g>
				<g>
					<ellipse fill="#8DCBCE" cx="243.9" cy="156.2" rx="38.3" ry="125.3"/>
					<path fill="#73B8BC" d="M205.6,156.2c0,51.9,9.7,96.5,23.3,115.4c13.8-18.9,23.3-63.5,23.3-115.4s-9.7-96.5-23.3-115.4
						C215.3,60,205.6,104.5,205.6,156.2z"/>
				</g>
				<path fill="#E8E8E8" d="M206.8,125.1c-0.7,9.9-1.2,20.3-1.2,31.2s0.5,21.2,1.2,31.2C222,186,234,172.6,234,156.2
					C234.2,139.8,222.2,126.5,206.8,125.1z"/>
			</g>
		</g>
		<path fill="#18B898" d="M72.7,99.7c-34.8-1.2-70.4,6-70.4,49.2s35.5,50.1,70.4,48.9V99.7z"/>
		<path fill="#FFFFFF" d="M72.7,197.5L72.7,197.5c-10.4,0.5-21,0-30.5-1.8v19.4c0,4.8,2.1,9,4.8,9h30.2c2.8,0,4.8-3.9,4.8-9v-15.9
			C78.9,198.7,75.9,198,72.7,197.5z"/>
		<path fill="#18B898" d="M25.2,190.2l6.9,77.3c0,4.8,2.1,9,4.8,9H81c2.8,0,4.8-3.9,4.8-9l-20.8-69.7
			C50.5,197.8,36.2,195.9,25.2,190.2z"/>
		<path opacity="5.000000e-02" enable-background="new    " d="M68.5,213.7c4.6-0.2,9-0.5,13.6-0.9v-13.4c-3-0.7-6.2-1.2-9.5-1.6
			l0,0c-2.5,0-5.1,0.2-7.6,0.2l0,0c-1.6,0-3.5,0-5.1,0c-0.5,0-0.7,0-1.2,0c-1.4,0-2.5-0.2-3.9-0.2c-0.5,0-0.7,0-1.2,0
			c-1.6-0.2-3-0.2-4.6-0.5c-0.5,0-0.7,0-0.9-0.2c-1.2-0.2-2.3-0.2-3.7-0.5c-0.5,0-0.9-0.2-1.4-0.2c-6.5-1.2-12.7-3-18-5.8v17.8
			C39.5,210.7,53.8,213.9,68.5,213.7z"/>
	</g>
	<path opacity="0.3" fill="#FFFFFF" enable-background="new    " d="M291.5,213.2c3.9-19.4,6.2-41.1,6.2-64.2
		c0-81.5-27.9-147.7-62.1-147.7c-16.2,0-38.8,40.2-85.6,69.7C197.1,118.6,244.2,165.9,291.5,213.2z"/>
</g>
</svg>
