<?xml version="1.0" encoding="utf-8"?>
<!-- Generator: Adobe Illustrator 18.1.1, SVG Export Plug-In . SVG Version: 6.00 Build 0)  -->
<svg version="1.1" id="Layer_1" xmlns="http://www.w3.org/2000/svg" xmlns:xlink="http://www.w3.org/1999/xlink" x="0px" y="0px"
	 viewBox="0 0 130 130" enable-background="new 0 0 130 130" xml:space="preserve">
<g>
	<g>
		<g>
			<g>
				<g>
					<circle fill="#81C2C9" cx="65" cy="65" r="64"/>
					<path fill="#8DCBCE" d="M115.9,103.8C124.1,93,129,79.6,129,65c0-35.3-28.7-64-64-64C50.6,1,37.4,5.7,26.7,13.7
						C56.3,43.9,86.1,73.9,115.9,103.8z"/>
					<path fill="#73B8BC" d="M12.7,28.1C5.4,38.5,1,51.2,1,65c0,35.3,28.7,64,64,64c13.6,0,26.1-4.2,36.5-11.4
						C71.8,87.9,42.2,58.1,12.7,28.1z"/>
				</g>
			</g>
		</g>
	</g>
	<g>
		<path fill="#FFD76D" d="M65,129c19.6,0,37.1-8.8,48.8-22.6V92.5c0-1.1-0.9-2-2-2H18.2c-1.1,0-2,0.9-2,2v13.9
			C27.9,120.2,45.4,129,65,129z"/>
		<g>
			<polygon fill="#5D2D0F" points="19.1,90.5 22.4,32.5 107.6,32.5 110.9,90.5 			"/>
			<path fill="#F7C961" d="M105.1,35.1l3,52.7H21.9l3-52.7H105.1 M109.5,29.8h-89c-0.4,0-0.7,0.3-0.7,0.7l-3.6,62.7h97.6l-3.6-62.7
				C110.2,30.1,109.9,29.8,109.5,29.8L109.5,29.8z"/>
		</g>
		<g>
			<path fill="#9CCB41" d="M101.2,65.9H28.8c-1,0-1.8-0.8-1.8-1.8l-0.7-19.7c0-1,0.8-1.8,1.8-1.8h73.9c1,0,1.8,0.8,1.8,1.8L103,64.1
				C103,65.1,102.2,65.9,101.2,65.9z"/>
			<path fill="#9CCB41" d="M39.5,45.7h-11c-1.3,0-2.3-1-2.3-2.3v-1.3c0-1.3,1-2.3,2.3-2.3h11c1.3,0,2.3,1,2.3,2.3v1.3
				C41.8,44.7,40.8,45.7,39.5,45.7z"/>
		</g>
		<g>
			<path fill="#FFD76D" d="M101.2,76.7H28.8c-1,0-1.8-0.8-1.8-1.8l-0.7-19.7c0-1,0.8-1.8,1.8-1.8h73.9c1,0,1.8,0.8,1.8,1.8L103,74.9
				C103,75.9,102.2,76.7,101.2,76.7z"/>
			<path fill="#FFD76D" d="M39.5,56.5h-11c-1.3,0-2.3-1-2.3-2.3v-1.3c0-1.3,1-2.3,2.3-2.3h11c1.3,0,2.3,1,2.3,2.3v1.3
				C41.8,55.4,40.8,56.5,39.5,56.5z"/>
		</g>
		<g>
			<path fill="#F04E3C" d="M101.2,87.4H28.8c-1,0-1.8-0.8-1.8-1.8l-0.7-19.7c0-1,0.8-1.8,1.8-1.8h73.9c1,0,1.8,0.8,1.8,1.8L103,85.6
				C103,86.6,102.2,87.4,101.2,87.4z"/>
			<path fill="#F04E3C" d="M39.5,67.2h-11c-1.3,0-2.3-1-2.3-2.3v-1.3c0-1.3,1-2.3,2.3-2.3h11c1.3,0,2.3,1,2.3,2.3v1.3
				C41.8,66.2,40.8,67.2,39.5,67.2z"/>
		</g>
		<g>
			<path fill="#73B8BC" d="M103.3,87.9l0.4-11.2c0-1-0.8-1.8-1.8-1.8H28.1c-1,0-1.8,0.8-1.8,1.8l0.4,11.2H103.3z"/>
			<path fill="#73B8BC" d="M39.5,77.6h-11c-1.3,0-2.3-1-2.3-2.3V74c0-1.3,1-2.3,2.3-2.3h11c1.3,0,2.3,1,2.3,2.3v1.3
				C41.8,76.6,40.8,77.6,39.5,77.6z"/>
		</g>
		<g>
			<g>
				<circle fill="#FFFFFF" cx="33.1" cy="106.3" r="3.8"/>
				<circle fill="#CFCECE" cx="33.1" cy="106.3" r="2.1"/>
			</g>
			<g>
				<circle fill="#FFFFFF" cx="97" cy="106.3" r="3.8"/>
				<circle fill="#CFCECE" cx="97" cy="106.3" r="2.1"/>
			</g>
		</g>
		<path fill="#FFFFFF" d="M96.9,104.9c-0.9,0-1.6,0.7-1.6,1.5v6.5c0,0.8-0.7,1.5-1.6,1.5H36.3c-0.9,0-1.6-0.7-1.6-1.5v-6.5
			c0-0.9-0.7-1.5-1.6-1.5c-0.9,0-1.6,0.7-1.6,1.5v6.5c0,2.6,2.2,4.6,4.8,4.6h57.4c2.6,0,4.8-2.1,4.8-4.6v-6.5
			C98.5,105.6,97.8,104.9,96.9,104.9z"/>
	</g>
</g>
</svg>
