<?xml version="1.0" encoding="utf-8"?>
<!-- Generator: Adobe Illustrator 18.1.1, SVG Export Plug-In . SVG Version: 6.00 Build 0)  -->
<svg version="1.0" id="Layer_1" xmlns="http://www.w3.org/2000/svg" xmlns:xlink="http://www.w3.org/1999/xlink" x="0px" y="0px"
	 viewBox="0 0 130 130" enable-background="new 0 0 130 130" xml:space="preserve">
<g>
	<path fill="#FBAE23" d="M115.8,58.1H14.2c-4,0-7.2,2.6-7.2,5.9l7.3,59c0,3.2,3.3,5.9,7.2,5.9h86c4,0,7.2-2.6,7.2-5.9l8.3-59
		C123.1,60.8,119.8,58.1,115.8,58.1z M32,121.6L32,121.6c-2.9,0.4-5.7-1.3-6.1-3.6L21.4,80c-0.4-2.4,1.6-4.6,4.5-5l0,0
		c2.9-0.4,5.7,1.3,6.1,3.6l4.5,37.9C37,119,35,121.2,32,121.6z M48,121.8L48,121.8c-2.9,0.1-5.5-1.7-5.6-4.1l-1.5-38.2
		c-0.2-2.4,2.1-4.4,5.1-4.6l0,0c2.9-0.1,5.5,1.7,5.6,4.1l1.5,38.2C53.3,119.6,51,121.6,48,121.8z M70.4,117.4c0,2.4-2.4,4.3-5.4,4.3
		h0c-3,0-5.4-2-5.4-4.3V79.2c0-2.4,2.4-4.3,5.4-4.3h0c3,0,5.4,2,5.4,4.3V117.4z M89.1,79.5l-1.5,38.2c-0.2,2.4-2.7,4.2-5.6,4.1h0
		c-2.9-0.1-5.2-2.2-5.1-4.6L78.4,79c0.2-2.4,2.7-4.2,5.6-4.1h0C87,75.1,89.3,77.1,89.1,79.5z M108.6,80l-4.5,37.9
		c-0.4,2.4-3.2,4-6.1,3.6l0,0c-2.9-0.4-4.9-2.6-4.5-5l4.5-37.9c0.4-2.4,3.2-4,6.1-3.6l0,0C107,75.5,109,77.7,108.6,80z"/>
	<g>
		<path d="M26.4,55.4L26.4,55.4c-1-1-1-2.8,0-3.8L63.1,1.9c1-1,2.8-1,3.8,0v0c1,1,1,2.8,0,3.8L30.2,55.4
			C29.2,56.4,27.5,56.4,26.4,55.4z"/>
		<path d="M103.6,55.4L103.6,55.4c-1,1-2.8,1-3.8,0L63.1,5.7c-1-1-1-2.8,0-3.8l0,0c1-1,2.8-1,3.8,0l36.7,49.7
			C104.6,52.6,104.6,54.3,103.6,55.4z"/>
	</g>
	<path fill="#FEC76E" d="M127,51.4h-22.8l0.3,0.3c1,1,1,2.7,0,3.8l-0.9,0.9c-0.5,0.5-1.2,0.8-1.9,0.8c-0.7,0-1.4-0.3-1.9-0.8
		l-4.9-4.9H35.1l-4.9,4.9c-0.5,0.5-1.2,0.8-1.9,0.8c-0.7,0-1.4-0.3-1.9-0.8l-0.9-0.9c-0.5-0.5-0.8-1.2-0.8-1.9s0.3-1.4,0.8-1.9
		l0.3-0.3H3c-1.1,0-2,0.9-2,2v9.4c0,1.1,0.9,2,2,2H127c1.1,0,2-0.9,2-2v-9.4C129,52.3,128.1,51.4,127,51.4z"/>
</g>
</svg>
