<?xml version="1.0" encoding="utf-8"?>
<!-- Generator: Adobe Illustrator 18.1.1, SVG Export Plug-In . SVG Version: 6.00 Build 0)  -->
<svg version="1.1" id="Layer_1" xmlns="http://www.w3.org/2000/svg" xmlns:xlink="http://www.w3.org/1999/xlink" x="0px" y="0px"
	 viewBox="0 0 130 130" enable-background="new 0 0 130 130" xml:space="preserve">
<g>
	<g>
		<g>
			<g>
				<g>
					<g>
						<g>
							<g>
								<g>
									<ellipse fill="#EA6C32" cx="65" cy="65" rx="64" ry="63.9"/>
								</g>
							</g>
						</g>
					</g>
				</g>
			</g>
			<path fill="#F17536" d="M115.9,103.7C124.1,93,129,79.6,129,65c0-35.3-28.7-63.9-64-63.9c-14.4,0-27.6,4.7-38.3,12.7
				C56.3,43.9,86.1,73.8,115.9,103.7z"/>
			<path fill="#E2612B" d="M12.7,28.1C5.4,38.5,1,51.3,1,65c0,35.3,28.7,63.9,64,63.9c13.6,0,26.1-4.2,36.5-11.4
				C71.8,87.8,42.2,58.1,12.7,28.1z"/>
		</g>
	</g>
	<g>
		<path fill="#FFFFFF" d="M113.4,35.8c0-1.1-0.9-2-2-2H21.8c-1.1,0-2,0.9-2,2v74.4c11.6,11.6,27.6,18.7,45.2,18.7
			c19.3,0,36.6-8.6,48.4-22.1V35.8z"/>
		<g>
			<g>
				<rect x="26.9" y="41.5" fill="#73B8BC" width="79.7" height="29.1"/>
			</g>
		</g>
		<g>
			<rect x="26.9" y="78.2" fill="#C1C1C0" width="24.6" height="22.6"/>
			<rect x="54.4" y="78.2" fill="#C1C1C0" width="24.6" height="22.6"/>
			<rect x="82" y="78.2" fill="#C1C1C0" width="24.6" height="22.6"/>
			<path fill="#C1C1C0" d="M26.9,116.4c7,5.2,15.1,9,23.9,11h0.7v-22.6H26.9V116.4z"/>
			<path fill="#C1C1C0" d="M54.4,128.1c3.4,0.6,7,0.9,10.6,0.9c4.8,0,9.5-0.5,14-1.6v-22.7H54.4V128.1z"/>
			<path fill="#C1C1C0" d="M82,126.7c9.2-2.5,17.6-7,24.6-13.1v-8.9H82V126.7z"/>
		</g>
	</g>
	<path opacity="0.15" fill="#FFFFFF" d="M109,111.4c1.5-1.5,3-3,4.4-4.6v-71c0-1.1-0.9-2-2-2H30.8C56.9,59.6,83,85.5,109,111.4z"/>
	<path opacity="5.000000e-02" d="M19.8,51v59.2c2.2,2.2,4.6,4.3,7.1,6.1v0c0,0,0,0,0,0c0.9,0.6,1.7,1.2,2.6,1.8
		c0.1,0.1,0.3,0.2,0.4,0.3c0.8,0.5,1.5,1,2.3,1.5c0.2,0.1,0.3,0.2,0.5,0.3c0.8,0.5,1.6,0.9,2.4,1.3c0.1,0.1,0.3,0.2,0.4,0.2
		c0.8,0.4,1.7,0.8,2.5,1.2c0.1,0.1,0.2,0.1,0.4,0.2c0.9,0.4,1.8,0.8,2.7,1.2c0.1,0,0.2,0.1,0.3,0.1c1,0.4,1.9,0.7,2.9,1.1
		c0,0,0.1,0,0.1,0c1,0.3,2,0.7,3.1,1c0,0,0,0,0.1,0c1.1,0.3,2.1,0.6,3.2,0.8c0,0,0,0,0,0h0c1.2,0.3,2.4,0.5,3.7,0.7v0c0,0,0,0,0,0
		c0.7,0.1,1.5,0.2,2.2,0.3c0.2,0,0.5,0.1,0.7,0.1c0.6,0.1,1.3,0.1,1.9,0.2c0.4,0,0.9,0.1,1.3,0.1c0.5,0,1,0.1,1.4,0.1
		c1,0,2,0.1,3,0.1c9.7,0,18.9-2.2,27.1-6C68.1,98.9,44,74.9,19.8,51z"/>
</g>
</svg>
