<?xml version="1.0" encoding="utf-8"?>
<!-- Generator: Adobe Illustrator 18.1.1, SVG Export Plug-In . SVG Version: 6.00 Build 0)  -->
<svg version="1.1" id="Layer_1" xmlns="http://www.w3.org/2000/svg" xmlns:xlink="http://www.w3.org/1999/xlink" x="0px" y="0px"
	 viewBox="0 0 130 130" enable-background="new 0 0 130 130" xml:space="preserve">
<g>
	<g>
		<g>
			<g>
				<g>
					<g>
						<g>
							<g>
								<g>
									<circle fill="#81C2C9" cx="65" cy="65" r="64"/>
									<circle fill="#81C2C9" cx="65" cy="65" r="64"/>
									<path fill="#8DCBCE" d="M115.9,103.8C124.1,93,129,79.6,129,65c0-35.3-28.7-64-64-64C50.6,1,37.4,5.7,26.7,13.7
										C56.3,43.9,86.1,73.9,115.9,103.8z"/>
									<path fill="#73B8BC" d="M12.7,28.1C5.4,38.5,1,51.2,1,65c0,35.3,28.7,64,64,64c13.6,0,26.1-4.2,36.5-11.4
										C71.8,87.9,42.2,58.1,12.7,28.1z"/>
								</g>
							</g>
						</g>
					</g>
				</g>
			</g>
		</g>
	</g>
	<g>
		<path fill="#BA8C5E" d="M118.6,51.2c0-2.2-1.8-4-4-4h-92c-2.2,0-4,1.8-4,4v58C30.4,121.4,46.8,129,65,129
			c21.1,0,39.9-10.3,51.5-26.1L118.6,51.2z"/>
		<path fill="#8FAA3D" d="M28.3,69c2.6,11.9,7.6,19.8,7.9,20.1c0,0,0.1,0.1,0.2,0.1c0.1,0.1,0.2,0.1,0.4,0.1L71.5,87
			c0.4,0,0.7-0.3,0.9-0.8c0.2-0.4,0.1-0.9-0.2-1.1c-0.1-0.1-5.8-9.3-8.9-19c-3-9.6-1.5-21.3-1.5-21.5c0.1-0.5-0.1-1-0.6-1l-33.5-1.9
			c-0.2,0-0.5,0.1-0.7,0.3c-0.2,0.2-0.4,0.5-0.4,0.7C26.5,43.5,25.6,57.2,28.3,69z"/>
		<path fill="#94B83D" d="M44.8,58.9c2.6,11.9,7.6,19.8,7.9,20.1c0,0,0.1,0.1,0.2,0.1c0.1,0.1,0.2,0.1,0.4,0.1L88,76.9
			c0.4,0,0.7-0.3,0.9-0.8c0.2-0.4,0.1-0.9-0.2-1.1c-0.1-0.1-5.8-9.3-8.9-19c-3-9.6-1.5-21.3-1.5-21.5c0.1-0.5-0.1-1-0.6-1l-33.5-1.9
			c-0.2,0-0.5,0.1-0.7,0.3c-0.2,0.2-0.4,0.5-0.4,0.7C43.1,33.3,42.2,47.1,44.8,58.9z"/>
		<path fill="#9AC13D" d="M56.6,51.5c-2.2,12-0.8,21.2-0.6,21.6c0,0.1,0.1,0.1,0.1,0.2c0.1,0.1,0.2,0.2,0.3,0.2L89.3,85
			c0.4,0.1,0.8,0,1.1-0.4c0.3-0.3,0.4-0.8,0.2-1.1c-0.1-0.1-1.7-10.9-0.7-20.9c1-10,7-20.2,7.1-20.3c0.3-0.4,0.3-0.9-0.1-1.2
			L66.8,26.3c-0.2-0.1-0.5-0.1-0.7,0c-0.3,0.1-0.5,0.3-0.7,0.5C65,27.3,58.8,39.6,56.6,51.5z"/>
		<path fill="#9CCB41" d="M75.5,51.5c-2.2,12-0.8,21.2-0.6,21.6c0,0.1,0.1,0.1,0.1,0.2c0.1,0.1,0.2,0.2,0.3,0.2L108.2,85
			c0.4,0.1,0.8,0,1.1-0.4c0.3-0.3,0.4-0.8,0.2-1.1c-0.1-0.1-1.7-10.9-0.7-20.9c1-10,7-20.2,7.1-20.3c0.3-0.4,0.3-0.9-0.1-1.2
			L85.7,26.3c-0.2-0.1-0.5-0.1-0.7,0c-0.3,0.1-0.5,0.3-0.7,0.5C83.9,27.3,77.7,39.6,75.5,51.5z"/>
		<path fill="#F9CA62" d="M112.3,108.1l-1.6-48.8c0-2.2-1.8-4-4-4H44.4v-3.4c0-2.2-1.8-4-4-4H19.8c-2.2,0-4,1.8-4,4v3.4h-2.7
			c-2.2,0-4,1.8-4,4l1.3,39.3C21.8,116.8,42,129,65,129C83.7,129,100.6,120.9,112.3,108.1z"/>
	</g>
	<path opacity="5.000000e-02" fill="#020202" d="M26.6,42.9c0,0.4-0.1,2-0.2,4.3h-3.8c-0.9,0-1.7,0.3-2.3,0.8h-0.5c-2.2,0-4,1.8-4,4
		v3.4h-2.7c-2.2,0-4,1.8-4,4l1.3,39.3c6.8,11,16.9,19.9,28.9,25.1c0,0,0.1,0,0.1,0c1.9,0.8,3.8,1.6,5.8,2.2c0.1,0,0.2,0.1,0.3,0.1
		c1,0.3,1.9,0.6,2.9,0.9c0,0,0,0,0,0c1,0.3,1.9,0.5,2.9,0.7c0.1,0,0.3,0.1,0.4,0.1c1,0.2,1.9,0.4,2.9,0.5c0.2,0,0.3,0,0.5,0.1
		c0.9,0.1,1.8,0.3,2.7,0.4c0.1,0,0.3,0,0.4,0c1,0.1,2,0.2,2.9,0.2c0.2,0,0.4,0,0.7,0c1,0,2,0.1,3,0.1c1.1,0,2.1,0,3.2-0.1
		c0.1,0,0.3,0,0.4,0c1-0.1,2-0.1,3-0.2c0.2,0,0.4,0,0.6-0.1c1-0.1,2-0.2,2.9-0.4c0.2,0,0.3-0.1,0.5-0.1c1-0.2,2-0.3,3-0.6
		c0.1,0,0.2,0,0.3-0.1c0.9-0.2,1.9-0.4,2.8-0.7c0.1,0,0.2-0.1,0.4-0.1c0.9-0.3,1.9-0.5,2.8-0.8c0.2-0.1,0.4-0.1,0.6-0.2
		c0.9-0.3,1.8-0.6,2.6-0.9c0.2-0.1,0.4-0.2,0.6-0.2c0.9-0.3,1.7-0.7,2.6-1.1c0.2-0.1,0.3-0.2,0.5-0.2c0.8-0.4,1.6-0.7,2.4-1.1
		c0.1-0.1,0.3-0.1,0.4-0.2c0.8-0.4,1.6-0.9,2.4-1.3c0.2-0.1,0.4-0.2,0.6-0.4c0.7-0.4,1.5-0.9,2.2-1.4c0.2-0.1,0.5-0.3,0.7-0.4
		c0.4-0.3,0.9-0.6,1.3-0.9C76.6,92.6,51.7,67.7,26.6,42.9z"/>
	<path opacity="0.15" fill="#FFFFFF" d="M116,103.7c0.2-0.2,0.4-0.5,0.6-0.7l2.1-51.8c0-2.2-1.8-4-4-4h-1.3c1.4-2.9,2.5-4.8,2.5-4.9
		c0.3-0.4,0.3-0.9-0.1-1.2L85.7,26.3c-0.2-0.1-0.5-0.1-0.7,0c-0.3,0.1-0.5,0.3-0.7,0.5c-0.2,0.2-1.5,2.8-3.1,6.7l-14.4-7.1
		c-0.2-0.1-0.5-0.1-0.7,0c-0.3,0.1-0.5,0.3-0.7,0.5c-0.1,0.2-1.3,2.5-2.8,6l-18.3-1c-0.1,0-0.3,0-0.5,0.1
		C67.9,55.7,92,79.6,116,103.7z"/>
</g>
</svg>
