<?xml version="1.0" encoding="utf-8"?>
<!-- Generator: Adobe Illustrator 18.1.1, SVG Export Plug-In . SVG Version: 6.00 Build 0)  -->
<svg version="1.1" id="Layer_1" xmlns="http://www.w3.org/2000/svg" xmlns:xlink="http://www.w3.org/1999/xlink" x="0px" y="0px"
	 viewBox="0 0 130 130" enable-background="new 0 0 130 130" xml:space="preserve">
<g>
	<path fill="#FFD76D" d="M127.3,128.8H3.3c-1.1,0-2-0.9-2-2V81.6c0-1.1,0.9-2,2-2h124c1.1,0,2,0.9,2,2v45.3
		C129.3,127.9,128.4,128.8,127.3,128.8z"/>
	<g>
		<polygon fill="#5D2D0F" points="5.1,79.6 9.5,4.3 121.2,4.3 125.5,79.6 		"/>
		<path fill="#F7C961" d="M117.9,7.8l3.9,68.3H8.9l3.9-68.3H117.9 M123.7,0.8H7c-0.5,0-0.9,0.4-0.9,0.9L1.4,83h127.9l-4.7-81.3
			C124.6,1.3,124.2,0.8,123.7,0.8L123.7,0.8z"/>
	</g>
	<g>
		<path fill="#9CCB41" d="M112.8,47.7h-95c-1.3,0-2.4-1-2.4-2.3l-0.9-25.6c0-1.3,1.1-2.3,2.4-2.3h96.9c1.3,0,2.4,1,2.4,2.3
			l-0.9,25.6C115.2,46.6,114.1,47.7,112.8,47.7z"/>
		<path fill="#9CCB41" d="M32.6,21.5H16.8c-1.3,0-2.3-1-2.3-2.3v-3.1c0-1.3,1-2.3,2.3-2.3h15.8c1.3,0,2.3,1,2.3,2.3v3.1
			C34.9,20.5,33.9,21.5,32.6,21.5z"/>
	</g>
	<g>
		<path fill="#FFD76D" d="M112.8,61.6h-95c-1.3,0-2.4-1-2.4-2.3l-0.9-25.6c0-1.3,1.1-2.3,2.4-2.3h96.9c1.3,0,2.4,1,2.4,2.3
			l-0.9,25.6C115.2,60.6,114.1,61.6,112.8,61.6z"/>
		<path fill="#FFD76D" d="M32.6,35.5H16.8c-1.3,0-2.3-1-2.3-2.3v-3.1c0-1.3,1-2.3,2.3-2.3h15.8c1.3,0,2.3,1,2.3,2.3v3.1
			C34.9,34.4,33.9,35.5,32.6,35.5z"/>
	</g>
	<g>
		<path fill="#F04E3C" d="M112.8,75.6h-95c-1.3,0-2.4-1-2.4-2.3l-0.9-25.6c0-1.3,1.1-2.3,2.4-2.3h96.9c1.3,0,2.4,1,2.4,2.3
			l-0.9,25.6C115.2,74.5,114.1,75.6,112.8,75.6z"/>
		<path fill="#F04E3C" d="M32.6,49.4H16.8c-1.3,0-2.3-1-2.3-2.3V44c0-1.3,1-2.3,2.3-2.3h15.8c1.3,0,2.3,1,2.3,2.3v3.1
			C34.9,48.4,33.9,49.4,32.6,49.4z"/>
	</g>
	<g>
		<path fill="#73B8BC" d="M115.6,76.1l0.5-14.5c0-1.3-1.1-2.3-2.4-2.3H16.9c-1.3,0-2.4,1-2.4,2.3l0.5,14.5H115.6z"/>
		<path fill="#73B8BC" d="M32.6,62.9H16.8c-1.3,0-2.3-1-2.3-2.3v-3.1c0-1.3,1-2.3,2.3-2.3h15.8c1.3,0,2.3,1,2.3,2.3v3.1
			C34.9,61.9,33.9,62.9,32.6,62.9z"/>
	</g>
	<g>
		<g>
			<ellipse fill="#FFFFFF" cx="23.5" cy="100" rx="5" ry="5"/>
			<ellipse fill="#CFCECE" cx="23.5" cy="100" rx="2.8" ry="2.8"/>
		</g>
		<g>
			<ellipse fill="#FFFFFF" cx="107.2" cy="100" rx="5" ry="5"/>
			<ellipse fill="#CFCECE" cx="107.2" cy="100" rx="2.8" ry="2.8"/>
		</g>
	</g>
	<path fill="#FFFFFF" d="M107.1,98.3c-1.2,0-2.1,0.9-2.1,2v8.4c0,1.1-0.9,2-2.1,2H27.7c-1.2,0-2.1-0.9-2.1-2v-8.4c0-1.1-0.9-2-2.1-2
		s-2.1,0.9-2.1,2v8.4c0,3.3,2.8,6,6.3,6h75.2c3.5,0,6.3-2.7,6.3-6v-8.4C109.2,99.2,108.3,98.3,107.1,98.3z"/>
</g>
<path opacity="0.15" fill="#FFFFFF" d="M129.3,111.3V81.6c0-0.3-0.1-0.6-0.2-0.8l-4.5-79c0-0.5-0.4-0.9-0.9-0.9h-105
	C55.6,37.6,92.4,74.5,129.3,111.3z"/>
<path opacity="5.000000e-02" d="M5.3,15.8l-3.7,65c-0.1,0.3-0.2,0.5-0.2,0.8v45.3c0,1.1,0.9,2,2,2h115.3
	C80.8,91.2,43.1,53.4,5.3,15.8z"/>
</svg>
