<?xml version="1.0" encoding="utf-8"?>
<!-- Generator: Adobe Illustrator 18.1.1, SVG Export Plug-In . SVG Version: 6.00 Build 0)  -->
<svg version="1.1" id="Layer_1" xmlns="http://www.w3.org/2000/svg" xmlns:xlink="http://www.w3.org/1999/xlink" x="0px" y="0px"
	 viewBox="0 0 130 130" enable-background="new 0 0 130 130" xml:space="preserve">
<g>
	<g>
		<rect x="1" y="1" fill="#2D2D2D" width="8.1" height="127.3"/>
		<rect x="13.8" y="1" fill="#2D2D2D" width="4.1" height="113.3"/>
		<rect x="22.8" y="1" fill="#2D2D2D" width="4.1" height="113.3"/>
		<rect x="31.8" y="1" fill="#2D2D2D" width="8.3" height="113.3"/>
		<rect x="45.1" y="1" fill="#2D2D2D" width="18.4" height="113.3"/>
		<rect x="68.4" y="1" fill="#2D2D2D" width="9.2" height="113.3"/>
		<rect x="82.6" y="1" fill="#2D2D2D" width="9.2" height="113.3"/>
		<rect x="96.8" y="1" fill="#2D2D2D" width="3.5" height="113.3"/>
		<rect x="105.3" y="1" fill="#2D2D2D" width="3.5" height="113.3"/>
		<rect x="113.9" y="1" fill="#2D2D2D" width="15.1" height="127.3"/>
		<g opacity="0.8">
			<rect x="1" y="60.2" fill="#F1592A" width="128" height="6.7"/>
		</g>
		<g>
			<polygon fill="#F1592A" points="117.3,68 125.2,66.7 116.6,62.5 123.7,55.4 115,56.7 116,49.5 110.6,55 106.2,46.4 104.7,56.6 
				96.7,52.7 100.2,59.2 92.4,60.4 101,64.8 93.9,72.1 102.4,70.7 101.3,77.9 106.9,72.2 111.5,80.8 113,70.7 120.8,74.7 			"/>
		</g>
	</g>
	<g>
		<path d="M19.4,124.5c0-2.2,1.1-4.4,3.6-4.4c2.5,0,3.6,2.2,3.6,4.4S25.4,129,23,129C20.5,129,19.4,126.8,19.4,124.5z M24.7,124.5
			c0-1.6-0.5-2.8-1.7-2.8c-1.2,0-1.7,1.2-1.7,2.8c0,1.6,0.5,2.8,1.7,2.8C24.2,127.4,24.7,126.1,24.7,124.5z"/>
		<path d="M30.8,124.5c0-2.2,1.1-4.4,3.6-4.4c2.5,0,3.6,2.2,3.6,4.4s-1.1,4.5-3.6,4.5C31.9,129,30.8,126.8,30.8,124.5z M36.1,124.5
			c0-1.6-0.5-2.8-1.7-2.8c-1.2,0-1.7,1.2-1.7,2.8c0,1.6,0.5,2.8,1.7,2.8C35.6,127.4,36.1,126.1,36.1,124.5z"/>
		<path d="M42.2,124.5c0-2.2,1.1-4.4,3.6-4.4c2.5,0,3.6,2.2,3.6,4.4s-1.1,4.5-3.6,4.5C43.3,129,42.2,126.8,42.2,124.5z M47.5,124.5
			c0-1.6-0.5-2.8-1.7-2.8c-1.2,0-1.7,1.2-1.7,2.8c0,1.6,0.5,2.8,1.7,2.8C47,127.4,47.5,126.1,47.5,124.5z"/>
		<path d="M53.6,124.5c0-2.2,1.1-4.4,3.6-4.4c2.5,0,3.6,2.2,3.6,4.4s-1.1,4.5-3.6,4.5C54.7,129,53.6,126.8,53.6,124.5z M58.9,124.5
			c0-1.6-0.5-2.8-1.7-2.8c-1.2,0-1.7,1.2-1.7,2.8c0,1.6,0.5,2.8,1.7,2.8C58.4,127.4,58.9,126.1,58.9,124.5z"/>
		<path d="M67.2,128.8v-6.3l-1.4,1.5l-1.1-1.1l2.7-2.7H69v8.6H67.2z"/>
		<path d="M73.8,128.8v-1.4c3.5-2.6,4.6-3.5,4.6-4.6c0-0.8-0.7-1.1-1.4-1.1c-1,0-1.7,0.4-2.3,1l-1.1-1.2c0.8-1,2.1-1.4,3.3-1.4
			c1.9,0,3.3,1,3.3,2.8c0,1.5-1.2,2.8-3.5,4.4h3.5v1.6H73.8z"/>
		<path d="M84.6,127.6l1-1.2c0.6,0.6,1.5,1,2.4,1c1.1,0,1.6-0.5,1.6-1.1c0-0.7-0.5-1-1.7-1c-0.4,0-0.9,0-1.1,0v-1.7
			c0.2,0,0.8,0,1.1,0c1,0,1.6-0.3,1.6-0.9c0-0.7-0.7-1-1.6-1c-0.8,0-1.6,0.3-2.2,0.9l-0.9-1.2c0.7-0.8,1.8-1.4,3.3-1.4
			c2,0,3.3,0.9,3.3,2.3c0,1.1-0.9,1.8-1.9,2c0.9,0.1,2,0.8,2,2.1c0,1.5-1.3,2.5-3.4,2.5C86.4,129,85.2,128.4,84.6,127.6z"/>
		<path d="M99.8,128.8v-1.8h-4.1v-1.4l3.4-5.4h2.5v5.2h1.1v1.6h-1.1v1.8H99.8z M99.8,121.8l-2.3,3.6h2.3V121.8z"/>
	</g>
</g>
<g>
	<path opacity="0.2" fill="#FFFFFF" d="M40.1,29.6V1h-8.3v20.3C34.5,24.1,37.3,26.8,40.1,29.6z"/>
	<path opacity="0.2" fill="#FFFFFF" d="M26.8,16.4V1h-4.1v11.3C24.1,13.6,25.5,15,26.8,16.4z"/>
	<path opacity="0.2" fill="#FFFFFF" d="M46.6,36.2c5.6,5.6,11.2,11.2,16.8,16.8V1H45.1v33.6C45.6,35.1,46.1,35.7,46.6,36.2z"/>
	<path opacity="0.1" d="M82.6,100.5v13.8h9.2v-4.6C88.8,106.7,85.7,103.6,82.6,100.5z"/>
	<path opacity="0.2" fill="#FFFFFF" d="M77.6,67.2v-0.3h5v5.3c3.1,3.1,6.1,6.1,9.2,9.2V66.9h5v2.2l-2.9,3l2.9-0.5v14.8
		c1.2,1.2,2.3,2.3,3.5,3.5V71l2.1-0.4l-1.1,7.2l4-4v21c1.2,1.2,2.3,2.3,3.5,3.5V75.6l2.7,5.2l1.5-10.1l1,0.5v32.4
		c5,5,10,10.1,15.1,15.1V1h-15.1v50.6l-3.4,3.4l-1.9-3.6V1h-3.5v51.8l-0.6,3.8l-4.4-2.2V1h-3.5v51.7l-0.1-0.1l0.1,0.2v6.8L94,60.2
		h-2.2V1h-9.2v59.2h-5V1h-9.2v57C71.5,61.1,74.6,64.1,77.6,67.2z"/>
	<path opacity="0.2" fill="#FFFFFF" d="M17.8,7.4V1h-4.1v2.3C15.1,4.6,16.5,6,17.8,7.4z"/>
	<path opacity="0.1" d="M68.4,86.3v28h9.2V95.5C74.6,92.5,71.5,89.4,68.4,86.3z"/>
	<path opacity="0.1" d="M42.3,60.2h-2.3v-2.3c-2.8-2.8-5.5-5.6-8.3-8.3v10.6h-4.9V44.6c-1.4-1.4-2.7-2.7-4.1-4.1v19.6h-4.9V35.6
		c-1.4-1.4-2.7-2.7-4.1-4.1v28.6H9.1V26.9c-2.7-2.7-5.4-5.4-8.1-8.1v109.5h8.1V66.9h4.6v47.4h4.1V66.9h4.9v47.4h4.1V66.9h4.9v47.4
		h8.3V66.9h5v47.4h18.4v-33C56.4,74.3,49.4,67.2,42.3,60.2z"/>
	<g opacity="0.1">
		<path d="M19.4,124.5c0-2.2,1.1-4.4,3.6-4.4c2.5,0,3.6,2.2,3.6,4.4S25.4,129,23,129C20.5,129,19.4,126.8,19.4,124.5z M24.7,124.5
			c0-1.6-0.5-2.8-1.7-2.8c-1.2,0-1.7,1.2-1.7,2.8c0,1.6,0.5,2.8,1.7,2.8C24.2,127.4,24.7,126.1,24.7,124.5z"/>
		<path d="M30.8,124.5c0-2.2,1.1-4.4,3.6-4.4c2.5,0,3.6,2.2,3.6,4.4s-1.1,4.5-3.6,4.5C31.9,129,30.8,126.8,30.8,124.5z M36.1,124.5
			c0-1.6-0.5-2.8-1.7-2.8c-1.2,0-1.7,1.2-1.7,2.8c0,1.6,0.5,2.8,1.7,2.8C35.6,127.4,36.1,126.1,36.1,124.5z"/>
		<path d="M42.2,124.5c0-2.2,1.1-4.4,3.6-4.4c2.5,0,3.6,2.2,3.6,4.4s-1.1,4.5-3.6,4.5C43.3,129,42.2,126.8,42.2,124.5z M47.5,124.5
			c0-1.6-0.5-2.8-1.7-2.8c-1.2,0-1.7,1.2-1.7,2.8c0,1.6,0.5,2.8,1.7,2.8C47,127.4,47.5,126.1,47.5,124.5z"/>
		<path d="M53.6,124.5c0-2.2,1.1-4.4,3.6-4.4c2.5,0,3.6,2.2,3.6,4.4s-1.1,4.5-3.6,4.5C54.7,129,53.6,126.8,53.6,124.5z M58.9,124.5
			c0-1.6-0.5-2.8-1.7-2.8c-1.2,0-1.7,1.2-1.7,2.8c0,1.6,0.5,2.8,1.7,2.8C58.4,127.4,58.9,126.1,58.9,124.5z"/>
		<path d="M67.2,128.8v-6.3l-1.4,1.5l-1.1-1.1l2.7-2.7H69v8.6H67.2z"/>
		<path d="M73.8,128.8v-1.4c3.5-2.6,4.6-3.5,4.6-4.6c0-0.8-0.7-1.1-1.4-1.1c-1,0-1.7,0.4-2.3,1l-1.1-1.2c0.8-1,2.1-1.4,3.3-1.4
			c1.9,0,3.3,1,3.3,2.8c0,1.5-1.2,2.8-3.5,4.4h3.5v1.6H73.8z"/>
		<path d="M84.6,127.6l1-1.2c0.6,0.6,1.5,1,2.4,1c1.1,0,1.6-0.5,1.6-1.1c0-0.7-0.5-1-1.7-1c-0.4,0-0.9,0-1.1,0v-1.7
			c0.2,0,0.8,0,1.1,0c1,0,1.6-0.3,1.6-0.9c0-0.7-0.7-1-1.6-1c-0.8,0-1.6,0.3-2.2,0.9l-0.9-1.2c0.7-0.8,1.8-1.4,3.3-1.4
			c2,0,3.3,0.9,3.3,2.3c0,1.1-0.9,1.8-1.9,2c0.9,0.1,2,0.8,2,2.1c0,1.5-1.3,2.5-3.4,2.5C86.4,129,85.2,128.4,84.6,127.6z"/>
		<path d="M99.8,128.8v-1.8h-4.1v-1.4l3.4-5.4h2.5v5.2h1.1v1.6h-1.1v1.8H99.8z M99.8,121.8l-2.3,3.6h2.3V121.8z"/>
	</g>
</g>
</svg>
