<?xml version="1.0" encoding="utf-8"?>
<!-- Generator: Adobe Illustrator 22.1.0, SVG Export Plug-In . SVG Version: 6.00 Build 0)  -->
<svg version="1.1" id="Layer_1" xmlns="http://www.w3.org/2000/svg" xmlns:xlink="http://www.w3.org/1999/xlink" x="0px" y="0px"
	 viewBox="0 0 32 32" style="enable-background:new 0 0 32 32;" xml:space="preserve">
<style type="text/css">
	.st0{fill:#606060;}
</style>
<title>Group 3</title>
<desc>Created with Sketch.</desc>
<g id="shoppingCart">
	<g id="Desktop---Layout-Specs">
		<g id="Navigation" transform="translate(-1288.000000, -77.000000)">
			<g id="Group-3" transform="translate(1290.000000, 79.000000)">
				<g id="Group-4">
					<g id="Oval-2">
						<circle class="st0" cx="11.2" cy="25.3" r="2"/>
					</g>
					<g id="Oval-2_1_">
						<circle class="st0" cx="20.9" cy="25.3" r="2"/>
					</g>
				</g>
			</g>
		</g>
	</g>
	<path class="st0" d="M29.9,7.2L29.3,7l-1.1-0.4c-0.5-0.2-1,0.1-1.1,0.5l-0.1,0.5c0,0.1-0.1,0.1-0.1,0.1L22.4,20
		c-0.2,0.5-0.6,0.8-1.1,0.8h-6.7c-0.5,0-1-0.3-1.1-0.8L8.9,6.3L8,3.5C7.8,3,7.4,2.7,6.9,2.7H2.4C2,2.7,1.5,3.1,1.5,3.6v0.8v1
		c0,0.5,0.4,0.9,0.9,0.9h1.8c0.5,0,1,0.4,1.1,0.8l5.4,16.1c0.2,0.5,0.6,0.8,1.1,0.8h9.2h2.9c0.5,0,1-0.3,1.1-0.8L30.3,9l0.2-0.6
		C30.6,7.9,30.4,7.4,29.9,7.2z"/>
</g>
</svg>
