<?xml version="1.0" encoding="utf-8"?>
<!-- Generator: Adobe Illustrator 23.0.1, SVG Export Plug-In . SVG Version: 6.00 Build 0)  -->
<svg version="1.1" id="Layer_1" xmlns="http://www.w3.org/2000/svg" xmlns:xlink="http://www.w3.org/1999/xlink" x="0px" y="0px"
	 viewBox="0 0 400 400" style="enable-background:new 0 0 400 400;" xml:space="preserve">
<style type="text/css">
	.st0{fill:#999999;}
</style>
<path class="st0" d="M200,0C89.54,0,0,89.54,0,200s89.54,200,200,200c110.46,0,200-89.54,200-200S310.46,0,200,0z M315.24,340.53
	l-3.97-1.75c-3.18-1.41-6.46-2.59-9.8-3.55l-40.06-11.45c-1.73-0.49-3.38-1.22-4.91-2.16l-2.16-1.33c-3.08-1.89-5.59-4.59-7.25-7.8
	c-1.45-2.81-2.2-5.92-2.2-9.08v-31.03l4.51-4.33c2.05-1.97,3.26-4.66,3.38-7.5c0.27-6.28,1.64-12.47,4.04-18.27l4.95-11.95
	l11.55-31.75l4.03-4.19c1.44-1.5,2.54-3.28,3.24-5.24c0.96-2.7,1.1-5.62,0.4-8.4l-0.61-2.42c-0.56-2.23-1.63-4.29-3.14-6.03
	l-3.63-4.18l2.72-29.94c0.16-1.76,0.23-3.52,0.21-5.28l-0.19-19.44c-0.05-5.58-0.99-11.11-2.78-16.4l-0.68-2
	c-1.88-5.55-4.68-10.76-8.27-15.39c-3.85-4.97-8.56-9.21-13.91-12.52l-2.36-1.46c-5.43-3.36-11.43-5.71-17.7-6.93l-5.38-1.04
	c-3.31-0.64-6.67-0.96-10.04-0.96h-26.79c-5.19,0-10.36,0.76-15.33,2.26l-7.2,2.17c-4.6,1.39-8.98,3.39-13.04,5.95l-2.8,1.77
	c-5.27,3.33-9.91,7.56-13.72,12.49c-5.36,6.96-8.92,15.14-10.34,23.81l-0.68,4.13c-0.47,2.85-0.7,5.73-0.7,8.62v17.26
	c0,3.17,0.28,6.34,0.85,9.46l4.19,23.15l-3.16,3.46c-2.01,2.2-3.44,4.87-4.16,7.76l-0.08,0.31c-0.59,2.36-0.69,4.82-0.31,7.22
	c0.58,3.61,2.25,6.95,4.78,9.59l3.22,3.36l9.2,25.6c0.18,0.51,0.38,1.01,0.6,1.5l7.24,16.43c2.24,5.09,3.47,10.56,3.61,16.12
	c0.05,2.02,0.82,3.96,2.17,5.47l5.61,6.25l0.28,31.16c0.01,1.14-0.08,2.29-0.28,3.41l-0.39,2.19c-0.71,4.01-2.71,7.68-5.7,10.45v0
	c-2.23,2.06-4.92,3.55-7.85,4.33l-45.89,12.3c-1.69,0.45-3.35,1.06-4.93,1.81l-8.39,3.95l9.76,7.85
	C48.56,315.39,18.18,261.18,18.18,200C18.18,99.75,99.75,18.18,200,18.18S381.82,99.75,381.82,200
	C381.82,256.55,355.86,307.15,315.24,340.53z"/>
</svg>
