<?xml version="1.0" encoding="iso-8859-1"?>
<!-- Generator: Adobe Illustrator 18.0.0, SVG Export Plug-In . SVG Version: 6.00 Build 0)  -->
<!DOCTYPE svg PUBLIC "-//W3C//DTD SVG 1.1//EN" "http://www.w3.org/Graphics/SVG/1.1/DTD/svg11.dtd">
<svg version="1.1" id="Layer_1" xmlns="http://www.w3.org/2000/svg" xmlns:xlink="http://www.w3.org/1999/xlink" x="0px" y="0px"
	 viewBox="0 0 127.954 127.951" style="enable-background:new 0 0 127.954 127.951;" xml:space="preserve">
<g>
	<g>
		<circle style="fill:#18B797;" cx="63.954" cy="64" r="64"/>
		<g>
			<g>
				<g>
					<path d="M78.529,24.434c0-8.037-6.539-14.576-14.576-14.576s-14.576,6.539-14.576,14.576c0,5.939,3.572,11.055,8.678,13.324
						c-0.109-0.454-0.172-0.926-0.172-1.413c0-2.028,0.999-3.819,2.527-4.922c-2.549-1.297-4.302-3.94-4.302-6.99
						c0-4.326,3.519-7.845,7.845-7.845s7.845,3.519,7.845,7.845c0,3.05-1.754,5.693-4.302,6.99c1.528,1.102,2.527,2.893,2.527,4.922
						c0,0.487-0.064,0.959-0.172,1.413C74.958,35.49,78.529,30.373,78.529,24.434z"/>
				</g>
				<circle cx="63.954" cy="36.59" r="5.421"/>
				<g>
					<path style="fill:#FFFFFF;" d="M63.954,43.371c-27.213,0-49.353,22.139-49.353,49.352c0,5.059,0.773,9.939,2.195,14.537
						C28.495,120.006,45.289,128,63.954,128c18.665,0,35.458-7.994,47.157-20.74c1.422-4.597,2.195-9.477,2.195-14.537
						C113.306,65.51,91.167,43.371,63.954,43.371z"/>
					<path d="M120.036,92.723c0-30.973-25.109-56.082-56.082-56.082C32.98,36.64,7.871,61.75,7.871,92.723
						c0,0.75,0.037,1.491,0.066,2.234c5.207,9.401,12.713,17.345,21.757,23.09c-5.251-7.085-8.364-15.847-8.364-25.324
						c0-23.502,19.121-42.622,42.623-42.622c23.502,0,42.623,19.12,42.623,42.622c0,9.477-3.112,18.239-8.364,25.324
						c9.044-5.745,16.551-13.688,21.757-23.09C120,94.214,120.036,93.473,120.036,92.723z"/>
				</g>
				<path d="M85.269,71.408c0,0-25.126,7.496-30.13,12.5c-3.812,3.812-12.5,30.13-12.5,30.13s25.221-7.59,30.13-12.5
					C77.679,96.628,85.269,71.408,85.269,71.408z M60.385,96.292c-1.971-1.971-1.971-5.167,0-7.138c1.971-1.971,5.167-1.971,7.138,0
					c1.971,1.971,1.971,5.167,0,7.138C65.552,98.263,62.356,98.263,60.385,96.292z"/>
				<g style="opacity:0.05;">
					<path d="M78.529,24.434c0-8.037-6.539-14.576-14.576-14.576s-14.576,6.539-14.576,14.576c0,5.939,3.572,11.055,8.678,13.324
						c-0.109-0.454-0.172-0.926-0.172-1.413c0-2.028,0.999-3.819,2.527-4.922c-2.549-1.297-4.302-3.94-4.302-6.99
						c0-4.326,3.519-7.845,7.845-7.845s7.845,3.519,7.845,7.845c0,3.05-1.754,5.693-4.302,6.99c1.528,1.102,2.527,2.893,2.527,4.922
						c0,0.487-0.064,0.959-0.172,1.413C74.958,35.49,78.529,30.373,78.529,24.434z"/>
				</g>
				<circle style="opacity:0.05;" cx="63.954" cy="36.59" r="5.421"/>
				<path style="fill:#DA2E27;" d="M85.269,71.408c0,0-25.126,7.496-30.13,12.5c-3.812,3.812-12.5,30.13-12.5,30.13
					s25.221-7.59,30.13-12.5C77.679,96.628,85.269,71.408,85.269,71.408z M60.385,96.292c-1.971-1.971-1.971-5.167,0-7.138
					c1.971-1.971,5.167-1.971,7.138,0c1.971,1.971,1.971,5.167,0,7.138C65.552,98.263,62.356,98.263,60.385,96.292z"/>
			</g>
		</g>
		<path style="opacity:0.1;fill:#FFFFFF;" d="M114.869,102.763c8.204-10.759,13.084-24.189,13.084-38.763c0-35.346-28.654-64-64-64
			c-14.372,0-27.638,4.738-38.32,12.737C55.243,42.88,85.02,72.857,114.869,102.763z"/>
		<path style="opacity:0.05;" d="M11.691,27.082C4.307,37.516-0.046,50.246-0.046,64c0,35.346,28.654,64,64,64
			c13.552,0,26.112-4.224,36.459-11.411C70.736,86.855,41.131,57.05,11.691,27.082z"/>
	</g>
</g>
</svg>
