<?xml version="1.0" encoding="utf-8"?>
<!-- Generator: Adobe Illustrator 18.0.0, SVG Export Plug-In . SVG Version: 6.00 Build 0)  -->
<!DOCTYPE svg PUBLIC "-//W3C//DTD SVG 1.1//EN" "http://www.w3.org/Graphics/SVG/1.1/DTD/svg11.dtd">
<svg version="1.1" id="Layer_1" xmlns="http://www.w3.org/2000/svg" xmlns:xlink="http://www.w3.org/1999/xlink" x="0px" y="0px"
	 viewBox="0 0 300 300" enable-background="new 0 0 300 300" xml:space="preserve">
<g>
	<path fill="#E36DAA" d="M33.2,111.2c3.9,0.9,7.8,1.8,11.8,3C41.1,113.1,37.2,112.2,33.2,111.2z"/>
	<g>
		<g>
			<g>
				<g>
					<g>
						<ellipse fill="#81C2C9" cx="150" cy="149.8" rx="147.7" ry="147.5"/>
						<path fill="#8DCBCE" d="M267.5,239.3c18.9-24.7,30.2-55.8,30.2-89.3C297.7,68.3,231.5,2.3,150,2.3
							c-33.2,0-63.7,10.8-88.4,29.3C129.9,101.1,198.7,170.3,267.5,239.3z"/>
						<path fill="#73B8BC" d="M29.3,64.8c-16.8,24-27,53.3-27,84.9c0,81.5,66.2,147.5,147.7,147.5c31.4,0,60.2-9.7,84.2-26.3
							C165.7,202.6,97.4,133.8,29.3,64.8z"/>
					</g>
				</g>
			</g>
		</g>
	</g>
	<g>
		<g>
			<path fill="#CFCECE" d="M119.1,63.2v146.3c25.8,32.3,65.8,53.1,110.3,53.1c5.8,0,11.5-0.5,17.1-1.2c31.4-27,51.2-66.9,51.2-111.7
				c0-34.4-11.8-66-31.6-91.2H123.5C120.9,58.6,119.1,60.7,119.1,63.2z"/>
			<path fill="#FFFFFF" d="M119.1,209.5c25.8,32.3,65.8,53.1,110.3,53.1c5.8,0,11.5-0.5,17.1-1.2c31.4-27,51.2-66.9,51.2-111.7
				c0-28.6-8.1-55.4-22.2-78H119.1V209.5z"/>
			<g>
				<circle fill="#F04E3C" cx="126" cy="65.8" r="2.5"/>
			</g>
			<g>
				<circle fill="#ECB34B" cx="132.7" cy="65.8" r="2.5"/>
			</g>
			<g>
				<circle fill="#518E40" cx="139.2" cy="65.8" r="2.5"/>
			</g>
		</g>
		<path fill="#F04D3B" d="M255.2,245.5c4.8-2.8,9.7-5.5,14.1-8.8c17.8-24.5,28.4-54.5,28.4-87c0-16.6-2.8-32.8-7.8-47.8H167.1
			C196.8,137.3,225.7,202.6,255.2,245.5z"/>
	</g>
	<g>
		<path opacity="0.1" enable-background="new    " d="M286.2,207V100.4c0-3.9-3-6.9-6.9-6.9h-25.8c-3.7,0-6.9,3-6.9,6.9V240
			c0,3.7,3.2,6.9,6.9,6.9h7.8C271.4,235.2,279.9,221.8,286.2,207z"/>
		<g>
			<path fill="#D8D8D8" d="M285,209.8V97.8c0-2.5-2.1-4.4-4.4-4.4H68.8c-2.5,0-4.4,2.1-4.4,4.4v146.3c23.5,29.5,58.8,49.4,98.8,52.6
				C217.6,291.9,263.8,257.5,285,209.8z"/>
			<path fill="#FFFFFF" d="M285,209.8V106.8H64.4v137.5c23.5,29.5,58.8,49.4,98.8,52.6C217.6,291.9,263.8,257.5,285,209.8z"/>
			<g>
				<circle fill="#F04E3C" cx="71.3" cy="100.6" r="2.5"/>
			</g>
			<g>
				<circle fill="#ECB34B" cx="78" cy="100.6" r="2.5"/>
			</g>
			<g>
				<circle fill="#518E40" cx="84.5" cy="100.6" r="2.5"/>
			</g>
		</g>
		<g>
			<path fill="#ECB34B" d="M256.8,251.5c2.8-3,5.5-6,8.1-9.2V136.2H74.1v36.9c23.3,51,74.8,86.5,134.5,86.5
				C225.5,259.8,241.8,256.8,256.8,251.5z"/>
			<path fill="#F9CA62" d="M264.9,242.5V136.2H92.3l104.8,123.2c3.9,0.2,7.8,0.5,11.8,0.5c16.8,0,33.2-2.8,48.2-8.1
				C259.6,248.8,262.4,245.5,264.9,242.5z"/>
			<path fill="#60AB45" d="M220.6,279.5c17.1-9.2,32.3-21.9,44.3-37.2V136.2H132.2C162.2,171.2,190.8,236.5,220.6,279.5z"/>
			<path opacity="0.6" fill="#FFFFFF" enable-background="new    " d="M81,186.5c10.6,18,24.9,33.7,42,45.9v-89.3H81V186.5z"/>
			<path opacity="0.6" fill="#FFFFFF" enable-background="new    " d="M257.8,250.6l-1.2-45.2H132.2v33.2
				c15.2,9.2,32.1,38.1,50.3,55.2C211.8,287.1,237.9,271.8,257.8,250.6z"/>
			<g>
				<g>
					<rect x="86.1" y="149.1" fill="#ECB34B" width="32.8" height="2.8"/>
				</g>
				<g>
					<rect x="86.1" y="157.4" fill="#FFFFFF" width="32.8" height="2.8"/>
				</g>
				<g>
					<rect x="86.1" y="165.5" fill="#FFFFFF" width="32.8" height="2.8"/>
				</g>
				<g>
					<rect x="86.1" y="173.8" fill="#FFFFFF" width="32.8" height="2.8"/>
				</g>
				<g>
					<rect x="86.1" y="182.1" fill="#FFFFFF" width="32.8" height="2.8"/>
				</g>
				<g>
					<rect x="86.1" y="190.4" fill="#FFFFFF" width="32.8" height="2.8"/>
				</g>
			</g>
			<g>
				<rect x="132.2" y="210.9" fill="#ECB34B" width="26.8" height="7.2"/>
			</g>
			<g>
				<g>
					<rect x="141" y="223.8" fill="#FFFFFF" width="31.4" height="6.2"/>
				</g>
				<g>
					<rect x="141" y="234" fill="#FFFFFF" width="31.4" height="6.2"/>
				</g>
				<path fill="#FFFFFF" d="M157.2,250.4h15.2v-6.2h-29.8C147.5,246.5,152.1,248.5,157.2,250.4z"/>
				<g>
					<rect x="178.6" y="223.8" fill="#FFFFFF" width="31.4" height="6.2"/>
				</g>
				<g>
					<rect x="178.6" y="234" fill="#FFFFFF" width="31.4" height="6.2"/>
				</g>
				<g>
					<rect x="178.6" y="244.2" fill="#FFFFFF" width="31.4" height="6.2"/>
				</g>
				<g>
					<rect x="216.5" y="223.8" fill="#FFFFFF" width="31.4" height="6.2"/>
				</g>
				<g>
					<rect x="216.5" y="234" fill="#FFFFFF" width="31.4" height="6.2"/>
				</g>
				<g>
					<rect x="216.5" y="244.2" fill="#FFFFFF" width="31.4" height="6.2"/>
				</g>
			</g>
			<rect x="132.2" y="143.1" opacity="0.6" fill="#FFFFFF" enable-background="new    " width="124.2" height="54.7"/>
			<g>
				<rect x="132.2" y="149.1" fill="#ECB34B" width="26.8" height="7.2"/>
			</g>
			<g>
				<g>
					<rect x="141" y="162.2" fill="#FFFFFF" width="31.4" height="6.2"/>
				</g>
				<g>
					<rect x="141" y="172.6" fill="#FFFFFF" width="31.4" height="6.2"/>
				</g>
				<g>
					<rect x="141" y="182.8" fill="#FFFFFF" width="31.4" height="6.2"/>
				</g>
				<g>
					<rect x="178.6" y="162.2" fill="#FFFFFF" width="31.4" height="6.2"/>
				</g>
				<g>
					<rect x="178.6" y="172.6" fill="#FFFFFF" width="31.4" height="6.2"/>
				</g>
				<g>
					<rect x="178.6" y="182.8" fill="#FFFFFF" width="31.4" height="6.2"/>
				</g>
				<g>
					<rect x="216.5" y="162.2" fill="#FFFFFF" width="31.4" height="6.2"/>
				</g>
				<g>
					<rect x="216.5" y="172.6" fill="#FFFFFF" width="31.4" height="6.2"/>
				</g>
				<g>
					<rect x="216.5" y="182.8" fill="#FFFFFF" width="31.4" height="6.2"/>
				</g>
			</g>
		</g>
	</g>
	<g>
		<path opacity="0.1" enable-background="new    " d="M219.5,131.5h-21.9c-3.9,0-6.9,3-6.9,6.9v153.2c12.7-3.7,24.7-8.8,35.8-15.5
			V138.5C226.4,134.8,223.2,131.5,219.5,131.5z"/>
		<g>
			<g>
				<path fill="#E2E2E2" d="M220.8,131.5H9.2c-2.5,0-4.6,2.1-4.6,4.6v40.2c12.5,69,72.7,121.2,145.4,121.2
					c27.5,0,53.3-7.6,75.2-20.5V136.2C225.2,133.6,223.4,131.5,220.8,131.5z"/>
				<path fill="#FFFFFF" d="M4.6,176.3c12.5,69,72.7,121.2,145.4,121.2c27.5,0,53.3-7.6,75.2-20.5v-132H4.6V176.3z"/>
				<g>
					<circle fill="#F04E3C" cx="11.5" cy="138.7" r="2.5"/>
				</g>
				<g>
					<circle fill="#ECB34B" cx="18.2" cy="138.7" r="2.5"/>
				</g>
				<g>
					<circle fill="#518E40" cx="24.9" cy="138.7" r="2.5"/>
				</g>
			</g>
		</g>
		<g>
			<path fill="#ECB34B" d="M15.5,210.7c23.3,51,74.8,86.5,134.5,86.5c19.8,0,39-3.9,56.3-11.1V173.8H15.5V210.7z"/>
			<path fill="#F9CA62" d="M138.2,297c3.9,0.2,7.8,0.5,11.8,0.5c19.8,0,39-3.9,56.3-11.1V173.8H33.7L138.2,297z"/>
			<path fill="#FFD76D" d="M177.2,294.9c10.2-1.8,19.8-4.8,29.1-8.5V173.8H73.6C108.2,214.2,142.6,254.5,177.2,294.9z"/>
			<path opacity="0.6" fill="#FFFFFF" enable-background="new    " d="M22.4,224.1c10.6,18,24.9,33.7,42,45.9v-89.3h-42V224.1z"/>
			<path opacity="0.6" fill="#FFFFFF" enable-background="new    " d="M73.6,276.2c22.4,13.4,48.5,21.2,76.4,21.2
				c16.8,0,32.8-2.8,48-8.1V243H73.6V276.2z"/>
			<g>
				<rect x="73.6" y="248.5" fill="#ECB34B" width="26.8" height="7.2"/>
			</g>
			<g>
				<g>
					<rect x="82.4" y="261.5" fill="#FFFFFF" width="31.4" height="6.2"/>
				</g>
				<g>
					<rect x="82.4" y="271.6" fill="#FFFFFF" width="31.4" height="6.2"/>
				</g>
				<path fill="#FFFFFF" d="M98.3,288.2h15.2V282H84C88.6,284.3,93.5,286.4,98.3,288.2z"/>
				<g>
					<rect x="120" y="261.5" fill="#FFFFFF" width="31.4" height="6.2"/>
				</g>
				<g>
					<rect x="120" y="271.6" fill="#FFFFFF" width="31.4" height="6.2"/>
				</g>
				<g>
					<rect x="120" y="281.8" fill="#FFFFFF" width="31.4" height="6.2"/>
				</g>
				<g>
					<rect x="157.8" y="261.5" fill="#FFFFFF" width="31.4" height="6.2"/>
				</g>
				<g>
					<rect x="157.8" y="271.6" fill="#FFFFFF" width="31.4" height="6.2"/>
				</g>
				<g>
					<rect x="157.8" y="281.8" fill="#FFFFFF" width="31.4" height="6.2"/>
				</g>
			</g>
			<rect x="73.6" y="180.7" opacity="0.6" fill="#FFFFFF" enable-background="new    " width="124.2" height="54.7"/>
			<g>
				<rect x="73.6" y="186.7" fill="#ECB34B" width="26.8" height="7.2"/>
			</g>
			<g>
				<g>
					<rect x="82.4" y="200.1" fill="#FFFFFF" width="31.4" height="6.2"/>
				</g>
				<g>
					<rect x="82.4" y="210.2" fill="#FFFFFF" width="31.4" height="6.2"/>
				</g>
				<g>
					<rect x="82.4" y="220.4" fill="#FFFFFF" width="31.4" height="6.2"/>
				</g>
				<g>
					<rect x="120" y="200.1" fill="#FFFFFF" width="31.4" height="6.2"/>
				</g>
				<g>
					<rect x="120" y="210.2" fill="#FFFFFF" width="31.4" height="6.2"/>
				</g>
				<g>
					<rect x="120" y="220.4" fill="#FFFFFF" width="31.4" height="6.2"/>
				</g>
				<g>
					<rect x="157.8" y="200.1" fill="#FFFFFF" width="31.4" height="6.2"/>
				</g>
				<g>
					<rect x="157.8" y="210.2" fill="#FFFFFF" width="31.4" height="6.2"/>
				</g>
				<g>
					<rect x="157.8" y="220.4" fill="#FFFFFF" width="31.4" height="6.2"/>
				</g>
			</g>
			<g>
				<g>
					<rect x="28.6" y="198" fill="#FFFFFF" width="31.4" height="6.2"/>
				</g>
				<g>
					<rect x="28.6" y="186.7" fill="#ECB34B" width="31.4" height="6.2"/>
				</g>
				<g>
					<rect x="28.6" y="209.1" fill="#FFFFFF" width="31.4" height="6.2"/>
				</g>
				<g>
					<rect x="28.6" y="220.4" fill="#FFFFFF" width="31.4" height="6.2"/>
				</g>
			</g>
		</g>
	</g>
</g>
<rect x="15.5" y="155.3" fill="#8CCACD" width="82.6" height="7.9"/>
<g>
	<g>
		<polygon fill="#DEDCDC" points="25.4,161.3 26.8,163.6 28.1,161.2 27.3,159.3 		"/>
		<polygon fill="#FFFFFF" points="23.2,159 20.8,157.7 23.3,156.3 25.1,157.1 		"/>
	</g>
	<g>
		<path fill="#EF4F3D" d="M24.5,162.1c-0.1,0.5-0.3,1.1-0.7,1.5c-1.2,1.2-3.6,0.6-3.6,0.6s-0.6-2.5,0.6-3.6c0.4-0.4,0.9-0.6,1.5-0.7
			L24.5,162.1z"/>
		<path fill="#F07537" d="M24.3,162c-0.1,0.5-0.2,0.9-0.6,1.2c-1,1-3,0.5-3,0.5s-0.5-2.1,0.5-3c0.3-0.3,0.8-0.5,1.2-0.6L24.3,162z"
			/>
		<path fill="#FAB217" d="M24.2,161.8c-0.1,0.4-0.2,0.8-0.5,1c-0.8,0.8-2.5,0.4-2.5,0.4s-0.4-1.7,0.4-2.5c0.3-0.3,0.6-0.4,1-0.5
			L24.2,161.8z"/>
	</g>
	<g>
		<polygon fill="#DEDCDC" points="22.5,159.8 22.9,159.2 25.2,161.5 24.6,162 		"/>
		<polygon fill="#FFFFFF" points="22.5,159.8 22.9,159.2 24.8,161.1 24.2,161.6 		"/>
	</g>
	<g>
		<path fill="#FFFFFF" d="M22.9,159.2c0.2-1.2,0.6-2.5,1.6-3.5c2.1-2.1,5.8-1.7,5.8-1.7s0.4,3.8-1.7,5.8c-1,1-2.3,1.4-3.4,1.6
			L22.9,159.2z"/>
		<path opacity="0.1" enable-background="new    " d="M23.9,156.6c-0.5,0.7-0.7,1.6-0.9,2.4l-0.2-0.1
			C22.9,158,23.9,156.6,23.9,156.6z"/>
		<path fill="#EF4F3D" d="M26.7,154.5c1.8-0.6,3.6-0.4,3.6-0.4s0.2,1.8-0.4,3.6L26.7,154.5z"/>
		<path opacity="0.1" enable-background="new    " d="M30.3,154.1C30.5,154.1,30.3,154.1,30.3,154.1s0.4,3.8-1.7,5.8
			c-1,1-2.3,1.4-3.4,1.6l-0.4-0.4c1.1-0.2,2.5-0.6,3.4-1.6C29.8,157.9,30.3,155.2,30.3,154.1z"/>
	</g>
	<g>
		<g>
			<path fill="#1097BE" d="M26.8,158.6c-0.3,0-0.5-0.1-0.7-0.3c-0.4-0.4-0.4-1,0-1.4c0.2-0.2,0.4-0.3,0.7-0.3c0.3,0,0.5,0.1,0.7,0.3
				c0.4,0.4,0.4,1,0,1.4C27.3,158.5,27.1,158.6,26.8,158.6z"/>
			<path fill="#E9E9E9" d="M26.8,156.8c0.2,0,0.4,0.1,0.5,0.2c0.3,0.3,0.3,0.8,0,1c-0.1,0.1-0.3,0.2-0.5,0.2s-0.4-0.1-0.5-0.2
				c-0.3-0.3-0.3-0.8,0-1C26.5,156.9,26.6,156.8,26.8,156.8 M26.8,156.4c-0.3,0-0.6,0.1-0.9,0.4c-0.5,0.5-0.5,1.3,0,1.7
				c0.2,0.2,0.5,0.4,0.9,0.4s0.6-0.1,0.9-0.4c0.5-0.5,0.5-1.3,0-1.7C27.5,156.5,27.1,156.4,26.8,156.4L26.8,156.4z"/>
		</g>
		<path opacity="0.7" fill="#FFFFFF" enable-background="new    " d="M26.7,156.5c-0.2,0.2-0.2,0.4,0,0.6c0.2,0.2,0.4,0.2,0.5,0
			c0.2-0.2,0.2-0.4,0-0.6S26.8,156.3,26.7,156.5z"/>
	</g>
</g>
<line fill="none" stroke="#FFFFFF" stroke-width="1.9115" stroke-miterlimit="10" x1="39.3" y1="159.2" x2="92.6" y2="159.2"/>
<rect x="73.7" y="116.8" fill="#8CCACD" width="82.6" height="7.9"/>
<g>
	<g>
		<polygon fill="#DEDCDC" points="83.7,122.8 85,125.2 86.4,122.8 85.6,120.9 		"/>
		<polygon fill="#FFFFFF" points="81.5,120.6 79.1,119.2 81.5,117.9 83.4,118.7 		"/>
	</g>
	<g>
		<path fill="#EF4F3D" d="M82.8,123.7c-0.1,0.5-0.3,1.1-0.7,1.5c-1.2,1.2-3.6,0.6-3.6,0.6s-0.6-2.5,0.6-3.6c0.4-0.4,0.9-0.6,1.5-0.7
			L82.8,123.7z"/>
		<path fill="#F07537" d="M82.6,123.5c-0.1,0.5-0.2,0.9-0.6,1.2c-1,1-3,0.5-3,0.5s-0.5-2.1,0.5-3c0.3-0.3,0.8-0.5,1.2-0.6
			L82.6,123.5z"/>
		<path fill="#FAB217" d="M82.4,123.4c-0.1,0.4-0.2,0.8-0.5,1c-0.8,0.8-2.5,0.4-2.5,0.4s-0.4-1.7,0.4-2.5c0.3-0.3,0.6-0.4,1-0.5
			L82.4,123.4z"/>
	</g>
	<g>
		<polygon fill="#DEDCDC" points="80.7,121.4 81.2,120.8 83.5,123.1 82.9,123.6 		"/>
		<polygon fill="#FFFFFF" points="80.7,121.4 81.2,120.8 83,122.7 82.4,123.1 		"/>
	</g>
	<g>
		<path fill="#FFFFFF" d="M81.2,120.8c0.2-1.2,0.6-2.5,1.6-3.5c2.1-2.1,5.8-1.7,5.8-1.7s0.4,3.8-1.7,5.8c-1,1-2.3,1.4-3.4,1.6
			L81.2,120.8z"/>
		<path opacity="0.1" enable-background="new    " d="M82.1,118.1c-0.5,0.7-0.7,1.6-0.9,2.4l-0.2-0.1
			C81.2,119.6,82.1,118.1,82.1,118.1z"/>
		<path fill="#EF4F3D" d="M85,116.1c1.8-0.6,3.6-0.4,3.6-0.4s0.2,1.8-0.4,3.6L85,116.1z"/>
		<path opacity="0.1" enable-background="new    " d="M88.6,115.7C88.8,115.7,88.6,115.7,88.6,115.7s0.4,3.8-1.7,5.8
			c-1,1-2.3,1.4-3.4,1.6l-0.4-0.4c1.1-0.2,2.5-0.6,3.4-1.6C88.1,119.4,88.6,116.7,88.6,115.7z"/>
	</g>
	<g>
		<g>
			<path fill="#1097BE" d="M85.1,120.1c-0.3,0-0.5-0.1-0.7-0.3c-0.4-0.4-0.4-1,0-1.4c0.2-0.2,0.4-0.3,0.7-0.3c0.3,0,0.5,0.1,0.7,0.3
				c0.4,0.4,0.4,1,0,1.4C85.6,120.1,85.4,120.1,85.1,120.1z"/>
			<path fill="#E9E9E9" d="M85.1,118.4c0.2,0,0.4,0.1,0.5,0.2c0.3,0.3,0.3,0.8,0,1c-0.1,0.1-0.3,0.2-0.5,0.2c-0.2,0-0.4-0.1-0.5-0.2
				c-0.3-0.3-0.3-0.8,0-1C84.7,118.5,84.9,118.4,85.1,118.4 M85.1,117.9c-0.3,0-0.6,0.1-0.9,0.4c-0.5,0.5-0.5,1.3,0,1.7
				c0.2,0.2,0.5,0.4,0.9,0.4c0.3,0,0.6-0.1,0.9-0.4c0.5-0.5,0.5-1.3,0-1.7C85.7,118.1,85.4,117.9,85.1,117.9L85.1,117.9z"/>
		</g>
		<path opacity="0.7" fill="#FFFFFF" enable-background="new    " d="M84.9,118.1c-0.2,0.2-0.2,0.4,0,0.6c0.2,0.2,0.4,0.2,0.5,0
			c0.2-0.2,0.2-0.4,0-0.6C85.3,117.9,85.1,117.9,84.9,118.1z"/>
	</g>
</g>
<line fill="none" stroke="#FFFFFF" stroke-width="1.9115" stroke-miterlimit="10" x1="97.5" y1="120.8" x2="150.8" y2="120.8"/>
<rect x="131.1" y="82.3" fill="#8CCACD" width="82.6" height="7.9"/>
<g>
	<g>
		<polygon fill="#DEDCDC" points="141,88.3 142.4,90.7 143.7,88.3 142.9,86.4 		"/>
		<polygon fill="#FFFFFF" points="138.8,86.1 136.5,84.7 138.9,83.4 140.7,84.2 		"/>
	</g>
	<g>
		<path fill="#EF4F3D" d="M140.1,89.2c-0.1,0.5-0.3,1.1-0.7,1.5c-1.2,1.2-3.6,0.6-3.6,0.6s-0.6-2.5,0.6-3.6c0.4-0.4,0.9-0.6,1.5-0.7
			L140.1,89.2z"/>
		<path fill="#F07537" d="M139.9,89c-0.1,0.5-0.2,0.9-0.6,1.2c-1,1-3,0.5-3,0.5s-0.5-2.1,0.5-3c0.3-0.3,0.8-0.5,1.2-0.6L139.9,89z"
			/>
		<path fill="#FAB217" d="M139.8,88.9c-0.1,0.4-0.2,0.8-0.5,1c-0.8,0.8-2.5,0.4-2.5,0.4s-0.4-1.7,0.4-2.5c0.3-0.3,0.6-0.4,1-0.5
			L139.8,88.9z"/>
	</g>
	<g>
		<polygon fill="#DEDCDC" points="138.1,86.9 138.5,86.3 140.8,88.6 140.2,89.1 		"/>
		<polygon fill="#FFFFFF" points="138.1,86.9 138.5,86.3 140.4,88.2 139.8,88.6 		"/>
	</g>
	<g>
		<path fill="#FFFFFF" d="M138.5,86.3c0.2-1.2,0.6-2.5,1.6-3.5c2.1-2.1,5.8-1.7,5.8-1.7s0.4,3.8-1.7,5.8c-1,1-2.3,1.4-3.4,1.6
			L138.5,86.3z"/>
		<path opacity="0.1" enable-background="new    " d="M139.5,83.6c-0.5,0.7-0.7,1.6-0.9,2.4l-0.2-0.1
			C138.6,85.1,139.5,83.6,139.5,83.6z"/>
		<path fill="#EF4F3D" d="M142.3,81.6c1.8-0.6,3.6-0.4,3.6-0.4s0.2,1.8-0.4,3.6L142.3,81.6z"/>
		<path opacity="0.1" enable-background="new    " d="M145.9,81.2C146.2,81.2,145.9,81.2,145.9,81.2s0.4,3.8-1.7,5.8
			c-1,1-2.3,1.4-3.4,1.6l-0.4-0.4c1.1-0.2,2.5-0.6,3.4-1.6C145.4,84.9,145.9,82.2,145.9,81.2z"/>
	</g>
	<g>
		<g>
			<path fill="#1097BE" d="M142.4,85.6c-0.3,0-0.5-0.1-0.7-0.3c-0.4-0.4-0.4-1,0-1.4c0.2-0.2,0.4-0.3,0.7-0.3s0.5,0.1,0.7,0.3
				c0.4,0.4,0.4,1,0,1.4C142.9,85.6,142.7,85.6,142.4,85.6z"/>
			<path fill="#E9E9E9" d="M142.4,83.9c0.2,0,0.4,0.1,0.5,0.2c0.3,0.3,0.3,0.8,0,1c-0.1,0.1-0.3,0.2-0.5,0.2s-0.4-0.1-0.5-0.2
				c-0.3-0.3-0.3-0.8,0-1C142.1,84,142.3,83.9,142.4,83.9 M142.4,83.4c-0.3,0-0.6,0.1-0.9,0.4c-0.5,0.5-0.5,1.3,0,1.7
				c0.2,0.2,0.5,0.4,0.9,0.4s0.6-0.1,0.9-0.4c0.5-0.5,0.5-1.3,0-1.7C143.1,83.6,142.8,83.4,142.4,83.4L142.4,83.4z"/>
		</g>
		<path opacity="0.7" fill="#FFFFFF" enable-background="new    " d="M142.3,83.6c-0.2,0.2-0.2,0.4,0,0.6c0.2,0.2,0.4,0.2,0.5,0
			c0.2-0.2,0.2-0.4,0-0.6C142.7,83.4,142.4,83.4,142.3,83.6z"/>
	</g>
</g>
<line fill="none" stroke="#FFFFFF" stroke-width="1.9115" stroke-miterlimit="10" x1="154.9" y1="86.3" x2="208.2" y2="86.3"/>
</svg>
