<?xml version="1.0" encoding="utf-8"?>
<!-- Generator: Adobe Illustrator 18.0.0, SVG Export Plug-In . SVG Version: 6.00 Build 0)  -->
<!DOCTYPE svg PUBLIC "-//W3C//DTD SVG 1.1//EN" "http://www.w3.org/Graphics/SVG/1.1/DTD/svg11.dtd">
<svg version="1.1" id="Layer_1" xmlns="http://www.w3.org/2000/svg" xmlns:xlink="http://www.w3.org/1999/xlink" x="0px" y="0px"
	 viewBox="0 0 130 130" enable-background="new 0 0 130 130" xml:space="preserve">
<g>
	<path opacity="5.000000e-02" d="M129.9,126.2c0-3.1,0-123,0-123c0-1.1-0.8-2-1.7-2H11.8C43.9,38.3,93.9,89.5,125.8,128
		C125.8,128,129.9,129.2,129.9,126.2z"/>
	<path fill="#F4F4F4" d="M126.3,128.7H3.9c-1.1,0-2-0.9-2-2V2.7c0-1.1,0.9-2,2-2h122.4c1.1,0,2,0.9,2,2v124
		C128.3,127.8,127.4,128.7,126.3,128.7z"/>
	<path fill="#DEDDDD" d="M128.3,7.5V2.8c0-1-0.8-1.7-1.7-1.7H3.6C2.7,1,1.9,1.8,1.9,2.8v4.7H128.3z"/>
	<ellipse fill="#F04E3C" cx="5.4" cy="4.6" rx="1.2" ry="1.3"/>
	<ellipse fill="#ECB34B" cx="8.6" cy="4.6" rx="1.2" ry="1.3"/>
	<ellipse fill="#518E40" cx="11.9" cy="4.6" rx="1.2" ry="1.3"/>
	<path opacity="2.000000e-02" d="M1.9,33.6V127c0,1,0.8,1.7,1.7,1.7h91.4C64.1,97,33.1,65.2,1.9,33.6z"/>
	<g>
		<path opacity="0.5" fill="#FFFFFF" d="M128.3,103.4V2.9c0-1-0.8-1.7-1.7-1.7H10.2C43.7,35.1,95,69.3,128.3,103.4z"/>
	</g>
	<g>
		<g>
			<rect x="17.4" y="24.5" fill="#1999B6" width="97.2" height="3.4"/>
			<rect x="17.4" y="27.9" fill="#E2E2E2" width="97.2" height="87.7"/>
			<rect x="19.8" y="30.5" fill="#FFFFFF" width="18.4" height="82.3"/>
			<g>
				<rect x="40.4" y="30.5" fill="#FFFFFF" width="71.8" height="82.3"/>
				<rect x="40.4" y="33.4" fill="#1999B6" width="12.6" height="3.4"/>
				<g>
					<rect x="50.2" y="41.3" fill="#EFEFEF" width="16.1" height="3.4"/>
					<rect x="50.2" y="47.9" fill="#EFEFEF" width="16.1" height="3.4"/>
					<rect x="69.6" y="41.3" fill="#EFEFEF" width="16.1" height="3.4"/>
					<rect x="69.6" y="47.9" fill="#EFEFEF" width="16.1" height="3.4"/>
					<rect x="89.1" y="41.3" fill="#EFEFEF" width="16.1" height="3.4"/>
					<rect x="89.1" y="47.9" fill="#EFEFEF" width="16.1" height="3.4"/>
				</g>
			</g>
			<g>
				<rect x="40.4" y="89.2" fill="#1999B6" width="12.6" height="3.4"/>
				<g>
					<rect x="50.2" y="97.1" fill="#EFEFEF" width="16.1" height="3.4"/>
					<rect x="50.2" y="103.8" fill="#EFEFEF" width="16.1" height="3.4"/>
					<rect x="69.6" y="97.1" fill="#EFEFEF" width="16.1" height="3.4"/>
					<rect x="69.6" y="103.8" fill="#EFEFEF" width="16.1" height="3.4"/>
					<rect x="89.1" y="97.1" fill="#EFEFEF" width="16.1" height="3.4"/>
					<rect x="89.1" y="103.8" fill="#EFEFEF" width="16.1" height="3.4"/>
				</g>
			</g>
			<g>
				<rect x="40.4" y="61.3" fill="#1999B6" width="12.6" height="3.4"/>
				<g>
					<rect x="50.2" y="69.2" fill="#EFEFEF" width="16.1" height="3.4"/>
					<rect x="50.2" y="75.9" fill="#EFEFEF" width="16.1" height="3.4"/>
					<rect x="69.6" y="69.2" fill="#EFEFEF" width="16.1" height="3.4"/>
					<rect x="69.6" y="75.9" fill="#EFEFEF" width="16.1" height="3.4"/>
					<rect x="89.1" y="69.2" fill="#EFEFEF" width="16.1" height="3.4"/>
					<rect x="89.1" y="75.9" fill="#EFEFEF" width="16.1" height="3.4"/>
				</g>
			</g>
		</g>
		<g>
			<polygon fill="#EFEFEF" points="22.9,39 22.9,40.8 22.9,42.6 35.2,42.6 35.2,40.8 35.2,39 			"/>
			<polygon fill="#ECB34B" points="22.9,33.6 22.9,35.4 22.9,37.2 35.2,37.2 35.2,35.4 35.2,33.6 			"/>
			<polygon fill="#EFEFEF" points="22.9,46.2 22.9,48 35.2,48 35.2,46.2 35.2,44.4 22.9,44.4 			"/>
			<polygon fill="#EFEFEF" points="22.9,51.6 22.9,53.4 35.2,53.4 35.2,51.6 35.2,49.8 22.9,49.8 			"/>
			<polygon fill="#EFEFEF" points="22.9,57 22.9,58.8 35.2,58.8 35.2,57 35.2,55.2 22.9,55.2 			"/>
			<polygon fill="#EFEFEF" points="22.9,62.4 22.9,64.2 35.2,64.2 35.2,62.4 35.2,60.6 22.9,60.6 			"/>
		</g>
	</g>
</g>
<rect x="17.6" y="15.4" fill="#8DCBCE" width="35.2" height="3.4"/>
<g>
	<g>
		<polygon fill="#DFDDDD" points="21.8,18 22.4,19 23,18 22.7,17.2 		"/>
		<polygon fill="#FFFFFF" points="20.9,17 19.9,16.5 20.9,15.9 21.7,16.2 		"/>
	</g>
	<g>
		<path fill="#F0503D" d="M21.5,18.4c0,0.2-0.1,0.5-0.3,0.6c-0.5,0.5-1.5,0.3-1.5,0.3s-0.2-1,0.3-1.5c0.2-0.2,0.4-0.3,0.6-0.3
			L21.5,18.4z"/>
		<path fill="#F17637" d="M21.4,18.3c0,0.2-0.1,0.4-0.2,0.5c-0.4,0.4-1.3,0.2-1.3,0.2s-0.2-0.9,0.2-1.3c0.1-0.1,0.3-0.2,0.5-0.2
			L21.4,18.3z"/>
		<path fill="#FBB317" d="M21.3,18.2c0,0.2-0.1,0.3-0.2,0.4c-0.3,0.3-1.1,0.2-1.1,0.2s-0.2-0.7,0.2-1.1c0.1-0.1,0.3-0.2,0.4-0.2
			L21.3,18.2z"/>
	</g>
	<g>
		<polygon fill="#DFDDDD" points="20.6,17.4 20.8,17.1 21.8,18.1 21.5,18.3 		"/>
		<polygon fill="#FFFFFF" points="20.6,17.4 20.8,17.1 21.6,17.9 21.3,18.1 		"/>
	</g>
	<g>
		<path fill="#FFFFFF" d="M20.8,17.1c0.1-0.5,0.3-1.1,0.7-1.5c0.9-0.9,2.5-0.7,2.5-0.7s0.2,1.6-0.7,2.5c-0.4,0.4-1,0.6-1.5,0.7
			L20.8,17.1z"/>
		<path opacity="0.1" fill="#010101" enable-background="new    " d="M21.2,16c-0.2,0.3-0.3,0.7-0.4,1l-0.1,0
			C20.8,16.6,21.2,16,21.2,16z"/>
		<path fill="#F0503D" d="M22.4,15.1c0.8-0.2,1.5-0.2,1.5-0.2s0.1,0.8-0.2,1.5L22.4,15.1z"/>
		<path opacity="0.1" fill="#010101" enable-background="new    " d="M23.9,14.9C24,15,23.9,14.9,23.9,14.9s0.2,1.6-0.7,2.5
			c-0.4,0.4-1,0.6-1.5,0.7l-0.2-0.2c0.5-0.1,1-0.3,1.5-0.7C23.7,16.5,23.9,15.4,23.9,14.9z"/>
	</g>
	<g>
		<g>
			<path fill="#1499BF" d="M22.5,16.8c-0.1,0-0.2,0-0.3-0.1c-0.2-0.2-0.2-0.4,0-0.6c0.1-0.1,0.2-0.1,0.3-0.1c0.1,0,0.2,0,0.3,0.1
				c0.2,0.2,0.2,0.4,0,0.6C22.7,16.8,22.6,16.8,22.5,16.8z"/>
			<path fill="#EAEAEA" d="M22.5,16.1c0.1,0,0.2,0,0.2,0.1c0.1,0.1,0.1,0.3,0,0.4c-0.1,0.1-0.1,0.1-0.2,0.1c-0.1,0-0.2,0-0.2-0.1
				c-0.1-0.1-0.1-0.3,0-0.4C22.3,16.1,22.4,16.1,22.5,16.1 M22.5,15.9c-0.1,0-0.3,0.1-0.4,0.2c-0.2,0.2-0.2,0.5,0,0.7
				c0.1,0.1,0.2,0.2,0.4,0.2c0.1,0,0.3-0.1,0.4-0.2c0.2-0.2,0.2-0.5,0-0.7C22.7,16,22.6,15.9,22.5,15.9L22.5,15.9z"/>
		</g>
		<path opacity="0.7" fill="#FFFFFF" enable-background="new    " d="M22.4,16c-0.1,0.1-0.1,0.2,0,0.2c0.1,0.1,0.2,0.1,0.2,0
			c0.1-0.1,0.1-0.2,0-0.2C22.6,15.9,22.4,15.9,22.4,16z"/>
	</g>
</g>
<line fill="none" stroke="#FFFFFF" stroke-width="0.8142" stroke-miterlimit="10" x1="27.8" y1="17.1" x2="50.5" y2="17.1"/>
</svg>
