<?xml version="1.0" encoding="utf-8"?>
<!-- Generator: Adobe Illustrator 18.1.1, SVG Export Plug-In . SVG Version: 6.00 Build 0)  -->
<svg version="1.1" id="Layer_1" xmlns="http://www.w3.org/2000/svg" xmlns:xlink="http://www.w3.org/1999/xlink" x="0px" y="0px"
	 viewBox="0 0 130 130" enable-background="new 0 0 130 130" xml:space="preserve">
<g>
	<g>
		<g>
			<g>
				<g>
					<g>
						<g>
							<g>
								<g>
									<g>
										<ellipse fill="#F9CA62" cx="65" cy="65" rx="64" ry="63.9"/>
									</g>
								</g>
							</g>
						</g>
					</g>
				</g>
				<g>
					<g>
						<g>
							<g>
								<g>
									<g>
										<ellipse fill="#F9CA62" cx="65" cy="65" rx="64" ry="63.9"/>
									</g>
								</g>
							</g>
						</g>
					</g>
				</g>
				<path fill="#FFD76D" d="M115.9,103.7C124.1,93,129,79.6,129,65c0-35.3-28.7-63.9-64-63.9c-14.4,0-27.6,4.7-38.3,12.7
					C56.3,43.9,86.1,73.8,115.9,103.7z"/>
				<path fill="#ECB34B" d="M12.7,28.1C5.4,38.5,1,51.3,1,65c0,35.3,28.7,63.9,64,63.9c13.6,0,26.1-4.2,36.5-11.4
					C71.8,87.8,42.2,58.1,12.7,28.1z"/>
			</g>
		</g>
	</g>
	<g>
		<g>
			<g>
				<g>
					<path fill="#813090" d="M112.8,107.5l-11.8-61c0,0-0.5-1-8.2-1s-7.7,1-7.7,1l-13.4,69.3l14.1,9.7
						C96.3,121.9,105.6,115.6,112.8,107.5z"/>
				</g>
			</g>
			<g>
				<path fill="#F04E3C" d="M37.6,20.6c-8.5,0-15.8,4.9-15.8,4.9s0.2,12.7,5.2,18c0,0,2.9-0.9,10.6-0.9s9.7,0.9,9.7,0.9
					c5.4-5.4,6-18,6-18S46.1,20.6,37.6,20.6z"/>
				<path fill="#616162" d="M29,46.4l-11.8,61c7.2,8.1,16.5,14.4,27.1,18l14.1-9.7L44.9,46.4H29z"/>
				<path fill="#F04E3C" d="M29,46.4l-11.8,61c7.2,8.1,16.5,14.4,27.1,18l14.1-9.7L44.9,46.4c0,0,0-1-8.1-1S29,46.4,29,46.4z"/>
			</g>
			<g>
				<path fill="#616162" d="M45.2,125.8c6.2,2,12.9,3.1,19.8,3.1s13.6-1.1,19.8-3.1L72.9,55.6H57.1L45.2,125.8z"/>
				<path fill="#73B8BC" d="M45.2,125.8c6.2,2,12.9,3.1,19.8,3.1s13.6-1.1,19.8-3.1L72.9,55.6H57.1L45.2,125.8z"/>
				<path fill="#2E87A5" d="M74.3,63.9l-1.4-8.2c0,0,0.1-1-7.9-1s-7.9,1-7.9,1l-5.2,30.7C59.3,78.8,66.8,71.4,74.3,63.9z"/>
				<path fill="#2E87A5" d="M46,120.8l-0.8,5c6.2,2,12.9,3.1,19.8,3.1c1.8,0,3.5-0.1,5.2-0.2l12.9-12.9l-4.7-27.5
					C67.6,99.1,56.8,109.9,46,120.8z"/>
			</g>
		</g>
		<path fill="#813090" d="M93.6,20.6c-8.5,0-15.8,4.9-15.8,4.9s0.2,12.7,5.2,18c0,0,2.9-0.9,10.6-0.9s9.7,0.9,9.7,0.9
			c5.4-5.4,6-18,6-18S102.2,20.6,93.6,20.6z"/>
		<path fill="#2E87A5" d="M65.4,30.2c-8.5,0-15.8,4.9-15.8,4.9s0.2,12.7,5.2,18c0,0,2.9-0.9,10.6-0.9s9.7,0.9,9.7,0.9
			c5.4-5.4,6-18,6-18S74,30.2,65.4,30.2z"/>
	</g>
	<g>
		<path opacity="0.15" fill="#FFFFFF" d="M73.8,60.9l-0.4-2.5l-0.5-2.8c0,0,0.1-0.8-5.4-1C69.7,56.8,71.8,58.9,73.8,60.9z"/>
		<path opacity="0.15" fill="#FFFFFF" d="M111,98.1l-10-51.7c0,0-0.5-1-8.2-1s-7.7,1-7.7,1L80.9,68C91,78.1,101,88.1,111,98.1z"/>
		<path opacity="5.000000e-02" d="M101.9,117.2L54.6,70l-2.4,14.2l-4-20.6L30.4,45.8c-1.5,0.3-1.4,0.6-1.4,0.6l-11.8,61
			c7.2,8.1,16.5,14.4,27.1,18l1.1-0.8l-0.2,1.1c3.1,1,6.3,1.8,9.7,2.3c0.8,0.1,1.7,0.2,2.5,0.4c1.7,0.2,3.4,0.3,5.1,0.4
			c0.9,0,1.7,0.1,2.6,0.1c6.9,0,13.6-1.1,19.8-3.1l-0.2-1.1l1.1,0.8C91.6,123.5,97,120.7,101.9,117.2z"/>
		<path opacity="0.15" fill="#FFFFFF" d="M65.2,52.3c0.1,0,0.2,0,0.3,0c7.7,0,9.7,0.9,9.7,0.9c3.3-3.3,4.8-9.3,5.5-13.4
			c0.6,1.5,1.4,2.8,2.4,3.8c0,0,2.9-0.9,10.6-0.9s9.7,0.9,9.7,0.9c5.4-5.4,6-18,6-18s-7.1-4.9-15.7-4.9c-8.5,0-15.8,4.9-15.8,4.9
			s0.1,3.9,1,8.2c-2.8-1.5-7.8-3.6-13.4-3.6c-5.6,0-10.6,2.1-13.4,3.6c1.1-4.4,1.2-8.2,1.2-8.2s-7.1-4.9-15.7-4.9
			c-1.3,0-2.5,0.1-3.7,0.3L65.2,52.3z"/>
		<path opacity="0.15" fill="#FFFFFF" d="M24.7,40.1c0.6,1.3,1.4,2.5,2.3,3.5c0,0,0.3-0.1,1-0.2L24.7,40.1z"/>
	</g>
</g>
</svg>
