<?xml version="1.0" encoding="utf-8"?>
<!-- Generator: Adobe Illustrator 18.1.1, SVG Export Plug-In . SVG Version: 6.00 Build 0)  -->
<svg version="1.1" id="Layer_1" xmlns="http://www.w3.org/2000/svg" xmlns:xlink="http://www.w3.org/1999/xlink" x="0px" y="0px"
	 viewBox="0 0 130 130" enable-background="new 0 0 130 130" xml:space="preserve">
<g>
	<g>
		<path fill="#154270" d="M129,115.5c-0.2,4.3-54.8,13.7-57.3,13.6c-1.7-0.1-4.2-2.4-4.2-22.3c0-19.8,26.1-99.3,45.4-97.8
			C114.5,9.1,129.3,110.6,129,115.5z"/>
		<path fill="#EAEAEA" d="M114.5,104.3c0,0-40.6,25.4-43.1,23.7c-2.7-1.8-4.1-1.4-6.4-1.4L64.2,24.8c2-4.2,28.2-25.1,39.2-23.7
			c0.8,0.1,2.5,4.5,3.7,9.9C109,19.8,115.3,99.6,114.5,104.3z"/>
		<path fill="#F7F7F7" d="M15.5,104.3c0,0,40.6,25.4,43.1,23.7c2.7-1.8,4.1-1.4,6.4-1.4l0.7-101.8c-2-4.2-28.2-25.1-39.2-23.7
			c-0.8,0.1-2.5,4.5-3.7,9.9C21,19.8,14.7,99.6,15.5,104.3z"/>
		<path fill="#EAEAEA" d="M114.5,104.3c0,0-40.6,25.4-43.1,23.7c-2.7-1.8-4.1-1.4-6.4-1.4L64.2,24.8c2-4.2,28.2-25.1,39.2-23.7
			c0.8,0.1,2.5,4.5,3.7,9.9C109,19.8,115.3,99.6,114.5,104.3z"/>
		<path fill="#ECF2F7" d="M111.1,9.9c3.3,17.4,15.2,106.9,13.6,105c-2.3-2.7-7.8-9.1-10.1-10.7c-1.3-1-12-102.5-11.6-103.1
			C104-0.1,110.6,7.4,111.1,9.9z"/>
		<path fill="#A9BEC4" d="M65,126.7c15.4-11.9,45.2-23.3,49.8-22.6c1.8,0.2,10.1,10.4,10,11.3c-0.2,1.6-52.6,13.7-53.2,13.3
			C70.4,127.9,64.8,126.8,65,126.7z"/>
		<g>
			<g>
				<path fill="#F04E3C" d="M70.8,36.1c-0.5,0-1-0.2-1.3-0.7c-0.4-0.7-0.2-1.6,0.5-2.1L95.8,17c0.7-0.4,1.6-0.2,2.1,0.5
					c0.4,0.7,0.2,1.6-0.5,2.1L71.6,35.9C71.3,36,71,36.1,70.8,36.1z"/>
			</g>
			<g>
				<path fill="#D3D3D3" d="M70.8,53c-0.5,0-1-0.2-1.3-0.7c-0.4-0.7-0.2-1.6,0.5-2.1l25.8-16.3c0.7-0.4,1.6-0.2,2.1,0.5
					c0.4,0.7,0.2,1.6-0.5,2.1L71.6,52.8C71.3,52.9,71,53,70.8,53z"/>
			</g>
			<g>
				<path fill="#D3D3D3" d="M70.8,69.9c-0.5,0-1-0.2-1.3-0.7c-0.4-0.7-0.2-1.6,0.5-2.1l25.8-16.3c0.7-0.4,1.6-0.2,2.1,0.5
					c0.4,0.7,0.2,1.6-0.5,2.1L71.6,69.7C71.3,69.8,71,69.9,70.8,69.9z"/>
			</g>
			<g>
				<path fill="#D3D3D3" d="M70.8,88.1c-0.5,0-1-0.2-1.3-0.7c-0.4-0.7-0.2-1.6,0.5-2.1l27.8-17.6c0.7-0.4,1.6-0.2,2.1,0.5
					c0.4,0.7,0.2,1.6-0.5,2.1L71.6,87.8C71.3,88,71,88.1,70.8,88.1z"/>
			</g>
			<g>
				<path fill="#D3D3D3" d="M70.8,107.3c-0.5,0-1-0.2-1.3-0.7c-0.4-0.7-0.2-1.6,0.5-2.1l31.6-20c0.7-0.4,1.6-0.2,2.1,0.5
					c0.4,0.7,0.2,1.6-0.5,2.1l-31.6,20C71.3,107.2,71,107.3,70.8,107.3z"/>
			</g>
		</g>
		<g>
			<path fill="#154270" d="M1,115.5c0.2,4.3,54.8,13.7,57.3,13.6c1.7-0.1,4.2-2.4,4.2-22.3c0-19.8-26.1-99.3-45.4-97.8
				C15.5,9.1,0.7,110.6,1,115.5z"/>
			<path fill="#F7F7F7" d="M15.5,104.3c0,0,40.6,25.4,43.1,23.7c2.7-1.8,4.1-1.4,6.4-1.4l0.7-101.8c-2-4.2-28.2-25.1-39.2-23.7
				c-0.8,0.1-2.5,4.5-3.7,9.9C21,19.8,14.7,99.6,15.5,104.3z"/>
			<path fill="#ECF2F7" d="M18.9,9.9c-3.3,17.4-15.2,106.9-13.6,105c2.3-2.7,7.8-9.1,10.1-10.7c1.3-1,12-102.5,11.6-103.1
				C26-0.1,19.4,7.4,18.9,9.9z"/>
			<path fill="#A9BEC4" d="M65,126.7c-15.4-11.9-45.2-23.3-49.8-22.6c-1.8,0.2-10.1,10.4-10,11.3c0.2,1.6,52.6,13.7,53.2,13.3
				C59.6,127.9,65.2,126.8,65,126.7z"/>
		</g>
		<g>
			<g>
				<path fill="#010101" d="M60,36.1c0.5,0,1-0.2,1.3-0.7c0.4-0.7,0.2-1.6-0.5-2.1L35,17c-0.7-0.4-1.6-0.2-2.1,0.5
					c-0.4,0.7-0.2,1.6,0.5,2.1l25.8,16.3C59.4,36,59.7,36.1,60,36.1z"/>
			</g>
			<g>
				<path fill="#D3D3D3" d="M60,53c0.5,0,1-0.2,1.3-0.7c0.4-0.7,0.2-1.6-0.5-2.1L35,33.9c-0.7-0.4-1.6-0.2-2.1,0.5
					c-0.4,0.7-0.2,1.6,0.5,2.1l25.8,16.3C59.4,52.9,59.7,53,60,53z"/>
			</g>
			<g>
				<path fill="#D3D3D3" d="M60,69.9c0.5,0,1-0.2,1.3-0.7c0.4-0.7,0.2-1.6-0.5-2.1L35,50.8c-0.7-0.4-1.6-0.2-2.1,0.5
					c-0.4,0.7-0.2,1.6,0.5,2.1l25.8,16.3C59.4,69.8,59.7,69.9,60,69.9z"/>
			</g>
			<g>
				<path fill="#D3D3D3" d="M60,88.1c0.5,0,1-0.2,1.3-0.7c0.4-0.7,0.2-1.6-0.5-2.1L33,67.7c-0.7-0.4-1.6-0.2-2.1,0.5
					c-0.4,0.7-0.2,1.6,0.5,2.1l27.8,17.6C59.4,88,59.7,88.1,60,88.1z"/>
			</g>
			<g>
				<path fill="#D3D3D3" d="M60,107.3c0.5,0,1-0.2,1.3-0.7c0.4-0.7,0.2-1.6-0.5-2.1l-31.6-20c-0.7-0.4-1.6-0.2-2.1,0.5
					c-0.4,0.7-0.2,1.6,0.5,2.1l31.6,20C59.4,107.2,59.7,107.3,60,107.3z"/>
			</g>
		</g>
	</g>
	<path opacity="0.3" fill="#FFFFFF" d="M127.3,100.5C123.4,71.1,114.1,9,112.9,8.9c-0.7-0.1-1.4,0-2.1,0.2c-1.3-3-6.8-9-7.8-8
		C92.7,0.1,69.8,17.8,65,23.7C60.4,18.1,39.3,1.7,28.4,1C61.2,34.4,94.2,67.5,127.3,100.5z"/>
	<path opacity="3.000000e-02" d="M15.4,16.3C11.1,39.8,0.8,111.4,1,115.5c0.2,4.3,54.8,13.7,57.3,13.6c0.5,0,1-0.2,1.6-1
		c2.1-0.7,5.3-1.3,5.1-1.4c-0.1,0-0.1-0.1-0.2-0.1c0,0,0,0,0,0v0c0,0,0.1,0,0.1,0c0,0,0.1,0,0.1,0v0c0,0,0,0,0,0
		c-0.1,0-0.1,0.1-0.2,0.1c-0.1,0.1,3,0.8,5.1,1.4c0.5,0.7,1.1,0.9,1.6,1c1.8,0.1,30.7-4.8,46.8-9.1C83.9,85.6,49.6,51,15.4,16.3z"/>
</g>
</svg>
