<?xml version="1.0" encoding="utf-8"?>
<!-- Generator: Adobe Illustrator 18.1.1, SVG Export Plug-In . SVG Version: 6.00 Build 0)  -->
<svg version="1.1" xmlns="http://www.w3.org/2000/svg" xmlns:xlink="http://www.w3.org/1999/xlink" x="0px" y="0px"
	 viewBox="0 0 512 512" enable-background="new 0 0 512 512" xml:space="preserve">
<g id="Layer_2">
	<circle fill="#FBAF34" cx="256.3" cy="256" r="231.5"/>
</g>
<g id="Layer_1">
	<g>
		<path fill="#FFFFFF" d="M316.5,127.5c8.8-6.4,19.5-10.3,31.2-10.3c29.5,0,53.4,23.8,53.4,53.3c0,29.4-23.9,53.3-53.4,53.3
			c-7.4,0-14.5-1.6-21-4.3c5.7-11.5,9-24.3,9-38C335.7,161,328.5,142.2,316.5,127.5z"/>
		<path fill="#FFFFFF" d="M163.6,223.8c7.4,0,14.5-1.5,20.9-4.3c-5.7-11.5-9-24.4-9-38.1c0-20.5,7.2-39.3,19.3-54.1
			c-8.8-6.4-19.5-10.2-31.2-10.2c-29.4,0-53.3,23.8-53.3,53.3C110.3,199.9,134.2,223.8,163.6,223.8z"/>
		<path fill="#FFFFFF" d="M432.8,324.7l-0.5-2.9c-4.3-18.5-17.3-62.5-25.7-73.1c-11.4-20.9-44-19.9-44-19.9h-25.8
			c0,0-24.1-0.8-37.8,19c-0.6,0.9-1.3,2.1-2,3.3c15.1,4.1,32,12.4,41.8,29.4c8.1,11.2,16.9,35.7,23.9,58.1h59.7
			C430.1,338.5,434.9,332.3,432.8,324.7z"/>
		<path fill="#FFFFFF" d="M171.3,278.8c11.9-17.1,28.1-24.9,41.1-28.5c-0.4-0.6-0.7-1.1-1.1-1.6c-11.4-20.9-44-19.9-44-19.9h-25.8
			c0,0-24.1-0.8-37.8,19c-7.3,10.6-18.8,51.4-23.6,71.8c-0.9,3.2-1.1,5.1-1.1,5.1c-1.9,7.6,2.9,13.8,10.7,13.8h58.9
			C155.1,315.7,163.7,289.7,171.3,278.8z"/>
		<path fill="#FFFFFF" d="M255.6,109.1c-38.7,0-70,31.4-70,70.1c0,38.8,31.3,70.1,70,70.1s70.1-31.4,70.1-70.1
			C325.8,140.5,294.4,109.1,255.6,109.1z"/>
		<path fill="#FFFFFF" d="M360.2,382.5l-0.7-3.8c-5.6-24.4-22.7-82.1-33.8-96.1c-15-27.5-57.8-26.2-57.8-26.2h-34
			c0,0-31.6-1.1-49.7,24.9c-9.7,13.9-24.7,67.5-31,94.4c-1.1,4.2-1.5,6.7-1.5,6.7c-2.5,10,3.8,18.1,14.1,18.1h180.7
			C356.6,400.6,362.9,392.5,360.2,382.5z"/>
	</g>
</g>
</svg>
