<?xml version="1.0" encoding="utf-8"?>
<!-- Generator: Adobe Illustrator 20.1.0, SVG Export Plug-In . SVG Version: 6.00 Build 0)  -->
<svg version="1.1" id="Layer_1" xmlns="http://www.w3.org/2000/svg" xmlns:xlink="http://www.w3.org/1999/xlink" x="0px" y="0px"
	 viewBox="0 0 25.9 26" style="enable-background:new 0 0 25.9 26;" xml:space="preserve">
<style type="text/css">
	.st0{fill:#54698D;}
</style>
<g>
	<path class="st0" d="M10.9,7.4C11.5,7.1,12.2,7,12.9,7c0.7,0,1.4,0.1,2.1,0.4l3.5-6.1C16.9,0.5,15,0,12.9,0c-2,0-3.9,0.5-5.6,1.3
		L10.9,7.4z"/>
	<path class="st0" d="M20.3,2.3l-3.5,6.1c1.1,0.9,1.8,2.2,2.1,3.6h7C25.6,8,23.4,4.4,20.3,2.3z"/>
	<path class="st0" d="M18.9,14c-0.2,1.4-1,2.7-2.1,3.6l3.5,6.1c3.2-2.2,5.3-5.7,5.6-9.7H18.9z"/>
	<path class="st0" d="M7,14H0c0.3,4,2.4,7.6,5.6,9.7l3.5-6.1C8,16.7,7.3,15.4,7,14z"/>
	<path class="st0" d="M15,18.6c-0.7,0.2-1.4,0.4-2.1,0.4c-0.7,0-1.4-0.1-2.1-0.4l-3.5,6.1C9,25.5,10.9,26,12.9,26
		c2,0,3.9-0.5,5.6-1.3L15,18.6z"/>
	<path class="st0" d="M5.6,2.3C2.4,4.4,0.3,8,0,12h7c0.2-1.4,1-2.7,2.1-3.6L5.6,2.3z"/>
</g>
</svg>
