<?xml version="1.0" encoding="utf-8"?>
<!-- Generator: Adobe Illustrator 20.1.0, SVG Export Plug-In . SVG Version: 6.00 Build 0)  -->
<svg version="1.1" id="Layer_1" xmlns="http://www.w3.org/2000/svg" xmlns:xlink="http://www.w3.org/1999/xlink" x="0px" y="0px"
	 viewBox="0 0 30 25.4" style="enable-background:new 0 0 30 25.4;" xml:space="preserve">
<style type="text/css">
	.st0{fill:#54698E;}
</style>
<path class="st0" d="M15,0C6.7,0,0,4.9,0,10.9c0,3.3,2,6.2,5.2,8.2c0.4,1.7-0.5,4.7-3.8,6.2c5.7,0.7,11.1-3.7,11.1-3.7s0,0,0,0
	c0.8,0.1,1.6,0.2,2.5,0.2c8.3,0,15-4.9,15-10.9C30,4.9,23.2,0,15,0z M13.3,15.9l-5-5l2.1-2.1l2.9,2.9l6.3-6.3l2.1,2.1L13.3,15.9z"/>
</svg>
