<?xml version="1.0" encoding="utf-8"?>
<!-- Generator: Adobe Illustrator 20.1.0, SVG Export Plug-In . SVG Version: 6.00 Build 0)  -->
<svg version="1.1" id="Layer_1" xmlns="http://www.w3.org/2000/svg" xmlns:xlink="http://www.w3.org/1999/xlink" x="0px" y="0px"
	 viewBox="0 0 38 21" style="enable-background:new 0 0 38 21;" xml:space="preserve">
<style type="text/css">
	.st0{fill:#54698E;}
</style>
<g>
	<path class="st0" d="M16.2,6c0-3.3-2.7-6-6-6s-6,2.7-6,6v8h12V6z"/>
	<path class="st0" d="M34.2,6c0-3.3-2.7-6-6-6s-6,2.7-6,6v8h12V6z"/>
	<polygon class="st0" points="36,8 36,16 20,16 20,8 18,8 18,16 2,16 2,8 0,8 0,21 2,21 2,18 18,18 18,21 20,21 20,18 36,18 36,21 
		38,21 38,8 	"/>
</g>
</svg>
