<?xml version="1.0" encoding="utf-8"?>
<!-- Generator: Adobe Illustrator 18.1.1, SVG Export Plug-In . SVG Version: 6.00 Build 0)  -->
<svg version="1.1" id="Layer_1" xmlns="http://www.w3.org/2000/svg" xmlns:xlink="http://www.w3.org/1999/xlink" x="0px" y="0px"
	 viewBox="0 0 130 130" enable-background="new 0 0 130 130" xml:space="preserve">
<g>
	<g>
		<g>
			<path fill="#DEDDDD" d="M127.8,21.8H72.5c-1,0-1.7,0.8-1.7,1.8v3.2c0,1,0.8,1.8,1.7,1.8h55.3c1,0,1.7-0.8,1.7-1.8v-3.2
				C129.5,22.6,128.7,21.8,127.8,21.8z"/>
			<path fill="#DEDDDD" d="M127.8,42H72.5c-1,0-1.7,0.8-1.7,1.8V47c0,1,0.8,1.8,1.7,1.8h55.3c1,0,1.7-0.8,1.7-1.8v-3.2
				C129.5,42.8,128.7,42,127.8,42z"/>
			<path fill="#DEDDDD" d="M127.8,1.6H72.5c-1,0-1.7,0.8-1.7,1.8v3.2c0,1,0.8,1.8,1.7,1.8h55.3c1,0,1.7-0.8,1.7-1.8V3.4
				C129.5,2.4,128.7,1.6,127.8,1.6z"/>
			<path fill="#DEDDDD" d="M127.8,62.2H72.5c-1,0-1.7,0.8-1.7,1.8v3.1c0,0,0,0.1,0,0.1c0,0.5,0.2,0.9,0.5,1.3
				c0.3,0.3,0.8,0.5,1.2,0.5h55.3c1,0,1.7-0.8,1.7-1.8V64C129.5,63,128.7,62.2,127.8,62.2z"/>
			<path fill="#DEDDDD" d="M127.8,82.5H3.3c-1,0-1.7,0.8-1.7,1.8v3.2c0,1,0.8,1.8,1.7,1.8h124.5c1,0,1.7-0.8,1.7-1.8v-3.2
				C129.5,83.2,128.7,82.5,127.8,82.5z"/>
			<path fill="#DEDDDD" d="M127.8,102.7H3.3c-1,0-1.7,0.8-1.7,1.8v3.2c0,1,0.8,1.8,1.7,1.8h124.5c1,0,1.7-0.8,1.7-1.8v-3.2
				C129.5,103.5,128.7,102.7,127.8,102.7z"/>
			<path fill="#DEDDDD" d="M127.8,122.9H3.3c-1,0-1.7,0.8-1.7,1.8v3.2c0,1,0.8,1.8,1.7,1.8h124.5c1,0,1.7-0.8,1.7-1.8v-3.2
				C129.5,123.7,128.7,122.9,127.8,122.9z"/>
		</g>
		<path fill="#B28052" d="M18,20.7c-0.2,0.5-0.3,1-0.3,1.5c0,1.4,0.8,2.6,1.9,3.3c0,0.1,0,0.2,0,0.2c0,1.3-0.1,3.7,1.2,3.4
			c0.4,6.3,3.7,6.6,5.7,8.2c1.1,0.9-0.1,4.8-0.9,6.8c-0.6,1.6-7.6,2.6-12,4.4h38.5c-4.3-1.7-11.2-2.9-11.8-4.4
			c-0.8-2-0.5-5.8,0.6-6.7c2-1.6,3.8-2.1,4.3-8.3c0.8,0.2,1.1-0.8,1.1-1.9c0.9-0.7,1.4-1.7,1.4-2.9c0-0.5-0.1-0.9-0.2-1.3
			c1-0.5,1.6-1.8,1.6-3.3c0-1.3-0.5-2.4-1.2-3c0.3-0.6,0.5-1.3,0.5-2.2c0-1.6-0.8-3-1.8-3.4c-0.9-3.5-2.8-6.4-2.8-6.4
			s0.2,1.3-1.6,2.2c0-0.1-0.1-0.2-0.1-0.2c-1.3-2-3.7-3.2-6.2-3.8c-0.5-0.8-1.2-1.3-2-1.3c-0.6,0-1.1,0.3-1.5,0.7
			c-3-0.3-5.5-0.1-5.5-0.1s0.7,0.2,1.1,1.1c-0.4,0.4-0.7,1-0.9,1.6C26.5,4.3,25.8,4,25,4c-1.7,0-3,1.3-3.5,3
			c-1.2-0.6-1.3-1.6-1.3-1.6S19.9,7,19.8,9.2c-1.5,0.6-2.5,2-2.5,3.5c0,0.8,0.3,1.6,0.8,2.2c-0.9,0.7-1.4,1.7-1.4,2.9
			C16.7,19,17.2,20,18,20.7z"/>
	</g>
	<path fill="#EACBAE" d="M40.7,44.6c-0.8-2.1-1.2-6-0.1-6.9c2-1.6,4.5-2.1,5-8c0.1,0,0.1,0,0.2-0.1c1.4-0.6,2.9-3.1,2.4-5
		c-0.3-1.1-0.8-2-1.3-2.4c-0.1-0.2-0.2-0.3-0.3-0.3c-0.2,0.9-0.3,1.9-0.6,3c0,0.2-1.1,0.2-1.1-0.1c0.2-3.4-1-8.1-1-8.1
		S31.1,11,33.6,13.7c0.3,0.4-6.1,0.6-8.7-1.3c-2.2-1.6-3.3,2.1-3.4,3.8c-0.3,2.6,0.2,6.3,0.1,8c0,0.6-1.3,0.6-1.3,0.5
		c-0.3-1.5-0.5-2.8-0.6-3.9c0,0.4,0,0.7,0,1.1c-0.1,0-0.2,0.1-0.3,0.3c-0.6,0.5-1.1,1.3-1.4,2.5c-0.5,1.9,1,4.4,2.4,5
		c0.1,0,0.2,0.1,0.2,0.1c0.5,5.9,3,6.4,5,8c1.1,0.9,0.7,4.8-0.1,6.9c-0.7,2-11.8,3.4-14.9,6c5.8,5.5,13.6,8.8,22.2,8.8
		c8.7,0,16.6-3.5,22.4-9.1C51.9,48,41.4,46.5,40.7,44.6z"/>
	<g>
		<path fill="#71C0CE" d="M55,48.7c-0.9-3.1-13.9-4.6-14.7-6.7c0-0.1-0.1-0.3-0.1-0.4c0,0,0,0.1-0.1,0.1c0,0.1,0,0.2,0,0.3
			c0,2.6-3.2,4.8-7.2,4.8c-3.8,0-6.9-1.9-7.1-4.4c-1.9,1.9-13,3.1-14.4,6.4c-0.6,1.5-1.3,12.7-1.3,14.9c0,9.6,46.9,9.9,46.9,0
			C57,60.5,55.6,50.6,55,48.7z"/>
	</g>
</g>
</svg>
