<?xml version="1.0" encoding="utf-8"?>
<!-- Generator: Adobe Illustrator 18.1.1, SVG Export Plug-In . SVG Version: 6.00 Build 0)  -->
<svg version="1.1" id="Layer_1" xmlns="http://www.w3.org/2000/svg" xmlns:xlink="http://www.w3.org/1999/xlink" x="0px" y="0px"
	 viewBox="0 0 130 130" enable-background="new 0 0 130 130" xml:space="preserve">
<g>
	<g>
		<path fill="#F17536" d="M129,77.7v-8.1c0-1.7-1.4-3-3-3H68.6c-1.7,0-3,1.4-3,3v56.9c0,1.1,0.6,2.1,1.6,2.6
			C97.8,128.3,123.1,106.5,129,77.7z"/>
		<path fill="#FCB316" d="M60,66.5H2.7c-0.6,0-1.2,0.2-1.7,0.5c1.1,33.1,27.5,59.9,60.7,61.9c0.8-0.5,1.4-1.5,1.4-2.5V69.5
			C63.1,67.9,61.7,66.5,60,66.5z"/>
		<polygon fill="#FFFFFF" points="47.2,84.9 44.6,82.3 38.4,88.5 32.2,82.3 29.6,84.9 35.8,91 29.6,97.2 32.2,99.8 38.4,93.6 
			44.6,99.8 47.2,97.2 41,91 		"/>
		<path fill="#60AB45" d="M1,62.9c0.5,0.3,1.1,0.5,1.7,0.5H60c1.7,0,3-1.4,3-3V3.5c0-1.1-0.6-2-1.4-2.5C28.5,3,2.1,29.7,1,62.9z"/>
		<polygon fill="#FFFFFF" points="49,38.6 40.2,38.6 40.2,29.9 36.6,29.9 36.6,38.6 27.8,38.6 27.8,42.2 36.6,42.2 36.6,51 40.2,51 
			40.2,42.2 49,42.2 		"/>
		<path fill="#9CCB41" d="M129,61v-8.7C123.4,24.6,99.9,3.5,71,1.1h-2.4c-1.7,0-3,1.4-3,3V61c0,1.7,1.4,3,3,3H126
			C127.6,64,129,62.6,129,61z"/>
		<g>
			<rect x="80.6" y="38.6" fill="#FFFFFF" width="21.3" height="3.6"/>
		</g>
		<g>
			<g>
				<rect x="80.6" y="89.2" fill="#FFFFFF" width="21.8" height="3.8"/>
			</g>
			<g>
				<circle fill="#FFFFFF" cx="91.5" cy="84.4" r="3.4"/>
			</g>
			<g>
				<circle fill="#FFFFFF" cx="91.5" cy="97.6" r="3.4"/>
			</g>
		</g>
	</g>
	<g>
		<path opacity="0.1" fill="#FFFFFF" d="M120,99.6c4.3-6.6,7.4-14,9-21.9v-8.1c0-1.7-1.4-3-3-3H86.8C97.9,77.5,108.9,88.6,120,99.6z
			"/>
		<path opacity="5.000000e-02" d="M65.6,74.9v51.5c0,1.1,0.6,2.1,1.6,2.6c14.7-0.3,28.2-5.6,38.9-14.1
			C92.5,101.6,79.1,88.3,65.6,74.9z"/>
		<path opacity="5.000000e-02" d="M57.2,66.5H2.7c-0.6,0-1.2,0.2-1.7,0.5c1.1,33.1,27.5,59.9,60.7,61.9c0.8-0.5,1.4-1.5,1.4-2.5v-54
			C61.1,70.4,59.1,68.5,57.2,66.5z"/>
		<polygon fill="#FFFFFF" points="47.2,84.9 44.6,82.3 38.4,88.5 32.2,82.3 29.6,84.9 35.8,91 29.6,97.2 32.2,99.8 38.4,93.6 
			44.6,99.8 47.2,97.2 41,91 		"/>
		<path opacity="0.1" fill="#FFFFFF" d="M63.1,43V3.5c0-1.1-0.6-2-1.4-2.5C50.3,1.7,39.8,5.2,30.8,11C41.6,21.6,52.3,32.3,63.1,43z"
			/>
		<path opacity="5.000000e-02" d="M15.4,24.7C6.8,35.2,1.5,48.4,1,62.9c0.5,0.3,1.1,0.5,1.7,0.5H54C41.1,50.5,28.2,37.6,15.4,24.7z"
			/>
		<path fill="#FFFFFF" d="M29.3,38.6h-1.5v3.6h5.1C31.7,41,30.5,39.8,29.3,38.6z"/>
		<path fill="#FFFFFF" d="M36.6,46v5h3.7v-1.4C39,48.4,37.8,47.2,36.6,46z"/>
		<path opacity="0.1" fill="#FFFFFF" d="M84.2,64H126c1.7,0,3-1.4,3-3v-8.7C123.4,24.6,99.9,3.5,71,1.1h-2.4c-1.7,0-3,1.4-3,3v41.4
			C71.8,51.7,78,57.8,84.2,64z"/>
		<g>
			<rect x="80.6" y="38.6" fill="#FFFFFF" width="21.3" height="3.6"/>
		</g>
	</g>
</g>
</svg>
