<?xml version="1.0" encoding="utf-8"?>
<!-- Generator: Adobe Illustrator 18.1.1, SVG Export Plug-In . SVG Version: 6.00 Build 0)  -->
<svg version="1.1" id="Layer_1" xmlns="http://www.w3.org/2000/svg" xmlns:xlink="http://www.w3.org/1999/xlink" x="0px" y="0px"
	 viewBox="0 0 130 130" enable-background="new 0 0 130 130" xml:space="preserve">
<g>
	<g>
		
			<rect x="45.1" y="62.6" transform="matrix(-1 -8.535909e-03 8.535909e-03 -1 105.5762 131.938)" fill="#9CCA41" width="16" height="6.3"/>
		
			<rect x="22.5" y="69.4" transform="matrix(-0.7501 -0.6613 0.6613 -0.7501 -6.2921 152.3339)" fill="#9CCA41" width="6.3" height="16"/>
		
			<rect x="80.8" y="43.3" transform="matrix(-0.7849 -0.6196 0.6196 -0.7849 118.0899 143.5251)" fill="#9CCA41" width="6.3" height="16"/>
		
			<rect x="101.2" y="42.7" transform="matrix(0.7479 -0.6638 0.6638 0.7479 -7.3434 82.0195)" fill="#9CCA41" width="6.3" height="16"/>
	</g>
	<g>
		<path fill="#81AE41" d="M21.6,81.9c-2.4-2.1-5.3-3.1-8.2-3.1c-3.4,0-6.9,1.4-9.3,4.2c-4.5,5.1-4,13,1.1,17.5
			c2.4,2.1,5.3,3.1,8.2,3.1c3.4,0,6.9-1.4,9.3-4.2C27.3,94.3,26.8,86.4,21.6,81.9z M18.3,95.5c-1.2,1.4-3,2.2-4.8,2.2
			c-1.6,0-3.1-0.6-4.3-1.6c-1.3-1.1-2.1-2.7-2.2-4.4c-0.1-1.7,0.5-3.4,1.6-4.7c1.2-1.4,3-2.2,4.8-2.2c1.6,0,3.1,0.6,4.3,1.6
			c1.3,1.1,2.1,2.7,2.2,4.4C20,92.5,19.4,94.2,18.3,95.5z"/>
		<path fill="#81AE41" d="M125.9,56.2c-2.5-2.8-5.9-4.2-9.3-4.2c-2.9,0-5.9,1-8.2,3.1c-5.1,4.6-5.6,12.4-1,17.5
			c2.5,2.8,5.9,4.2,9.3,4.2c2.9,0,5.9-1,8.2-3.1C130,69.2,130.4,61.4,125.9,56.2z M120.9,69.3c-1.2,1-2.7,1.6-4.3,1.6
			c-1.8,0-3.6-0.8-4.8-2.2c-2.4-2.7-2.1-6.8,0.5-9.1c1.2-1,2.7-1.6,4.3-1.6c1.8,0,3.6,0.8,4.8,2.2C123.8,62.9,123.5,67,120.9,69.3z"
			/>
		<path fill="#81AE41" d="M101.5,29.1c-2.3-1.8-5-2.7-7.7-2.7c-3.7,0-7.3,1.6-9.8,4.7c-4.3,5.4-3.3,13.2,2.1,17.5
			c2.3,1.8,5,2.7,7.7,2.7c3.7,0,7.3-1.6,9.8-4.7C107.8,41.1,106.9,33.3,101.5,29.1z M98.9,42.8c-1.2,1.6-3.1,2.5-5.1,2.5
			c-1.5,0-2.8-0.5-4-1.4c-2.8-2.2-3.3-6.3-1.1-9.1c1.2-1.6,3.1-2.5,5.1-2.5c1.5,0,2.8,0.5,4,1.4C100.6,36,101.1,40,98.9,42.8z"/>
		<path fill="#81AE41" d="M71.6,53.5c0,0-0.1,0-0.1,0c-6.8,0-12.4,5.5-12.4,12.3c-0.1,6.9,5.5,12.5,12.3,12.5c0,0,0.1,0,0.1,0
			c6.8,0,12.4-5.5,12.4-12.3C84,59.1,78.5,53.5,71.6,53.5z M71.5,72.4L71.5,72.4c-1.8,0-3.4-0.7-4.6-1.9s-1.9-2.9-1.9-4.6
			c0-3.5,2.9-6.4,6.5-6.4l0.1,0c3.6,0,6.4,3,6.4,6.5C78,69.5,75.1,72.4,71.5,72.4z"/>
		<path fill="#81AE41" d="M37.3,53.2c0,0-0.1,0-0.1,0c-6.8,0-12.4,5.5-12.4,12.3C24.7,72.4,30.2,78,37.1,78c0,0,0.1,0,0.1,0
			c6.8,0,12.4-5.5,12.4-12.3C49.7,58.9,44.2,53.2,37.3,53.2z M37.2,72.1L37.2,72.1c-1.8,0-3.4-0.7-4.6-1.9c-1.2-1.2-1.9-2.9-1.9-4.6
			c0-3.5,2.9-6.4,6.5-6.4l0.1,0c3.6,0,6.4,3,6.4,6.5C43.6,69.2,40.7,72.1,37.2,72.1z"/>
	</g>
</g>
</svg>
