<?xml version="1.0" encoding="utf-8"?>
<!-- Generator: Adobe Illustrator 18.1.1, SVG Export Plug-In . SVG Version: 6.00 Build 0)  -->
<svg version="1.1" id="Layer_1" xmlns="http://www.w3.org/2000/svg" xmlns:xlink="http://www.w3.org/1999/xlink" x="0px" y="0px"
	 viewBox="0 0 130 130" enable-background="new 0 0 130 130" xml:space="preserve">
<g>
	<circle fill="#F9CA62" cx="65" cy="65" r="64"/>
	<path opacity="0.2" fill="#FFFFFF" d="M115.9,103.8C124.1,93,129,79.6,129,65c0-35.3-28.7-64-64-64C50.6,1,37.4,5.7,26.7,13.7
		C56.3,43.9,86.1,73.9,115.9,103.8z"/>
	<path opacity="5.000000e-02" d="M12.7,28.1C5.4,38.5,1,51.2,1,65c0,35.3,28.7,64,64,64c13.6,0,26.1-4.2,36.5-11.4
		C71.8,87.9,42.2,58.1,12.7,28.1z"/>
	<g>
		<g>
			<g>
				<polygon fill="#F04E3C" points="85.8,50.2 94,42 76.9,25 68.7,33.1 				"/>
				<path fill="#813090" d="M87.5,14.3l-3.3,3.3l-0.8,0.8l-7.3,7.3l17.1,17.1l7.3-7.3l0.8-0.8l3.3-3.3c1.3-1.3,1.3-3.2,0.1-4.4
					L91.9,14.2C90.8,13,88.8,13.1,87.5,14.3z"/>
				<path fill="#813090" d="M72.4,29.4L11.6,90.2c-1.3,1.3-1.3,3.2-0.1,4.4l12.8,12.8c1.2,1.2,3.1,1.1,4.4-0.1l60.8-60.8L72.4,29.4z
					"/>
			</g>
			<g>
				<polygon fill="#9CCB41" points="101.9,67.7 110,59.6 92.9,42.5 84.8,50.7 				"/>
				<path fill="#60AB45" d="M103,32.5L99.5,36l-0.6,0.6l-7.6,7.6l17.1,17.1l7.6-7.6l0.6-0.6l3.5-3.5c1.3-1.3,1.3-3.2,0.1-4.4
					l-12.8-12.8C106.2,31.2,104.2,31.2,103,32.5z"/>
				<path fill="#60AB45" d="M104.2,65.4L87.1,48.4l-60.8,60.8c-1.3,1.3-1.3,3.2-0.1,4.4l6.8,6.8c3.5,2,7.2,3.7,11.1,5.1L104.2,65.4z
					"/>
			</g>
		</g>
		<g>
			<rect x="92.4" y="82.3" fill="#FFD76D" width="11.5" height="24.1"/>
			<path fill="#F04E3C" d="M122.2,85.3c0-1.7-1.4-3-3.2-3h-4.6h-1.2h-10.4v24.1h10.4h0.6c3.3-3.9,6.1-8.1,8.4-12.7V85.3z"/>
			<path fill="#F04E3C" d="M8.4,85.3v9.6c2.2,4.1,4.8,8,7.8,11.5h81.4V82.3h-86C9.8,82.3,8.4,83.6,8.4,85.3z"/>
		</g>
		<g>
			<path fill="#73B8BC" d="M91.3,123.3c4.1-1.8,8-4.1,11.5-6.7V106H91.3V123.3z"/>
			<path fill="#154270" d="M100.5,118.2c5.1-3.4,9.6-7.5,13.6-12.2h-2h-0.8h-10.7V118.2z"/>
			<path fill="#154270" d="M65,129c10.7,0,20.7-2.6,29.6-7.2V106H15.9C27.6,120.1,45.3,129,65,129z"/>
		</g>
	</g>
	<path opacity="0.2" fill="#FFFFFF" d="M116.3,103.3c2.2-3,4.2-6.2,5.9-9.5v-8.5c0-1.7-1.4-3-3.2-3H95.4
		C102.4,89.3,109.3,96.3,116.3,103.3z"/>
	<path opacity="5.000000e-02" d="M43.3,58.5L19.6,82.3h-8c-1.8,0-3.2,1.4-3.2,3v9.6C19.1,115.2,40.5,129,65,129
		c13.8,0,26.5-4.4,37-11.8C82.4,97.6,62.9,78.1,43.3,58.5z"/>
	<path opacity="0.2" fill="#FFFFFF" d="M91.3,78.2l10.5-10.5l8.2-8.1l6-6l0.6-0.6l3.5-3.5c1.3-1.3,1.3-3.2,0.1-4.4l-12.8-12.8
		c-0.8-0.8-2-1-3.1-0.7l0.3-0.3c1.3-1.3,1.3-3.2,0.1-4.4L91.9,14.2c-1.2-1.2-3.1-1.1-4.4,0.1l-3.3,3.3l-0.8,0.8l-7.3,7.3l-3.7,3.7
		l-15,15C68.8,55.7,80.1,66.9,91.3,78.2z"/>
</g>
</svg>
