<?xml version="1.0" encoding="utf-8"?>
<!-- Generator: Adobe Illustrator 18.1.1, SVG Export Plug-In . SVG Version: 6.00 Build 0)  -->
<svg version="1.1" id="Layer_1" xmlns="http://www.w3.org/2000/svg" xmlns:xlink="http://www.w3.org/1999/xlink" x="0px" y="0px"
	 viewBox="0 0 130 130" enable-background="new 0 0 130 130" xml:space="preserve">
<g>
	<g>
		<g>
			<g>
				<polygon fill="#F04E3C" points="90.2,41.5 99.1,32.6 80.4,13.9 71.5,22.8 				"/>
				<path fill="#813090" d="M92.1,2.2l-3.6,3.6l-0.9,0.9l-8,8l18.7,18.7l8-8l0.9-0.9l3.6-3.6c1.4-1.4,1.4-3.5,0.1-4.8l-14-14
					C95.6,0.8,93.4,0.9,92.1,2.2z"/>
				<path fill="#813090" d="M75.5,18.8L8.9,85.4c-1.4,1.4-1.4,3.5-0.1,4.8l14,14c1.3,1.3,3.4,1.2,4.8-0.1l66.6-66.6L75.5,18.8z"/>
			</g>
			<g>
				<polygon fill="#9CCB41" points="107.7,60.7 116.7,51.8 98,33.1 89,42.1 				"/>
				<path fill="#60AB45" d="M109,22.1l-3.9,3.9l-0.6,0.6l-8.3,8.3l18.7,18.7l8.3-8.3l0.6-0.6l3.9-3.9c1.4-1.4,1.4-3.5,0.1-4.8
					l-14-14C112.5,20.7,110.4,20.7,109,22.1z"/>
				<path fill="#60AB45" d="M91.6,39.5l-66.6,66.6c-1.4,1.4-1.4,3.5-0.1,4.8l14,14c1.3,1.3,3.4,1.2,4.8-0.1l66.6-66.6L91.6,39.5z"/>
			</g>
		</g>
		<g>
			<rect x="97.4" y="76.7" fill="#FFD76D" width="12.6" height="26.4"/>
			<path fill="#F04E3C" d="M126.5,76.7h-5h-1.3h-11.4v26.4h11.4h1.3h5c1.9,0,3.5-1.5,3.5-3.3V80C130,78.2,128.4,76.7,126.5,76.7z"/>
			<path fill="#F04E3C" d="M103.1,76.7H8.9c-1.9,0-3.5,1.5-3.5,3.3v19.8c0,1.8,1.6,3.3,3.5,3.3h94.2V76.7z"/>
		</g>
		<g>
			<rect x="96.2" y="102.7" fill="#73B8BC" width="12.6" height="26.4"/>
			<path fill="#154270" d="M124.4,102.7h-5.5h-0.9h-11.8v26.4h11.8h0.9h5.5c1.9,0,3.5-1.5,3.5-3.3V106
				C127.9,104.2,126.3,102.7,124.4,102.7z"/>
			<path fill="#154270" d="M99.8,102.7H5.5c-1.9,0-3.5,1.5-3.5,3.3v19.8c0,1.8,1.6,3.3,3.5,3.3h94.2V102.7z"/>
		</g>
	</g>
	<g>
		<path opacity="0.2" fill="#FFFFFF" d="M98.5,76.7c9.8,9.8,19.6,19.7,29.4,29.5V106c0-1.3-0.8-2.3-1.9-2.9h0.4
			c1.9,0,3.5-1.5,3.5-3.3V80c0-1.8-1.6-3.3-3.5-3.3H98.5z"/>
		<path opacity="5.000000e-02" d="M44,50.3L17.6,76.7H8.9c-1.9,0-3.5,1.5-3.5,3.3v19.8c0,1.3,0.8,2.3,1.9,2.9H5.5
			c-1.9,0-3.5,1.5-3.5,3.3v19.8c0,1.8,1.6,3.3,3.5,3.3h103.3v0h13.8C96.3,102.9,70.2,76.6,44,50.3z"/>
		<path opacity="0.2" fill="#FFFFFF" d="M95.1,73.3l15.1-15.1l6.4-6.4l0,0l6.5-6.5l0.6-0.6l3.9-3.9c1.4-1.4,1.4-3.5,0.1-4.8l-14-14
			c-0.9-0.9-2.2-1.1-3.4-0.7l0.3-0.3c1.4-1.4,1.4-3.5,0.1-4.8l-14-14c-1.3-1.3-3.4-1.2-4.8,0.1l-3.6,3.6l-0.9,0.9l-7.2,7.2l-4.9,4.9
			l-0.1,0.1l-3.9,3.9L58.1,36.2C70.5,48.6,82.8,60.9,95.1,73.3z"/>
	</g>
</g>
</svg>
