<?xml version="1.0" encoding="utf-8"?>
<!-- Generator: Adobe Illustrator 18.1.1, SVG Export Plug-In . SVG Version: 6.00 Build 0)  -->
<svg version="1.1" id="Layer_1" xmlns="http://www.w3.org/2000/svg" xmlns:xlink="http://www.w3.org/1999/xlink" x="0px" y="0px"
	 viewBox="0 0 130 130" enable-background="new 0 0 130 130" xml:space="preserve">
<g>
	<g>
		<g>
			<g>
				<circle fill="#DCDBDA" cx="65" cy="65" r="64"/>
				<path opacity="0.1" fill="#FFFFFF" d="M115.9,103.8C124.1,93,129,79.6,129,65c0-35.3-28.7-64-64-64C50.6,1,37.4,5.7,26.7,13.7
					C56.3,43.9,86.1,73.9,115.9,103.8z"/>
				<path opacity="5.000000e-02" fill="#020202" d="M12.7,28.1C5.4,38.5,1,51.2,1,65c0,35.3,28.7,64,64,64
					c13.6,0,26.1-4.2,36.5-11.4C71.8,87.9,42.2,58.1,12.7,28.1z"/>
			</g>
		</g>
	</g>
</g>
<g>
	<g>
		<path d="M17,108.3c1.9,2.2,4,4.3,6.3,6.2V17.5c-2.2,1.9-4.3,4-6.3,6.2V108.3z"/>
		<rect x="26.8" y="17.5" width="3.1" height="87.2"/>
		<rect x="33.7" y="17.5" width="3.1" height="87.2"/>
		<rect x="40.7" y="17.5" width="6.4" height="87.2"/>
		<rect x="50.9" y="17.5" width="14.1" height="87.2"/>
		<rect x="68.9" y="17.5" width="7.1" height="87.2"/>
		<rect x="79.8" y="17.5" width="7.1" height="87.2"/>
		<rect x="90.7" y="17.5" width="2.7" height="87.2"/>
		<rect x="97.3" y="17.5" width="2.7" height="87.2"/>
		<path d="M115.5,26.7c-2.6-3.4-5.6-6.5-8.8-9.3h-2.8v98h1.6c3.7-3,7-6.5,10-10.2V26.7z"/>
		<g opacity="0.8">
			<rect x="17" y="63" fill="#F1592A" width="98.5" height="5.2"/>
		</g>
		<g>
			<polygon fill="#F1592A" points="106.5,69.1 112.6,68.1 106,64.8 111.4,59.3 104.7,60.4 105.5,54.8 101.3,59 98,52.5 96.8,60.3 
				90.7,57.3 93.3,62.3 87.4,63.2 94,66.6 88.5,72.2 95.1,71.1 94.2,76.7 98.5,72.3 102,79 103.2,71.1 109.2,74.2 			"/>
		</g>
	</g>
	<g>
		<path d="M31.1,112.6c0-1.7,0.9-3.4,2.8-3.4c1.9,0,2.8,1.7,2.8,3.4s-0.9,3.4-2.8,3.4C32,116,31.1,114.3,31.1,112.6z M35.2,112.6
			c0-1.2-0.4-2.2-1.3-2.2c-1,0-1.3,0.9-1.3,2.2c0,1.2,0.4,2.2,1.3,2.2C34.8,114.8,35.2,113.8,35.2,112.6z"/>
		<path d="M39.9,112.6c0-1.7,0.9-3.4,2.8-3.4c1.9,0,2.8,1.7,2.8,3.4s-0.9,3.4-2.8,3.4C40.7,116,39.9,114.3,39.9,112.6z M44,112.6
			c0-1.2-0.4-2.2-1.3-2.2c-1,0-1.3,0.9-1.3,2.2c0,1.2,0.4,2.2,1.3,2.2C43.6,114.8,44,113.8,44,112.6z"/>
		<path d="M48.7,112.6c0-1.7,0.9-3.4,2.8-3.4c1.9,0,2.8,1.7,2.8,3.4s-0.9,3.4-2.8,3.4C49.5,116,48.7,114.3,48.7,112.6z M52.7,112.6
			c0-1.2-0.4-2.2-1.3-2.2c-1,0-1.3,0.9-1.3,2.2c0,1.2,0.4,2.2,1.3,2.2C52.4,114.8,52.7,113.8,52.7,112.6z"/>
		<path d="M57.4,112.6c0-1.7,0.9-3.4,2.8-3.4c1.9,0,2.8,1.7,2.8,3.4s-0.9,3.4-2.8,3.4C58.3,116,57.4,114.3,57.4,112.6z M61.5,112.6
			c0-1.2-0.4-2.2-1.3-2.2c-1,0-1.3,0.9-1.3,2.2c0,1.2,0.4,2.2,1.3,2.2C61.2,114.8,61.5,113.8,61.5,112.6z"/>
		<path d="M67.9,115.9v-4.8l-1.1,1.1l-0.8-0.8l2.1-2.1h1.2v6.6H67.9z"/>
		<path d="M73,115.9v-1.1c2.7-2,3.5-2.7,3.5-3.5c0-0.6-0.5-0.9-1.1-0.9c-0.8,0-1.3,0.3-1.8,0.8l-0.8-0.9c0.7-0.7,1.6-1.1,2.6-1.1
			c1.4,0,2.6,0.8,2.6,2.1c0,1.1-0.9,2.1-2.7,3.4h2.7v1.2H73z"/>
		<path d="M81.3,115l0.8-0.9c0.5,0.5,1.2,0.8,1.8,0.8c0.8,0,1.3-0.3,1.3-0.8c0-0.5-0.4-0.8-1.3-0.8c-0.3,0-0.7,0-0.8,0v-1.3
			c0.1,0,0.6,0,0.8,0c0.7,0,1.2-0.2,1.2-0.7c0-0.5-0.6-0.8-1.2-0.8c-0.7,0-1.2,0.2-1.7,0.7l-0.7-0.9c0.5-0.6,1.4-1.1,2.6-1.1
			c1.6,0,2.5,0.7,2.5,1.8c0,0.8-0.7,1.4-1.5,1.5c0.7,0.1,1.6,0.6,1.6,1.6c0,1.1-1,2-2.6,2C82.8,116,81.8,115.6,81.3,115z"/>
		<path d="M93,115.9v-1.4h-3.2v-1.1l2.7-4.2h2v4h0.9v1.2h-0.9v1.4H93z M93,110.5l-1.8,2.8H93V110.5z"/>
	</g>
</g>
<g>
	<polygon opacity="0.2" fill="#FFFFFF" points="65.1,53.1 65.1,17.5 50.9,17.5 50.9,38.9 	"/>
	<polygon opacity="0.2" fill="#FFFFFF" points="36.9,24.9 36.9,17.5 33.7,17.5 33.7,21.7 	"/>
	<polygon opacity="0.2" fill="#FFFFFF" points="47.1,35.1 47.1,17.5 40.7,17.5 40.7,28.7 	"/>
	<path opacity="0.2" fill="#FFFFFF" d="M86.9,74.9v-6.7h3.8v1.7l-2.2,2.3l2.2-0.4v6.9c0.9,0.9,1.8,1.8,2.7,2.7v-10l1.7-0.3l-0.8,5.5
		l3-3.1v11.6c0.9,0.9,1.8,1.8,2.7,2.7V75l2.1,4l1.2-7.8l0.8,0.4v20.4c3.9,3.9,7.7,7.7,11.6,11.6V26.7c-2.6-3.4-5.6-6.5-8.8-9.3h-2.8
		v38.9l-2.6,2.6l-1.4-2.8V17.5h-2.7v39.9l-0.4,2.9l-3.4-1.7V17.5h-2.7v39.8l-0.1,0l0.1,0.2v5.3L88.6,63h-1.7V17.5h-7.1V63H76V17.5
		h-7.1v39.4L86.9,74.9z"/>
	<g>
		<path d="M31.1,112.6c0-1.7,0.9-3.4,2.8-3.4c1.9,0,2.8,1.7,2.8,3.4s-0.9,3.4-2.8,3.4C32,116,31.1,114.3,31.1,112.6z M35.2,112.6
			c0-1.2-0.4-2.2-1.3-2.2c-1,0-1.3,0.9-1.3,2.2c0,1.2,0.4,2.2,1.3,2.2C34.8,114.8,35.2,113.8,35.2,112.6z"/>
		<path d="M39.9,112.6c0-1.7,0.9-3.4,2.8-3.4c1.9,0,2.8,1.7,2.8,3.4s-0.9,3.4-2.8,3.4C40.7,116,39.9,114.3,39.9,112.6z M44,112.6
			c0-1.2-0.4-2.2-1.3-2.2c-1,0-1.3,0.9-1.3,2.2c0,1.2,0.4,2.2,1.3,2.2C43.6,114.8,44,113.8,44,112.6z"/>
		<path d="M48.7,112.6c0-1.7,0.9-3.4,2.8-3.4c1.9,0,2.8,1.7,2.8,3.4s-0.9,3.4-2.8,3.4C49.5,116,48.7,114.3,48.7,112.6z M52.7,112.6
			c0-1.2-0.4-2.2-1.3-2.2c-1,0-1.3,0.9-1.3,2.2c0,1.2,0.4,2.2,1.3,2.2C52.4,114.8,52.7,113.8,52.7,112.6z"/>
		<path d="M57.4,112.6c0-1.7,0.9-3.4,2.8-3.4c1.9,0,2.8,1.7,2.8,3.4s-0.9,3.4-2.8,3.4C58.3,116,57.4,114.3,57.4,112.6z M61.5,112.6
			c0-1.2-0.4-2.2-1.3-2.2c-1,0-1.3,0.9-1.3,2.2c0,1.2,0.4,2.2,1.3,2.2C61.2,114.8,61.5,113.8,61.5,112.6z"/>
		<path d="M67.9,115.9v-4.8l-1.1,1.1l-0.8-0.8l2.1-2.1h1.2v6.6H67.9z"/>
		<path d="M73,115.9v-1.1c2.7-2,3.5-2.7,3.5-3.5c0-0.6-0.5-0.9-1.1-0.9c-0.8,0-1.3,0.3-1.8,0.8l-0.8-0.9c0.7-0.7,1.6-1.1,2.6-1.1
			c1.4,0,2.6,0.8,2.6,2.1c0,1.1-0.9,2.1-2.7,3.4h2.7v1.2H73z"/>
		<path d="M81.3,115l0.8-0.9c0.5,0.5,1.2,0.8,1.8,0.8c0.8,0,1.3-0.3,1.3-0.8c0-0.5-0.4-0.8-1.3-0.8c-0.3,0-0.7,0-0.8,0v-1.3
			c0.1,0,0.6,0,0.8,0c0.7,0,1.2-0.2,1.2-0.7c0-0.5-0.6-0.8-1.2-0.8c-0.7,0-1.2,0.2-1.7,0.7l-0.7-0.9c0.5-0.6,1.4-1.1,2.6-1.1
			c1.6,0,2.5,0.7,2.5,1.8c0,0.8-0.7,1.4-1.5,1.5c0.7,0.1,1.6,0.6,1.6,1.6c0,1.1-1,2-2.6,2C82.8,116,81.8,115.6,81.3,115z"/>
		<path d="M93,115.9v-1.4h-3.2v-1.1l2.7-4.2h2v4h0.9v1.2h-0.9v1.4H93z M93,110.5l-1.8,2.8H93V110.5z"/>
	</g>
</g>
</svg>
