<?xml version="1.0" encoding="utf-8"?>
<!-- Generator: Adobe Illustrator 18.1.1, SVG Export Plug-In . SVG Version: 6.00 Build 0)  -->
<svg version="1.1" id="Layer_1" xmlns="http://www.w3.org/2000/svg" xmlns:xlink="http://www.w3.org/1999/xlink" x="0px" y="0px"
	 viewBox="0 0 130 130" enable-background="new 0 0 130 130" xml:space="preserve">
<g>
	<g>
		<circle fill="#18B898" cx="65" cy="65" r="64"/>
		<path opacity="0.1" fill="#FFFFFF" d="M115.9,103.8C124.1,93,129,79.6,129,65c0-35.3-28.7-64-64-64C50.6,1,37.4,5.7,26.7,13.7
			C56.3,43.9,86.1,73.9,115.9,103.8z"/>
		<path opacity="5.000000e-02" fill="#010101" d="M12.7,28.1C5.4,38.5,1,51.2,1,65c0,35.3,28.7,64,64,64c13.6,0,26.1-4.2,36.5-11.4
			C71.8,87.9,42.2,58.1,12.7,28.1z"/>
	</g>
	<g>
		<g>
			<path fill="#333333" d="M92.8,98.6l10.4-20.3c6.4-12.4-0.5-27-15.2-32.4h0C73.3,40.5,56,46.3,49.7,58.7L29.3,98.6H92.8z"/>
			<path fill="#333333" d="M120.4,97.1c0-10.9,0-23.9,0-29.9c0-11.6-78.7-9.2-89.2-2c0,0-20.5,15-20.5,15.7
				c0.5,10.3,54.8,33.1,79.4,43C102.9,118.4,113.5,109,120.4,97.1z"/>
			<path fill="#020202" d="M101.1,80.4H11.8c-1.1,0-2,0.9-2,1.9L10.2,98c8.8,14.5,23.1,25.3,40.1,29.3l25.4,0.8
				c10.1-1.7,19.5-5.8,27.4-11.6V82.4C103,81.3,102.1,80.4,101.1,80.4z"/>
			<path fill="#333333" d="M96.2,102.6l-79.5-1.9c-1.1,0-2,0.9-2,1.9l0.1,2.1c0,0,0,0,0,0C26.5,119.5,44.6,129,65,129
				c12.1,0,23.5-3.4,33.1-9.2v-15.3C98.1,103.4,97.3,102.6,96.2,102.6z"/>
			<ellipse fill="#C6C6C5" stroke="#F2F2F2" stroke-miterlimit="10" cx="90" cy="114.2" rx="3.9" ry="3.8"/>
			<ellipse fill="#020202" cx="56.4" cy="102.6" rx="3.9" ry="3.8"/>
			<g>
				<path fill="#020202" d="M30.4,77.9H23c-0.4,0-0.6-0.3-0.6-0.6V77c0-0.4,0.3-0.6,0.6-0.6h7.3c0.4,0,0.6,0.3,0.6,0.6v0.3
					C31,77.7,30.7,77.9,30.4,77.9z"/>
				<path fill="#D1D2D1" d="M23.2,77.1h7.1c0-0.1,0-0.1,0-0.2c0-2-1.6-3.6-3.6-3.6s-3.6,1.6-3.6,3.6c0,0.1,0,0.1,0,0.2
					C23.1,77.1,23.2,77.1,23.2,77.1z"/>
				<ellipse opacity="0.4" fill="#FFFFFF" cx="28.2" cy="75" rx="0.8" ry="0.8"/>
			</g>
			<g>
				<path fill="#020202" d="M36.8,72.3h-7.3c-0.4,0-0.6-0.3-0.6-0.6v-0.3c0-0.4,0.3-0.6,0.6-0.6h7.3c0.4,0,0.6,0.3,0.6,0.6v0.3
					C37.5,72,37.2,72.3,36.8,72.3z"/>
				<path fill="#F04E3C" d="M29.7,71.5h7.1c0-0.1,0-0.1,0-0.2c0-2-1.6-3.6-3.6-3.6s-3.6,1.6-3.6,3.6c0,0.1,0,0.1,0,0.2
					C29.6,71.5,29.6,71.5,29.7,71.5z"/>
				<ellipse opacity="0.4" fill="#FFFFFF" cx="34.6" cy="69.3" rx="0.8" ry="0.8"/>
			</g>
		</g>
		<g>
			<g>
				<path opacity="0.5" fill="#FFFFFF" d="M93.9,73.8H41.2c-0.6,0-1.1-0.5-1.1-1.1v-0.6c0-0.6,0.5-1.1,1.1-1.1h52.7
					c0.6,0,1.1,0.5,1.1,1.1v0.6C95,73.3,94.5,73.8,93.9,73.8z"/>
				<path fill="#D8D8D8" d="M96.2,18.4H54.8v15.3h53.8l0.5-4.3C109.1,23.3,104.4,18.4,96.2,18.4z"/>
				<path fill="#FFFFFF" d="M98.2,18.4C98.2,18.4,98.2,18.4,98.2,18.4c-0.1,0-32.3,0-44.9,0c-12.6,0-17.4,17.3-17.4,29.9
					c0,9.5,1.4,18.2,8.3,24.6h47.9c-6.9-6.4-10.2-15-10.2-24.6C81.9,36.1,86.4,19.4,98.2,18.4z"/>
			</g>
			<g>
				<g>
					<path fill="#D3D3D3" d="M79.5,26.8H50.4c-0.5,0-0.9-0.3-0.9-0.7s0.4-0.7,0.9-0.7h29.1c0.5,0,0.9,0.3,0.9,0.7S80,26.8,79.5,26.8
						z"/>
				</g>
				<g>
					<path fill="#D3D3D3" d="M75.7,33.5H46.7c-0.5,0-0.9-0.3-0.9-0.7c0-0.4,0.4-0.7,0.9-0.7h29.1c0.5,0,0.9,0.3,0.9,0.7
						C76.7,33.2,76.2,33.5,75.7,33.5z"/>
				</g>
				<g>
					<path fill="#D3D3D3" d="M72.9,40.3H43.9c-0.5,0-0.9-0.3-0.9-0.7c0-0.4,0.4-0.7,0.9-0.7h29.1c0.5,0,0.9,0.3,0.9,0.7
						C73.8,39.9,73.4,40.3,72.9,40.3z"/>
				</g>
				<g>
					<path fill="#D3D3D3" d="M71.1,47H42c-0.5,0-0.9-0.3-0.9-0.7c0-0.4,0.4-0.7,0.9-0.7h29.1c0.5,0,0.9,0.3,0.9,0.7
						C72,46.7,71.6,47,71.1,47z"/>
				</g>
				<g>
					<path fill="#D3D3D3" d="M72,53.8H42.9c-0.5,0-0.9-0.3-0.9-0.7c0-0.4,0.4-0.7,0.9-0.7H72c0.5,0,0.9,0.3,0.9,0.7
						C72.9,53.4,72.5,53.8,72,53.8z"/>
				</g>
				<g>
					<path fill="#D3D3D3" d="M73.9,60.5H44.8c-0.5,0-0.9-0.3-0.9-0.7c0-0.4,0.4-0.7,0.9-0.7h29.1c0.5,0,0.9,0.3,0.9,0.7
						C74.8,60.2,74.4,60.5,73.9,60.5z"/>
				</g>
				<g>
					<path fill="#D3D3D3" d="M78.6,67.3H49.5c-0.5,0-0.9-0.3-0.9-0.7c0-0.4,0.4-0.7,0.9-0.7h29.1c0.5,0,0.9,0.3,0.9,0.7
						C79.5,67,79.1,67.3,78.6,67.3z"/>
				</g>
			</g>
		</g>
		<circle fill="#F2F2F2" cx="91.7" cy="113.1" r="1.7"/>
	</g>
</g>
</svg>
