<?xml version="1.0" encoding="utf-8"?>
<!-- Generator: Adobe Illustrator 18.1.1, SVG Export Plug-In . SVG Version: 6.00 Build 0)  -->
<svg version="1.1" id="Layer_1" xmlns="http://www.w3.org/2000/svg" xmlns:xlink="http://www.w3.org/1999/xlink" x="0px" y="0px"
	 viewBox="0 0 130 130" enable-background="new 0 0 130 130" xml:space="preserve">
<g>
	<g>
		<path fill="#F9D8A5" d="M19.7,110.6h90.6c-10-3.8-28.1-16.9-29.4-20.2c-1.6-4-5-11.8-1.5-14.8c0,0,0,0,0.1,0
			c0.8-0.4,1.5-0.9,2.2-1.4c0.1-0.1,0.2-0.1,0.3-0.2h0c5.3-4.2,7.7-11.4,8.8-17.1c2.7-0.3,6.5-4.2,6.5-8.2c0-3.3-2-6.5-3.6-7.6
			c2.3-12.1,2.2-28.4-28.6-28.4c-28.8,0-30.2,15.5-28.2,28.2c-1.6,0.8-4,4.2-4,7.8c0,4.1,4,8.1,6.7,8.2c0.7,5.1,3,12.9,8.8,17.1
			h-0.1c0.5,0.4,1.1,0.7,1.7,1c4.8,2.5,1,11.1-0.7,15.4C47.8,93.6,29.8,106.8,19.7,110.6z"/>
	</g>
	<path fill="#5D2D0F" d="M65.9,25.2c-5.3-5.7,22.3,6,22.3,6S90.9,41,90.4,48c0,0.7,2.3,0.6,2.4,0.3c2.6-11.8,3.1-18.2,0.3-25
		c1.4-8.7-0.7-14.3-6.6-13.8c-1.2-6-7.6-8.3-16.3-5.4C70.5,1,54.4-2,45.8,7C33.4,4.4,37,25.4,37,25.4s-3.7,4,0.2,22.6
		c0,0.1,2.7,0.3,2.8-1c0.2-3.5-0.9-11.2-0.3-16.5c0.4-3.5,2.7-11.2,7.4-7.9C52.8,26.6,66.6,26,65.9,25.2z"/>
	<path fill="#5D2D0F" d="M65.9,25.2c-5.3-5.7,22.3,6,22.3,6S90.9,41,90.4,48c0,0.7,2.3,0.6,2.4,0.3c2.6-11.8,3.1-18.2,0.3-25
		c1.4-8.7-0.7-14.3-6.6-13.8c-1.2-6-7.6-8.3-16.3-5.4C70.5,1,54.4-2,45.8,7C33.4,4.4,37,25.4,37,25.4s-3.7,4,0.2,22.6
		c0,0.1,2.7,0.3,2.8-1c0.2-3.5-0.9-11.2-0.3-16.5c0.4-3.5,2.7-11.2,7.4-7.9C52.8,26.6,66.6,26,65.9,25.2z"/>
	<path fill="#71C0CE" d="M126.7,129c4.9-5.8,0.8-15.7-2.1-24.5c-2.1-6.5-42-9.6-43.8-14.1c-0.3-0.8,0,14.2-15.9,14.2
		c-15.7,0-15.5-15-15.9-14.2C47.4,94.8,7.5,98,5.4,104.5c-2.8,8.8-7,18.7-2.1,24.5H126.7z"/>
	<g>
		<g>
			<path fill="#EAEAEA" d="M85.5,125c-1.4,0-2.5-1.1-2.5-2.5v-13.1c0-1.4,1.1-2.5,2.5-2.5h20.9c1.4,0,2.5,1.1,2.5,2.5v13.1
				c0,1.4-1.1,2.5-2.5,2.5H85.5z"/>
			<g>
				<path fill="#FDFDFE" d="M106.4,107.4c1.1,0,2,0.9,2,2v13.1c0,1.1-0.9,2-2,2H85.5c-1.1,0-2-0.9-2-2v-13.1c0-1.1,0.9-2,2-2H106.4
					 M106.4,106.4H85.5c-1.7,0-3,1.3-3,3v13.1c0,1.7,1.3,3,3,3h20.9c1.7,0,3-1.3,3-3v-13.1C109.4,107.7,108,106.4,106.4,106.4
					L106.4,106.4z"/>
			</g>
		</g>
		<rect x="83.2" y="112.6" fill="none" width="24.9" height="11.2"/>
		<text transform="matrix(1 0 0 1 88.1276 119.9915)" font-family="'AndrogyneMedium'" font-size="10">Ted</text>
	</g>
</g>
</svg>
