<?xml version="1.0" encoding="utf-8"?>
<!-- Generator: Adobe Illustrator 18.1.1, SVG Export Plug-In . SVG Version: 6.00 Build 0)  -->
<svg version="1.1" baseProfile="tiny" id="Layer_1" xmlns="http://www.w3.org/2000/svg" xmlns:xlink="http://www.w3.org/1999/xlink"
	 x="0px" y="0px" viewBox="0 0 130 130" xml:space="preserve">
<g>
	<g>
		<circle fill="#81C2C9" cx="65" cy="65" r="64"/>
		<path fill="#8DCBCE" d="M115.9,103.8C124.1,93,129,79.6,129,65c0-35.3-28.7-64-64-64C50.6,1,37.4,5.7,26.7,13.7
			C56.3,43.9,86.1,73.9,115.9,103.8z"/>
		<path fill="#73B8BC" d="M12.7,28.1C5.4,38.5,1,51.2,1,65c0,35.3,28.7,64,64,64c13.6,0,26.1-4.2,36.5-11.4
			C71.8,87.9,42.2,58.1,12.7,28.1z"/>
	</g>
	<g>
		<g>
			<g>
				<path fill="#F9D8A5" d="M77.7,90c-1.2-3.2-1.8-9.1-0.1-10.4c3.1-2.5,6.8-3.2,7.6-12.1c0.1,0,0.2-0.1,0.3-0.1
					c2.1-0.8,4.4-4.6,3.7-7.5c-0.4-1.7-1.1-3-2-3.7c-0.1-0.2-0.2-0.4-0.5-0.5c-0.2,1.4-0.5,2.9-0.9,4.5c-0.1,0.3-1.7,0.3-1.7-0.2
					c0.4-5.1-1.5-12.3-1.5-12.3S63.2,39,66.9,43.2c0.5,0.6-9.2,1-13.2-1.9c-3.3-2.4-4.9,3.2-5.2,5.8c-0.4,3.9,0.3,9.5,0.2,12.1
					c0,1-2,0.8-2,0.7c-0.5-2.3-0.8-4.2-1-6c0,0.5,0,1.1,0,1.6c-0.2,0-0.4,0.2-0.5,0.4c-0.9,0.7-1.6,2-2.1,3.8
					c-0.8,2.9,1.6,6.7,3.7,7.5c0.1,0.1,0.3,0.1,0.4,0.1c0.8,8.9,4.5,9.7,7.6,12.1c1.7,1.3,1.1,7.3-0.1,10.4
					c-1.1,3-17.9,5.2-22.5,9.1c8.8,8.3,20.6,13.4,33.6,13.4c13.2,0,25.2-5.2,34-13.7C94.6,95,78.8,92.9,77.7,90z"/>
				<path fill="#5D2D0F" d="M86.8,44c1-7.9-4.9-16.6-4.9-16.6s0.3,2-2.4,3.4c0-0.1-0.1-0.3-0.2-0.4c-5.4-8.5-23.7-7.1-23.7-7.1
					s3.6,1.3,1.4,7.6c-2,0.2-3.8,0.6-4.9,0.6c-6.8,0.6-6.9-3-6.9-3s-2.1,10,0.6,17.3c0,0,0,0,0,0c-0.4,2.3-0.6,6.6,1,14.2
					c0,0.1,1.9,0.2,2-0.7c0.1-2.6-0.6-8.2-0.2-12.1c0.3-2.6,1.9-8.2,5.2-5.8c3.9,2.9,13.7,2.5,13.2,1.9c-3.7-4.2,15.7,4.4,15.7,4.4
					s1.9,7.1,1.5,12.3c0,0.5,1.6,0.5,1.7,0.2C87.4,52.7,87.9,48.2,86.8,44z M86.5,43C86.5,42.9,86.5,42.9,86.5,43
					C86.5,42.9,86.5,42.9,86.5,43z M46.3,44C46.3,44,46.3,44,46.3,44C46.3,44,46.3,44,46.3,44z M46.2,44.1
					C46.2,44.1,46.2,44.2,46.2,44.1C46.2,44.2,46.2,44.1,46.2,44.1z M46.1,44.3C46.1,44.3,46.1,44.4,46.1,44.3
					C46.1,44.4,46.1,44.3,46.1,44.3z M45.8,45.4c0,0.1,0,0.1,0,0.2C45.8,45.5,45.8,45.4,45.8,45.4z M46.1,44.5c0,0,0,0.1,0,0.1
					C46,44.6,46.1,44.6,46.1,44.5z M46,44.8c0,0,0,0.1,0,0.1C46,44.8,46,44.8,46,44.8z M45.9,45c0,0,0,0.1,0,0.1
					C45.9,45.1,45.9,45.1,45.9,45z M46.6,43.4C46.6,43.3,46.6,43.3,46.6,43.4C46.6,43.3,46.6,43.3,46.6,43.4z M46.4,43.8
					C46.4,43.7,46.4,43.7,46.4,43.8C46.4,43.7,46.4,43.7,46.4,43.8z M46.4,43.6C46.4,43.6,46.4,43.6,46.4,43.6
					C46.4,43.6,46.4,43.6,46.4,43.6z M46.5,43.6C46.5,43.5,46.5,43.5,46.5,43.6C46.5,43.5,46.5,43.5,46.5,43.6z M46.5,43.5
					C46.5,43.5,46.5,43.5,46.5,43.5C46.5,43.5,46.5,43.5,46.5,43.5z M46.6,43.4C46.6,43.4,46.6,43.4,46.6,43.4
					C46.6,43.4,46.6,43.4,46.6,43.4z M46.6,43.4C46.6,43.4,46.6,43.4,46.6,43.4C46.6,43.4,46.6,43.4,46.6,43.4z"/>
			</g>
			<path fill="#F9C758" d="M65,129c14.9,0,28.6-5.1,39.4-13.6c-0.5-5.5-1.8-13.5-2.8-16.9c-1.4-4.7-23.2-7-24.4-10.3
				C77,87.6,77,98.6,66.2,98.6c-10.7,0-10.7-11-10.9-10.4c-1.2,3.3-23.1,5.5-24.6,10.3c-1.1,3.8-2.6,12.6-2.9,18.6
				C38.3,124.6,51.1,129,65,129z"/>
		</g>
		<g>
			<g>
				<g>
					<g>
						<path fill="#FFFFFF" d="M74.4,125.8c0,1.2-1,2.2-2.2,2.2H60.1c-1.2,0-2.2-1-2.2-2.2v-12.1c0-1.2,1-2.2,2.2-2.2h12.1
							c1.2,0,2.2,1,2.2,2.2V125.8z"/>
					</g>
					<g>
						<path fill="#FFFFFF" d="M68.5,111.7v-2.1c0-1.3-1.1-2.4-2.4-2.4c-1.3,0-2.4,1.1-2.4,2.4v2.1H68.5z M66.2,108.8
							c0.6,0,1.1,0.5,1.1,1.1c0,0.6-0.5,1.1-1.1,1.1c-0.6,0-1.1-0.5-1.1-1.1C65.1,109.3,65.6,108.8,66.2,108.8z"/>
					</g>
					<g>
						<path fill="#1F77B3" d="M72.4,124.4c0,0.9-0.7,1.7-1.7,1.7h-9.2c-0.9,0-1.7-0.7-1.7-1.7v-9.2c0-0.9,0.7-1.7,1.7-1.7h9.2
							c0.9,0,1.7,0.7,1.7,1.7V124.4z"/>
					</g>
					<g>
						<path fill="#3D8BB7" d="M72.4,119.8v-4.6c0-0.9-0.7-1.7-1.7-1.7h-9.2c-0.9,0-1.7,0.7-1.7,1.7v4.6H72.4z"/>
					</g>
				</g>
				<g>
					<path fill="#FFFFFF" d="M64,117.4h-0.5l-0.3-1.9v1.9h-0.6v-2.6h0.9l0.2,1.4l0.2-1.4h0.9v2.6h-0.6v-1.9L64,117.4z"/>
					<path fill="#FFFFFF" d="M66.2,114.8l0.3,2.6h-0.6l0-0.4h-0.3l0,0.4H65l0.3-2.6H66.2z M65.8,115.3L65.8,115.3l-0.1,1.2h0.2
						L65.8,115.3z"/>
					<path fill="#FFFFFF" d="M67.2,116.2v1.2h-0.6v-2.6h0.9c0.1,0,0.2,0,0.2,0c0.1,0,0.1,0.1,0.2,0.1c0,0,0.1,0.1,0.1,0.2
						c0,0.1,0,0.1,0,0.2c0,0.1,0,0.1,0,0.2c0,0,0,0.1,0,0.1c0,0,0,0.1,0,0.1c0,0,0,0.1,0,0.1c0,0,0,0.1-0.1,0.1c0,0-0.1,0.1-0.1,0.1
						c0.1,0,0.1,0,0.1,0.1c0,0,0.1,0.1,0.1,0.1c0,0,0,0.1,0,0.1c0,0,0,0.1,0,0.1c0,0.4,0,0.8,0,1h-0.6v-1c0,0,0-0.1,0-0.1
						c0,0,0,0,0-0.1C67.3,116.2,67.3,116.2,67.2,116.2C67.2,116.2,67.2,116.2,67.2,116.2z M67.2,115.3v0.5h0.1
						c0.1,0,0.1-0.1,0.1-0.2c0-0.1,0-0.2,0-0.2C67.3,115.3,67.3,115.3,67.2,115.3L67.2,115.3z"/>
					<path fill="#FFFFFF" d="M69,114.8h0.6l-0.3,1.2l0.4,1.4H69l-0.3-1.3v1.3h-0.6v-2.6h0.6v1L69,114.8z"/>
				</g>
			</g>
			<g>
				<g>
					<path fill="none" stroke="#FDFDFE" stroke-linecap="round" stroke-linejoin="round" stroke-miterlimit="10" d="M77.9,88.7
						c0,11.9-4.9,21.5-11,21.5"/>
				</g>
				<g>
					<path fill="none" stroke="#FDFDFE" stroke-linecap="round" stroke-linejoin="round" stroke-miterlimit="10" d="M54.3,88.7
						c0,11.9,4.9,21.5,11,21.5"/>
				</g>
			</g>
		</g>
		<g>
			<g>
				<path fill="#F9D8A5" d="M63,125.2c0.4,0.4,0.9,0.7,1.4,0.9h3.6c0.5-0.2,1-0.5,1.4-0.9c-0.5-0.3-2-0.5-2.1-0.8
					c-0.1-0.3-0.2-0.9,0-1c0.3-0.2,0.6-0.3,0.7-1.1c0,0,0,0,0,0c0.2-0.1,0.4-0.4,0.3-0.7c0-0.2-0.1-0.3-0.2-0.3c0,0,0,0,0,0
					c0,0.1,0,0.3-0.1,0.4c0,0-0.2,0-0.2,0c0-0.5-0.1-1.2-0.1-1.2s-1.8-0.8-1.5-0.4c0,0.1-0.9,0.1-1.2-0.2c-0.3-0.2-0.5,0.3-0.5,0.5
					c0,0.4,0,0.9,0,1.1c0,0.1-0.2,0.1-0.2,0.1c0-0.2-0.1-0.4-0.1-0.6c0,0.1,0,0.1,0,0.2c0,0,0,0,0,0c-0.1,0.1-0.2,0.2-0.2,0.4
					c-0.1,0.3,0.1,0.6,0.3,0.7c0,0,0,0,0,0c0.1,0.8,0.4,0.9,0.7,1.1c0.2,0.1,0.1,0.7,0,1C65,124.6,63.4,124.9,63,125.2z"/>
				<path fill="#5D2D0F" d="M68.1,120c0.1-0.7-0.5-1.6-0.5-1.6s0,0.2-0.2,0.3c0,0,0,0,0,0c-0.5-0.8-2.2-0.7-2.2-0.7s0.3,0.1,0.1,0.7
					c-0.2,0-0.4,0.1-0.5,0.1c-0.6,0.1-0.6-0.3-0.6-0.3s-0.2,0.9,0.1,1.6c0,0,0,0,0,0c0,0.2-0.1,0.6,0.1,1.3c0,0,0.2,0,0.2-0.1
					c0-0.2-0.1-0.8,0-1.1c0-0.2,0.2-0.8,0.5-0.5c0.4,0.3,1.3,0.2,1.2,0.2c-0.3-0.4,1.5,0.4,1.5,0.4s0.2,0.7,0.1,1.2c0,0,0.2,0,0.2,0
					C68.1,120.9,68.2,120.4,68.1,120z M68,119.9C68,119.9,68,119.9,68,119.9C68,119.9,68,119.9,68,119.9z M64.3,120
					C64.3,120,64.3,120,64.3,120C64.3,120,64.3,120,64.3,120z M64.3,120.1C64.3,120.1,64.3,120.1,64.3,120.1
					C64.3,120.1,64.3,120.1,64.3,120.1z M64.3,120.1C64.3,120.1,64.3,120.1,64.3,120.1C64.3,120.1,64.3,120.1,64.3,120.1z
					 M64.2,120.2C64.2,120.2,64.2,120.2,64.2,120.2C64.2,120.2,64.2,120.2,64.2,120.2z M64.3,120.1
					C64.3,120.1,64.2,120.1,64.3,120.1C64.2,120.1,64.3,120.1,64.3,120.1z M64.2,120.1C64.2,120.1,64.2,120.1,64.2,120.1
					C64.2,120.1,64.2,120.1,64.2,120.1z M64.2,120.1C64.2,120.1,64.2,120.2,64.2,120.1C64.2,120.2,64.2,120.1,64.2,120.1z M64.3,120
					C64.3,120,64.3,120,64.3,120C64.3,120,64.3,120,64.3,120z M64.3,120C64.3,120,64.3,120,64.3,120C64.3,120,64.3,120,64.3,120z
					 M64.3,120C64.3,120,64.3,120,64.3,120C64.3,120,64.3,120,64.3,120z M64.3,120C64.3,120,64.3,120,64.3,120
					C64.3,120,64.3,120,64.3,120z M64.3,120C64.3,120,64.3,120,64.3,120C64.3,120,64.3,120,64.3,120z M64.3,120
					C64.3,120,64.3,120,64.3,120C64.3,120,64.3,120,64.3,120z M64.3,120C64.3,120,64.3,120,64.3,120C64.3,120,64.3,120,64.3,120z"/>
			</g>
			<path fill="#F9C758" d="M62.8,126.1h6.9c-0.1-0.4-0.1-0.7-0.2-0.9c-0.1-0.4-2.2-0.7-2.3-1c0-0.1,0,1-1,1c-1,0-1-1-1-1
				c-0.1,0.3-2.2,0.5-2.3,1c-0.1,0.2-0.1,0.6-0.2,1C62.7,126.1,62.7,126.1,62.8,126.1z"/>
		</g>
	</g>
</g>
</svg>
