<?xml version="1.0" encoding="utf-8"?>
<!-- Generator: Adobe Illustrator 18.1.1, SVG Export Plug-In . SVG Version: 6.00 Build 0)  -->
<svg version="1.0" id="Layer_1" xmlns="http://www.w3.org/2000/svg" xmlns:xlink="http://www.w3.org/1999/xlink" x="0px" y="0px"
	 viewBox="0 0 130 130" enable-background="new 0 0 130 130" xml:space="preserve">
<g>
	<g>
		<circle fill="#18B898" cx="65" cy="65" r="64"/>
		<path opacity="0.1" fill="#FFFFFF" d="M115.9,103.8C124.1,93,129,79.6,129,65c0-35.3-28.7-64-64-64C50.6,1,37.4,5.7,26.7,13.7
			C56.3,43.9,86.1,73.9,115.9,103.8z"/>
		<path opacity="5.000000e-02" d="M12.7,28.1C5.4,38.5,1,51.2,1,65c0,35.3,28.7,64,64,64c13.6,0,26.1-4.2,36.5-11.4
			C71.8,87.9,42.2,58.1,12.7,28.1z"/>
	</g>
	<g>
		<g>
			<path fill="#EAF5F4" d="M28.2,42.8c2.6,22.3,18.4,44.8,37.5,44.8s35-22.5,37.5-44.8H28.2z"/>
			<path fill="#EAF5F4" d="M30.1,117.8c4.9,3.5,10.3,6.3,16.1,8.2h37.6c6.3-2.1,12.1-5.2,17.3-9.1c-5.5-18.3-19.2-34.3-35.3-34.3
				C49.4,82.7,35.4,99.1,30.1,117.8z"/>
			<path fill="#F9CA62" d="M34.9,120.9c2,1.2,4.1,2.2,6.2,3.1h47.8c2.5-1.1,5-2.4,7.3-3.8c-6.3-11.9-17.6-19.8-30.5-19.8
				C52.6,100.4,41.1,108.7,34.9,120.9z"/>
			<path fill="#F9CA62" d="M43.5,73.7c5.2,7.6,13.2,12.4,22.3,12.4S82.8,81.3,88,73.7H43.5z"/>
		</g>
		<circle fill="#FFFFFF" cx="91" cy="50.4" r="7.6"/>
		<path fill="#FFFFFF" d="M81.4,89c-0.3,1.1-0.5,2.3-0.5,3.5c0,7.4,6,13.4,13.4,13.4c0.3,0,0.5,0,0.8,0C91.8,98.8,87.1,92.7,81.4,89
			z"/>
		<g>
			<path fill="#B28052" d="M106.7,49.9H23.3c-2.8,0-5-2.2-5-5v-1.5c0-2.8,2.2-5,5-5h83.4c2.8,0,5,2.2,5,5v1.5
				C111.7,47.7,109.4,49.9,106.7,49.9z"/>
			<path fill="#B28052" d="M33.9,120.3C43,125.8,53.6,129,65,129s22-3.2,31.1-8.7H33.9z"/>
		</g>
	</g>
	<path opacity="0.2" fill="#FFFFFF" d="M88.7,75.9c6.2-6.9,11-16.2,13.3-26h4.7c2.8,0,5-2.2,5-5v-1.5c0-2.8-2.2-5-5-5H51.2
		L88.7,75.9z"/>
	<path opacity="5.000000e-02" d="M100.9,116.4L23,38.5c-2.6,0.2-4.7,2.3-4.7,5v1.5c0,2.8,2.2,5,5,5h6.2
		c3.7,15.4,13.3,29.6,25.4,35.2c-11.5,5.3-20.7,18.3-24.7,32.7c1.2,0.9,2.5,1.7,3.8,2.5h0C43,125.8,53.6,129,65,129s22-3.2,31.1-8.7
		h0c0,0,0.1,0,0.1-0.1c0,0,0,0,0,0c1.7-1,3.3-2.1,4.9-3.3C101,116.7,101,116.6,100.9,116.4z"/>
</g>
</svg>
