<?xml version="1.0" encoding="iso-8859-1"?>
<!-- Generator: Adobe Illustrator 18.0.0, SVG Export Plug-In . SVG Version: 6.00 Build 0)  -->
<!DOCTYPE svg PUBLIC "-//W3C//DTD SVG 1.1//EN" "http://www.w3.org/Graphics/SVG/1.1/DTD/svg11.dtd">
<svg version="1.1" id="Layer_1" xmlns="http://www.w3.org/2000/svg" xmlns:xlink="http://www.w3.org/1999/xlink" x="0px" y="0px"
	 viewBox="0 0 300 300" style="enable-background:new 0 0 300 300;" xml:space="preserve">
<g>
	<g>
		<circle style="fill:#F9CA61;" cx="150.477" cy="150.272" r="64"/>
		<g>
			<g>
				<g>
					<g>
						<rect x="153.013" y="149.264" style="fill:#A0A09F;" width="34.785" height="33.971"/>
					</g>
					<g>
						<rect x="153.013" y="112.486" style="fill:#7A7B7B;" width="34.785" height="33.971"/>
					</g>
					<path style="fill:#7A7B7B;" d="M212.721,165.147v-6.503h-23.169v22.626h16.917
						C209.244,176.269,211.361,170.856,212.721,165.147z"/>
					<g>
						<rect x="189.552" y="133.982" style="fill:#A0A09F;" width="23.169" height="22.627"/>
					</g>
					<path style="fill:#7A7B7B;" d="M199.653,109.32h-10.101v22.626H211.8C209.295,123.552,205.122,115.88,199.653,109.32z"/>
					<path d="M206.469,181.271h-78.992v9.048h72.906C202.657,187.489,204.697,184.465,206.469,181.271z"/>
					<g>
						<polygon style="fill:#DA2E27;" points="149.961,190.319 102.568,190.319 102.568,165.373 120.193,135.005 149.961,135.005 
													"/>
					</g>
					<g>
						<polygon style="fill:#70BFCD;" points="143.953,163.046 143.953,140.685 122.054,140.685 111.051,163.026 111.051,163.046 
													"/>
					</g>
					<g>
						<path style="fill:#D5D5D5;" d="M201.953,179.793c-4.775,0-8.646,3.871-8.646,8.646c0,2.602,1.154,4.929,2.972,6.514
							c4.012-4.112,7.478-8.756,10.273-13.826C205.219,180.287,203.645,179.793,201.953,179.793z"/>
						<path d="M201.953,176.336c-6.674,0-12.103,5.43-12.103,12.104c0,3.534,1.532,6.709,3.956,8.924
							c1.7-1.565,3.308-3.227,4.831-4.966c-1.135-0.953-1.873-2.363-1.873-3.958c0-2.862,2.328-5.19,5.19-5.19
							c1.05,0,2.025,0.319,2.843,0.857c1.217-1.95,2.343-3.964,3.349-6.047C206.331,176.973,204.217,176.336,201.953,176.336z"/>
					</g>
					<g>
						<circle style="fill:#D5D5D5;" cx="121.57" cy="188.439" r="8.646"/>
						<path d="M121.57,200.542c-6.674,0-12.103-5.429-12.103-12.102s5.429-12.103,12.103-12.103c6.674,0,12.103,5.43,12.103,12.103
							S128.243,200.542,121.57,200.542z M121.57,183.25c-2.862,0-5.19,2.328-5.19,5.19c0,2.862,2.328,5.189,5.19,5.189
							c2.862,0,5.19-2.327,5.19-5.189C126.759,185.578,124.431,183.25,121.57,183.25z"/>
					</g>
				</g>
			</g>
		</g>
		<path style="opacity:0.1;fill:#FFFFFF;" d="M201.393,189.035c8.204-10.759,13.084-24.189,13.084-38.763c0-35.346-28.654-64-64-64
			c-14.372,0-27.638,4.738-38.32,12.737C141.766,129.151,171.544,159.129,201.393,189.035z"/>
		<path style="opacity:0.05;" d="M98.214,113.354c-7.384,10.434-11.737,23.164-11.737,36.918c0,35.346,28.654,64,64,64
			c13.552,0,26.112-4.224,36.459-11.411C157.259,173.127,127.654,143.322,98.214,113.354z"/>
	</g>
</g>
</svg>
